%TF.GenerationSoftware,KiCad,Pcbnew,(6.0.9)*%
%TF.CreationDate,2022-11-26T23:56:03-05:00*%
%TF.ProjectId,rf_controller_hw,72665f63-6f6e-4747-926f-6c6c65725f68,rev?*%
%TF.SameCoordinates,Original*%
%TF.FileFunction,Copper,L1,Top*%
%TF.FilePolarity,Positive*%
%FSLAX46Y46*%
G04 Gerber Fmt 4.6, Leading zero omitted, Abs format (unit mm)*
G04 Created by KiCad (PCBNEW (6.0.9)) date 2022-11-26 23:56:03*
%MOMM*%
%LPD*%
G01*
G04 APERTURE LIST*
G04 Aperture macros list*
%AMRoundRect*
0 Rectangle with rounded corners*
0 $1 Rounding radius*
0 $2 $3 $4 $5 $6 $7 $8 $9 X,Y pos of 4 corners*
0 Add a 4 corners polygon primitive as box body*
4,1,4,$2,$3,$4,$5,$6,$7,$8,$9,$2,$3,0*
0 Add four circle primitives for the rounded corners*
1,1,$1+$1,$2,$3*
1,1,$1+$1,$4,$5*
1,1,$1+$1,$6,$7*
1,1,$1+$1,$8,$9*
0 Add four rect primitives between the rounded corners*
20,1,$1+$1,$2,$3,$4,$5,0*
20,1,$1+$1,$4,$5,$6,$7,0*
20,1,$1+$1,$6,$7,$8,$9,0*
20,1,$1+$1,$8,$9,$2,$3,0*%
G04 Aperture macros list end*
%TA.AperFunction,ComponentPad*%
%ADD10R,1.700000X1.700000*%
%TD*%
%TA.AperFunction,ComponentPad*%
%ADD11O,1.700000X1.700000*%
%TD*%
%TA.AperFunction,ComponentPad*%
%ADD12C,2.000000*%
%TD*%
%TA.AperFunction,ComponentPad*%
%ADD13RoundRect,0.400000X-0.900000X-0.400000X0.900000X-0.400000X0.900000X0.400000X-0.900000X0.400000X0*%
%TD*%
%TA.AperFunction,ComponentPad*%
%ADD14RoundRect,0.400050X-0.899950X-0.400050X0.899950X-0.400050X0.899950X0.400050X-0.899950X0.400050X0*%
%TD*%
%TA.AperFunction,ComponentPad*%
%ADD15RoundRect,0.400000X-0.400000X-0.900000X0.400000X-0.900000X0.400000X0.900000X-0.400000X0.900000X0*%
%TD*%
%TA.AperFunction,ComponentPad*%
%ADD16RoundRect,0.393700X-0.393700X-0.906300X0.393700X-0.906300X0.393700X0.906300X-0.393700X0.906300X0*%
%TD*%
%TA.AperFunction,ComponentPad*%
%ADD17O,1.600000X1.600000*%
%TD*%
%TA.AperFunction,ComponentPad*%
%ADD18R,1.600000X1.600000*%
%TD*%
%TA.AperFunction,ComponentPad*%
%ADD19C,2.517140*%
%TD*%
%TA.AperFunction,ComponentPad*%
%ADD20C,1.998980*%
%TD*%
%TA.AperFunction,ComponentPad*%
%ADD21R,2.000000X2.000000*%
%TD*%
%TA.AperFunction,ViaPad*%
%ADD22C,0.800000*%
%TD*%
%TA.AperFunction,Conductor*%
%ADD23C,0.250000*%
%TD*%
%TA.AperFunction,Conductor*%
%ADD24C,0.254000*%
%TD*%
G04 APERTURE END LIST*
D10*
X213106000Y-73421000D03*
D11*
X213106000Y-75961000D03*
X213106000Y-78501000D03*
D12*
X202490000Y-84110000D03*
X208990000Y-84110000D03*
X202490000Y-88610000D03*
X208990000Y-88610000D03*
X188520000Y-93000000D03*
X195020000Y-93000000D03*
X188520000Y-97500000D03*
X195020000Y-97500000D03*
X173280000Y-101890000D03*
X179780000Y-101890000D03*
X173280000Y-106390000D03*
X179780000Y-106390000D03*
X112320000Y-105700000D03*
X118820000Y-105700000D03*
X112320000Y-110200000D03*
X118820000Y-110200000D03*
X123750000Y-95540000D03*
X130250000Y-95540000D03*
X123750000Y-100040000D03*
X130250000Y-100040000D03*
X100890000Y-95540000D03*
X107390000Y-95540000D03*
X100890000Y-100040000D03*
X107390000Y-100040000D03*
X118820000Y-88610000D03*
X112320000Y-88610000D03*
X118820000Y-84110000D03*
X112320000Y-84110000D03*
D13*
X112551000Y-47169000D03*
X112551000Y-49709000D03*
X112551000Y-52249000D03*
X112551000Y-54789000D03*
X112551000Y-57329000D03*
D14*
X112551000Y-59869000D03*
X112551000Y-62409000D03*
X112551000Y-64949000D03*
X112551000Y-67489000D03*
D15*
X109411000Y-68299000D03*
D16*
X106871000Y-68299000D03*
X104331000Y-68299000D03*
X101791000Y-68299000D03*
X99251000Y-68299000D03*
D14*
X96111000Y-67489000D03*
X96111000Y-64949000D03*
X96111000Y-62409000D03*
X96111000Y-59869000D03*
X96111000Y-47169000D03*
X96111000Y-49709000D03*
X96111000Y-52249000D03*
X96111000Y-57329000D03*
X96111000Y-54789000D03*
D17*
X93218000Y-73914000D03*
X93218000Y-76454000D03*
X93218000Y-78994000D03*
X93218000Y-81534000D03*
X93218000Y-84074000D03*
X100838000Y-84074000D03*
X100838000Y-81534000D03*
X100838000Y-78994000D03*
X100838000Y-76454000D03*
D18*
X100838000Y-73914000D03*
D10*
X196877000Y-73946500D03*
D11*
X196877000Y-71406500D03*
X199417000Y-73946500D03*
X199417000Y-71406500D03*
X201957000Y-73946500D03*
X201957000Y-71406500D03*
X204497000Y-73946500D03*
X204497000Y-71406500D03*
D19*
X161544635Y-92055950D03*
D20*
X150543895Y-90455750D03*
D19*
X146045555Y-105355390D03*
D20*
X150543895Y-86056470D03*
D19*
X161544635Y-105355390D03*
X146045555Y-92055950D03*
D20*
X157046295Y-90455750D03*
X157046295Y-86056470D03*
X144044035Y-101205030D03*
X144044035Y-98705670D03*
X144044035Y-96206310D03*
X156294455Y-108456730D03*
X153795095Y-108456730D03*
X151295735Y-108456730D03*
D21*
X189331000Y-55111000D03*
D12*
X189331000Y-70101000D03*
D22*
X108712000Y-90932000D03*
X98298000Y-89154000D03*
X141732000Y-96774000D03*
X98298000Y-90678000D03*
X107696000Y-91694000D03*
X96774000Y-92710000D03*
X106172000Y-93472000D03*
X106934000Y-92710000D03*
X97790000Y-91948000D03*
D23*
X104331000Y-67699000D02*
X104331000Y-86928208D01*
X167774792Y-113168000D02*
X172288792Y-108654000D01*
X202490000Y-93420000D02*
X202490000Y-88610000D01*
X104331000Y-86928208D02*
X98665000Y-92594208D01*
X98665000Y-92594208D02*
X98665000Y-100961625D01*
X98665000Y-100961625D02*
X110871375Y-113168000D01*
X110871375Y-113168000D02*
X167774792Y-113168000D01*
X172288792Y-108654000D02*
X181542396Y-108654000D01*
X188970000Y-99568000D02*
X189224000Y-99314000D01*
X181542396Y-108654000D02*
X188970000Y-101226396D01*
X188970000Y-101226396D02*
X188970000Y-99568000D01*
X189224000Y-99314000D02*
X196596000Y-99314000D01*
X196596000Y-99314000D02*
X202490000Y-93420000D01*
X106871000Y-67699000D02*
X106871000Y-85024604D01*
X188520000Y-101040000D02*
X188520000Y-97500000D01*
X106871000Y-85024604D02*
X99115000Y-92780604D01*
X99115000Y-92780604D02*
X99115000Y-100775229D01*
X99115000Y-100775229D02*
X111057771Y-112718000D01*
X111057771Y-112718000D02*
X167588396Y-112718000D01*
X167588396Y-112718000D02*
X172102396Y-108204000D01*
X172102396Y-108204000D02*
X181356000Y-108204000D01*
X181356000Y-108204000D02*
X188520000Y-101040000D01*
X109411000Y-67699000D02*
X109411000Y-83121000D01*
X99565000Y-92967000D02*
X99565000Y-100588833D01*
X111244167Y-112268000D02*
X167402000Y-112268000D01*
X109411000Y-83121000D02*
X99565000Y-92967000D01*
X99565000Y-100588833D02*
X111244167Y-112268000D01*
X167402000Y-112268000D02*
X173280000Y-106390000D01*
X100795500Y-78989000D02*
X96988292Y-78989000D01*
X95188594Y-69011406D02*
X96711000Y-67489000D01*
X95188594Y-71943406D02*
X95188594Y-69011406D01*
X96600000Y-73354812D02*
X95188594Y-71943406D01*
X96600000Y-78600708D02*
X96600000Y-73354812D01*
X96988292Y-78989000D02*
X96600000Y-78600708D01*
X100795500Y-81529000D02*
X98891896Y-81529000D01*
X96150000Y-73541208D02*
X93356000Y-70747208D01*
X93356000Y-66548000D02*
X94955000Y-64949000D01*
X93356000Y-70747208D02*
X93356000Y-66548000D01*
X98891896Y-81529000D02*
X96150000Y-78787104D01*
X94955000Y-64949000D02*
X96711000Y-64949000D01*
X96150000Y-78787104D02*
X96150000Y-73541208D01*
X95700000Y-73727604D02*
X95700000Y-78973500D01*
X96711000Y-62409000D02*
X94309000Y-62409000D01*
X95700000Y-78973500D02*
X100795500Y-84069000D01*
X92906000Y-63812000D02*
X92906000Y-70933604D01*
X94309000Y-62409000D02*
X92906000Y-63812000D01*
X92906000Y-70933604D02*
X95700000Y-73727604D01*
X99251000Y-74904500D02*
X100795500Y-76449000D01*
X99251000Y-67699000D02*
X99251000Y-74904500D01*
X100795500Y-73909000D02*
X100795500Y-68694500D01*
X100795500Y-68694500D02*
X101791000Y-67699000D01*
X111951000Y-47169000D02*
X114225000Y-47169000D01*
X114225000Y-47169000D02*
X122579000Y-55523000D01*
X122579000Y-55523000D02*
X132619016Y-55523000D01*
X132619016Y-55523000D02*
X141584016Y-64488000D01*
X141584016Y-64488000D02*
X170166068Y-64488000D01*
X170166068Y-64488000D02*
X184390068Y-78712000D01*
X184390068Y-78712000D02*
X196878000Y-78712000D01*
X196878000Y-78712000D02*
X199417000Y-76173000D01*
X199417000Y-76173000D02*
X199417000Y-73946500D01*
X111951000Y-49709000D02*
X113209000Y-49709000D01*
X113209000Y-49709000D02*
X119473000Y-55973000D01*
X119473000Y-55973000D02*
X132432620Y-55973000D01*
X132432620Y-55973000D02*
X141397620Y-64938000D01*
X141397620Y-64938000D02*
X169979672Y-64938000D01*
X169979672Y-64938000D02*
X184203672Y-79162000D01*
X184203672Y-79162000D02*
X200098328Y-79162000D01*
X200098328Y-79162000D02*
X200592000Y-78668328D01*
X200592000Y-78668328D02*
X200592000Y-72581500D01*
X200592000Y-72581500D02*
X199417000Y-71406500D01*
X111951000Y-52249000D02*
X112955000Y-52249000D01*
X112955000Y-52249000D02*
X117129000Y-56423000D01*
X117129000Y-56423000D02*
X132246224Y-56423000D01*
X132246224Y-56423000D02*
X141211224Y-65388000D01*
X141211224Y-65388000D02*
X169793276Y-65388000D01*
X169793276Y-65388000D02*
X184017276Y-79612000D01*
X184017276Y-79612000D02*
X200284724Y-79612000D01*
X200284724Y-79612000D02*
X201957000Y-77939724D01*
X201957000Y-77939724D02*
X201957000Y-73946500D01*
D24*
X111951000Y-54789000D02*
X114754000Y-54789000D01*
X116840000Y-56875000D02*
X132059000Y-56875000D01*
X132059000Y-56875000D02*
X141024000Y-65840000D01*
X203134000Y-72583500D02*
X201957000Y-71406500D01*
X114754000Y-54789000D02*
X116840000Y-56875000D01*
X141024000Y-65840000D02*
X169606052Y-65840000D01*
X169606052Y-65840000D02*
X183830052Y-80064000D01*
X183830052Y-80064000D02*
X200471948Y-80064000D01*
X200471948Y-80064000D02*
X203134000Y-77401948D01*
X203134000Y-77401948D02*
X203134000Y-72583500D01*
X111951000Y-57329000D02*
X131751000Y-57329000D01*
X131751000Y-57329000D02*
X140716000Y-66294000D01*
X140716000Y-66294000D02*
X169418000Y-66294000D01*
X169418000Y-66294000D02*
X183642000Y-80518000D01*
X183642000Y-80518000D02*
X200660000Y-80518000D01*
X200660000Y-80518000D02*
X204497000Y-76681000D01*
X204497000Y-76681000D02*
X204497000Y-73946500D01*
D23*
X155721805Y-89131260D02*
X140230740Y-89131260D01*
X138430000Y-90932000D02*
X131826000Y-90932000D01*
X131826000Y-90932000D02*
X108712000Y-90932000D01*
X157046295Y-90455750D02*
X155721805Y-89131260D01*
X140230740Y-89131260D02*
X138430000Y-90932000D01*
X92456000Y-71120000D02*
X92456000Y-60706000D01*
X95250000Y-86106000D02*
X95250000Y-73914000D01*
X98298000Y-89154000D02*
X95250000Y-86106000D01*
X95250000Y-73914000D02*
X92456000Y-71120000D01*
X93472000Y-59690000D02*
X96532000Y-59690000D01*
X92456000Y-60706000D02*
X93472000Y-59690000D01*
X96532000Y-59690000D02*
X96711000Y-59869000D01*
X136652000Y-91694000D02*
X141732000Y-96774000D01*
X96266000Y-89408000D02*
X97536000Y-90678000D01*
X93175500Y-84069000D02*
X93175500Y-86317500D01*
X97536000Y-90678000D02*
X98298000Y-90678000D01*
X93175500Y-86317500D02*
X96266000Y-89408000D01*
X107696000Y-91694000D02*
X136652000Y-91694000D01*
X93175500Y-81529000D02*
X93175500Y-84069000D01*
X93175500Y-78989000D02*
X93175500Y-81529000D01*
X93175500Y-76449000D02*
X93175500Y-78989000D01*
X93175500Y-73909000D02*
X93175500Y-76449000D01*
X94234000Y-47498000D02*
X94234000Y-51051208D01*
X96325624Y-47169000D02*
X95996624Y-47498000D01*
X106172000Y-93472000D02*
X136144000Y-93472000D01*
X139954000Y-104394000D02*
X146050000Y-110490000D01*
X92073604Y-53211604D02*
X90990000Y-54295208D01*
X96774000Y-92202000D02*
X96774000Y-92710000D01*
X90990000Y-54295208D02*
X90990000Y-56642000D01*
X96711000Y-47169000D02*
X96325624Y-47169000D01*
X96266000Y-91694000D02*
X96774000Y-92202000D01*
X90990000Y-86418000D02*
X96266000Y-91694000D01*
X95996624Y-47498000D02*
X94234000Y-47498000D01*
X90990000Y-56642000D02*
X90990000Y-86418000D01*
X94234000Y-51051208D02*
X92073604Y-53211604D01*
X136144000Y-93472000D02*
X139954000Y-97282000D01*
X139954000Y-97282000D02*
X139954000Y-104394000D01*
X146050000Y-110490000D02*
X153162000Y-110490000D01*
X153162000Y-110490000D02*
X153795095Y-109856905D01*
X153795095Y-109856905D02*
X153795095Y-108456730D01*
X96212604Y-49709000D02*
X92137802Y-53783802D01*
X91440000Y-62738000D02*
X91440000Y-85598000D01*
X136144000Y-92710000D02*
X142139670Y-98705670D01*
X91440000Y-54481604D02*
X91440000Y-62738000D01*
X91440000Y-85598000D02*
X97790000Y-91948000D01*
X96711000Y-49709000D02*
X96212604Y-49709000D01*
X92137802Y-53783802D02*
X91440000Y-54481604D01*
X106934000Y-92710000D02*
X136144000Y-92710000D01*
X142139670Y-98705670D02*
X144044035Y-98705670D01*
X96711000Y-52249000D02*
X96325624Y-52249000D01*
X96325624Y-52249000D02*
X96250624Y-52324000D01*
X96250624Y-52324000D02*
X94234000Y-52324000D01*
X94234000Y-52324000D02*
X91948000Y-54610000D01*
X91948000Y-54610000D02*
X91948000Y-71882000D01*
X91948000Y-71882000D02*
X93175500Y-73109500D01*
X93175500Y-73109500D02*
X93175500Y-73909000D01*
X111951000Y-67489000D02*
X118543000Y-67489000D01*
X118543000Y-67489000D02*
X121332000Y-70278000D01*
X121332000Y-77688812D02*
X113052812Y-85968000D01*
X113052812Y-85968000D02*
X110625208Y-85968000D01*
X121332000Y-70278000D02*
X121332000Y-77688812D01*
X110625208Y-85968000D02*
X104510000Y-92083208D01*
X104510000Y-92083208D02*
X104510000Y-102390000D01*
X104510000Y-102390000D02*
X112320000Y-110200000D01*
X111951000Y-64949000D02*
X117781000Y-64949000D01*
X117781000Y-64949000D02*
X121782000Y-68950000D01*
X121782000Y-68950000D02*
X121782000Y-77875208D01*
X121782000Y-77875208D02*
X113239208Y-86418000D01*
X113239208Y-86418000D02*
X110811604Y-86418000D01*
X110811604Y-86418000D02*
X104960000Y-92269604D01*
X104960000Y-100134000D02*
X106680000Y-101854000D01*
X104960000Y-92269604D02*
X104960000Y-100134000D01*
X106680000Y-101854000D02*
X121936000Y-101854000D01*
X121936000Y-101854000D02*
X123750000Y-100040000D01*
X111951000Y-62409000D02*
X120192604Y-62409000D01*
X120192604Y-62409000D02*
X122232000Y-64448396D01*
X122232000Y-64448396D02*
X122232000Y-78061604D01*
X110998000Y-86868000D02*
X105410000Y-92456000D01*
X122232000Y-78061604D02*
X113425604Y-86868000D01*
X113425604Y-86868000D02*
X110998000Y-86868000D01*
X105410000Y-92456000D02*
X105410000Y-98060000D01*
X105410000Y-98060000D02*
X107390000Y-100040000D01*
X112320000Y-88610000D02*
X122682000Y-78248000D01*
X122682000Y-78248000D02*
X122682000Y-64262000D01*
X122682000Y-64262000D02*
X118289000Y-59869000D01*
X118289000Y-59869000D02*
X111951000Y-59869000D01*
%TA.AperFunction,Conductor*%
G36*
X94329240Y-46248502D02*
G01*
X94375733Y-46302158D01*
X94385837Y-46372432D01*
X94373386Y-46411702D01*
X94361171Y-46435677D01*
X94358173Y-46441561D01*
X94308742Y-46626039D01*
X94308289Y-46631793D01*
X94308289Y-46631794D01*
X94303483Y-46692865D01*
X94302500Y-46705354D01*
X94302500Y-46739728D01*
X94282498Y-46807849D01*
X94228842Y-46854342D01*
X94192296Y-46864734D01*
X94178273Y-46866505D01*
X94170410Y-46867248D01*
X94142951Y-46868976D01*
X94122263Y-46870277D01*
X94122262Y-46870277D01*
X94114350Y-46870775D01*
X94106809Y-46873225D01*
X94106513Y-46873321D01*
X94083369Y-46878494D01*
X94083065Y-46878532D01*
X94083060Y-46878533D01*
X94075203Y-46879526D01*
X94067838Y-46882442D01*
X94067834Y-46882443D01*
X94022989Y-46900199D01*
X94015570Y-46902871D01*
X93962125Y-46920236D01*
X93955429Y-46924486D01*
X93955428Y-46924486D01*
X93955169Y-46924650D01*
X93934042Y-46935415D01*
X93933754Y-46935529D01*
X93933749Y-46935532D01*
X93926383Y-46938448D01*
X93919975Y-46943104D01*
X93919969Y-46943107D01*
X93880948Y-46971458D01*
X93874411Y-46975901D01*
X93826982Y-47006000D01*
X93821556Y-47011778D01*
X93821555Y-47011779D01*
X93821341Y-47012007D01*
X93803554Y-47027688D01*
X93803309Y-47027866D01*
X93803307Y-47027868D01*
X93796893Y-47032528D01*
X93791839Y-47038637D01*
X93791838Y-47038638D01*
X93761097Y-47075796D01*
X93755866Y-47081730D01*
X93722842Y-47116898D01*
X93722840Y-47116901D01*
X93717414Y-47122679D01*
X93713445Y-47129899D01*
X93700119Y-47149506D01*
X93699920Y-47149746D01*
X93699916Y-47149753D01*
X93694867Y-47155856D01*
X93691493Y-47163027D01*
X93670953Y-47206676D01*
X93667371Y-47213708D01*
X93640305Y-47262940D01*
X93638335Y-47270615D01*
X93638332Y-47270621D01*
X93638256Y-47270919D01*
X93630224Y-47293228D01*
X93630094Y-47293503D01*
X93630091Y-47293511D01*
X93626717Y-47300682D01*
X93625231Y-47308474D01*
X93616195Y-47355843D01*
X93614471Y-47363558D01*
X93600500Y-47417970D01*
X93600500Y-47426207D01*
X93598268Y-47449816D01*
X93596725Y-47457906D01*
X93597223Y-47465817D01*
X93600251Y-47513951D01*
X93600500Y-47521862D01*
X93600500Y-50736613D01*
X93580498Y-50804734D01*
X93563595Y-50825708D01*
X90597747Y-53791556D01*
X90589461Y-53799096D01*
X90582982Y-53803208D01*
X90577557Y-53808985D01*
X90536357Y-53852859D01*
X90533602Y-53855701D01*
X90513865Y-53875438D01*
X90511385Y-53878635D01*
X90503682Y-53887655D01*
X90473414Y-53919887D01*
X90469595Y-53926833D01*
X90469593Y-53926836D01*
X90463652Y-53937642D01*
X90452801Y-53954161D01*
X90440386Y-53970167D01*
X90437241Y-53977436D01*
X90437238Y-53977440D01*
X90422826Y-54010745D01*
X90417609Y-54021395D01*
X90396305Y-54060148D01*
X90394334Y-54067823D01*
X90394334Y-54067824D01*
X90391267Y-54079770D01*
X90384863Y-54098474D01*
X90376819Y-54117063D01*
X90375580Y-54124886D01*
X90375577Y-54124896D01*
X90369901Y-54160732D01*
X90367495Y-54172352D01*
X90356500Y-54215178D01*
X90356500Y-54235432D01*
X90354949Y-54255142D01*
X90351780Y-54275151D01*
X90352526Y-54283043D01*
X90355941Y-54319169D01*
X90356500Y-54331027D01*
X90356500Y-86339233D01*
X90355973Y-86350416D01*
X90354298Y-86357909D01*
X90354547Y-86365835D01*
X90354547Y-86365836D01*
X90356438Y-86425986D01*
X90356500Y-86429945D01*
X90356500Y-86457856D01*
X90356997Y-86461790D01*
X90356997Y-86461791D01*
X90357005Y-86461856D01*
X90357938Y-86473693D01*
X90359327Y-86517889D01*
X90364978Y-86537339D01*
X90368987Y-86556700D01*
X90371526Y-86576797D01*
X90374445Y-86584168D01*
X90374445Y-86584170D01*
X90387804Y-86617912D01*
X90391649Y-86629142D01*
X90403982Y-86671593D01*
X90408015Y-86678412D01*
X90408017Y-86678417D01*
X90414293Y-86689028D01*
X90422988Y-86706776D01*
X90430448Y-86725617D01*
X90435110Y-86732033D01*
X90435110Y-86732034D01*
X90456436Y-86761387D01*
X90462952Y-86771307D01*
X90485458Y-86809362D01*
X90499779Y-86823683D01*
X90512619Y-86838716D01*
X90524528Y-86855107D01*
X90530634Y-86860158D01*
X90558605Y-86883298D01*
X90567384Y-86891288D01*
X95846230Y-92170135D01*
X95846233Y-92170137D01*
X95903284Y-92227188D01*
X95937310Y-92289500D01*
X95934022Y-92355219D01*
X95880458Y-92520072D01*
X95879768Y-92526633D01*
X95879768Y-92526635D01*
X95866013Y-92657508D01*
X95860496Y-92710000D01*
X95861186Y-92716565D01*
X95878885Y-92884958D01*
X95880458Y-92899928D01*
X95939473Y-93081556D01*
X95942776Y-93087278D01*
X95942777Y-93087279D01*
X95963043Y-93122381D01*
X96034960Y-93246944D01*
X96039378Y-93251851D01*
X96039379Y-93251852D01*
X96158325Y-93383955D01*
X96162747Y-93388866D01*
X96317248Y-93501118D01*
X96323276Y-93503802D01*
X96323278Y-93503803D01*
X96485681Y-93576109D01*
X96491712Y-93578794D01*
X96582751Y-93598145D01*
X96672056Y-93617128D01*
X96672061Y-93617128D01*
X96678513Y-93618500D01*
X96869487Y-93618500D01*
X96875939Y-93617128D01*
X96875944Y-93617128D01*
X96965249Y-93598145D01*
X97056288Y-93578794D01*
X97062319Y-93576109D01*
X97224722Y-93503803D01*
X97224724Y-93503802D01*
X97230752Y-93501118D01*
X97385253Y-93388866D01*
X97389675Y-93383955D01*
X97508621Y-93251852D01*
X97508622Y-93251851D01*
X97513040Y-93246944D01*
X97584957Y-93122381D01*
X97605223Y-93087279D01*
X97605224Y-93087278D01*
X97608527Y-93081556D01*
X97653364Y-92943563D01*
X97693438Y-92884958D01*
X97758835Y-92857321D01*
X97773197Y-92856500D01*
X97885487Y-92856500D01*
X97891942Y-92855128D01*
X97892332Y-92855087D01*
X97962170Y-92867860D01*
X98014016Y-92916363D01*
X98031500Y-92980397D01*
X98031500Y-100882858D01*
X98030973Y-100894041D01*
X98029298Y-100901534D01*
X98029547Y-100909460D01*
X98029547Y-100909461D01*
X98031438Y-100969611D01*
X98031500Y-100973570D01*
X98031500Y-101001481D01*
X98031997Y-101005415D01*
X98031997Y-101005416D01*
X98032005Y-101005481D01*
X98032938Y-101017318D01*
X98034327Y-101061514D01*
X98038701Y-101076568D01*
X98039978Y-101080964D01*
X98043987Y-101100325D01*
X98046526Y-101120422D01*
X98049445Y-101127793D01*
X98049445Y-101127795D01*
X98062804Y-101161537D01*
X98066649Y-101172767D01*
X98075268Y-101202435D01*
X98078982Y-101215218D01*
X98083015Y-101222037D01*
X98083017Y-101222042D01*
X98089293Y-101232653D01*
X98097988Y-101250401D01*
X98105448Y-101269242D01*
X98110110Y-101275658D01*
X98110110Y-101275659D01*
X98131436Y-101305012D01*
X98137952Y-101314932D01*
X98160458Y-101352987D01*
X98174779Y-101367308D01*
X98187619Y-101382341D01*
X98199528Y-101398732D01*
X98233605Y-101426923D01*
X98242384Y-101434913D01*
X110367723Y-113560253D01*
X110375263Y-113568539D01*
X110379375Y-113575018D01*
X110385152Y-113580443D01*
X110429026Y-113621643D01*
X110431868Y-113624398D01*
X110451605Y-113644135D01*
X110454802Y-113646615D01*
X110463822Y-113654318D01*
X110496054Y-113684586D01*
X110503000Y-113688405D01*
X110503003Y-113688407D01*
X110513809Y-113694348D01*
X110530328Y-113705199D01*
X110546334Y-113717614D01*
X110553603Y-113720759D01*
X110553607Y-113720762D01*
X110586912Y-113735174D01*
X110597562Y-113740391D01*
X110636315Y-113761695D01*
X110643990Y-113763666D01*
X110643991Y-113763666D01*
X110655937Y-113766733D01*
X110674642Y-113773137D01*
X110693230Y-113781181D01*
X110701053Y-113782420D01*
X110701063Y-113782423D01*
X110736899Y-113788099D01*
X110748519Y-113790505D01*
X110780334Y-113798673D01*
X110791345Y-113801500D01*
X110811599Y-113801500D01*
X110831309Y-113803051D01*
X110851318Y-113806220D01*
X110859210Y-113805474D01*
X110877955Y-113803702D01*
X110895337Y-113802059D01*
X110907194Y-113801500D01*
X167696025Y-113801500D01*
X167707208Y-113802027D01*
X167714701Y-113803702D01*
X167722627Y-113803453D01*
X167722628Y-113803453D01*
X167782778Y-113801562D01*
X167786737Y-113801500D01*
X167814648Y-113801500D01*
X167818583Y-113801003D01*
X167818648Y-113800995D01*
X167830485Y-113800062D01*
X167862743Y-113799048D01*
X167866762Y-113798922D01*
X167874681Y-113798673D01*
X167894135Y-113793021D01*
X167913492Y-113789013D01*
X167925722Y-113787468D01*
X167925723Y-113787468D01*
X167933589Y-113786474D01*
X167940960Y-113783555D01*
X167940962Y-113783555D01*
X167974704Y-113770196D01*
X167985934Y-113766351D01*
X168020775Y-113756229D01*
X168020776Y-113756229D01*
X168028385Y-113754018D01*
X168035204Y-113749985D01*
X168035209Y-113749983D01*
X168045820Y-113743707D01*
X168063568Y-113735012D01*
X168082409Y-113727552D01*
X168118179Y-113701564D01*
X168128099Y-113695048D01*
X168159327Y-113676580D01*
X168159330Y-113676578D01*
X168166154Y-113672542D01*
X168180475Y-113658221D01*
X168195509Y-113645380D01*
X168205486Y-113638131D01*
X168211899Y-113633472D01*
X168240090Y-113599395D01*
X168248080Y-113590616D01*
X172514292Y-109324405D01*
X172576604Y-109290379D01*
X172603387Y-109287500D01*
X181463629Y-109287500D01*
X181474812Y-109288027D01*
X181482305Y-109289702D01*
X181490231Y-109289453D01*
X181490232Y-109289453D01*
X181550382Y-109287562D01*
X181554341Y-109287500D01*
X181582252Y-109287500D01*
X181586187Y-109287003D01*
X181586252Y-109286995D01*
X181598089Y-109286062D01*
X181630347Y-109285048D01*
X181634366Y-109284922D01*
X181642285Y-109284673D01*
X181661739Y-109279021D01*
X181681096Y-109275013D01*
X181693326Y-109273468D01*
X181693327Y-109273468D01*
X181701193Y-109272474D01*
X181708564Y-109269555D01*
X181708566Y-109269555D01*
X181742308Y-109256196D01*
X181753538Y-109252351D01*
X181788379Y-109242229D01*
X181788380Y-109242229D01*
X181795989Y-109240018D01*
X181802808Y-109235985D01*
X181802813Y-109235983D01*
X181813424Y-109229707D01*
X181831172Y-109221012D01*
X181850013Y-109213552D01*
X181885783Y-109187564D01*
X181895703Y-109181048D01*
X181926931Y-109162580D01*
X181926934Y-109162578D01*
X181933758Y-109158542D01*
X181948079Y-109144221D01*
X181963113Y-109131380D01*
X181973090Y-109124131D01*
X181979503Y-109119472D01*
X182007694Y-109085395D01*
X182015684Y-109076616D01*
X189362247Y-101730053D01*
X189370537Y-101722509D01*
X189377018Y-101718396D01*
X189423659Y-101668728D01*
X189426413Y-101665887D01*
X189446134Y-101646166D01*
X189448612Y-101642971D01*
X189456318Y-101633949D01*
X189481158Y-101607497D01*
X189486586Y-101601717D01*
X189496346Y-101583964D01*
X189507199Y-101567441D01*
X189514753Y-101557702D01*
X189519613Y-101551437D01*
X189537176Y-101510853D01*
X189542383Y-101500223D01*
X189563695Y-101461456D01*
X189565666Y-101453779D01*
X189565668Y-101453774D01*
X189568732Y-101441838D01*
X189575138Y-101423126D01*
X189580033Y-101411815D01*
X189583181Y-101404541D01*
X189584421Y-101396713D01*
X189584423Y-101396706D01*
X189590099Y-101360872D01*
X189592505Y-101349252D01*
X189601528Y-101314107D01*
X189601528Y-101314106D01*
X189603500Y-101306426D01*
X189603500Y-101286172D01*
X189605051Y-101266461D01*
X189605922Y-101260965D01*
X189608220Y-101246453D01*
X189604059Y-101202434D01*
X189603500Y-101190577D01*
X189603500Y-100073500D01*
X189623502Y-100005379D01*
X189677158Y-99958886D01*
X189729500Y-99947500D01*
X196517233Y-99947500D01*
X196528416Y-99948027D01*
X196535909Y-99949702D01*
X196543835Y-99949453D01*
X196543836Y-99949453D01*
X196603986Y-99947562D01*
X196607945Y-99947500D01*
X196635856Y-99947500D01*
X196639791Y-99947003D01*
X196639856Y-99946995D01*
X196651693Y-99946062D01*
X196683951Y-99945048D01*
X196687970Y-99944922D01*
X196695889Y-99944673D01*
X196715343Y-99939021D01*
X196734700Y-99935013D01*
X196746930Y-99933468D01*
X196746931Y-99933468D01*
X196754797Y-99932474D01*
X196762168Y-99929555D01*
X196762170Y-99929555D01*
X196795912Y-99916196D01*
X196807142Y-99912351D01*
X196841983Y-99902229D01*
X196841984Y-99902229D01*
X196849593Y-99900018D01*
X196856412Y-99895985D01*
X196856417Y-99895983D01*
X196867028Y-99889707D01*
X196884776Y-99881012D01*
X196903617Y-99873552D01*
X196939387Y-99847564D01*
X196949307Y-99841048D01*
X196980535Y-99822580D01*
X196980538Y-99822578D01*
X196987362Y-99818542D01*
X197001683Y-99804221D01*
X197016717Y-99791380D01*
X197026694Y-99784131D01*
X197033107Y-99779472D01*
X197061298Y-99745395D01*
X197069288Y-99736616D01*
X202882253Y-93923652D01*
X202890539Y-93916112D01*
X202897018Y-93912000D01*
X202943644Y-93862348D01*
X202946398Y-93859507D01*
X202966135Y-93839770D01*
X202968615Y-93836573D01*
X202976320Y-93827551D01*
X203001159Y-93801100D01*
X203006586Y-93795321D01*
X203010405Y-93788375D01*
X203010407Y-93788372D01*
X203016348Y-93777566D01*
X203027199Y-93761047D01*
X203034758Y-93751301D01*
X203039614Y-93745041D01*
X203042759Y-93737772D01*
X203042762Y-93737768D01*
X203057174Y-93704463D01*
X203062391Y-93693813D01*
X203083695Y-93655060D01*
X203088733Y-93635437D01*
X203095137Y-93616734D01*
X203100033Y-93605420D01*
X203100033Y-93605419D01*
X203103181Y-93598145D01*
X203104420Y-93590322D01*
X203104423Y-93590312D01*
X203110099Y-93554476D01*
X203112505Y-93542856D01*
X203121528Y-93507711D01*
X203121528Y-93507710D01*
X203123500Y-93500030D01*
X203123500Y-93479776D01*
X203125051Y-93460065D01*
X203126980Y-93447886D01*
X203128220Y-93440057D01*
X203124059Y-93396038D01*
X203123500Y-93384181D01*
X203123500Y-90061566D01*
X203143502Y-89993445D01*
X203183665Y-89954133D01*
X203375202Y-89836759D01*
X203375208Y-89836755D01*
X203379416Y-89834176D01*
X203559969Y-89679969D01*
X203714176Y-89499416D01*
X203716755Y-89495208D01*
X203716759Y-89495202D01*
X203835654Y-89301183D01*
X203838240Y-89296963D01*
X203863824Y-89235199D01*
X203927211Y-89082167D01*
X203927212Y-89082165D01*
X203929105Y-89077594D01*
X203957017Y-88961332D01*
X203983380Y-88851524D01*
X203983381Y-88851518D01*
X203984535Y-88846711D01*
X204003165Y-88610000D01*
X207476835Y-88610000D01*
X207495465Y-88846711D01*
X207496619Y-88851518D01*
X207496620Y-88851524D01*
X207522983Y-88961332D01*
X207550895Y-89077594D01*
X207552788Y-89082165D01*
X207552789Y-89082167D01*
X207616177Y-89235199D01*
X207641760Y-89296963D01*
X207644346Y-89301183D01*
X207763241Y-89495202D01*
X207763245Y-89495208D01*
X207765824Y-89499416D01*
X207920031Y-89679969D01*
X208100584Y-89834176D01*
X208104792Y-89836755D01*
X208104798Y-89836759D01*
X208267239Y-89936303D01*
X208303037Y-89958240D01*
X208307607Y-89960133D01*
X208307611Y-89960135D01*
X208517833Y-90047211D01*
X208522406Y-90049105D01*
X208574310Y-90061566D01*
X208748476Y-90103380D01*
X208748482Y-90103381D01*
X208753289Y-90104535D01*
X208990000Y-90123165D01*
X209226711Y-90104535D01*
X209231518Y-90103381D01*
X209231524Y-90103380D01*
X209405690Y-90061566D01*
X209457594Y-90049105D01*
X209462167Y-90047211D01*
X209672389Y-89960135D01*
X209672393Y-89960133D01*
X209676963Y-89958240D01*
X209712761Y-89936303D01*
X209875202Y-89836759D01*
X209875208Y-89836755D01*
X209879416Y-89834176D01*
X210059969Y-89679969D01*
X210214176Y-89499416D01*
X210216755Y-89495208D01*
X210216759Y-89495202D01*
X210335654Y-89301183D01*
X210338240Y-89296963D01*
X210363824Y-89235199D01*
X210427211Y-89082167D01*
X210427212Y-89082165D01*
X210429105Y-89077594D01*
X210457017Y-88961332D01*
X210483380Y-88851524D01*
X210483381Y-88851518D01*
X210484535Y-88846711D01*
X210503165Y-88610000D01*
X210484535Y-88373289D01*
X210482969Y-88366763D01*
X210448360Y-88222609D01*
X210429105Y-88142406D01*
X210417478Y-88114335D01*
X210340135Y-87927611D01*
X210340133Y-87927607D01*
X210338240Y-87923037D01*
X210335654Y-87918817D01*
X210216759Y-87724798D01*
X210216755Y-87724792D01*
X210214176Y-87720584D01*
X210059969Y-87540031D01*
X209879416Y-87385824D01*
X209875208Y-87383245D01*
X209875202Y-87383241D01*
X209681183Y-87264346D01*
X209676963Y-87261760D01*
X209672393Y-87259867D01*
X209672389Y-87259865D01*
X209462167Y-87172789D01*
X209462165Y-87172788D01*
X209457594Y-87170895D01*
X209377391Y-87151640D01*
X209231524Y-87116620D01*
X209231518Y-87116619D01*
X209226711Y-87115465D01*
X208990000Y-87096835D01*
X208753289Y-87115465D01*
X208748482Y-87116619D01*
X208748476Y-87116620D01*
X208602609Y-87151640D01*
X208522406Y-87170895D01*
X208517835Y-87172788D01*
X208517833Y-87172789D01*
X208307611Y-87259865D01*
X208307607Y-87259867D01*
X208303037Y-87261760D01*
X208298817Y-87264346D01*
X208104798Y-87383241D01*
X208104792Y-87383245D01*
X208100584Y-87385824D01*
X207920031Y-87540031D01*
X207765824Y-87720584D01*
X207763245Y-87724792D01*
X207763241Y-87724798D01*
X207644346Y-87918817D01*
X207641760Y-87923037D01*
X207639867Y-87927607D01*
X207639865Y-87927611D01*
X207562522Y-88114335D01*
X207550895Y-88142406D01*
X207531640Y-88222609D01*
X207497032Y-88366763D01*
X207495465Y-88373289D01*
X207476835Y-88610000D01*
X204003165Y-88610000D01*
X203984535Y-88373289D01*
X203982969Y-88366763D01*
X203948360Y-88222609D01*
X203929105Y-88142406D01*
X203917478Y-88114335D01*
X203840135Y-87927611D01*
X203840133Y-87927607D01*
X203838240Y-87923037D01*
X203835654Y-87918817D01*
X203716759Y-87724798D01*
X203716755Y-87724792D01*
X203714176Y-87720584D01*
X203559969Y-87540031D01*
X203379416Y-87385824D01*
X203375208Y-87383245D01*
X203375202Y-87383241D01*
X203181183Y-87264346D01*
X203176963Y-87261760D01*
X203172393Y-87259867D01*
X203172389Y-87259865D01*
X202962167Y-87172789D01*
X202962165Y-87172788D01*
X202957594Y-87170895D01*
X202877391Y-87151640D01*
X202731524Y-87116620D01*
X202731518Y-87116619D01*
X202726711Y-87115465D01*
X202490000Y-87096835D01*
X202253289Y-87115465D01*
X202248482Y-87116619D01*
X202248476Y-87116620D01*
X202102609Y-87151640D01*
X202022406Y-87170895D01*
X202017835Y-87172788D01*
X202017833Y-87172789D01*
X201807611Y-87259865D01*
X201807607Y-87259867D01*
X201803037Y-87261760D01*
X201798817Y-87264346D01*
X201604798Y-87383241D01*
X201604792Y-87383245D01*
X201600584Y-87385824D01*
X201420031Y-87540031D01*
X201265824Y-87720584D01*
X201263245Y-87724792D01*
X201263241Y-87724798D01*
X201144346Y-87918817D01*
X201141760Y-87923037D01*
X201139867Y-87927607D01*
X201139865Y-87927611D01*
X201062522Y-88114335D01*
X201050895Y-88142406D01*
X201031640Y-88222609D01*
X200997032Y-88366763D01*
X200995465Y-88373289D01*
X200976835Y-88610000D01*
X200995465Y-88846711D01*
X200996619Y-88851518D01*
X200996620Y-88851524D01*
X201022983Y-88961332D01*
X201050895Y-89077594D01*
X201052788Y-89082165D01*
X201052789Y-89082167D01*
X201116177Y-89235199D01*
X201141760Y-89296963D01*
X201144346Y-89301183D01*
X201263241Y-89495202D01*
X201263245Y-89495208D01*
X201265824Y-89499416D01*
X201420031Y-89679969D01*
X201600584Y-89834176D01*
X201604792Y-89836755D01*
X201604798Y-89836759D01*
X201796335Y-89954133D01*
X201843966Y-90006781D01*
X201856500Y-90061566D01*
X201856500Y-93105406D01*
X201836498Y-93173527D01*
X201819595Y-93194501D01*
X196370500Y-98643595D01*
X196308188Y-98677621D01*
X196281405Y-98680500D01*
X196268882Y-98680500D01*
X196200761Y-98660498D01*
X196154268Y-98606842D01*
X196144164Y-98536568D01*
X196173071Y-98472669D01*
X196180279Y-98464230D01*
X196244176Y-98389416D01*
X196246755Y-98385208D01*
X196246759Y-98385202D01*
X196365654Y-98191183D01*
X196368240Y-98186963D01*
X196415789Y-98072170D01*
X196457211Y-97972167D01*
X196457212Y-97972165D01*
X196459105Y-97967594D01*
X196491058Y-97834499D01*
X196513380Y-97741524D01*
X196513381Y-97741518D01*
X196514535Y-97736711D01*
X196533165Y-97500000D01*
X196514535Y-97263289D01*
X196502136Y-97211640D01*
X196460260Y-97037218D01*
X196459105Y-97032406D01*
X196457020Y-97027373D01*
X196370135Y-96817611D01*
X196370133Y-96817607D01*
X196368240Y-96813037D01*
X196365654Y-96808817D01*
X196246759Y-96614798D01*
X196246755Y-96614792D01*
X196244176Y-96610584D01*
X196089969Y-96430031D01*
X195909416Y-96275824D01*
X195905208Y-96273245D01*
X195905202Y-96273241D01*
X195711183Y-96154346D01*
X195706963Y-96151760D01*
X195702393Y-96149867D01*
X195702389Y-96149865D01*
X195492167Y-96062789D01*
X195492165Y-96062788D01*
X195487594Y-96060895D01*
X195407391Y-96041640D01*
X195261524Y-96006620D01*
X195261518Y-96006619D01*
X195256711Y-96005465D01*
X195020000Y-95986835D01*
X194783289Y-96005465D01*
X194778482Y-96006619D01*
X194778476Y-96006620D01*
X194632609Y-96041640D01*
X194552406Y-96060895D01*
X194547835Y-96062788D01*
X194547833Y-96062789D01*
X194337611Y-96149865D01*
X194337607Y-96149867D01*
X194333037Y-96151760D01*
X194328817Y-96154346D01*
X194134798Y-96273241D01*
X194134792Y-96273245D01*
X194130584Y-96275824D01*
X193950031Y-96430031D01*
X193795824Y-96610584D01*
X193793245Y-96614792D01*
X193793241Y-96614798D01*
X193674346Y-96808817D01*
X193671760Y-96813037D01*
X193669867Y-96817607D01*
X193669865Y-96817611D01*
X193582980Y-97027373D01*
X193580895Y-97032406D01*
X193579740Y-97037218D01*
X193537865Y-97211640D01*
X193525465Y-97263289D01*
X193506835Y-97500000D01*
X193525465Y-97736711D01*
X193526619Y-97741518D01*
X193526620Y-97741524D01*
X193548942Y-97834499D01*
X193580895Y-97967594D01*
X193582788Y-97972165D01*
X193582789Y-97972167D01*
X193624212Y-98072170D01*
X193671760Y-98186963D01*
X193674346Y-98191183D01*
X193793241Y-98385202D01*
X193793245Y-98385208D01*
X193795824Y-98389416D01*
X193859721Y-98464230D01*
X193866929Y-98472669D01*
X193895960Y-98537459D01*
X193885355Y-98607659D01*
X193838480Y-98660982D01*
X193771118Y-98680500D01*
X189768882Y-98680500D01*
X189700761Y-98660498D01*
X189654268Y-98606842D01*
X189644164Y-98536568D01*
X189673071Y-98472669D01*
X189680279Y-98464230D01*
X189744176Y-98389416D01*
X189746755Y-98385208D01*
X189746759Y-98385202D01*
X189865654Y-98191183D01*
X189868240Y-98186963D01*
X189915789Y-98072170D01*
X189957211Y-97972167D01*
X189957212Y-97972165D01*
X189959105Y-97967594D01*
X189991058Y-97834499D01*
X190013380Y-97741524D01*
X190013381Y-97741518D01*
X190014535Y-97736711D01*
X190033165Y-97500000D01*
X190014535Y-97263289D01*
X190002136Y-97211640D01*
X189960260Y-97037218D01*
X189959105Y-97032406D01*
X189957020Y-97027373D01*
X189870135Y-96817611D01*
X189870133Y-96817607D01*
X189868240Y-96813037D01*
X189865654Y-96808817D01*
X189746759Y-96614798D01*
X189746755Y-96614792D01*
X189744176Y-96610584D01*
X189589969Y-96430031D01*
X189409416Y-96275824D01*
X189405208Y-96273245D01*
X189405202Y-96273241D01*
X189211183Y-96154346D01*
X189206963Y-96151760D01*
X189202393Y-96149867D01*
X189202389Y-96149865D01*
X188992167Y-96062789D01*
X188992165Y-96062788D01*
X188987594Y-96060895D01*
X188907391Y-96041640D01*
X188761524Y-96006620D01*
X188761518Y-96006619D01*
X188756711Y-96005465D01*
X188520000Y-95986835D01*
X188283289Y-96005465D01*
X188278482Y-96006619D01*
X188278476Y-96006620D01*
X188132609Y-96041640D01*
X188052406Y-96060895D01*
X188047835Y-96062788D01*
X188047833Y-96062789D01*
X187837611Y-96149865D01*
X187837607Y-96149867D01*
X187833037Y-96151760D01*
X187828817Y-96154346D01*
X187634798Y-96273241D01*
X187634792Y-96273245D01*
X187630584Y-96275824D01*
X187450031Y-96430031D01*
X187295824Y-96610584D01*
X187293245Y-96614792D01*
X187293241Y-96614798D01*
X187174346Y-96808817D01*
X187171760Y-96813037D01*
X187169867Y-96817607D01*
X187169865Y-96817611D01*
X187082980Y-97027373D01*
X187080895Y-97032406D01*
X187079740Y-97037218D01*
X187037865Y-97211640D01*
X187025465Y-97263289D01*
X187006835Y-97500000D01*
X187025465Y-97736711D01*
X187026619Y-97741518D01*
X187026620Y-97741524D01*
X187048942Y-97834499D01*
X187080895Y-97967594D01*
X187082788Y-97972165D01*
X187082789Y-97972167D01*
X187124212Y-98072170D01*
X187171760Y-98186963D01*
X187174346Y-98191183D01*
X187293241Y-98385202D01*
X187293245Y-98385208D01*
X187295824Y-98389416D01*
X187450031Y-98569969D01*
X187630584Y-98724176D01*
X187634792Y-98726755D01*
X187634798Y-98726759D01*
X187826335Y-98844133D01*
X187873966Y-98896781D01*
X187886500Y-98951566D01*
X187886500Y-100725406D01*
X187866498Y-100793527D01*
X187849595Y-100814501D01*
X181130500Y-107533595D01*
X181068188Y-107567621D01*
X181041405Y-107570500D01*
X181028882Y-107570500D01*
X180960761Y-107550498D01*
X180914268Y-107496842D01*
X180904164Y-107426568D01*
X180933071Y-107362669D01*
X181004176Y-107279416D01*
X181006755Y-107275208D01*
X181006759Y-107275202D01*
X181125654Y-107081183D01*
X181128240Y-107076963D01*
X181132353Y-107067035D01*
X181217211Y-106862167D01*
X181217212Y-106862165D01*
X181219105Y-106857594D01*
X181238360Y-106777391D01*
X181273380Y-106631524D01*
X181273381Y-106631518D01*
X181274535Y-106626711D01*
X181293165Y-106390000D01*
X181274535Y-106153289D01*
X181256013Y-106076137D01*
X181229505Y-105965726D01*
X181219105Y-105922406D01*
X181180392Y-105828943D01*
X181130135Y-105707611D01*
X181130133Y-105707607D01*
X181128240Y-105703037D01*
X181050349Y-105575931D01*
X181006759Y-105504798D01*
X181006755Y-105504792D01*
X181004176Y-105500584D01*
X180863259Y-105335592D01*
X180853177Y-105323787D01*
X180849969Y-105320031D01*
X180669416Y-105165824D01*
X180665208Y-105163245D01*
X180665202Y-105163241D01*
X180471183Y-105044346D01*
X180466963Y-105041760D01*
X180462393Y-105039867D01*
X180462389Y-105039865D01*
X180252167Y-104952789D01*
X180252165Y-104952788D01*
X180247594Y-104950895D01*
X180167391Y-104931640D01*
X180021524Y-104896620D01*
X180021518Y-104896619D01*
X180016711Y-104895465D01*
X179780000Y-104876835D01*
X179543289Y-104895465D01*
X179538482Y-104896619D01*
X179538476Y-104896620D01*
X179392609Y-104931640D01*
X179312406Y-104950895D01*
X179307835Y-104952788D01*
X179307833Y-104952789D01*
X179097611Y-105039865D01*
X179097607Y-105039867D01*
X179093037Y-105041760D01*
X179088817Y-105044346D01*
X178894798Y-105163241D01*
X178894792Y-105163245D01*
X178890584Y-105165824D01*
X178710031Y-105320031D01*
X178706823Y-105323787D01*
X178696741Y-105335592D01*
X178555824Y-105500584D01*
X178553245Y-105504792D01*
X178553241Y-105504798D01*
X178509651Y-105575931D01*
X178431760Y-105703037D01*
X178429867Y-105707607D01*
X178429865Y-105707611D01*
X178379608Y-105828943D01*
X178340895Y-105922406D01*
X178330495Y-105965726D01*
X178303988Y-106076137D01*
X178285465Y-106153289D01*
X178266835Y-106390000D01*
X178285465Y-106626711D01*
X178286619Y-106631518D01*
X178286620Y-106631524D01*
X178321640Y-106777391D01*
X178340895Y-106857594D01*
X178342788Y-106862165D01*
X178342789Y-106862167D01*
X178427648Y-107067035D01*
X178431760Y-107076963D01*
X178434346Y-107081183D01*
X178553241Y-107275202D01*
X178553245Y-107275208D01*
X178555824Y-107279416D01*
X178626929Y-107362669D01*
X178655960Y-107427459D01*
X178645355Y-107497659D01*
X178598480Y-107550982D01*
X178531118Y-107570500D01*
X174528882Y-107570500D01*
X174460761Y-107550498D01*
X174414268Y-107496842D01*
X174404164Y-107426568D01*
X174433071Y-107362669D01*
X174504176Y-107279416D01*
X174506755Y-107275208D01*
X174506759Y-107275202D01*
X174625654Y-107081183D01*
X174628240Y-107076963D01*
X174632353Y-107067035D01*
X174717211Y-106862167D01*
X174717212Y-106862165D01*
X174719105Y-106857594D01*
X174738360Y-106777391D01*
X174773380Y-106631524D01*
X174773381Y-106631518D01*
X174774535Y-106626711D01*
X174793165Y-106390000D01*
X174774535Y-106153289D01*
X174756013Y-106076137D01*
X174729505Y-105965726D01*
X174719105Y-105922406D01*
X174680392Y-105828943D01*
X174630135Y-105707611D01*
X174630133Y-105707607D01*
X174628240Y-105703037D01*
X174550349Y-105575931D01*
X174506759Y-105504798D01*
X174506755Y-105504792D01*
X174504176Y-105500584D01*
X174363259Y-105335592D01*
X174353177Y-105323787D01*
X174349969Y-105320031D01*
X174169416Y-105165824D01*
X174165208Y-105163245D01*
X174165202Y-105163241D01*
X173971183Y-105044346D01*
X173966963Y-105041760D01*
X173962393Y-105039867D01*
X173962389Y-105039865D01*
X173752167Y-104952789D01*
X173752165Y-104952788D01*
X173747594Y-104950895D01*
X173667391Y-104931640D01*
X173521524Y-104896620D01*
X173521518Y-104896619D01*
X173516711Y-104895465D01*
X173280000Y-104876835D01*
X173043289Y-104895465D01*
X173038482Y-104896619D01*
X173038476Y-104896620D01*
X172892609Y-104931640D01*
X172812406Y-104950895D01*
X172807835Y-104952788D01*
X172807833Y-104952789D01*
X172597611Y-105039865D01*
X172597607Y-105039867D01*
X172593037Y-105041760D01*
X172588817Y-105044346D01*
X172394798Y-105163241D01*
X172394792Y-105163245D01*
X172390584Y-105165824D01*
X172210031Y-105320031D01*
X172206823Y-105323787D01*
X172196741Y-105335592D01*
X172055824Y-105500584D01*
X172053245Y-105504792D01*
X172053241Y-105504798D01*
X172009651Y-105575931D01*
X171931760Y-105703037D01*
X171929867Y-105707607D01*
X171929865Y-105707611D01*
X171879608Y-105828943D01*
X171840895Y-105922406D01*
X171830495Y-105965726D01*
X171803988Y-106076137D01*
X171785465Y-106153289D01*
X171766835Y-106390000D01*
X171785465Y-106626711D01*
X171786619Y-106631518D01*
X171786620Y-106631524D01*
X171839060Y-106849950D01*
X171835513Y-106920858D01*
X171805636Y-106968459D01*
X167176500Y-111597595D01*
X167114188Y-111631621D01*
X167087405Y-111634500D01*
X119804697Y-111634500D01*
X119736576Y-111614498D01*
X119690083Y-111560842D01*
X119679979Y-111490568D01*
X119709473Y-111425988D01*
X119722866Y-111412689D01*
X119886213Y-111273177D01*
X119889969Y-111269969D01*
X120044176Y-111089416D01*
X120046755Y-111085208D01*
X120046759Y-111085202D01*
X120165654Y-110891183D01*
X120168240Y-110886963D01*
X120170618Y-110881224D01*
X120257211Y-110672167D01*
X120257212Y-110672165D01*
X120259105Y-110667594D01*
X120278360Y-110587391D01*
X120313380Y-110441524D01*
X120313381Y-110441518D01*
X120314535Y-110436711D01*
X120333165Y-110200000D01*
X120314535Y-109963289D01*
X120311621Y-109951148D01*
X120278360Y-109812609D01*
X120259105Y-109732406D01*
X120249783Y-109709901D01*
X120170135Y-109517611D01*
X120170133Y-109517607D01*
X120168240Y-109513037D01*
X120165654Y-109508817D01*
X120046759Y-109314798D01*
X120046755Y-109314792D01*
X120044176Y-109310584D01*
X119889969Y-109130031D01*
X119709416Y-108975824D01*
X119705208Y-108973245D01*
X119705202Y-108973241D01*
X119511183Y-108854346D01*
X119506963Y-108851760D01*
X119502393Y-108849867D01*
X119502389Y-108849865D01*
X119292167Y-108762789D01*
X119292165Y-108762788D01*
X119287594Y-108760895D01*
X119207391Y-108741640D01*
X119061524Y-108706620D01*
X119061518Y-108706619D01*
X119056711Y-108705465D01*
X118820000Y-108686835D01*
X118583289Y-108705465D01*
X118578482Y-108706619D01*
X118578476Y-108706620D01*
X118432609Y-108741640D01*
X118352406Y-108760895D01*
X118347835Y-108762788D01*
X118347833Y-108762789D01*
X118137611Y-108849865D01*
X118137607Y-108849867D01*
X118133037Y-108851760D01*
X118128817Y-108854346D01*
X117934798Y-108973241D01*
X117934792Y-108973245D01*
X117930584Y-108975824D01*
X117750031Y-109130031D01*
X117595824Y-109310584D01*
X117593245Y-109314792D01*
X117593241Y-109314798D01*
X117474346Y-109508817D01*
X117471760Y-109513037D01*
X117469867Y-109517607D01*
X117469865Y-109517611D01*
X117390217Y-109709901D01*
X117380895Y-109732406D01*
X117361640Y-109812609D01*
X117328380Y-109951148D01*
X117325465Y-109963289D01*
X117306835Y-110200000D01*
X117325465Y-110436711D01*
X117326619Y-110441518D01*
X117326620Y-110441524D01*
X117361640Y-110587391D01*
X117380895Y-110667594D01*
X117382788Y-110672165D01*
X117382789Y-110672167D01*
X117469383Y-110881224D01*
X117471760Y-110886963D01*
X117474346Y-110891183D01*
X117593241Y-111085202D01*
X117593245Y-111085208D01*
X117595824Y-111089416D01*
X117750031Y-111269969D01*
X117753787Y-111273177D01*
X117917134Y-111412689D01*
X117955943Y-111472140D01*
X117956449Y-111543134D01*
X117918493Y-111603133D01*
X117854124Y-111633086D01*
X117835303Y-111634500D01*
X113304697Y-111634500D01*
X113236576Y-111614498D01*
X113190083Y-111560842D01*
X113179979Y-111490568D01*
X113209473Y-111425988D01*
X113222866Y-111412689D01*
X113386213Y-111273177D01*
X113389969Y-111269969D01*
X113544176Y-111089416D01*
X113546755Y-111085208D01*
X113546759Y-111085202D01*
X113665654Y-110891183D01*
X113668240Y-110886963D01*
X113670618Y-110881224D01*
X113757211Y-110672167D01*
X113757212Y-110672165D01*
X113759105Y-110667594D01*
X113778360Y-110587391D01*
X113813380Y-110441524D01*
X113813381Y-110441518D01*
X113814535Y-110436711D01*
X113833165Y-110200000D01*
X113814535Y-109963289D01*
X113811621Y-109951148D01*
X113778360Y-109812609D01*
X113759105Y-109732406D01*
X113749783Y-109709901D01*
X113670135Y-109517611D01*
X113670133Y-109517607D01*
X113668240Y-109513037D01*
X113665654Y-109508817D01*
X113546759Y-109314798D01*
X113546755Y-109314792D01*
X113544176Y-109310584D01*
X113389969Y-109130031D01*
X113209416Y-108975824D01*
X113205208Y-108973245D01*
X113205202Y-108973241D01*
X113011183Y-108854346D01*
X113006963Y-108851760D01*
X113002393Y-108849867D01*
X113002389Y-108849865D01*
X112792167Y-108762789D01*
X112792165Y-108762788D01*
X112787594Y-108760895D01*
X112707391Y-108741640D01*
X112561524Y-108706620D01*
X112561518Y-108706619D01*
X112556711Y-108705465D01*
X112320000Y-108686835D01*
X112083289Y-108705465D01*
X112078482Y-108706619D01*
X112078476Y-108706620D01*
X111860049Y-108759060D01*
X111789141Y-108755513D01*
X111741540Y-108725636D01*
X109948575Y-106932670D01*
X111452160Y-106932670D01*
X111457887Y-106940320D01*
X111629042Y-107045205D01*
X111637837Y-107049687D01*
X111847988Y-107136734D01*
X111857373Y-107139783D01*
X112078554Y-107192885D01*
X112088301Y-107194428D01*
X112315070Y-107212275D01*
X112324930Y-107212275D01*
X112551699Y-107194428D01*
X112561446Y-107192885D01*
X112782627Y-107139783D01*
X112792012Y-107136734D01*
X113002163Y-107049687D01*
X113010958Y-107045205D01*
X113178445Y-106942568D01*
X113187400Y-106932670D01*
X117952160Y-106932670D01*
X117957887Y-106940320D01*
X118129042Y-107045205D01*
X118137837Y-107049687D01*
X118347988Y-107136734D01*
X118357373Y-107139783D01*
X118578554Y-107192885D01*
X118588301Y-107194428D01*
X118815070Y-107212275D01*
X118824930Y-107212275D01*
X119051699Y-107194428D01*
X119061446Y-107192885D01*
X119282627Y-107139783D01*
X119292012Y-107136734D01*
X119502163Y-107049687D01*
X119510958Y-107045205D01*
X119678445Y-106942568D01*
X119687907Y-106932110D01*
X119684124Y-106923334D01*
X118832812Y-106072022D01*
X118818868Y-106064408D01*
X118817035Y-106064539D01*
X118810420Y-106068790D01*
X117958920Y-106920290D01*
X117952160Y-106932670D01*
X113187400Y-106932670D01*
X113187907Y-106932110D01*
X113184124Y-106923334D01*
X112332812Y-106072022D01*
X112318868Y-106064408D01*
X112317035Y-106064539D01*
X112310420Y-106068790D01*
X111458920Y-106920290D01*
X111452160Y-106932670D01*
X109948575Y-106932670D01*
X108720835Y-105704930D01*
X110807725Y-105704930D01*
X110825572Y-105931699D01*
X110827115Y-105941446D01*
X110880217Y-106162627D01*
X110883266Y-106172012D01*
X110970313Y-106382163D01*
X110974795Y-106390958D01*
X111077432Y-106558445D01*
X111087890Y-106567907D01*
X111096666Y-106564124D01*
X111947978Y-105712812D01*
X111954356Y-105701132D01*
X112684408Y-105701132D01*
X112684539Y-105702965D01*
X112688790Y-105709580D01*
X113540290Y-106561080D01*
X113552670Y-106567840D01*
X113560320Y-106562113D01*
X113665205Y-106390958D01*
X113669687Y-106382163D01*
X113756734Y-106172012D01*
X113759783Y-106162627D01*
X113812885Y-105941446D01*
X113814428Y-105931699D01*
X113832275Y-105704930D01*
X117307725Y-105704930D01*
X117325572Y-105931699D01*
X117327115Y-105941446D01*
X117380217Y-106162627D01*
X117383266Y-106172012D01*
X117470313Y-106382163D01*
X117474795Y-106390958D01*
X117577432Y-106558445D01*
X117587890Y-106567907D01*
X117596666Y-106564124D01*
X118447978Y-105712812D01*
X118454356Y-105701132D01*
X119184408Y-105701132D01*
X119184539Y-105702965D01*
X119188790Y-105709580D01*
X120040290Y-106561080D01*
X120052670Y-106567840D01*
X120060320Y-106562113D01*
X120165205Y-106390958D01*
X120169687Y-106382163D01*
X120256734Y-106172012D01*
X120259783Y-106162627D01*
X120312885Y-105941446D01*
X120314428Y-105931699D01*
X120332275Y-105704930D01*
X120332275Y-105695070D01*
X120314428Y-105468301D01*
X120312885Y-105458554D01*
X120259783Y-105237373D01*
X120256734Y-105227988D01*
X120169687Y-105017837D01*
X120165205Y-105009042D01*
X120062568Y-104841555D01*
X120052110Y-104832093D01*
X120043334Y-104835876D01*
X119192022Y-105687188D01*
X119184408Y-105701132D01*
X118454356Y-105701132D01*
X118455592Y-105698868D01*
X118455461Y-105697035D01*
X118451210Y-105690420D01*
X117599710Y-104838920D01*
X117587330Y-104832160D01*
X117579680Y-104837887D01*
X117474795Y-105009042D01*
X117470313Y-105017837D01*
X117383266Y-105227988D01*
X117380217Y-105237373D01*
X117327115Y-105458554D01*
X117325572Y-105468301D01*
X117307725Y-105695070D01*
X117307725Y-105704930D01*
X113832275Y-105704930D01*
X113832275Y-105695070D01*
X113814428Y-105468301D01*
X113812885Y-105458554D01*
X113759783Y-105237373D01*
X113756734Y-105227988D01*
X113669687Y-105017837D01*
X113665205Y-105009042D01*
X113562568Y-104841555D01*
X113552110Y-104832093D01*
X113543334Y-104835876D01*
X112692022Y-105687188D01*
X112684408Y-105701132D01*
X111954356Y-105701132D01*
X111955592Y-105698868D01*
X111955461Y-105697035D01*
X111951210Y-105690420D01*
X111099710Y-104838920D01*
X111087330Y-104832160D01*
X111079680Y-104837887D01*
X110974795Y-105009042D01*
X110970313Y-105017837D01*
X110883266Y-105227988D01*
X110880217Y-105237373D01*
X110827115Y-105458554D01*
X110825572Y-105468301D01*
X110807725Y-105695070D01*
X110807725Y-105704930D01*
X108720835Y-105704930D01*
X108467166Y-105451261D01*
X107483795Y-104467890D01*
X111452093Y-104467890D01*
X111455876Y-104476666D01*
X112307188Y-105327978D01*
X112321132Y-105335592D01*
X112322965Y-105335461D01*
X112329580Y-105331210D01*
X113181080Y-104479710D01*
X113187534Y-104467890D01*
X117952093Y-104467890D01*
X117955876Y-104476666D01*
X118807188Y-105327978D01*
X118821132Y-105335592D01*
X118822965Y-105335461D01*
X118829580Y-105331210D01*
X119681080Y-104479710D01*
X119687840Y-104467330D01*
X119682113Y-104459680D01*
X119510958Y-104354795D01*
X119502163Y-104350313D01*
X119292012Y-104263266D01*
X119282627Y-104260217D01*
X119061446Y-104207115D01*
X119051699Y-104205572D01*
X118824930Y-104187725D01*
X118815070Y-104187725D01*
X118588301Y-104205572D01*
X118578554Y-104207115D01*
X118357373Y-104260217D01*
X118347988Y-104263266D01*
X118137837Y-104350313D01*
X118129042Y-104354795D01*
X117961555Y-104457432D01*
X117952093Y-104467890D01*
X113187534Y-104467890D01*
X113187840Y-104467330D01*
X113182113Y-104459680D01*
X113010958Y-104354795D01*
X113002163Y-104350313D01*
X112792012Y-104263266D01*
X112782627Y-104260217D01*
X112561446Y-104207115D01*
X112551699Y-104205572D01*
X112324930Y-104187725D01*
X112315070Y-104187725D01*
X112088301Y-104205572D01*
X112078554Y-104207115D01*
X111857373Y-104260217D01*
X111847988Y-104263266D01*
X111637837Y-104350313D01*
X111629042Y-104354795D01*
X111461555Y-104457432D01*
X111452093Y-104467890D01*
X107483795Y-104467890D01*
X105180405Y-102164500D01*
X105146379Y-102102188D01*
X105143500Y-102075405D01*
X105143500Y-101517594D01*
X105163502Y-101449473D01*
X105217158Y-101402980D01*
X105287432Y-101392876D01*
X105352012Y-101422370D01*
X105358595Y-101428499D01*
X106176343Y-102246247D01*
X106183887Y-102254537D01*
X106188000Y-102261018D01*
X106193777Y-102266443D01*
X106237667Y-102307658D01*
X106240509Y-102310413D01*
X106260230Y-102330134D01*
X106263425Y-102332612D01*
X106272447Y-102340318D01*
X106304679Y-102370586D01*
X106311628Y-102374406D01*
X106322432Y-102380346D01*
X106338956Y-102391199D01*
X106354959Y-102403613D01*
X106395543Y-102421176D01*
X106406173Y-102426383D01*
X106444940Y-102447695D01*
X106452617Y-102449666D01*
X106452622Y-102449668D01*
X106464558Y-102452732D01*
X106483266Y-102459137D01*
X106501855Y-102467181D01*
X106509683Y-102468421D01*
X106509690Y-102468423D01*
X106545524Y-102474099D01*
X106557144Y-102476505D01*
X106588959Y-102484673D01*
X106599970Y-102487500D01*
X106620224Y-102487500D01*
X106639934Y-102489051D01*
X106659943Y-102492220D01*
X106667835Y-102491474D01*
X106686580Y-102489702D01*
X106703962Y-102488059D01*
X106715819Y-102487500D01*
X121857233Y-102487500D01*
X121868416Y-102488027D01*
X121875909Y-102489702D01*
X121883835Y-102489453D01*
X121883836Y-102489453D01*
X121943986Y-102487562D01*
X121947945Y-102487500D01*
X121975856Y-102487500D01*
X121979791Y-102487003D01*
X121979856Y-102486995D01*
X121991693Y-102486062D01*
X122023951Y-102485048D01*
X122027970Y-102484922D01*
X122035889Y-102484673D01*
X122055343Y-102479021D01*
X122074700Y-102475013D01*
X122086930Y-102473468D01*
X122086931Y-102473468D01*
X122094797Y-102472474D01*
X122102168Y-102469555D01*
X122102170Y-102469555D01*
X122135912Y-102456196D01*
X122147142Y-102452351D01*
X122181983Y-102442229D01*
X122181984Y-102442229D01*
X122189593Y-102440018D01*
X122196412Y-102435985D01*
X122196417Y-102435983D01*
X122207028Y-102429707D01*
X122224776Y-102421012D01*
X122243617Y-102413552D01*
X122263987Y-102398753D01*
X122279387Y-102387564D01*
X122289307Y-102381048D01*
X122320535Y-102362580D01*
X122320538Y-102362578D01*
X122327362Y-102358542D01*
X122341683Y-102344221D01*
X122356717Y-102331380D01*
X122358742Y-102329909D01*
X122373107Y-102319472D01*
X122401298Y-102285395D01*
X122409288Y-102276616D01*
X123171540Y-101514364D01*
X123233852Y-101480338D01*
X123290049Y-101480940D01*
X123508476Y-101533380D01*
X123508482Y-101533381D01*
X123513289Y-101534535D01*
X123750000Y-101553165D01*
X123986711Y-101534535D01*
X123991518Y-101533381D01*
X123991524Y-101533380D01*
X124137391Y-101498360D01*
X124217594Y-101479105D01*
X124260203Y-101461456D01*
X124432389Y-101390135D01*
X124432393Y-101390133D01*
X124436963Y-101388240D01*
X124471121Y-101367308D01*
X124635202Y-101266759D01*
X124635208Y-101266755D01*
X124639416Y-101264176D01*
X124819969Y-101109969D01*
X124974176Y-100929416D01*
X124976755Y-100925208D01*
X124976759Y-100925202D01*
X125095654Y-100731183D01*
X125098240Y-100726963D01*
X125130252Y-100649680D01*
X125187211Y-100512167D01*
X125187212Y-100512165D01*
X125189105Y-100507594D01*
X125220284Y-100377725D01*
X125243380Y-100281524D01*
X125243381Y-100281518D01*
X125244535Y-100276711D01*
X125263165Y-100040000D01*
X128736835Y-100040000D01*
X128755465Y-100276711D01*
X128756619Y-100281518D01*
X128756620Y-100281524D01*
X128779716Y-100377725D01*
X128810895Y-100507594D01*
X128812788Y-100512165D01*
X128812789Y-100512167D01*
X128869749Y-100649680D01*
X128901760Y-100726963D01*
X128904346Y-100731183D01*
X129023241Y-100925202D01*
X129023245Y-100925208D01*
X129025824Y-100929416D01*
X129180031Y-101109969D01*
X129360584Y-101264176D01*
X129364792Y-101266755D01*
X129364798Y-101266759D01*
X129528879Y-101367308D01*
X129563037Y-101388240D01*
X129567607Y-101390133D01*
X129567611Y-101390135D01*
X129739797Y-101461456D01*
X129782406Y-101479105D01*
X129862609Y-101498360D01*
X130008476Y-101533380D01*
X130008482Y-101533381D01*
X130013289Y-101534535D01*
X130250000Y-101553165D01*
X130486711Y-101534535D01*
X130491518Y-101533381D01*
X130491524Y-101533380D01*
X130637391Y-101498360D01*
X130717594Y-101479105D01*
X130760203Y-101461456D01*
X130932389Y-101390135D01*
X130932393Y-101390133D01*
X130936963Y-101388240D01*
X130971121Y-101367308D01*
X131135202Y-101266759D01*
X131135208Y-101266755D01*
X131139416Y-101264176D01*
X131319969Y-101109969D01*
X131474176Y-100929416D01*
X131476755Y-100925208D01*
X131476759Y-100925202D01*
X131595654Y-100731183D01*
X131598240Y-100726963D01*
X131630252Y-100649680D01*
X131687211Y-100512167D01*
X131687212Y-100512165D01*
X131689105Y-100507594D01*
X131720284Y-100377725D01*
X131743380Y-100281524D01*
X131743381Y-100281518D01*
X131744535Y-100276711D01*
X131763165Y-100040000D01*
X131744535Y-99803289D01*
X131738581Y-99778485D01*
X131690260Y-99577218D01*
X131689105Y-99572406D01*
X131687211Y-99567833D01*
X131600135Y-99357611D01*
X131600133Y-99357607D01*
X131598240Y-99353037D01*
X131583498Y-99328980D01*
X131476759Y-99154798D01*
X131476755Y-99154792D01*
X131474176Y-99150584D01*
X131319969Y-98970031D01*
X131139416Y-98815824D01*
X131135208Y-98813245D01*
X131135202Y-98813241D01*
X130941183Y-98694346D01*
X130936963Y-98691760D01*
X130932393Y-98689867D01*
X130932389Y-98689865D01*
X130722167Y-98602789D01*
X130722165Y-98602788D01*
X130717594Y-98600895D01*
X130637391Y-98581640D01*
X130491524Y-98546620D01*
X130491518Y-98546619D01*
X130486711Y-98545465D01*
X130250000Y-98526835D01*
X130013289Y-98545465D01*
X130008482Y-98546619D01*
X130008476Y-98546620D01*
X129862609Y-98581640D01*
X129782406Y-98600895D01*
X129777835Y-98602788D01*
X129777833Y-98602789D01*
X129567611Y-98689865D01*
X129567607Y-98689867D01*
X129563037Y-98691760D01*
X129558817Y-98694346D01*
X129364798Y-98813241D01*
X129364792Y-98813245D01*
X129360584Y-98815824D01*
X129180031Y-98970031D01*
X129025824Y-99150584D01*
X129023245Y-99154792D01*
X129023241Y-99154798D01*
X128916502Y-99328980D01*
X128901760Y-99353037D01*
X128899867Y-99357607D01*
X128899865Y-99357611D01*
X128812789Y-99567833D01*
X128810895Y-99572406D01*
X128809740Y-99577218D01*
X128761420Y-99778485D01*
X128755465Y-99803289D01*
X128736835Y-100040000D01*
X125263165Y-100040000D01*
X125244535Y-99803289D01*
X125238581Y-99778485D01*
X125190260Y-99577218D01*
X125189105Y-99572406D01*
X125187211Y-99567833D01*
X125100135Y-99357611D01*
X125100133Y-99357607D01*
X125098240Y-99353037D01*
X125083498Y-99328980D01*
X124976759Y-99154798D01*
X124976755Y-99154792D01*
X124974176Y-99150584D01*
X124819969Y-98970031D01*
X124639416Y-98815824D01*
X124635208Y-98813245D01*
X124635202Y-98813241D01*
X124441183Y-98694346D01*
X124436963Y-98691760D01*
X124432393Y-98689867D01*
X124432389Y-98689865D01*
X124222167Y-98602789D01*
X124222165Y-98602788D01*
X124217594Y-98600895D01*
X124137391Y-98581640D01*
X123991524Y-98546620D01*
X123991518Y-98546619D01*
X123986711Y-98545465D01*
X123750000Y-98526835D01*
X123513289Y-98545465D01*
X123508482Y-98546619D01*
X123508476Y-98546620D01*
X123362609Y-98581640D01*
X123282406Y-98600895D01*
X123277835Y-98602788D01*
X123277833Y-98602789D01*
X123067611Y-98689865D01*
X123067607Y-98689867D01*
X123063037Y-98691760D01*
X123058817Y-98694346D01*
X122864798Y-98813241D01*
X122864792Y-98813245D01*
X122860584Y-98815824D01*
X122680031Y-98970031D01*
X122525824Y-99150584D01*
X122523245Y-99154792D01*
X122523241Y-99154798D01*
X122416502Y-99328980D01*
X122401760Y-99353037D01*
X122399867Y-99357607D01*
X122399865Y-99357611D01*
X122312789Y-99567833D01*
X122310895Y-99572406D01*
X122309740Y-99577218D01*
X122261420Y-99778485D01*
X122255465Y-99803289D01*
X122236835Y-100040000D01*
X122255465Y-100276711D01*
X122256619Y-100281518D01*
X122256620Y-100281524D01*
X122309060Y-100499950D01*
X122305513Y-100570858D01*
X122275636Y-100618459D01*
X121710500Y-101183595D01*
X121648188Y-101217621D01*
X121621405Y-101220500D01*
X108638882Y-101220500D01*
X108570761Y-101200498D01*
X108524268Y-101146842D01*
X108514164Y-101076568D01*
X108543071Y-101012669D01*
X108549266Y-101005416D01*
X108614176Y-100929416D01*
X108616755Y-100925208D01*
X108616759Y-100925202D01*
X108735654Y-100731183D01*
X108738240Y-100726963D01*
X108770252Y-100649680D01*
X108827211Y-100512167D01*
X108827212Y-100512165D01*
X108829105Y-100507594D01*
X108860284Y-100377725D01*
X108883380Y-100281524D01*
X108883381Y-100281518D01*
X108884535Y-100276711D01*
X108903165Y-100040000D01*
X108884535Y-99803289D01*
X108878581Y-99778485D01*
X108830260Y-99577218D01*
X108829105Y-99572406D01*
X108827211Y-99567833D01*
X108740135Y-99357611D01*
X108740133Y-99357607D01*
X108738240Y-99353037D01*
X108723498Y-99328980D01*
X108616759Y-99154798D01*
X108616755Y-99154792D01*
X108614176Y-99150584D01*
X108459969Y-98970031D01*
X108279416Y-98815824D01*
X108275208Y-98813245D01*
X108275202Y-98813241D01*
X108081183Y-98694346D01*
X108076963Y-98691760D01*
X108072393Y-98689867D01*
X108072389Y-98689865D01*
X107862167Y-98602789D01*
X107862165Y-98602788D01*
X107857594Y-98600895D01*
X107777391Y-98581640D01*
X107631524Y-98546620D01*
X107631518Y-98546619D01*
X107626711Y-98545465D01*
X107390000Y-98526835D01*
X107153289Y-98545465D01*
X107148482Y-98546619D01*
X107148476Y-98546620D01*
X106982896Y-98586373D01*
X106930049Y-98599060D01*
X106859142Y-98595513D01*
X106811540Y-98565636D01*
X106080404Y-97834499D01*
X106046379Y-97772187D01*
X106043500Y-97745404D01*
X106043500Y-96772670D01*
X106522160Y-96772670D01*
X106527887Y-96780320D01*
X106699042Y-96885205D01*
X106707837Y-96889687D01*
X106917988Y-96976734D01*
X106927373Y-96979783D01*
X107148554Y-97032885D01*
X107158301Y-97034428D01*
X107385070Y-97052275D01*
X107394930Y-97052275D01*
X107621699Y-97034428D01*
X107631446Y-97032885D01*
X107852627Y-96979783D01*
X107862012Y-96976734D01*
X108072163Y-96889687D01*
X108080958Y-96885205D01*
X108248445Y-96782568D01*
X108257400Y-96772670D01*
X122882160Y-96772670D01*
X122887887Y-96780320D01*
X123059042Y-96885205D01*
X123067837Y-96889687D01*
X123277988Y-96976734D01*
X123287373Y-96979783D01*
X123508554Y-97032885D01*
X123518301Y-97034428D01*
X123745070Y-97052275D01*
X123754930Y-97052275D01*
X123981699Y-97034428D01*
X123991446Y-97032885D01*
X124212627Y-96979783D01*
X124222012Y-96976734D01*
X124432163Y-96889687D01*
X124440958Y-96885205D01*
X124608445Y-96782568D01*
X124617400Y-96772670D01*
X129382160Y-96772670D01*
X129387887Y-96780320D01*
X129559042Y-96885205D01*
X129567837Y-96889687D01*
X129777988Y-96976734D01*
X129787373Y-96979783D01*
X130008554Y-97032885D01*
X130018301Y-97034428D01*
X130245070Y-97052275D01*
X130254930Y-97052275D01*
X130481699Y-97034428D01*
X130491446Y-97032885D01*
X130712627Y-96979783D01*
X130722012Y-96976734D01*
X130932163Y-96889687D01*
X130940958Y-96885205D01*
X131108445Y-96782568D01*
X131117907Y-96772110D01*
X131114124Y-96763334D01*
X130262812Y-95912022D01*
X130248868Y-95904408D01*
X130247035Y-95904539D01*
X130240420Y-95908790D01*
X129388920Y-96760290D01*
X129382160Y-96772670D01*
X124617400Y-96772670D01*
X124617907Y-96772110D01*
X124614124Y-96763334D01*
X123762812Y-95912022D01*
X123748868Y-95904408D01*
X123747035Y-95904539D01*
X123740420Y-95908790D01*
X122888920Y-96760290D01*
X122882160Y-96772670D01*
X108257400Y-96772670D01*
X108257907Y-96772110D01*
X108254124Y-96763334D01*
X107402812Y-95912022D01*
X107388868Y-95904408D01*
X107387035Y-95904539D01*
X107380420Y-95908790D01*
X106528920Y-96760290D01*
X106522160Y-96772670D01*
X106043500Y-96772670D01*
X106043500Y-96538525D01*
X106063502Y-96470404D01*
X106117158Y-96423911D01*
X106122367Y-96423219D01*
X106166666Y-96404124D01*
X107029658Y-95541132D01*
X107754408Y-95541132D01*
X107754539Y-95542965D01*
X107758790Y-95549580D01*
X108610290Y-96401080D01*
X108622670Y-96407840D01*
X108630320Y-96402113D01*
X108735205Y-96230958D01*
X108739687Y-96222163D01*
X108826734Y-96012012D01*
X108829783Y-96002627D01*
X108882885Y-95781446D01*
X108884428Y-95771699D01*
X108902275Y-95544930D01*
X122237725Y-95544930D01*
X122255572Y-95771699D01*
X122257115Y-95781446D01*
X122310217Y-96002627D01*
X122313266Y-96012012D01*
X122400313Y-96222163D01*
X122404795Y-96230958D01*
X122507432Y-96398445D01*
X122517890Y-96407907D01*
X122526666Y-96404124D01*
X123377978Y-95552812D01*
X123384356Y-95541132D01*
X124114408Y-95541132D01*
X124114539Y-95542965D01*
X124118790Y-95549580D01*
X124970290Y-96401080D01*
X124982670Y-96407840D01*
X124990320Y-96402113D01*
X125095205Y-96230958D01*
X125099687Y-96222163D01*
X125186734Y-96012012D01*
X125189783Y-96002627D01*
X125242885Y-95781446D01*
X125244428Y-95771699D01*
X125262275Y-95544930D01*
X128737725Y-95544930D01*
X128755572Y-95771699D01*
X128757115Y-95781446D01*
X128810217Y-96002627D01*
X128813266Y-96012012D01*
X128900313Y-96222163D01*
X128904795Y-96230958D01*
X129007432Y-96398445D01*
X129017890Y-96407907D01*
X129026666Y-96404124D01*
X129877978Y-95552812D01*
X129884356Y-95541132D01*
X130614408Y-95541132D01*
X130614539Y-95542965D01*
X130618790Y-95549580D01*
X131470290Y-96401080D01*
X131482670Y-96407840D01*
X131490320Y-96402113D01*
X131595205Y-96230958D01*
X131599687Y-96222163D01*
X131686734Y-96012012D01*
X131689783Y-96002627D01*
X131742885Y-95781446D01*
X131744428Y-95771699D01*
X131762275Y-95544930D01*
X131762275Y-95535070D01*
X131744428Y-95308301D01*
X131742885Y-95298554D01*
X131689783Y-95077373D01*
X131686734Y-95067988D01*
X131599687Y-94857837D01*
X131595205Y-94849042D01*
X131492568Y-94681555D01*
X131482110Y-94672093D01*
X131473334Y-94675876D01*
X130622022Y-95527188D01*
X130614408Y-95541132D01*
X129884356Y-95541132D01*
X129885592Y-95538868D01*
X129885461Y-95537035D01*
X129881210Y-95530420D01*
X129029710Y-94678920D01*
X129017330Y-94672160D01*
X129009680Y-94677887D01*
X128904795Y-94849042D01*
X128900313Y-94857837D01*
X128813266Y-95067988D01*
X128810217Y-95077373D01*
X128757115Y-95298554D01*
X128755572Y-95308301D01*
X128737725Y-95535070D01*
X128737725Y-95544930D01*
X125262275Y-95544930D01*
X125262275Y-95535070D01*
X125244428Y-95308301D01*
X125242885Y-95298554D01*
X125189783Y-95077373D01*
X125186734Y-95067988D01*
X125099687Y-94857837D01*
X125095205Y-94849042D01*
X124992568Y-94681555D01*
X124982110Y-94672093D01*
X124973334Y-94675876D01*
X124122022Y-95527188D01*
X124114408Y-95541132D01*
X123384356Y-95541132D01*
X123385592Y-95538868D01*
X123385461Y-95537035D01*
X123381210Y-95530420D01*
X122529710Y-94678920D01*
X122517330Y-94672160D01*
X122509680Y-94677887D01*
X122404795Y-94849042D01*
X122400313Y-94857837D01*
X122313266Y-95067988D01*
X122310217Y-95077373D01*
X122257115Y-95298554D01*
X122255572Y-95308301D01*
X122237725Y-95535070D01*
X122237725Y-95544930D01*
X108902275Y-95544930D01*
X108902275Y-95535070D01*
X108884428Y-95308301D01*
X108882885Y-95298554D01*
X108829783Y-95077373D01*
X108826734Y-95067988D01*
X108739687Y-94857837D01*
X108735205Y-94849042D01*
X108632568Y-94681555D01*
X108622110Y-94672093D01*
X108613334Y-94675876D01*
X107762022Y-95527188D01*
X107754408Y-95541132D01*
X107029658Y-95541132D01*
X108251080Y-94319710D01*
X108257840Y-94307330D01*
X108257599Y-94307008D01*
X108232789Y-94240488D01*
X108247881Y-94171114D01*
X108298083Y-94120912D01*
X108358468Y-94105500D01*
X122781291Y-94105500D01*
X122849412Y-94125502D01*
X122895905Y-94179158D01*
X122906009Y-94249432D01*
X122882517Y-94299447D01*
X122881388Y-94306255D01*
X122885876Y-94316666D01*
X123737188Y-95167978D01*
X123751132Y-95175592D01*
X123752965Y-95175461D01*
X123759580Y-95171210D01*
X124611080Y-94319710D01*
X124617840Y-94307330D01*
X124617599Y-94307008D01*
X124592789Y-94240488D01*
X124607881Y-94171114D01*
X124658083Y-94120912D01*
X124718468Y-94105500D01*
X129281291Y-94105500D01*
X129349412Y-94125502D01*
X129395905Y-94179158D01*
X129406009Y-94249432D01*
X129382517Y-94299447D01*
X129381388Y-94306255D01*
X129385876Y-94316666D01*
X130237188Y-95167978D01*
X130251132Y-95175592D01*
X130252965Y-95175461D01*
X130259580Y-95171210D01*
X131111080Y-94319710D01*
X131117840Y-94307330D01*
X131117599Y-94307008D01*
X131092789Y-94240488D01*
X131107881Y-94171114D01*
X131158083Y-94120912D01*
X131218468Y-94105500D01*
X135829406Y-94105500D01*
X135897527Y-94125502D01*
X135918501Y-94142405D01*
X139283595Y-97507499D01*
X139317621Y-97569811D01*
X139320500Y-97596594D01*
X139320500Y-104315233D01*
X139319973Y-104326416D01*
X139318298Y-104333909D01*
X139318547Y-104341835D01*
X139318547Y-104341836D01*
X139320438Y-104401986D01*
X139320500Y-104405945D01*
X139320500Y-104433856D01*
X139320997Y-104437790D01*
X139320997Y-104437791D01*
X139321005Y-104437856D01*
X139321938Y-104449693D01*
X139323327Y-104493889D01*
X139328978Y-104513339D01*
X139332987Y-104532700D01*
X139335526Y-104552797D01*
X139338445Y-104560168D01*
X139338445Y-104560170D01*
X139351804Y-104593912D01*
X139355649Y-104605142D01*
X139367982Y-104647593D01*
X139372015Y-104654412D01*
X139372017Y-104654417D01*
X139378293Y-104665028D01*
X139386988Y-104682776D01*
X139394448Y-104701617D01*
X139399110Y-104708033D01*
X139399110Y-104708034D01*
X139420436Y-104737387D01*
X139426952Y-104747307D01*
X139449458Y-104785362D01*
X139463779Y-104799683D01*
X139476619Y-104814716D01*
X139488528Y-104831107D01*
X139522605Y-104859298D01*
X139531384Y-104867288D01*
X145546348Y-110882253D01*
X145553888Y-110890539D01*
X145558000Y-110897018D01*
X145563777Y-110902443D01*
X145607651Y-110943643D01*
X145610493Y-110946398D01*
X145630230Y-110966135D01*
X145633427Y-110968615D01*
X145642447Y-110976318D01*
X145674679Y-111006586D01*
X145681625Y-111010405D01*
X145681628Y-111010407D01*
X145692434Y-111016348D01*
X145708953Y-111027199D01*
X145724959Y-111039614D01*
X145732228Y-111042759D01*
X145732232Y-111042762D01*
X145765537Y-111057174D01*
X145776187Y-111062391D01*
X145814940Y-111083695D01*
X145822615Y-111085666D01*
X145822616Y-111085666D01*
X145834562Y-111088733D01*
X145853267Y-111095137D01*
X145871855Y-111103181D01*
X145879678Y-111104420D01*
X145879688Y-111104423D01*
X145915524Y-111110099D01*
X145927144Y-111112505D01*
X145958959Y-111120673D01*
X145969970Y-111123500D01*
X145990224Y-111123500D01*
X146009934Y-111125051D01*
X146029943Y-111128220D01*
X146037835Y-111127474D01*
X146056580Y-111125702D01*
X146073962Y-111124059D01*
X146085819Y-111123500D01*
X153083233Y-111123500D01*
X153094416Y-111124027D01*
X153101909Y-111125702D01*
X153109835Y-111125453D01*
X153109836Y-111125453D01*
X153169986Y-111123562D01*
X153173945Y-111123500D01*
X153201856Y-111123500D01*
X153205791Y-111123003D01*
X153205856Y-111122995D01*
X153217693Y-111122062D01*
X153249951Y-111121048D01*
X153253970Y-111120922D01*
X153261889Y-111120673D01*
X153281343Y-111115021D01*
X153300700Y-111111013D01*
X153312930Y-111109468D01*
X153312931Y-111109468D01*
X153320797Y-111108474D01*
X153328168Y-111105555D01*
X153328170Y-111105555D01*
X153361912Y-111092196D01*
X153373142Y-111088351D01*
X153407983Y-111078229D01*
X153407984Y-111078229D01*
X153415593Y-111076018D01*
X153422412Y-111071985D01*
X153422417Y-111071983D01*
X153433028Y-111065707D01*
X153450776Y-111057012D01*
X153469617Y-111049552D01*
X153505387Y-111023564D01*
X153515307Y-111017048D01*
X153546535Y-110998580D01*
X153546538Y-110998578D01*
X153553362Y-110994542D01*
X153567683Y-110980221D01*
X153582717Y-110967380D01*
X153592694Y-110960131D01*
X153599107Y-110955472D01*
X153627298Y-110921395D01*
X153635288Y-110912616D01*
X154187342Y-110360562D01*
X154195632Y-110353018D01*
X154202113Y-110348905D01*
X154248754Y-110299237D01*
X154251508Y-110296396D01*
X154271230Y-110276674D01*
X154273707Y-110273481D01*
X154281412Y-110264460D01*
X154306254Y-110238005D01*
X154311681Y-110232226D01*
X154315502Y-110225276D01*
X154321441Y-110214473D01*
X154332297Y-110197946D01*
X154339852Y-110188207D01*
X154339853Y-110188205D01*
X154344709Y-110181945D01*
X154362269Y-110141365D01*
X154367486Y-110130717D01*
X154384970Y-110098914D01*
X154384971Y-110098912D01*
X154388790Y-110091965D01*
X154393828Y-110072342D01*
X154400232Y-110053639D01*
X154405128Y-110042325D01*
X154405128Y-110042324D01*
X154408276Y-110035050D01*
X154409515Y-110027227D01*
X154409518Y-110027217D01*
X154415194Y-109991381D01*
X154417600Y-109979761D01*
X154426623Y-109944616D01*
X154426623Y-109944615D01*
X154428595Y-109936935D01*
X154428595Y-109916681D01*
X154430147Y-109896967D01*
X154431723Y-109887018D01*
X154462136Y-109822866D01*
X154490336Y-109799300D01*
X154679987Y-109683081D01*
X154679997Y-109683074D01*
X154684210Y-109680492D01*
X154864702Y-109526337D01*
X154948964Y-109427679D01*
X155008414Y-109388870D01*
X155079409Y-109388364D01*
X155140586Y-109427679D01*
X155224848Y-109526337D01*
X155405340Y-109680492D01*
X155607725Y-109804514D01*
X155612295Y-109806407D01*
X155612299Y-109806409D01*
X155822451Y-109893456D01*
X155822457Y-109893458D01*
X155827020Y-109895348D01*
X155831820Y-109896500D01*
X155831825Y-109896502D01*
X155915877Y-109916681D01*
X156057824Y-109950760D01*
X156294455Y-109969383D01*
X156531086Y-109950760D01*
X156673033Y-109916681D01*
X156757085Y-109896502D01*
X156757090Y-109896500D01*
X156761890Y-109895348D01*
X156766453Y-109893458D01*
X156766459Y-109893456D01*
X156976611Y-109806409D01*
X156976615Y-109806407D01*
X156981185Y-109804514D01*
X157183570Y-109680492D01*
X157364062Y-109526337D01*
X157518217Y-109345845D01*
X157642239Y-109143460D01*
X157647243Y-109131380D01*
X157731181Y-108928734D01*
X157731183Y-108928728D01*
X157733073Y-108924165D01*
X157734266Y-108919198D01*
X157766955Y-108783040D01*
X157788485Y-108693361D01*
X157807108Y-108456730D01*
X157788485Y-108220099D01*
X157755980Y-108084708D01*
X157734227Y-107994100D01*
X157734225Y-107994095D01*
X157733073Y-107989295D01*
X157731183Y-107984732D01*
X157731181Y-107984726D01*
X157644134Y-107774574D01*
X157644132Y-107774570D01*
X157642239Y-107770000D01*
X157518217Y-107567615D01*
X157364062Y-107387123D01*
X157183570Y-107232968D01*
X156981185Y-107108946D01*
X156976615Y-107107053D01*
X156976611Y-107107051D01*
X156766459Y-107020004D01*
X156766453Y-107020002D01*
X156761890Y-107018112D01*
X156757090Y-107016960D01*
X156757085Y-107016958D01*
X156651670Y-106991650D01*
X156531086Y-106962700D01*
X156294455Y-106944077D01*
X156057824Y-106962700D01*
X155937240Y-106991650D01*
X155831825Y-107016958D01*
X155831820Y-107016960D01*
X155827020Y-107018112D01*
X155822457Y-107020002D01*
X155822451Y-107020004D01*
X155612299Y-107107051D01*
X155612295Y-107107053D01*
X155607725Y-107108946D01*
X155405340Y-107232968D01*
X155224848Y-107387123D01*
X155221640Y-107390879D01*
X155140586Y-107485781D01*
X155081136Y-107524590D01*
X155010141Y-107525096D01*
X154948964Y-107485781D01*
X154867910Y-107390879D01*
X154864702Y-107387123D01*
X154684210Y-107232968D01*
X154481825Y-107108946D01*
X154477255Y-107107053D01*
X154477251Y-107107051D01*
X154267099Y-107020004D01*
X154267093Y-107020002D01*
X154262530Y-107018112D01*
X154257730Y-107016960D01*
X154257725Y-107016958D01*
X154152310Y-106991650D01*
X154031726Y-106962700D01*
X153795095Y-106944077D01*
X153558464Y-106962700D01*
X153437880Y-106991650D01*
X153332465Y-107016958D01*
X153332460Y-107016960D01*
X153327660Y-107018112D01*
X153323097Y-107020002D01*
X153323091Y-107020004D01*
X153112939Y-107107051D01*
X153112935Y-107107053D01*
X153108365Y-107108946D01*
X152905980Y-107232968D01*
X152725488Y-107387123D01*
X152722280Y-107390879D01*
X152722275Y-107390884D01*
X152586747Y-107549567D01*
X152540814Y-107583444D01*
X152518697Y-107592978D01*
X151667757Y-108443918D01*
X151660143Y-108457862D01*
X151660274Y-108459695D01*
X151664525Y-108466310D01*
X152515655Y-109317440D01*
X152554171Y-109338472D01*
X152589596Y-109367229D01*
X152722275Y-109522576D01*
X152722280Y-109522581D01*
X152725488Y-109526337D01*
X152729244Y-109529545D01*
X152729249Y-109529550D01*
X152852351Y-109634689D01*
X152891161Y-109694139D01*
X152891668Y-109765134D01*
X152853711Y-109825133D01*
X152789343Y-109855086D01*
X152770521Y-109856500D01*
X152285000Y-109856500D01*
X152216879Y-109836498D01*
X152170386Y-109782842D01*
X152160695Y-109709901D01*
X152163975Y-109690105D01*
X152159487Y-109679692D01*
X151308547Y-108828752D01*
X151294603Y-108821138D01*
X151292770Y-108821269D01*
X151286155Y-108825520D01*
X150435026Y-109676649D01*
X150427412Y-109690593D01*
X150429623Y-109721511D01*
X150414532Y-109790885D01*
X150364330Y-109841087D01*
X150303944Y-109856500D01*
X146364594Y-109856500D01*
X146296473Y-109836498D01*
X146275499Y-109819595D01*
X144917564Y-108461660D01*
X149783972Y-108461660D01*
X149801813Y-108688349D01*
X149803356Y-108698096D01*
X149856439Y-108919198D01*
X149859488Y-108928583D01*
X149946504Y-109138658D01*
X149950985Y-109147452D01*
X150053539Y-109314806D01*
X150063995Y-109324266D01*
X150072773Y-109320482D01*
X150923713Y-108469542D01*
X150931327Y-108455598D01*
X150931196Y-108453765D01*
X150926945Y-108447150D01*
X150075816Y-107596021D01*
X150063436Y-107589261D01*
X150055786Y-107594988D01*
X149950985Y-107766008D01*
X149946504Y-107774802D01*
X149859488Y-107984877D01*
X149856439Y-107994262D01*
X149803356Y-108215364D01*
X149801813Y-108225111D01*
X149783972Y-108451800D01*
X149783972Y-108461660D01*
X144917564Y-108461660D01*
X143680894Y-107224990D01*
X150428199Y-107224990D01*
X150431983Y-107233768D01*
X151282923Y-108084708D01*
X151296867Y-108092322D01*
X151298700Y-108092191D01*
X151305315Y-108087940D01*
X152156444Y-107236811D01*
X152163204Y-107224431D01*
X152157477Y-107216781D01*
X151986457Y-107111980D01*
X151977663Y-107107499D01*
X151767588Y-107020483D01*
X151758203Y-107017434D01*
X151537101Y-106964351D01*
X151527354Y-106962808D01*
X151300665Y-106944967D01*
X151290805Y-106944967D01*
X151064116Y-106962808D01*
X151054369Y-106964351D01*
X150833267Y-107017434D01*
X150823882Y-107020483D01*
X150613807Y-107107499D01*
X150605013Y-107111980D01*
X150437659Y-107214534D01*
X150428199Y-107224990D01*
X143680894Y-107224990D01*
X141764909Y-105309004D01*
X144274137Y-105309004D01*
X144274361Y-105313670D01*
X144274361Y-105313676D01*
X144276365Y-105355390D01*
X144286738Y-105571346D01*
X144337978Y-105828943D01*
X144426730Y-106076137D01*
X144551044Y-106307498D01*
X144553839Y-106311241D01*
X144553841Y-106311244D01*
X144705399Y-106514205D01*
X144705404Y-106514211D01*
X144708191Y-106517943D01*
X144711500Y-106521223D01*
X144711505Y-106521229D01*
X144891400Y-106699560D01*
X144894717Y-106702848D01*
X144898479Y-106705606D01*
X144898482Y-106705609D01*
X145008081Y-106785970D01*
X145106525Y-106858152D01*
X145110668Y-106860332D01*
X145110670Y-106860333D01*
X145334812Y-106978260D01*
X145334817Y-106978262D01*
X145338962Y-106980443D01*
X145586921Y-107067035D01*
X145591514Y-107067907D01*
X145840367Y-107115153D01*
X145840370Y-107115153D01*
X145844956Y-107116024D01*
X145976177Y-107121180D01*
X146102730Y-107126153D01*
X146102736Y-107126153D01*
X146107398Y-107126336D01*
X146368481Y-107097742D01*
X146372992Y-107096554D01*
X146372994Y-107096554D01*
X146617947Y-107032064D01*
X146617950Y-107032063D01*
X146622470Y-107030873D01*
X146822420Y-106944967D01*
X146859491Y-106929040D01*
X146859492Y-106929039D01*
X146863785Y-106927195D01*
X147087125Y-106788988D01*
X147185617Y-106705609D01*
X147284017Y-106622308D01*
X147284019Y-106622306D01*
X147287584Y-106619288D01*
X147460757Y-106421821D01*
X147602841Y-106200927D01*
X147710714Y-105961458D01*
X147782006Y-105708675D01*
X147796554Y-105594317D01*
X147814754Y-105451261D01*
X147814754Y-105451257D01*
X147815152Y-105448131D01*
X147817580Y-105355390D01*
X147814133Y-105309004D01*
X159773217Y-105309004D01*
X159773441Y-105313670D01*
X159773441Y-105313676D01*
X159775445Y-105355390D01*
X159785818Y-105571346D01*
X159837058Y-105828943D01*
X159925810Y-106076137D01*
X160050124Y-106307498D01*
X160052919Y-106311241D01*
X160052921Y-106311244D01*
X160204479Y-106514205D01*
X160204484Y-106514211D01*
X160207271Y-106517943D01*
X160210580Y-106521223D01*
X160210585Y-106521229D01*
X160390480Y-106699560D01*
X160393797Y-106702848D01*
X160397559Y-106705606D01*
X160397562Y-106705609D01*
X160507161Y-106785970D01*
X160605605Y-106858152D01*
X160609748Y-106860332D01*
X160609750Y-106860333D01*
X160833892Y-106978260D01*
X160833897Y-106978262D01*
X160838042Y-106980443D01*
X161086001Y-107067035D01*
X161090594Y-107067907D01*
X161339447Y-107115153D01*
X161339450Y-107115153D01*
X161344036Y-107116024D01*
X161475257Y-107121180D01*
X161601810Y-107126153D01*
X161601816Y-107126153D01*
X161606478Y-107126336D01*
X161867561Y-107097742D01*
X161872072Y-107096554D01*
X161872074Y-107096554D01*
X162117027Y-107032064D01*
X162117030Y-107032063D01*
X162121550Y-107030873D01*
X162321500Y-106944967D01*
X162358571Y-106929040D01*
X162358572Y-106929039D01*
X162362865Y-106927195D01*
X162586205Y-106788988D01*
X162684697Y-106705609D01*
X162783097Y-106622308D01*
X162783099Y-106622306D01*
X162786664Y-106619288D01*
X162959837Y-106421821D01*
X163101921Y-106200927D01*
X163209794Y-105961458D01*
X163281086Y-105708675D01*
X163295634Y-105594317D01*
X163313834Y-105451261D01*
X163313834Y-105451257D01*
X163314232Y-105448131D01*
X163316660Y-105355390D01*
X163307890Y-105237373D01*
X163297542Y-105098120D01*
X163297541Y-105098116D01*
X163297196Y-105093468D01*
X163239231Y-104837300D01*
X163222050Y-104793118D01*
X163145732Y-104596867D01*
X163145731Y-104596865D01*
X163144039Y-104592514D01*
X163116843Y-104544930D01*
X163053358Y-104433856D01*
X163013710Y-104364486D01*
X162851109Y-104158227D01*
X162659806Y-103978268D01*
X162444006Y-103828562D01*
X162439813Y-103826494D01*
X162212635Y-103714462D01*
X162212632Y-103714461D01*
X162208447Y-103712397D01*
X161958306Y-103632326D01*
X161953699Y-103631576D01*
X161953696Y-103631575D01*
X161703688Y-103590859D01*
X161703689Y-103590859D01*
X161699077Y-103590108D01*
X161571528Y-103588438D01*
X161441132Y-103586731D01*
X161441129Y-103586731D01*
X161436455Y-103586670D01*
X161176210Y-103622088D01*
X160924059Y-103695583D01*
X160685540Y-103805542D01*
X160681631Y-103808105D01*
X160469808Y-103946982D01*
X160469803Y-103946986D01*
X160465895Y-103949548D01*
X160269947Y-104124438D01*
X160233301Y-104168500D01*
X160111265Y-104315233D01*
X160102002Y-104326370D01*
X160099579Y-104330363D01*
X160000349Y-104493889D01*
X159965749Y-104550907D01*
X159963940Y-104555221D01*
X159963938Y-104555225D01*
X159887552Y-104737387D01*
X159864182Y-104793118D01*
X159799531Y-105047681D01*
X159773217Y-105309004D01*
X147814133Y-105309004D01*
X147808810Y-105237373D01*
X147798462Y-105098120D01*
X147798461Y-105098116D01*
X147798116Y-105093468D01*
X147740151Y-104837300D01*
X147722970Y-104793118D01*
X147646652Y-104596867D01*
X147646651Y-104596865D01*
X147644959Y-104592514D01*
X147617763Y-104544930D01*
X147554278Y-104433856D01*
X147514630Y-104364486D01*
X147352029Y-104158227D01*
X147160726Y-103978268D01*
X146944926Y-103828562D01*
X146940733Y-103826494D01*
X146713555Y-103714462D01*
X146713552Y-103714461D01*
X146709367Y-103712397D01*
X146459226Y-103632326D01*
X146454619Y-103631576D01*
X146454616Y-103631575D01*
X146204608Y-103590859D01*
X146204609Y-103590859D01*
X146199997Y-103590108D01*
X146072448Y-103588438D01*
X145942052Y-103586731D01*
X145942049Y-103586731D01*
X145937375Y-103586670D01*
X145677130Y-103622088D01*
X145424979Y-103695583D01*
X145186460Y-103805542D01*
X145182551Y-103808105D01*
X144970728Y-103946982D01*
X144970723Y-103946986D01*
X144966815Y-103949548D01*
X144770867Y-104124438D01*
X144734221Y-104168500D01*
X144612185Y-104315233D01*
X144602922Y-104326370D01*
X144600499Y-104330363D01*
X144501269Y-104493889D01*
X144466669Y-104550907D01*
X144464860Y-104555221D01*
X144464858Y-104555225D01*
X144388472Y-104737387D01*
X144365102Y-104793118D01*
X144300451Y-105047681D01*
X144274137Y-105309004D01*
X141764909Y-105309004D01*
X140624405Y-104168500D01*
X140590379Y-104106188D01*
X140587500Y-104079405D01*
X140587500Y-103122670D01*
X172412160Y-103122670D01*
X172417887Y-103130320D01*
X172589042Y-103235205D01*
X172597837Y-103239687D01*
X172807988Y-103326734D01*
X172817373Y-103329783D01*
X173038554Y-103382885D01*
X173048301Y-103384428D01*
X173275070Y-103402275D01*
X173284930Y-103402275D01*
X173511699Y-103384428D01*
X173521446Y-103382885D01*
X173742627Y-103329783D01*
X173752012Y-103326734D01*
X173962163Y-103239687D01*
X173970958Y-103235205D01*
X174138445Y-103132568D01*
X174147400Y-103122670D01*
X178912160Y-103122670D01*
X178917887Y-103130320D01*
X179089042Y-103235205D01*
X179097837Y-103239687D01*
X179307988Y-103326734D01*
X179317373Y-103329783D01*
X179538554Y-103382885D01*
X179548301Y-103384428D01*
X179775070Y-103402275D01*
X179784930Y-103402275D01*
X180011699Y-103384428D01*
X180021446Y-103382885D01*
X180242627Y-103329783D01*
X180252012Y-103326734D01*
X180462163Y-103239687D01*
X180470958Y-103235205D01*
X180638445Y-103132568D01*
X180647907Y-103122110D01*
X180644124Y-103113334D01*
X179792812Y-102262022D01*
X179778868Y-102254408D01*
X179777035Y-102254539D01*
X179770420Y-102258790D01*
X178918920Y-103110290D01*
X178912160Y-103122670D01*
X174147400Y-103122670D01*
X174147907Y-103122110D01*
X174144124Y-103113334D01*
X173292812Y-102262022D01*
X173278868Y-102254408D01*
X173277035Y-102254539D01*
X173270420Y-102258790D01*
X172418920Y-103110290D01*
X172412160Y-103122670D01*
X140587500Y-103122670D01*
X140587500Y-98353595D01*
X140607502Y-98285474D01*
X140661158Y-98238981D01*
X140731432Y-98228877D01*
X140796012Y-98258371D01*
X140802595Y-98264500D01*
X141636018Y-99097923D01*
X141643558Y-99106209D01*
X141647670Y-99112688D01*
X141653447Y-99118113D01*
X141697321Y-99159313D01*
X141700163Y-99162068D01*
X141719900Y-99181805D01*
X141723097Y-99184285D01*
X141732117Y-99191988D01*
X141764349Y-99222256D01*
X141771295Y-99226075D01*
X141771298Y-99226077D01*
X141782104Y-99232018D01*
X141798623Y-99242869D01*
X141814629Y-99255284D01*
X141821898Y-99258429D01*
X141821902Y-99258432D01*
X141855207Y-99272844D01*
X141865857Y-99278061D01*
X141904610Y-99299365D01*
X141912285Y-99301336D01*
X141912286Y-99301336D01*
X141924232Y-99304403D01*
X141942937Y-99310807D01*
X141961525Y-99318851D01*
X141969348Y-99320090D01*
X141969358Y-99320093D01*
X142005194Y-99325769D01*
X142016814Y-99328175D01*
X142051959Y-99337198D01*
X142059640Y-99339170D01*
X142079894Y-99339170D01*
X142099604Y-99340721D01*
X142119613Y-99343890D01*
X142127505Y-99343144D01*
X142163631Y-99339729D01*
X142175489Y-99339170D01*
X142593068Y-99339170D01*
X142661189Y-99359172D01*
X142700500Y-99399334D01*
X142820273Y-99594785D01*
X142974428Y-99775277D01*
X142978184Y-99778485D01*
X143073086Y-99859539D01*
X143111895Y-99918989D01*
X143112401Y-99989984D01*
X143073086Y-100051161D01*
X142974428Y-100135423D01*
X142820273Y-100315915D01*
X142696251Y-100518300D01*
X142694358Y-100522870D01*
X142694356Y-100522874D01*
X142607309Y-100733026D01*
X142607307Y-100733032D01*
X142605417Y-100737595D01*
X142604265Y-100742395D01*
X142604263Y-100742400D01*
X142586953Y-100814501D01*
X142550005Y-100968399D01*
X142531382Y-101205030D01*
X142550005Y-101441661D01*
X142576360Y-101551437D01*
X142603838Y-101665887D01*
X142605417Y-101672465D01*
X142607307Y-101677028D01*
X142607309Y-101677034D01*
X142694356Y-101887186D01*
X142696251Y-101891760D01*
X142820273Y-102094145D01*
X142974428Y-102274637D01*
X142978184Y-102277845D01*
X142987024Y-102285395D01*
X143154920Y-102428792D01*
X143357305Y-102552814D01*
X143361875Y-102554707D01*
X143361879Y-102554709D01*
X143572031Y-102641756D01*
X143572037Y-102641758D01*
X143576600Y-102643648D01*
X143581400Y-102644800D01*
X143581405Y-102644802D01*
X143684542Y-102669563D01*
X143807404Y-102699060D01*
X144044035Y-102717683D01*
X144280666Y-102699060D01*
X144403528Y-102669563D01*
X144506665Y-102644802D01*
X144506670Y-102644800D01*
X144511470Y-102643648D01*
X144516033Y-102641758D01*
X144516039Y-102641756D01*
X144726191Y-102554709D01*
X144726195Y-102554707D01*
X144730765Y-102552814D01*
X144933150Y-102428792D01*
X145101046Y-102285395D01*
X145109886Y-102277845D01*
X145113642Y-102274637D01*
X145267797Y-102094145D01*
X145389876Y-101894930D01*
X171767725Y-101894930D01*
X171785572Y-102121699D01*
X171787115Y-102131446D01*
X171840217Y-102352627D01*
X171843266Y-102362012D01*
X171930313Y-102572163D01*
X171934795Y-102580958D01*
X172037432Y-102748445D01*
X172047890Y-102757907D01*
X172056666Y-102754124D01*
X172907978Y-101902812D01*
X172914356Y-101891132D01*
X173644408Y-101891132D01*
X173644539Y-101892965D01*
X173648790Y-101899580D01*
X174500290Y-102751080D01*
X174512670Y-102757840D01*
X174520320Y-102752113D01*
X174625205Y-102580958D01*
X174629687Y-102572163D01*
X174716734Y-102362012D01*
X174719783Y-102352627D01*
X174772885Y-102131446D01*
X174774428Y-102121699D01*
X174792275Y-101894930D01*
X178267725Y-101894930D01*
X178285572Y-102121699D01*
X178287115Y-102131446D01*
X178340217Y-102352627D01*
X178343266Y-102362012D01*
X178430313Y-102572163D01*
X178434795Y-102580958D01*
X178537432Y-102748445D01*
X178547890Y-102757907D01*
X178556666Y-102754124D01*
X179407978Y-101902812D01*
X179414356Y-101891132D01*
X180144408Y-101891132D01*
X180144539Y-101892965D01*
X180148790Y-101899580D01*
X181000290Y-102751080D01*
X181012670Y-102757840D01*
X181020320Y-102752113D01*
X181125205Y-102580958D01*
X181129687Y-102572163D01*
X181216734Y-102362012D01*
X181219783Y-102352627D01*
X181272885Y-102131446D01*
X181274428Y-102121699D01*
X181292275Y-101894930D01*
X181292275Y-101885070D01*
X181274428Y-101658301D01*
X181272885Y-101648554D01*
X181219783Y-101427373D01*
X181216734Y-101417988D01*
X181129687Y-101207837D01*
X181125205Y-101199042D01*
X181022568Y-101031555D01*
X181012110Y-101022093D01*
X181003334Y-101025876D01*
X180152022Y-101877188D01*
X180144408Y-101891132D01*
X179414356Y-101891132D01*
X179415592Y-101888868D01*
X179415461Y-101887035D01*
X179411210Y-101880420D01*
X178559710Y-101028920D01*
X178547330Y-101022160D01*
X178539680Y-101027887D01*
X178434795Y-101199042D01*
X178430313Y-101207837D01*
X178343266Y-101417988D01*
X178340217Y-101427373D01*
X178287115Y-101648554D01*
X178285572Y-101658301D01*
X178267725Y-101885070D01*
X178267725Y-101894930D01*
X174792275Y-101894930D01*
X174792275Y-101885070D01*
X174774428Y-101658301D01*
X174772885Y-101648554D01*
X174719783Y-101427373D01*
X174716734Y-101417988D01*
X174629687Y-101207837D01*
X174625205Y-101199042D01*
X174522568Y-101031555D01*
X174512110Y-101022093D01*
X174503334Y-101025876D01*
X173652022Y-101877188D01*
X173644408Y-101891132D01*
X172914356Y-101891132D01*
X172915592Y-101888868D01*
X172915461Y-101887035D01*
X172911210Y-101880420D01*
X172059710Y-101028920D01*
X172047330Y-101022160D01*
X172039680Y-101027887D01*
X171934795Y-101199042D01*
X171930313Y-101207837D01*
X171843266Y-101417988D01*
X171840217Y-101427373D01*
X171787115Y-101648554D01*
X171785572Y-101658301D01*
X171767725Y-101885070D01*
X171767725Y-101894930D01*
X145389876Y-101894930D01*
X145391819Y-101891760D01*
X145393714Y-101887186D01*
X145480761Y-101677034D01*
X145480763Y-101677028D01*
X145482653Y-101672465D01*
X145484233Y-101665887D01*
X145511710Y-101551437D01*
X145538065Y-101441661D01*
X145556688Y-101205030D01*
X145538065Y-100968399D01*
X145501117Y-100814501D01*
X145483807Y-100742400D01*
X145483805Y-100742395D01*
X145482653Y-100737595D01*
X145480763Y-100733032D01*
X145480761Y-100733026D01*
X145449639Y-100657890D01*
X172412093Y-100657890D01*
X172415876Y-100666666D01*
X173267188Y-101517978D01*
X173281132Y-101525592D01*
X173282965Y-101525461D01*
X173289580Y-101521210D01*
X174141080Y-100669710D01*
X174147534Y-100657890D01*
X178912093Y-100657890D01*
X178915876Y-100666666D01*
X179767188Y-101517978D01*
X179781132Y-101525592D01*
X179782965Y-101525461D01*
X179789580Y-101521210D01*
X180641080Y-100669710D01*
X180647840Y-100657330D01*
X180642113Y-100649680D01*
X180470958Y-100544795D01*
X180462163Y-100540313D01*
X180252012Y-100453266D01*
X180242627Y-100450217D01*
X180021446Y-100397115D01*
X180011699Y-100395572D01*
X179784930Y-100377725D01*
X179775070Y-100377725D01*
X179548301Y-100395572D01*
X179538554Y-100397115D01*
X179317373Y-100450217D01*
X179307988Y-100453266D01*
X179097837Y-100540313D01*
X179089042Y-100544795D01*
X178921555Y-100647432D01*
X178912093Y-100657890D01*
X174147534Y-100657890D01*
X174147840Y-100657330D01*
X174142113Y-100649680D01*
X173970958Y-100544795D01*
X173962163Y-100540313D01*
X173752012Y-100453266D01*
X173742627Y-100450217D01*
X173521446Y-100397115D01*
X173511699Y-100395572D01*
X173284930Y-100377725D01*
X173275070Y-100377725D01*
X173048301Y-100395572D01*
X173038554Y-100397115D01*
X172817373Y-100450217D01*
X172807988Y-100453266D01*
X172597837Y-100540313D01*
X172589042Y-100544795D01*
X172421555Y-100647432D01*
X172412093Y-100657890D01*
X145449639Y-100657890D01*
X145393714Y-100522874D01*
X145393712Y-100522870D01*
X145391819Y-100518300D01*
X145267797Y-100315915D01*
X145113642Y-100135423D01*
X145014984Y-100051161D01*
X144976175Y-99991711D01*
X144975669Y-99920716D01*
X145014984Y-99859539D01*
X145109886Y-99778485D01*
X145113642Y-99775277D01*
X145267797Y-99594785D01*
X145391819Y-99392400D01*
X145393714Y-99387826D01*
X145480761Y-99177674D01*
X145480763Y-99177668D01*
X145482653Y-99173105D01*
X145485643Y-99160654D01*
X145509115Y-99062885D01*
X145538065Y-98942301D01*
X145556688Y-98705670D01*
X145538065Y-98469039D01*
X145488959Y-98264500D01*
X145483807Y-98243040D01*
X145483805Y-98243035D01*
X145482653Y-98238235D01*
X145480763Y-98233672D01*
X145480761Y-98233666D01*
X145393714Y-98023514D01*
X145393712Y-98023510D01*
X145391819Y-98018940D01*
X145267797Y-97816555D01*
X145113642Y-97636063D01*
X145109886Y-97632855D01*
X145109881Y-97632850D01*
X144951198Y-97497322D01*
X144917321Y-97451389D01*
X144907787Y-97429272D01*
X144056847Y-96578332D01*
X144042903Y-96570718D01*
X144041070Y-96570849D01*
X144034455Y-96575100D01*
X143183325Y-97426230D01*
X143162293Y-97464746D01*
X143133536Y-97500171D01*
X142978189Y-97632850D01*
X142978184Y-97632855D01*
X142974428Y-97636063D01*
X142820273Y-97816555D01*
X142817691Y-97820769D01*
X142700501Y-98012005D01*
X142647853Y-98059636D01*
X142593068Y-98072170D01*
X142454264Y-98072170D01*
X142386143Y-98052168D01*
X142365169Y-98035265D01*
X142115146Y-97785242D01*
X142081120Y-97722930D01*
X142086185Y-97652115D01*
X142128732Y-97595279D01*
X142152991Y-97581041D01*
X142182717Y-97567806D01*
X142182725Y-97567801D01*
X142188752Y-97565118D01*
X142343253Y-97452866D01*
X142471040Y-97310944D01*
X142566527Y-97145556D01*
X142580839Y-97101507D01*
X142620913Y-97042903D01*
X142686310Y-97015266D01*
X142756266Y-97027373D01*
X142786207Y-97054658D01*
X142788403Y-97052230D01*
X142812295Y-97073846D01*
X142821073Y-97070062D01*
X143672013Y-96219122D01*
X143678391Y-96207442D01*
X144408443Y-96207442D01*
X144408574Y-96209275D01*
X144412825Y-96215890D01*
X145263954Y-97067019D01*
X145276334Y-97073779D01*
X145283984Y-97068052D01*
X145388785Y-96897032D01*
X145393266Y-96888238D01*
X145480282Y-96678163D01*
X145483331Y-96668778D01*
X145536414Y-96447676D01*
X145537957Y-96437929D01*
X145555798Y-96211240D01*
X145555798Y-96201380D01*
X145537957Y-95974691D01*
X145536414Y-95964944D01*
X145483331Y-95743842D01*
X145480282Y-95734457D01*
X145393266Y-95524382D01*
X145388785Y-95515588D01*
X145286231Y-95348234D01*
X145275775Y-95338774D01*
X145266997Y-95342558D01*
X144416057Y-96193498D01*
X144408443Y-96207442D01*
X143678391Y-96207442D01*
X143679627Y-96205178D01*
X143679496Y-96203345D01*
X143675245Y-96196730D01*
X142824116Y-95345601D01*
X142811736Y-95338841D01*
X142804086Y-95344568D01*
X142699285Y-95515588D01*
X142694804Y-95524382D01*
X142607788Y-95734457D01*
X142604739Y-95743842D01*
X142551656Y-95964944D01*
X142550111Y-95974703D01*
X142547549Y-96007249D01*
X142522264Y-96073590D01*
X142465125Y-96115729D01*
X142394275Y-96120288D01*
X142343902Y-96094240D01*
X142343253Y-96095134D01*
X142194094Y-95986763D01*
X142194093Y-95986762D01*
X142188752Y-95982882D01*
X142182724Y-95980198D01*
X142182722Y-95980197D01*
X142020319Y-95907891D01*
X142020318Y-95907891D01*
X142014288Y-95905206D01*
X141920888Y-95885353D01*
X141833944Y-95866872D01*
X141833939Y-95866872D01*
X141827487Y-95865500D01*
X141771594Y-95865500D01*
X141703473Y-95845498D01*
X141682499Y-95828595D01*
X140828474Y-94974570D01*
X143176499Y-94974570D01*
X143180283Y-94983348D01*
X144031223Y-95834288D01*
X144045167Y-95841902D01*
X144047000Y-95841771D01*
X144053615Y-95837520D01*
X144904744Y-94986391D01*
X144911504Y-94974011D01*
X144905777Y-94966361D01*
X144734757Y-94861560D01*
X144725963Y-94857079D01*
X144515888Y-94770063D01*
X144506503Y-94767014D01*
X144285401Y-94713931D01*
X144275654Y-94712388D01*
X144048965Y-94694547D01*
X144039105Y-94694547D01*
X143812416Y-94712388D01*
X143802669Y-94713931D01*
X143581567Y-94767014D01*
X143572182Y-94770063D01*
X143362107Y-94857079D01*
X143353313Y-94861560D01*
X143185959Y-94964114D01*
X143176499Y-94974570D01*
X140828474Y-94974570D01*
X140086574Y-94232670D01*
X187652160Y-94232670D01*
X187657887Y-94240320D01*
X187829042Y-94345205D01*
X187837837Y-94349687D01*
X188047988Y-94436734D01*
X188057373Y-94439783D01*
X188278554Y-94492885D01*
X188288301Y-94494428D01*
X188515070Y-94512275D01*
X188524930Y-94512275D01*
X188751699Y-94494428D01*
X188761446Y-94492885D01*
X188982627Y-94439783D01*
X188992012Y-94436734D01*
X189202163Y-94349687D01*
X189210958Y-94345205D01*
X189378445Y-94242568D01*
X189387400Y-94232670D01*
X194152160Y-94232670D01*
X194157887Y-94240320D01*
X194329042Y-94345205D01*
X194337837Y-94349687D01*
X194547988Y-94436734D01*
X194557373Y-94439783D01*
X194778554Y-94492885D01*
X194788301Y-94494428D01*
X195015070Y-94512275D01*
X195024930Y-94512275D01*
X195251699Y-94494428D01*
X195261446Y-94492885D01*
X195482627Y-94439783D01*
X195492012Y-94436734D01*
X195702163Y-94349687D01*
X195710958Y-94345205D01*
X195878445Y-94242568D01*
X195887907Y-94232110D01*
X195884124Y-94223334D01*
X195032812Y-93372022D01*
X195018868Y-93364408D01*
X195017035Y-93364539D01*
X195010420Y-93368790D01*
X194158920Y-94220290D01*
X194152160Y-94232670D01*
X189387400Y-94232670D01*
X189387907Y-94232110D01*
X189384124Y-94223334D01*
X188532812Y-93372022D01*
X188518868Y-93364408D01*
X188517035Y-93364539D01*
X188510420Y-93368790D01*
X187658920Y-94220290D01*
X187652160Y-94232670D01*
X140086574Y-94232670D01*
X137863469Y-92009564D01*
X144274137Y-92009564D01*
X144274361Y-92014230D01*
X144274361Y-92014236D01*
X144276335Y-92055322D01*
X144286738Y-92271906D01*
X144337978Y-92529503D01*
X144426730Y-92776697D01*
X144428946Y-92780821D01*
X144547323Y-93001132D01*
X144551044Y-93008058D01*
X144553839Y-93011801D01*
X144553841Y-93011804D01*
X144705399Y-93214765D01*
X144705404Y-93214771D01*
X144708191Y-93218503D01*
X144711500Y-93221783D01*
X144711505Y-93221789D01*
X144887283Y-93396039D01*
X144894717Y-93403408D01*
X144898479Y-93406166D01*
X144898482Y-93406169D01*
X145036968Y-93507711D01*
X145106525Y-93558712D01*
X145110668Y-93560892D01*
X145110670Y-93560893D01*
X145334812Y-93678820D01*
X145334817Y-93678822D01*
X145338962Y-93681003D01*
X145343385Y-93682548D01*
X145343386Y-93682548D01*
X145568171Y-93761047D01*
X145586921Y-93767595D01*
X145591514Y-93768467D01*
X145840367Y-93815713D01*
X145840370Y-93815713D01*
X145844956Y-93816584D01*
X145976177Y-93821740D01*
X146102730Y-93826713D01*
X146102736Y-93826713D01*
X146107398Y-93826896D01*
X146368481Y-93798302D01*
X146372992Y-93797114D01*
X146372994Y-93797114D01*
X146617947Y-93732624D01*
X146617950Y-93732623D01*
X146622470Y-93731433D01*
X146784076Y-93662001D01*
X146859491Y-93629600D01*
X146859492Y-93629599D01*
X146863785Y-93627755D01*
X147068428Y-93501118D01*
X147083150Y-93492008D01*
X147083152Y-93492007D01*
X147087125Y-93489548D01*
X147121952Y-93460065D01*
X147284017Y-93322868D01*
X147284019Y-93322866D01*
X147287584Y-93319848D01*
X147460757Y-93122381D01*
X147483336Y-93087279D01*
X147593272Y-92916363D01*
X147602841Y-92901487D01*
X147710714Y-92662018D01*
X147782006Y-92409235D01*
X147797066Y-92290853D01*
X147814754Y-92151821D01*
X147814754Y-92151817D01*
X147815152Y-92148691D01*
X147817580Y-92055950D01*
X147814133Y-92009564D01*
X159773217Y-92009564D01*
X159773441Y-92014230D01*
X159773441Y-92014236D01*
X159775415Y-92055322D01*
X159785818Y-92271906D01*
X159837058Y-92529503D01*
X159925810Y-92776697D01*
X159928026Y-92780821D01*
X160046403Y-93001132D01*
X160050124Y-93008058D01*
X160052919Y-93011801D01*
X160052921Y-93011804D01*
X160204479Y-93214765D01*
X160204484Y-93214771D01*
X160207271Y-93218503D01*
X160210580Y-93221783D01*
X160210585Y-93221789D01*
X160386363Y-93396039D01*
X160393797Y-93403408D01*
X160397559Y-93406166D01*
X160397562Y-93406169D01*
X160536048Y-93507711D01*
X160605605Y-93558712D01*
X160609748Y-93560892D01*
X160609750Y-93560893D01*
X160833892Y-93678820D01*
X160833897Y-93678822D01*
X160838042Y-93681003D01*
X160842465Y-93682548D01*
X160842466Y-93682548D01*
X161067251Y-93761047D01*
X161086001Y-93767595D01*
X161090594Y-93768467D01*
X161339447Y-93815713D01*
X161339450Y-93815713D01*
X161344036Y-93816584D01*
X161475257Y-93821740D01*
X161601810Y-93826713D01*
X161601816Y-93826713D01*
X161606478Y-93826896D01*
X161867561Y-93798302D01*
X161872072Y-93797114D01*
X161872074Y-93797114D01*
X162117027Y-93732624D01*
X162117030Y-93732623D01*
X162121550Y-93731433D01*
X162283156Y-93662001D01*
X162358571Y-93629600D01*
X162358572Y-93629599D01*
X162362865Y-93627755D01*
X162567508Y-93501118D01*
X162582230Y-93492008D01*
X162582232Y-93492007D01*
X162586205Y-93489548D01*
X162621032Y-93460065D01*
X162783097Y-93322868D01*
X162783099Y-93322866D01*
X162786664Y-93319848D01*
X162959837Y-93122381D01*
X162982416Y-93087279D01*
X163035384Y-93004930D01*
X187007725Y-93004930D01*
X187025572Y-93231699D01*
X187027115Y-93241446D01*
X187080217Y-93462627D01*
X187083266Y-93472012D01*
X187170313Y-93682163D01*
X187174795Y-93690958D01*
X187277432Y-93858445D01*
X187287890Y-93867907D01*
X187296666Y-93864124D01*
X188147978Y-93012812D01*
X188154356Y-93001132D01*
X188884408Y-93001132D01*
X188884539Y-93002965D01*
X188888790Y-93009580D01*
X189740290Y-93861080D01*
X189752670Y-93867840D01*
X189760320Y-93862113D01*
X189865205Y-93690958D01*
X189869687Y-93682163D01*
X189956734Y-93472012D01*
X189959783Y-93462627D01*
X190012885Y-93241446D01*
X190014428Y-93231699D01*
X190032275Y-93004930D01*
X193507725Y-93004930D01*
X193525572Y-93231699D01*
X193527115Y-93241446D01*
X193580217Y-93462627D01*
X193583266Y-93472012D01*
X193670313Y-93682163D01*
X193674795Y-93690958D01*
X193777432Y-93858445D01*
X193787890Y-93867907D01*
X193796666Y-93864124D01*
X194647978Y-93012812D01*
X194654356Y-93001132D01*
X195384408Y-93001132D01*
X195384539Y-93002965D01*
X195388790Y-93009580D01*
X196240290Y-93861080D01*
X196252670Y-93867840D01*
X196260320Y-93862113D01*
X196365205Y-93690958D01*
X196369687Y-93682163D01*
X196456734Y-93472012D01*
X196459783Y-93462627D01*
X196512885Y-93241446D01*
X196514428Y-93231699D01*
X196532275Y-93004930D01*
X196532275Y-92995070D01*
X196514428Y-92768301D01*
X196512885Y-92758554D01*
X196459783Y-92537373D01*
X196456734Y-92527988D01*
X196369687Y-92317837D01*
X196365205Y-92309042D01*
X196262568Y-92141555D01*
X196252110Y-92132093D01*
X196243334Y-92135876D01*
X195392022Y-92987188D01*
X195384408Y-93001132D01*
X194654356Y-93001132D01*
X194655592Y-92998868D01*
X194655461Y-92997035D01*
X194651210Y-92990420D01*
X193799710Y-92138920D01*
X193787330Y-92132160D01*
X193779680Y-92137887D01*
X193674795Y-92309042D01*
X193670313Y-92317837D01*
X193583266Y-92527988D01*
X193580217Y-92537373D01*
X193527115Y-92758554D01*
X193525572Y-92768301D01*
X193507725Y-92995070D01*
X193507725Y-93004930D01*
X190032275Y-93004930D01*
X190032275Y-92995070D01*
X190014428Y-92768301D01*
X190012885Y-92758554D01*
X189959783Y-92537373D01*
X189956734Y-92527988D01*
X189869687Y-92317837D01*
X189865205Y-92309042D01*
X189762568Y-92141555D01*
X189752110Y-92132093D01*
X189743334Y-92135876D01*
X188892022Y-92987188D01*
X188884408Y-93001132D01*
X188154356Y-93001132D01*
X188155592Y-92998868D01*
X188155461Y-92997035D01*
X188151210Y-92990420D01*
X187299710Y-92138920D01*
X187287330Y-92132160D01*
X187279680Y-92137887D01*
X187174795Y-92309042D01*
X187170313Y-92317837D01*
X187083266Y-92527988D01*
X187080217Y-92537373D01*
X187027115Y-92758554D01*
X187025572Y-92768301D01*
X187007725Y-92995070D01*
X187007725Y-93004930D01*
X163035384Y-93004930D01*
X163092352Y-92916363D01*
X163101921Y-92901487D01*
X163209794Y-92662018D01*
X163281086Y-92409235D01*
X163296146Y-92290853D01*
X163313834Y-92151821D01*
X163313834Y-92151817D01*
X163314232Y-92148691D01*
X163316660Y-92055950D01*
X163308770Y-91949780D01*
X163297542Y-91798680D01*
X163297541Y-91798676D01*
X163297196Y-91794028D01*
X163291282Y-91767890D01*
X187652093Y-91767890D01*
X187655876Y-91776666D01*
X188507188Y-92627978D01*
X188521132Y-92635592D01*
X188522965Y-92635461D01*
X188529580Y-92631210D01*
X189381080Y-91779710D01*
X189387534Y-91767890D01*
X194152093Y-91767890D01*
X194155876Y-91776666D01*
X195007188Y-92627978D01*
X195021132Y-92635592D01*
X195022965Y-92635461D01*
X195029580Y-92631210D01*
X195881080Y-91779710D01*
X195887840Y-91767330D01*
X195882113Y-91759680D01*
X195710958Y-91654795D01*
X195702163Y-91650313D01*
X195492012Y-91563266D01*
X195482627Y-91560217D01*
X195261446Y-91507115D01*
X195251699Y-91505572D01*
X195024930Y-91487725D01*
X195015070Y-91487725D01*
X194788301Y-91505572D01*
X194778554Y-91507115D01*
X194557373Y-91560217D01*
X194547988Y-91563266D01*
X194337837Y-91650313D01*
X194329042Y-91654795D01*
X194161555Y-91757432D01*
X194152093Y-91767890D01*
X189387534Y-91767890D01*
X189387840Y-91767330D01*
X189382113Y-91759680D01*
X189210958Y-91654795D01*
X189202163Y-91650313D01*
X188992012Y-91563266D01*
X188982627Y-91560217D01*
X188761446Y-91507115D01*
X188751699Y-91505572D01*
X188524930Y-91487725D01*
X188515070Y-91487725D01*
X188288301Y-91505572D01*
X188278554Y-91507115D01*
X188057373Y-91560217D01*
X188047988Y-91563266D01*
X187837837Y-91650313D01*
X187829042Y-91654795D01*
X187661555Y-91757432D01*
X187652093Y-91767890D01*
X163291282Y-91767890D01*
X163239231Y-91537860D01*
X163236311Y-91530351D01*
X163145732Y-91297427D01*
X163145731Y-91297425D01*
X163144039Y-91293074D01*
X163013710Y-91065046D01*
X162851109Y-90858787D01*
X162659806Y-90678828D01*
X162444006Y-90529122D01*
X162439813Y-90527054D01*
X162212635Y-90415022D01*
X162212632Y-90415021D01*
X162208447Y-90412957D01*
X161958306Y-90332886D01*
X161953699Y-90332136D01*
X161953696Y-90332135D01*
X161747167Y-90298500D01*
X161699077Y-90290668D01*
X161571528Y-90288998D01*
X161441132Y-90287291D01*
X161441129Y-90287291D01*
X161436455Y-90287230D01*
X161176210Y-90322648D01*
X160924059Y-90396143D01*
X160685540Y-90506102D01*
X160681631Y-90508665D01*
X160469808Y-90647542D01*
X160469803Y-90647546D01*
X160465895Y-90650108D01*
X160269947Y-90824998D01*
X160102002Y-91026930D01*
X159965749Y-91251467D01*
X159963940Y-91255781D01*
X159963938Y-91255785D01*
X159948302Y-91293074D01*
X159864182Y-91493678D01*
X159799531Y-91748241D01*
X159773217Y-92009564D01*
X147814133Y-92009564D01*
X147809690Y-91949780D01*
X147798462Y-91798680D01*
X147798461Y-91798676D01*
X147798116Y-91794028D01*
X147740151Y-91537860D01*
X147737231Y-91530351D01*
X147646652Y-91297427D01*
X147646651Y-91297425D01*
X147644959Y-91293074D01*
X147514630Y-91065046D01*
X147352029Y-90858787D01*
X147160726Y-90678828D01*
X146944926Y-90529122D01*
X146940733Y-90527054D01*
X146713555Y-90415022D01*
X146713552Y-90415021D01*
X146709367Y-90412957D01*
X146459226Y-90332886D01*
X146454619Y-90332136D01*
X146454616Y-90332135D01*
X146248087Y-90298500D01*
X146199997Y-90290668D01*
X146072448Y-90288998D01*
X145942052Y-90287291D01*
X145942049Y-90287291D01*
X145937375Y-90287230D01*
X145677130Y-90322648D01*
X145424979Y-90396143D01*
X145186460Y-90506102D01*
X145182551Y-90508665D01*
X144970728Y-90647542D01*
X144970723Y-90647546D01*
X144966815Y-90650108D01*
X144770867Y-90824998D01*
X144602922Y-91026930D01*
X144466669Y-91251467D01*
X144464860Y-91255781D01*
X144464858Y-91255785D01*
X144449222Y-91293074D01*
X144365102Y-91493678D01*
X144300451Y-91748241D01*
X144274137Y-92009564D01*
X137863469Y-92009564D01*
X137634500Y-91780595D01*
X137600474Y-91718283D01*
X137605539Y-91647467D01*
X137648086Y-91590632D01*
X137714606Y-91565821D01*
X137723595Y-91565500D01*
X138351233Y-91565500D01*
X138362416Y-91566027D01*
X138369909Y-91567702D01*
X138377835Y-91567453D01*
X138377836Y-91567453D01*
X138437986Y-91565562D01*
X138441945Y-91565500D01*
X138469856Y-91565500D01*
X138473791Y-91565003D01*
X138473856Y-91564995D01*
X138485693Y-91564062D01*
X138517951Y-91563048D01*
X138521970Y-91562922D01*
X138529889Y-91562673D01*
X138549343Y-91557021D01*
X138568700Y-91553013D01*
X138580930Y-91551468D01*
X138580931Y-91551468D01*
X138588797Y-91550474D01*
X138596168Y-91547555D01*
X138596170Y-91547555D01*
X138629912Y-91534196D01*
X138641142Y-91530351D01*
X138675983Y-91520229D01*
X138675984Y-91520229D01*
X138683593Y-91518018D01*
X138690412Y-91513985D01*
X138690417Y-91513983D01*
X138701028Y-91507707D01*
X138718776Y-91499012D01*
X138737617Y-91491552D01*
X138773387Y-91465564D01*
X138783307Y-91459048D01*
X138814535Y-91440580D01*
X138814538Y-91440578D01*
X138821362Y-91436542D01*
X138835683Y-91422221D01*
X138850717Y-91409380D01*
X138860694Y-91402131D01*
X138867107Y-91397472D01*
X138895298Y-91363395D01*
X138903288Y-91354616D01*
X140456240Y-89801665D01*
X140518552Y-89767639D01*
X140545335Y-89764760D01*
X149009304Y-89764760D01*
X149077425Y-89784762D01*
X149123918Y-89838418D01*
X149134022Y-89908692D01*
X149125713Y-89938978D01*
X149107169Y-89983746D01*
X149107167Y-89983752D01*
X149105277Y-89988315D01*
X149104125Y-89993115D01*
X149104123Y-89993120D01*
X149087297Y-90063206D01*
X149049865Y-90219119D01*
X149031242Y-90455750D01*
X149049865Y-90692381D01*
X149105277Y-90923185D01*
X149107167Y-90927748D01*
X149107169Y-90927754D01*
X149164037Y-91065046D01*
X149196111Y-91142480D01*
X149320133Y-91344865D01*
X149474288Y-91525357D01*
X149654780Y-91679512D01*
X149857165Y-91803534D01*
X149861735Y-91805427D01*
X149861739Y-91805429D01*
X150071891Y-91892476D01*
X150071897Y-91892478D01*
X150076460Y-91894368D01*
X150081260Y-91895520D01*
X150081265Y-91895522D01*
X150153633Y-91912896D01*
X150307264Y-91949780D01*
X150543895Y-91968403D01*
X150780526Y-91949780D01*
X150934157Y-91912896D01*
X151006525Y-91895522D01*
X151006530Y-91895520D01*
X151011330Y-91894368D01*
X151015893Y-91892478D01*
X151015899Y-91892476D01*
X151226051Y-91805429D01*
X151226055Y-91805427D01*
X151230625Y-91803534D01*
X151433010Y-91679512D01*
X151613502Y-91525357D01*
X151767657Y-91344865D01*
X151891679Y-91142480D01*
X151923753Y-91065046D01*
X151980621Y-90927754D01*
X151980623Y-90927748D01*
X151982513Y-90923185D01*
X152037925Y-90692381D01*
X152056548Y-90455750D01*
X152037925Y-90219119D01*
X152000493Y-90063206D01*
X151983667Y-89993120D01*
X151983665Y-89993115D01*
X151982513Y-89988315D01*
X151980623Y-89983752D01*
X151980621Y-89983746D01*
X151962077Y-89938978D01*
X151954488Y-89868388D01*
X151986267Y-89804901D01*
X152047325Y-89768674D01*
X152078486Y-89764760D01*
X155407210Y-89764760D01*
X155475331Y-89784762D01*
X155496306Y-89801665D01*
X155572355Y-89877715D01*
X155606380Y-89940028D01*
X155605777Y-89996225D01*
X155553422Y-90214298D01*
X155552265Y-90219119D01*
X155533642Y-90455750D01*
X155552265Y-90692381D01*
X155607677Y-90923185D01*
X155609567Y-90927748D01*
X155609569Y-90927754D01*
X155666437Y-91065046D01*
X155698511Y-91142480D01*
X155822533Y-91344865D01*
X155976688Y-91525357D01*
X156157180Y-91679512D01*
X156359565Y-91803534D01*
X156364135Y-91805427D01*
X156364139Y-91805429D01*
X156574291Y-91892476D01*
X156574297Y-91892478D01*
X156578860Y-91894368D01*
X156583660Y-91895520D01*
X156583665Y-91895522D01*
X156656033Y-91912896D01*
X156809664Y-91949780D01*
X157046295Y-91968403D01*
X157282926Y-91949780D01*
X157436557Y-91912896D01*
X157508925Y-91895522D01*
X157508930Y-91895520D01*
X157513730Y-91894368D01*
X157518293Y-91892478D01*
X157518299Y-91892476D01*
X157728451Y-91805429D01*
X157728455Y-91805427D01*
X157733025Y-91803534D01*
X157935410Y-91679512D01*
X158115902Y-91525357D01*
X158270057Y-91344865D01*
X158394079Y-91142480D01*
X158426153Y-91065046D01*
X158483021Y-90927754D01*
X158483023Y-90927748D01*
X158484913Y-90923185D01*
X158540325Y-90692381D01*
X158558948Y-90455750D01*
X158540325Y-90219119D01*
X158502893Y-90063206D01*
X158486067Y-89993120D01*
X158486065Y-89993115D01*
X158484913Y-89988315D01*
X158483023Y-89983752D01*
X158483021Y-89983746D01*
X158395974Y-89773594D01*
X158395972Y-89773590D01*
X158394079Y-89769020D01*
X158270057Y-89566635D01*
X158115902Y-89386143D01*
X157935410Y-89231988D01*
X157733025Y-89107966D01*
X157728455Y-89106073D01*
X157728451Y-89106071D01*
X157518299Y-89019024D01*
X157518293Y-89019022D01*
X157513730Y-89017132D01*
X157508930Y-89015980D01*
X157508925Y-89015978D01*
X157366601Y-88981809D01*
X157282926Y-88961720D01*
X157046295Y-88943097D01*
X156809664Y-88961720D01*
X156804855Y-88962874D01*
X156804852Y-88962875D01*
X156586768Y-89015233D01*
X156515860Y-89011686D01*
X156468259Y-88981809D01*
X156225457Y-88739007D01*
X156217917Y-88730721D01*
X156213805Y-88724242D01*
X156164153Y-88677616D01*
X156161312Y-88674862D01*
X156141575Y-88655125D01*
X156138378Y-88652645D01*
X156129356Y-88644940D01*
X156115927Y-88632329D01*
X156097126Y-88614674D01*
X156090180Y-88610855D01*
X156090177Y-88610853D01*
X156079371Y-88604912D01*
X156062852Y-88594061D01*
X156062388Y-88593701D01*
X156046846Y-88581646D01*
X156039577Y-88578501D01*
X156039573Y-88578498D01*
X156006268Y-88564086D01*
X155995618Y-88558869D01*
X155956865Y-88537565D01*
X155937242Y-88532527D01*
X155918539Y-88526123D01*
X155907225Y-88521227D01*
X155907224Y-88521227D01*
X155899950Y-88518079D01*
X155892127Y-88516840D01*
X155892117Y-88516837D01*
X155856281Y-88511161D01*
X155844661Y-88508755D01*
X155809516Y-88499732D01*
X155809515Y-88499732D01*
X155801835Y-88497760D01*
X155781581Y-88497760D01*
X155761870Y-88496209D01*
X155749691Y-88494280D01*
X155741862Y-88493040D01*
X155712591Y-88495807D01*
X155697844Y-88497201D01*
X155685986Y-88497760D01*
X140309507Y-88497760D01*
X140298324Y-88497233D01*
X140290831Y-88495558D01*
X140282905Y-88495807D01*
X140282904Y-88495807D01*
X140222741Y-88497698D01*
X140218783Y-88497760D01*
X140190884Y-88497760D01*
X140186894Y-88498264D01*
X140175060Y-88499196D01*
X140130851Y-88500586D01*
X140123237Y-88502798D01*
X140123232Y-88502799D01*
X140111399Y-88506237D01*
X140092036Y-88510248D01*
X140071943Y-88512786D01*
X140064576Y-88515703D01*
X140064571Y-88515704D01*
X140030832Y-88529062D01*
X140019605Y-88532906D01*
X139977147Y-88545242D01*
X139970321Y-88549279D01*
X139959712Y-88555553D01*
X139941964Y-88564248D01*
X139923123Y-88571708D01*
X139916707Y-88576370D01*
X139916706Y-88576370D01*
X139887353Y-88597696D01*
X139877433Y-88604212D01*
X139846205Y-88622680D01*
X139846202Y-88622682D01*
X139839378Y-88626718D01*
X139825057Y-88641039D01*
X139810024Y-88653879D01*
X139793633Y-88665788D01*
X139784957Y-88676276D01*
X139765442Y-88699865D01*
X139757452Y-88708644D01*
X138204500Y-90261595D01*
X138142188Y-90295621D01*
X138115405Y-90298500D01*
X119313359Y-90298500D01*
X119245238Y-90278498D01*
X119198745Y-90224842D01*
X119188641Y-90154568D01*
X119218135Y-90089988D01*
X119278549Y-90053262D01*
X119278071Y-90051791D01*
X119282783Y-90050260D01*
X119287594Y-90049105D01*
X119292167Y-90047211D01*
X119502389Y-89960135D01*
X119502393Y-89960133D01*
X119506963Y-89958240D01*
X119542761Y-89936303D01*
X119705202Y-89836759D01*
X119705208Y-89836755D01*
X119709416Y-89834176D01*
X119889969Y-89679969D01*
X120044176Y-89499416D01*
X120046755Y-89495208D01*
X120046759Y-89495202D01*
X120165654Y-89301183D01*
X120168240Y-89296963D01*
X120193824Y-89235199D01*
X120257211Y-89082167D01*
X120257212Y-89082165D01*
X120259105Y-89077594D01*
X120287017Y-88961332D01*
X120313380Y-88851524D01*
X120313381Y-88851518D01*
X120314535Y-88846711D01*
X120333165Y-88610000D01*
X120314535Y-88373289D01*
X120312969Y-88366763D01*
X120278360Y-88222609D01*
X120259105Y-88142406D01*
X120247478Y-88114335D01*
X120170135Y-87927611D01*
X120170133Y-87927607D01*
X120168240Y-87923037D01*
X120165654Y-87918817D01*
X120046759Y-87724798D01*
X120046755Y-87724792D01*
X120044176Y-87720584D01*
X119889969Y-87540031D01*
X119709416Y-87385824D01*
X119705208Y-87383245D01*
X119705202Y-87383241D01*
X119511183Y-87264346D01*
X119506963Y-87261760D01*
X119502393Y-87259867D01*
X119502389Y-87259865D01*
X119292167Y-87172789D01*
X119292165Y-87172788D01*
X119287594Y-87170895D01*
X119207391Y-87151640D01*
X119061524Y-87116620D01*
X119061518Y-87116619D01*
X119056711Y-87115465D01*
X118820000Y-87096835D01*
X118583289Y-87115465D01*
X118578482Y-87116619D01*
X118578476Y-87116620D01*
X118432609Y-87151640D01*
X118352406Y-87170895D01*
X118347835Y-87172788D01*
X118347833Y-87172789D01*
X118137611Y-87259865D01*
X118137607Y-87259867D01*
X118133037Y-87261760D01*
X118128817Y-87264346D01*
X117934798Y-87383241D01*
X117934792Y-87383245D01*
X117930584Y-87385824D01*
X117750031Y-87540031D01*
X117595824Y-87720584D01*
X117593245Y-87724792D01*
X117593241Y-87724798D01*
X117474346Y-87918817D01*
X117471760Y-87923037D01*
X117469867Y-87927607D01*
X117469865Y-87927611D01*
X117392522Y-88114335D01*
X117380895Y-88142406D01*
X117361640Y-88222609D01*
X117327032Y-88366763D01*
X117325465Y-88373289D01*
X117306835Y-88610000D01*
X117325465Y-88846711D01*
X117326619Y-88851518D01*
X117326620Y-88851524D01*
X117352983Y-88961332D01*
X117380895Y-89077594D01*
X117382788Y-89082165D01*
X117382789Y-89082167D01*
X117446177Y-89235199D01*
X117471760Y-89296963D01*
X117474346Y-89301183D01*
X117593241Y-89495202D01*
X117593245Y-89495208D01*
X117595824Y-89499416D01*
X117750031Y-89679969D01*
X117930584Y-89834176D01*
X117934792Y-89836755D01*
X117934798Y-89836759D01*
X118097239Y-89936303D01*
X118133037Y-89958240D01*
X118137607Y-89960133D01*
X118137611Y-89960135D01*
X118347833Y-90047211D01*
X118352406Y-90049105D01*
X118357217Y-90050260D01*
X118361929Y-90051791D01*
X118361501Y-90053108D01*
X118417623Y-90085332D01*
X118450307Y-90148358D01*
X118443727Y-90219050D01*
X118399973Y-90274961D01*
X118326641Y-90298500D01*
X112813359Y-90298500D01*
X112745238Y-90278498D01*
X112698745Y-90224842D01*
X112688641Y-90154568D01*
X112718135Y-90089988D01*
X112778549Y-90053262D01*
X112778071Y-90051791D01*
X112782783Y-90050260D01*
X112787594Y-90049105D01*
X112792167Y-90047211D01*
X113002389Y-89960135D01*
X113002393Y-89960133D01*
X113006963Y-89958240D01*
X113042761Y-89936303D01*
X113205202Y-89836759D01*
X113205208Y-89836755D01*
X113209416Y-89834176D01*
X113389969Y-89679969D01*
X113544176Y-89499416D01*
X113546755Y-89495208D01*
X113546759Y-89495202D01*
X113665654Y-89301183D01*
X113668240Y-89296963D01*
X113693824Y-89235199D01*
X113757211Y-89082167D01*
X113757212Y-89082165D01*
X113759105Y-89077594D01*
X113787017Y-88961332D01*
X113813380Y-88851524D01*
X113813381Y-88851518D01*
X113814535Y-88846711D01*
X113833165Y-88610000D01*
X113814535Y-88373289D01*
X113812969Y-88366763D01*
X113760940Y-88150049D01*
X113764487Y-88079141D01*
X113794364Y-88031540D01*
X115769434Y-86056470D01*
X149031242Y-86056470D01*
X149049865Y-86293101D01*
X149072064Y-86385563D01*
X149104085Y-86518938D01*
X149105277Y-86523905D01*
X149107167Y-86528468D01*
X149107169Y-86528474D01*
X149188828Y-86725617D01*
X149196111Y-86743200D01*
X149320133Y-86945585D01*
X149474288Y-87126077D01*
X149654780Y-87280232D01*
X149857165Y-87404254D01*
X149861735Y-87406147D01*
X149861739Y-87406149D01*
X150071891Y-87493196D01*
X150071897Y-87493198D01*
X150076460Y-87495088D01*
X150081260Y-87496240D01*
X150081265Y-87496242D01*
X150186680Y-87521550D01*
X150307264Y-87550500D01*
X150543895Y-87569123D01*
X150780526Y-87550500D01*
X150901110Y-87521550D01*
X151006525Y-87496242D01*
X151006530Y-87496240D01*
X151011330Y-87495088D01*
X151015893Y-87493198D01*
X151015899Y-87493196D01*
X151226051Y-87406149D01*
X151226055Y-87406147D01*
X151230625Y-87404254D01*
X151419079Y-87288769D01*
X156178826Y-87288769D01*
X156184553Y-87296419D01*
X156355573Y-87401220D01*
X156364367Y-87405701D01*
X156574442Y-87492717D01*
X156583827Y-87495766D01*
X156804929Y-87548849D01*
X156814676Y-87550392D01*
X157041365Y-87568233D01*
X157051225Y-87568233D01*
X157277914Y-87550392D01*
X157287661Y-87548849D01*
X157508763Y-87495766D01*
X157518148Y-87492717D01*
X157728223Y-87405701D01*
X157737017Y-87401220D01*
X157904371Y-87298666D01*
X157913831Y-87288210D01*
X157910047Y-87279432D01*
X157059107Y-86428492D01*
X157045163Y-86420878D01*
X157043330Y-86421009D01*
X157036715Y-86425260D01*
X156185586Y-87276389D01*
X156178826Y-87288769D01*
X151419079Y-87288769D01*
X151433010Y-87280232D01*
X151613502Y-87126077D01*
X151767657Y-86945585D01*
X151891679Y-86743200D01*
X151898962Y-86725617D01*
X151980621Y-86528474D01*
X151980623Y-86528468D01*
X151982513Y-86523905D01*
X151983706Y-86518938D01*
X152015726Y-86385563D01*
X152037925Y-86293101D01*
X152056160Y-86061400D01*
X155534532Y-86061400D01*
X155552373Y-86288089D01*
X155553916Y-86297836D01*
X155606999Y-86518938D01*
X155610048Y-86528323D01*
X155697064Y-86738398D01*
X155701545Y-86747192D01*
X155804099Y-86914546D01*
X155814555Y-86924006D01*
X155823333Y-86920222D01*
X156674273Y-86069282D01*
X156680651Y-86057602D01*
X157410703Y-86057602D01*
X157410834Y-86059435D01*
X157415085Y-86066050D01*
X158266214Y-86917179D01*
X158278594Y-86923939D01*
X158286244Y-86918212D01*
X158391045Y-86747192D01*
X158395526Y-86738398D01*
X158482542Y-86528323D01*
X158485591Y-86518938D01*
X158538674Y-86297836D01*
X158540217Y-86288089D01*
X158558058Y-86061400D01*
X158558058Y-86051540D01*
X158540217Y-85824851D01*
X158538674Y-85815104D01*
X158485591Y-85594002D01*
X158482542Y-85584617D01*
X158395526Y-85374542D01*
X158391045Y-85365748D01*
X158376903Y-85342670D01*
X201622160Y-85342670D01*
X201627887Y-85350320D01*
X201799042Y-85455205D01*
X201807837Y-85459687D01*
X202017988Y-85546734D01*
X202027373Y-85549783D01*
X202248554Y-85602885D01*
X202258301Y-85604428D01*
X202485070Y-85622275D01*
X202494930Y-85622275D01*
X202721699Y-85604428D01*
X202731446Y-85602885D01*
X202952627Y-85549783D01*
X202962012Y-85546734D01*
X203172163Y-85459687D01*
X203180958Y-85455205D01*
X203348445Y-85352568D01*
X203357400Y-85342670D01*
X208122160Y-85342670D01*
X208127887Y-85350320D01*
X208299042Y-85455205D01*
X208307837Y-85459687D01*
X208517988Y-85546734D01*
X208527373Y-85549783D01*
X208748554Y-85602885D01*
X208758301Y-85604428D01*
X208985070Y-85622275D01*
X208994930Y-85622275D01*
X209221699Y-85604428D01*
X209231446Y-85602885D01*
X209452627Y-85549783D01*
X209462012Y-85546734D01*
X209672163Y-85459687D01*
X209680958Y-85455205D01*
X209848445Y-85352568D01*
X209857907Y-85342110D01*
X209854124Y-85333334D01*
X209002812Y-84482022D01*
X208988868Y-84474408D01*
X208987035Y-84474539D01*
X208980420Y-84478790D01*
X208128920Y-85330290D01*
X208122160Y-85342670D01*
X203357400Y-85342670D01*
X203357907Y-85342110D01*
X203354124Y-85333334D01*
X202502812Y-84482022D01*
X202488868Y-84474408D01*
X202487035Y-84474539D01*
X202480420Y-84478790D01*
X201628920Y-85330290D01*
X201622160Y-85342670D01*
X158376903Y-85342670D01*
X158288491Y-85198394D01*
X158278035Y-85188934D01*
X158269257Y-85192718D01*
X157418317Y-86043658D01*
X157410703Y-86057602D01*
X156680651Y-86057602D01*
X156681887Y-86055338D01*
X156681756Y-86053505D01*
X156677505Y-86046890D01*
X155826376Y-85195761D01*
X155813996Y-85189001D01*
X155806346Y-85194728D01*
X155701545Y-85365748D01*
X155697064Y-85374542D01*
X155610048Y-85584617D01*
X155606999Y-85594002D01*
X155553916Y-85815104D01*
X155552373Y-85824851D01*
X155534532Y-86051540D01*
X155534532Y-86061400D01*
X152056160Y-86061400D01*
X152056548Y-86056470D01*
X152037925Y-85819839D01*
X151991057Y-85624623D01*
X151983667Y-85593840D01*
X151983665Y-85593835D01*
X151982513Y-85589035D01*
X151980623Y-85584472D01*
X151980621Y-85584466D01*
X151893574Y-85374314D01*
X151893572Y-85374310D01*
X151891679Y-85369740D01*
X151767657Y-85167355D01*
X151613502Y-84986863D01*
X151433010Y-84832708D01*
X151419991Y-84824730D01*
X156178759Y-84824730D01*
X156182543Y-84833508D01*
X157033483Y-85684448D01*
X157047427Y-85692062D01*
X157049260Y-85691931D01*
X157055875Y-85687680D01*
X157907004Y-84836551D01*
X157913764Y-84824171D01*
X157908037Y-84816521D01*
X157737017Y-84711720D01*
X157728223Y-84707239D01*
X157518148Y-84620223D01*
X157508763Y-84617174D01*
X157287661Y-84564091D01*
X157277914Y-84562548D01*
X157051225Y-84544707D01*
X157041365Y-84544707D01*
X156814676Y-84562548D01*
X156804929Y-84564091D01*
X156583827Y-84617174D01*
X156574442Y-84620223D01*
X156364367Y-84707239D01*
X156355573Y-84711720D01*
X156188219Y-84814274D01*
X156178759Y-84824730D01*
X151419991Y-84824730D01*
X151230625Y-84708686D01*
X151226055Y-84706793D01*
X151226051Y-84706791D01*
X151015899Y-84619744D01*
X151015893Y-84619742D01*
X151011330Y-84617852D01*
X151006530Y-84616700D01*
X151006525Y-84616698D01*
X150886319Y-84587839D01*
X150780526Y-84562440D01*
X150543895Y-84543817D01*
X150307264Y-84562440D01*
X150201471Y-84587839D01*
X150081265Y-84616698D01*
X150081260Y-84616700D01*
X150076460Y-84617852D01*
X150071897Y-84619742D01*
X150071891Y-84619744D01*
X149861739Y-84706791D01*
X149861735Y-84706793D01*
X149857165Y-84708686D01*
X149654780Y-84832708D01*
X149474288Y-84986863D01*
X149320133Y-85167355D01*
X149196111Y-85369740D01*
X149194218Y-85374310D01*
X149194216Y-85374314D01*
X149107169Y-85584466D01*
X149107167Y-85584472D01*
X149105277Y-85589035D01*
X149104125Y-85593835D01*
X149104123Y-85593840D01*
X149096733Y-85624623D01*
X149049865Y-85819839D01*
X149031242Y-86056470D01*
X115769434Y-86056470D01*
X116483234Y-85342670D01*
X117952160Y-85342670D01*
X117957887Y-85350320D01*
X118129042Y-85455205D01*
X118137837Y-85459687D01*
X118347988Y-85546734D01*
X118357373Y-85549783D01*
X118578554Y-85602885D01*
X118588301Y-85604428D01*
X118815070Y-85622275D01*
X118824930Y-85622275D01*
X119051699Y-85604428D01*
X119061446Y-85602885D01*
X119282627Y-85549783D01*
X119292012Y-85546734D01*
X119502163Y-85459687D01*
X119510958Y-85455205D01*
X119678445Y-85352568D01*
X119687907Y-85342110D01*
X119684124Y-85333334D01*
X118832812Y-84482022D01*
X118818868Y-84474408D01*
X118817035Y-84474539D01*
X118810420Y-84478790D01*
X117958920Y-85330290D01*
X117952160Y-85342670D01*
X116483234Y-85342670D01*
X117209104Y-84616800D01*
X117271416Y-84582774D01*
X117342231Y-84587839D01*
X117399067Y-84630386D01*
X117414608Y-84657677D01*
X117470313Y-84792163D01*
X117474795Y-84800958D01*
X117577432Y-84968445D01*
X117587890Y-84977907D01*
X117596666Y-84974124D01*
X118459658Y-84111132D01*
X119184408Y-84111132D01*
X119184539Y-84112965D01*
X119188790Y-84119580D01*
X120040290Y-84971080D01*
X120052670Y-84977840D01*
X120060320Y-84972113D01*
X120165205Y-84800958D01*
X120169687Y-84792163D01*
X120256734Y-84582012D01*
X120259783Y-84572627D01*
X120312885Y-84351446D01*
X120314428Y-84341699D01*
X120332275Y-84114930D01*
X200977725Y-84114930D01*
X200995572Y-84341699D01*
X200997115Y-84351446D01*
X201050217Y-84572627D01*
X201053266Y-84582012D01*
X201140313Y-84792163D01*
X201144795Y-84800958D01*
X201247432Y-84968445D01*
X201257890Y-84977907D01*
X201266666Y-84974124D01*
X202117978Y-84122812D01*
X202124356Y-84111132D01*
X202854408Y-84111132D01*
X202854539Y-84112965D01*
X202858790Y-84119580D01*
X203710290Y-84971080D01*
X203722670Y-84977840D01*
X203730320Y-84972113D01*
X203835205Y-84800958D01*
X203839687Y-84792163D01*
X203926734Y-84582012D01*
X203929783Y-84572627D01*
X203982885Y-84351446D01*
X203984428Y-84341699D01*
X204002275Y-84114930D01*
X207477725Y-84114930D01*
X207495572Y-84341699D01*
X207497115Y-84351446D01*
X207550217Y-84572627D01*
X207553266Y-84582012D01*
X207640313Y-84792163D01*
X207644795Y-84800958D01*
X207747432Y-84968445D01*
X207757890Y-84977907D01*
X207766666Y-84974124D01*
X208617978Y-84122812D01*
X208624356Y-84111132D01*
X209354408Y-84111132D01*
X209354539Y-84112965D01*
X209358790Y-84119580D01*
X210210290Y-84971080D01*
X210222670Y-84977840D01*
X210230320Y-84972113D01*
X210335205Y-84800958D01*
X210339687Y-84792163D01*
X210426734Y-84582012D01*
X210429783Y-84572627D01*
X210482885Y-84351446D01*
X210484428Y-84341699D01*
X210502275Y-84114930D01*
X210502275Y-84105070D01*
X210484428Y-83878301D01*
X210482885Y-83868554D01*
X210429783Y-83647373D01*
X210426734Y-83637988D01*
X210339687Y-83427837D01*
X210335205Y-83419042D01*
X210232568Y-83251555D01*
X210222110Y-83242093D01*
X210213334Y-83245876D01*
X209362022Y-84097188D01*
X209354408Y-84111132D01*
X208624356Y-84111132D01*
X208625592Y-84108868D01*
X208625461Y-84107035D01*
X208621210Y-84100420D01*
X207769710Y-83248920D01*
X207757330Y-83242160D01*
X207749680Y-83247887D01*
X207644795Y-83419042D01*
X207640313Y-83427837D01*
X207553266Y-83637988D01*
X207550217Y-83647373D01*
X207497115Y-83868554D01*
X207495572Y-83878301D01*
X207477725Y-84105070D01*
X207477725Y-84114930D01*
X204002275Y-84114930D01*
X204002275Y-84105070D01*
X203984428Y-83878301D01*
X203982885Y-83868554D01*
X203929783Y-83647373D01*
X203926734Y-83637988D01*
X203839687Y-83427837D01*
X203835205Y-83419042D01*
X203732568Y-83251555D01*
X203722110Y-83242093D01*
X203713334Y-83245876D01*
X202862022Y-84097188D01*
X202854408Y-84111132D01*
X202124356Y-84111132D01*
X202125592Y-84108868D01*
X202125461Y-84107035D01*
X202121210Y-84100420D01*
X201269710Y-83248920D01*
X201257330Y-83242160D01*
X201249680Y-83247887D01*
X201144795Y-83419042D01*
X201140313Y-83427837D01*
X201053266Y-83637988D01*
X201050217Y-83647373D01*
X200997115Y-83868554D01*
X200995572Y-83878301D01*
X200977725Y-84105070D01*
X200977725Y-84114930D01*
X120332275Y-84114930D01*
X120332275Y-84105070D01*
X120314428Y-83878301D01*
X120312885Y-83868554D01*
X120259783Y-83647373D01*
X120256734Y-83637988D01*
X120169687Y-83427837D01*
X120165205Y-83419042D01*
X120062568Y-83251555D01*
X120052110Y-83242093D01*
X120043334Y-83245876D01*
X119192022Y-84097188D01*
X119184408Y-84111132D01*
X118459658Y-84111132D01*
X119681080Y-82889710D01*
X119687534Y-82877890D01*
X201622093Y-82877890D01*
X201625876Y-82886666D01*
X202477188Y-83737978D01*
X202491132Y-83745592D01*
X202492965Y-83745461D01*
X202499580Y-83741210D01*
X203351080Y-82889710D01*
X203357534Y-82877890D01*
X208122093Y-82877890D01*
X208125876Y-82886666D01*
X208977188Y-83737978D01*
X208991132Y-83745592D01*
X208992965Y-83745461D01*
X208999580Y-83741210D01*
X209851080Y-82889710D01*
X209857840Y-82877330D01*
X209852113Y-82869680D01*
X209680958Y-82764795D01*
X209672163Y-82760313D01*
X209462012Y-82673266D01*
X209452627Y-82670217D01*
X209231446Y-82617115D01*
X209221699Y-82615572D01*
X208994930Y-82597725D01*
X208985070Y-82597725D01*
X208758301Y-82615572D01*
X208748554Y-82617115D01*
X208527373Y-82670217D01*
X208517988Y-82673266D01*
X208307837Y-82760313D01*
X208299042Y-82764795D01*
X208131555Y-82867432D01*
X208122093Y-82877890D01*
X203357534Y-82877890D01*
X203357840Y-82877330D01*
X203352113Y-82869680D01*
X203180958Y-82764795D01*
X203172163Y-82760313D01*
X202962012Y-82673266D01*
X202952627Y-82670217D01*
X202731446Y-82617115D01*
X202721699Y-82615572D01*
X202494930Y-82597725D01*
X202485070Y-82597725D01*
X202258301Y-82615572D01*
X202248554Y-82617115D01*
X202027373Y-82670217D01*
X202017988Y-82673266D01*
X201807837Y-82760313D01*
X201799042Y-82764795D01*
X201631555Y-82867432D01*
X201622093Y-82877890D01*
X119687534Y-82877890D01*
X119687840Y-82877330D01*
X119682113Y-82869680D01*
X119510958Y-82764795D01*
X119502163Y-82760313D01*
X119367677Y-82704608D01*
X119312396Y-82660060D01*
X119289975Y-82592697D01*
X119307533Y-82523905D01*
X119326798Y-82499107D01*
X123074253Y-78751652D01*
X123082539Y-78744112D01*
X123089018Y-78740000D01*
X123135644Y-78690348D01*
X123138398Y-78687507D01*
X123158135Y-78667770D01*
X123160615Y-78664573D01*
X123168320Y-78655551D01*
X123193159Y-78629100D01*
X123198586Y-78623321D01*
X123202405Y-78616375D01*
X123202407Y-78616372D01*
X123208348Y-78605566D01*
X123219199Y-78589047D01*
X123226758Y-78579301D01*
X123231614Y-78573041D01*
X123234759Y-78565772D01*
X123234762Y-78565768D01*
X123249174Y-78532463D01*
X123254391Y-78521813D01*
X123275695Y-78483060D01*
X123280733Y-78463437D01*
X123287137Y-78444734D01*
X123292033Y-78433420D01*
X123292033Y-78433419D01*
X123295181Y-78426145D01*
X123296420Y-78418322D01*
X123296423Y-78418312D01*
X123302099Y-78382476D01*
X123304505Y-78370856D01*
X123313528Y-78335711D01*
X123313528Y-78335710D01*
X123315500Y-78328030D01*
X123315500Y-78307776D01*
X123317051Y-78288065D01*
X123318980Y-78275886D01*
X123320220Y-78268057D01*
X123316059Y-78224038D01*
X123315500Y-78212181D01*
X123315500Y-70236850D01*
X152566725Y-70236850D01*
X152567284Y-70241094D01*
X152567284Y-70241098D01*
X152570905Y-70268601D01*
X152605140Y-70528640D01*
X152606273Y-70532780D01*
X152606273Y-70532782D01*
X152659689Y-70728038D01*
X152682800Y-70812517D01*
X152684485Y-70816467D01*
X152796586Y-71079286D01*
X152796590Y-71079293D01*
X152798268Y-71083228D01*
X152949408Y-71335764D01*
X153133422Y-71565451D01*
X153136524Y-71568395D01*
X153136528Y-71568399D01*
X153343796Y-71765089D01*
X153346905Y-71768039D01*
X153585908Y-71939780D01*
X153846007Y-72077496D01*
X154122390Y-72178638D01*
X154409943Y-72241334D01*
X154442519Y-72243898D01*
X154638309Y-72259307D01*
X154638318Y-72259307D01*
X154640766Y-72259500D01*
X154799990Y-72259500D01*
X154802126Y-72259354D01*
X154802137Y-72259354D01*
X155015350Y-72244819D01*
X155015356Y-72244818D01*
X155019627Y-72244527D01*
X155023822Y-72243658D01*
X155023824Y-72243658D01*
X155223253Y-72202358D01*
X155307820Y-72184845D01*
X155585247Y-72086603D01*
X155846774Y-71951618D01*
X155850275Y-71949157D01*
X155850279Y-71949155D01*
X156084052Y-71784856D01*
X156084053Y-71784855D01*
X156087562Y-71782389D01*
X156303156Y-71582048D01*
X156316741Y-71565451D01*
X156449585Y-71403146D01*
X156489565Y-71354300D01*
X156643340Y-71103361D01*
X156645068Y-71099425D01*
X156759913Y-70837802D01*
X156759914Y-70837798D01*
X156761637Y-70833874D01*
X156842265Y-70550826D01*
X156843109Y-70544901D01*
X156883129Y-70263705D01*
X156883734Y-70259454D01*
X156884588Y-70096271D01*
X156885253Y-69969436D01*
X156885253Y-69969430D01*
X156885275Y-69965150D01*
X156881740Y-69938295D01*
X156867790Y-69832341D01*
X156846860Y-69673360D01*
X156836234Y-69634516D01*
X156770334Y-69393628D01*
X156770334Y-69393627D01*
X156769200Y-69389483D01*
X156719861Y-69273810D01*
X156655414Y-69122714D01*
X156655410Y-69122707D01*
X156653732Y-69118772D01*
X156515947Y-68888550D01*
X156504796Y-68869918D01*
X156504793Y-68869914D01*
X156502592Y-68866236D01*
X156318578Y-68636549D01*
X156315476Y-68633605D01*
X156315472Y-68633601D01*
X156108204Y-68436911D01*
X156108201Y-68436909D01*
X156105095Y-68433961D01*
X155866092Y-68262220D01*
X155605993Y-68124504D01*
X155329610Y-68023362D01*
X155042057Y-67960666D01*
X155001486Y-67957473D01*
X154813691Y-67942693D01*
X154813682Y-67942693D01*
X154811234Y-67942500D01*
X154652010Y-67942500D01*
X154649874Y-67942646D01*
X154649863Y-67942646D01*
X154436650Y-67957181D01*
X154436644Y-67957182D01*
X154432373Y-67957473D01*
X154428178Y-67958342D01*
X154428176Y-67958342D01*
X154288277Y-67987314D01*
X154144180Y-68017155D01*
X153866753Y-68115397D01*
X153862944Y-68117363D01*
X153693243Y-68204953D01*
X153605226Y-68250382D01*
X153601725Y-68252843D01*
X153601721Y-68252845D01*
X153373164Y-68413478D01*
X153364438Y-68419611D01*
X153148844Y-68619952D01*
X153146130Y-68623268D01*
X153146128Y-68623270D01*
X153094486Y-68686365D01*
X152962435Y-68847700D01*
X152808660Y-69098639D01*
X152806933Y-69102572D01*
X152806932Y-69102575D01*
X152699426Y-69347481D01*
X152690363Y-69368126D01*
X152609735Y-69651174D01*
X152609131Y-69655416D01*
X152609130Y-69655422D01*
X152581306Y-69850921D01*
X152568266Y-69942546D01*
X152567462Y-70096070D01*
X152567112Y-70163024D01*
X152566725Y-70236850D01*
X123315500Y-70236850D01*
X123315500Y-64340767D01*
X123316027Y-64329584D01*
X123317702Y-64322091D01*
X123317386Y-64312020D01*
X123315562Y-64254014D01*
X123315500Y-64250055D01*
X123315500Y-64222144D01*
X123314995Y-64218144D01*
X123314062Y-64206301D01*
X123312922Y-64170029D01*
X123312673Y-64162110D01*
X123307022Y-64142658D01*
X123303014Y-64123306D01*
X123301467Y-64111063D01*
X123300474Y-64103203D01*
X123297522Y-64095747D01*
X123284200Y-64062097D01*
X123280355Y-64050870D01*
X123275557Y-64034357D01*
X123268018Y-64008407D01*
X123263984Y-64001585D01*
X123263981Y-64001579D01*
X123257706Y-63990968D01*
X123249010Y-63973218D01*
X123244472Y-63961756D01*
X123244469Y-63961751D01*
X123241552Y-63954383D01*
X123228064Y-63935818D01*
X123215573Y-63918625D01*
X123209057Y-63908707D01*
X123190575Y-63877457D01*
X123186542Y-63870637D01*
X123172218Y-63856313D01*
X123159376Y-63841278D01*
X123154450Y-63834498D01*
X123147472Y-63824893D01*
X123113406Y-63796711D01*
X123104627Y-63788722D01*
X118792652Y-59476747D01*
X118785112Y-59468461D01*
X118781000Y-59461982D01*
X118731348Y-59415356D01*
X118728507Y-59412602D01*
X118708770Y-59392865D01*
X118705573Y-59390385D01*
X118696551Y-59382680D01*
X118664321Y-59352414D01*
X118657375Y-59348595D01*
X118657372Y-59348593D01*
X118646566Y-59342652D01*
X118630047Y-59331801D01*
X118622618Y-59326039D01*
X118614041Y-59319386D01*
X118606772Y-59316241D01*
X118606768Y-59316238D01*
X118573463Y-59301826D01*
X118562813Y-59296609D01*
X118524060Y-59275305D01*
X118504437Y-59270267D01*
X118485734Y-59263863D01*
X118474420Y-59258967D01*
X118474419Y-59258967D01*
X118467145Y-59255819D01*
X118459322Y-59254580D01*
X118459312Y-59254577D01*
X118423476Y-59248901D01*
X118411856Y-59246495D01*
X118376711Y-59237472D01*
X118376710Y-59237472D01*
X118369030Y-59235500D01*
X118348776Y-59235500D01*
X118329065Y-59233949D01*
X118316886Y-59232020D01*
X118309057Y-59230780D01*
X118301165Y-59231526D01*
X118265039Y-59234941D01*
X118253181Y-59235500D01*
X114425681Y-59235500D01*
X114357560Y-59215498D01*
X114311067Y-59161842D01*
X114308242Y-59153974D01*
X114307903Y-59154104D01*
X114305535Y-59147935D01*
X114303827Y-59141561D01*
X114217122Y-58971392D01*
X114132580Y-58866991D01*
X114101082Y-58828095D01*
X114101081Y-58828094D01*
X114096931Y-58822969D01*
X113948508Y-58702778D01*
X113948500Y-58702774D01*
X113903858Y-58650750D01*
X113894092Y-58580428D01*
X113923896Y-58515990D01*
X113947176Y-58495819D01*
X113948530Y-58495129D01*
X114096945Y-58374945D01*
X114132524Y-58331009D01*
X114212973Y-58231663D01*
X114212976Y-58231659D01*
X114217129Y-58226530D01*
X114303829Y-58056371D01*
X114305539Y-58049989D01*
X114307321Y-58045347D01*
X114350407Y-57988918D01*
X114417160Y-57964741D01*
X114424953Y-57964500D01*
X131435578Y-57964500D01*
X131503699Y-57984502D01*
X131524673Y-58001405D01*
X140210750Y-66687483D01*
X140218326Y-66695809D01*
X140222447Y-66702303D01*
X140228222Y-66707726D01*
X140272265Y-66749085D01*
X140275107Y-66751840D01*
X140294906Y-66771639D01*
X140298037Y-66774068D01*
X140298042Y-66774072D01*
X140298128Y-66774139D01*
X140307153Y-66781847D01*
X140328195Y-66801607D01*
X140339494Y-66812217D01*
X140346439Y-66816035D01*
X140346443Y-66816038D01*
X140357334Y-66822026D01*
X140373855Y-66832878D01*
X140389934Y-66845350D01*
X140430655Y-66862971D01*
X140441311Y-66868192D01*
X140473245Y-66885748D01*
X140473251Y-66885750D01*
X140480197Y-66889569D01*
X140487872Y-66891540D01*
X140487878Y-66891542D01*
X140499911Y-66894631D01*
X140518613Y-66901034D01*
X140537292Y-66909117D01*
X140545118Y-66910357D01*
X140545123Y-66910358D01*
X140581120Y-66916060D01*
X140592740Y-66918466D01*
X140628037Y-66927528D01*
X140635718Y-66929500D01*
X140656066Y-66929500D01*
X140675778Y-66931051D01*
X140695880Y-66934235D01*
X140740055Y-66930059D01*
X140751914Y-66929500D01*
X169102578Y-66929500D01*
X169170699Y-66949502D01*
X169191673Y-66966405D01*
X183136750Y-80911483D01*
X183144326Y-80919809D01*
X183148447Y-80926303D01*
X183154222Y-80931726D01*
X183198265Y-80973085D01*
X183201107Y-80975840D01*
X183220906Y-80995639D01*
X183224031Y-80998063D01*
X183224040Y-80998071D01*
X183224126Y-80998137D01*
X183233151Y-81005845D01*
X183265494Y-81036217D01*
X183272438Y-81040035D01*
X183272440Y-81040036D01*
X183283329Y-81046022D01*
X183299847Y-81056873D01*
X183315933Y-81069350D01*
X183356666Y-81086976D01*
X183367314Y-81092193D01*
X183378942Y-81098585D01*
X183406197Y-81113569D01*
X183413872Y-81115540D01*
X183413878Y-81115542D01*
X183425911Y-81118631D01*
X183444613Y-81125034D01*
X183463292Y-81133117D01*
X183496818Y-81138427D01*
X183507127Y-81140060D01*
X183518740Y-81142465D01*
X183561718Y-81153500D01*
X183582065Y-81153500D01*
X183601777Y-81155051D01*
X183621879Y-81158235D01*
X183629771Y-81157489D01*
X183666056Y-81154059D01*
X183677914Y-81153500D01*
X200580980Y-81153500D01*
X200592214Y-81154030D01*
X200599719Y-81155708D01*
X200668012Y-81153562D01*
X200671969Y-81153500D01*
X200699983Y-81153500D01*
X200703908Y-81153004D01*
X200703909Y-81153004D01*
X200704004Y-81152992D01*
X200715849Y-81152059D01*
X200745670Y-81151122D01*
X200752282Y-81150914D01*
X200752283Y-81150914D01*
X200760205Y-81150665D01*
X200779749Y-81144987D01*
X200799112Y-81140977D01*
X200811440Y-81139420D01*
X200811442Y-81139420D01*
X200819299Y-81138427D01*
X200826663Y-81135511D01*
X200826668Y-81135510D01*
X200860556Y-81122093D01*
X200871785Y-81118248D01*
X200888465Y-81113402D01*
X200914393Y-81105869D01*
X200921220Y-81101831D01*
X200921223Y-81101830D01*
X200931906Y-81095512D01*
X200949664Y-81086812D01*
X200961215Y-81082239D01*
X200961221Y-81082235D01*
X200968588Y-81079319D01*
X200977977Y-81072498D01*
X201004488Y-81053236D01*
X201014410Y-81046719D01*
X201045768Y-81028174D01*
X201045772Y-81028171D01*
X201052598Y-81024134D01*
X201066982Y-81009750D01*
X201082016Y-80996909D01*
X201092073Y-80989602D01*
X201098487Y-80984942D01*
X201126778Y-80950744D01*
X201134767Y-80941965D01*
X203609037Y-78467695D01*
X211743251Y-78467695D01*
X211743548Y-78472848D01*
X211743548Y-78472851D01*
X211748906Y-78565768D01*
X211756110Y-78690715D01*
X211757247Y-78695761D01*
X211757248Y-78695767D01*
X211769843Y-78751652D01*
X211805222Y-78908639D01*
X211889266Y-79115616D01*
X212005987Y-79306088D01*
X212152250Y-79474938D01*
X212324126Y-79617632D01*
X212517000Y-79730338D01*
X212725692Y-79810030D01*
X212730760Y-79811061D01*
X212730763Y-79811062D01*
X212838017Y-79832883D01*
X212944597Y-79854567D01*
X212949772Y-79854757D01*
X212949774Y-79854757D01*
X213162673Y-79862564D01*
X213162677Y-79862564D01*
X213167837Y-79862753D01*
X213172957Y-79862097D01*
X213172959Y-79862097D01*
X213384288Y-79835025D01*
X213384289Y-79835025D01*
X213389416Y-79834368D01*
X213394366Y-79832883D01*
X213598429Y-79771661D01*
X213598434Y-79771659D01*
X213603384Y-79770174D01*
X213803994Y-79671896D01*
X213985860Y-79542173D01*
X214144096Y-79384489D01*
X214203594Y-79301689D01*
X214271435Y-79207277D01*
X214274453Y-79203077D01*
X214373430Y-79002811D01*
X214438370Y-78789069D01*
X214467529Y-78567590D01*
X214468484Y-78528500D01*
X214469074Y-78504365D01*
X214469074Y-78504361D01*
X214469156Y-78501000D01*
X214450852Y-78278361D01*
X214396431Y-78061702D01*
X214307354Y-77856840D01*
X214186014Y-77669277D01*
X214035670Y-77504051D01*
X214031619Y-77500852D01*
X214031615Y-77500848D01*
X213864414Y-77368800D01*
X213864410Y-77368798D01*
X213860359Y-77365598D01*
X213819053Y-77342796D01*
X213769084Y-77292364D01*
X213754312Y-77222921D01*
X213779428Y-77156516D01*
X213806780Y-77129909D01*
X213862932Y-77089856D01*
X213985860Y-77002173D01*
X214021809Y-76966350D01*
X214140435Y-76848137D01*
X214144096Y-76844489D01*
X214168870Y-76810013D01*
X214271435Y-76667277D01*
X214274453Y-76663077D01*
X214280407Y-76651031D01*
X214371136Y-76467453D01*
X214371137Y-76467451D01*
X214373430Y-76462811D01*
X214438370Y-76249069D01*
X214467529Y-76027590D01*
X214469156Y-75961000D01*
X214450852Y-75738361D01*
X214396431Y-75521702D01*
X214307354Y-75316840D01*
X214246323Y-75222500D01*
X214188822Y-75133617D01*
X214188820Y-75133614D01*
X214186014Y-75129277D01*
X214172469Y-75114391D01*
X214038798Y-74967488D01*
X214007746Y-74903642D01*
X214016141Y-74833143D01*
X214061317Y-74778375D01*
X214087761Y-74764706D01*
X214194297Y-74724767D01*
X214202705Y-74721615D01*
X214319261Y-74634261D01*
X214406615Y-74517705D01*
X214457745Y-74381316D01*
X214464500Y-74319134D01*
X214464500Y-72522866D01*
X214457745Y-72460684D01*
X214406615Y-72324295D01*
X214319261Y-72207739D01*
X214202705Y-72120385D01*
X214066316Y-72069255D01*
X214004134Y-72062500D01*
X212207866Y-72062500D01*
X212145684Y-72069255D01*
X212009295Y-72120385D01*
X211892739Y-72207739D01*
X211805385Y-72324295D01*
X211754255Y-72460684D01*
X211747500Y-72522866D01*
X211747500Y-74319134D01*
X211754255Y-74381316D01*
X211805385Y-74517705D01*
X211892739Y-74634261D01*
X212009295Y-74721615D01*
X212017704Y-74724767D01*
X212017705Y-74724768D01*
X212126451Y-74765535D01*
X212183216Y-74808176D01*
X212207916Y-74874738D01*
X212192709Y-74944087D01*
X212173316Y-74970568D01*
X212054497Y-75094905D01*
X212046629Y-75103138D01*
X212043715Y-75107410D01*
X212043714Y-75107411D01*
X211977317Y-75204746D01*
X211920743Y-75287680D01*
X211883656Y-75367578D01*
X211844097Y-75452801D01*
X211826688Y-75490305D01*
X211766989Y-75705570D01*
X211743251Y-75927695D01*
X211743548Y-75932848D01*
X211743548Y-75932851D01*
X211749011Y-76027590D01*
X211756110Y-76150715D01*
X211757247Y-76155761D01*
X211757248Y-76155767D01*
X211771859Y-76220598D01*
X211805222Y-76368639D01*
X211889266Y-76575616D01*
X211931837Y-76645086D01*
X211991532Y-76742499D01*
X212005987Y-76766088D01*
X212152250Y-76934938D01*
X212324126Y-77077632D01*
X212372265Y-77105762D01*
X212397445Y-77120476D01*
X212446169Y-77172114D01*
X212459240Y-77241897D01*
X212432509Y-77307669D01*
X212392055Y-77341027D01*
X212379607Y-77347507D01*
X212375474Y-77350610D01*
X212375471Y-77350612D01*
X212225309Y-77463357D01*
X212200965Y-77481635D01*
X212197393Y-77485373D01*
X212098968Y-77588369D01*
X212046629Y-77643138D01*
X212043715Y-77647410D01*
X212043714Y-77647411D01*
X212031404Y-77665457D01*
X211920743Y-77827680D01*
X211905912Y-77859631D01*
X211844097Y-77992801D01*
X211826688Y-78030305D01*
X211766989Y-78245570D01*
X211743251Y-78467695D01*
X203609037Y-78467695D01*
X204890477Y-77186255D01*
X204898803Y-77178678D01*
X204905303Y-77174553D01*
X204952101Y-77124718D01*
X204954855Y-77121877D01*
X204974638Y-77102094D01*
X204977129Y-77098883D01*
X204984838Y-77089856D01*
X205005361Y-77068001D01*
X205015217Y-77057506D01*
X205025022Y-77039671D01*
X205035876Y-77023147D01*
X205043491Y-77013330D01*
X205043492Y-77013329D01*
X205048349Y-77007067D01*
X205065969Y-76966350D01*
X205071192Y-76955689D01*
X205088749Y-76923753D01*
X205088751Y-76923748D01*
X205092569Y-76916803D01*
X205094539Y-76909129D01*
X205094542Y-76909122D01*
X205097632Y-76897087D01*
X205104036Y-76878382D01*
X205108967Y-76866987D01*
X205112117Y-76859708D01*
X205119060Y-76815873D01*
X205121467Y-76804251D01*
X205130264Y-76769990D01*
X205132500Y-76761282D01*
X205132500Y-76740935D01*
X205134051Y-76721224D01*
X205135995Y-76708950D01*
X205137235Y-76701121D01*
X205134036Y-76667277D01*
X205133059Y-76656944D01*
X205132500Y-76645086D01*
X205132500Y-75225735D01*
X205152502Y-75157614D01*
X205193171Y-75118289D01*
X205194994Y-75117396D01*
X205376860Y-74987673D01*
X205403923Y-74960705D01*
X205490190Y-74874738D01*
X205535096Y-74829989D01*
X205539173Y-74824316D01*
X205662435Y-74652777D01*
X205665453Y-74648577D01*
X205672529Y-74634261D01*
X205762136Y-74452953D01*
X205762137Y-74452951D01*
X205764430Y-74448311D01*
X205829370Y-74234569D01*
X205858529Y-74013090D01*
X205860156Y-73946500D01*
X205841852Y-73723861D01*
X205787431Y-73507202D01*
X205698354Y-73302340D01*
X205577014Y-73114777D01*
X205426670Y-72949551D01*
X205422619Y-72946352D01*
X205422615Y-72946348D01*
X205255414Y-72814300D01*
X205255410Y-72814298D01*
X205251359Y-72811098D01*
X205210053Y-72788296D01*
X205160084Y-72737864D01*
X205145312Y-72668421D01*
X205170428Y-72602016D01*
X205197780Y-72575409D01*
X205266652Y-72526283D01*
X205376860Y-72447673D01*
X205401323Y-72423296D01*
X205531435Y-72293637D01*
X205535096Y-72289989D01*
X205557005Y-72259500D01*
X205662435Y-72112777D01*
X205665453Y-72108577D01*
X205686320Y-72066357D01*
X205762136Y-71912953D01*
X205762137Y-71912951D01*
X205764430Y-71908311D01*
X205803575Y-71779470D01*
X205827865Y-71699523D01*
X205827865Y-71699521D01*
X205829370Y-71694569D01*
X205858529Y-71473090D01*
X205858611Y-71469740D01*
X205860074Y-71409865D01*
X205860074Y-71409861D01*
X205860156Y-71406500D01*
X205841852Y-71183861D01*
X205787431Y-70967202D01*
X205698354Y-70762340D01*
X205658906Y-70701362D01*
X205579822Y-70579117D01*
X205579820Y-70579114D01*
X205577014Y-70574777D01*
X205426670Y-70409551D01*
X205422619Y-70406352D01*
X205422615Y-70406348D01*
X205255414Y-70274300D01*
X205255410Y-70274298D01*
X205251359Y-70271098D01*
X205055789Y-70163138D01*
X205050920Y-70161414D01*
X205050916Y-70161412D01*
X204850087Y-70090295D01*
X204850083Y-70090294D01*
X204845212Y-70088569D01*
X204840119Y-70087662D01*
X204840116Y-70087661D01*
X204630373Y-70050300D01*
X204630367Y-70050299D01*
X204625284Y-70049394D01*
X204551452Y-70048492D01*
X204407081Y-70046728D01*
X204407079Y-70046728D01*
X204401911Y-70046665D01*
X204181091Y-70080455D01*
X203968756Y-70149857D01*
X203938939Y-70165379D01*
X203808080Y-70233500D01*
X203770607Y-70253007D01*
X203766474Y-70256110D01*
X203766471Y-70256112D01*
X203742247Y-70274300D01*
X203591965Y-70387135D01*
X203588393Y-70390873D01*
X203445498Y-70540404D01*
X203437629Y-70548638D01*
X203330201Y-70706121D01*
X203275293Y-70751121D01*
X203204768Y-70759292D01*
X203141021Y-70728038D01*
X203120324Y-70703554D01*
X203039822Y-70579117D01*
X203039820Y-70579114D01*
X203037014Y-70574777D01*
X202886670Y-70409551D01*
X202882619Y-70406352D01*
X202882615Y-70406348D01*
X202715414Y-70274300D01*
X202715410Y-70274298D01*
X202711359Y-70271098D01*
X202515789Y-70163138D01*
X202510920Y-70161414D01*
X202510916Y-70161412D01*
X202310087Y-70090295D01*
X202310083Y-70090294D01*
X202305212Y-70088569D01*
X202300119Y-70087662D01*
X202300116Y-70087661D01*
X202090373Y-70050300D01*
X202090367Y-70050299D01*
X202085284Y-70049394D01*
X202011452Y-70048492D01*
X201867081Y-70046728D01*
X201867079Y-70046728D01*
X201861911Y-70046665D01*
X201641091Y-70080455D01*
X201428756Y-70149857D01*
X201398939Y-70165379D01*
X201268080Y-70233500D01*
X201230607Y-70253007D01*
X201226474Y-70256110D01*
X201226471Y-70256112D01*
X201202247Y-70274300D01*
X201051965Y-70387135D01*
X201048393Y-70390873D01*
X200905498Y-70540404D01*
X200897629Y-70548638D01*
X200790201Y-70706121D01*
X200735293Y-70751121D01*
X200664768Y-70759292D01*
X200601021Y-70728038D01*
X200580324Y-70703554D01*
X200499822Y-70579117D01*
X200499820Y-70579114D01*
X200497014Y-70574777D01*
X200346670Y-70409551D01*
X200342619Y-70406352D01*
X200342615Y-70406348D01*
X200175414Y-70274300D01*
X200175410Y-70274298D01*
X200171359Y-70271098D01*
X199975789Y-70163138D01*
X199970920Y-70161414D01*
X199970916Y-70161412D01*
X199770087Y-70090295D01*
X199770083Y-70090294D01*
X199765212Y-70088569D01*
X199760119Y-70087662D01*
X199760116Y-70087661D01*
X199550373Y-70050300D01*
X199550367Y-70050299D01*
X199545284Y-70049394D01*
X199471452Y-70048492D01*
X199327081Y-70046728D01*
X199327079Y-70046728D01*
X199321911Y-70046665D01*
X199101091Y-70080455D01*
X198888756Y-70149857D01*
X198858939Y-70165379D01*
X198728080Y-70233500D01*
X198690607Y-70253007D01*
X198686474Y-70256110D01*
X198686471Y-70256112D01*
X198662247Y-70274300D01*
X198511965Y-70387135D01*
X198508393Y-70390873D01*
X198365498Y-70540404D01*
X198357629Y-70548638D01*
X198250201Y-70706121D01*
X198195293Y-70751121D01*
X198124768Y-70759292D01*
X198061021Y-70728038D01*
X198040324Y-70703554D01*
X197959822Y-70579117D01*
X197959820Y-70579114D01*
X197957014Y-70574777D01*
X197806670Y-70409551D01*
X197802619Y-70406352D01*
X197802615Y-70406348D01*
X197635414Y-70274300D01*
X197635410Y-70274298D01*
X197631359Y-70271098D01*
X197435789Y-70163138D01*
X197430920Y-70161414D01*
X197430916Y-70161412D01*
X197230087Y-70090295D01*
X197230083Y-70090294D01*
X197225212Y-70088569D01*
X197220119Y-70087662D01*
X197220116Y-70087661D01*
X197010373Y-70050300D01*
X197010367Y-70050299D01*
X197005284Y-70049394D01*
X196931452Y-70048492D01*
X196787081Y-70046728D01*
X196787079Y-70046728D01*
X196781911Y-70046665D01*
X196561091Y-70080455D01*
X196348756Y-70149857D01*
X196318939Y-70165379D01*
X196188080Y-70233500D01*
X196150607Y-70253007D01*
X196146474Y-70256110D01*
X196146471Y-70256112D01*
X196122247Y-70274300D01*
X195971965Y-70387135D01*
X195968393Y-70390873D01*
X195825498Y-70540404D01*
X195817629Y-70548638D01*
X195691743Y-70733180D01*
X195597688Y-70935805D01*
X195537989Y-71151070D01*
X195514251Y-71373195D01*
X195514548Y-71378348D01*
X195514548Y-71378351D01*
X195520011Y-71473090D01*
X195527110Y-71596215D01*
X195528247Y-71601261D01*
X195528248Y-71601267D01*
X195548119Y-71689439D01*
X195576222Y-71814139D01*
X195660266Y-72021116D01*
X195699192Y-72084637D01*
X195774291Y-72207188D01*
X195776987Y-72211588D01*
X195923250Y-72380438D01*
X195927225Y-72383738D01*
X195927231Y-72383744D01*
X195932425Y-72388056D01*
X195972059Y-72446960D01*
X195973555Y-72517941D01*
X195936439Y-72578462D01*
X195896168Y-72602980D01*
X195788946Y-72643176D01*
X195773351Y-72651714D01*
X195671276Y-72728215D01*
X195658715Y-72740776D01*
X195582214Y-72842851D01*
X195573676Y-72858446D01*
X195528522Y-72978894D01*
X195524895Y-72994149D01*
X195519369Y-73045014D01*
X195519000Y-73051828D01*
X195519000Y-73674385D01*
X195523475Y-73689624D01*
X195524865Y-73690829D01*
X195532548Y-73692500D01*
X197005000Y-73692500D01*
X197073121Y-73712502D01*
X197119614Y-73766158D01*
X197131000Y-73818500D01*
X197131000Y-75286384D01*
X197135475Y-75301623D01*
X197136865Y-75302828D01*
X197144548Y-75304499D01*
X197771669Y-75304499D01*
X197778490Y-75304129D01*
X197829352Y-75298605D01*
X197844604Y-75294979D01*
X197965054Y-75249824D01*
X197980649Y-75241286D01*
X198082724Y-75164785D01*
X198095285Y-75152224D01*
X198171786Y-75050149D01*
X198180324Y-75034554D01*
X198221225Y-74925452D01*
X198263867Y-74868688D01*
X198330428Y-74843988D01*
X198399777Y-74859196D01*
X198434444Y-74887184D01*
X198459865Y-74916531D01*
X198459869Y-74916535D01*
X198463250Y-74920438D01*
X198564370Y-75004389D01*
X198622390Y-75052558D01*
X198635126Y-75063132D01*
X198705769Y-75104412D01*
X198721070Y-75113353D01*
X198769794Y-75164991D01*
X198783500Y-75222141D01*
X198783500Y-75858405D01*
X198763498Y-75926526D01*
X198746595Y-75947500D01*
X196652500Y-78041595D01*
X196590188Y-78075621D01*
X196563405Y-78078500D01*
X184704662Y-78078500D01*
X184636541Y-78058498D01*
X184615567Y-78041595D01*
X181415141Y-74841169D01*
X195519001Y-74841169D01*
X195519371Y-74847990D01*
X195524895Y-74898852D01*
X195528521Y-74914104D01*
X195573676Y-75034554D01*
X195582214Y-75050149D01*
X195658715Y-75152224D01*
X195671276Y-75164785D01*
X195773351Y-75241286D01*
X195788946Y-75249824D01*
X195909394Y-75294978D01*
X195924649Y-75298605D01*
X195975514Y-75304131D01*
X195982328Y-75304500D01*
X196604885Y-75304500D01*
X196620124Y-75300025D01*
X196621329Y-75298635D01*
X196623000Y-75290952D01*
X196623000Y-74218615D01*
X196618525Y-74203376D01*
X196617135Y-74202171D01*
X196609452Y-74200500D01*
X195537116Y-74200500D01*
X195521877Y-74204975D01*
X195520672Y-74206365D01*
X195519001Y-74214048D01*
X195519001Y-74841169D01*
X181415141Y-74841169D01*
X177907643Y-71333670D01*
X188463160Y-71333670D01*
X188468887Y-71341320D01*
X188640042Y-71446205D01*
X188648837Y-71450687D01*
X188858988Y-71537734D01*
X188868373Y-71540783D01*
X189089554Y-71593885D01*
X189099301Y-71595428D01*
X189326070Y-71613275D01*
X189335930Y-71613275D01*
X189562699Y-71595428D01*
X189572446Y-71593885D01*
X189793627Y-71540783D01*
X189803012Y-71537734D01*
X190013163Y-71450687D01*
X190021958Y-71446205D01*
X190189445Y-71343568D01*
X190198907Y-71333110D01*
X190195124Y-71324334D01*
X189343812Y-70473022D01*
X189329868Y-70465408D01*
X189328035Y-70465539D01*
X189321420Y-70469790D01*
X188469920Y-71321290D01*
X188463160Y-71333670D01*
X177907643Y-71333670D01*
X177657201Y-71083228D01*
X176679903Y-70105930D01*
X187818725Y-70105930D01*
X187836572Y-70332699D01*
X187838115Y-70342446D01*
X187891217Y-70563627D01*
X187894266Y-70573012D01*
X187981313Y-70783163D01*
X187985795Y-70791958D01*
X188088432Y-70959445D01*
X188098890Y-70968907D01*
X188107666Y-70965124D01*
X188958978Y-70113812D01*
X188965356Y-70102132D01*
X189695408Y-70102132D01*
X189695539Y-70103965D01*
X189699790Y-70110580D01*
X190551290Y-70962080D01*
X190563670Y-70968840D01*
X190571320Y-70963113D01*
X190676205Y-70791958D01*
X190680687Y-70783163D01*
X190767734Y-70573012D01*
X190770783Y-70563627D01*
X190823885Y-70342446D01*
X190825428Y-70332699D01*
X190843275Y-70105930D01*
X190843275Y-70096070D01*
X190825428Y-69869301D01*
X190823885Y-69859554D01*
X190770783Y-69638373D01*
X190767734Y-69628988D01*
X190680687Y-69418837D01*
X190676205Y-69410042D01*
X190573568Y-69242555D01*
X190563110Y-69233093D01*
X190554334Y-69236876D01*
X189703022Y-70088188D01*
X189695408Y-70102132D01*
X188965356Y-70102132D01*
X188966592Y-70099868D01*
X188966461Y-70098035D01*
X188962210Y-70091420D01*
X188110710Y-69239920D01*
X188098330Y-69233160D01*
X188090680Y-69238887D01*
X187985795Y-69410042D01*
X187981313Y-69418837D01*
X187894266Y-69628988D01*
X187891217Y-69638373D01*
X187838115Y-69859554D01*
X187836572Y-69869301D01*
X187818725Y-70096070D01*
X187818725Y-70105930D01*
X176679903Y-70105930D01*
X175442863Y-68868890D01*
X188463093Y-68868890D01*
X188466876Y-68877666D01*
X189318188Y-69728978D01*
X189332132Y-69736592D01*
X189333965Y-69736461D01*
X189340580Y-69732210D01*
X190192080Y-68880710D01*
X190198840Y-68868330D01*
X190193113Y-68860680D01*
X190021958Y-68755795D01*
X190013163Y-68751313D01*
X189803012Y-68664266D01*
X189793627Y-68661217D01*
X189572446Y-68608115D01*
X189562699Y-68606572D01*
X189335930Y-68588725D01*
X189326070Y-68588725D01*
X189099301Y-68606572D01*
X189089554Y-68608115D01*
X188868373Y-68661217D01*
X188858988Y-68664266D01*
X188648837Y-68751313D01*
X188640042Y-68755795D01*
X188472555Y-68858432D01*
X188463093Y-68868890D01*
X175442863Y-68868890D01*
X170669720Y-64095747D01*
X170662180Y-64087461D01*
X170658068Y-64080982D01*
X170608416Y-64034356D01*
X170605575Y-64031602D01*
X170585838Y-64011865D01*
X170582641Y-64009385D01*
X170573619Y-64001680D01*
X170541389Y-63971414D01*
X170534443Y-63967595D01*
X170534440Y-63967593D01*
X170523634Y-63961652D01*
X170507115Y-63950801D01*
X170503795Y-63948226D01*
X170491109Y-63938386D01*
X170483840Y-63935241D01*
X170483836Y-63935238D01*
X170450531Y-63920826D01*
X170439881Y-63915609D01*
X170401128Y-63894305D01*
X170381505Y-63889267D01*
X170362802Y-63882863D01*
X170351488Y-63877967D01*
X170351487Y-63877967D01*
X170344213Y-63874819D01*
X170336390Y-63873580D01*
X170336380Y-63873577D01*
X170300544Y-63867901D01*
X170288924Y-63865495D01*
X170253779Y-63856472D01*
X170253778Y-63856472D01*
X170246098Y-63854500D01*
X170225844Y-63854500D01*
X170206133Y-63852949D01*
X170193954Y-63851020D01*
X170186125Y-63849780D01*
X170178233Y-63850526D01*
X170142107Y-63853941D01*
X170130249Y-63854500D01*
X141898610Y-63854500D01*
X141830489Y-63834498D01*
X141809515Y-63817595D01*
X137468668Y-59476747D01*
X133238771Y-55246850D01*
X152566725Y-55246850D01*
X152567284Y-55251094D01*
X152567284Y-55251098D01*
X152570824Y-55277984D01*
X152605140Y-55538640D01*
X152606273Y-55542780D01*
X152606273Y-55542782D01*
X152663671Y-55752595D01*
X152682800Y-55822517D01*
X152689873Y-55839100D01*
X152796586Y-56089286D01*
X152796590Y-56089293D01*
X152798268Y-56093228D01*
X152889469Y-56245614D01*
X152942750Y-56334639D01*
X152949408Y-56345764D01*
X153133422Y-56575451D01*
X153136524Y-56578395D01*
X153136528Y-56578399D01*
X153343796Y-56775089D01*
X153346905Y-56778039D01*
X153585908Y-56949780D01*
X153846007Y-57087496D01*
X154122390Y-57188638D01*
X154409943Y-57251334D01*
X154442519Y-57253898D01*
X154638309Y-57269307D01*
X154638318Y-57269307D01*
X154640766Y-57269500D01*
X154799990Y-57269500D01*
X154802126Y-57269354D01*
X154802137Y-57269354D01*
X155015350Y-57254819D01*
X155015356Y-57254818D01*
X155019627Y-57254527D01*
X155023822Y-57253658D01*
X155023824Y-57253658D01*
X155163724Y-57224686D01*
X155307820Y-57194845D01*
X155585247Y-57096603D01*
X155846774Y-56961618D01*
X155850275Y-56959157D01*
X155850279Y-56959155D01*
X156084052Y-56794856D01*
X156084053Y-56794855D01*
X156087562Y-56792389D01*
X156283868Y-56609971D01*
X156300017Y-56594965D01*
X156300018Y-56594964D01*
X156303156Y-56592048D01*
X156316741Y-56575451D01*
X156486849Y-56367618D01*
X156489565Y-56364300D01*
X156615290Y-56159134D01*
X187822500Y-56159134D01*
X187829255Y-56221316D01*
X187880385Y-56357705D01*
X187967739Y-56474261D01*
X188084295Y-56561615D01*
X188220684Y-56612745D01*
X188282866Y-56619500D01*
X190379134Y-56619500D01*
X190441316Y-56612745D01*
X190577705Y-56561615D01*
X190694261Y-56474261D01*
X190781615Y-56357705D01*
X190832745Y-56221316D01*
X190839500Y-56159134D01*
X190839500Y-54062866D01*
X190832745Y-54000684D01*
X190781615Y-53864295D01*
X190694261Y-53747739D01*
X190577705Y-53660385D01*
X190441316Y-53609255D01*
X190379134Y-53602500D01*
X188282866Y-53602500D01*
X188220684Y-53609255D01*
X188084295Y-53660385D01*
X187967739Y-53747739D01*
X187880385Y-53864295D01*
X187829255Y-54000684D01*
X187822500Y-54062866D01*
X187822500Y-56159134D01*
X156615290Y-56159134D01*
X156643340Y-56113361D01*
X156645068Y-56109425D01*
X156759913Y-55847802D01*
X156759914Y-55847798D01*
X156761637Y-55843874D01*
X156842265Y-55560826D01*
X156846029Y-55534384D01*
X156883129Y-55273705D01*
X156883734Y-55269454D01*
X156884889Y-55048865D01*
X156885253Y-54979436D01*
X156885253Y-54979430D01*
X156885275Y-54975150D01*
X156884629Y-54970238D01*
X156847420Y-54687616D01*
X156846860Y-54683360D01*
X156805487Y-54532124D01*
X156770334Y-54403628D01*
X156770334Y-54403627D01*
X156769200Y-54399483D01*
X156703457Y-54245350D01*
X156655414Y-54132714D01*
X156655410Y-54132707D01*
X156653732Y-54128772D01*
X156549229Y-53954161D01*
X156504796Y-53879918D01*
X156504793Y-53879914D01*
X156502592Y-53876236D01*
X156318578Y-53646549D01*
X156315476Y-53643605D01*
X156315472Y-53643601D01*
X156108204Y-53446911D01*
X156108201Y-53446909D01*
X156105095Y-53443961D01*
X155866092Y-53272220D01*
X155605993Y-53134504D01*
X155329610Y-53033362D01*
X155042057Y-52970666D01*
X155001486Y-52967473D01*
X154813691Y-52952693D01*
X154813682Y-52952693D01*
X154811234Y-52952500D01*
X154652010Y-52952500D01*
X154649874Y-52952646D01*
X154649863Y-52952646D01*
X154436650Y-52967181D01*
X154436644Y-52967182D01*
X154432373Y-52967473D01*
X154428178Y-52968342D01*
X154428176Y-52968342D01*
X154288277Y-52997314D01*
X154144180Y-53027155D01*
X153866753Y-53125397D01*
X153605226Y-53260382D01*
X153601725Y-53262843D01*
X153601721Y-53262845D01*
X153390957Y-53410973D01*
X153364438Y-53429611D01*
X153148844Y-53629952D01*
X153146130Y-53633268D01*
X153146128Y-53633270D01*
X153084560Y-53708492D01*
X152962435Y-53857700D01*
X152808660Y-54108639D01*
X152806933Y-54112572D01*
X152806932Y-54112575D01*
X152732102Y-54283043D01*
X152690363Y-54378126D01*
X152609735Y-54661174D01*
X152609131Y-54665416D01*
X152609130Y-54665422D01*
X152577734Y-54886020D01*
X152568266Y-54952546D01*
X152566725Y-55246850D01*
X133238771Y-55246850D01*
X133122668Y-55130747D01*
X133115128Y-55122461D01*
X133111016Y-55115982D01*
X133061364Y-55069356D01*
X133058523Y-55066602D01*
X133038786Y-55046865D01*
X133035589Y-55044385D01*
X133026567Y-55036680D01*
X133000116Y-55011841D01*
X132994337Y-55006414D01*
X132987391Y-55002595D01*
X132987388Y-55002593D01*
X132976582Y-54996652D01*
X132960063Y-54985801D01*
X132959186Y-54985121D01*
X132944057Y-54973386D01*
X132936788Y-54970241D01*
X132936784Y-54970238D01*
X132903479Y-54955826D01*
X132892829Y-54950609D01*
X132854076Y-54929305D01*
X132834453Y-54924267D01*
X132815750Y-54917863D01*
X132804436Y-54912967D01*
X132804435Y-54912967D01*
X132797161Y-54909819D01*
X132789338Y-54908580D01*
X132789328Y-54908577D01*
X132753492Y-54902901D01*
X132741872Y-54900495D01*
X132706727Y-54891472D01*
X132706726Y-54891472D01*
X132699046Y-54889500D01*
X132678792Y-54889500D01*
X132659081Y-54887949D01*
X132646902Y-54886020D01*
X132639073Y-54884780D01*
X132631181Y-54885526D01*
X132595055Y-54888941D01*
X132583197Y-54889500D01*
X122893594Y-54889500D01*
X122825473Y-54869498D01*
X122804499Y-54852595D01*
X118777613Y-50825708D01*
X114728652Y-46776747D01*
X114721112Y-46768461D01*
X114717000Y-46761982D01*
X114667348Y-46715356D01*
X114664507Y-46712602D01*
X114644770Y-46692865D01*
X114641573Y-46690385D01*
X114632551Y-46682680D01*
X114606100Y-46657841D01*
X114600321Y-46652414D01*
X114593375Y-46648595D01*
X114593372Y-46648593D01*
X114582566Y-46642652D01*
X114566047Y-46631801D01*
X114565583Y-46631441D01*
X114550041Y-46619386D01*
X114542772Y-46616241D01*
X114542768Y-46616238D01*
X114509463Y-46601826D01*
X114498813Y-46596609D01*
X114460060Y-46575305D01*
X114440437Y-46570267D01*
X114421734Y-46563863D01*
X114410422Y-46558968D01*
X114403145Y-46555819D01*
X114396610Y-46554784D01*
X114337265Y-46516882D01*
X114310550Y-46466712D01*
X114305537Y-46448003D01*
X114305537Y-46448002D01*
X114303829Y-46441629D01*
X114288581Y-46411703D01*
X114275477Y-46341926D01*
X114302177Y-46276141D01*
X114360205Y-46235235D01*
X114400848Y-46228500D01*
X191390000Y-46228500D01*
X191458121Y-46248502D01*
X191504614Y-46302158D01*
X191516000Y-46354500D01*
X191516000Y-68580000D01*
X215265500Y-68580000D01*
X215333621Y-68600002D01*
X215380114Y-68653658D01*
X215391500Y-68706000D01*
X215391500Y-110227183D01*
X215371498Y-110295304D01*
X215354595Y-110316278D01*
X210646278Y-115024595D01*
X210583966Y-115058621D01*
X210557183Y-115061500D01*
X94242817Y-115061500D01*
X94174696Y-115041498D01*
X94153722Y-115024595D01*
X89445405Y-110316278D01*
X89411379Y-110253966D01*
X89408500Y-110227183D01*
X89408500Y-51062817D01*
X89428502Y-50994696D01*
X89445405Y-50973722D01*
X94153722Y-46265405D01*
X94216034Y-46231379D01*
X94242817Y-46228500D01*
X94261119Y-46228500D01*
X94329240Y-46248502D01*
G37*
%TD.AperFunction*%
%TA.AperFunction,Conductor*%
G36*
X118296527Y-68142502D02*
G01*
X118317501Y-68159405D01*
X120661595Y-70503499D01*
X120695621Y-70565811D01*
X120698500Y-70592594D01*
X120698500Y-77374218D01*
X120678498Y-77442339D01*
X120661595Y-77463313D01*
X114039223Y-84085684D01*
X113976911Y-84119710D01*
X113906096Y-84114645D01*
X113849260Y-84072098D01*
X113824516Y-84006475D01*
X113814428Y-83878301D01*
X113812885Y-83868554D01*
X113759783Y-83647373D01*
X113756734Y-83637988D01*
X113669687Y-83427837D01*
X113665205Y-83419042D01*
X113562568Y-83251555D01*
X113552110Y-83242093D01*
X113543334Y-83245876D01*
X111491615Y-85297595D01*
X111429303Y-85331621D01*
X111402520Y-85334500D01*
X110703975Y-85334500D01*
X110692792Y-85333973D01*
X110685299Y-85332298D01*
X110677373Y-85332547D01*
X110677372Y-85332547D01*
X110617222Y-85334438D01*
X110613263Y-85334500D01*
X110585352Y-85334500D01*
X110581418Y-85334997D01*
X110581417Y-85334997D01*
X110581352Y-85335005D01*
X110569515Y-85335938D01*
X110537698Y-85336938D01*
X110533237Y-85337078D01*
X110525318Y-85337327D01*
X110508854Y-85342110D01*
X110505866Y-85342978D01*
X110486514Y-85346986D01*
X110479443Y-85347880D01*
X110466411Y-85349526D01*
X110459042Y-85352443D01*
X110459040Y-85352444D01*
X110425305Y-85365800D01*
X110414077Y-85369645D01*
X110371615Y-85381982D01*
X110364792Y-85386017D01*
X110364790Y-85386018D01*
X110354180Y-85392293D01*
X110336432Y-85400988D01*
X110317591Y-85408448D01*
X110311175Y-85413110D01*
X110311174Y-85413110D01*
X110281821Y-85434436D01*
X110271901Y-85440952D01*
X110240673Y-85459420D01*
X110240670Y-85459422D01*
X110233846Y-85463458D01*
X110219525Y-85477779D01*
X110204492Y-85490619D01*
X110188101Y-85502528D01*
X110183050Y-85508634D01*
X110159910Y-85536605D01*
X110151920Y-85545384D01*
X104117747Y-91579556D01*
X104109461Y-91587096D01*
X104102982Y-91591208D01*
X104097557Y-91596985D01*
X104056357Y-91640859D01*
X104053602Y-91643701D01*
X104033865Y-91663438D01*
X104031385Y-91666635D01*
X104023682Y-91675655D01*
X103993414Y-91707887D01*
X103989595Y-91714833D01*
X103989593Y-91714836D01*
X103983652Y-91725642D01*
X103972801Y-91742161D01*
X103960386Y-91758167D01*
X103957241Y-91765436D01*
X103957238Y-91765440D01*
X103942826Y-91798745D01*
X103937609Y-91809395D01*
X103916305Y-91848148D01*
X103914334Y-91855823D01*
X103914334Y-91855824D01*
X103911267Y-91867770D01*
X103904863Y-91886474D01*
X103896819Y-91905063D01*
X103895580Y-91912886D01*
X103895577Y-91912896D01*
X103889901Y-91948732D01*
X103887495Y-91960352D01*
X103876500Y-92003178D01*
X103876500Y-92023432D01*
X103874949Y-92043142D01*
X103871780Y-92063151D01*
X103872526Y-92071043D01*
X103875941Y-92107169D01*
X103876500Y-92119027D01*
X103876500Y-102311233D01*
X103875973Y-102322416D01*
X103874298Y-102329909D01*
X103874547Y-102337835D01*
X103874547Y-102337836D01*
X103876438Y-102397986D01*
X103876500Y-102401945D01*
X103876500Y-102429856D01*
X103876997Y-102433790D01*
X103876997Y-102433791D01*
X103877005Y-102433856D01*
X103877938Y-102445693D01*
X103879327Y-102489889D01*
X103884978Y-102509339D01*
X103888987Y-102528700D01*
X103891526Y-102548797D01*
X103894445Y-102556168D01*
X103894445Y-102556170D01*
X103907804Y-102589912D01*
X103911649Y-102601142D01*
X103923982Y-102643593D01*
X103928015Y-102650412D01*
X103928017Y-102650417D01*
X103934293Y-102661028D01*
X103942988Y-102678776D01*
X103950448Y-102697617D01*
X103955110Y-102704033D01*
X103955110Y-102704034D01*
X103976436Y-102733387D01*
X103982952Y-102743307D01*
X103991587Y-102757907D01*
X104005458Y-102781362D01*
X104019779Y-102795683D01*
X104032619Y-102810716D01*
X104044528Y-102827107D01*
X104050634Y-102832158D01*
X104078605Y-102855298D01*
X104087384Y-102863288D01*
X110845636Y-109621541D01*
X110879662Y-109683853D01*
X110879060Y-109740049D01*
X110873038Y-109765134D01*
X110828380Y-109951148D01*
X110825465Y-109963289D01*
X110806835Y-110200000D01*
X110825465Y-110436711D01*
X110826619Y-110441518D01*
X110826620Y-110441524D01*
X110847769Y-110529614D01*
X110880895Y-110667594D01*
X110882789Y-110672167D01*
X110883554Y-110674521D01*
X110885583Y-110745489D01*
X110848922Y-110806287D01*
X110785211Y-110837614D01*
X110714677Y-110829523D01*
X110674627Y-110802555D01*
X101486398Y-101614326D01*
X101452372Y-101552014D01*
X101457437Y-101481199D01*
X101499984Y-101424363D01*
X101527274Y-101408823D01*
X101572382Y-101390138D01*
X101572387Y-101390135D01*
X101576963Y-101388240D01*
X101611121Y-101367308D01*
X101775202Y-101266759D01*
X101775208Y-101266755D01*
X101779416Y-101264176D01*
X101959969Y-101109969D01*
X102114176Y-100929416D01*
X102116755Y-100925208D01*
X102116759Y-100925202D01*
X102235654Y-100731183D01*
X102238240Y-100726963D01*
X102270252Y-100649680D01*
X102327211Y-100512167D01*
X102327212Y-100512165D01*
X102329105Y-100507594D01*
X102360284Y-100377725D01*
X102383380Y-100281524D01*
X102383381Y-100281518D01*
X102384535Y-100276711D01*
X102403165Y-100040000D01*
X102384535Y-99803289D01*
X102378581Y-99778485D01*
X102330260Y-99577218D01*
X102329105Y-99572406D01*
X102327211Y-99567833D01*
X102240135Y-99357611D01*
X102240133Y-99357607D01*
X102238240Y-99353037D01*
X102223498Y-99328980D01*
X102116759Y-99154798D01*
X102116755Y-99154792D01*
X102114176Y-99150584D01*
X101959969Y-98970031D01*
X101779416Y-98815824D01*
X101775208Y-98813245D01*
X101775202Y-98813241D01*
X101581183Y-98694346D01*
X101576963Y-98691760D01*
X101572393Y-98689867D01*
X101572389Y-98689865D01*
X101362167Y-98602789D01*
X101362165Y-98602788D01*
X101357594Y-98600895D01*
X101277391Y-98581640D01*
X101131524Y-98546620D01*
X101131518Y-98546619D01*
X101126711Y-98545465D01*
X100890000Y-98526835D01*
X100653289Y-98545465D01*
X100648482Y-98546619D01*
X100648476Y-98546620D01*
X100502609Y-98581640D01*
X100422406Y-98600895D01*
X100417831Y-98602790D01*
X100417828Y-98602791D01*
X100372717Y-98621476D01*
X100302127Y-98629065D01*
X100238641Y-98597285D01*
X100202414Y-98536227D01*
X100198500Y-98505067D01*
X100198500Y-97074391D01*
X100218502Y-97006270D01*
X100272158Y-96959777D01*
X100342432Y-96949673D01*
X100372719Y-96957982D01*
X100417993Y-96976735D01*
X100427373Y-96979783D01*
X100648554Y-97032885D01*
X100658301Y-97034428D01*
X100885070Y-97052275D01*
X100894930Y-97052275D01*
X101121699Y-97034428D01*
X101131446Y-97032885D01*
X101352627Y-96979783D01*
X101362012Y-96976734D01*
X101572163Y-96889687D01*
X101580958Y-96885205D01*
X101748445Y-96782568D01*
X101757907Y-96772110D01*
X101754124Y-96763334D01*
X100619885Y-95629095D01*
X100585859Y-95566783D01*
X100587694Y-95541132D01*
X101254408Y-95541132D01*
X101254539Y-95542965D01*
X101258790Y-95549580D01*
X102110290Y-96401080D01*
X102122670Y-96407840D01*
X102130320Y-96402113D01*
X102235205Y-96230958D01*
X102239687Y-96222163D01*
X102326734Y-96012012D01*
X102329783Y-96002627D01*
X102382885Y-95781446D01*
X102384428Y-95771699D01*
X102402275Y-95544930D01*
X102402275Y-95535070D01*
X102384428Y-95308301D01*
X102382885Y-95298554D01*
X102329783Y-95077373D01*
X102326734Y-95067988D01*
X102239687Y-94857837D01*
X102235205Y-94849042D01*
X102132568Y-94681555D01*
X102122110Y-94672093D01*
X102113334Y-94675876D01*
X101262022Y-95527188D01*
X101254408Y-95541132D01*
X100587694Y-95541132D01*
X100590924Y-95495968D01*
X100619885Y-95450905D01*
X101751080Y-94319710D01*
X101757840Y-94307330D01*
X101752113Y-94299680D01*
X101580958Y-94194795D01*
X101572163Y-94190313D01*
X101362012Y-94103266D01*
X101352627Y-94100217D01*
X101131446Y-94047115D01*
X101121699Y-94045572D01*
X100894930Y-94027725D01*
X100885070Y-94027725D01*
X100658301Y-94045572D01*
X100648554Y-94047115D01*
X100427373Y-94100217D01*
X100417993Y-94103265D01*
X100372719Y-94122018D01*
X100302129Y-94129607D01*
X100238642Y-94097828D01*
X100202414Y-94036770D01*
X100198500Y-94005609D01*
X100198500Y-93281594D01*
X100218502Y-93213473D01*
X100235405Y-93192499D01*
X109312975Y-84114930D01*
X110807725Y-84114930D01*
X110825572Y-84341699D01*
X110827115Y-84351446D01*
X110880217Y-84572627D01*
X110883266Y-84582012D01*
X110970313Y-84792163D01*
X110974795Y-84800958D01*
X111077432Y-84968445D01*
X111087890Y-84977907D01*
X111096666Y-84974124D01*
X111947978Y-84122812D01*
X111955592Y-84108868D01*
X111955461Y-84107035D01*
X111951210Y-84100420D01*
X111099710Y-83248920D01*
X111087330Y-83242160D01*
X111079680Y-83247887D01*
X110974795Y-83419042D01*
X110970313Y-83427837D01*
X110883266Y-83637988D01*
X110880217Y-83647373D01*
X110827115Y-83868554D01*
X110825572Y-83878301D01*
X110807725Y-84105070D01*
X110807725Y-84114930D01*
X109312975Y-84114930D01*
X109803253Y-83624652D01*
X109811539Y-83617112D01*
X109818018Y-83613000D01*
X109864644Y-83563348D01*
X109867398Y-83560507D01*
X109887135Y-83540770D01*
X109889615Y-83537573D01*
X109897320Y-83528551D01*
X109922159Y-83502100D01*
X109927586Y-83496321D01*
X109931405Y-83489375D01*
X109931407Y-83489372D01*
X109937348Y-83478566D01*
X109948199Y-83462047D01*
X109955758Y-83452301D01*
X109960614Y-83446041D01*
X109963759Y-83438772D01*
X109963762Y-83438768D01*
X109978174Y-83405463D01*
X109983391Y-83394813D01*
X110004695Y-83356060D01*
X110009733Y-83336437D01*
X110016137Y-83317734D01*
X110021033Y-83306420D01*
X110021033Y-83306419D01*
X110024181Y-83299145D01*
X110025420Y-83291322D01*
X110025423Y-83291312D01*
X110031099Y-83255476D01*
X110033505Y-83243856D01*
X110042528Y-83208711D01*
X110042528Y-83208710D01*
X110044500Y-83201030D01*
X110044500Y-83180776D01*
X110046051Y-83161065D01*
X110047980Y-83148886D01*
X110049220Y-83141057D01*
X110045059Y-83097038D01*
X110044500Y-83085181D01*
X110044500Y-82877890D01*
X111452093Y-82877890D01*
X111455876Y-82886666D01*
X112307188Y-83737978D01*
X112321132Y-83745592D01*
X112322965Y-83745461D01*
X112329580Y-83741210D01*
X113181080Y-82889710D01*
X113187840Y-82877330D01*
X113182113Y-82869680D01*
X113010958Y-82764795D01*
X113002163Y-82760313D01*
X112792012Y-82673266D01*
X112782627Y-82670217D01*
X112561446Y-82617115D01*
X112551699Y-82615572D01*
X112324930Y-82597725D01*
X112315070Y-82597725D01*
X112088301Y-82615572D01*
X112078554Y-82617115D01*
X111857373Y-82670217D01*
X111847988Y-82673266D01*
X111637837Y-82760313D01*
X111629042Y-82764795D01*
X111461555Y-82867432D01*
X111452093Y-82877890D01*
X110044500Y-82877890D01*
X110044500Y-70173665D01*
X110064502Y-70105544D01*
X110118158Y-70059051D01*
X110125959Y-70056250D01*
X110125827Y-70055906D01*
X110132003Y-70053535D01*
X110138371Y-70051829D01*
X110144244Y-70048836D01*
X110144248Y-70048835D01*
X110302649Y-69968126D01*
X110302653Y-69968124D01*
X110308530Y-69965129D01*
X110313659Y-69960976D01*
X110313663Y-69960973D01*
X110451814Y-69849100D01*
X110456945Y-69844945D01*
X110461100Y-69839814D01*
X110572973Y-69701663D01*
X110572976Y-69701659D01*
X110577129Y-69696530D01*
X110580192Y-69690520D01*
X110660833Y-69532251D01*
X110663829Y-69526371D01*
X110686567Y-69441513D01*
X110711763Y-69347481D01*
X110711764Y-69347477D01*
X110713257Y-69341904D01*
X110718845Y-69270908D01*
X110719307Y-69265037D01*
X110719307Y-69265030D01*
X110719500Y-69262581D01*
X110719500Y-68538196D01*
X110739502Y-68470075D01*
X110793158Y-68423582D01*
X110863432Y-68413478D01*
X110928012Y-68442972D01*
X110943420Y-68458902D01*
X111000914Y-68529901D01*
X111000918Y-68529905D01*
X111005069Y-68535031D01*
X111153492Y-68655222D01*
X111323661Y-68741927D01*
X111330034Y-68743635D01*
X111330035Y-68743635D01*
X111480761Y-68784022D01*
X111508139Y-68791358D01*
X111513893Y-68791811D01*
X111513894Y-68791811D01*
X111584996Y-68797407D01*
X111585007Y-68797407D01*
X111587454Y-68797600D01*
X113514546Y-68797600D01*
X113516993Y-68797407D01*
X113517004Y-68797407D01*
X113588106Y-68791811D01*
X113588107Y-68791811D01*
X113593861Y-68791358D01*
X113621240Y-68784022D01*
X113771965Y-68743635D01*
X113771966Y-68743635D01*
X113778339Y-68741927D01*
X113948508Y-68655222D01*
X114096931Y-68535031D01*
X114158579Y-68458902D01*
X114212968Y-68391738D01*
X114212969Y-68391737D01*
X114217122Y-68386608D01*
X114303827Y-68216439D01*
X114305535Y-68210065D01*
X114307903Y-68203896D01*
X114310657Y-68204953D01*
X114340867Y-68155320D01*
X114404708Y-68124258D01*
X114425681Y-68122500D01*
X118228406Y-68122500D01*
X118296527Y-68142502D01*
G37*
%TD.AperFunction*%
%TA.AperFunction,Conductor*%
G36*
X94417494Y-53140576D02*
G01*
X94471382Y-53179338D01*
X94560914Y-53289901D01*
X94560918Y-53289905D01*
X94565069Y-53295031D01*
X94713492Y-53415222D01*
X94713814Y-53415386D01*
X94758542Y-53467507D01*
X94768309Y-53537828D01*
X94738508Y-53602267D01*
X94712306Y-53624971D01*
X94708635Y-53627355D01*
X94570551Y-53739174D01*
X94561274Y-53748451D01*
X94449454Y-53886536D01*
X94442304Y-53897547D01*
X94361637Y-54055864D01*
X94356936Y-54068110D01*
X94310733Y-54240543D01*
X94308786Y-54251870D01*
X94303193Y-54322935D01*
X94303000Y-54327862D01*
X94303000Y-54516885D01*
X94307475Y-54532124D01*
X94308865Y-54533329D01*
X94316548Y-54535000D01*
X96239000Y-54535000D01*
X96307121Y-54555002D01*
X96353614Y-54608658D01*
X96365000Y-54661000D01*
X96365000Y-54917000D01*
X96344998Y-54985121D01*
X96291342Y-55031614D01*
X96239000Y-55043000D01*
X94321115Y-55043000D01*
X94305876Y-55047475D01*
X94304671Y-55048865D01*
X94303000Y-55056548D01*
X94303000Y-55250139D01*
X94303193Y-55255065D01*
X94308786Y-55326130D01*
X94310733Y-55337457D01*
X94356936Y-55509890D01*
X94361637Y-55522136D01*
X94442304Y-55680453D01*
X94449454Y-55691464D01*
X94561274Y-55829549D01*
X94570551Y-55838826D01*
X94708635Y-55950645D01*
X94712306Y-55953029D01*
X94758541Y-56006906D01*
X94768309Y-56077228D01*
X94738508Y-56141667D01*
X94715076Y-56161971D01*
X94713492Y-56162778D01*
X94565069Y-56282969D01*
X94560919Y-56288094D01*
X94560918Y-56288095D01*
X94529421Y-56326991D01*
X94444878Y-56431392D01*
X94358173Y-56601561D01*
X94356465Y-56607934D01*
X94356465Y-56607935D01*
X94355920Y-56609971D01*
X94308742Y-56786039D01*
X94308289Y-56791793D01*
X94308289Y-56791794D01*
X94304495Y-56840007D01*
X94302500Y-56865354D01*
X94302500Y-57792646D01*
X94308742Y-57871961D01*
X94358173Y-58056439D01*
X94444878Y-58226608D01*
X94449031Y-58231737D01*
X94449032Y-58231738D01*
X94537412Y-58340878D01*
X94565069Y-58375031D01*
X94713414Y-58495159D01*
X94713415Y-58495160D01*
X94713492Y-58495222D01*
X94713481Y-58495236D01*
X94758080Y-58547207D01*
X94767847Y-58617528D01*
X94738045Y-58681967D01*
X94714794Y-58702114D01*
X94713492Y-58702778D01*
X94565069Y-58822969D01*
X94444878Y-58971392D01*
X94436567Y-58987703D01*
X94387822Y-59039317D01*
X94324301Y-59056500D01*
X93550767Y-59056500D01*
X93539584Y-59055973D01*
X93532091Y-59054298D01*
X93524165Y-59054547D01*
X93524164Y-59054547D01*
X93464001Y-59056438D01*
X93460043Y-59056500D01*
X93432144Y-59056500D01*
X93428154Y-59057004D01*
X93416320Y-59057936D01*
X93372111Y-59059326D01*
X93364497Y-59061538D01*
X93364492Y-59061539D01*
X93352659Y-59064977D01*
X93333296Y-59068988D01*
X93313203Y-59071526D01*
X93305836Y-59074443D01*
X93305831Y-59074444D01*
X93272092Y-59087802D01*
X93260865Y-59091646D01*
X93218407Y-59103982D01*
X93211581Y-59108019D01*
X93200972Y-59114293D01*
X93183224Y-59122988D01*
X93164383Y-59130448D01*
X93157967Y-59135110D01*
X93157966Y-59135110D01*
X93128613Y-59156436D01*
X93118693Y-59162952D01*
X93087465Y-59181420D01*
X93087462Y-59181422D01*
X93080638Y-59185458D01*
X93066317Y-59199779D01*
X93051284Y-59212619D01*
X93034893Y-59224528D01*
X93026279Y-59234941D01*
X93006702Y-59258605D01*
X92998712Y-59267384D01*
X92796595Y-59469501D01*
X92734283Y-59503527D01*
X92663468Y-59498462D01*
X92606632Y-59455915D01*
X92581821Y-59389395D01*
X92581500Y-59380406D01*
X92581500Y-54924594D01*
X92601502Y-54856473D01*
X92618405Y-54835499D01*
X94284367Y-53169537D01*
X94346679Y-53135511D01*
X94417494Y-53140576D01*
G37*
%TD.AperFunction*%
M02*
