G04 #@! TF.GenerationSoftware,KiCad,Pcbnew,(6.0.9)*
G04 #@! TF.CreationDate,2022-12-06T16:10:30-05:00*
G04 #@! TF.ProjectId,rf_controller_hw,72665f63-6f6e-4747-926f-6c6c65725f68,rev?*
G04 #@! TF.SameCoordinates,Original*
G04 #@! TF.FileFunction,Soldermask,Bot*
G04 #@! TF.FilePolarity,Negative*
%FSLAX46Y46*%
G04 Gerber Fmt 4.6, Leading zero omitted, Abs format (unit mm)*
G04 Created by KiCad (PCBNEW (6.0.9)) date 2022-12-06 16:10:30*
%MOMM*%
%LPD*%
G01*
G04 APERTURE LIST*
G04 Aperture macros list*
%AMRoundRect*
0 Rectangle with rounded corners*
0 $1 Rounding radius*
0 $2 $3 $4 $5 $6 $7 $8 $9 X,Y pos of 4 corners*
0 Add a 4 corners polygon primitive as box body*
4,1,4,$2,$3,$4,$5,$6,$7,$8,$9,$2,$3,0*
0 Add four circle primitives for the rounded corners*
1,1,$1+$1,$2,$3*
1,1,$1+$1,$4,$5*
1,1,$1+$1,$6,$7*
1,1,$1+$1,$8,$9*
0 Add four rect primitives between the rounded corners*
20,1,$1+$1,$2,$3,$4,$5,0*
20,1,$1+$1,$4,$5,$6,$7,0*
20,1,$1+$1,$6,$7,$8,$9,0*
20,1,$1+$1,$8,$9,$2,$3,0*%
G04 Aperture macros list end*
%ADD10RoundRect,0.400000X-0.900000X-0.400000X0.900000X-0.400000X0.900000X0.400000X-0.900000X0.400000X0*%
%ADD11RoundRect,0.400050X-0.899950X-0.400050X0.899950X-0.400050X0.899950X0.400050X-0.899950X0.400050X0*%
%ADD12RoundRect,0.400000X-0.400000X-0.900000X0.400000X-0.900000X0.400000X0.900000X-0.400000X0.900000X0*%
%ADD13RoundRect,0.393700X-0.393700X-0.906300X0.393700X-0.906300X0.393700X0.906300X-0.393700X0.906300X0*%
%ADD14C,2.000000*%
%ADD15C,3.200000*%
%ADD16R,1.700000X1.700000*%
%ADD17O,1.700000X1.700000*%
%ADD18C,1.998980*%
%ADD19R,2.000000X2.000000*%
%ADD20R,1.600000X1.600000*%
%ADD21O,1.600000X1.600000*%
G04 APERTURE END LIST*
D10*
X112551000Y-47169000D03*
X112551000Y-49709000D03*
X112551000Y-52249000D03*
X112551000Y-54789000D03*
X112551000Y-57329000D03*
D11*
X112551000Y-59869000D03*
X112551000Y-62409000D03*
X112551000Y-64949000D03*
X112551000Y-67489000D03*
D12*
X109411000Y-68299000D03*
D13*
X106871000Y-68299000D03*
X104331000Y-68299000D03*
X101791000Y-68299000D03*
X99251000Y-68299000D03*
D11*
X96111000Y-67489000D03*
X96111000Y-64949000D03*
X96111000Y-62409000D03*
X96111000Y-59869000D03*
X96111000Y-57329000D03*
X96111000Y-54789000D03*
X96111000Y-52249000D03*
X96111000Y-49709000D03*
X96111000Y-47169000D03*
D14*
X183440000Y-87920000D03*
X189940000Y-87920000D03*
X189940000Y-92420000D03*
X183440000Y-92420000D03*
D15*
X203200000Y-99060000D03*
D14*
X118260000Y-73914000D03*
X111760000Y-73914000D03*
X118260000Y-78414000D03*
X111760000Y-78414000D03*
X111760000Y-95504000D03*
X118260000Y-95504000D03*
X111760000Y-100004000D03*
X118260000Y-100004000D03*
X100330000Y-85344000D03*
X106830000Y-85344000D03*
X100330000Y-89844000D03*
X106830000Y-89844000D03*
X197410000Y-80046000D03*
X203910000Y-80046000D03*
X203910000Y-84546000D03*
X197410000Y-84546000D03*
D16*
X213106000Y-73421000D03*
D17*
X213106000Y-75961000D03*
X213106000Y-78501000D03*
D16*
X196877000Y-73946500D03*
D17*
X196877000Y-71406500D03*
X199417000Y-73946500D03*
X199417000Y-71406500D03*
X201957000Y-73946500D03*
X201957000Y-71406500D03*
X204497000Y-73946500D03*
X204497000Y-71406500D03*
D14*
X160120095Y-103705670D03*
X160120095Y-93705670D03*
D18*
X150543895Y-92955670D03*
D14*
X147470095Y-103705670D03*
D18*
X150543895Y-88455670D03*
D14*
X147470095Y-93705670D03*
D18*
X157046295Y-92955670D03*
X157046295Y-88455670D03*
X145065095Y-101205030D03*
X145065095Y-98705670D03*
X145065095Y-96206310D03*
X156294455Y-107435670D03*
X153795095Y-107435670D03*
X151295735Y-107435670D03*
D14*
X123190000Y-85344000D03*
X129690000Y-85344000D03*
X123190000Y-89844000D03*
X129690000Y-89844000D03*
X168200000Y-95540000D03*
X174700000Y-95540000D03*
X174700000Y-100040000D03*
X168200000Y-100040000D03*
D15*
X101600000Y-99060000D03*
D19*
X189331000Y-55111000D03*
D14*
X189331000Y-70101000D03*
D20*
X103373000Y-79713500D03*
D21*
X100833000Y-79713500D03*
X98293000Y-79713500D03*
X95753000Y-79713500D03*
X93213000Y-79713500D03*
X93213000Y-72093500D03*
X95753000Y-72093500D03*
X98293000Y-72093500D03*
X100833000Y-72093500D03*
X103373000Y-72093500D03*
M02*
