M48
; DRILL file {KiCad (6.0.9)} date Tue 06 Dec 2022 04:11:13 PM EST
; FORMAT={-:-/ absolute / metric / decimal}
; #@! TF.CreationDate,2022-12-06T16:11:13-05:00
; #@! TF.GenerationSoftware,Kicad,Pcbnew,(6.0.9)
; #@! TF.FileFunction,Plated,1,2,PTH
FMAT,2
METRIC
; #@! TA.AperFunction,Plated,PTH,ViaDrill
T1C0.400
; #@! TA.AperFunction,Plated,PTH,ComponentDrill
T2C0.800
; #@! TA.AperFunction,Plated,PTH,ComponentDrill
T3C1.000
; #@! TA.AperFunction,Plated,PTH,ComponentDrill
T4C1.001
; #@! TA.AperFunction,Plated,PTH,ComponentDrill
T5C1.020
; #@! TA.AperFunction,Plated,PTH,ComponentDrill
T6C1.100
; #@! TA.AperFunction,Plated,PTH,ComponentDrill
T7C1.200
; #@! TA.AperFunction,Plated,PTH,ComponentDrill
T8C1.501
%
G90
G05
T1
X90.17Y-52.07
X90.715Y-59.69
X91.224Y-58.674
X105.664Y-75.438
X106.172Y-81.026
X107.188Y-81.534
X107.442Y-76.454
X116.84Y-46.99
X116.84Y-59.69
X140.97Y-104.14
X166.37Y-86.36
X170.18Y-83.82
X175.26Y-85.09
X186.69Y-78.74
X189.865Y-47.625
X189.865Y-52.07
X190.5Y-66.04
X208.28Y-72.39
X210.82Y-69.215
T2
X93.213Y-72.093
X93.213Y-79.713
X95.753Y-72.093
X95.753Y-79.713
X96.711Y-47.169
X96.711Y-49.709
X96.711Y-52.249
X96.711Y-54.789
X96.711Y-57.329
X96.711Y-59.869
X96.711Y-62.409
X96.711Y-64.949
X96.711Y-67.489
X98.293Y-72.093
X98.293Y-79.713
X99.251Y-67.699
X100.833Y-72.093
X100.833Y-79.713
X101.791Y-67.699
X103.373Y-72.093
X103.373Y-79.713
X104.331Y-67.699
X106.871Y-67.699
X109.411Y-67.699
X111.951Y-47.169
X111.951Y-49.709
X111.951Y-52.249
X111.951Y-54.789
X111.951Y-57.329
X111.951Y-59.869
X111.951Y-62.409
X111.951Y-64.949
X111.951Y-67.489
T3
X196.877Y-71.406
X196.877Y-73.947
X199.417Y-71.406
X199.417Y-73.947
X201.957Y-71.406
X201.957Y-73.947
X204.497Y-71.406
X204.497Y-73.947
X213.106Y-73.421
X213.106Y-75.961
X213.106Y-78.501
T4
X145.065Y-96.206
X145.065Y-98.706
X145.065Y-101.205
X151.296Y-107.436
X153.795Y-107.436
X156.294Y-107.436
T5
X189.331Y-55.111
X189.331Y-70.101
T6
X100.33Y-85.344
X100.33Y-89.844
X106.83Y-85.344
X106.83Y-89.844
X111.76Y-73.914
X111.76Y-78.414
X111.76Y-95.504
X111.76Y-100.004
X118.26Y-73.914
X118.26Y-78.414
X118.26Y-95.504
X118.26Y-100.004
X123.19Y-85.344
X123.19Y-89.844
X129.69Y-85.344
X129.69Y-89.844
X168.2Y-95.54
X168.2Y-100.04
X174.7Y-95.54
X174.7Y-100.04
X183.44Y-87.92
X183.44Y-92.42
X189.94Y-87.92
X189.94Y-92.42
X197.41Y-80.046
X197.41Y-84.546
X203.91Y-80.046
X203.91Y-84.546
T7
X150.544Y-88.456
X150.544Y-92.956
X157.046Y-88.456
X157.046Y-92.956
T8
X147.47Y-93.706
X147.47Y-103.706
X160.12Y-93.706
X160.12Y-103.706
T0
M30
