%TF.GenerationSoftware,KiCad,Pcbnew,(6.0.9)*%
%TF.CreationDate,2022-11-26T23:56:03-05:00*%
%TF.ProjectId,rf_controller_hw,72665f63-6f6e-4747-926f-6c6c65725f68,rev?*%
%TF.SameCoordinates,Original*%
%TF.FileFunction,Legend,Top*%
%TF.FilePolarity,Positive*%
%FSLAX46Y46*%
G04 Gerber Fmt 4.6, Leading zero omitted, Abs format (unit mm)*
G04 Created by KiCad (PCBNEW (6.0.9)) date 2022-11-26 23:56:03*
%MOMM*%
%LPD*%
G01*
G04 APERTURE LIST*
G04 Aperture macros list*
%AMRoundRect*
0 Rectangle with rounded corners*
0 $1 Rounding radius*
0 $2 $3 $4 $5 $6 $7 $8 $9 X,Y pos of 4 corners*
0 Add a 4 corners polygon primitive as box body*
4,1,4,$2,$3,$4,$5,$6,$7,$8,$9,$2,$3,0*
0 Add four circle primitives for the rounded corners*
1,1,$1+$1,$2,$3*
1,1,$1+$1,$4,$5*
1,1,$1+$1,$6,$7*
1,1,$1+$1,$8,$9*
0 Add four rect primitives between the rounded corners*
20,1,$1+$1,$2,$3,$4,$5,0*
20,1,$1+$1,$4,$5,$6,$7,0*
20,1,$1+$1,$6,$7,$8,$9,0*
20,1,$1+$1,$8,$9,$2,$3,0*%
G04 Aperture macros list end*
%ADD10C,0.300000*%
%ADD11C,0.150000*%
%ADD12C,0.120000*%
%ADD13C,2.517140*%
%ADD14C,1.998980*%
%ADD15R,1.700000X1.700000*%
%ADD16O,1.700000X1.700000*%
%ADD17C,2.000000*%
%ADD18RoundRect,0.400000X-0.900000X-0.400000X0.900000X-0.400000X0.900000X0.400000X-0.900000X0.400000X0*%
%ADD19RoundRect,0.400050X-0.899950X-0.400050X0.899950X-0.400050X0.899950X0.400050X-0.899950X0.400050X0*%
%ADD20RoundRect,0.400000X-0.400000X-0.900000X0.400000X-0.900000X0.400000X0.900000X-0.400000X0.900000X0*%
%ADD21RoundRect,0.393700X-0.393700X-0.906300X0.393700X-0.906300X0.393700X0.906300X-0.393700X0.906300X0*%
%ADD22O,1.600000X1.600000*%
%ADD23R,1.600000X1.600000*%
%ADD24C,3.300000*%
%ADD25R,2.000000X2.000000*%
G04 APERTURE END LIST*
D10*
X212177428Y-69536571D02*
X212463142Y-69536571D01*
X212606000Y-69608000D01*
X212748857Y-69750857D01*
X212820285Y-70036571D01*
X212820285Y-70536571D01*
X212748857Y-70822285D01*
X212606000Y-70965142D01*
X212463142Y-71036571D01*
X212177428Y-71036571D01*
X212034571Y-70965142D01*
X211891714Y-70822285D01*
X211820285Y-70536571D01*
X211820285Y-70036571D01*
X211891714Y-69750857D01*
X212034571Y-69608000D01*
X212177428Y-69536571D01*
X213463142Y-71036571D02*
X213463142Y-69536571D01*
X214320285Y-71036571D01*
X214320285Y-69536571D01*
D11*
X211296476Y-81430761D02*
X211439333Y-81478380D01*
X211677428Y-81478380D01*
X211772666Y-81430761D01*
X211820285Y-81383142D01*
X211867904Y-81287904D01*
X211867904Y-81192666D01*
X211820285Y-81097428D01*
X211772666Y-81049809D01*
X211677428Y-81002190D01*
X211486952Y-80954571D01*
X211391714Y-80906952D01*
X211344095Y-80859333D01*
X211296476Y-80764095D01*
X211296476Y-80668857D01*
X211344095Y-80573619D01*
X211391714Y-80526000D01*
X211486952Y-80478380D01*
X211725047Y-80478380D01*
X211867904Y-80526000D01*
X212201238Y-80478380D02*
X212439333Y-81478380D01*
X212629809Y-80764095D01*
X212820285Y-81478380D01*
X213058380Y-80478380D01*
X213963142Y-81478380D02*
X213391714Y-81478380D01*
X213677428Y-81478380D02*
X213677428Y-80478380D01*
X213582190Y-80621238D01*
X213486952Y-80716476D01*
X213391714Y-80764095D01*
X214582190Y-80478380D02*
X214677428Y-80478380D01*
X214772666Y-80526000D01*
X214820285Y-80573619D01*
X214867904Y-80668857D01*
X214915523Y-80859333D01*
X214915523Y-81097428D01*
X214867904Y-81287904D01*
X214820285Y-81383142D01*
X214772666Y-81430761D01*
X214677428Y-81478380D01*
X214582190Y-81478380D01*
X214486952Y-81430761D01*
X214439333Y-81383142D01*
X214391714Y-81287904D01*
X214344095Y-81097428D01*
X214344095Y-80859333D01*
X214391714Y-80668857D01*
X214439333Y-80573619D01*
X214486952Y-80526000D01*
X214582190Y-80478380D01*
X204406666Y-82514761D02*
X204549523Y-82562380D01*
X204787619Y-82562380D01*
X204882857Y-82514761D01*
X204930476Y-82467142D01*
X204978095Y-82371904D01*
X204978095Y-82276666D01*
X204930476Y-82181428D01*
X204882857Y-82133809D01*
X204787619Y-82086190D01*
X204597142Y-82038571D01*
X204501904Y-81990952D01*
X204454285Y-81943333D01*
X204406666Y-81848095D01*
X204406666Y-81752857D01*
X204454285Y-81657619D01*
X204501904Y-81610000D01*
X204597142Y-81562380D01*
X204835238Y-81562380D01*
X204978095Y-81610000D01*
X205311428Y-81562380D02*
X205549523Y-82562380D01*
X205740000Y-81848095D01*
X205930476Y-82562380D01*
X206168571Y-81562380D01*
X206597142Y-82562380D02*
X206787619Y-82562380D01*
X206882857Y-82514761D01*
X206930476Y-82467142D01*
X207025714Y-82324285D01*
X207073333Y-82133809D01*
X207073333Y-81752857D01*
X207025714Y-81657619D01*
X206978095Y-81610000D01*
X206882857Y-81562380D01*
X206692380Y-81562380D01*
X206597142Y-81610000D01*
X206549523Y-81657619D01*
X206501904Y-81752857D01*
X206501904Y-81990952D01*
X206549523Y-82086190D01*
X206597142Y-82133809D01*
X206692380Y-82181428D01*
X206882857Y-82181428D01*
X206978095Y-82133809D01*
X207025714Y-82086190D01*
X207073333Y-81990952D01*
X190436666Y-91404761D02*
X190579523Y-91452380D01*
X190817619Y-91452380D01*
X190912857Y-91404761D01*
X190960476Y-91357142D01*
X191008095Y-91261904D01*
X191008095Y-91166666D01*
X190960476Y-91071428D01*
X190912857Y-91023809D01*
X190817619Y-90976190D01*
X190627142Y-90928571D01*
X190531904Y-90880952D01*
X190484285Y-90833333D01*
X190436666Y-90738095D01*
X190436666Y-90642857D01*
X190484285Y-90547619D01*
X190531904Y-90500000D01*
X190627142Y-90452380D01*
X190865238Y-90452380D01*
X191008095Y-90500000D01*
X191341428Y-90452380D02*
X191579523Y-91452380D01*
X191770000Y-90738095D01*
X191960476Y-91452380D01*
X192198571Y-90452380D01*
X192722380Y-90880952D02*
X192627142Y-90833333D01*
X192579523Y-90785714D01*
X192531904Y-90690476D01*
X192531904Y-90642857D01*
X192579523Y-90547619D01*
X192627142Y-90500000D01*
X192722380Y-90452380D01*
X192912857Y-90452380D01*
X193008095Y-90500000D01*
X193055714Y-90547619D01*
X193103333Y-90642857D01*
X193103333Y-90690476D01*
X193055714Y-90785714D01*
X193008095Y-90833333D01*
X192912857Y-90880952D01*
X192722380Y-90880952D01*
X192627142Y-90928571D01*
X192579523Y-90976190D01*
X192531904Y-91071428D01*
X192531904Y-91261904D01*
X192579523Y-91357142D01*
X192627142Y-91404761D01*
X192722380Y-91452380D01*
X192912857Y-91452380D01*
X193008095Y-91404761D01*
X193055714Y-91357142D01*
X193103333Y-91261904D01*
X193103333Y-91071428D01*
X193055714Y-90976190D01*
X193008095Y-90928571D01*
X192912857Y-90880952D01*
X175196666Y-100294761D02*
X175339523Y-100342380D01*
X175577619Y-100342380D01*
X175672857Y-100294761D01*
X175720476Y-100247142D01*
X175768095Y-100151904D01*
X175768095Y-100056666D01*
X175720476Y-99961428D01*
X175672857Y-99913809D01*
X175577619Y-99866190D01*
X175387142Y-99818571D01*
X175291904Y-99770952D01*
X175244285Y-99723333D01*
X175196666Y-99628095D01*
X175196666Y-99532857D01*
X175244285Y-99437619D01*
X175291904Y-99390000D01*
X175387142Y-99342380D01*
X175625238Y-99342380D01*
X175768095Y-99390000D01*
X176101428Y-99342380D02*
X176339523Y-100342380D01*
X176530000Y-99628095D01*
X176720476Y-100342380D01*
X176958571Y-99342380D01*
X177768095Y-99342380D02*
X177577619Y-99342380D01*
X177482380Y-99390000D01*
X177434761Y-99437619D01*
X177339523Y-99580476D01*
X177291904Y-99770952D01*
X177291904Y-100151904D01*
X177339523Y-100247142D01*
X177387142Y-100294761D01*
X177482380Y-100342380D01*
X177672857Y-100342380D01*
X177768095Y-100294761D01*
X177815714Y-100247142D01*
X177863333Y-100151904D01*
X177863333Y-99913809D01*
X177815714Y-99818571D01*
X177768095Y-99770952D01*
X177672857Y-99723333D01*
X177482380Y-99723333D01*
X177387142Y-99770952D01*
X177339523Y-99818571D01*
X177291904Y-99913809D01*
X114236666Y-104104761D02*
X114379523Y-104152380D01*
X114617619Y-104152380D01*
X114712857Y-104104761D01*
X114760476Y-104057142D01*
X114808095Y-103961904D01*
X114808095Y-103866666D01*
X114760476Y-103771428D01*
X114712857Y-103723809D01*
X114617619Y-103676190D01*
X114427142Y-103628571D01*
X114331904Y-103580952D01*
X114284285Y-103533333D01*
X114236666Y-103438095D01*
X114236666Y-103342857D01*
X114284285Y-103247619D01*
X114331904Y-103200000D01*
X114427142Y-103152380D01*
X114665238Y-103152380D01*
X114808095Y-103200000D01*
X115141428Y-103152380D02*
X115379523Y-104152380D01*
X115570000Y-103438095D01*
X115760476Y-104152380D01*
X115998571Y-103152380D01*
X116284285Y-103152380D02*
X116903333Y-103152380D01*
X116570000Y-103533333D01*
X116712857Y-103533333D01*
X116808095Y-103580952D01*
X116855714Y-103628571D01*
X116903333Y-103723809D01*
X116903333Y-103961904D01*
X116855714Y-104057142D01*
X116808095Y-104104761D01*
X116712857Y-104152380D01*
X116427142Y-104152380D01*
X116331904Y-104104761D01*
X116284285Y-104057142D01*
X125666666Y-93944761D02*
X125809523Y-93992380D01*
X126047619Y-93992380D01*
X126142857Y-93944761D01*
X126190476Y-93897142D01*
X126238095Y-93801904D01*
X126238095Y-93706666D01*
X126190476Y-93611428D01*
X126142857Y-93563809D01*
X126047619Y-93516190D01*
X125857142Y-93468571D01*
X125761904Y-93420952D01*
X125714285Y-93373333D01*
X125666666Y-93278095D01*
X125666666Y-93182857D01*
X125714285Y-93087619D01*
X125761904Y-93040000D01*
X125857142Y-92992380D01*
X126095238Y-92992380D01*
X126238095Y-93040000D01*
X126571428Y-92992380D02*
X126809523Y-93992380D01*
X127000000Y-93278095D01*
X127190476Y-93992380D01*
X127428571Y-92992380D01*
X128238095Y-93325714D02*
X128238095Y-93992380D01*
X128000000Y-92944761D02*
X127761904Y-93659047D01*
X128380952Y-93659047D01*
X102806666Y-93944761D02*
X102949523Y-93992380D01*
X103187619Y-93992380D01*
X103282857Y-93944761D01*
X103330476Y-93897142D01*
X103378095Y-93801904D01*
X103378095Y-93706666D01*
X103330476Y-93611428D01*
X103282857Y-93563809D01*
X103187619Y-93516190D01*
X102997142Y-93468571D01*
X102901904Y-93420952D01*
X102854285Y-93373333D01*
X102806666Y-93278095D01*
X102806666Y-93182857D01*
X102854285Y-93087619D01*
X102901904Y-93040000D01*
X102997142Y-92992380D01*
X103235238Y-92992380D01*
X103378095Y-93040000D01*
X103711428Y-92992380D02*
X103949523Y-93992380D01*
X104140000Y-93278095D01*
X104330476Y-93992380D01*
X104568571Y-92992380D01*
X105473333Y-93992380D02*
X104901904Y-93992380D01*
X105187619Y-93992380D02*
X105187619Y-92992380D01*
X105092380Y-93135238D01*
X104997142Y-93230476D01*
X104901904Y-93278095D01*
X114236666Y-82514761D02*
X114379523Y-82562380D01*
X114617619Y-82562380D01*
X114712857Y-82514761D01*
X114760476Y-82467142D01*
X114808095Y-82371904D01*
X114808095Y-82276666D01*
X114760476Y-82181428D01*
X114712857Y-82133809D01*
X114617619Y-82086190D01*
X114427142Y-82038571D01*
X114331904Y-81990952D01*
X114284285Y-81943333D01*
X114236666Y-81848095D01*
X114236666Y-81752857D01*
X114284285Y-81657619D01*
X114331904Y-81610000D01*
X114427142Y-81562380D01*
X114665238Y-81562380D01*
X114808095Y-81610000D01*
X115141428Y-81562380D02*
X115379523Y-82562380D01*
X115570000Y-81848095D01*
X115760476Y-82562380D01*
X115998571Y-81562380D01*
X116331904Y-81657619D02*
X116379523Y-81610000D01*
X116474761Y-81562380D01*
X116712857Y-81562380D01*
X116808095Y-81610000D01*
X116855714Y-81657619D01*
X116903333Y-81752857D01*
X116903333Y-81848095D01*
X116855714Y-81990952D01*
X116284285Y-82562380D01*
X116903333Y-82562380D01*
X99950047Y-57031380D02*
X99616714Y-56555190D01*
X99378619Y-57031380D02*
X99378619Y-56031380D01*
X99759571Y-56031380D01*
X99854809Y-56079000D01*
X99902428Y-56126619D01*
X99950047Y-56221857D01*
X99950047Y-56364714D01*
X99902428Y-56459952D01*
X99854809Y-56507571D01*
X99759571Y-56555190D01*
X99378619Y-56555190D01*
X100378619Y-57031380D02*
X100378619Y-56031380D01*
X100759571Y-56031380D01*
X100854809Y-56079000D01*
X100902428Y-56126619D01*
X100950047Y-56221857D01*
X100950047Y-56364714D01*
X100902428Y-56459952D01*
X100854809Y-56507571D01*
X100759571Y-56555190D01*
X100378619Y-56555190D01*
X101331000Y-56126619D02*
X101378619Y-56079000D01*
X101473857Y-56031380D01*
X101711952Y-56031380D01*
X101807190Y-56079000D01*
X101854809Y-56126619D01*
X101902428Y-56221857D01*
X101902428Y-56317095D01*
X101854809Y-56459952D01*
X101283380Y-57031380D01*
X101902428Y-57031380D01*
X102521476Y-56031380D02*
X102616714Y-56031380D01*
X102711952Y-56079000D01*
X102759571Y-56126619D01*
X102807190Y-56221857D01*
X102854809Y-56412333D01*
X102854809Y-56650428D01*
X102807190Y-56840904D01*
X102759571Y-56936142D01*
X102711952Y-56983761D01*
X102616714Y-57031380D01*
X102521476Y-57031380D01*
X102426238Y-56983761D01*
X102378619Y-56936142D01*
X102331000Y-56840904D01*
X102283380Y-56650428D01*
X102283380Y-56412333D01*
X102331000Y-56221857D01*
X102378619Y-56126619D01*
X102426238Y-56079000D01*
X102521476Y-56031380D01*
X103711952Y-56364714D02*
X103711952Y-57031380D01*
X103473857Y-55983761D02*
X103235761Y-56698047D01*
X103854809Y-56698047D01*
X104426238Y-56031380D02*
X104521476Y-56031380D01*
X104616714Y-56079000D01*
X104664333Y-56126619D01*
X104711952Y-56221857D01*
X104759571Y-56412333D01*
X104759571Y-56650428D01*
X104711952Y-56840904D01*
X104664333Y-56936142D01*
X104616714Y-56983761D01*
X104521476Y-57031380D01*
X104426238Y-57031380D01*
X104331000Y-56983761D01*
X104283380Y-56936142D01*
X104235761Y-56840904D01*
X104188142Y-56650428D01*
X104188142Y-56412333D01*
X104235761Y-56221857D01*
X104283380Y-56126619D01*
X104331000Y-56079000D01*
X104426238Y-56031380D01*
X105188142Y-56650428D02*
X105950047Y-56650428D01*
X106331000Y-56031380D02*
X106997666Y-56031380D01*
X106331000Y-57031380D01*
X106997666Y-57031380D01*
X107759571Y-56983761D02*
X107664333Y-57031380D01*
X107473857Y-57031380D01*
X107378619Y-56983761D01*
X107331000Y-56888523D01*
X107331000Y-56507571D01*
X107378619Y-56412333D01*
X107473857Y-56364714D01*
X107664333Y-56364714D01*
X107759571Y-56412333D01*
X107807190Y-56507571D01*
X107807190Y-56602809D01*
X107331000Y-56698047D01*
X108235761Y-57031380D02*
X108235761Y-56364714D01*
X108235761Y-56555190D02*
X108283380Y-56459952D01*
X108331000Y-56412333D01*
X108426238Y-56364714D01*
X108521476Y-56364714D01*
X108997666Y-57031380D02*
X108902428Y-56983761D01*
X108854809Y-56936142D01*
X108807190Y-56840904D01*
X108807190Y-56555190D01*
X108854809Y-56459952D01*
X108902428Y-56412333D01*
X108997666Y-56364714D01*
X109140523Y-56364714D01*
X109235761Y-56412333D01*
X109283380Y-56459952D01*
X109331000Y-56555190D01*
X109331000Y-56840904D01*
X109283380Y-56936142D01*
X109235761Y-56983761D01*
X109140523Y-57031380D01*
X108997666Y-57031380D01*
X194344619Y-72713166D02*
X193630333Y-72713166D01*
X193487476Y-72665547D01*
X193392238Y-72570309D01*
X193344619Y-72427452D01*
X193344619Y-72332214D01*
X193344619Y-73713166D02*
X193344619Y-73141738D01*
X193344619Y-73427452D02*
X194344619Y-73427452D01*
X194201761Y-73332214D01*
X194106523Y-73236976D01*
X194058904Y-73141738D01*
D12*
X211776000Y-79831000D02*
X214436000Y-79831000D01*
X211776000Y-74691000D02*
X211776000Y-79831000D01*
X211776000Y-73421000D02*
X211776000Y-72091000D01*
X214436000Y-74691000D02*
X214436000Y-79831000D01*
X211776000Y-72091000D02*
X213106000Y-72091000D01*
X211776000Y-74691000D02*
X214436000Y-74691000D01*
G36*
X160755425Y-68320897D02*
G01*
X160833468Y-68336767D01*
X161055102Y-68391341D01*
X161181511Y-68443166D01*
X161227247Y-68509856D01*
X161206859Y-68609023D01*
X161152841Y-68723337D01*
X161036390Y-68951599D01*
X160761741Y-68919071D01*
X160499130Y-68903783D01*
X160315045Y-68938146D01*
X160183635Y-69032183D01*
X160086624Y-69180825D01*
X159972731Y-69490531D01*
X159925704Y-69820756D01*
X159944642Y-70141273D01*
X160028646Y-70421858D01*
X160128357Y-70581526D01*
X160224911Y-70684266D01*
X160315758Y-70730702D01*
X160445806Y-70735950D01*
X160557614Y-70726003D01*
X160746356Y-70701768D01*
X160903708Y-70673610D01*
X160954067Y-70660769D01*
X161037705Y-70658076D01*
X161114300Y-70723472D01*
X161193401Y-70848852D01*
X161319284Y-71072830D01*
X161184491Y-71161150D01*
X160881378Y-71298161D01*
X160537714Y-71353758D01*
X160191541Y-71325824D01*
X159917389Y-71231649D01*
X159657064Y-71040999D01*
X159453582Y-70772733D01*
X159310591Y-70447395D01*
X159231736Y-70085528D01*
X159220663Y-69707677D01*
X159281019Y-69334385D01*
X159416449Y-68986196D01*
X159495415Y-68854136D01*
X159745142Y-68566631D01*
X160038603Y-68381839D01*
X160375473Y-68299885D01*
X160755425Y-68320897D01*
G37*
G36*
X161575670Y-69373970D02*
G01*
X161684411Y-68994707D01*
X161860119Y-68689157D01*
X162098268Y-68466636D01*
X162229739Y-68393721D01*
X162543298Y-68300081D01*
X162847233Y-68313816D01*
X163033507Y-68373621D01*
X163328874Y-68554430D01*
X163551094Y-68818739D01*
X163699379Y-69165025D01*
X163772941Y-69591761D01*
X163781480Y-69822088D01*
X163744896Y-70253533D01*
X163639534Y-70631495D01*
X163471975Y-70943079D01*
X163248800Y-71175391D01*
X163028080Y-71298005D01*
X162788508Y-71348950D01*
X162521715Y-71346872D01*
X162284394Y-71293602D01*
X162236219Y-71272454D01*
X161966878Y-71076185D01*
X161758531Y-70794044D01*
X161616376Y-70436863D01*
X161545606Y-70015473D01*
X161544595Y-69987640D01*
X162233040Y-69987640D01*
X162263753Y-70266504D01*
X162326055Y-70494750D01*
X162387863Y-70606309D01*
X162534675Y-70717506D01*
X162704582Y-70730577D01*
X162871719Y-70647735D01*
X162956414Y-70557665D01*
X163010712Y-70470289D01*
X163045370Y-70366904D01*
X163064571Y-70221258D01*
X163072496Y-70007095D01*
X163073582Y-69822088D01*
X163070676Y-69550340D01*
X163059168Y-69363898D01*
X163034878Y-69236510D01*
X162993623Y-69141922D01*
X162956414Y-69086511D01*
X162809532Y-68957612D01*
X162639934Y-68909276D01*
X162480840Y-68946824D01*
X162415261Y-68999854D01*
X162325026Y-69164263D01*
X162264217Y-69404826D01*
X162233375Y-69689849D01*
X162233040Y-69987640D01*
X161544595Y-69987640D01*
X161538417Y-69817629D01*
X161575670Y-69373970D01*
G37*
G36*
X167120835Y-71301429D02*
G01*
X166450945Y-71301429D01*
X166446538Y-70561758D01*
X166442130Y-69822088D01*
X166189769Y-70564483D01*
X165937407Y-71306878D01*
X165654306Y-71290197D01*
X165371206Y-71273517D01*
X165133930Y-70575715D01*
X164896655Y-69877912D01*
X164892261Y-70589671D01*
X164887868Y-71301429D01*
X164160300Y-71301429D01*
X164175183Y-69836044D01*
X164190066Y-68370660D01*
X164561074Y-68354285D01*
X164932083Y-68337911D01*
X165076036Y-68717142D01*
X165259646Y-69204065D01*
X165403169Y-69592027D01*
X165508231Y-69885630D01*
X165576461Y-70089475D01*
X165609486Y-70208165D01*
X165613310Y-70236117D01*
X165621163Y-70287474D01*
X165646466Y-70273639D01*
X165692674Y-70186891D01*
X165763240Y-70019512D01*
X165861619Y-69763779D01*
X165991266Y-69411974D01*
X166030758Y-69303163D01*
X166368400Y-68370660D01*
X166744617Y-68354153D01*
X167120835Y-68337646D01*
X167120835Y-71301429D01*
G37*
G36*
X170581934Y-71301429D02*
G01*
X169915284Y-71301429D01*
X169899708Y-70570694D01*
X169884131Y-69839960D01*
X169632923Y-70572712D01*
X169381714Y-71305464D01*
X169107009Y-71289491D01*
X168832305Y-71273517D01*
X168595029Y-70575715D01*
X168357754Y-69877912D01*
X168353360Y-70589671D01*
X168348967Y-71301429D01*
X167621399Y-71301429D01*
X167636282Y-69836044D01*
X167651164Y-68370660D01*
X168022435Y-68354279D01*
X168393705Y-68337899D01*
X168483760Y-68577576D01*
X168536251Y-68719213D01*
X168616587Y-68938321D01*
X168714704Y-69207356D01*
X168820540Y-69498773D01*
X168843823Y-69563053D01*
X169113833Y-70308854D01*
X169353912Y-69646790D01*
X169459135Y-69358681D01*
X169563519Y-69076420D01*
X169654367Y-68834149D01*
X169714380Y-68677693D01*
X169834769Y-68370660D01*
X170208351Y-68354153D01*
X170581934Y-68337646D01*
X170581934Y-71301429D01*
G37*
G36*
X171272174Y-69822088D02*
G01*
X171680148Y-68370660D01*
X172386438Y-68370660D01*
X172764650Y-69710440D01*
X172870510Y-70085865D01*
X172967631Y-70431105D01*
X173051448Y-70729864D01*
X173117395Y-70965848D01*
X173160905Y-71122762D01*
X173175979Y-71178414D01*
X173188138Y-71246064D01*
X173165438Y-71282976D01*
X173085352Y-71296493D01*
X172925354Y-71293954D01*
X172833377Y-71290062D01*
X172457657Y-71273517D01*
X172340093Y-70715275D01*
X172050077Y-70698503D01*
X171760062Y-70681730D01*
X171698571Y-70921799D01*
X171655586Y-71084984D01*
X171621362Y-71206975D01*
X171613677Y-71231649D01*
X171540575Y-71276088D01*
X171359279Y-71298530D01*
X171225664Y-71301429D01*
X171040643Y-71299480D01*
X170909963Y-71294381D01*
X170862628Y-71287473D01*
X170877529Y-71232256D01*
X170918759Y-71083586D01*
X170982400Y-70855486D01*
X171064532Y-70561975D01*
X171161239Y-70217074D01*
X171185941Y-70129121D01*
X171825295Y-70129121D01*
X172241429Y-70129121D01*
X172154610Y-69766264D01*
X172106112Y-69583325D01*
X172062523Y-69452936D01*
X172033362Y-69403407D01*
X172004084Y-69453230D01*
X171960465Y-69583825D01*
X171912114Y-69766264D01*
X171825295Y-70129121D01*
X171185941Y-70129121D01*
X171268600Y-69834805D01*
X171272174Y-69822088D01*
G37*
G36*
X174231975Y-68370660D02*
G01*
X174527140Y-69040550D01*
X174822304Y-69710440D01*
X174823438Y-69026594D01*
X174824571Y-68342748D01*
X175550285Y-68342748D01*
X175550285Y-71301429D01*
X174904623Y-71301429D01*
X174531129Y-70478022D01*
X174157635Y-69654616D01*
X174156158Y-70478022D01*
X174154681Y-71301429D01*
X173484791Y-71301429D01*
X173484791Y-68337646D01*
X174231975Y-68370660D01*
G37*
G36*
X176630526Y-68342748D02*
G01*
X177052167Y-68358767D01*
X177381970Y-68411596D01*
X177635736Y-68508391D01*
X177829264Y-68656310D01*
X177978357Y-68862508D01*
X178036714Y-68979672D01*
X178170254Y-69406152D01*
X178205564Y-69853822D01*
X178145802Y-70268682D01*
X178014461Y-70631163D01*
X177830401Y-70905634D01*
X177581919Y-71107930D01*
X177486859Y-71160020D01*
X177339961Y-71226389D01*
X177200115Y-71268291D01*
X177034561Y-71291118D01*
X176810539Y-71300264D01*
X176627896Y-71301429D01*
X176052703Y-71301429D01*
X176052703Y-70687363D01*
X176722593Y-70687363D01*
X176940927Y-70687363D01*
X177115821Y-70664981D01*
X177246430Y-70578850D01*
X177300404Y-70519625D01*
X177428930Y-70284737D01*
X177490950Y-69971312D01*
X177484157Y-69592156D01*
X177477656Y-69535136D01*
X177412267Y-69256890D01*
X177293690Y-69072978D01*
X177115457Y-68976333D01*
X176948427Y-68956813D01*
X176722593Y-68956813D01*
X176722593Y-70687363D01*
X176052703Y-70687363D01*
X176052703Y-68342748D01*
X176630526Y-68342748D01*
G37*
G36*
X180295340Y-68956813D02*
G01*
X179290505Y-68956813D01*
X179290505Y-69459231D01*
X180072044Y-69459231D01*
X180072044Y-70073297D01*
X179290505Y-70073297D01*
X179290505Y-70687363D01*
X180351164Y-70687363D01*
X180351164Y-71301429D01*
X178564791Y-71301429D01*
X178564791Y-68342748D01*
X180295340Y-68342748D01*
X180295340Y-68956813D01*
G37*
G36*
X181206307Y-68342748D02*
G01*
X181668598Y-68367350D01*
X182037076Y-68443187D01*
X182318639Y-68573308D01*
X182520187Y-68760760D01*
X182636404Y-68974404D01*
X182687244Y-69255053D01*
X182649361Y-69551102D01*
X182533157Y-69827130D01*
X182349030Y-70047721D01*
X182312836Y-70076338D01*
X182142792Y-70202057D01*
X182447198Y-70593827D01*
X182632682Y-70854296D01*
X182732221Y-71048195D01*
X182751604Y-71143513D01*
X182745527Y-71234232D01*
X182708877Y-71281200D01*
X182614031Y-71298802D01*
X182448374Y-71301429D01*
X182145144Y-71301429D01*
X181792440Y-70812967D01*
X181439736Y-70324506D01*
X181423606Y-70812967D01*
X181407477Y-71301429D01*
X180686110Y-71301429D01*
X180686110Y-69738352D01*
X181411824Y-69738352D01*
X181604043Y-69738352D01*
X181781570Y-69704303D01*
X181883164Y-69614282D01*
X181952692Y-69446251D01*
X181964282Y-69256042D01*
X181918002Y-69092508D01*
X181882342Y-69044537D01*
X181767524Y-68983651D01*
X181610264Y-68956872D01*
X181603221Y-68956813D01*
X181411824Y-68956813D01*
X181411824Y-69738352D01*
X180686110Y-69738352D01*
X180686110Y-68342748D01*
X181206307Y-68342748D01*
G37*
G36*
X163040024Y-59424835D02*
G01*
X163077195Y-59619596D01*
X163124380Y-59876877D01*
X163172895Y-60149125D01*
X163185321Y-60220330D01*
X163227391Y-60459378D01*
X163265225Y-60668461D01*
X163292776Y-60814375D01*
X163299721Y-60848352D01*
X163307781Y-60904189D01*
X163290295Y-60940405D01*
X163228333Y-60961247D01*
X163102962Y-60970961D01*
X162895248Y-60973794D01*
X162739701Y-60973956D01*
X162498840Y-60976942D01*
X162305830Y-60985016D01*
X162183710Y-60996856D01*
X162152483Y-61007684D01*
X162177065Y-61064128D01*
X162246503Y-61206880D01*
X162354339Y-61423093D01*
X162494114Y-61699921D01*
X162659368Y-62024515D01*
X162843643Y-62384027D01*
X162878197Y-62451191D01*
X163065224Y-62815723D01*
X163234382Y-63147761D01*
X163379210Y-63434431D01*
X163493247Y-63662864D01*
X163570031Y-63820186D01*
X163603100Y-63893528D01*
X163603912Y-63896803D01*
X163552260Y-63912631D01*
X163413963Y-63924884D01*
X163214013Y-63931767D01*
X163104789Y-63932638D01*
X162880180Y-63937344D01*
X162701273Y-63949935D01*
X162594942Y-63968119D01*
X162577890Y-63977580D01*
X162586580Y-64039981D01*
X162624023Y-64196439D01*
X162686701Y-64434128D01*
X162771098Y-64740223D01*
X162873698Y-65101897D01*
X162990982Y-65506325D01*
X163077705Y-65800477D01*
X163203087Y-66225436D01*
X163316681Y-66615135D01*
X163414923Y-66956980D01*
X163494250Y-67238376D01*
X163551101Y-67446729D01*
X163581911Y-67569445D01*
X163586116Y-67597612D01*
X163545549Y-67561962D01*
X163437230Y-67452257D01*
X163268897Y-67276702D01*
X163048287Y-67043503D01*
X162783136Y-66760866D01*
X162481183Y-66436996D01*
X162150163Y-66080098D01*
X161906747Y-65816583D01*
X160246559Y-64016374D01*
X160627323Y-63972771D01*
X160858457Y-63943789D01*
X161076534Y-63912279D01*
X161212774Y-63889034D01*
X161417461Y-63848901D01*
X160228510Y-62509121D01*
X159941163Y-62183117D01*
X159680985Y-61883682D01*
X159456479Y-61620940D01*
X159276143Y-61405011D01*
X159148480Y-61246017D01*
X159081990Y-61154078D01*
X159074813Y-61135459D01*
X159141307Y-61116572D01*
X159295401Y-61090775D01*
X159513534Y-61061582D01*
X159750403Y-61034756D01*
X160005069Y-61006502D01*
X160215884Y-60979943D01*
X160359876Y-60958187D01*
X160413673Y-60945001D01*
X160385520Y-60898460D01*
X160293264Y-60783383D01*
X160148443Y-60613352D01*
X159962600Y-60401949D01*
X159773335Y-60191427D01*
X159547225Y-59941323D01*
X159338280Y-59708312D01*
X159161926Y-59509740D01*
X159033588Y-59362954D01*
X158977307Y-59296271D01*
X158844548Y-59131758D01*
X162981930Y-59131758D01*
X163040024Y-59424835D01*
G37*
G36*
X183152117Y-59027450D02*
G01*
X183368027Y-59030729D01*
X183499238Y-59036366D01*
X183533142Y-59042653D01*
X183497274Y-59094223D01*
X183397022Y-59215393D01*
X183243415Y-59393433D01*
X183047484Y-59615612D01*
X182820256Y-59869202D01*
X182743215Y-59954376D01*
X182468342Y-60256946D01*
X182264944Y-60485862D01*
X182131773Y-60652185D01*
X182067582Y-60766980D01*
X182071123Y-60841307D01*
X182141150Y-60886229D01*
X182276415Y-60912810D01*
X182475672Y-60932111D01*
X182631490Y-60945334D01*
X182845785Y-60962159D01*
X183015439Y-60976976D01*
X183137675Y-60998826D01*
X183209715Y-61036752D01*
X183228782Y-61099795D01*
X183192098Y-61196998D01*
X183096885Y-61337403D01*
X182940367Y-61530051D01*
X182719765Y-61783984D01*
X182432301Y-62108246D01*
X182190399Y-62381246D01*
X181904173Y-62706810D01*
X181643317Y-63006577D01*
X181416695Y-63270118D01*
X181233170Y-63487007D01*
X181101605Y-63646816D01*
X181030862Y-63739120D01*
X181021055Y-63756968D01*
X181072707Y-63783660D01*
X181211321Y-63812135D01*
X181412377Y-63838009D01*
X181537428Y-63849290D01*
X181767841Y-63869379D01*
X181954967Y-63889756D01*
X182071633Y-63907264D01*
X182095176Y-63914029D01*
X182065869Y-63957455D01*
X181969729Y-64072398D01*
X181816048Y-64248703D01*
X181614120Y-64476217D01*
X181373239Y-64744785D01*
X181102697Y-65044253D01*
X180811788Y-65364468D01*
X180509806Y-65695276D01*
X180206042Y-66026523D01*
X179909792Y-66348054D01*
X179630347Y-66649716D01*
X179377002Y-66921355D01*
X179159050Y-67152817D01*
X178985783Y-67333947D01*
X178866496Y-67454593D01*
X178810481Y-67504599D01*
X178808232Y-67505385D01*
X178798306Y-67461482D01*
X178809801Y-67407693D01*
X178831227Y-67335580D01*
X178879589Y-67172534D01*
X178950110Y-66934669D01*
X179038016Y-66638103D01*
X179138531Y-66298950D01*
X179246879Y-65933328D01*
X179358286Y-65557352D01*
X179467976Y-65187139D01*
X179571173Y-64838804D01*
X179663102Y-64528464D01*
X179738988Y-64272235D01*
X179794054Y-64086233D01*
X179823527Y-63986573D01*
X179824598Y-63982942D01*
X179821587Y-63939306D01*
X179769800Y-63908342D01*
X179650717Y-63885269D01*
X179445820Y-63865302D01*
X179338054Y-63857282D01*
X179111379Y-63839186D01*
X178930996Y-63821002D01*
X178822869Y-63805536D01*
X178803923Y-63799608D01*
X178822903Y-63746490D01*
X178887015Y-63606870D01*
X178990056Y-63393394D01*
X179125826Y-63118707D01*
X179288122Y-62795456D01*
X179470745Y-62436287D01*
X179511084Y-62357507D01*
X179698199Y-61991283D01*
X179867522Y-61657477D01*
X180012634Y-61368939D01*
X180127115Y-61138518D01*
X180204545Y-60979064D01*
X180238505Y-60903427D01*
X180239516Y-60899492D01*
X180187546Y-60884211D01*
X180047027Y-60871976D01*
X179841048Y-60864254D01*
X179654758Y-60862308D01*
X179070000Y-60862308D01*
X179099199Y-60708791D01*
X179120166Y-60596379D01*
X179156240Y-60400774D01*
X179202521Y-60148622D01*
X179254109Y-59866572D01*
X179258842Y-59840647D01*
X179309588Y-59571678D01*
X179355563Y-59344543D01*
X179392187Y-59180730D01*
X179414881Y-59101729D01*
X179417031Y-59098272D01*
X179478827Y-59089064D01*
X179636000Y-59079780D01*
X179873544Y-59070625D01*
X180176454Y-59061800D01*
X180529723Y-59053509D01*
X180918344Y-59045955D01*
X181327312Y-59039340D01*
X181741619Y-59033867D01*
X182146259Y-59029739D01*
X182526227Y-59027158D01*
X182866515Y-59026327D01*
X183152117Y-59027450D01*
G37*
G36*
X174028906Y-63665353D02*
G01*
X174066330Y-63485947D01*
X174189632Y-63120938D01*
X174352907Y-62849749D01*
X174565371Y-62658871D01*
X174671040Y-62599620D01*
X174997268Y-62496577D01*
X175319486Y-62505086D01*
X175611285Y-62611060D01*
X175845017Y-62794243D01*
X176029931Y-63058778D01*
X176162073Y-63383777D01*
X176237490Y-63748353D01*
X176252227Y-64131621D01*
X176202331Y-64512692D01*
X176083848Y-64870682D01*
X176051674Y-64937473D01*
X175855014Y-65215825D01*
X175600505Y-65413098D01*
X175307152Y-65521009D01*
X174993959Y-65531276D01*
X174796659Y-65484454D01*
X174535778Y-65337244D01*
X174319137Y-65103212D01*
X174153433Y-64800682D01*
X174045362Y-64447979D01*
X174021103Y-64234707D01*
X174719547Y-64234707D01*
X174724244Y-64431461D01*
X174741710Y-64568331D01*
X174775053Y-64671104D01*
X174821382Y-64756044D01*
X174964178Y-64900714D01*
X175141310Y-64940245D01*
X175324787Y-64882827D01*
X175431041Y-64774278D01*
X175502726Y-64576932D01*
X175541573Y-64283973D01*
X175550199Y-63994088D01*
X175534792Y-63642533D01*
X175485621Y-63388285D01*
X175398039Y-63220863D01*
X175267401Y-63129789D01*
X175156663Y-63106523D01*
X174999871Y-63109452D01*
X174886372Y-63158017D01*
X174808980Y-63266284D01*
X174760509Y-63448319D01*
X174733770Y-63718186D01*
X174724510Y-63952285D01*
X174719547Y-64234707D01*
X174021103Y-64234707D01*
X174001621Y-64063428D01*
X174028906Y-63665353D01*
G37*
G36*
X166353252Y-62548193D02*
G01*
X166658736Y-62564755D01*
X166880698Y-62589024D01*
X167047224Y-62625820D01*
X167186405Y-62679963D01*
X167220717Y-62697030D01*
X167464733Y-62871379D01*
X167614406Y-63098931D01*
X167676327Y-63390876D01*
X167678868Y-63474860D01*
X167644666Y-63782532D01*
X167532824Y-64028630D01*
X167342504Y-64232474D01*
X167257723Y-64306722D01*
X167215172Y-64369046D01*
X167220416Y-64441443D01*
X167279017Y-64545913D01*
X167396541Y-64704455D01*
X167493465Y-64829299D01*
X167649451Y-65055625D01*
X167724673Y-65233959D01*
X167734901Y-65317760D01*
X167729413Y-65423695D01*
X167693580Y-65476118D01*
X167598349Y-65493852D01*
X167460246Y-65495715D01*
X167185591Y-65495715D01*
X166423033Y-64462967D01*
X166390931Y-65495715D01*
X165725230Y-65495715D01*
X165725230Y-63932638D01*
X166395121Y-63932638D01*
X166586453Y-63932638D01*
X166765066Y-63897403D01*
X166893486Y-63785549D01*
X166993469Y-63591274D01*
X166996886Y-63408804D01*
X166913609Y-63260651D01*
X166753513Y-63169326D01*
X166615252Y-63151099D01*
X166395121Y-63151099D01*
X166395121Y-63932638D01*
X165725230Y-63932638D01*
X165725230Y-62522984D01*
X166353252Y-62548193D01*
G37*
G36*
X168664576Y-62564945D02*
G01*
X169004025Y-62548460D01*
X169343473Y-62531974D01*
X169401537Y-62715932D01*
X169458253Y-62902725D01*
X169531728Y-63155214D01*
X169617027Y-63455326D01*
X169709212Y-63784987D01*
X169803345Y-64126124D01*
X169894488Y-64460664D01*
X169977704Y-64770533D01*
X170048056Y-65037657D01*
X170100605Y-65243965D01*
X170130415Y-65371381D01*
X170135340Y-65401947D01*
X170116334Y-65455359D01*
X170043441Y-65484112D01*
X169892850Y-65494916D01*
X169802547Y-65495715D01*
X169469754Y-65495715D01*
X169409022Y-65258462D01*
X169366248Y-65096067D01*
X169332228Y-64974947D01*
X169324886Y-64951429D01*
X169254193Y-64905780D01*
X169091753Y-64883283D01*
X169018857Y-64881649D01*
X168829381Y-64895322D01*
X168725438Y-64933566D01*
X168712828Y-64951429D01*
X168685108Y-65046283D01*
X168643860Y-65199834D01*
X168628692Y-65258462D01*
X168567960Y-65495715D01*
X168244471Y-65495715D01*
X168065192Y-65491168D01*
X167935971Y-65479407D01*
X167892479Y-65467212D01*
X167899297Y-65408051D01*
X167933022Y-65255763D01*
X167990034Y-65024616D01*
X168066713Y-64728876D01*
X168159439Y-64382812D01*
X168194987Y-64253627D01*
X168810382Y-64253627D01*
X168831185Y-64301023D01*
X168947678Y-64321797D01*
X169018857Y-64323407D01*
X169174202Y-64311843D01*
X169230075Y-64274924D01*
X169227331Y-64253627D01*
X169201159Y-64163758D01*
X169161416Y-64004248D01*
X169128739Y-63862857D01*
X169084566Y-63691788D01*
X169043220Y-63575346D01*
X169018857Y-63541868D01*
X168987449Y-63591588D01*
X168944785Y-63720555D01*
X168908974Y-63862857D01*
X168865595Y-64048657D01*
X168828321Y-64194403D01*
X168810382Y-64253627D01*
X168194987Y-64253627D01*
X168264276Y-64001827D01*
X168664576Y-62564945D01*
G37*
G36*
X171126219Y-62547188D02*
G01*
X171474277Y-62565496D01*
X171735190Y-62598843D01*
X171933222Y-62654921D01*
X172092635Y-62741423D01*
X172237692Y-62866041D01*
X172284230Y-62914356D01*
X172430558Y-63141273D01*
X172531445Y-63443632D01*
X172583218Y-63793335D01*
X172582206Y-64162283D01*
X172524738Y-64522377D01*
X172504171Y-64597561D01*
X172364879Y-64902519D01*
X172176985Y-65131733D01*
X171993925Y-65284663D01*
X171786498Y-65390868D01*
X171531887Y-65456928D01*
X171207275Y-65489417D01*
X170914131Y-65495715D01*
X170470285Y-65495715D01*
X170470285Y-64881649D01*
X171140175Y-64881649D01*
X171338098Y-64881649D01*
X171553668Y-64833649D01*
X171669163Y-64748505D01*
X171807796Y-64537631D01*
X171889440Y-64251209D01*
X171908391Y-63912868D01*
X171899836Y-63793077D01*
X171850665Y-63511003D01*
X171763481Y-63322298D01*
X171626222Y-63211739D01*
X171426823Y-63164105D01*
X171399723Y-63161997D01*
X171140175Y-63144982D01*
X171140175Y-64881649D01*
X170470285Y-64881649D01*
X170470285Y-62525274D01*
X171126219Y-62547188D01*
G37*
G36*
X173652263Y-65495715D02*
G01*
X172982373Y-65495715D01*
X172982373Y-62537033D01*
X173652263Y-62537033D01*
X173652263Y-65495715D01*
G37*
X207990000Y-83110000D02*
X203490000Y-83110000D01*
X203490000Y-89610000D02*
X207990000Y-89610000D01*
X209240000Y-87110000D02*
X209240000Y-85610000D01*
X202240000Y-85610000D02*
X202240000Y-87110000D01*
X194020000Y-92000000D02*
X189520000Y-92000000D01*
X189520000Y-98500000D02*
X194020000Y-98500000D01*
X195270000Y-96000000D02*
X195270000Y-94500000D01*
X188270000Y-94500000D02*
X188270000Y-96000000D01*
X178780000Y-100890000D02*
X174280000Y-100890000D01*
X174280000Y-107390000D02*
X178780000Y-107390000D01*
X180030000Y-104890000D02*
X180030000Y-103390000D01*
X173030000Y-103390000D02*
X173030000Y-104890000D01*
X117820000Y-104700000D02*
X113320000Y-104700000D01*
X113320000Y-111200000D02*
X117820000Y-111200000D01*
X119070000Y-108700000D02*
X119070000Y-107200000D01*
X112070000Y-107200000D02*
X112070000Y-108700000D01*
X129250000Y-94540000D02*
X124750000Y-94540000D01*
X124750000Y-101040000D02*
X129250000Y-101040000D01*
X130500000Y-98540000D02*
X130500000Y-97040000D01*
X123500000Y-97040000D02*
X123500000Y-98540000D01*
X106390000Y-94540000D02*
X101890000Y-94540000D01*
X101890000Y-101040000D02*
X106390000Y-101040000D01*
X107640000Y-98540000D02*
X107640000Y-97040000D01*
X100640000Y-97040000D02*
X100640000Y-98540000D01*
X112070000Y-85610000D02*
X112070000Y-87110000D01*
X119070000Y-87110000D02*
X119070000Y-85610000D01*
X113320000Y-89610000D02*
X117820000Y-89610000D01*
X117820000Y-83110000D02*
X113320000Y-83110000D01*
X113331000Y-45579000D02*
X95331000Y-45579000D01*
X95331000Y-45579000D02*
X95331000Y-69079000D01*
X113331000Y-69079000D02*
X113331000Y-45579000D01*
X95331000Y-69079000D02*
X113331000Y-69079000D01*
X195547000Y-72676500D02*
X198147000Y-72676500D01*
X198147000Y-75276500D02*
X205827000Y-75276500D01*
X198147000Y-72676500D02*
X198147000Y-75276500D01*
X205827000Y-70076500D02*
X205827000Y-75276500D01*
X195547000Y-70076500D02*
X205827000Y-70076500D01*
X195547000Y-75276500D02*
X196877000Y-75276500D01*
X195547000Y-70076500D02*
X195547000Y-72676500D01*
X195547000Y-73946500D02*
X195547000Y-75276500D01*
X210197000Y-46946500D02*
X194997000Y-46946500D01*
X194997000Y-46946500D02*
X194997000Y-75446500D01*
X194997000Y-75446500D02*
X210197000Y-75446500D01*
X210197000Y-75446500D02*
X210197000Y-46946500D01*
D13*
X161544635Y-92055950D03*
D14*
X150543895Y-90455750D03*
D13*
X146045555Y-105355390D03*
D14*
X150543895Y-86056470D03*
D13*
X161544635Y-105355390D03*
X146045555Y-92055950D03*
D14*
X157046295Y-90455750D03*
X157046295Y-86056470D03*
X144044035Y-101205030D03*
X144044035Y-98705670D03*
X144044035Y-96206310D03*
X156294455Y-108456730D03*
X153795095Y-108456730D03*
X151295735Y-108456730D03*
%LPC*%
D15*
X213106000Y-73421000D03*
D16*
X213106000Y-75961000D03*
X213106000Y-78501000D03*
D17*
X202490000Y-84110000D03*
X208990000Y-84110000D03*
X202490000Y-88610000D03*
X208990000Y-88610000D03*
X188520000Y-93000000D03*
X195020000Y-93000000D03*
X188520000Y-97500000D03*
X195020000Y-97500000D03*
X173280000Y-101890000D03*
X179780000Y-101890000D03*
X173280000Y-106390000D03*
X179780000Y-106390000D03*
X112320000Y-105700000D03*
X118820000Y-105700000D03*
X112320000Y-110200000D03*
X118820000Y-110200000D03*
X123750000Y-95540000D03*
X130250000Y-95540000D03*
X123750000Y-100040000D03*
X130250000Y-100040000D03*
X100890000Y-95540000D03*
X107390000Y-95540000D03*
X100890000Y-100040000D03*
X107390000Y-100040000D03*
X118820000Y-88610000D03*
X112320000Y-88610000D03*
X118820000Y-84110000D03*
X112320000Y-84110000D03*
D18*
X112551000Y-47169000D03*
X112551000Y-49709000D03*
X112551000Y-52249000D03*
X112551000Y-54789000D03*
X112551000Y-57329000D03*
D19*
X112551000Y-59869000D03*
X112551000Y-62409000D03*
X112551000Y-64949000D03*
X112551000Y-67489000D03*
D20*
X109411000Y-68299000D03*
D21*
X106871000Y-68299000D03*
X104331000Y-68299000D03*
X101791000Y-68299000D03*
X99251000Y-68299000D03*
D19*
X96111000Y-67489000D03*
X96111000Y-64949000D03*
X96111000Y-62409000D03*
X96111000Y-59869000D03*
X96111000Y-47169000D03*
X96111000Y-49709000D03*
X96111000Y-52249000D03*
X96111000Y-57329000D03*
X96111000Y-54789000D03*
D22*
X93218000Y-73914000D03*
X93218000Y-76454000D03*
X93218000Y-78994000D03*
X93218000Y-81534000D03*
X93218000Y-84074000D03*
X100838000Y-84074000D03*
X100838000Y-81534000D03*
X100838000Y-78994000D03*
X100838000Y-76454000D03*
D23*
X100838000Y-73914000D03*
D15*
X196877000Y-73946500D03*
D16*
X196877000Y-71406500D03*
X199417000Y-73946500D03*
X199417000Y-71406500D03*
X201957000Y-73946500D03*
X201957000Y-71406500D03*
X204497000Y-73946500D03*
X204497000Y-71406500D03*
D13*
X161544635Y-92055950D03*
D14*
X150543895Y-90455750D03*
D13*
X146045555Y-105355390D03*
D14*
X150543895Y-86056470D03*
D13*
X161544635Y-105355390D03*
X146045555Y-92055950D03*
D14*
X157046295Y-90455750D03*
X157046295Y-86056470D03*
X144044035Y-101205030D03*
X144044035Y-98705670D03*
X144044035Y-96206310D03*
X156294455Y-108456730D03*
X153795095Y-108456730D03*
X151295735Y-108456730D03*
D24*
X154726000Y-55111000D03*
X154726000Y-70101000D03*
D25*
X189331000Y-55111000D03*
D17*
X189331000Y-70101000D03*
M02*
