G04 #@! TF.GenerationSoftware,KiCad,Pcbnew,(6.0.9)*
G04 #@! TF.CreationDate,2022-12-06T16:10:30-05:00*
G04 #@! TF.ProjectId,rf_controller_hw,72665f63-6f6e-4747-926f-6c6c65725f68,rev?*
G04 #@! TF.SameCoordinates,Original*
G04 #@! TF.FileFunction,Copper,L1,Top*
G04 #@! TF.FilePolarity,Positive*
%FSLAX46Y46*%
G04 Gerber Fmt 4.6, Leading zero omitted, Abs format (unit mm)*
G04 Created by KiCad (PCBNEW (6.0.9)) date 2022-12-06 16:10:30*
%MOMM*%
%LPD*%
G01*
G04 APERTURE LIST*
G04 Aperture macros list*
%AMRoundRect*
0 Rectangle with rounded corners*
0 $1 Rounding radius*
0 $2 $3 $4 $5 $6 $7 $8 $9 X,Y pos of 4 corners*
0 Add a 4 corners polygon primitive as box body*
4,1,4,$2,$3,$4,$5,$6,$7,$8,$9,$2,$3,0*
0 Add four circle primitives for the rounded corners*
1,1,$1+$1,$2,$3*
1,1,$1+$1,$4,$5*
1,1,$1+$1,$6,$7*
1,1,$1+$1,$8,$9*
0 Add four rect primitives between the rounded corners*
20,1,$1+$1,$2,$3,$4,$5,0*
20,1,$1+$1,$4,$5,$6,$7,0*
20,1,$1+$1,$6,$7,$8,$9,0*
20,1,$1+$1,$8,$9,$2,$3,0*%
G04 Aperture macros list end*
G04 #@! TA.AperFunction,ComponentPad*
%ADD10RoundRect,0.400000X-0.900000X-0.400000X0.900000X-0.400000X0.900000X0.400000X-0.900000X0.400000X0*%
G04 #@! TD*
G04 #@! TA.AperFunction,ComponentPad*
%ADD11RoundRect,0.400050X-0.899950X-0.400050X0.899950X-0.400050X0.899950X0.400050X-0.899950X0.400050X0*%
G04 #@! TD*
G04 #@! TA.AperFunction,ComponentPad*
%ADD12RoundRect,0.400000X-0.400000X-0.900000X0.400000X-0.900000X0.400000X0.900000X-0.400000X0.900000X0*%
G04 #@! TD*
G04 #@! TA.AperFunction,ComponentPad*
%ADD13RoundRect,0.393700X-0.393700X-0.906300X0.393700X-0.906300X0.393700X0.906300X-0.393700X0.906300X0*%
G04 #@! TD*
G04 #@! TA.AperFunction,ComponentPad*
%ADD14C,2.000000*%
G04 #@! TD*
G04 #@! TA.AperFunction,ComponentPad*
%ADD15R,1.700000X1.700000*%
G04 #@! TD*
G04 #@! TA.AperFunction,ComponentPad*
%ADD16O,1.700000X1.700000*%
G04 #@! TD*
G04 #@! TA.AperFunction,ComponentPad*
%ADD17C,1.998980*%
G04 #@! TD*
G04 #@! TA.AperFunction,ComponentPad*
%ADD18R,2.000000X2.000000*%
G04 #@! TD*
G04 #@! TA.AperFunction,ComponentPad*
%ADD19R,1.600000X1.600000*%
G04 #@! TD*
G04 #@! TA.AperFunction,ComponentPad*
%ADD20O,1.600000X1.600000*%
G04 #@! TD*
G04 #@! TA.AperFunction,ViaPad*
%ADD21C,0.800000*%
G04 #@! TD*
G04 #@! TA.AperFunction,Conductor*
%ADD22C,0.250000*%
G04 #@! TD*
G04 #@! TA.AperFunction,Conductor*
%ADD23C,0.254000*%
G04 #@! TD*
G04 APERTURE END LIST*
D10*
X112551000Y-47169000D03*
X112551000Y-49709000D03*
X112551000Y-52249000D03*
X112551000Y-54789000D03*
X112551000Y-57329000D03*
D11*
X112551000Y-59869000D03*
X112551000Y-62409000D03*
X112551000Y-64949000D03*
X112551000Y-67489000D03*
D12*
X109411000Y-68299000D03*
D13*
X106871000Y-68299000D03*
X104331000Y-68299000D03*
X101791000Y-68299000D03*
X99251000Y-68299000D03*
D11*
X96111000Y-67489000D03*
X96111000Y-64949000D03*
X96111000Y-62409000D03*
X96111000Y-59869000D03*
X96111000Y-57329000D03*
X96111000Y-54789000D03*
X96111000Y-52249000D03*
X96111000Y-49709000D03*
X96111000Y-47169000D03*
D14*
X183440000Y-87920000D03*
X189940000Y-87920000D03*
X189940000Y-92420000D03*
X183440000Y-92420000D03*
X118260000Y-73914000D03*
X111760000Y-73914000D03*
X118260000Y-78414000D03*
X111760000Y-78414000D03*
X111760000Y-95504000D03*
X118260000Y-95504000D03*
X111760000Y-100004000D03*
X118260000Y-100004000D03*
X100330000Y-85344000D03*
X106830000Y-85344000D03*
X100330000Y-89844000D03*
X106830000Y-89844000D03*
X197410000Y-80046000D03*
X203910000Y-80046000D03*
X203910000Y-84546000D03*
X197410000Y-84546000D03*
D15*
X213106000Y-73421000D03*
D16*
X213106000Y-75961000D03*
X213106000Y-78501000D03*
D15*
X196877000Y-73946500D03*
D16*
X196877000Y-71406500D03*
X199417000Y-73946500D03*
X199417000Y-71406500D03*
X201957000Y-73946500D03*
X201957000Y-71406500D03*
X204497000Y-73946500D03*
X204497000Y-71406500D03*
D14*
X160120095Y-103705670D03*
X160120095Y-93705670D03*
D17*
X150543895Y-92955670D03*
D14*
X147470095Y-103705670D03*
D17*
X150543895Y-88455670D03*
D14*
X147470095Y-93705670D03*
D17*
X157046295Y-92955670D03*
X157046295Y-88455670D03*
X145065095Y-101205030D03*
X145065095Y-98705670D03*
X145065095Y-96206310D03*
X156294455Y-107435670D03*
X153795095Y-107435670D03*
X151295735Y-107435670D03*
D14*
X123190000Y-85344000D03*
X129690000Y-85344000D03*
X123190000Y-89844000D03*
X129690000Y-89844000D03*
X168200000Y-95540000D03*
X174700000Y-95540000D03*
X174700000Y-100040000D03*
X168200000Y-100040000D03*
D18*
X189331000Y-55111000D03*
D14*
X189331000Y-70101000D03*
D19*
X103373000Y-79713500D03*
D20*
X100833000Y-79713500D03*
X98293000Y-79713500D03*
X95753000Y-79713500D03*
X93213000Y-79713500D03*
X93213000Y-72093500D03*
X95753000Y-72093500D03*
X98293000Y-72093500D03*
X100833000Y-72093500D03*
X103373000Y-72093500D03*
D21*
X189865000Y-47625000D03*
X208280000Y-72390000D03*
X186690000Y-78740000D03*
X190500000Y-66040000D03*
X210820000Y-69215000D03*
X189865000Y-52070000D03*
X116840000Y-59690000D03*
X90170000Y-52070000D03*
X170180000Y-83820000D03*
X166370000Y-86360000D03*
X116840000Y-46990000D03*
X140970000Y-104140000D03*
X175260000Y-85090000D03*
X105664000Y-75438000D03*
X106172000Y-81026000D03*
X107442000Y-76454000D03*
X107188000Y-81534000D03*
X90715500Y-59690000D03*
X91223500Y-58674000D03*
D22*
X98293000Y-72093500D02*
X100833000Y-72093500D01*
X129399030Y-101205030D02*
X145065095Y-101205030D01*
X100833000Y-72093500D02*
X103373000Y-72093500D01*
X96711000Y-52249000D02*
X96325624Y-52249000D01*
X93213000Y-72093500D02*
X95753000Y-72093500D01*
X96325624Y-52249000D02*
X96250624Y-52324000D01*
X91948000Y-54610000D02*
X91948000Y-70828500D01*
X96250624Y-52324000D02*
X94234000Y-52324000D01*
X91948000Y-70828500D02*
X93213000Y-72093500D01*
X103373000Y-75179000D02*
X129399030Y-101205030D01*
X103373000Y-72093500D02*
X103373000Y-75179000D01*
X95753000Y-72093500D02*
X98293000Y-72093500D01*
X94234000Y-52324000D02*
X91948000Y-54610000D01*
X96711000Y-49709000D02*
X96212604Y-49709000D01*
X111951000Y-47169000D02*
X114225000Y-47169000D01*
X198882000Y-75692000D02*
X199417000Y-75157000D01*
X170166068Y-64488000D02*
X181370068Y-75692000D01*
X133082068Y-64488000D02*
X170166068Y-64488000D01*
X124117068Y-55523000D02*
X133082068Y-64488000D01*
X114225000Y-47169000D02*
X122579000Y-55523000D01*
X199417000Y-75157000D02*
X199417000Y-73946500D01*
X181370068Y-75692000D02*
X198882000Y-75692000D01*
X122579000Y-55523000D02*
X124117068Y-55523000D01*
X181183672Y-76142000D02*
X200084396Y-76142000D01*
X113209000Y-49709000D02*
X119473000Y-55973000D01*
X111951000Y-49709000D02*
X113209000Y-49709000D01*
X169979672Y-64938000D02*
X181183672Y-76142000D01*
X123930672Y-55973000D02*
X132895672Y-64938000D01*
X200084396Y-76142000D02*
X200592000Y-75634396D01*
X200592000Y-75634396D02*
X200592000Y-72581500D01*
X200592000Y-72581500D02*
X199417000Y-71406500D01*
X119473000Y-55973000D02*
X123930672Y-55973000D01*
X132895672Y-64938000D02*
X169979672Y-64938000D01*
X132709276Y-65388000D02*
X169793276Y-65388000D01*
X201957000Y-74905792D02*
X201957000Y-73946500D01*
X117129000Y-56423000D02*
X123744276Y-56423000D01*
X123744276Y-56423000D02*
X132709276Y-65388000D01*
X200270792Y-76592000D02*
X201957000Y-74905792D01*
X180997276Y-76592000D02*
X200270792Y-76592000D01*
X111951000Y-52249000D02*
X112955000Y-52249000D01*
X169793276Y-65388000D02*
X180997276Y-76592000D01*
X112955000Y-52249000D02*
X117129000Y-56423000D01*
D23*
X203134000Y-72583500D02*
X201957000Y-71406500D01*
X202378516Y-75123500D02*
X202444530Y-75123500D01*
X132522052Y-65840000D02*
X169606052Y-65840000D01*
X180810052Y-77044000D02*
X200458016Y-77044000D01*
X116840000Y-56875000D02*
X123557052Y-56875000D01*
X200458016Y-77044000D02*
X202378516Y-75123500D01*
X111951000Y-54789000D02*
X114754000Y-54789000D01*
X203134000Y-74434030D02*
X203134000Y-72583500D01*
X123557052Y-56875000D02*
X132522052Y-65840000D01*
X114754000Y-54789000D02*
X116840000Y-56875000D01*
X169606052Y-65840000D02*
X180810052Y-77044000D01*
X202444530Y-75123500D02*
X203134000Y-74434030D01*
X180622000Y-77498000D02*
X200646068Y-77498000D01*
X202866000Y-75577500D02*
X204497000Y-73946500D01*
X123369000Y-57329000D02*
X132334000Y-66294000D01*
X169418000Y-66294000D02*
X180622000Y-77498000D01*
X111951000Y-57329000D02*
X123369000Y-57329000D01*
X202566568Y-75577500D02*
X202866000Y-75577500D01*
X200646068Y-77498000D02*
X202566568Y-75577500D01*
X132334000Y-66294000D02*
X169418000Y-66294000D01*
D22*
X106172000Y-81026000D02*
X105505000Y-81693000D01*
X105505000Y-88519000D02*
X106830000Y-89844000D01*
X106172000Y-74930000D02*
X106172000Y-70358000D01*
X106172000Y-70358000D02*
X104331000Y-68517000D01*
X104331000Y-68517000D02*
X104331000Y-67699000D01*
X105664000Y-75438000D02*
X106172000Y-74930000D01*
X105505000Y-81693000D02*
X105505000Y-88519000D01*
X109411000Y-76065000D02*
X111760000Y-78414000D01*
X109411000Y-67699000D02*
X109411000Y-76065000D01*
X107188000Y-81534000D02*
X110435000Y-84781000D01*
X106680000Y-75692000D02*
X107442000Y-76454000D01*
X106680000Y-67890000D02*
X106680000Y-74930000D01*
X106871000Y-67699000D02*
X106680000Y-67890000D01*
X110435000Y-84781000D02*
X110435000Y-98679000D01*
X110435000Y-98679000D02*
X111760000Y-100004000D01*
X106680000Y-74930000D02*
X106680000Y-75692000D01*
X113085000Y-68623000D02*
X113085000Y-79739000D01*
X113085000Y-79739000D02*
X123190000Y-89844000D01*
X111951000Y-67489000D02*
X113085000Y-68623000D01*
X171248000Y-100040000D02*
X172974000Y-98314000D01*
X137295208Y-83196000D02*
X165871604Y-83196000D01*
X165871604Y-83196000D02*
X172974000Y-90298396D01*
X168200000Y-100040000D02*
X171248000Y-100040000D01*
X172974000Y-94234000D02*
X172974000Y-98314000D01*
X172974000Y-90298396D02*
X172974000Y-94234000D01*
X119048208Y-64949000D02*
X137295208Y-83196000D01*
X172974000Y-98314000D02*
X174700000Y-100040000D01*
X111951000Y-64949000D02*
X119048208Y-64949000D01*
X120778396Y-91948000D02*
X141986000Y-91948000D01*
X142748000Y-91186000D02*
X155276625Y-91186000D01*
X92456000Y-70104000D02*
X93320500Y-70968500D01*
X155276625Y-91186000D02*
X157046295Y-92955670D01*
X104242500Y-70968500D02*
X104939000Y-71665000D01*
X104939000Y-76108604D02*
X120778396Y-91948000D01*
X92456000Y-60706000D02*
X92456000Y-70104000D01*
X93472000Y-59690000D02*
X92456000Y-60706000D01*
X96532000Y-59690000D02*
X93472000Y-59690000D01*
X141986000Y-91948000D02*
X142748000Y-91186000D01*
X104939000Y-71665000D02*
X104939000Y-76108604D01*
X96711000Y-59869000D02*
X96532000Y-59690000D01*
X93320500Y-70968500D02*
X104242500Y-70968500D01*
X90990000Y-72830396D02*
X93285604Y-75126000D01*
X129900728Y-102979520D02*
X143764000Y-102979520D01*
X93285604Y-75126000D02*
X102047208Y-75126000D01*
X151769425Y-105410000D02*
X153795095Y-107435670D01*
X143764000Y-102979520D02*
X146050000Y-105265520D01*
X146050000Y-105410000D02*
X151769425Y-105410000D01*
X90990000Y-59964500D02*
X90990000Y-72830396D01*
X102047208Y-75126000D02*
X129900728Y-102979520D01*
X90715500Y-59690000D02*
X90990000Y-59964500D01*
X146050000Y-105265520D02*
X146050000Y-105410000D01*
X130087124Y-102529520D02*
X145613717Y-102529520D01*
X146389585Y-100030160D02*
X145065095Y-98705670D01*
X91223500Y-58674000D02*
X91440000Y-58890500D01*
X93472000Y-74676000D02*
X102233604Y-74676000D01*
X102233604Y-74676000D02*
X130087124Y-102529520D01*
X146389585Y-101753652D02*
X146389585Y-100030160D01*
X145613717Y-102529520D02*
X146389585Y-101753652D01*
X91440000Y-72644000D02*
X93472000Y-74676000D01*
X91440000Y-58890500D02*
X91440000Y-72644000D01*
X197410000Y-84546000D02*
X203910000Y-84546000D01*
X195160000Y-82296000D02*
X197410000Y-84546000D01*
X112336376Y-59869000D02*
X113173376Y-60706000D01*
X113173376Y-60706000D02*
X116078000Y-60706000D01*
X111951000Y-59869000D02*
X112336376Y-59869000D01*
X116078000Y-60706000D02*
X137668000Y-82296000D01*
X137668000Y-82296000D02*
X195160000Y-82296000D01*
X175732000Y-92420000D02*
X172466000Y-89154000D01*
X183440000Y-92420000D02*
X189940000Y-92420000D01*
X183440000Y-92420000D02*
X175732000Y-92420000D01*
X117144604Y-62409000D02*
X137481604Y-82746000D01*
X137481604Y-82746000D02*
X166058000Y-82746000D01*
X166058000Y-82746000D02*
X172466000Y-89154000D01*
X111951000Y-62409000D02*
X117144604Y-62409000D01*
G04 #@! TA.AperFunction,Conductor*
G36*
X94329240Y-46248502D02*
G01*
X94375733Y-46302158D01*
X94385837Y-46372432D01*
X94373386Y-46411702D01*
X94361171Y-46435677D01*
X94358173Y-46441561D01*
X94308742Y-46626039D01*
X94308289Y-46631793D01*
X94308289Y-46631794D01*
X94303483Y-46692865D01*
X94302500Y-46705354D01*
X94302500Y-47632646D01*
X94308742Y-47711961D01*
X94358173Y-47896439D01*
X94444878Y-48066608D01*
X94449031Y-48071737D01*
X94449032Y-48071738D01*
X94537412Y-48180878D01*
X94565069Y-48215031D01*
X94713492Y-48335222D01*
X94713814Y-48335386D01*
X94758542Y-48387507D01*
X94768309Y-48457828D01*
X94738508Y-48522267D01*
X94712306Y-48544971D01*
X94708635Y-48547355D01*
X94570551Y-48659174D01*
X94561274Y-48668451D01*
X94449454Y-48806536D01*
X94442304Y-48817547D01*
X94361637Y-48975864D01*
X94356936Y-48988110D01*
X94310733Y-49160543D01*
X94308786Y-49171870D01*
X94303193Y-49242935D01*
X94303000Y-49247862D01*
X94303000Y-49436885D01*
X94307475Y-49452124D01*
X94308865Y-49453329D01*
X94316548Y-49455000D01*
X96239000Y-49455000D01*
X96307121Y-49475002D01*
X96353614Y-49528658D01*
X96365000Y-49581000D01*
X96365000Y-49837000D01*
X96344998Y-49905121D01*
X96291342Y-49951614D01*
X96239000Y-49963000D01*
X94321115Y-49963000D01*
X94305876Y-49967475D01*
X94304671Y-49968865D01*
X94303000Y-49976548D01*
X94303000Y-50170139D01*
X94303193Y-50175065D01*
X94308786Y-50246130D01*
X94310733Y-50257457D01*
X94356936Y-50429890D01*
X94361637Y-50442136D01*
X94442304Y-50600453D01*
X94449454Y-50611464D01*
X94561274Y-50749549D01*
X94570551Y-50758826D01*
X94708635Y-50870645D01*
X94712306Y-50873029D01*
X94758541Y-50926906D01*
X94768309Y-50997228D01*
X94738508Y-51061667D01*
X94715076Y-51081971D01*
X94713492Y-51082778D01*
X94565069Y-51202969D01*
X94560919Y-51208094D01*
X94560918Y-51208095D01*
X94529421Y-51246991D01*
X94444878Y-51351392D01*
X94358173Y-51521561D01*
X94356465Y-51527937D01*
X94356463Y-51527941D01*
X94337928Y-51597112D01*
X94300977Y-51657734D01*
X94237116Y-51688756D01*
X94216222Y-51690500D01*
X94194144Y-51690500D01*
X94190210Y-51690997D01*
X94190209Y-51690997D01*
X94190144Y-51691005D01*
X94178307Y-51691938D01*
X94146490Y-51692938D01*
X94142029Y-51693078D01*
X94134110Y-51693327D01*
X94116454Y-51698456D01*
X94114658Y-51698978D01*
X94095306Y-51702986D01*
X94088235Y-51703880D01*
X94075203Y-51705526D01*
X94067834Y-51708443D01*
X94067832Y-51708444D01*
X94034097Y-51721800D01*
X94022869Y-51725645D01*
X93980407Y-51737982D01*
X93973585Y-51742016D01*
X93973579Y-51742019D01*
X93962968Y-51748294D01*
X93945218Y-51756990D01*
X93933756Y-51761528D01*
X93933751Y-51761531D01*
X93926383Y-51764448D01*
X93919968Y-51769109D01*
X93890625Y-51790427D01*
X93880707Y-51796943D01*
X93862019Y-51807995D01*
X93842637Y-51819458D01*
X93828313Y-51833782D01*
X93813281Y-51846621D01*
X93796893Y-51858528D01*
X93768712Y-51892593D01*
X93760722Y-51901373D01*
X91555747Y-54106348D01*
X91547461Y-54113888D01*
X91540982Y-54118000D01*
X91535557Y-54123777D01*
X91494357Y-54167651D01*
X91491602Y-54170493D01*
X91471865Y-54190230D01*
X91469385Y-54193427D01*
X91461682Y-54202447D01*
X91431414Y-54234679D01*
X91427595Y-54241625D01*
X91427593Y-54241628D01*
X91421652Y-54252434D01*
X91410801Y-54268953D01*
X91398386Y-54284959D01*
X91395241Y-54292228D01*
X91395238Y-54292232D01*
X91380826Y-54325537D01*
X91375609Y-54336187D01*
X91354305Y-54374940D01*
X91352334Y-54382615D01*
X91352334Y-54382616D01*
X91349267Y-54394562D01*
X91342863Y-54413266D01*
X91334819Y-54431855D01*
X91333580Y-54439678D01*
X91333577Y-54439688D01*
X91327901Y-54475524D01*
X91325495Y-54487144D01*
X91314500Y-54529970D01*
X91314500Y-54550224D01*
X91312949Y-54569934D01*
X91309780Y-54589943D01*
X91310526Y-54597835D01*
X91313941Y-54633961D01*
X91314500Y-54645819D01*
X91314500Y-57639500D01*
X91294498Y-57707621D01*
X91240842Y-57754114D01*
X91188500Y-57765500D01*
X91128013Y-57765500D01*
X91121561Y-57766872D01*
X91121556Y-57766872D01*
X91034613Y-57785353D01*
X90941212Y-57805206D01*
X90935182Y-57807891D01*
X90935181Y-57807891D01*
X90772778Y-57880197D01*
X90772776Y-57880198D01*
X90766748Y-57882882D01*
X90612247Y-57995134D01*
X90607826Y-58000044D01*
X90607825Y-58000045D01*
X90606601Y-58001405D01*
X90484460Y-58137056D01*
X90388973Y-58302444D01*
X90329958Y-58484072D01*
X90329268Y-58490633D01*
X90329268Y-58490635D01*
X90326603Y-58515990D01*
X90309996Y-58674000D01*
X90313458Y-58706933D01*
X90320874Y-58777495D01*
X90308102Y-58847334D01*
X90259904Y-58898367D01*
X90258748Y-58898882D01*
X90253406Y-58902764D01*
X90253403Y-58902765D01*
X90242146Y-58910944D01*
X90104247Y-59011134D01*
X90099826Y-59016044D01*
X90099825Y-59016045D01*
X89992105Y-59135681D01*
X89976460Y-59153056D01*
X89880973Y-59318444D01*
X89821958Y-59500072D01*
X89801996Y-59690000D01*
X89821958Y-59879928D01*
X89880973Y-60061556D01*
X89884276Y-60067278D01*
X89884277Y-60067279D01*
X89907364Y-60107267D01*
X89976460Y-60226944D01*
X89980878Y-60231851D01*
X89980879Y-60231852D01*
X90071634Y-60332646D01*
X90104247Y-60368866D01*
X90258748Y-60481118D01*
X90264775Y-60483801D01*
X90264783Y-60483806D01*
X90281750Y-60491360D01*
X90335845Y-60537340D01*
X90356500Y-60606466D01*
X90356500Y-72751629D01*
X90355973Y-72762812D01*
X90354298Y-72770305D01*
X90354547Y-72778231D01*
X90354547Y-72778232D01*
X90356438Y-72838382D01*
X90356500Y-72842341D01*
X90356500Y-72870252D01*
X90356997Y-72874186D01*
X90356997Y-72874187D01*
X90357005Y-72874252D01*
X90357938Y-72886089D01*
X90359327Y-72930285D01*
X90364978Y-72949735D01*
X90368987Y-72969096D01*
X90371526Y-72989193D01*
X90374445Y-72996564D01*
X90374445Y-72996566D01*
X90387804Y-73030308D01*
X90391649Y-73041538D01*
X90394656Y-73051887D01*
X90403982Y-73083989D01*
X90408015Y-73090808D01*
X90408017Y-73090813D01*
X90414293Y-73101424D01*
X90422988Y-73119172D01*
X90430448Y-73138013D01*
X90435110Y-73144429D01*
X90435110Y-73144430D01*
X90456436Y-73173783D01*
X90462952Y-73183703D01*
X90478316Y-73209681D01*
X90485458Y-73221758D01*
X90499779Y-73236079D01*
X90512619Y-73251112D01*
X90524528Y-73267503D01*
X90539615Y-73279984D01*
X90558605Y-73295694D01*
X90567384Y-73303684D01*
X92781947Y-75518247D01*
X92789491Y-75526537D01*
X92793604Y-75533018D01*
X92799381Y-75538443D01*
X92843271Y-75579658D01*
X92846113Y-75582413D01*
X92865834Y-75602134D01*
X92869029Y-75604612D01*
X92878051Y-75612318D01*
X92910283Y-75642586D01*
X92917232Y-75646406D01*
X92928036Y-75652346D01*
X92944560Y-75663199D01*
X92960563Y-75675613D01*
X93001147Y-75693176D01*
X93011777Y-75698383D01*
X93050544Y-75719695D01*
X93058221Y-75721666D01*
X93058226Y-75721668D01*
X93070162Y-75724732D01*
X93088870Y-75731137D01*
X93107459Y-75739181D01*
X93115287Y-75740421D01*
X93115294Y-75740423D01*
X93151128Y-75746099D01*
X93162748Y-75748505D01*
X93197893Y-75757528D01*
X93205574Y-75759500D01*
X93225828Y-75759500D01*
X93245538Y-75761051D01*
X93265547Y-75764220D01*
X93273439Y-75763474D01*
X93309565Y-75760059D01*
X93321423Y-75759500D01*
X101732614Y-75759500D01*
X101800735Y-75779502D01*
X101821709Y-75796405D01*
X104215209Y-78189905D01*
X104249235Y-78252217D01*
X104244170Y-78323032D01*
X104201623Y-78379868D01*
X104135103Y-78404679D01*
X104126114Y-78405000D01*
X102524866Y-78405000D01*
X102462684Y-78411755D01*
X102326295Y-78462885D01*
X102209739Y-78550239D01*
X102122385Y-78666795D01*
X102071255Y-78803184D01*
X102070083Y-78813974D01*
X102069197Y-78816106D01*
X102068575Y-78818722D01*
X102068152Y-78818621D01*
X102042845Y-78879535D01*
X101984483Y-78919963D01*
X101913529Y-78922422D01*
X101852510Y-78886129D01*
X101845511Y-78877469D01*
X101842354Y-78873707D01*
X101839198Y-78869200D01*
X101677300Y-78707302D01*
X101672792Y-78704145D01*
X101672789Y-78704143D01*
X101532936Y-78606217D01*
X101489749Y-78575977D01*
X101484767Y-78573654D01*
X101484762Y-78573651D01*
X101287225Y-78481539D01*
X101287224Y-78481539D01*
X101282243Y-78479216D01*
X101276935Y-78477794D01*
X101276933Y-78477793D01*
X101066402Y-78421381D01*
X101066400Y-78421381D01*
X101061087Y-78419957D01*
X100833000Y-78400002D01*
X100604913Y-78419957D01*
X100599600Y-78421381D01*
X100599598Y-78421381D01*
X100389067Y-78477793D01*
X100389065Y-78477794D01*
X100383757Y-78479216D01*
X100378776Y-78481539D01*
X100378775Y-78481539D01*
X100181238Y-78573651D01*
X100181233Y-78573654D01*
X100176251Y-78575977D01*
X100133064Y-78606217D01*
X99993211Y-78704143D01*
X99993208Y-78704145D01*
X99988700Y-78707302D01*
X99826802Y-78869200D01*
X99823645Y-78873708D01*
X99823643Y-78873711D01*
X99799186Y-78908639D01*
X99695477Y-79056751D01*
X99693154Y-79061733D01*
X99693151Y-79061738D01*
X99677195Y-79095957D01*
X99630278Y-79149242D01*
X99562001Y-79168703D01*
X99494041Y-79148161D01*
X99448805Y-79095957D01*
X99432849Y-79061738D01*
X99432846Y-79061733D01*
X99430523Y-79056751D01*
X99326814Y-78908639D01*
X99302357Y-78873711D01*
X99302355Y-78873708D01*
X99299198Y-78869200D01*
X99137300Y-78707302D01*
X99132792Y-78704145D01*
X99132789Y-78704143D01*
X98992936Y-78606217D01*
X98949749Y-78575977D01*
X98944767Y-78573654D01*
X98944762Y-78573651D01*
X98747225Y-78481539D01*
X98747224Y-78481539D01*
X98742243Y-78479216D01*
X98736935Y-78477794D01*
X98736933Y-78477793D01*
X98526402Y-78421381D01*
X98526400Y-78421381D01*
X98521087Y-78419957D01*
X98293000Y-78400002D01*
X98064913Y-78419957D01*
X98059600Y-78421381D01*
X98059598Y-78421381D01*
X97849067Y-78477793D01*
X97849065Y-78477794D01*
X97843757Y-78479216D01*
X97838776Y-78481539D01*
X97838775Y-78481539D01*
X97641238Y-78573651D01*
X97641233Y-78573654D01*
X97636251Y-78575977D01*
X97593064Y-78606217D01*
X97453211Y-78704143D01*
X97453208Y-78704145D01*
X97448700Y-78707302D01*
X97286802Y-78869200D01*
X97283645Y-78873708D01*
X97283643Y-78873711D01*
X97259186Y-78908639D01*
X97155477Y-79056751D01*
X97153154Y-79061733D01*
X97153151Y-79061738D01*
X97137195Y-79095957D01*
X97090278Y-79149242D01*
X97022001Y-79168703D01*
X96954041Y-79148161D01*
X96908805Y-79095957D01*
X96892849Y-79061738D01*
X96892846Y-79061733D01*
X96890523Y-79056751D01*
X96786814Y-78908639D01*
X96762357Y-78873711D01*
X96762355Y-78873708D01*
X96759198Y-78869200D01*
X96597300Y-78707302D01*
X96592792Y-78704145D01*
X96592789Y-78704143D01*
X96452936Y-78606217D01*
X96409749Y-78575977D01*
X96404767Y-78573654D01*
X96404762Y-78573651D01*
X96207225Y-78481539D01*
X96207224Y-78481539D01*
X96202243Y-78479216D01*
X96196935Y-78477794D01*
X96196933Y-78477793D01*
X95986402Y-78421381D01*
X95986400Y-78421381D01*
X95981087Y-78419957D01*
X95753000Y-78400002D01*
X95524913Y-78419957D01*
X95519600Y-78421381D01*
X95519598Y-78421381D01*
X95309067Y-78477793D01*
X95309065Y-78477794D01*
X95303757Y-78479216D01*
X95298776Y-78481539D01*
X95298775Y-78481539D01*
X95101238Y-78573651D01*
X95101233Y-78573654D01*
X95096251Y-78575977D01*
X95053064Y-78606217D01*
X94913211Y-78704143D01*
X94913208Y-78704145D01*
X94908700Y-78707302D01*
X94746802Y-78869200D01*
X94743645Y-78873708D01*
X94743643Y-78873711D01*
X94719186Y-78908639D01*
X94615477Y-79056751D01*
X94613154Y-79061733D01*
X94613151Y-79061738D01*
X94597195Y-79095957D01*
X94550278Y-79149242D01*
X94482001Y-79168703D01*
X94414041Y-79148161D01*
X94368805Y-79095957D01*
X94352849Y-79061738D01*
X94352846Y-79061733D01*
X94350523Y-79056751D01*
X94246814Y-78908639D01*
X94222357Y-78873711D01*
X94222355Y-78873708D01*
X94219198Y-78869200D01*
X94057300Y-78707302D01*
X94052792Y-78704145D01*
X94052789Y-78704143D01*
X93912936Y-78606217D01*
X93869749Y-78575977D01*
X93864767Y-78573654D01*
X93864762Y-78573651D01*
X93667225Y-78481539D01*
X93667224Y-78481539D01*
X93662243Y-78479216D01*
X93656935Y-78477794D01*
X93656933Y-78477793D01*
X93446402Y-78421381D01*
X93446400Y-78421381D01*
X93441087Y-78419957D01*
X93213000Y-78400002D01*
X92984913Y-78419957D01*
X92979600Y-78421381D01*
X92979598Y-78421381D01*
X92769067Y-78477793D01*
X92769065Y-78477794D01*
X92763757Y-78479216D01*
X92758776Y-78481539D01*
X92758775Y-78481539D01*
X92561238Y-78573651D01*
X92561233Y-78573654D01*
X92556251Y-78575977D01*
X92513064Y-78606217D01*
X92373211Y-78704143D01*
X92373208Y-78704145D01*
X92368700Y-78707302D01*
X92206802Y-78869200D01*
X92203645Y-78873708D01*
X92203643Y-78873711D01*
X92179186Y-78908639D01*
X92075477Y-79056751D01*
X92073154Y-79061733D01*
X92073151Y-79061738D01*
X92005286Y-79207277D01*
X91978716Y-79264257D01*
X91977294Y-79269565D01*
X91977293Y-79269567D01*
X91923311Y-79471031D01*
X91919457Y-79485413D01*
X91899502Y-79713500D01*
X91919457Y-79941587D01*
X91920881Y-79946900D01*
X91920881Y-79946902D01*
X91959843Y-80092307D01*
X91978716Y-80162743D01*
X91981039Y-80167724D01*
X91981039Y-80167725D01*
X92073151Y-80365262D01*
X92073154Y-80365267D01*
X92075477Y-80370249D01*
X92106665Y-80414790D01*
X92172371Y-80508627D01*
X92206802Y-80557800D01*
X92368700Y-80719698D01*
X92373208Y-80722855D01*
X92373211Y-80722857D01*
X92414542Y-80751797D01*
X92556251Y-80851023D01*
X92561233Y-80853346D01*
X92561238Y-80853349D01*
X92758775Y-80945461D01*
X92763757Y-80947784D01*
X92769065Y-80949206D01*
X92769067Y-80949207D01*
X92979598Y-81005619D01*
X92979600Y-81005619D01*
X92984913Y-81007043D01*
X93213000Y-81026998D01*
X93441087Y-81007043D01*
X93446400Y-81005619D01*
X93446402Y-81005619D01*
X93656933Y-80949207D01*
X93656935Y-80949206D01*
X93662243Y-80947784D01*
X93667225Y-80945461D01*
X93864762Y-80853349D01*
X93864767Y-80853346D01*
X93869749Y-80851023D01*
X94011458Y-80751797D01*
X94052789Y-80722857D01*
X94052792Y-80722855D01*
X94057300Y-80719698D01*
X94219198Y-80557800D01*
X94253630Y-80508627D01*
X94319335Y-80414790D01*
X94350523Y-80370249D01*
X94352846Y-80365267D01*
X94352849Y-80365262D01*
X94368805Y-80331043D01*
X94415722Y-80277758D01*
X94483999Y-80258297D01*
X94551959Y-80278839D01*
X94597195Y-80331043D01*
X94613151Y-80365262D01*
X94613154Y-80365267D01*
X94615477Y-80370249D01*
X94646665Y-80414790D01*
X94712371Y-80508627D01*
X94746802Y-80557800D01*
X94908700Y-80719698D01*
X94913208Y-80722855D01*
X94913211Y-80722857D01*
X94954542Y-80751797D01*
X95096251Y-80851023D01*
X95101233Y-80853346D01*
X95101238Y-80853349D01*
X95298775Y-80945461D01*
X95303757Y-80947784D01*
X95309065Y-80949206D01*
X95309067Y-80949207D01*
X95519598Y-81005619D01*
X95519600Y-81005619D01*
X95524913Y-81007043D01*
X95753000Y-81026998D01*
X95981087Y-81007043D01*
X95986400Y-81005619D01*
X95986402Y-81005619D01*
X96196933Y-80949207D01*
X96196935Y-80949206D01*
X96202243Y-80947784D01*
X96207225Y-80945461D01*
X96404762Y-80853349D01*
X96404767Y-80853346D01*
X96409749Y-80851023D01*
X96551458Y-80751797D01*
X96592789Y-80722857D01*
X96592792Y-80722855D01*
X96597300Y-80719698D01*
X96759198Y-80557800D01*
X96793630Y-80508627D01*
X96859335Y-80414790D01*
X96890523Y-80370249D01*
X96892846Y-80365267D01*
X96892849Y-80365262D01*
X96908805Y-80331043D01*
X96955722Y-80277758D01*
X97023999Y-80258297D01*
X97091959Y-80278839D01*
X97137195Y-80331043D01*
X97153151Y-80365262D01*
X97153154Y-80365267D01*
X97155477Y-80370249D01*
X97186665Y-80414790D01*
X97252371Y-80508627D01*
X97286802Y-80557800D01*
X97448700Y-80719698D01*
X97453208Y-80722855D01*
X97453211Y-80722857D01*
X97494542Y-80751797D01*
X97636251Y-80851023D01*
X97641233Y-80853346D01*
X97641238Y-80853349D01*
X97838775Y-80945461D01*
X97843757Y-80947784D01*
X97849065Y-80949206D01*
X97849067Y-80949207D01*
X98059598Y-81005619D01*
X98059600Y-81005619D01*
X98064913Y-81007043D01*
X98293000Y-81026998D01*
X98521087Y-81007043D01*
X98526400Y-81005619D01*
X98526402Y-81005619D01*
X98736933Y-80949207D01*
X98736935Y-80949206D01*
X98742243Y-80947784D01*
X98747225Y-80945461D01*
X98944762Y-80853349D01*
X98944767Y-80853346D01*
X98949749Y-80851023D01*
X99091458Y-80751797D01*
X99132789Y-80722857D01*
X99132792Y-80722855D01*
X99137300Y-80719698D01*
X99299198Y-80557800D01*
X99333630Y-80508627D01*
X99399335Y-80414790D01*
X99430523Y-80370249D01*
X99432846Y-80365267D01*
X99432849Y-80365262D01*
X99448805Y-80331043D01*
X99495722Y-80277758D01*
X99563999Y-80258297D01*
X99631959Y-80278839D01*
X99677195Y-80331043D01*
X99693151Y-80365262D01*
X99693154Y-80365267D01*
X99695477Y-80370249D01*
X99726665Y-80414790D01*
X99792371Y-80508627D01*
X99826802Y-80557800D01*
X99988700Y-80719698D01*
X99993208Y-80722855D01*
X99993211Y-80722857D01*
X100034542Y-80751797D01*
X100176251Y-80851023D01*
X100181233Y-80853346D01*
X100181238Y-80853349D01*
X100378775Y-80945461D01*
X100383757Y-80947784D01*
X100389065Y-80949206D01*
X100389067Y-80949207D01*
X100599598Y-81005619D01*
X100599600Y-81005619D01*
X100604913Y-81007043D01*
X100833000Y-81026998D01*
X101061087Y-81007043D01*
X101066400Y-81005619D01*
X101066402Y-81005619D01*
X101276933Y-80949207D01*
X101276935Y-80949206D01*
X101282243Y-80947784D01*
X101287225Y-80945461D01*
X101484762Y-80853349D01*
X101484767Y-80853346D01*
X101489749Y-80851023D01*
X101631458Y-80751797D01*
X101672789Y-80722857D01*
X101672792Y-80722855D01*
X101677300Y-80719698D01*
X101839198Y-80557800D01*
X101842357Y-80553289D01*
X101845892Y-80549076D01*
X101847026Y-80550027D01*
X101897071Y-80510029D01*
X101967690Y-80502724D01*
X102031049Y-80534758D01*
X102067030Y-80595962D01*
X102070082Y-80613017D01*
X102071255Y-80623816D01*
X102122385Y-80760205D01*
X102209739Y-80876761D01*
X102326295Y-80964115D01*
X102462684Y-81015245D01*
X102524866Y-81022000D01*
X104221134Y-81022000D01*
X104283316Y-81015245D01*
X104419705Y-80964115D01*
X104536261Y-80876761D01*
X104623615Y-80760205D01*
X104674745Y-80623816D01*
X104681500Y-80561634D01*
X104681500Y-78960386D01*
X104701502Y-78892265D01*
X104755158Y-78845772D01*
X104825432Y-78835668D01*
X104890012Y-78865162D01*
X104896595Y-78871291D01*
X105967090Y-79941786D01*
X106001116Y-80004098D01*
X105996051Y-80074913D01*
X105953504Y-80131749D01*
X105904193Y-80154127D01*
X105896177Y-80155831D01*
X105896170Y-80155833D01*
X105889712Y-80157206D01*
X105883682Y-80159891D01*
X105883681Y-80159891D01*
X105721278Y-80232197D01*
X105721276Y-80232198D01*
X105715248Y-80234882D01*
X105560747Y-80347134D01*
X105432960Y-80489056D01*
X105337473Y-80654444D01*
X105278458Y-80836072D01*
X105277768Y-80842633D01*
X105277768Y-80842635D01*
X105261093Y-81001292D01*
X105234080Y-81066949D01*
X105224878Y-81077217D01*
X105112747Y-81189348D01*
X105104461Y-81196888D01*
X105097982Y-81201000D01*
X105092557Y-81206777D01*
X105051357Y-81250651D01*
X105048602Y-81253493D01*
X105028865Y-81273230D01*
X105026385Y-81276427D01*
X105018682Y-81285447D01*
X104988414Y-81317679D01*
X104984595Y-81324625D01*
X104984593Y-81324628D01*
X104978652Y-81335434D01*
X104967801Y-81351953D01*
X104955386Y-81367959D01*
X104952241Y-81375228D01*
X104952238Y-81375232D01*
X104937826Y-81408537D01*
X104932609Y-81419187D01*
X104911305Y-81457940D01*
X104909334Y-81465615D01*
X104909334Y-81465616D01*
X104906267Y-81477562D01*
X104899863Y-81496266D01*
X104891819Y-81514855D01*
X104890580Y-81522678D01*
X104890577Y-81522688D01*
X104884901Y-81558524D01*
X104882495Y-81570144D01*
X104871500Y-81612970D01*
X104871500Y-81633224D01*
X104869949Y-81652934D01*
X104866780Y-81672943D01*
X104867526Y-81680835D01*
X104870941Y-81716961D01*
X104871500Y-81728819D01*
X104871500Y-88440233D01*
X104870973Y-88451416D01*
X104869298Y-88458909D01*
X104869547Y-88466835D01*
X104869547Y-88466836D01*
X104871438Y-88526986D01*
X104871500Y-88530945D01*
X104871500Y-88558856D01*
X104871997Y-88562790D01*
X104871997Y-88562791D01*
X104872005Y-88562856D01*
X104872938Y-88574693D01*
X104874327Y-88618889D01*
X104879978Y-88638339D01*
X104883987Y-88657700D01*
X104886526Y-88677797D01*
X104889445Y-88685168D01*
X104889445Y-88685170D01*
X104902804Y-88718912D01*
X104906649Y-88730142D01*
X104918982Y-88772593D01*
X104923015Y-88779412D01*
X104923017Y-88779417D01*
X104929293Y-88790028D01*
X104937988Y-88807776D01*
X104945448Y-88826617D01*
X104950110Y-88833033D01*
X104950110Y-88833034D01*
X104971436Y-88862387D01*
X104977952Y-88872307D01*
X105000458Y-88910362D01*
X105014779Y-88924683D01*
X105027619Y-88939716D01*
X105039528Y-88956107D01*
X105045634Y-88961158D01*
X105073605Y-88984298D01*
X105082384Y-88992288D01*
X105355636Y-89265540D01*
X105389662Y-89327852D01*
X105389060Y-89384049D01*
X105335465Y-89607289D01*
X105316835Y-89844000D01*
X105335465Y-90080711D01*
X105390895Y-90311594D01*
X105392788Y-90316165D01*
X105392789Y-90316167D01*
X105478833Y-90523896D01*
X105481760Y-90530963D01*
X105484346Y-90535183D01*
X105603241Y-90729202D01*
X105603245Y-90729208D01*
X105605824Y-90733416D01*
X105760031Y-90913969D01*
X105940584Y-91068176D01*
X105944792Y-91070755D01*
X105944798Y-91070759D01*
X106138817Y-91189654D01*
X106143037Y-91192240D01*
X106147607Y-91194133D01*
X106147611Y-91194135D01*
X106349106Y-91277596D01*
X106362406Y-91283105D01*
X106442609Y-91302360D01*
X106588476Y-91337380D01*
X106588482Y-91337381D01*
X106593289Y-91338535D01*
X106830000Y-91357165D01*
X107066711Y-91338535D01*
X107071518Y-91337381D01*
X107071524Y-91337380D01*
X107217391Y-91302360D01*
X107297594Y-91283105D01*
X107310894Y-91277596D01*
X107512389Y-91194135D01*
X107512393Y-91194133D01*
X107516963Y-91192240D01*
X107521183Y-91189654D01*
X107715202Y-91070759D01*
X107715208Y-91070755D01*
X107719416Y-91068176D01*
X107899969Y-90913969D01*
X108054176Y-90733416D01*
X108056755Y-90729208D01*
X108056759Y-90729202D01*
X108175654Y-90535183D01*
X108178240Y-90530963D01*
X108181168Y-90523896D01*
X108267211Y-90316167D01*
X108267212Y-90316165D01*
X108269105Y-90311594D01*
X108324535Y-90080711D01*
X108343165Y-89844000D01*
X108324535Y-89607289D01*
X108269105Y-89376406D01*
X108248994Y-89327853D01*
X108180135Y-89161611D01*
X108180133Y-89161607D01*
X108178240Y-89157037D01*
X108167977Y-89140290D01*
X108056759Y-88958798D01*
X108056755Y-88958792D01*
X108054176Y-88954584D01*
X107899969Y-88774031D01*
X107719416Y-88619824D01*
X107715208Y-88617245D01*
X107715202Y-88617241D01*
X107521183Y-88498346D01*
X107516963Y-88495760D01*
X107512393Y-88493867D01*
X107512389Y-88493865D01*
X107302167Y-88406789D01*
X107302165Y-88406788D01*
X107297594Y-88404895D01*
X107204841Y-88382627D01*
X107071524Y-88350620D01*
X107071518Y-88350619D01*
X107066711Y-88349465D01*
X106830000Y-88330835D01*
X106593289Y-88349465D01*
X106588482Y-88350619D01*
X106588476Y-88350620D01*
X106455159Y-88382627D01*
X106370049Y-88403060D01*
X106299142Y-88399513D01*
X106251541Y-88369636D01*
X106175405Y-88293500D01*
X106141379Y-88231188D01*
X106138500Y-88204405D01*
X106138500Y-86878391D01*
X106158502Y-86810270D01*
X106212158Y-86763777D01*
X106282432Y-86753673D01*
X106312719Y-86761982D01*
X106357993Y-86780735D01*
X106367373Y-86783783D01*
X106588554Y-86836885D01*
X106598301Y-86838428D01*
X106825070Y-86856275D01*
X106834930Y-86856275D01*
X107061699Y-86838428D01*
X107071446Y-86836885D01*
X107292627Y-86783783D01*
X107302012Y-86780734D01*
X107512163Y-86693687D01*
X107520958Y-86689205D01*
X107688445Y-86586568D01*
X107697907Y-86576110D01*
X107694124Y-86567334D01*
X106559885Y-85433095D01*
X106525859Y-85370783D01*
X106527694Y-85345132D01*
X107194408Y-85345132D01*
X107194539Y-85346965D01*
X107198790Y-85353580D01*
X108050290Y-86205080D01*
X108062670Y-86211840D01*
X108070320Y-86206113D01*
X108175205Y-86034958D01*
X108179687Y-86026163D01*
X108266734Y-85816012D01*
X108269783Y-85806627D01*
X108322885Y-85585446D01*
X108324428Y-85575699D01*
X108342275Y-85348930D01*
X108342275Y-85339070D01*
X108324428Y-85112301D01*
X108322885Y-85102554D01*
X108269783Y-84881373D01*
X108266734Y-84871988D01*
X108179687Y-84661837D01*
X108175205Y-84653042D01*
X108072568Y-84485555D01*
X108062110Y-84476093D01*
X108053334Y-84479876D01*
X107202022Y-85331188D01*
X107194408Y-85345132D01*
X106527694Y-85345132D01*
X106530924Y-85299968D01*
X106559885Y-85254905D01*
X107691080Y-84123710D01*
X107697840Y-84111330D01*
X107692113Y-84103680D01*
X107520958Y-83998795D01*
X107512163Y-83994313D01*
X107302012Y-83907266D01*
X107292627Y-83904217D01*
X107071446Y-83851115D01*
X107061699Y-83849572D01*
X106834930Y-83831725D01*
X106825070Y-83831725D01*
X106598301Y-83849572D01*
X106588554Y-83851115D01*
X106367373Y-83904217D01*
X106357993Y-83907265D01*
X106312719Y-83926018D01*
X106242129Y-83933607D01*
X106178642Y-83901828D01*
X106142414Y-83840770D01*
X106138500Y-83809609D01*
X106138500Y-82060500D01*
X106158502Y-81992379D01*
X106212158Y-81945886D01*
X106254475Y-81936681D01*
X106254318Y-81935190D01*
X106260884Y-81934500D01*
X106267487Y-81934500D01*
X106273944Y-81933128D01*
X106280515Y-81932437D01*
X106280780Y-81934960D01*
X106340195Y-81939488D01*
X106396831Y-81982299D01*
X106404728Y-81994332D01*
X106448960Y-82070944D01*
X106576747Y-82212866D01*
X106731248Y-82325118D01*
X106737276Y-82327802D01*
X106737278Y-82327803D01*
X106899681Y-82400109D01*
X106905712Y-82402794D01*
X106999112Y-82422647D01*
X107086056Y-82441128D01*
X107086061Y-82441128D01*
X107092513Y-82442500D01*
X107148406Y-82442500D01*
X107216527Y-82462502D01*
X107237501Y-82479405D01*
X109764595Y-85006499D01*
X109798621Y-85068811D01*
X109801500Y-85095594D01*
X109801500Y-98600233D01*
X109800973Y-98611416D01*
X109799298Y-98618909D01*
X109799547Y-98626835D01*
X109799547Y-98626836D01*
X109801438Y-98686986D01*
X109801500Y-98690945D01*
X109801500Y-98718856D01*
X109801997Y-98722790D01*
X109801997Y-98722791D01*
X109802005Y-98722856D01*
X109802938Y-98734693D01*
X109804327Y-98778889D01*
X109809978Y-98798339D01*
X109813987Y-98817700D01*
X109816526Y-98837797D01*
X109819445Y-98845168D01*
X109819445Y-98845170D01*
X109832804Y-98878912D01*
X109836649Y-98890142D01*
X109846209Y-98923049D01*
X109848982Y-98932593D01*
X109853015Y-98939412D01*
X109853017Y-98939417D01*
X109859293Y-98950028D01*
X109867988Y-98967776D01*
X109875448Y-98986617D01*
X109880110Y-98993033D01*
X109880110Y-98993034D01*
X109901436Y-99022387D01*
X109907952Y-99032307D01*
X109930458Y-99070362D01*
X109944779Y-99084683D01*
X109957619Y-99099716D01*
X109969528Y-99116107D01*
X109975634Y-99121158D01*
X110003605Y-99144298D01*
X110012384Y-99152288D01*
X110285636Y-99425540D01*
X110319662Y-99487852D01*
X110319060Y-99544049D01*
X110267459Y-99758984D01*
X110265465Y-99767289D01*
X110246835Y-100004000D01*
X110265465Y-100240711D01*
X110266619Y-100245518D01*
X110266620Y-100245524D01*
X110301640Y-100391391D01*
X110320895Y-100471594D01*
X110322788Y-100476165D01*
X110322789Y-100476167D01*
X110405439Y-100675702D01*
X110411760Y-100690963D01*
X110414346Y-100695183D01*
X110533241Y-100889202D01*
X110533245Y-100889208D01*
X110535824Y-100893416D01*
X110690031Y-101073969D01*
X110870584Y-101228176D01*
X110874792Y-101230755D01*
X110874798Y-101230759D01*
X110929330Y-101264176D01*
X111073037Y-101352240D01*
X111077607Y-101354133D01*
X111077611Y-101354135D01*
X111287833Y-101441211D01*
X111292406Y-101443105D01*
X111372609Y-101462360D01*
X111518476Y-101497380D01*
X111518482Y-101497381D01*
X111523289Y-101498535D01*
X111760000Y-101517165D01*
X111996711Y-101498535D01*
X112001518Y-101497381D01*
X112001524Y-101497380D01*
X112147391Y-101462360D01*
X112227594Y-101443105D01*
X112232167Y-101441211D01*
X112442389Y-101354135D01*
X112442393Y-101354133D01*
X112446963Y-101352240D01*
X112590670Y-101264176D01*
X112645202Y-101230759D01*
X112645208Y-101230755D01*
X112649416Y-101228176D01*
X112829969Y-101073969D01*
X112984176Y-100893416D01*
X112986755Y-100889208D01*
X112986759Y-100889202D01*
X113105654Y-100695183D01*
X113108240Y-100690963D01*
X113114562Y-100675702D01*
X113197211Y-100476167D01*
X113197212Y-100476165D01*
X113199105Y-100471594D01*
X113218360Y-100391391D01*
X113253380Y-100245524D01*
X113253381Y-100245518D01*
X113254535Y-100240711D01*
X113273165Y-100004000D01*
X116746835Y-100004000D01*
X116765465Y-100240711D01*
X116766619Y-100245518D01*
X116766620Y-100245524D01*
X116801640Y-100391391D01*
X116820895Y-100471594D01*
X116822788Y-100476165D01*
X116822789Y-100476167D01*
X116905439Y-100675702D01*
X116911760Y-100690963D01*
X116914346Y-100695183D01*
X117033241Y-100889202D01*
X117033245Y-100889208D01*
X117035824Y-100893416D01*
X117190031Y-101073969D01*
X117370584Y-101228176D01*
X117374792Y-101230755D01*
X117374798Y-101230759D01*
X117429330Y-101264176D01*
X117573037Y-101352240D01*
X117577607Y-101354133D01*
X117577611Y-101354135D01*
X117787833Y-101441211D01*
X117792406Y-101443105D01*
X117872609Y-101462360D01*
X118018476Y-101497380D01*
X118018482Y-101497381D01*
X118023289Y-101498535D01*
X118260000Y-101517165D01*
X118496711Y-101498535D01*
X118501518Y-101497381D01*
X118501524Y-101497380D01*
X118647391Y-101462360D01*
X118727594Y-101443105D01*
X118732167Y-101441211D01*
X118942389Y-101354135D01*
X118942393Y-101354133D01*
X118946963Y-101352240D01*
X119090670Y-101264176D01*
X119145202Y-101230759D01*
X119145208Y-101230755D01*
X119149416Y-101228176D01*
X119329969Y-101073969D01*
X119484176Y-100893416D01*
X119486755Y-100889208D01*
X119486759Y-100889202D01*
X119605654Y-100695183D01*
X119608240Y-100690963D01*
X119614562Y-100675702D01*
X119697211Y-100476167D01*
X119697212Y-100476165D01*
X119699105Y-100471594D01*
X119718360Y-100391391D01*
X119753380Y-100245524D01*
X119753381Y-100245518D01*
X119754535Y-100240711D01*
X119773165Y-100004000D01*
X119754535Y-99767289D01*
X119752542Y-99758984D01*
X119714023Y-99598544D01*
X119699105Y-99536406D01*
X119682020Y-99495159D01*
X119610135Y-99321611D01*
X119610133Y-99321607D01*
X119608240Y-99317037D01*
X119576335Y-99264973D01*
X119486759Y-99118798D01*
X119486755Y-99118792D01*
X119484176Y-99114584D01*
X119329969Y-98934031D01*
X119149416Y-98779824D01*
X119145208Y-98777245D01*
X119145202Y-98777241D01*
X118951183Y-98658346D01*
X118946963Y-98655760D01*
X118942393Y-98653867D01*
X118942389Y-98653865D01*
X118732167Y-98566789D01*
X118732165Y-98566788D01*
X118727594Y-98564895D01*
X118645046Y-98545077D01*
X118501524Y-98510620D01*
X118501518Y-98510619D01*
X118496711Y-98509465D01*
X118260000Y-98490835D01*
X118023289Y-98509465D01*
X118018482Y-98510619D01*
X118018476Y-98510620D01*
X117874954Y-98545077D01*
X117792406Y-98564895D01*
X117787835Y-98566788D01*
X117787833Y-98566789D01*
X117577611Y-98653865D01*
X117577607Y-98653867D01*
X117573037Y-98655760D01*
X117568817Y-98658346D01*
X117374798Y-98777241D01*
X117374792Y-98777245D01*
X117370584Y-98779824D01*
X117190031Y-98934031D01*
X117035824Y-99114584D01*
X117033245Y-99118792D01*
X117033241Y-99118798D01*
X116943665Y-99264973D01*
X116911760Y-99317037D01*
X116909867Y-99321607D01*
X116909865Y-99321611D01*
X116837980Y-99495159D01*
X116820895Y-99536406D01*
X116805977Y-99598544D01*
X116767459Y-99758984D01*
X116765465Y-99767289D01*
X116746835Y-100004000D01*
X113273165Y-100004000D01*
X113254535Y-99767289D01*
X113252542Y-99758984D01*
X113214023Y-99598544D01*
X113199105Y-99536406D01*
X113182020Y-99495159D01*
X113110135Y-99321611D01*
X113110133Y-99321607D01*
X113108240Y-99317037D01*
X113076335Y-99264973D01*
X112986759Y-99118798D01*
X112986755Y-99118792D01*
X112984176Y-99114584D01*
X112829969Y-98934031D01*
X112649416Y-98779824D01*
X112645208Y-98777245D01*
X112645202Y-98777241D01*
X112451183Y-98658346D01*
X112446963Y-98655760D01*
X112442393Y-98653867D01*
X112442389Y-98653865D01*
X112232167Y-98566789D01*
X112232165Y-98566788D01*
X112227594Y-98564895D01*
X112145046Y-98545077D01*
X112001524Y-98510620D01*
X112001518Y-98510619D01*
X111996711Y-98509465D01*
X111760000Y-98490835D01*
X111523289Y-98509465D01*
X111518482Y-98510619D01*
X111518476Y-98510620D01*
X111374954Y-98545077D01*
X111300049Y-98563060D01*
X111229142Y-98559513D01*
X111181541Y-98529636D01*
X111105405Y-98453500D01*
X111071379Y-98391188D01*
X111068500Y-98364405D01*
X111068500Y-97038391D01*
X111088502Y-96970270D01*
X111142158Y-96923777D01*
X111212432Y-96913673D01*
X111242719Y-96921982D01*
X111287993Y-96940735D01*
X111297373Y-96943783D01*
X111518554Y-96996885D01*
X111528301Y-96998428D01*
X111755070Y-97016275D01*
X111764930Y-97016275D01*
X111991699Y-96998428D01*
X112001446Y-96996885D01*
X112222627Y-96943783D01*
X112232012Y-96940734D01*
X112442163Y-96853687D01*
X112450958Y-96849205D01*
X112618445Y-96746568D01*
X112627400Y-96736670D01*
X117392160Y-96736670D01*
X117397887Y-96744320D01*
X117569042Y-96849205D01*
X117577837Y-96853687D01*
X117787988Y-96940734D01*
X117797373Y-96943783D01*
X118018554Y-96996885D01*
X118028301Y-96998428D01*
X118255070Y-97016275D01*
X118264930Y-97016275D01*
X118491699Y-96998428D01*
X118501446Y-96996885D01*
X118722627Y-96943783D01*
X118732012Y-96940734D01*
X118942163Y-96853687D01*
X118950958Y-96849205D01*
X119118445Y-96746568D01*
X119127907Y-96736110D01*
X119124124Y-96727334D01*
X118272812Y-95876022D01*
X118258868Y-95868408D01*
X118257035Y-95868539D01*
X118250420Y-95872790D01*
X117398920Y-96724290D01*
X117392160Y-96736670D01*
X112627400Y-96736670D01*
X112627907Y-96736110D01*
X112624124Y-96727334D01*
X111489885Y-95593095D01*
X111455859Y-95530783D01*
X111457694Y-95505132D01*
X112124408Y-95505132D01*
X112124539Y-95506965D01*
X112128790Y-95513580D01*
X112980290Y-96365080D01*
X112992670Y-96371840D01*
X113000320Y-96366113D01*
X113105205Y-96194958D01*
X113109687Y-96186163D01*
X113196734Y-95976012D01*
X113199783Y-95966627D01*
X113252885Y-95745446D01*
X113254428Y-95735699D01*
X113272275Y-95508930D01*
X116747725Y-95508930D01*
X116765572Y-95735699D01*
X116767115Y-95745446D01*
X116820217Y-95966627D01*
X116823266Y-95976012D01*
X116910313Y-96186163D01*
X116914795Y-96194958D01*
X117017432Y-96362445D01*
X117027890Y-96371907D01*
X117036666Y-96368124D01*
X117887978Y-95516812D01*
X117894356Y-95505132D01*
X118624408Y-95505132D01*
X118624539Y-95506965D01*
X118628790Y-95513580D01*
X119480290Y-96365080D01*
X119492670Y-96371840D01*
X119500320Y-96366113D01*
X119605205Y-96194958D01*
X119609687Y-96186163D01*
X119696734Y-95976012D01*
X119699783Y-95966627D01*
X119752885Y-95745446D01*
X119754428Y-95735699D01*
X119772275Y-95508930D01*
X119772275Y-95499070D01*
X119754428Y-95272301D01*
X119752885Y-95262554D01*
X119699783Y-95041373D01*
X119696734Y-95031988D01*
X119609687Y-94821837D01*
X119605205Y-94813042D01*
X119502568Y-94645555D01*
X119492110Y-94636093D01*
X119483334Y-94639876D01*
X118632022Y-95491188D01*
X118624408Y-95505132D01*
X117894356Y-95505132D01*
X117895592Y-95502868D01*
X117895461Y-95501035D01*
X117891210Y-95494420D01*
X117039710Y-94642920D01*
X117027330Y-94636160D01*
X117019680Y-94641887D01*
X116914795Y-94813042D01*
X116910313Y-94821837D01*
X116823266Y-95031988D01*
X116820217Y-95041373D01*
X116767115Y-95262554D01*
X116765572Y-95272301D01*
X116747725Y-95499070D01*
X116747725Y-95508930D01*
X113272275Y-95508930D01*
X113272275Y-95499070D01*
X113254428Y-95272301D01*
X113252885Y-95262554D01*
X113199783Y-95041373D01*
X113196734Y-95031988D01*
X113109687Y-94821837D01*
X113105205Y-94813042D01*
X113002568Y-94645555D01*
X112992110Y-94636093D01*
X112983334Y-94639876D01*
X112132022Y-95491188D01*
X112124408Y-95505132D01*
X111457694Y-95505132D01*
X111460924Y-95459968D01*
X111489885Y-95414905D01*
X112621080Y-94283710D01*
X112627534Y-94271890D01*
X117392093Y-94271890D01*
X117395876Y-94280666D01*
X118247188Y-95131978D01*
X118261132Y-95139592D01*
X118262965Y-95139461D01*
X118269580Y-95135210D01*
X119121080Y-94283710D01*
X119127840Y-94271330D01*
X119122113Y-94263680D01*
X118950958Y-94158795D01*
X118942163Y-94154313D01*
X118732012Y-94067266D01*
X118722627Y-94064217D01*
X118501446Y-94011115D01*
X118491699Y-94009572D01*
X118264930Y-93991725D01*
X118255070Y-93991725D01*
X118028301Y-94009572D01*
X118018554Y-94011115D01*
X117797373Y-94064217D01*
X117787988Y-94067266D01*
X117577837Y-94154313D01*
X117569042Y-94158795D01*
X117401555Y-94261432D01*
X117392093Y-94271890D01*
X112627534Y-94271890D01*
X112627840Y-94271330D01*
X112622113Y-94263680D01*
X112450958Y-94158795D01*
X112442163Y-94154313D01*
X112232012Y-94067266D01*
X112222627Y-94064217D01*
X112001446Y-94011115D01*
X111991699Y-94009572D01*
X111764930Y-93991725D01*
X111755070Y-93991725D01*
X111528301Y-94009572D01*
X111518554Y-94011115D01*
X111297373Y-94064217D01*
X111287993Y-94067265D01*
X111242719Y-94086018D01*
X111172129Y-94093607D01*
X111108642Y-94061828D01*
X111072414Y-94000770D01*
X111068500Y-93969609D01*
X111068500Y-85347386D01*
X111088502Y-85279265D01*
X111142158Y-85232772D01*
X111212432Y-85222668D01*
X111277012Y-85252162D01*
X111283595Y-85258291D01*
X120341969Y-94316666D01*
X129397076Y-103371773D01*
X129404616Y-103380059D01*
X129408728Y-103386538D01*
X129414505Y-103391963D01*
X129458379Y-103433163D01*
X129461221Y-103435918D01*
X129480958Y-103455655D01*
X129484155Y-103458135D01*
X129493175Y-103465838D01*
X129525407Y-103496106D01*
X129532353Y-103499925D01*
X129532356Y-103499927D01*
X129543162Y-103505868D01*
X129559681Y-103516719D01*
X129575687Y-103529134D01*
X129582956Y-103532279D01*
X129582960Y-103532282D01*
X129616265Y-103546694D01*
X129626915Y-103551911D01*
X129665668Y-103573215D01*
X129673343Y-103575186D01*
X129673344Y-103575186D01*
X129685290Y-103578253D01*
X129703995Y-103584657D01*
X129722583Y-103592701D01*
X129730406Y-103593940D01*
X129730416Y-103593943D01*
X129766252Y-103599619D01*
X129777872Y-103602025D01*
X129813017Y-103611048D01*
X129820698Y-103613020D01*
X129840952Y-103613020D01*
X129860662Y-103614571D01*
X129880671Y-103617740D01*
X129888563Y-103616994D01*
X129924689Y-103613579D01*
X129936547Y-103613020D01*
X143449406Y-103613020D01*
X143517527Y-103633022D01*
X143538501Y-103649925D01*
X145399602Y-105511026D01*
X145431233Y-105566479D01*
X145431526Y-105568797D01*
X145434443Y-105576163D01*
X145434444Y-105576169D01*
X145452199Y-105621011D01*
X145454871Y-105628430D01*
X145472236Y-105681875D01*
X145476486Y-105688571D01*
X145476486Y-105688572D01*
X145476650Y-105688831D01*
X145487415Y-105709958D01*
X145487529Y-105710246D01*
X145487532Y-105710251D01*
X145490448Y-105717617D01*
X145495104Y-105724025D01*
X145495107Y-105724031D01*
X145523458Y-105763052D01*
X145527901Y-105769589D01*
X145558000Y-105817018D01*
X145563778Y-105822444D01*
X145563779Y-105822445D01*
X145564007Y-105822659D01*
X145579688Y-105840446D01*
X145584528Y-105847107D01*
X145590637Y-105852161D01*
X145590638Y-105852162D01*
X145627796Y-105882903D01*
X145633730Y-105888134D01*
X145668898Y-105921158D01*
X145668901Y-105921160D01*
X145674679Y-105926586D01*
X145681903Y-105930558D01*
X145701506Y-105943881D01*
X145701746Y-105944080D01*
X145701753Y-105944084D01*
X145707856Y-105949133D01*
X145734624Y-105961729D01*
X145758676Y-105973047D01*
X145765708Y-105976629D01*
X145814940Y-106003695D01*
X145822615Y-106005665D01*
X145822621Y-106005668D01*
X145822919Y-106005744D01*
X145845228Y-106013776D01*
X145845503Y-106013906D01*
X145845511Y-106013909D01*
X145852682Y-106017283D01*
X145907849Y-106027806D01*
X145915558Y-106029529D01*
X145949551Y-106038257D01*
X145962293Y-106041529D01*
X145962294Y-106041529D01*
X145969970Y-106043500D01*
X145978207Y-106043500D01*
X146001816Y-106045732D01*
X146002119Y-106045790D01*
X146002123Y-106045790D01*
X146009906Y-106047275D01*
X146065951Y-106043749D01*
X146073862Y-106043500D01*
X150305211Y-106043500D01*
X150373332Y-106063502D01*
X150419825Y-106117158D01*
X150429516Y-106190100D01*
X150427495Y-106202296D01*
X150431983Y-106212708D01*
X152515655Y-108296380D01*
X152554171Y-108317412D01*
X152589596Y-108346169D01*
X152722275Y-108501516D01*
X152722280Y-108501521D01*
X152725488Y-108505277D01*
X152905980Y-108659432D01*
X153108365Y-108783454D01*
X153112935Y-108785347D01*
X153112939Y-108785349D01*
X153323091Y-108872396D01*
X153323097Y-108872398D01*
X153327660Y-108874288D01*
X153332460Y-108875440D01*
X153332465Y-108875442D01*
X153437880Y-108900750D01*
X153558464Y-108929700D01*
X153795095Y-108948323D01*
X154031726Y-108929700D01*
X154152310Y-108900750D01*
X154257725Y-108875442D01*
X154257730Y-108875440D01*
X154262530Y-108874288D01*
X154267093Y-108872398D01*
X154267099Y-108872396D01*
X154477251Y-108785349D01*
X154477255Y-108785347D01*
X154481825Y-108783454D01*
X154684210Y-108659432D01*
X154864702Y-108505277D01*
X154948964Y-108406619D01*
X155008414Y-108367810D01*
X155079409Y-108367304D01*
X155140586Y-108406619D01*
X155224848Y-108505277D01*
X155405340Y-108659432D01*
X155607725Y-108783454D01*
X155612295Y-108785347D01*
X155612299Y-108785349D01*
X155822451Y-108872396D01*
X155822457Y-108872398D01*
X155827020Y-108874288D01*
X155831820Y-108875440D01*
X155831825Y-108875442D01*
X155937240Y-108900750D01*
X156057824Y-108929700D01*
X156294455Y-108948323D01*
X156531086Y-108929700D01*
X156651670Y-108900750D01*
X156757085Y-108875442D01*
X156757090Y-108875440D01*
X156761890Y-108874288D01*
X156766453Y-108872398D01*
X156766459Y-108872396D01*
X156976611Y-108785349D01*
X156976615Y-108785347D01*
X156981185Y-108783454D01*
X157183570Y-108659432D01*
X157364062Y-108505277D01*
X157518217Y-108324785D01*
X157642239Y-108122400D01*
X157644228Y-108117598D01*
X157731181Y-107907674D01*
X157731183Y-107907668D01*
X157733073Y-107903105D01*
X157734266Y-107898138D01*
X157787330Y-107677110D01*
X157788485Y-107672301D01*
X157807108Y-107435670D01*
X157788485Y-107199039D01*
X157759535Y-107078455D01*
X157734227Y-106973040D01*
X157734225Y-106973035D01*
X157733073Y-106968235D01*
X157731183Y-106963672D01*
X157731181Y-106963666D01*
X157644134Y-106753514D01*
X157644132Y-106753510D01*
X157642239Y-106748940D01*
X157518217Y-106546555D01*
X157364062Y-106366063D01*
X157183570Y-106211908D01*
X156981185Y-106087886D01*
X156976615Y-106085993D01*
X156976611Y-106085991D01*
X156766459Y-105998944D01*
X156766453Y-105998942D01*
X156761890Y-105997052D01*
X156757090Y-105995900D01*
X156757085Y-105995898D01*
X156614761Y-105961729D01*
X156531086Y-105941640D01*
X156294455Y-105923017D01*
X156057824Y-105941640D01*
X155974149Y-105961729D01*
X155831825Y-105995898D01*
X155831820Y-105995900D01*
X155827020Y-105997052D01*
X155822457Y-105998942D01*
X155822451Y-105998944D01*
X155612299Y-106085991D01*
X155612295Y-106085993D01*
X155607725Y-106087886D01*
X155405340Y-106211908D01*
X155224848Y-106366063D01*
X155221640Y-106369819D01*
X155140586Y-106464721D01*
X155081136Y-106503530D01*
X155010141Y-106504036D01*
X154948964Y-106464721D01*
X154867910Y-106369819D01*
X154864702Y-106366063D01*
X154684210Y-106211908D01*
X154481825Y-106087886D01*
X154477255Y-106085993D01*
X154477251Y-106085991D01*
X154267099Y-105998944D01*
X154267093Y-105998942D01*
X154262530Y-105997052D01*
X154257730Y-105995900D01*
X154257725Y-105995898D01*
X154115401Y-105961729D01*
X154031726Y-105941640D01*
X153795095Y-105923017D01*
X153558464Y-105941640D01*
X153553655Y-105942794D01*
X153553652Y-105942795D01*
X153335568Y-105995153D01*
X153264660Y-105991606D01*
X153217059Y-105961729D01*
X152273077Y-105017747D01*
X152265537Y-105009461D01*
X152261425Y-105002982D01*
X152211773Y-104956356D01*
X152208932Y-104953602D01*
X152189195Y-104933865D01*
X152185998Y-104931385D01*
X152176976Y-104923680D01*
X152150525Y-104898841D01*
X152144746Y-104893414D01*
X152137800Y-104889595D01*
X152137797Y-104889593D01*
X152126991Y-104883652D01*
X152110472Y-104872801D01*
X152110008Y-104872441D01*
X152094466Y-104860386D01*
X152087197Y-104857241D01*
X152087193Y-104857238D01*
X152053888Y-104842826D01*
X152043238Y-104837609D01*
X152004485Y-104816305D01*
X151984862Y-104811267D01*
X151966159Y-104804863D01*
X151954845Y-104799967D01*
X151954844Y-104799967D01*
X151947570Y-104796819D01*
X151939747Y-104795580D01*
X151939737Y-104795577D01*
X151903901Y-104789901D01*
X151892281Y-104787495D01*
X151857136Y-104778472D01*
X151857135Y-104778472D01*
X151849455Y-104776500D01*
X151829201Y-104776500D01*
X151809490Y-104774949D01*
X151797311Y-104773020D01*
X151789482Y-104771780D01*
X151748659Y-104775639D01*
X151745464Y-104775941D01*
X151733606Y-104776500D01*
X148808090Y-104776500D01*
X148739969Y-104756498D01*
X148693476Y-104702842D01*
X148683372Y-104632568D01*
X148700657Y-104584665D01*
X148815749Y-104396853D01*
X148818335Y-104392633D01*
X148909200Y-104173264D01*
X148964630Y-103942381D01*
X148983260Y-103705670D01*
X158606930Y-103705670D01*
X158625560Y-103942381D01*
X158680990Y-104173264D01*
X158771855Y-104392633D01*
X158774441Y-104396853D01*
X158893336Y-104590872D01*
X158893340Y-104590878D01*
X158895919Y-104595086D01*
X159050126Y-104775639D01*
X159230679Y-104929846D01*
X159234887Y-104932425D01*
X159234893Y-104932429D01*
X159428912Y-105051324D01*
X159433132Y-105053910D01*
X159437702Y-105055803D01*
X159437706Y-105055805D01*
X159647928Y-105142881D01*
X159652501Y-105144775D01*
X159732704Y-105164030D01*
X159878571Y-105199050D01*
X159878577Y-105199051D01*
X159883384Y-105200205D01*
X160120095Y-105218835D01*
X160356806Y-105200205D01*
X160361613Y-105199051D01*
X160361619Y-105199050D01*
X160507486Y-105164030D01*
X160587689Y-105144775D01*
X160592262Y-105142881D01*
X160802484Y-105055805D01*
X160802488Y-105055803D01*
X160807058Y-105053910D01*
X160811278Y-105051324D01*
X161005297Y-104932429D01*
X161005303Y-104932425D01*
X161009511Y-104929846D01*
X161190064Y-104775639D01*
X161344271Y-104595086D01*
X161346850Y-104590878D01*
X161346854Y-104590872D01*
X161465749Y-104396853D01*
X161468335Y-104392633D01*
X161559200Y-104173264D01*
X161614630Y-103942381D01*
X161633260Y-103705670D01*
X161614630Y-103468959D01*
X161612906Y-103461775D01*
X161560355Y-103242888D01*
X161559200Y-103238076D01*
X161527593Y-103161769D01*
X161470230Y-103023281D01*
X161470228Y-103023277D01*
X161468335Y-103018707D01*
X161430121Y-102956348D01*
X161346854Y-102820468D01*
X161346850Y-102820462D01*
X161344271Y-102816254D01*
X161190064Y-102635701D01*
X161009511Y-102481494D01*
X161005303Y-102478915D01*
X161005297Y-102478911D01*
X160811278Y-102360016D01*
X160807058Y-102357430D01*
X160802488Y-102355537D01*
X160802484Y-102355535D01*
X160592262Y-102268459D01*
X160592260Y-102268458D01*
X160587689Y-102266565D01*
X160489084Y-102242892D01*
X160361619Y-102212290D01*
X160361613Y-102212289D01*
X160356806Y-102211135D01*
X160120095Y-102192505D01*
X159883384Y-102211135D01*
X159878577Y-102212289D01*
X159878571Y-102212290D01*
X159751106Y-102242892D01*
X159652501Y-102266565D01*
X159647930Y-102268458D01*
X159647928Y-102268459D01*
X159437706Y-102355535D01*
X159437702Y-102355537D01*
X159433132Y-102357430D01*
X159428912Y-102360016D01*
X159234893Y-102478911D01*
X159234887Y-102478915D01*
X159230679Y-102481494D01*
X159050126Y-102635701D01*
X158895919Y-102816254D01*
X158893340Y-102820462D01*
X158893336Y-102820468D01*
X158810069Y-102956348D01*
X158771855Y-103018707D01*
X158769962Y-103023277D01*
X158769960Y-103023281D01*
X158712597Y-103161769D01*
X158680990Y-103238076D01*
X158679835Y-103242888D01*
X158627285Y-103461775D01*
X158625560Y-103468959D01*
X158606930Y-103705670D01*
X148983260Y-103705670D01*
X148964630Y-103468959D01*
X148962906Y-103461775D01*
X148910355Y-103242888D01*
X148909200Y-103238076D01*
X148877593Y-103161769D01*
X148820230Y-103023281D01*
X148820228Y-103023277D01*
X148818335Y-103018707D01*
X148780121Y-102956348D01*
X148696854Y-102820468D01*
X148696850Y-102820462D01*
X148694271Y-102816254D01*
X148540064Y-102635701D01*
X148359511Y-102481494D01*
X148355303Y-102478915D01*
X148355297Y-102478911D01*
X148161278Y-102360016D01*
X148157058Y-102357430D01*
X148152488Y-102355537D01*
X148152484Y-102355535D01*
X147942262Y-102268459D01*
X147942260Y-102268458D01*
X147937689Y-102266565D01*
X147839084Y-102242892D01*
X147711619Y-102212290D01*
X147711613Y-102212289D01*
X147706806Y-102211135D01*
X147470095Y-102192505D01*
X147233384Y-102211135D01*
X147228577Y-102212289D01*
X147228571Y-102212290D01*
X147133269Y-102235170D01*
X147086332Y-102246439D01*
X147015425Y-102242892D01*
X146957691Y-102201572D01*
X146931461Y-102135599D01*
X146941282Y-102073879D01*
X146956759Y-102038114D01*
X146961976Y-102027465D01*
X146983280Y-101988712D01*
X146988318Y-101969089D01*
X146994722Y-101950386D01*
X146999618Y-101939072D01*
X146999618Y-101939071D01*
X147002766Y-101931797D01*
X147004005Y-101923974D01*
X147004008Y-101923964D01*
X147009684Y-101888128D01*
X147012090Y-101876508D01*
X147021113Y-101841363D01*
X147021113Y-101841362D01*
X147023085Y-101833682D01*
X147023085Y-101813428D01*
X147024636Y-101793717D01*
X147026565Y-101781538D01*
X147027805Y-101773709D01*
X147023644Y-101729690D01*
X147023085Y-101717833D01*
X147023085Y-100108928D01*
X147023612Y-100097745D01*
X147025287Y-100090252D01*
X147023147Y-100022161D01*
X147023085Y-100018204D01*
X147023085Y-99990304D01*
X147022581Y-99986313D01*
X147021648Y-99974471D01*
X147020508Y-99938196D01*
X147020259Y-99930271D01*
X147018047Y-99922657D01*
X147018046Y-99922652D01*
X147014608Y-99910819D01*
X147010597Y-99891455D01*
X147009052Y-99879224D01*
X147008059Y-99871363D01*
X147005142Y-99863996D01*
X147005141Y-99863991D01*
X146991783Y-99830252D01*
X146987939Y-99819025D01*
X146983367Y-99803289D01*
X146975603Y-99776567D01*
X146965292Y-99759132D01*
X146956597Y-99741384D01*
X146949137Y-99722543D01*
X146923149Y-99686773D01*
X146916633Y-99676853D01*
X146898165Y-99645625D01*
X146898163Y-99645622D01*
X146894127Y-99638798D01*
X146879806Y-99624477D01*
X146866965Y-99609443D01*
X146859716Y-99599466D01*
X146855057Y-99593053D01*
X146848953Y-99588003D01*
X146848948Y-99587998D01*
X146820987Y-99564867D01*
X146812206Y-99556877D01*
X146539035Y-99283705D01*
X146505010Y-99221393D01*
X146505613Y-99165195D01*
X146557968Y-98947122D01*
X146557970Y-98947110D01*
X146559125Y-98942301D01*
X146577748Y-98705670D01*
X146559125Y-98469039D01*
X146503713Y-98238235D01*
X146501823Y-98233672D01*
X146501821Y-98233666D01*
X146414774Y-98023514D01*
X146414772Y-98023510D01*
X146412879Y-98018940D01*
X146288857Y-97816555D01*
X146134702Y-97636063D01*
X146130946Y-97632855D01*
X146130941Y-97632850D01*
X145972258Y-97497322D01*
X145938381Y-97451389D01*
X145928847Y-97429272D01*
X145077907Y-96578332D01*
X145063963Y-96570718D01*
X145062130Y-96570849D01*
X145055515Y-96575100D01*
X144204385Y-97426230D01*
X144183353Y-97464746D01*
X144154596Y-97500171D01*
X143999249Y-97632850D01*
X143999244Y-97632855D01*
X143995488Y-97636063D01*
X143841333Y-97816555D01*
X143717311Y-98018940D01*
X143715418Y-98023510D01*
X143715416Y-98023514D01*
X143628369Y-98233666D01*
X143628367Y-98233672D01*
X143626477Y-98238235D01*
X143571065Y-98469039D01*
X143552442Y-98705670D01*
X143571065Y-98942301D01*
X143583245Y-98993034D01*
X143622082Y-99154798D01*
X143626477Y-99173105D01*
X143628367Y-99177668D01*
X143628369Y-99177674D01*
X143701006Y-99353037D01*
X143717311Y-99392400D01*
X143841333Y-99594785D01*
X143995488Y-99775277D01*
X143999244Y-99778485D01*
X144094146Y-99859539D01*
X144132955Y-99918989D01*
X144133461Y-99989984D01*
X144094146Y-100051161D01*
X143995488Y-100135423D01*
X143841333Y-100315915D01*
X143726429Y-100503421D01*
X143721561Y-100511365D01*
X143668913Y-100558996D01*
X143614128Y-100571530D01*
X129713624Y-100571530D01*
X129645503Y-100551528D01*
X129624529Y-100534625D01*
X125301144Y-96211240D01*
X143553332Y-96211240D01*
X143571173Y-96437929D01*
X143572716Y-96447676D01*
X143625799Y-96668778D01*
X143628848Y-96678163D01*
X143715864Y-96888238D01*
X143720345Y-96897032D01*
X143822899Y-97064386D01*
X143833355Y-97073846D01*
X143842133Y-97070062D01*
X144693073Y-96219122D01*
X144699451Y-96207442D01*
X145429503Y-96207442D01*
X145429634Y-96209275D01*
X145433885Y-96215890D01*
X146285014Y-97067019D01*
X146297394Y-97073779D01*
X146305044Y-97068052D01*
X146409845Y-96897032D01*
X146414326Y-96888238D01*
X146462196Y-96772670D01*
X167332160Y-96772670D01*
X167337887Y-96780320D01*
X167509042Y-96885205D01*
X167517837Y-96889687D01*
X167727988Y-96976734D01*
X167737373Y-96979783D01*
X167958554Y-97032885D01*
X167968301Y-97034428D01*
X168195070Y-97052275D01*
X168204930Y-97052275D01*
X168431699Y-97034428D01*
X168441446Y-97032885D01*
X168662627Y-96979783D01*
X168672012Y-96976734D01*
X168882163Y-96889687D01*
X168890958Y-96885205D01*
X169058445Y-96782568D01*
X169067907Y-96772110D01*
X169064124Y-96763334D01*
X168212812Y-95912022D01*
X168198868Y-95904408D01*
X168197035Y-95904539D01*
X168190420Y-95908790D01*
X167338920Y-96760290D01*
X167332160Y-96772670D01*
X146462196Y-96772670D01*
X146501342Y-96678163D01*
X146504391Y-96668778D01*
X146557474Y-96447676D01*
X146559017Y-96437929D01*
X146576858Y-96211240D01*
X146576858Y-96201380D01*
X146559017Y-95974691D01*
X146557474Y-95964944D01*
X146504391Y-95743842D01*
X146501342Y-95734457D01*
X146422837Y-95544930D01*
X166687725Y-95544930D01*
X166705572Y-95771699D01*
X166707115Y-95781446D01*
X166760217Y-96002627D01*
X166763266Y-96012012D01*
X166850313Y-96222163D01*
X166854795Y-96230958D01*
X166957432Y-96398445D01*
X166967890Y-96407907D01*
X166976666Y-96404124D01*
X167827978Y-95552812D01*
X167834356Y-95541132D01*
X168564408Y-95541132D01*
X168564539Y-95542965D01*
X168568790Y-95549580D01*
X169420290Y-96401080D01*
X169432670Y-96407840D01*
X169440320Y-96402113D01*
X169545205Y-96230958D01*
X169549687Y-96222163D01*
X169636734Y-96012012D01*
X169639783Y-96002627D01*
X169692885Y-95781446D01*
X169694428Y-95771699D01*
X169712275Y-95544930D01*
X169712275Y-95535070D01*
X169694428Y-95308301D01*
X169692885Y-95298554D01*
X169639783Y-95077373D01*
X169636734Y-95067988D01*
X169549687Y-94857837D01*
X169545205Y-94849042D01*
X169442568Y-94681555D01*
X169432110Y-94672093D01*
X169423334Y-94675876D01*
X168572022Y-95527188D01*
X168564408Y-95541132D01*
X167834356Y-95541132D01*
X167835592Y-95538868D01*
X167835461Y-95537035D01*
X167831210Y-95530420D01*
X166979710Y-94678920D01*
X166967330Y-94672160D01*
X166959680Y-94677887D01*
X166854795Y-94849042D01*
X166850313Y-94857837D01*
X166763266Y-95067988D01*
X166760217Y-95077373D01*
X166707115Y-95298554D01*
X166705572Y-95308301D01*
X166687725Y-95535070D01*
X166687725Y-95544930D01*
X146422837Y-95544930D01*
X146414326Y-95524382D01*
X146409845Y-95515588D01*
X146307291Y-95348234D01*
X146296835Y-95338774D01*
X146288057Y-95342558D01*
X145437117Y-96193498D01*
X145429503Y-96207442D01*
X144699451Y-96207442D01*
X144700687Y-96205178D01*
X144700556Y-96203345D01*
X144696305Y-96196730D01*
X143845176Y-95345601D01*
X143832796Y-95338841D01*
X143825146Y-95344568D01*
X143720345Y-95515588D01*
X143715864Y-95524382D01*
X143628848Y-95734457D01*
X143625799Y-95743842D01*
X143572716Y-95964944D01*
X143571173Y-95974691D01*
X143553332Y-96201380D01*
X143553332Y-96211240D01*
X125301144Y-96211240D01*
X124064474Y-94974570D01*
X144197559Y-94974570D01*
X144201343Y-94983348D01*
X145052283Y-95834288D01*
X145066227Y-95841902D01*
X145068060Y-95841771D01*
X145074675Y-95837520D01*
X145925804Y-94986391D01*
X145932564Y-94974011D01*
X145926837Y-94966361D01*
X145755817Y-94861560D01*
X145747023Y-94857079D01*
X145536948Y-94770063D01*
X145527563Y-94767014D01*
X145306461Y-94713931D01*
X145296714Y-94712388D01*
X145070025Y-94694547D01*
X145060165Y-94694547D01*
X144833476Y-94712388D01*
X144823729Y-94713931D01*
X144602627Y-94767014D01*
X144593242Y-94770063D01*
X144383167Y-94857079D01*
X144374373Y-94861560D01*
X144207019Y-94964114D01*
X144197559Y-94974570D01*
X124064474Y-94974570D01*
X121886499Y-92796595D01*
X121852473Y-92734283D01*
X121857538Y-92663468D01*
X121900085Y-92606632D01*
X121966605Y-92581821D01*
X121975594Y-92581500D01*
X141907233Y-92581500D01*
X141918416Y-92582027D01*
X141925909Y-92583702D01*
X141933835Y-92583453D01*
X141933836Y-92583453D01*
X141993986Y-92581562D01*
X141997945Y-92581500D01*
X142025856Y-92581500D01*
X142029791Y-92581003D01*
X142029856Y-92580995D01*
X142041693Y-92580062D01*
X142073951Y-92579048D01*
X142077970Y-92578922D01*
X142085889Y-92578673D01*
X142105343Y-92573021D01*
X142124700Y-92569013D01*
X142136930Y-92567468D01*
X142136931Y-92567468D01*
X142144797Y-92566474D01*
X142152168Y-92563555D01*
X142152170Y-92563555D01*
X142185912Y-92550196D01*
X142197142Y-92546351D01*
X142231983Y-92536229D01*
X142231984Y-92536229D01*
X142239593Y-92534018D01*
X142246412Y-92529985D01*
X142246417Y-92529983D01*
X142257028Y-92523707D01*
X142274776Y-92515012D01*
X142293617Y-92507552D01*
X142329387Y-92481564D01*
X142339307Y-92475048D01*
X142370535Y-92456580D01*
X142370538Y-92456578D01*
X142377362Y-92452542D01*
X142391683Y-92438221D01*
X142406717Y-92425380D01*
X142407337Y-92424930D01*
X142423107Y-92413472D01*
X142451288Y-92379407D01*
X142459278Y-92370626D01*
X142973501Y-91856404D01*
X143035813Y-91822379D01*
X143062596Y-91819500D01*
X149257823Y-91819500D01*
X149325944Y-91839502D01*
X149372437Y-91893158D01*
X149382541Y-91963432D01*
X149353635Y-92027330D01*
X149320133Y-92066555D01*
X149196111Y-92268940D01*
X149194218Y-92273510D01*
X149194216Y-92273514D01*
X149107169Y-92483666D01*
X149107167Y-92483672D01*
X149105277Y-92488235D01*
X149104125Y-92493035D01*
X149104123Y-92493040D01*
X149082417Y-92583453D01*
X149049865Y-92719039D01*
X149035447Y-92902249D01*
X149033040Y-92932828D01*
X149007755Y-92999170D01*
X148950617Y-93041310D01*
X148879767Y-93045869D01*
X148817699Y-93011400D01*
X148799996Y-92988778D01*
X148696860Y-92820477D01*
X148696853Y-92820467D01*
X148694271Y-92816254D01*
X148540064Y-92635701D01*
X148359511Y-92481494D01*
X148355303Y-92478915D01*
X148355297Y-92478911D01*
X148161278Y-92360016D01*
X148157058Y-92357430D01*
X148152488Y-92355537D01*
X148152484Y-92355535D01*
X147942262Y-92268459D01*
X147942260Y-92268458D01*
X147937689Y-92266565D01*
X147857486Y-92247310D01*
X147711619Y-92212290D01*
X147711613Y-92212289D01*
X147706806Y-92211135D01*
X147470095Y-92192505D01*
X147233384Y-92211135D01*
X147228577Y-92212289D01*
X147228571Y-92212290D01*
X147082704Y-92247310D01*
X147002501Y-92266565D01*
X146997930Y-92268458D01*
X146997928Y-92268459D01*
X146787706Y-92355535D01*
X146787702Y-92355537D01*
X146783132Y-92357430D01*
X146778912Y-92360016D01*
X146584893Y-92478911D01*
X146584887Y-92478915D01*
X146580679Y-92481494D01*
X146400126Y-92635701D01*
X146245919Y-92816254D01*
X146243340Y-92820462D01*
X146243336Y-92820468D01*
X146139735Y-92989530D01*
X146121855Y-93018707D01*
X146119962Y-93023277D01*
X146119960Y-93023281D01*
X146032884Y-93233503D01*
X146030990Y-93238076D01*
X146029835Y-93242888D01*
X145985472Y-93427674D01*
X145975560Y-93468959D01*
X145956930Y-93705670D01*
X145975560Y-93942381D01*
X145976714Y-93947188D01*
X145976715Y-93947194D01*
X146000334Y-94045572D01*
X146030990Y-94173264D01*
X146032883Y-94177835D01*
X146032884Y-94177837D01*
X146091650Y-94319710D01*
X146121855Y-94392633D01*
X146124441Y-94396853D01*
X146243336Y-94590872D01*
X146243340Y-94590878D01*
X146245919Y-94595086D01*
X146347422Y-94713931D01*
X146392760Y-94767014D01*
X146400126Y-94775639D01*
X146580679Y-94929846D01*
X146584887Y-94932425D01*
X146584893Y-94932429D01*
X146778912Y-95051324D01*
X146783132Y-95053910D01*
X146787702Y-95055803D01*
X146787706Y-95055805D01*
X146989988Y-95139592D01*
X147002501Y-95144775D01*
X147082704Y-95164030D01*
X147228571Y-95199050D01*
X147228577Y-95199051D01*
X147233384Y-95200205D01*
X147470095Y-95218835D01*
X147706806Y-95200205D01*
X147711613Y-95199051D01*
X147711619Y-95199050D01*
X147857486Y-95164030D01*
X147937689Y-95144775D01*
X147950202Y-95139592D01*
X148152484Y-95055805D01*
X148152488Y-95055803D01*
X148157058Y-95053910D01*
X148161278Y-95051324D01*
X148355297Y-94932429D01*
X148355303Y-94932425D01*
X148359511Y-94929846D01*
X148540064Y-94775639D01*
X148547431Y-94767014D01*
X148592768Y-94713931D01*
X148694271Y-94595086D01*
X148696850Y-94590878D01*
X148696854Y-94590872D01*
X148815749Y-94396853D01*
X148818335Y-94392633D01*
X148848541Y-94319710D01*
X148907306Y-94177837D01*
X148907307Y-94177835D01*
X148909200Y-94173264D01*
X148939856Y-94045572D01*
X148963475Y-93947194D01*
X148963476Y-93947188D01*
X148964630Y-93942381D01*
X148981472Y-93728384D01*
X149006758Y-93662044D01*
X149063896Y-93619904D01*
X149134746Y-93615345D01*
X149196813Y-93649814D01*
X149214517Y-93672436D01*
X149320133Y-93844785D01*
X149474288Y-94025277D01*
X149654780Y-94179432D01*
X149857165Y-94303454D01*
X149861735Y-94305347D01*
X149861739Y-94305349D01*
X150071891Y-94392396D01*
X150071897Y-94392398D01*
X150076460Y-94394288D01*
X150081260Y-94395440D01*
X150081265Y-94395442D01*
X150186680Y-94420750D01*
X150307264Y-94449700D01*
X150543895Y-94468323D01*
X150780526Y-94449700D01*
X150901110Y-94420750D01*
X151006525Y-94395442D01*
X151006530Y-94395440D01*
X151011330Y-94394288D01*
X151015893Y-94392398D01*
X151015899Y-94392396D01*
X151226051Y-94305349D01*
X151226055Y-94305347D01*
X151230625Y-94303454D01*
X151433010Y-94179432D01*
X151613502Y-94025277D01*
X151767657Y-93844785D01*
X151891679Y-93642400D01*
X151900997Y-93619904D01*
X151980621Y-93427674D01*
X151980623Y-93427668D01*
X151982513Y-93423105D01*
X152037925Y-93192301D01*
X152056548Y-92955670D01*
X152037925Y-92719039D01*
X152005373Y-92583453D01*
X151983667Y-92493040D01*
X151983665Y-92493035D01*
X151982513Y-92488235D01*
X151980623Y-92483672D01*
X151980621Y-92483666D01*
X151893574Y-92273514D01*
X151893572Y-92273510D01*
X151891679Y-92268940D01*
X151767657Y-92066555D01*
X151734155Y-92027330D01*
X151705125Y-91962542D01*
X151715730Y-91892342D01*
X151762604Y-91839019D01*
X151829967Y-91819500D01*
X154962031Y-91819500D01*
X155030152Y-91839502D01*
X155051126Y-91856405D01*
X155572354Y-92377633D01*
X155606380Y-92439945D01*
X155605778Y-92496142D01*
X155553420Y-92714227D01*
X155552265Y-92719039D01*
X155533642Y-92955670D01*
X155552265Y-93192301D01*
X155607677Y-93423105D01*
X155609567Y-93427668D01*
X155609569Y-93427674D01*
X155689193Y-93619904D01*
X155698511Y-93642400D01*
X155822533Y-93844785D01*
X155976688Y-94025277D01*
X156157180Y-94179432D01*
X156359565Y-94303454D01*
X156364135Y-94305347D01*
X156364139Y-94305349D01*
X156574291Y-94392396D01*
X156574297Y-94392398D01*
X156578860Y-94394288D01*
X156583660Y-94395440D01*
X156583665Y-94395442D01*
X156689080Y-94420750D01*
X156809664Y-94449700D01*
X157046295Y-94468323D01*
X157282926Y-94449700D01*
X157403510Y-94420750D01*
X157508925Y-94395442D01*
X157508930Y-94395440D01*
X157513730Y-94394288D01*
X157518293Y-94392398D01*
X157518299Y-94392396D01*
X157728451Y-94305349D01*
X157728455Y-94305347D01*
X157733025Y-94303454D01*
X157935410Y-94179432D01*
X158115902Y-94025277D01*
X158270057Y-93844785D01*
X158375673Y-93672436D01*
X158428321Y-93624805D01*
X158498363Y-93613198D01*
X158563560Y-93641301D01*
X158603214Y-93700192D01*
X158608718Y-93728383D01*
X158625560Y-93942381D01*
X158626714Y-93947188D01*
X158626715Y-93947194D01*
X158650334Y-94045572D01*
X158680990Y-94173264D01*
X158682883Y-94177835D01*
X158682884Y-94177837D01*
X158741650Y-94319710D01*
X158771855Y-94392633D01*
X158774441Y-94396853D01*
X158893336Y-94590872D01*
X158893340Y-94590878D01*
X158895919Y-94595086D01*
X158997422Y-94713931D01*
X159042760Y-94767014D01*
X159050126Y-94775639D01*
X159230679Y-94929846D01*
X159234887Y-94932425D01*
X159234893Y-94932429D01*
X159428912Y-95051324D01*
X159433132Y-95053910D01*
X159437702Y-95055803D01*
X159437706Y-95055805D01*
X159639988Y-95139592D01*
X159652501Y-95144775D01*
X159732704Y-95164030D01*
X159878571Y-95199050D01*
X159878577Y-95199051D01*
X159883384Y-95200205D01*
X160120095Y-95218835D01*
X160356806Y-95200205D01*
X160361613Y-95199051D01*
X160361619Y-95199050D01*
X160507486Y-95164030D01*
X160587689Y-95144775D01*
X160600202Y-95139592D01*
X160802484Y-95055805D01*
X160802488Y-95055803D01*
X160807058Y-95053910D01*
X160811278Y-95051324D01*
X161005297Y-94932429D01*
X161005303Y-94932425D01*
X161009511Y-94929846D01*
X161190064Y-94775639D01*
X161197431Y-94767014D01*
X161242768Y-94713931D01*
X161344271Y-94595086D01*
X161346850Y-94590878D01*
X161346854Y-94590872D01*
X161465749Y-94396853D01*
X161468335Y-94392633D01*
X161498541Y-94319710D01*
X161503437Y-94307890D01*
X167332093Y-94307890D01*
X167335876Y-94316666D01*
X168187188Y-95167978D01*
X168201132Y-95175592D01*
X168202965Y-95175461D01*
X168209580Y-95171210D01*
X169061080Y-94319710D01*
X169067840Y-94307330D01*
X169062113Y-94299680D01*
X168890958Y-94194795D01*
X168882163Y-94190313D01*
X168672012Y-94103266D01*
X168662627Y-94100217D01*
X168441446Y-94047115D01*
X168431699Y-94045572D01*
X168204930Y-94027725D01*
X168195070Y-94027725D01*
X167968301Y-94045572D01*
X167958554Y-94047115D01*
X167737373Y-94100217D01*
X167727988Y-94103266D01*
X167517837Y-94190313D01*
X167509042Y-94194795D01*
X167341555Y-94297432D01*
X167332093Y-94307890D01*
X161503437Y-94307890D01*
X161557306Y-94177837D01*
X161557307Y-94177835D01*
X161559200Y-94173264D01*
X161589856Y-94045572D01*
X161613475Y-93947194D01*
X161613476Y-93947188D01*
X161614630Y-93942381D01*
X161633260Y-93705670D01*
X161614630Y-93468959D01*
X161604719Y-93427674D01*
X161560355Y-93242888D01*
X161559200Y-93238076D01*
X161557306Y-93233503D01*
X161470230Y-93023281D01*
X161470228Y-93023277D01*
X161468335Y-93018707D01*
X161450455Y-92989530D01*
X161346854Y-92820468D01*
X161346850Y-92820462D01*
X161344271Y-92816254D01*
X161190064Y-92635701D01*
X161009511Y-92481494D01*
X161005303Y-92478915D01*
X161005297Y-92478911D01*
X160811278Y-92360016D01*
X160807058Y-92357430D01*
X160802488Y-92355537D01*
X160802484Y-92355535D01*
X160592262Y-92268459D01*
X160592260Y-92268458D01*
X160587689Y-92266565D01*
X160507486Y-92247310D01*
X160361619Y-92212290D01*
X160361613Y-92212289D01*
X160356806Y-92211135D01*
X160120095Y-92192505D01*
X159883384Y-92211135D01*
X159878577Y-92212289D01*
X159878571Y-92212290D01*
X159732704Y-92247310D01*
X159652501Y-92266565D01*
X159647930Y-92268458D01*
X159647928Y-92268459D01*
X159437706Y-92355535D01*
X159437702Y-92355537D01*
X159433132Y-92357430D01*
X159428912Y-92360016D01*
X159234893Y-92478911D01*
X159234887Y-92478915D01*
X159230679Y-92481494D01*
X159050126Y-92635701D01*
X158895919Y-92816254D01*
X158893337Y-92820467D01*
X158893330Y-92820477D01*
X158790194Y-92988778D01*
X158737547Y-93036410D01*
X158667505Y-93048016D01*
X158602308Y-93019912D01*
X158562654Y-92961022D01*
X158557150Y-92932828D01*
X158554744Y-92902249D01*
X158540325Y-92719039D01*
X158507773Y-92583453D01*
X158486067Y-92493040D01*
X158486065Y-92493035D01*
X158484913Y-92488235D01*
X158483023Y-92483672D01*
X158483021Y-92483666D01*
X158395974Y-92273514D01*
X158395972Y-92273510D01*
X158394079Y-92268940D01*
X158270057Y-92066555D01*
X158115902Y-91886063D01*
X157935410Y-91731908D01*
X157733025Y-91607886D01*
X157728455Y-91605993D01*
X157728451Y-91605991D01*
X157518299Y-91518944D01*
X157518293Y-91518942D01*
X157513730Y-91517052D01*
X157508930Y-91515900D01*
X157508925Y-91515898D01*
X157366601Y-91481729D01*
X157282926Y-91461640D01*
X157046295Y-91443017D01*
X156809664Y-91461640D01*
X156804855Y-91462794D01*
X156804852Y-91462795D01*
X156586768Y-91515153D01*
X156515860Y-91511606D01*
X156468259Y-91481729D01*
X155780277Y-90793747D01*
X155772737Y-90785461D01*
X155768625Y-90778982D01*
X155718973Y-90732356D01*
X155716132Y-90729602D01*
X155696395Y-90709865D01*
X155693198Y-90707385D01*
X155684176Y-90699680D01*
X155670747Y-90687069D01*
X155651946Y-90669414D01*
X155645000Y-90665595D01*
X155644997Y-90665593D01*
X155634191Y-90659652D01*
X155617672Y-90648801D01*
X155617208Y-90648441D01*
X155601666Y-90636386D01*
X155594397Y-90633241D01*
X155594393Y-90633238D01*
X155561088Y-90618826D01*
X155550438Y-90613609D01*
X155511685Y-90592305D01*
X155492062Y-90587267D01*
X155473359Y-90580863D01*
X155462045Y-90575967D01*
X155462044Y-90575967D01*
X155454770Y-90572819D01*
X155446947Y-90571580D01*
X155446937Y-90571577D01*
X155411101Y-90565901D01*
X155399481Y-90563495D01*
X155364336Y-90554472D01*
X155364335Y-90554472D01*
X155356655Y-90552500D01*
X155336401Y-90552500D01*
X155316690Y-90550949D01*
X155304511Y-90549020D01*
X155296682Y-90547780D01*
X155267411Y-90550547D01*
X155252664Y-90551941D01*
X155240806Y-90552500D01*
X142826768Y-90552500D01*
X142815585Y-90551973D01*
X142808092Y-90550298D01*
X142800166Y-90550547D01*
X142800165Y-90550547D01*
X142740002Y-90552438D01*
X142736044Y-90552500D01*
X142708144Y-90552500D01*
X142704154Y-90553004D01*
X142692320Y-90553936D01*
X142648111Y-90555326D01*
X142640497Y-90557538D01*
X142640492Y-90557539D01*
X142628659Y-90560977D01*
X142609296Y-90564988D01*
X142589203Y-90567526D01*
X142581836Y-90570443D01*
X142581831Y-90570444D01*
X142548092Y-90583802D01*
X142536865Y-90587646D01*
X142494407Y-90599982D01*
X142487581Y-90604019D01*
X142476972Y-90610293D01*
X142459224Y-90618988D01*
X142440383Y-90626448D01*
X142433967Y-90631110D01*
X142433966Y-90631110D01*
X142404613Y-90652436D01*
X142394693Y-90658952D01*
X142363465Y-90677420D01*
X142363462Y-90677422D01*
X142356638Y-90681458D01*
X142342317Y-90695779D01*
X142327284Y-90708619D01*
X142310893Y-90720528D01*
X142284516Y-90752413D01*
X142282712Y-90754593D01*
X142274722Y-90763374D01*
X141760499Y-91277596D01*
X141698187Y-91311621D01*
X141671404Y-91314500D01*
X130624215Y-91314500D01*
X130556094Y-91294498D01*
X130509601Y-91240842D01*
X130499497Y-91170568D01*
X130528991Y-91105988D01*
X130558380Y-91081068D01*
X130575193Y-91070765D01*
X130575203Y-91070758D01*
X130579416Y-91068176D01*
X130759969Y-90913969D01*
X130914176Y-90733416D01*
X130916755Y-90729208D01*
X130916759Y-90729202D01*
X131035654Y-90535183D01*
X131038240Y-90530963D01*
X131041168Y-90523896D01*
X131127211Y-90316167D01*
X131127212Y-90316165D01*
X131129105Y-90311594D01*
X131184535Y-90080711D01*
X131203165Y-89844000D01*
X131184535Y-89607289D01*
X131129105Y-89376406D01*
X131108994Y-89327853D01*
X131040135Y-89161611D01*
X131040133Y-89161607D01*
X131038240Y-89157037D01*
X131027977Y-89140290D01*
X130916759Y-88958798D01*
X130916755Y-88958792D01*
X130914176Y-88954584D01*
X130759969Y-88774031D01*
X130579416Y-88619824D01*
X130575208Y-88617245D01*
X130575202Y-88617241D01*
X130381183Y-88498346D01*
X130376963Y-88495760D01*
X130372393Y-88493867D01*
X130372389Y-88493865D01*
X130280177Y-88455670D01*
X149031242Y-88455670D01*
X149049865Y-88692301D01*
X149051020Y-88697110D01*
X149104085Y-88918138D01*
X149105277Y-88923105D01*
X149107167Y-88927668D01*
X149107169Y-88927674D01*
X149132189Y-88988077D01*
X149196111Y-89142400D01*
X149320133Y-89344785D01*
X149474288Y-89525277D01*
X149654780Y-89679432D01*
X149857165Y-89803454D01*
X149861735Y-89805347D01*
X149861739Y-89805349D01*
X150071891Y-89892396D01*
X150071897Y-89892398D01*
X150076460Y-89894288D01*
X150081260Y-89895440D01*
X150081265Y-89895442D01*
X150186680Y-89920750D01*
X150307264Y-89949700D01*
X150543895Y-89968323D01*
X150780526Y-89949700D01*
X150901110Y-89920750D01*
X151006525Y-89895442D01*
X151006530Y-89895440D01*
X151011330Y-89894288D01*
X151015893Y-89892398D01*
X151015899Y-89892396D01*
X151226051Y-89805349D01*
X151226055Y-89805347D01*
X151230625Y-89803454D01*
X151419079Y-89687969D01*
X156178826Y-89687969D01*
X156184553Y-89695619D01*
X156355573Y-89800420D01*
X156364367Y-89804901D01*
X156574442Y-89891917D01*
X156583827Y-89894966D01*
X156804929Y-89948049D01*
X156814676Y-89949592D01*
X157041365Y-89967433D01*
X157051225Y-89967433D01*
X157277914Y-89949592D01*
X157287661Y-89948049D01*
X157508763Y-89894966D01*
X157518148Y-89891917D01*
X157728223Y-89804901D01*
X157737017Y-89800420D01*
X157904371Y-89697866D01*
X157913831Y-89687410D01*
X157910047Y-89678632D01*
X157059107Y-88827692D01*
X157045163Y-88820078D01*
X157043330Y-88820209D01*
X157036715Y-88824460D01*
X156185586Y-89675589D01*
X156178826Y-89687969D01*
X151419079Y-89687969D01*
X151433010Y-89679432D01*
X151613502Y-89525277D01*
X151767657Y-89344785D01*
X151891679Y-89142400D01*
X151955601Y-88988077D01*
X151980621Y-88927674D01*
X151980623Y-88927668D01*
X151982513Y-88923105D01*
X151983706Y-88918138D01*
X152036770Y-88697110D01*
X152037925Y-88692301D01*
X152056160Y-88460600D01*
X155534532Y-88460600D01*
X155552373Y-88687289D01*
X155553916Y-88697036D01*
X155606999Y-88918138D01*
X155610048Y-88927523D01*
X155697064Y-89137598D01*
X155701545Y-89146392D01*
X155804099Y-89313746D01*
X155814555Y-89323206D01*
X155823333Y-89319422D01*
X156674273Y-88468482D01*
X156680651Y-88456802D01*
X157410703Y-88456802D01*
X157410834Y-88458635D01*
X157415085Y-88465250D01*
X158266214Y-89316379D01*
X158278594Y-89323139D01*
X158286244Y-89317412D01*
X158391045Y-89146392D01*
X158395526Y-89137598D01*
X158482542Y-88927523D01*
X158485591Y-88918138D01*
X158538674Y-88697036D01*
X158540217Y-88687289D01*
X158558058Y-88460600D01*
X158558058Y-88450740D01*
X158540217Y-88224051D01*
X158538674Y-88214304D01*
X158485591Y-87993202D01*
X158482542Y-87983817D01*
X158395526Y-87773742D01*
X158391045Y-87764948D01*
X158288491Y-87597594D01*
X158278035Y-87588134D01*
X158269257Y-87591918D01*
X157418317Y-88442858D01*
X157410703Y-88456802D01*
X156680651Y-88456802D01*
X156681887Y-88454538D01*
X156681756Y-88452705D01*
X156677505Y-88446090D01*
X155826376Y-87594961D01*
X155813996Y-87588201D01*
X155806346Y-87593928D01*
X155701545Y-87764948D01*
X155697064Y-87773742D01*
X155610048Y-87983817D01*
X155606999Y-87993202D01*
X155553916Y-88214304D01*
X155552373Y-88224051D01*
X155534532Y-88450740D01*
X155534532Y-88460600D01*
X152056160Y-88460600D01*
X152056548Y-88455670D01*
X152037925Y-88219039D01*
X152005420Y-88083648D01*
X151983667Y-87993040D01*
X151983665Y-87993035D01*
X151982513Y-87988235D01*
X151980623Y-87983672D01*
X151980621Y-87983666D01*
X151893574Y-87773514D01*
X151893572Y-87773510D01*
X151891679Y-87768940D01*
X151767657Y-87566555D01*
X151613502Y-87386063D01*
X151433010Y-87231908D01*
X151419991Y-87223930D01*
X156178759Y-87223930D01*
X156182543Y-87232708D01*
X157033483Y-88083648D01*
X157047427Y-88091262D01*
X157049260Y-88091131D01*
X157055875Y-88086880D01*
X157907004Y-87235751D01*
X157913764Y-87223371D01*
X157908037Y-87215721D01*
X157737017Y-87110920D01*
X157728223Y-87106439D01*
X157518148Y-87019423D01*
X157508763Y-87016374D01*
X157287661Y-86963291D01*
X157277914Y-86961748D01*
X157051225Y-86943907D01*
X157041365Y-86943907D01*
X156814676Y-86961748D01*
X156804929Y-86963291D01*
X156583827Y-87016374D01*
X156574442Y-87019423D01*
X156364367Y-87106439D01*
X156355573Y-87110920D01*
X156188219Y-87213474D01*
X156178759Y-87223930D01*
X151419991Y-87223930D01*
X151230625Y-87107886D01*
X151226055Y-87105993D01*
X151226051Y-87105991D01*
X151015899Y-87018944D01*
X151015893Y-87018942D01*
X151011330Y-87017052D01*
X151006530Y-87015900D01*
X151006525Y-87015898D01*
X150901110Y-86990590D01*
X150780526Y-86961640D01*
X150543895Y-86943017D01*
X150307264Y-86961640D01*
X150186680Y-86990590D01*
X150081265Y-87015898D01*
X150081260Y-87015900D01*
X150076460Y-87017052D01*
X150071897Y-87018942D01*
X150071891Y-87018944D01*
X149861739Y-87105991D01*
X149861735Y-87105993D01*
X149857165Y-87107886D01*
X149654780Y-87231908D01*
X149474288Y-87386063D01*
X149320133Y-87566555D01*
X149196111Y-87768940D01*
X149194218Y-87773510D01*
X149194216Y-87773514D01*
X149107169Y-87983666D01*
X149107167Y-87983672D01*
X149105277Y-87988235D01*
X149104125Y-87993035D01*
X149104123Y-87993040D01*
X149082370Y-88083648D01*
X149049865Y-88219039D01*
X149031242Y-88455670D01*
X130280177Y-88455670D01*
X130162167Y-88406789D01*
X130162165Y-88406788D01*
X130157594Y-88404895D01*
X130064841Y-88382627D01*
X129931524Y-88350620D01*
X129931518Y-88350619D01*
X129926711Y-88349465D01*
X129690000Y-88330835D01*
X129453289Y-88349465D01*
X129448482Y-88350619D01*
X129448476Y-88350620D01*
X129315159Y-88382627D01*
X129222406Y-88404895D01*
X129217835Y-88406788D01*
X129217833Y-88406789D01*
X129007611Y-88493865D01*
X129007607Y-88493867D01*
X129003037Y-88495760D01*
X128998817Y-88498346D01*
X128804798Y-88617241D01*
X128804792Y-88617245D01*
X128800584Y-88619824D01*
X128620031Y-88774031D01*
X128465824Y-88954584D01*
X128463245Y-88958792D01*
X128463241Y-88958798D01*
X128352023Y-89140290D01*
X128341760Y-89157037D01*
X128339867Y-89161607D01*
X128339865Y-89161611D01*
X128271006Y-89327853D01*
X128250895Y-89376406D01*
X128195465Y-89607289D01*
X128176835Y-89844000D01*
X128195465Y-90080711D01*
X128250895Y-90311594D01*
X128252788Y-90316165D01*
X128252789Y-90316167D01*
X128338833Y-90523896D01*
X128341760Y-90530963D01*
X128344346Y-90535183D01*
X128463241Y-90729202D01*
X128463245Y-90729208D01*
X128465824Y-90733416D01*
X128620031Y-90913969D01*
X128800584Y-91068176D01*
X128804797Y-91070758D01*
X128804807Y-91070765D01*
X128821620Y-91081068D01*
X128869251Y-91133715D01*
X128880858Y-91203757D01*
X128852755Y-91268954D01*
X128793864Y-91308608D01*
X128755785Y-91314500D01*
X124124215Y-91314500D01*
X124056094Y-91294498D01*
X124009601Y-91240842D01*
X123999497Y-91170568D01*
X124028991Y-91105988D01*
X124058380Y-91081068D01*
X124075193Y-91070765D01*
X124075203Y-91070758D01*
X124079416Y-91068176D01*
X124259969Y-90913969D01*
X124414176Y-90733416D01*
X124416755Y-90729208D01*
X124416759Y-90729202D01*
X124535654Y-90535183D01*
X124538240Y-90530963D01*
X124541168Y-90523896D01*
X124627211Y-90316167D01*
X124627212Y-90316165D01*
X124629105Y-90311594D01*
X124684535Y-90080711D01*
X124703165Y-89844000D01*
X124684535Y-89607289D01*
X124629105Y-89376406D01*
X124608994Y-89327853D01*
X124540135Y-89161611D01*
X124540133Y-89161607D01*
X124538240Y-89157037D01*
X124527977Y-89140290D01*
X124416759Y-88958798D01*
X124416755Y-88958792D01*
X124414176Y-88954584D01*
X124259969Y-88774031D01*
X124079416Y-88619824D01*
X124075208Y-88617245D01*
X124075202Y-88617241D01*
X123881183Y-88498346D01*
X123876963Y-88495760D01*
X123872393Y-88493867D01*
X123872389Y-88493865D01*
X123662167Y-88406789D01*
X123662165Y-88406788D01*
X123657594Y-88404895D01*
X123564841Y-88382627D01*
X123431524Y-88350620D01*
X123431518Y-88350619D01*
X123426711Y-88349465D01*
X123190000Y-88330835D01*
X122953289Y-88349465D01*
X122948482Y-88350619D01*
X122948476Y-88350620D01*
X122730049Y-88403060D01*
X122659141Y-88399513D01*
X122611540Y-88369636D01*
X120818574Y-86576670D01*
X122322160Y-86576670D01*
X122327887Y-86584320D01*
X122499042Y-86689205D01*
X122507837Y-86693687D01*
X122717988Y-86780734D01*
X122727373Y-86783783D01*
X122948554Y-86836885D01*
X122958301Y-86838428D01*
X123185070Y-86856275D01*
X123194930Y-86856275D01*
X123421699Y-86838428D01*
X123431446Y-86836885D01*
X123652627Y-86783783D01*
X123662012Y-86780734D01*
X123872163Y-86693687D01*
X123880958Y-86689205D01*
X124048445Y-86586568D01*
X124057400Y-86576670D01*
X128822160Y-86576670D01*
X128827887Y-86584320D01*
X128999042Y-86689205D01*
X129007837Y-86693687D01*
X129217988Y-86780734D01*
X129227373Y-86783783D01*
X129448554Y-86836885D01*
X129458301Y-86838428D01*
X129685070Y-86856275D01*
X129694930Y-86856275D01*
X129921699Y-86838428D01*
X129931446Y-86836885D01*
X130152627Y-86783783D01*
X130162012Y-86780734D01*
X130372163Y-86693687D01*
X130380958Y-86689205D01*
X130548445Y-86586568D01*
X130557907Y-86576110D01*
X130554124Y-86567334D01*
X129702812Y-85716022D01*
X129688868Y-85708408D01*
X129687035Y-85708539D01*
X129680420Y-85712790D01*
X128828920Y-86564290D01*
X128822160Y-86576670D01*
X124057400Y-86576670D01*
X124057907Y-86576110D01*
X124054124Y-86567334D01*
X123202812Y-85716022D01*
X123188868Y-85708408D01*
X123187035Y-85708539D01*
X123180420Y-85712790D01*
X122328920Y-86564290D01*
X122322160Y-86576670D01*
X120818574Y-86576670D01*
X119590834Y-85348930D01*
X121677725Y-85348930D01*
X121695572Y-85575699D01*
X121697115Y-85585446D01*
X121750217Y-85806627D01*
X121753266Y-85816012D01*
X121840313Y-86026163D01*
X121844795Y-86034958D01*
X121947432Y-86202445D01*
X121957890Y-86211907D01*
X121966666Y-86208124D01*
X122817978Y-85356812D01*
X122824356Y-85345132D01*
X123554408Y-85345132D01*
X123554539Y-85346965D01*
X123558790Y-85353580D01*
X124410290Y-86205080D01*
X124422670Y-86211840D01*
X124430320Y-86206113D01*
X124535205Y-86034958D01*
X124539687Y-86026163D01*
X124626734Y-85816012D01*
X124629783Y-85806627D01*
X124682885Y-85585446D01*
X124684428Y-85575699D01*
X124702275Y-85348930D01*
X128177725Y-85348930D01*
X128195572Y-85575699D01*
X128197115Y-85585446D01*
X128250217Y-85806627D01*
X128253266Y-85816012D01*
X128340313Y-86026163D01*
X128344795Y-86034958D01*
X128447432Y-86202445D01*
X128457890Y-86211907D01*
X128466666Y-86208124D01*
X129317978Y-85356812D01*
X129324356Y-85345132D01*
X130054408Y-85345132D01*
X130054539Y-85346965D01*
X130058790Y-85353580D01*
X130910290Y-86205080D01*
X130922670Y-86211840D01*
X130930320Y-86206113D01*
X131035205Y-86034958D01*
X131039687Y-86026163D01*
X131126734Y-85816012D01*
X131129783Y-85806627D01*
X131182885Y-85585446D01*
X131184428Y-85575699D01*
X131202275Y-85348930D01*
X131202275Y-85339070D01*
X131184428Y-85112301D01*
X131182885Y-85102554D01*
X131129783Y-84881373D01*
X131126734Y-84871988D01*
X131039687Y-84661837D01*
X131035205Y-84653042D01*
X130932568Y-84485555D01*
X130922110Y-84476093D01*
X130913334Y-84479876D01*
X130062022Y-85331188D01*
X130054408Y-85345132D01*
X129324356Y-85345132D01*
X129325592Y-85342868D01*
X129325461Y-85341035D01*
X129321210Y-85334420D01*
X128469710Y-84482920D01*
X128457330Y-84476160D01*
X128449680Y-84481887D01*
X128344795Y-84653042D01*
X128340313Y-84661837D01*
X128253266Y-84871988D01*
X128250217Y-84881373D01*
X128197115Y-85102554D01*
X128195572Y-85112301D01*
X128177725Y-85339070D01*
X128177725Y-85348930D01*
X124702275Y-85348930D01*
X124702275Y-85339070D01*
X124684428Y-85112301D01*
X124682885Y-85102554D01*
X124629783Y-84881373D01*
X124626734Y-84871988D01*
X124539687Y-84661837D01*
X124535205Y-84653042D01*
X124432568Y-84485555D01*
X124422110Y-84476093D01*
X124413334Y-84479876D01*
X123562022Y-85331188D01*
X123554408Y-85345132D01*
X122824356Y-85345132D01*
X122825592Y-85342868D01*
X122825461Y-85341035D01*
X122821210Y-85334420D01*
X121969710Y-84482920D01*
X121957330Y-84476160D01*
X121949680Y-84481887D01*
X121844795Y-84653042D01*
X121840313Y-84661837D01*
X121753266Y-84871988D01*
X121750217Y-84881373D01*
X121697115Y-85102554D01*
X121695572Y-85112301D01*
X121677725Y-85339070D01*
X121677725Y-85348930D01*
X119590834Y-85348930D01*
X118353794Y-84111890D01*
X122322093Y-84111890D01*
X122325876Y-84120666D01*
X123177188Y-84971978D01*
X123191132Y-84979592D01*
X123192965Y-84979461D01*
X123199580Y-84975210D01*
X124051080Y-84123710D01*
X124057534Y-84111890D01*
X128822093Y-84111890D01*
X128825876Y-84120666D01*
X129677188Y-84971978D01*
X129691132Y-84979592D01*
X129692965Y-84979461D01*
X129699580Y-84975210D01*
X130551080Y-84123710D01*
X130557840Y-84111330D01*
X130552113Y-84103680D01*
X130380958Y-83998795D01*
X130372163Y-83994313D01*
X130162012Y-83907266D01*
X130152627Y-83904217D01*
X129931446Y-83851115D01*
X129921699Y-83849572D01*
X129694930Y-83831725D01*
X129685070Y-83831725D01*
X129458301Y-83849572D01*
X129448554Y-83851115D01*
X129227373Y-83904217D01*
X129217988Y-83907266D01*
X129007837Y-83994313D01*
X128999042Y-83998795D01*
X128831555Y-84101432D01*
X128822093Y-84111890D01*
X124057534Y-84111890D01*
X124057840Y-84111330D01*
X124052113Y-84103680D01*
X123880958Y-83998795D01*
X123872163Y-83994313D01*
X123662012Y-83907266D01*
X123652627Y-83904217D01*
X123431446Y-83851115D01*
X123421699Y-83849572D01*
X123194930Y-83831725D01*
X123185070Y-83831725D01*
X122958301Y-83849572D01*
X122948554Y-83851115D01*
X122727373Y-83904217D01*
X122717988Y-83907266D01*
X122507837Y-83994313D01*
X122499042Y-83998795D01*
X122331555Y-84101432D01*
X122322093Y-84111890D01*
X118353794Y-84111890D01*
X113755405Y-79513500D01*
X113721379Y-79451188D01*
X113718500Y-79424405D01*
X113718500Y-78414000D01*
X116746835Y-78414000D01*
X116765465Y-78650711D01*
X116820895Y-78881594D01*
X116822788Y-78886165D01*
X116822789Y-78886167D01*
X116895513Y-79061738D01*
X116911760Y-79100963D01*
X116914346Y-79105183D01*
X117033241Y-79299202D01*
X117033245Y-79299208D01*
X117035824Y-79303416D01*
X117190031Y-79483969D01*
X117370584Y-79638176D01*
X117374792Y-79640755D01*
X117374798Y-79640759D01*
X117520978Y-79730338D01*
X117573037Y-79762240D01*
X117577607Y-79764133D01*
X117577611Y-79764135D01*
X117787833Y-79851211D01*
X117792406Y-79853105D01*
X117872609Y-79872360D01*
X118018476Y-79907380D01*
X118018482Y-79907381D01*
X118023289Y-79908535D01*
X118260000Y-79927165D01*
X118496711Y-79908535D01*
X118501518Y-79907381D01*
X118501524Y-79907380D01*
X118647391Y-79872360D01*
X118727594Y-79853105D01*
X118732167Y-79851211D01*
X118942389Y-79764135D01*
X118942393Y-79764133D01*
X118946963Y-79762240D01*
X118999022Y-79730338D01*
X119145202Y-79640759D01*
X119145208Y-79640755D01*
X119149416Y-79638176D01*
X119329969Y-79483969D01*
X119484176Y-79303416D01*
X119486755Y-79299208D01*
X119486759Y-79299202D01*
X119605654Y-79105183D01*
X119608240Y-79100963D01*
X119624488Y-79061738D01*
X119697211Y-78886167D01*
X119697212Y-78886165D01*
X119699105Y-78881594D01*
X119754535Y-78650711D01*
X119773165Y-78414000D01*
X119754535Y-78177289D01*
X119744862Y-78136995D01*
X119706123Y-77975639D01*
X119699105Y-77946406D01*
X119692618Y-77930745D01*
X119610135Y-77731611D01*
X119610133Y-77731607D01*
X119608240Y-77727037D01*
X119575504Y-77673617D01*
X119486759Y-77528798D01*
X119486755Y-77528792D01*
X119484176Y-77524584D01*
X119329969Y-77344031D01*
X119149416Y-77189824D01*
X119145208Y-77187245D01*
X119145202Y-77187241D01*
X118951183Y-77068346D01*
X118946963Y-77065760D01*
X118942393Y-77063867D01*
X118942389Y-77063865D01*
X118732167Y-76976789D01*
X118732165Y-76976788D01*
X118727594Y-76974895D01*
X118612186Y-76947188D01*
X118501524Y-76920620D01*
X118501518Y-76920619D01*
X118496711Y-76919465D01*
X118260000Y-76900835D01*
X118023289Y-76919465D01*
X118018482Y-76920619D01*
X118018476Y-76920620D01*
X117907814Y-76947188D01*
X117792406Y-76974895D01*
X117787835Y-76976788D01*
X117787833Y-76976789D01*
X117577611Y-77063865D01*
X117577607Y-77063867D01*
X117573037Y-77065760D01*
X117568817Y-77068346D01*
X117374798Y-77187241D01*
X117374792Y-77187245D01*
X117370584Y-77189824D01*
X117190031Y-77344031D01*
X117035824Y-77524584D01*
X117033245Y-77528792D01*
X117033241Y-77528798D01*
X116944496Y-77673617D01*
X116911760Y-77727037D01*
X116909867Y-77731607D01*
X116909865Y-77731611D01*
X116827382Y-77930745D01*
X116820895Y-77946406D01*
X116813877Y-77975639D01*
X116775139Y-78136995D01*
X116765465Y-78177289D01*
X116746835Y-78414000D01*
X113718500Y-78414000D01*
X113718500Y-75146670D01*
X117392160Y-75146670D01*
X117397887Y-75154320D01*
X117569042Y-75259205D01*
X117577837Y-75263687D01*
X117787988Y-75350734D01*
X117797373Y-75353783D01*
X118018554Y-75406885D01*
X118028301Y-75408428D01*
X118255070Y-75426275D01*
X118264930Y-75426275D01*
X118491699Y-75408428D01*
X118501446Y-75406885D01*
X118722627Y-75353783D01*
X118732012Y-75350734D01*
X118942163Y-75263687D01*
X118950958Y-75259205D01*
X119118445Y-75156568D01*
X119127907Y-75146110D01*
X119124124Y-75137334D01*
X118272812Y-74286022D01*
X118258868Y-74278408D01*
X118257035Y-74278539D01*
X118250420Y-74282790D01*
X117398920Y-75134290D01*
X117392160Y-75146670D01*
X113718500Y-75146670D01*
X113718500Y-73918930D01*
X116747725Y-73918930D01*
X116765572Y-74145699D01*
X116767115Y-74155446D01*
X116820217Y-74376627D01*
X116823266Y-74386012D01*
X116910313Y-74596163D01*
X116914795Y-74604958D01*
X117017432Y-74772445D01*
X117027890Y-74781907D01*
X117036666Y-74778124D01*
X117887978Y-73926812D01*
X117894356Y-73915132D01*
X118624408Y-73915132D01*
X118624539Y-73916965D01*
X118628790Y-73923580D01*
X119480290Y-74775080D01*
X119492670Y-74781840D01*
X119500320Y-74776113D01*
X119605205Y-74604958D01*
X119609687Y-74596163D01*
X119696734Y-74386012D01*
X119699783Y-74376627D01*
X119752885Y-74155446D01*
X119754428Y-74145699D01*
X119772275Y-73918930D01*
X119772275Y-73909070D01*
X119754428Y-73682301D01*
X119752885Y-73672554D01*
X119699783Y-73451373D01*
X119696734Y-73441988D01*
X119609687Y-73231837D01*
X119605205Y-73223042D01*
X119502568Y-73055555D01*
X119492110Y-73046093D01*
X119483334Y-73049876D01*
X118632022Y-73901188D01*
X118624408Y-73915132D01*
X117894356Y-73915132D01*
X117895592Y-73912868D01*
X117895461Y-73911035D01*
X117891210Y-73904420D01*
X117039710Y-73052920D01*
X117027330Y-73046160D01*
X117019680Y-73051887D01*
X116914795Y-73223042D01*
X116910313Y-73231837D01*
X116823266Y-73441988D01*
X116820217Y-73451373D01*
X116767115Y-73672554D01*
X116765572Y-73682301D01*
X116747725Y-73909070D01*
X116747725Y-73918930D01*
X113718500Y-73918930D01*
X113718500Y-72681890D01*
X117392093Y-72681890D01*
X117395876Y-72690666D01*
X118247188Y-73541978D01*
X118261132Y-73549592D01*
X118262965Y-73549461D01*
X118269580Y-73545210D01*
X119121080Y-72693710D01*
X119127840Y-72681330D01*
X119122113Y-72673680D01*
X118950958Y-72568795D01*
X118942163Y-72564313D01*
X118732012Y-72477266D01*
X118722627Y-72474217D01*
X118501446Y-72421115D01*
X118491699Y-72419572D01*
X118264930Y-72401725D01*
X118255070Y-72401725D01*
X118028301Y-72419572D01*
X118018554Y-72421115D01*
X117797373Y-72474217D01*
X117787988Y-72477266D01*
X117577837Y-72564313D01*
X117569042Y-72568795D01*
X117401555Y-72671432D01*
X117392093Y-72681890D01*
X113718500Y-72681890D01*
X113718500Y-68849630D01*
X113738502Y-68781509D01*
X113787297Y-68737363D01*
X113848850Y-68706000D01*
X113948508Y-68655222D01*
X114096931Y-68535031D01*
X114158579Y-68458902D01*
X114212968Y-68391738D01*
X114212969Y-68391737D01*
X114217122Y-68386608D01*
X114303827Y-68216439D01*
X114353258Y-68031961D01*
X114359500Y-67952646D01*
X114359500Y-67025354D01*
X114353258Y-66946039D01*
X114342298Y-66905134D01*
X114305535Y-66767935D01*
X114305534Y-66767933D01*
X114303827Y-66761561D01*
X114217122Y-66591392D01*
X114182616Y-66548780D01*
X114101082Y-66448095D01*
X114096931Y-66442969D01*
X113948508Y-66322778D01*
X113948519Y-66322764D01*
X113903920Y-66270793D01*
X113894153Y-66200472D01*
X113923955Y-66136033D01*
X113947206Y-66115886D01*
X113948508Y-66115222D01*
X114096931Y-65995031D01*
X114163119Y-65913296D01*
X114212968Y-65851738D01*
X114212969Y-65851737D01*
X114217122Y-65846608D01*
X114303827Y-65676439D01*
X114305535Y-65670065D01*
X114307903Y-65663896D01*
X114310657Y-65664953D01*
X114340867Y-65615320D01*
X114404708Y-65584258D01*
X114425681Y-65582500D01*
X118733614Y-65582500D01*
X118801735Y-65602502D01*
X118822709Y-65619405D01*
X127808261Y-74604958D01*
X136791556Y-83588253D01*
X136799096Y-83596539D01*
X136803208Y-83603018D01*
X136808985Y-83608443D01*
X136852859Y-83649643D01*
X136855701Y-83652398D01*
X136875438Y-83672135D01*
X136878635Y-83674615D01*
X136887655Y-83682318D01*
X136919887Y-83712586D01*
X136926833Y-83716405D01*
X136926836Y-83716407D01*
X136937642Y-83722348D01*
X136954161Y-83733199D01*
X136970167Y-83745614D01*
X136977436Y-83748759D01*
X136977440Y-83748762D01*
X137010745Y-83763174D01*
X137021395Y-83768391D01*
X137060148Y-83789695D01*
X137067823Y-83791666D01*
X137067824Y-83791666D01*
X137079770Y-83794733D01*
X137098475Y-83801137D01*
X137117063Y-83809181D01*
X137124886Y-83810420D01*
X137124896Y-83810423D01*
X137160732Y-83816099D01*
X137172352Y-83818505D01*
X137207497Y-83827528D01*
X137215178Y-83829500D01*
X137235432Y-83829500D01*
X137255142Y-83831051D01*
X137275151Y-83834220D01*
X137283043Y-83833474D01*
X137319169Y-83830059D01*
X137331027Y-83829500D01*
X165557010Y-83829500D01*
X165625131Y-83849502D01*
X165646105Y-83866405D01*
X172303595Y-90523896D01*
X172337621Y-90586208D01*
X172340500Y-90612991D01*
X172340500Y-97999406D01*
X172320498Y-98067527D01*
X172303595Y-98088501D01*
X171022500Y-99369595D01*
X170960188Y-99403621D01*
X170933405Y-99406500D01*
X169651566Y-99406500D01*
X169583445Y-99386498D01*
X169544133Y-99346335D01*
X169426759Y-99154798D01*
X169426755Y-99154792D01*
X169424176Y-99150584D01*
X169269969Y-98970031D01*
X169089416Y-98815824D01*
X169085208Y-98813245D01*
X169085202Y-98813241D01*
X168891183Y-98694346D01*
X168886963Y-98691760D01*
X168882393Y-98689867D01*
X168882389Y-98689865D01*
X168672167Y-98602789D01*
X168672165Y-98602788D01*
X168667594Y-98600895D01*
X168587391Y-98581640D01*
X168441524Y-98546620D01*
X168441518Y-98546619D01*
X168436711Y-98545465D01*
X168200000Y-98526835D01*
X167963289Y-98545465D01*
X167958482Y-98546619D01*
X167958476Y-98546620D01*
X167812609Y-98581640D01*
X167732406Y-98600895D01*
X167727835Y-98602788D01*
X167727833Y-98602789D01*
X167517611Y-98689865D01*
X167517607Y-98689867D01*
X167513037Y-98691760D01*
X167508817Y-98694346D01*
X167314798Y-98813241D01*
X167314792Y-98813245D01*
X167310584Y-98815824D01*
X167130031Y-98970031D01*
X166975824Y-99150584D01*
X166973245Y-99154792D01*
X166973241Y-99154798D01*
X166936482Y-99214784D01*
X166851760Y-99353037D01*
X166849867Y-99357607D01*
X166849865Y-99357611D01*
X166773813Y-99541218D01*
X166760895Y-99572406D01*
X166752003Y-99609443D01*
X166711420Y-99778485D01*
X166705465Y-99803289D01*
X166686835Y-100040000D01*
X166705465Y-100276711D01*
X166706619Y-100281518D01*
X166706620Y-100281524D01*
X166741640Y-100427391D01*
X166760895Y-100507594D01*
X166762788Y-100512165D01*
X166762789Y-100512167D01*
X166841603Y-100702441D01*
X166851760Y-100726963D01*
X166854346Y-100731183D01*
X166973241Y-100925202D01*
X166973245Y-100925208D01*
X166975824Y-100929416D01*
X167130031Y-101109969D01*
X167310584Y-101264176D01*
X167314792Y-101266755D01*
X167314798Y-101266759D01*
X167457383Y-101354135D01*
X167513037Y-101388240D01*
X167517607Y-101390133D01*
X167517611Y-101390135D01*
X167648282Y-101444260D01*
X167732406Y-101479105D01*
X167808527Y-101497380D01*
X167958476Y-101533380D01*
X167958482Y-101533381D01*
X167963289Y-101534535D01*
X168200000Y-101553165D01*
X168436711Y-101534535D01*
X168441518Y-101533381D01*
X168441524Y-101533380D01*
X168591473Y-101497380D01*
X168667594Y-101479105D01*
X168751718Y-101444260D01*
X168882389Y-101390135D01*
X168882393Y-101390133D01*
X168886963Y-101388240D01*
X168942617Y-101354135D01*
X169085202Y-101266759D01*
X169085208Y-101266755D01*
X169089416Y-101264176D01*
X169269969Y-101109969D01*
X169424176Y-100929416D01*
X169426755Y-100925208D01*
X169426759Y-100925202D01*
X169544133Y-100733665D01*
X169596781Y-100686034D01*
X169651566Y-100673500D01*
X171169233Y-100673500D01*
X171180416Y-100674027D01*
X171187909Y-100675702D01*
X171195835Y-100675453D01*
X171195836Y-100675453D01*
X171255986Y-100673562D01*
X171259945Y-100673500D01*
X171287856Y-100673500D01*
X171291791Y-100673003D01*
X171291856Y-100672995D01*
X171303693Y-100672062D01*
X171335951Y-100671048D01*
X171339970Y-100670922D01*
X171347889Y-100670673D01*
X171367343Y-100665021D01*
X171386700Y-100661013D01*
X171398930Y-100659468D01*
X171398931Y-100659468D01*
X171406797Y-100658474D01*
X171414168Y-100655555D01*
X171414170Y-100655555D01*
X171447912Y-100642196D01*
X171459142Y-100638351D01*
X171493983Y-100628229D01*
X171493984Y-100628229D01*
X171501593Y-100626018D01*
X171508412Y-100621985D01*
X171508417Y-100621983D01*
X171519028Y-100615707D01*
X171536776Y-100607012D01*
X171555617Y-100599552D01*
X171591387Y-100573564D01*
X171601307Y-100567048D01*
X171632535Y-100548580D01*
X171632538Y-100548578D01*
X171639362Y-100544542D01*
X171653683Y-100530221D01*
X171668717Y-100517380D01*
X171678694Y-100510131D01*
X171685107Y-100505472D01*
X171713298Y-100471395D01*
X171721288Y-100462616D01*
X172884905Y-99298999D01*
X172947217Y-99264973D01*
X173018032Y-99270038D01*
X173063095Y-99298999D01*
X173225636Y-99461540D01*
X173259662Y-99523852D01*
X173259060Y-99580049D01*
X173211420Y-99778485D01*
X173205465Y-99803289D01*
X173186835Y-100040000D01*
X173205465Y-100276711D01*
X173206619Y-100281518D01*
X173206620Y-100281524D01*
X173241640Y-100427391D01*
X173260895Y-100507594D01*
X173262788Y-100512165D01*
X173262789Y-100512167D01*
X173341603Y-100702441D01*
X173351760Y-100726963D01*
X173354346Y-100731183D01*
X173473241Y-100925202D01*
X173473245Y-100925208D01*
X173475824Y-100929416D01*
X173630031Y-101109969D01*
X173810584Y-101264176D01*
X173814792Y-101266755D01*
X173814798Y-101266759D01*
X173957383Y-101354135D01*
X174013037Y-101388240D01*
X174017607Y-101390133D01*
X174017611Y-101390135D01*
X174148282Y-101444260D01*
X174232406Y-101479105D01*
X174308527Y-101497380D01*
X174458476Y-101533380D01*
X174458482Y-101533381D01*
X174463289Y-101534535D01*
X174700000Y-101553165D01*
X174936711Y-101534535D01*
X174941518Y-101533381D01*
X174941524Y-101533380D01*
X175091473Y-101497380D01*
X175167594Y-101479105D01*
X175251718Y-101444260D01*
X175382389Y-101390135D01*
X175382393Y-101390133D01*
X175386963Y-101388240D01*
X175442617Y-101354135D01*
X175585202Y-101266759D01*
X175585208Y-101266755D01*
X175589416Y-101264176D01*
X175769969Y-101109969D01*
X175924176Y-100929416D01*
X175926755Y-100925208D01*
X175926759Y-100925202D01*
X176045654Y-100731183D01*
X176048240Y-100726963D01*
X176058398Y-100702441D01*
X176137211Y-100512167D01*
X176137212Y-100512165D01*
X176139105Y-100507594D01*
X176158360Y-100427391D01*
X176193380Y-100281524D01*
X176193381Y-100281518D01*
X176194535Y-100276711D01*
X176213165Y-100040000D01*
X176194535Y-99803289D01*
X176188581Y-99778485D01*
X176147997Y-99609443D01*
X176139105Y-99572406D01*
X176126187Y-99541218D01*
X176050135Y-99357611D01*
X176050133Y-99357607D01*
X176048240Y-99353037D01*
X175963518Y-99214784D01*
X175949987Y-99192703D01*
X201090743Y-99192703D01*
X201091302Y-99196947D01*
X201091302Y-99196951D01*
X201100924Y-99270038D01*
X201128268Y-99477734D01*
X201204129Y-99755036D01*
X201211267Y-99771770D01*
X201312425Y-100008930D01*
X201316923Y-100019476D01*
X201359282Y-100090252D01*
X201446377Y-100235777D01*
X201464561Y-100266161D01*
X201644313Y-100490528D01*
X201731815Y-100573564D01*
X201837191Y-100673562D01*
X201852851Y-100688423D01*
X202086317Y-100856186D01*
X202090112Y-100858195D01*
X202090113Y-100858196D01*
X202111869Y-100869715D01*
X202340392Y-100990712D01*
X202364699Y-100999607D01*
X202576669Y-101077177D01*
X202610373Y-101089511D01*
X202891264Y-101150755D01*
X202919841Y-101153004D01*
X203114282Y-101168307D01*
X203114291Y-101168307D01*
X203116739Y-101168500D01*
X203272271Y-101168500D01*
X203274407Y-101168354D01*
X203274418Y-101168354D01*
X203482548Y-101154165D01*
X203482554Y-101154164D01*
X203486825Y-101153873D01*
X203491020Y-101153004D01*
X203491022Y-101153004D01*
X203627583Y-101124724D01*
X203768342Y-101095574D01*
X204039343Y-100999607D01*
X204175336Y-100929416D01*
X204291005Y-100869715D01*
X204291006Y-100869715D01*
X204294812Y-100867750D01*
X204298313Y-100865289D01*
X204298317Y-100865287D01*
X204412418Y-100785095D01*
X204530023Y-100702441D01*
X204640745Y-100599552D01*
X204737479Y-100509661D01*
X204737481Y-100509658D01*
X204740622Y-100506740D01*
X204922713Y-100284268D01*
X205072927Y-100039142D01*
X205074715Y-100035070D01*
X205186757Y-99779830D01*
X205188483Y-99775898D01*
X205267244Y-99499406D01*
X205306107Y-99226335D01*
X205307146Y-99219036D01*
X205307146Y-99219034D01*
X205307751Y-99214784D01*
X205307845Y-99196951D01*
X205309235Y-98931583D01*
X205309235Y-98931576D01*
X205309257Y-98927297D01*
X205304366Y-98890142D01*
X205278248Y-98691760D01*
X205271732Y-98642266D01*
X205195871Y-98364964D01*
X205083077Y-98100524D01*
X204935439Y-97853839D01*
X204755687Y-97629472D01*
X204547149Y-97431577D01*
X204313683Y-97263814D01*
X204291843Y-97252250D01*
X204268654Y-97239972D01*
X204059608Y-97129288D01*
X203849160Y-97052275D01*
X203793658Y-97031964D01*
X203793656Y-97031963D01*
X203789627Y-97030489D01*
X203508736Y-96969245D01*
X203477685Y-96966801D01*
X203285718Y-96951693D01*
X203285709Y-96951693D01*
X203283261Y-96951500D01*
X203127729Y-96951500D01*
X203125593Y-96951646D01*
X203125582Y-96951646D01*
X202917452Y-96965835D01*
X202917446Y-96965836D01*
X202913175Y-96966127D01*
X202908980Y-96966996D01*
X202908978Y-96966996D01*
X202861955Y-96976734D01*
X202631658Y-97024426D01*
X202360657Y-97120393D01*
X202105188Y-97252250D01*
X202101687Y-97254711D01*
X202101683Y-97254713D01*
X201987583Y-97334904D01*
X201869977Y-97417559D01*
X201659378Y-97613260D01*
X201477287Y-97835732D01*
X201327073Y-98080858D01*
X201211517Y-98344102D01*
X201210342Y-98348229D01*
X201210341Y-98348230D01*
X201205574Y-98364964D01*
X201132756Y-98620594D01*
X201118202Y-98722856D01*
X201095993Y-98878912D01*
X201092249Y-98905216D01*
X201092227Y-98909505D01*
X201092226Y-98909512D01*
X201090765Y-99188417D01*
X201090743Y-99192703D01*
X175949987Y-99192703D01*
X175926759Y-99154798D01*
X175926755Y-99154792D01*
X175924176Y-99150584D01*
X175769969Y-98970031D01*
X175589416Y-98815824D01*
X175585208Y-98813245D01*
X175585202Y-98813241D01*
X175391183Y-98694346D01*
X175386963Y-98691760D01*
X175382393Y-98689867D01*
X175382389Y-98689865D01*
X175172167Y-98602789D01*
X175172165Y-98602788D01*
X175167594Y-98600895D01*
X175087391Y-98581640D01*
X174941524Y-98546620D01*
X174941518Y-98546619D01*
X174936711Y-98545465D01*
X174700000Y-98526835D01*
X174463289Y-98545465D01*
X174458482Y-98546619D01*
X174458476Y-98546620D01*
X174292896Y-98586373D01*
X174240049Y-98599060D01*
X174169142Y-98595513D01*
X174121540Y-98565636D01*
X173644404Y-98088499D01*
X173610379Y-98026187D01*
X173607500Y-97999404D01*
X173607500Y-96862815D01*
X173627502Y-96794694D01*
X173681158Y-96748201D01*
X173751432Y-96738097D01*
X173807560Y-96760878D01*
X173815106Y-96766360D01*
X174009042Y-96885205D01*
X174017837Y-96889687D01*
X174227988Y-96976734D01*
X174237373Y-96979783D01*
X174458554Y-97032885D01*
X174468301Y-97034428D01*
X174695070Y-97052275D01*
X174704930Y-97052275D01*
X174931699Y-97034428D01*
X174941446Y-97032885D01*
X175162627Y-96979783D01*
X175172012Y-96976734D01*
X175382163Y-96889687D01*
X175390958Y-96885205D01*
X175558445Y-96782568D01*
X175567907Y-96772110D01*
X175564124Y-96763334D01*
X174429885Y-95629095D01*
X174395859Y-95566783D01*
X174397694Y-95541132D01*
X175064408Y-95541132D01*
X175064539Y-95542965D01*
X175068790Y-95549580D01*
X175920290Y-96401080D01*
X175932670Y-96407840D01*
X175940320Y-96402113D01*
X176045205Y-96230958D01*
X176049687Y-96222163D01*
X176136734Y-96012012D01*
X176139783Y-96002627D01*
X176192885Y-95781446D01*
X176194428Y-95771699D01*
X176212275Y-95544930D01*
X176212275Y-95535070D01*
X176194428Y-95308301D01*
X176192885Y-95298554D01*
X176139783Y-95077373D01*
X176136734Y-95067988D01*
X176049687Y-94857837D01*
X176045205Y-94849042D01*
X175942568Y-94681555D01*
X175932110Y-94672093D01*
X175923334Y-94675876D01*
X175072022Y-95527188D01*
X175064408Y-95541132D01*
X174397694Y-95541132D01*
X174400924Y-95495968D01*
X174429885Y-95450905D01*
X175561080Y-94319710D01*
X175567840Y-94307330D01*
X175562113Y-94299680D01*
X175390958Y-94194795D01*
X175382163Y-94190313D01*
X175172012Y-94103266D01*
X175162627Y-94100217D01*
X174941446Y-94047115D01*
X174931699Y-94045572D01*
X174704930Y-94027725D01*
X174695070Y-94027725D01*
X174468301Y-94045572D01*
X174458554Y-94047115D01*
X174237373Y-94100217D01*
X174227988Y-94103266D01*
X174017837Y-94190313D01*
X174009042Y-94194795D01*
X173815106Y-94313640D01*
X173807560Y-94319122D01*
X173740692Y-94342980D01*
X173671540Y-94326898D01*
X173622061Y-94275984D01*
X173607500Y-94217185D01*
X173607500Y-91495594D01*
X173627502Y-91427473D01*
X173681158Y-91380980D01*
X173751432Y-91370876D01*
X173816012Y-91400370D01*
X173822595Y-91406499D01*
X175228343Y-92812247D01*
X175235887Y-92820537D01*
X175240000Y-92827018D01*
X175245777Y-92832443D01*
X175289667Y-92873658D01*
X175292509Y-92876413D01*
X175312230Y-92896134D01*
X175315425Y-92898612D01*
X175324447Y-92906318D01*
X175356679Y-92936586D01*
X175363628Y-92940406D01*
X175374432Y-92946346D01*
X175390956Y-92957199D01*
X175406959Y-92969613D01*
X175447543Y-92987176D01*
X175458173Y-92992383D01*
X175496940Y-93013695D01*
X175504617Y-93015666D01*
X175504622Y-93015668D01*
X175516558Y-93018732D01*
X175535266Y-93025137D01*
X175553855Y-93033181D01*
X175561680Y-93034420D01*
X175561682Y-93034421D01*
X175597519Y-93040097D01*
X175609140Y-93042504D01*
X175644289Y-93051528D01*
X175651970Y-93053500D01*
X175672231Y-93053500D01*
X175691940Y-93055051D01*
X175711943Y-93058219D01*
X175719835Y-93057473D01*
X175725062Y-93056979D01*
X175755954Y-93054059D01*
X175767811Y-93053500D01*
X181988434Y-93053500D01*
X182056555Y-93073502D01*
X182095867Y-93113665D01*
X182213241Y-93305202D01*
X182213245Y-93305208D01*
X182215824Y-93309416D01*
X182370031Y-93489969D01*
X182550584Y-93644176D01*
X182554792Y-93646755D01*
X182554798Y-93646759D01*
X182688000Y-93728385D01*
X182753037Y-93768240D01*
X182757607Y-93770133D01*
X182757611Y-93770135D01*
X182937834Y-93844785D01*
X182972406Y-93859105D01*
X183052609Y-93878360D01*
X183198476Y-93913380D01*
X183198482Y-93913381D01*
X183203289Y-93914535D01*
X183440000Y-93933165D01*
X183676711Y-93914535D01*
X183681518Y-93913381D01*
X183681524Y-93913380D01*
X183827391Y-93878360D01*
X183907594Y-93859105D01*
X183942166Y-93844785D01*
X184122389Y-93770135D01*
X184122393Y-93770133D01*
X184126963Y-93768240D01*
X184192000Y-93728385D01*
X184325202Y-93646759D01*
X184325208Y-93646755D01*
X184329416Y-93644176D01*
X184509969Y-93489969D01*
X184664176Y-93309416D01*
X184666755Y-93305208D01*
X184666759Y-93305202D01*
X184784133Y-93113665D01*
X184836781Y-93066034D01*
X184891566Y-93053500D01*
X188488434Y-93053500D01*
X188556555Y-93073502D01*
X188595867Y-93113665D01*
X188713241Y-93305202D01*
X188713245Y-93305208D01*
X188715824Y-93309416D01*
X188870031Y-93489969D01*
X189050584Y-93644176D01*
X189054792Y-93646755D01*
X189054798Y-93646759D01*
X189188000Y-93728385D01*
X189253037Y-93768240D01*
X189257607Y-93770133D01*
X189257611Y-93770135D01*
X189437834Y-93844785D01*
X189472406Y-93859105D01*
X189552609Y-93878360D01*
X189698476Y-93913380D01*
X189698482Y-93913381D01*
X189703289Y-93914535D01*
X189940000Y-93933165D01*
X190176711Y-93914535D01*
X190181518Y-93913381D01*
X190181524Y-93913380D01*
X190327391Y-93878360D01*
X190407594Y-93859105D01*
X190442166Y-93844785D01*
X190622389Y-93770135D01*
X190622393Y-93770133D01*
X190626963Y-93768240D01*
X190692000Y-93728385D01*
X190825202Y-93646759D01*
X190825208Y-93646755D01*
X190829416Y-93644176D01*
X191009969Y-93489969D01*
X191164176Y-93309416D01*
X191166755Y-93305208D01*
X191166759Y-93305202D01*
X191285654Y-93111183D01*
X191288240Y-93106963D01*
X191305194Y-93066034D01*
X191377211Y-92892167D01*
X191377212Y-92892165D01*
X191379105Y-92887594D01*
X191415912Y-92734283D01*
X191433380Y-92661524D01*
X191433381Y-92661518D01*
X191434535Y-92656711D01*
X191453165Y-92420000D01*
X191434535Y-92183289D01*
X191407522Y-92070769D01*
X191380260Y-91957218D01*
X191379105Y-91952406D01*
X191350296Y-91882855D01*
X191290135Y-91737611D01*
X191290133Y-91737607D01*
X191288240Y-91733037D01*
X191169395Y-91539100D01*
X191166759Y-91534798D01*
X191166755Y-91534792D01*
X191164176Y-91530584D01*
X191009969Y-91350031D01*
X190829416Y-91195824D01*
X190825208Y-91193245D01*
X190825202Y-91193241D01*
X190631183Y-91074346D01*
X190626963Y-91071760D01*
X190622393Y-91069867D01*
X190622389Y-91069865D01*
X190412167Y-90982789D01*
X190412165Y-90982788D01*
X190407594Y-90980895D01*
X190327391Y-90961640D01*
X190181524Y-90926620D01*
X190181518Y-90926619D01*
X190176711Y-90925465D01*
X189940000Y-90906835D01*
X189703289Y-90925465D01*
X189698482Y-90926619D01*
X189698476Y-90926620D01*
X189552609Y-90961640D01*
X189472406Y-90980895D01*
X189467835Y-90982788D01*
X189467833Y-90982789D01*
X189257611Y-91069865D01*
X189257607Y-91069867D01*
X189253037Y-91071760D01*
X189248817Y-91074346D01*
X189054798Y-91193241D01*
X189054792Y-91193245D01*
X189050584Y-91195824D01*
X188870031Y-91350031D01*
X188715824Y-91530584D01*
X188713245Y-91534792D01*
X188713241Y-91534798D01*
X188595867Y-91726335D01*
X188543219Y-91773966D01*
X188488434Y-91786500D01*
X184891566Y-91786500D01*
X184823445Y-91766498D01*
X184784133Y-91726335D01*
X184666759Y-91534798D01*
X184666755Y-91534792D01*
X184664176Y-91530584D01*
X184509969Y-91350031D01*
X184329416Y-91195824D01*
X184325208Y-91193245D01*
X184325202Y-91193241D01*
X184131183Y-91074346D01*
X184126963Y-91071760D01*
X184122393Y-91069867D01*
X184122389Y-91069865D01*
X183912167Y-90982789D01*
X183912165Y-90982788D01*
X183907594Y-90980895D01*
X183827391Y-90961640D01*
X183681524Y-90926620D01*
X183681518Y-90926619D01*
X183676711Y-90925465D01*
X183440000Y-90906835D01*
X183203289Y-90925465D01*
X183198482Y-90926619D01*
X183198476Y-90926620D01*
X183052609Y-90961640D01*
X182972406Y-90980895D01*
X182967835Y-90982788D01*
X182967833Y-90982789D01*
X182757611Y-91069865D01*
X182757607Y-91069867D01*
X182753037Y-91071760D01*
X182748817Y-91074346D01*
X182554798Y-91193241D01*
X182554792Y-91193245D01*
X182550584Y-91195824D01*
X182370031Y-91350031D01*
X182215824Y-91530584D01*
X182213245Y-91534792D01*
X182213241Y-91534798D01*
X182095867Y-91726335D01*
X182043219Y-91773966D01*
X181988434Y-91786500D01*
X176046595Y-91786500D01*
X175978474Y-91766498D01*
X175957500Y-91749595D01*
X173360575Y-89152670D01*
X182572160Y-89152670D01*
X182577887Y-89160320D01*
X182749042Y-89265205D01*
X182757837Y-89269687D01*
X182967988Y-89356734D01*
X182977373Y-89359783D01*
X183198554Y-89412885D01*
X183208301Y-89414428D01*
X183435070Y-89432275D01*
X183444930Y-89432275D01*
X183671699Y-89414428D01*
X183681446Y-89412885D01*
X183902627Y-89359783D01*
X183912012Y-89356734D01*
X184122163Y-89269687D01*
X184130958Y-89265205D01*
X184298445Y-89162568D01*
X184307400Y-89152670D01*
X189072160Y-89152670D01*
X189077887Y-89160320D01*
X189249042Y-89265205D01*
X189257837Y-89269687D01*
X189467988Y-89356734D01*
X189477373Y-89359783D01*
X189698554Y-89412885D01*
X189708301Y-89414428D01*
X189935070Y-89432275D01*
X189944930Y-89432275D01*
X190171699Y-89414428D01*
X190181446Y-89412885D01*
X190402627Y-89359783D01*
X190412012Y-89356734D01*
X190622163Y-89269687D01*
X190630958Y-89265205D01*
X190798445Y-89162568D01*
X190807907Y-89152110D01*
X190804124Y-89143334D01*
X189952812Y-88292022D01*
X189938868Y-88284408D01*
X189937035Y-88284539D01*
X189930420Y-88288790D01*
X189078920Y-89140290D01*
X189072160Y-89152670D01*
X184307400Y-89152670D01*
X184307907Y-89152110D01*
X184304124Y-89143334D01*
X183452812Y-88292022D01*
X183438868Y-88284408D01*
X183437035Y-88284539D01*
X183430420Y-88288790D01*
X182578920Y-89140290D01*
X182572160Y-89152670D01*
X173360575Y-89152670D01*
X172885770Y-88677865D01*
X172885766Y-88677862D01*
X172132834Y-87924930D01*
X181927725Y-87924930D01*
X181945572Y-88151699D01*
X181947115Y-88161446D01*
X182000217Y-88382627D01*
X182003266Y-88392012D01*
X182090313Y-88602163D01*
X182094795Y-88610958D01*
X182197432Y-88778445D01*
X182207890Y-88787907D01*
X182216666Y-88784124D01*
X183067978Y-87932812D01*
X183074356Y-87921132D01*
X183804408Y-87921132D01*
X183804539Y-87922965D01*
X183808790Y-87929580D01*
X184660290Y-88781080D01*
X184672670Y-88787840D01*
X184680320Y-88782113D01*
X184785205Y-88610958D01*
X184789687Y-88602163D01*
X184876734Y-88392012D01*
X184879783Y-88382627D01*
X184932885Y-88161446D01*
X184934428Y-88151699D01*
X184952275Y-87924930D01*
X188427725Y-87924930D01*
X188445572Y-88151699D01*
X188447115Y-88161446D01*
X188500217Y-88382627D01*
X188503266Y-88392012D01*
X188590313Y-88602163D01*
X188594795Y-88610958D01*
X188697432Y-88778445D01*
X188707890Y-88787907D01*
X188716666Y-88784124D01*
X189567978Y-87932812D01*
X189574356Y-87921132D01*
X190304408Y-87921132D01*
X190304539Y-87922965D01*
X190308790Y-87929580D01*
X191160290Y-88781080D01*
X191172670Y-88787840D01*
X191180320Y-88782113D01*
X191285205Y-88610958D01*
X191289687Y-88602163D01*
X191376734Y-88392012D01*
X191379783Y-88382627D01*
X191432885Y-88161446D01*
X191434428Y-88151699D01*
X191452275Y-87924930D01*
X191452275Y-87915070D01*
X191434428Y-87688301D01*
X191432885Y-87678554D01*
X191379783Y-87457373D01*
X191376734Y-87447988D01*
X191289687Y-87237837D01*
X191285205Y-87229042D01*
X191182568Y-87061555D01*
X191172110Y-87052093D01*
X191163334Y-87055876D01*
X190312022Y-87907188D01*
X190304408Y-87921132D01*
X189574356Y-87921132D01*
X189575592Y-87918868D01*
X189575461Y-87917035D01*
X189571210Y-87910420D01*
X188719710Y-87058920D01*
X188707330Y-87052160D01*
X188699680Y-87057887D01*
X188594795Y-87229042D01*
X188590313Y-87237837D01*
X188503266Y-87447988D01*
X188500217Y-87457373D01*
X188447115Y-87678554D01*
X188445572Y-87688301D01*
X188427725Y-87915070D01*
X188427725Y-87924930D01*
X184952275Y-87924930D01*
X184952275Y-87915070D01*
X184934428Y-87688301D01*
X184932885Y-87678554D01*
X184879783Y-87457373D01*
X184876734Y-87447988D01*
X184789687Y-87237837D01*
X184785205Y-87229042D01*
X184682568Y-87061555D01*
X184672110Y-87052093D01*
X184663334Y-87055876D01*
X183812022Y-87907188D01*
X183804408Y-87921132D01*
X183074356Y-87921132D01*
X183075592Y-87918868D01*
X183075461Y-87917035D01*
X183071210Y-87910420D01*
X182219710Y-87058920D01*
X182207330Y-87052160D01*
X182199680Y-87057887D01*
X182094795Y-87229042D01*
X182090313Y-87237837D01*
X182003266Y-87447988D01*
X182000217Y-87457373D01*
X181947115Y-87678554D01*
X181945572Y-87688301D01*
X181927725Y-87915070D01*
X181927725Y-87924930D01*
X172132834Y-87924930D01*
X170895794Y-86687890D01*
X182572093Y-86687890D01*
X182575876Y-86696666D01*
X183427188Y-87547978D01*
X183441132Y-87555592D01*
X183442965Y-87555461D01*
X183449580Y-87551210D01*
X184301080Y-86699710D01*
X184307534Y-86687890D01*
X189072093Y-86687890D01*
X189075876Y-86696666D01*
X189927188Y-87547978D01*
X189941132Y-87555592D01*
X189942965Y-87555461D01*
X189949580Y-87551210D01*
X190801080Y-86699710D01*
X190807840Y-86687330D01*
X190802113Y-86679680D01*
X190630958Y-86574795D01*
X190622163Y-86570313D01*
X190412012Y-86483266D01*
X190402627Y-86480217D01*
X190181446Y-86427115D01*
X190171699Y-86425572D01*
X189944930Y-86407725D01*
X189935070Y-86407725D01*
X189708301Y-86425572D01*
X189698554Y-86427115D01*
X189477373Y-86480217D01*
X189467988Y-86483266D01*
X189257837Y-86570313D01*
X189249042Y-86574795D01*
X189081555Y-86677432D01*
X189072093Y-86687890D01*
X184307534Y-86687890D01*
X184307840Y-86687330D01*
X184302113Y-86679680D01*
X184130958Y-86574795D01*
X184122163Y-86570313D01*
X183912012Y-86483266D01*
X183902627Y-86480217D01*
X183681446Y-86427115D01*
X183671699Y-86425572D01*
X183444930Y-86407725D01*
X183435070Y-86407725D01*
X183208301Y-86425572D01*
X183198554Y-86427115D01*
X182977373Y-86480217D01*
X182967988Y-86483266D01*
X182757837Y-86570313D01*
X182749042Y-86574795D01*
X182581555Y-86677432D01*
X182572093Y-86687890D01*
X170895794Y-86687890D01*
X170191115Y-85983211D01*
X167352500Y-83144595D01*
X167318474Y-83082283D01*
X167323539Y-83011468D01*
X167366086Y-82954632D01*
X167432606Y-82929821D01*
X167441595Y-82929500D01*
X194845406Y-82929500D01*
X194913527Y-82949502D01*
X194934501Y-82966405D01*
X195935636Y-83967540D01*
X195969662Y-84029852D01*
X195969060Y-84086049D01*
X195915465Y-84309289D01*
X195896835Y-84546000D01*
X195915465Y-84782711D01*
X195916619Y-84787518D01*
X195916620Y-84787524D01*
X195951640Y-84933391D01*
X195970895Y-85013594D01*
X195972788Y-85018165D01*
X195972789Y-85018167D01*
X196057496Y-85222668D01*
X196061760Y-85232963D01*
X196064346Y-85237183D01*
X196183241Y-85431202D01*
X196183245Y-85431208D01*
X196185824Y-85435416D01*
X196340031Y-85615969D01*
X196520584Y-85770176D01*
X196524792Y-85772755D01*
X196524798Y-85772759D01*
X196718817Y-85891654D01*
X196723037Y-85894240D01*
X196727607Y-85896133D01*
X196727611Y-85896135D01*
X196937833Y-85983211D01*
X196942406Y-85985105D01*
X197022609Y-86004360D01*
X197168476Y-86039380D01*
X197168482Y-86039381D01*
X197173289Y-86040535D01*
X197410000Y-86059165D01*
X197646711Y-86040535D01*
X197651518Y-86039381D01*
X197651524Y-86039380D01*
X197797391Y-86004360D01*
X197877594Y-85985105D01*
X197882167Y-85983211D01*
X198092389Y-85896135D01*
X198092393Y-85896133D01*
X198096963Y-85894240D01*
X198101183Y-85891654D01*
X198295202Y-85772759D01*
X198295208Y-85772755D01*
X198299416Y-85770176D01*
X198479969Y-85615969D01*
X198634176Y-85435416D01*
X198636755Y-85431208D01*
X198636759Y-85431202D01*
X198754133Y-85239665D01*
X198806781Y-85192034D01*
X198861566Y-85179500D01*
X202458434Y-85179500D01*
X202526555Y-85199502D01*
X202565867Y-85239665D01*
X202683241Y-85431202D01*
X202683245Y-85431208D01*
X202685824Y-85435416D01*
X202840031Y-85615969D01*
X203020584Y-85770176D01*
X203024792Y-85772755D01*
X203024798Y-85772759D01*
X203218817Y-85891654D01*
X203223037Y-85894240D01*
X203227607Y-85896133D01*
X203227611Y-85896135D01*
X203437833Y-85983211D01*
X203442406Y-85985105D01*
X203522609Y-86004360D01*
X203668476Y-86039380D01*
X203668482Y-86039381D01*
X203673289Y-86040535D01*
X203910000Y-86059165D01*
X204146711Y-86040535D01*
X204151518Y-86039381D01*
X204151524Y-86039380D01*
X204297391Y-86004360D01*
X204377594Y-85985105D01*
X204382167Y-85983211D01*
X204592389Y-85896135D01*
X204592393Y-85896133D01*
X204596963Y-85894240D01*
X204601183Y-85891654D01*
X204795202Y-85772759D01*
X204795208Y-85772755D01*
X204799416Y-85770176D01*
X204979969Y-85615969D01*
X205134176Y-85435416D01*
X205136755Y-85431208D01*
X205136759Y-85431202D01*
X205255654Y-85237183D01*
X205258240Y-85232963D01*
X205262505Y-85222668D01*
X205347211Y-85018167D01*
X205347212Y-85018165D01*
X205349105Y-85013594D01*
X205368360Y-84933391D01*
X205403380Y-84787524D01*
X205403381Y-84787518D01*
X205404535Y-84782711D01*
X205423165Y-84546000D01*
X205404535Y-84309289D01*
X205349105Y-84078406D01*
X205347211Y-84073833D01*
X205260135Y-83863611D01*
X205260133Y-83863607D01*
X205258240Y-83859037D01*
X205232496Y-83817027D01*
X205136759Y-83660798D01*
X205136755Y-83660792D01*
X205134176Y-83656584D01*
X204979969Y-83476031D01*
X204799416Y-83321824D01*
X204795208Y-83319245D01*
X204795202Y-83319241D01*
X204601183Y-83200346D01*
X204596963Y-83197760D01*
X204592393Y-83195867D01*
X204592389Y-83195865D01*
X204382167Y-83108789D01*
X204382165Y-83108788D01*
X204377594Y-83106895D01*
X204297391Y-83087640D01*
X204151524Y-83052620D01*
X204151518Y-83052619D01*
X204146711Y-83051465D01*
X203910000Y-83032835D01*
X203673289Y-83051465D01*
X203668482Y-83052619D01*
X203668476Y-83052620D01*
X203522609Y-83087640D01*
X203442406Y-83106895D01*
X203437835Y-83108788D01*
X203437833Y-83108789D01*
X203227611Y-83195865D01*
X203227607Y-83195867D01*
X203223037Y-83197760D01*
X203218817Y-83200346D01*
X203024798Y-83319241D01*
X203024792Y-83319245D01*
X203020584Y-83321824D01*
X202840031Y-83476031D01*
X202685824Y-83656584D01*
X202683245Y-83660792D01*
X202683241Y-83660798D01*
X202565867Y-83852335D01*
X202513219Y-83899966D01*
X202458434Y-83912500D01*
X198861566Y-83912500D01*
X198793445Y-83892498D01*
X198754133Y-83852335D01*
X198636759Y-83660798D01*
X198636755Y-83660792D01*
X198634176Y-83656584D01*
X198479969Y-83476031D01*
X198299416Y-83321824D01*
X198295208Y-83319245D01*
X198295202Y-83319241D01*
X198101183Y-83200346D01*
X198096963Y-83197760D01*
X198092393Y-83195867D01*
X198092389Y-83195865D01*
X197882167Y-83108789D01*
X197882165Y-83108788D01*
X197877594Y-83106895D01*
X197797391Y-83087640D01*
X197651524Y-83052620D01*
X197651518Y-83052619D01*
X197646711Y-83051465D01*
X197410000Y-83032835D01*
X197173289Y-83051465D01*
X197168482Y-83052619D01*
X197168476Y-83052620D01*
X196950049Y-83105060D01*
X196879141Y-83101513D01*
X196831540Y-83071636D01*
X195663652Y-81903747D01*
X195656112Y-81895461D01*
X195652000Y-81888982D01*
X195602348Y-81842356D01*
X195599507Y-81839602D01*
X195579770Y-81819865D01*
X195576573Y-81817385D01*
X195567551Y-81809680D01*
X195541100Y-81784841D01*
X195535321Y-81779414D01*
X195528375Y-81775595D01*
X195528372Y-81775593D01*
X195517566Y-81769652D01*
X195501047Y-81758801D01*
X195500583Y-81758441D01*
X195485041Y-81746386D01*
X195477772Y-81743241D01*
X195477768Y-81743238D01*
X195444463Y-81728826D01*
X195433813Y-81723609D01*
X195395060Y-81702305D01*
X195375437Y-81697267D01*
X195356734Y-81690863D01*
X195345420Y-81685967D01*
X195345419Y-81685967D01*
X195338145Y-81682819D01*
X195330322Y-81681580D01*
X195330312Y-81681577D01*
X195294476Y-81675901D01*
X195282856Y-81673495D01*
X195247711Y-81664472D01*
X195247710Y-81664472D01*
X195240030Y-81662500D01*
X195219776Y-81662500D01*
X195200065Y-81660949D01*
X195187886Y-81659020D01*
X195180057Y-81657780D01*
X195172165Y-81658526D01*
X195136039Y-81661941D01*
X195124181Y-81662500D01*
X137982594Y-81662500D01*
X137914473Y-81642498D01*
X137893499Y-81625595D01*
X137546574Y-81278670D01*
X196542160Y-81278670D01*
X196547887Y-81286320D01*
X196719042Y-81391205D01*
X196727837Y-81395687D01*
X196937988Y-81482734D01*
X196947373Y-81485783D01*
X197168554Y-81538885D01*
X197178301Y-81540428D01*
X197405070Y-81558275D01*
X197414930Y-81558275D01*
X197641699Y-81540428D01*
X197651446Y-81538885D01*
X197872627Y-81485783D01*
X197882012Y-81482734D01*
X198092163Y-81395687D01*
X198100958Y-81391205D01*
X198268445Y-81288568D01*
X198277400Y-81278670D01*
X203042160Y-81278670D01*
X203047887Y-81286320D01*
X203219042Y-81391205D01*
X203227837Y-81395687D01*
X203437988Y-81482734D01*
X203447373Y-81485783D01*
X203668554Y-81538885D01*
X203678301Y-81540428D01*
X203905070Y-81558275D01*
X203914930Y-81558275D01*
X204141699Y-81540428D01*
X204151446Y-81538885D01*
X204372627Y-81485783D01*
X204382012Y-81482734D01*
X204592163Y-81395687D01*
X204600958Y-81391205D01*
X204768445Y-81288568D01*
X204777907Y-81278110D01*
X204774124Y-81269334D01*
X203922812Y-80418022D01*
X203908868Y-80410408D01*
X203907035Y-80410539D01*
X203900420Y-80414790D01*
X203048920Y-81266290D01*
X203042160Y-81278670D01*
X198277400Y-81278670D01*
X198277907Y-81278110D01*
X198274124Y-81269334D01*
X197422812Y-80418022D01*
X197408868Y-80410408D01*
X197407035Y-80410539D01*
X197400420Y-80414790D01*
X196548920Y-81266290D01*
X196542160Y-81278670D01*
X137546574Y-81278670D01*
X136318834Y-80050930D01*
X195897725Y-80050930D01*
X195915572Y-80277699D01*
X195917115Y-80287446D01*
X195970217Y-80508627D01*
X195973266Y-80518012D01*
X196060313Y-80728163D01*
X196064795Y-80736958D01*
X196167432Y-80904445D01*
X196177890Y-80913907D01*
X196186666Y-80910124D01*
X197037978Y-80058812D01*
X197044356Y-80047132D01*
X197774408Y-80047132D01*
X197774539Y-80048965D01*
X197778790Y-80055580D01*
X198630290Y-80907080D01*
X198642670Y-80913840D01*
X198650320Y-80908113D01*
X198755205Y-80736958D01*
X198759687Y-80728163D01*
X198846734Y-80518012D01*
X198849783Y-80508627D01*
X198902885Y-80287446D01*
X198904428Y-80277699D01*
X198922275Y-80050930D01*
X202397725Y-80050930D01*
X202415572Y-80277699D01*
X202417115Y-80287446D01*
X202470217Y-80508627D01*
X202473266Y-80518012D01*
X202560313Y-80728163D01*
X202564795Y-80736958D01*
X202667432Y-80904445D01*
X202677890Y-80913907D01*
X202686666Y-80910124D01*
X203537978Y-80058812D01*
X203544356Y-80047132D01*
X204274408Y-80047132D01*
X204274539Y-80048965D01*
X204278790Y-80055580D01*
X205130290Y-80907080D01*
X205142670Y-80913840D01*
X205150320Y-80908113D01*
X205255205Y-80736958D01*
X205259687Y-80728163D01*
X205346734Y-80518012D01*
X205349783Y-80508627D01*
X205402885Y-80287446D01*
X205404428Y-80277699D01*
X205422275Y-80050930D01*
X205422275Y-80041070D01*
X205404428Y-79814301D01*
X205402885Y-79804554D01*
X205349783Y-79583373D01*
X205346734Y-79573988D01*
X205259687Y-79363837D01*
X205255205Y-79355042D01*
X205152568Y-79187555D01*
X205142110Y-79178093D01*
X205133334Y-79181876D01*
X204282022Y-80033188D01*
X204274408Y-80047132D01*
X203544356Y-80047132D01*
X203545592Y-80044868D01*
X203545461Y-80043035D01*
X203541210Y-80036420D01*
X202689710Y-79184920D01*
X202677330Y-79178160D01*
X202669680Y-79183887D01*
X202564795Y-79355042D01*
X202560313Y-79363837D01*
X202473266Y-79573988D01*
X202470217Y-79583373D01*
X202417115Y-79804554D01*
X202415572Y-79814301D01*
X202397725Y-80041070D01*
X202397725Y-80050930D01*
X198922275Y-80050930D01*
X198922275Y-80041070D01*
X198904428Y-79814301D01*
X198902885Y-79804554D01*
X198849783Y-79583373D01*
X198846734Y-79573988D01*
X198759687Y-79363837D01*
X198755205Y-79355042D01*
X198652568Y-79187555D01*
X198642110Y-79178093D01*
X198633334Y-79181876D01*
X197782022Y-80033188D01*
X197774408Y-80047132D01*
X197044356Y-80047132D01*
X197045592Y-80044868D01*
X197045461Y-80043035D01*
X197041210Y-80036420D01*
X196189710Y-79184920D01*
X196177330Y-79178160D01*
X196169680Y-79183887D01*
X196064795Y-79355042D01*
X196060313Y-79363837D01*
X195973266Y-79573988D01*
X195970217Y-79583373D01*
X195917115Y-79804554D01*
X195915572Y-79814301D01*
X195897725Y-80041070D01*
X195897725Y-80050930D01*
X136318834Y-80050930D01*
X135081794Y-78813890D01*
X196542093Y-78813890D01*
X196545876Y-78822666D01*
X197397188Y-79673978D01*
X197411132Y-79681592D01*
X197412965Y-79681461D01*
X197419580Y-79677210D01*
X198271080Y-78825710D01*
X198277534Y-78813890D01*
X203042093Y-78813890D01*
X203045876Y-78822666D01*
X203897188Y-79673978D01*
X203911132Y-79681592D01*
X203912965Y-79681461D01*
X203919580Y-79677210D01*
X204771080Y-78825710D01*
X204777840Y-78813330D01*
X204772113Y-78805680D01*
X204600958Y-78700795D01*
X204592163Y-78696313D01*
X204382012Y-78609266D01*
X204372627Y-78606217D01*
X204151446Y-78553115D01*
X204141699Y-78551572D01*
X203914930Y-78533725D01*
X203905070Y-78533725D01*
X203678301Y-78551572D01*
X203668554Y-78553115D01*
X203447373Y-78606217D01*
X203437988Y-78609266D01*
X203227837Y-78696313D01*
X203219042Y-78700795D01*
X203051555Y-78803432D01*
X203042093Y-78813890D01*
X198277534Y-78813890D01*
X198277840Y-78813330D01*
X198272113Y-78805680D01*
X198100958Y-78700795D01*
X198092163Y-78696313D01*
X197882012Y-78609266D01*
X197872627Y-78606217D01*
X197651446Y-78553115D01*
X197641699Y-78551572D01*
X197414930Y-78533725D01*
X197405070Y-78533725D01*
X197178301Y-78551572D01*
X197168554Y-78553115D01*
X196947373Y-78606217D01*
X196937988Y-78609266D01*
X196727837Y-78696313D01*
X196719042Y-78700795D01*
X196551555Y-78803432D01*
X196542093Y-78813890D01*
X135081794Y-78813890D01*
X134735599Y-78467695D01*
X211743251Y-78467695D01*
X211743548Y-78472848D01*
X211743548Y-78472851D01*
X211749011Y-78567590D01*
X211756110Y-78690715D01*
X211757247Y-78695761D01*
X211757248Y-78695767D01*
X211759136Y-78704143D01*
X211805222Y-78908639D01*
X211843461Y-79002811D01*
X211885030Y-79105183D01*
X211889266Y-79115616D01*
X211891965Y-79120020D01*
X211976695Y-79258287D01*
X212005987Y-79306088D01*
X212152250Y-79474938D01*
X212324126Y-79617632D01*
X212517000Y-79730338D01*
X212725692Y-79810030D01*
X212730760Y-79811061D01*
X212730763Y-79811062D01*
X212790075Y-79823129D01*
X212944597Y-79854567D01*
X212949772Y-79854757D01*
X212949774Y-79854757D01*
X213162673Y-79862564D01*
X213162677Y-79862564D01*
X213167837Y-79862753D01*
X213172957Y-79862097D01*
X213172959Y-79862097D01*
X213384288Y-79835025D01*
X213384289Y-79835025D01*
X213389416Y-79834368D01*
X213394366Y-79832883D01*
X213598429Y-79771661D01*
X213598434Y-79771659D01*
X213603384Y-79770174D01*
X213803994Y-79671896D01*
X213985860Y-79542173D01*
X214014634Y-79513500D01*
X214067209Y-79461107D01*
X214144096Y-79384489D01*
X214199652Y-79307175D01*
X214271435Y-79207277D01*
X214274453Y-79203077D01*
X214282125Y-79187555D01*
X214371136Y-79007453D01*
X214371137Y-79007451D01*
X214373430Y-79002811D01*
X214427238Y-78825710D01*
X214436865Y-78794023D01*
X214436865Y-78794021D01*
X214438370Y-78789069D01*
X214467529Y-78567590D01*
X214467883Y-78553115D01*
X214469074Y-78504365D01*
X214469074Y-78504361D01*
X214469156Y-78501000D01*
X214450852Y-78278361D01*
X214396431Y-78061702D01*
X214307354Y-77856840D01*
X214186014Y-77669277D01*
X214035670Y-77504051D01*
X214031619Y-77500852D01*
X214031615Y-77500848D01*
X213864414Y-77368800D01*
X213864410Y-77368798D01*
X213860359Y-77365598D01*
X213819053Y-77342796D01*
X213769084Y-77292364D01*
X213754312Y-77222921D01*
X213779428Y-77156516D01*
X213806780Y-77129909D01*
X213850603Y-77098650D01*
X213985860Y-77002173D01*
X213992581Y-76995476D01*
X214140435Y-76848137D01*
X214144096Y-76844489D01*
X214203594Y-76761689D01*
X214271435Y-76667277D01*
X214274453Y-76663077D01*
X214291638Y-76628307D01*
X214371136Y-76467453D01*
X214371137Y-76467451D01*
X214373430Y-76462811D01*
X214438370Y-76249069D01*
X214467529Y-76027590D01*
X214467611Y-76024240D01*
X214469074Y-75964365D01*
X214469074Y-75964361D01*
X214469156Y-75961000D01*
X214450852Y-75738361D01*
X214396431Y-75521702D01*
X214307354Y-75316840D01*
X214241856Y-75215595D01*
X214188822Y-75133617D01*
X214188820Y-75133614D01*
X214186014Y-75129277D01*
X214172470Y-75114392D01*
X214038798Y-74967488D01*
X214007746Y-74903642D01*
X214016141Y-74833143D01*
X214061317Y-74778375D01*
X214087761Y-74764706D01*
X214194297Y-74724767D01*
X214202705Y-74721615D01*
X214319261Y-74634261D01*
X214406615Y-74517705D01*
X214457745Y-74381316D01*
X214464500Y-74319134D01*
X214464500Y-72522866D01*
X214457745Y-72460684D01*
X214406615Y-72324295D01*
X214319261Y-72207739D01*
X214202705Y-72120385D01*
X214066316Y-72069255D01*
X214004134Y-72062500D01*
X212207866Y-72062500D01*
X212145684Y-72069255D01*
X212009295Y-72120385D01*
X211892739Y-72207739D01*
X211805385Y-72324295D01*
X211754255Y-72460684D01*
X211747500Y-72522866D01*
X211747500Y-74319134D01*
X211754255Y-74381316D01*
X211805385Y-74517705D01*
X211892739Y-74634261D01*
X212009295Y-74721615D01*
X212017704Y-74724767D01*
X212017705Y-74724768D01*
X212126451Y-74765535D01*
X212183216Y-74808176D01*
X212207916Y-74874738D01*
X212192709Y-74944087D01*
X212173316Y-74970568D01*
X212160452Y-74984029D01*
X212114709Y-75031897D01*
X212046629Y-75103138D01*
X212043715Y-75107410D01*
X212043714Y-75107411D01*
X211971417Y-75213395D01*
X211920743Y-75287680D01*
X211891474Y-75350735D01*
X211854869Y-75429595D01*
X211826688Y-75490305D01*
X211766989Y-75705570D01*
X211743251Y-75927695D01*
X211743548Y-75932848D01*
X211743548Y-75932851D01*
X211752242Y-76083634D01*
X211756110Y-76150715D01*
X211757247Y-76155761D01*
X211757248Y-76155767D01*
X211777119Y-76243939D01*
X211805222Y-76368639D01*
X211889266Y-76575616D01*
X212005987Y-76766088D01*
X212152250Y-76934938D01*
X212324126Y-77077632D01*
X212394595Y-77118811D01*
X212397445Y-77120476D01*
X212446169Y-77172114D01*
X212459240Y-77241897D01*
X212432509Y-77307669D01*
X212392055Y-77341027D01*
X212379607Y-77347507D01*
X212375474Y-77350610D01*
X212375471Y-77350612D01*
X212205100Y-77478530D01*
X212200965Y-77481635D01*
X212046629Y-77643138D01*
X211920743Y-77827680D01*
X211905003Y-77861590D01*
X211831455Y-78020036D01*
X211826688Y-78030305D01*
X211766989Y-78245570D01*
X211743251Y-78467695D01*
X134735599Y-78467695D01*
X127240125Y-70972220D01*
X116581652Y-60313747D01*
X116574112Y-60305461D01*
X116570000Y-60298982D01*
X116520348Y-60252356D01*
X116517507Y-60249602D01*
X116497770Y-60229865D01*
X116494573Y-60227385D01*
X116485551Y-60219680D01*
X116459100Y-60194841D01*
X116453321Y-60189414D01*
X116446375Y-60185595D01*
X116446372Y-60185593D01*
X116435566Y-60179652D01*
X116419047Y-60168801D01*
X116418583Y-60168441D01*
X116403041Y-60156386D01*
X116395772Y-60153241D01*
X116395768Y-60153238D01*
X116362463Y-60138826D01*
X116351813Y-60133609D01*
X116313060Y-60112305D01*
X116293437Y-60107267D01*
X116274734Y-60100863D01*
X116263420Y-60095967D01*
X116263419Y-60095967D01*
X116256145Y-60092819D01*
X116248322Y-60091580D01*
X116248312Y-60091577D01*
X116212476Y-60085901D01*
X116200856Y-60083495D01*
X116165711Y-60074472D01*
X116165710Y-60074472D01*
X116158030Y-60072500D01*
X116137776Y-60072500D01*
X116118065Y-60070949D01*
X116105886Y-60069020D01*
X116098057Y-60067780D01*
X116090165Y-60068526D01*
X116054039Y-60071941D01*
X116042181Y-60072500D01*
X114485500Y-60072500D01*
X114417379Y-60052498D01*
X114370886Y-59998842D01*
X114359500Y-59946500D01*
X114359500Y-59405354D01*
X114353258Y-59326039D01*
X114349690Y-59312721D01*
X114305535Y-59147935D01*
X114305535Y-59147934D01*
X114303827Y-59141561D01*
X114217122Y-58971392D01*
X114132580Y-58866991D01*
X114101082Y-58828095D01*
X114101081Y-58828094D01*
X114096931Y-58822969D01*
X113948508Y-58702778D01*
X113948500Y-58702774D01*
X113903858Y-58650750D01*
X113894092Y-58580428D01*
X113923896Y-58515990D01*
X113947176Y-58495819D01*
X113948530Y-58495129D01*
X114096945Y-58374945D01*
X114132524Y-58331009D01*
X114212973Y-58231663D01*
X114212976Y-58231659D01*
X114217129Y-58226530D01*
X114303829Y-58056371D01*
X114305539Y-58049989D01*
X114307321Y-58045347D01*
X114350407Y-57988918D01*
X114417160Y-57964741D01*
X114424953Y-57964500D01*
X123053578Y-57964500D01*
X123121699Y-57984502D01*
X123142673Y-58001405D01*
X131828750Y-66687483D01*
X131836326Y-66695809D01*
X131840447Y-66702303D01*
X131846222Y-66707726D01*
X131890265Y-66749085D01*
X131893107Y-66751840D01*
X131912906Y-66771639D01*
X131916037Y-66774068D01*
X131916042Y-66774072D01*
X131916128Y-66774139D01*
X131925153Y-66781847D01*
X131957494Y-66812217D01*
X131964439Y-66816035D01*
X131964443Y-66816038D01*
X131975334Y-66822026D01*
X131991855Y-66832878D01*
X132007934Y-66845350D01*
X132048655Y-66862971D01*
X132059311Y-66868192D01*
X132091245Y-66885748D01*
X132091251Y-66885750D01*
X132098197Y-66889569D01*
X132105872Y-66891540D01*
X132105878Y-66891542D01*
X132117911Y-66894631D01*
X132136613Y-66901034D01*
X132155292Y-66909117D01*
X132163118Y-66910357D01*
X132163123Y-66910358D01*
X132199120Y-66916060D01*
X132210740Y-66918466D01*
X132246037Y-66927528D01*
X132253718Y-66929500D01*
X132274066Y-66929500D01*
X132293778Y-66931051D01*
X132313880Y-66934235D01*
X132358055Y-66930059D01*
X132369914Y-66929500D01*
X169102578Y-66929500D01*
X169170699Y-66949502D01*
X169191673Y-66966405D01*
X174669296Y-72444029D01*
X180116750Y-77891483D01*
X180124326Y-77899809D01*
X180128447Y-77906303D01*
X180134222Y-77911726D01*
X180178265Y-77953085D01*
X180181107Y-77955840D01*
X180200906Y-77975639D01*
X180204031Y-77978063D01*
X180204040Y-77978071D01*
X180204126Y-77978137D01*
X180213151Y-77985845D01*
X180245494Y-78016217D01*
X180262580Y-78025610D01*
X180263329Y-78026022D01*
X180279847Y-78036873D01*
X180295933Y-78049350D01*
X180336666Y-78066976D01*
X180347314Y-78072193D01*
X180358942Y-78078585D01*
X180386197Y-78093569D01*
X180393872Y-78095540D01*
X180393878Y-78095542D01*
X180405911Y-78098631D01*
X180424613Y-78105034D01*
X180443292Y-78113117D01*
X180476818Y-78118427D01*
X180487127Y-78120060D01*
X180498740Y-78122465D01*
X180541718Y-78133500D01*
X180562065Y-78133500D01*
X180581777Y-78135051D01*
X180601879Y-78138235D01*
X180609771Y-78137489D01*
X180646056Y-78134059D01*
X180657914Y-78133500D01*
X200567048Y-78133500D01*
X200578282Y-78134030D01*
X200585787Y-78135708D01*
X200654080Y-78133562D01*
X200658037Y-78133500D01*
X200686051Y-78133500D01*
X200689976Y-78133004D01*
X200689977Y-78133004D01*
X200690072Y-78132992D01*
X200701917Y-78132059D01*
X200731738Y-78131122D01*
X200738350Y-78130914D01*
X200738351Y-78130914D01*
X200746273Y-78130665D01*
X200765817Y-78124987D01*
X200785180Y-78120977D01*
X200797508Y-78119420D01*
X200797510Y-78119420D01*
X200805367Y-78118427D01*
X200812731Y-78115511D01*
X200812736Y-78115510D01*
X200846624Y-78102093D01*
X200857853Y-78098248D01*
X200874533Y-78093402D01*
X200900461Y-78085869D01*
X200907288Y-78081831D01*
X200907291Y-78081830D01*
X200917974Y-78075512D01*
X200935732Y-78066812D01*
X200947283Y-78062239D01*
X200947289Y-78062235D01*
X200954656Y-78059319D01*
X200964045Y-78052498D01*
X200985543Y-78036878D01*
X200990559Y-78033234D01*
X201000478Y-78026719D01*
X201031836Y-78008174D01*
X201031840Y-78008171D01*
X201038666Y-78004134D01*
X201053050Y-77989750D01*
X201068084Y-77976909D01*
X201078141Y-77969602D01*
X201084555Y-77964942D01*
X201112846Y-77930744D01*
X201120835Y-77921965D01*
X202792896Y-76249905D01*
X202855208Y-76215879D01*
X202881991Y-76213000D01*
X202905983Y-76213000D01*
X202909908Y-76212504D01*
X202909909Y-76212504D01*
X202910004Y-76212492D01*
X202921849Y-76211559D01*
X202951670Y-76210622D01*
X202958282Y-76210414D01*
X202958283Y-76210414D01*
X202966205Y-76210165D01*
X202985749Y-76204487D01*
X203005112Y-76200477D01*
X203017440Y-76198920D01*
X203017442Y-76198920D01*
X203025299Y-76197927D01*
X203032663Y-76195011D01*
X203032668Y-76195010D01*
X203066556Y-76181593D01*
X203077785Y-76177748D01*
X203095858Y-76172497D01*
X203120393Y-76165369D01*
X203127220Y-76161331D01*
X203127223Y-76161330D01*
X203137906Y-76155012D01*
X203155664Y-76146312D01*
X203167215Y-76141739D01*
X203167221Y-76141735D01*
X203174588Y-76138819D01*
X203210491Y-76112734D01*
X203220410Y-76106219D01*
X203251768Y-76087674D01*
X203251772Y-76087671D01*
X203258598Y-76083634D01*
X203272982Y-76069250D01*
X203288016Y-76056409D01*
X203298073Y-76049102D01*
X203304487Y-76044442D01*
X203332778Y-76010244D01*
X203340767Y-76001465D01*
X204043899Y-75298333D01*
X204106211Y-75264307D01*
X204158112Y-75263957D01*
X204335597Y-75300067D01*
X204340772Y-75300257D01*
X204340774Y-75300257D01*
X204553673Y-75308064D01*
X204553677Y-75308064D01*
X204558837Y-75308253D01*
X204563957Y-75307597D01*
X204563959Y-75307597D01*
X204775288Y-75280525D01*
X204775289Y-75280525D01*
X204780416Y-75279868D01*
X204785366Y-75278383D01*
X204989429Y-75217161D01*
X204989434Y-75217159D01*
X204994384Y-75215674D01*
X205194994Y-75117396D01*
X205376860Y-74987673D01*
X205535096Y-74829989D01*
X205665453Y-74648577D01*
X205672529Y-74634261D01*
X205762136Y-74452953D01*
X205762137Y-74452951D01*
X205764430Y-74448311D01*
X205816326Y-74277502D01*
X205827865Y-74239523D01*
X205827865Y-74239521D01*
X205829370Y-74234569D01*
X205858529Y-74013090D01*
X205860156Y-73946500D01*
X205841852Y-73723861D01*
X205787431Y-73507202D01*
X205698354Y-73302340D01*
X205615187Y-73173783D01*
X205579822Y-73119117D01*
X205579820Y-73119114D01*
X205577014Y-73114777D01*
X205426670Y-72949551D01*
X205422619Y-72946352D01*
X205422615Y-72946348D01*
X205255414Y-72814300D01*
X205255410Y-72814298D01*
X205251359Y-72811098D01*
X205210053Y-72788296D01*
X205160084Y-72737864D01*
X205145312Y-72668421D01*
X205170428Y-72602016D01*
X205197780Y-72575409D01*
X205266652Y-72526283D01*
X205376860Y-72447673D01*
X205401323Y-72423296D01*
X205531435Y-72293637D01*
X205535096Y-72289989D01*
X205594594Y-72207189D01*
X205662435Y-72112777D01*
X205665453Y-72108577D01*
X205686320Y-72066357D01*
X205762136Y-71912953D01*
X205762137Y-71912951D01*
X205764430Y-71908311D01*
X205829370Y-71694569D01*
X205858529Y-71473090D01*
X205858902Y-71457811D01*
X205860074Y-71409865D01*
X205860074Y-71409861D01*
X205860156Y-71406500D01*
X205841852Y-71183861D01*
X205787431Y-70967202D01*
X205698354Y-70762340D01*
X205622968Y-70645811D01*
X205579822Y-70579117D01*
X205579820Y-70579114D01*
X205577014Y-70574777D01*
X205426670Y-70409551D01*
X205422619Y-70406352D01*
X205422615Y-70406348D01*
X205255414Y-70274300D01*
X205255410Y-70274298D01*
X205251359Y-70271098D01*
X205055789Y-70163138D01*
X205050920Y-70161414D01*
X205050916Y-70161412D01*
X204850087Y-70090295D01*
X204850083Y-70090294D01*
X204845212Y-70088569D01*
X204840119Y-70087662D01*
X204840116Y-70087661D01*
X204630373Y-70050300D01*
X204630367Y-70050299D01*
X204625284Y-70049394D01*
X204551452Y-70048492D01*
X204407081Y-70046728D01*
X204407079Y-70046728D01*
X204401911Y-70046665D01*
X204181091Y-70080455D01*
X203968756Y-70149857D01*
X203938443Y-70165637D01*
X203828377Y-70222934D01*
X203770607Y-70253007D01*
X203766474Y-70256110D01*
X203766471Y-70256112D01*
X203596100Y-70384030D01*
X203591965Y-70387135D01*
X203533712Y-70448093D01*
X203517166Y-70465408D01*
X203437629Y-70548638D01*
X203330201Y-70706121D01*
X203275293Y-70751121D01*
X203204768Y-70759292D01*
X203141021Y-70728038D01*
X203120324Y-70703554D01*
X203039822Y-70579117D01*
X203039820Y-70579114D01*
X203037014Y-70574777D01*
X202886670Y-70409551D01*
X202882619Y-70406352D01*
X202882615Y-70406348D01*
X202715414Y-70274300D01*
X202715410Y-70274298D01*
X202711359Y-70271098D01*
X202515789Y-70163138D01*
X202510920Y-70161414D01*
X202510916Y-70161412D01*
X202310087Y-70090295D01*
X202310083Y-70090294D01*
X202305212Y-70088569D01*
X202300119Y-70087662D01*
X202300116Y-70087661D01*
X202090373Y-70050300D01*
X202090367Y-70050299D01*
X202085284Y-70049394D01*
X202011452Y-70048492D01*
X201867081Y-70046728D01*
X201867079Y-70046728D01*
X201861911Y-70046665D01*
X201641091Y-70080455D01*
X201428756Y-70149857D01*
X201398443Y-70165637D01*
X201288377Y-70222934D01*
X201230607Y-70253007D01*
X201226474Y-70256110D01*
X201226471Y-70256112D01*
X201056100Y-70384030D01*
X201051965Y-70387135D01*
X200993712Y-70448093D01*
X200977166Y-70465408D01*
X200897629Y-70548638D01*
X200790201Y-70706121D01*
X200735293Y-70751121D01*
X200664768Y-70759292D01*
X200601021Y-70728038D01*
X200580324Y-70703554D01*
X200499822Y-70579117D01*
X200499820Y-70579114D01*
X200497014Y-70574777D01*
X200346670Y-70409551D01*
X200342619Y-70406352D01*
X200342615Y-70406348D01*
X200175414Y-70274300D01*
X200175410Y-70274298D01*
X200171359Y-70271098D01*
X199975789Y-70163138D01*
X199970920Y-70161414D01*
X199970916Y-70161412D01*
X199770087Y-70090295D01*
X199770083Y-70090294D01*
X199765212Y-70088569D01*
X199760119Y-70087662D01*
X199760116Y-70087661D01*
X199550373Y-70050300D01*
X199550367Y-70050299D01*
X199545284Y-70049394D01*
X199471452Y-70048492D01*
X199327081Y-70046728D01*
X199327079Y-70046728D01*
X199321911Y-70046665D01*
X199101091Y-70080455D01*
X198888756Y-70149857D01*
X198858443Y-70165637D01*
X198748377Y-70222934D01*
X198690607Y-70253007D01*
X198686474Y-70256110D01*
X198686471Y-70256112D01*
X198516100Y-70384030D01*
X198511965Y-70387135D01*
X198453712Y-70448093D01*
X198437166Y-70465408D01*
X198357629Y-70548638D01*
X198250201Y-70706121D01*
X198195293Y-70751121D01*
X198124768Y-70759292D01*
X198061021Y-70728038D01*
X198040324Y-70703554D01*
X197959822Y-70579117D01*
X197959820Y-70579114D01*
X197957014Y-70574777D01*
X197806670Y-70409551D01*
X197802619Y-70406352D01*
X197802615Y-70406348D01*
X197635414Y-70274300D01*
X197635410Y-70274298D01*
X197631359Y-70271098D01*
X197435789Y-70163138D01*
X197430920Y-70161414D01*
X197430916Y-70161412D01*
X197230087Y-70090295D01*
X197230083Y-70090294D01*
X197225212Y-70088569D01*
X197220119Y-70087662D01*
X197220116Y-70087661D01*
X197010373Y-70050300D01*
X197010367Y-70050299D01*
X197005284Y-70049394D01*
X196931452Y-70048492D01*
X196787081Y-70046728D01*
X196787079Y-70046728D01*
X196781911Y-70046665D01*
X196561091Y-70080455D01*
X196348756Y-70149857D01*
X196318443Y-70165637D01*
X196208377Y-70222934D01*
X196150607Y-70253007D01*
X196146474Y-70256110D01*
X196146471Y-70256112D01*
X195976100Y-70384030D01*
X195971965Y-70387135D01*
X195913712Y-70448093D01*
X195897166Y-70465408D01*
X195817629Y-70548638D01*
X195814720Y-70552903D01*
X195814714Y-70552911D01*
X195751342Y-70645811D01*
X195691743Y-70733180D01*
X195597688Y-70935805D01*
X195537989Y-71151070D01*
X195514251Y-71373195D01*
X195514548Y-71378348D01*
X195514548Y-71378351D01*
X195520011Y-71473090D01*
X195527110Y-71596215D01*
X195528247Y-71601261D01*
X195528248Y-71601267D01*
X195548119Y-71689439D01*
X195576222Y-71814139D01*
X195660266Y-72021116D01*
X195711019Y-72103938D01*
X195774291Y-72207188D01*
X195776987Y-72211588D01*
X195923250Y-72380438D01*
X195927225Y-72383738D01*
X195927231Y-72383744D01*
X195932425Y-72388056D01*
X195972059Y-72446960D01*
X195973555Y-72517941D01*
X195936439Y-72578462D01*
X195896168Y-72602980D01*
X195788946Y-72643176D01*
X195773351Y-72651714D01*
X195671276Y-72728215D01*
X195658715Y-72740776D01*
X195582214Y-72842851D01*
X195573676Y-72858446D01*
X195528522Y-72978894D01*
X195524895Y-72994149D01*
X195519369Y-73045014D01*
X195519000Y-73051828D01*
X195519000Y-73674385D01*
X195523475Y-73689624D01*
X195524865Y-73690829D01*
X195532548Y-73692500D01*
X197005000Y-73692500D01*
X197073121Y-73712502D01*
X197119614Y-73766158D01*
X197131000Y-73818500D01*
X197131000Y-74074500D01*
X197110998Y-74142621D01*
X197057342Y-74189114D01*
X197005000Y-74200500D01*
X195537116Y-74200500D01*
X195521877Y-74204975D01*
X195520672Y-74206365D01*
X195519001Y-74214048D01*
X195519001Y-74841169D01*
X195519371Y-74847990D01*
X195524895Y-74898852D01*
X195525965Y-74903353D01*
X195522264Y-74974253D01*
X195480819Y-75031897D01*
X195414788Y-75057983D01*
X195403383Y-75058500D01*
X181684662Y-75058500D01*
X181616541Y-75038498D01*
X181595567Y-75021595D01*
X177907642Y-71333670D01*
X188463160Y-71333670D01*
X188468887Y-71341320D01*
X188640042Y-71446205D01*
X188648837Y-71450687D01*
X188858988Y-71537734D01*
X188868373Y-71540783D01*
X189089554Y-71593885D01*
X189099301Y-71595428D01*
X189326070Y-71613275D01*
X189335930Y-71613275D01*
X189562699Y-71595428D01*
X189572446Y-71593885D01*
X189793627Y-71540783D01*
X189803012Y-71537734D01*
X190013163Y-71450687D01*
X190021958Y-71446205D01*
X190189445Y-71343568D01*
X190198907Y-71333110D01*
X190195124Y-71324334D01*
X189343812Y-70473022D01*
X189329868Y-70465408D01*
X189328035Y-70465539D01*
X189321420Y-70469790D01*
X188469920Y-71321290D01*
X188463160Y-71333670D01*
X177907642Y-71333670D01*
X176679902Y-70105930D01*
X187818725Y-70105930D01*
X187836572Y-70332699D01*
X187838115Y-70342446D01*
X187891217Y-70563627D01*
X187894266Y-70573012D01*
X187981313Y-70783163D01*
X187985795Y-70791958D01*
X188088432Y-70959445D01*
X188098890Y-70968907D01*
X188107666Y-70965124D01*
X188958978Y-70113812D01*
X188965356Y-70102132D01*
X189695408Y-70102132D01*
X189695539Y-70103965D01*
X189699790Y-70110580D01*
X190551290Y-70962080D01*
X190563670Y-70968840D01*
X190571320Y-70963113D01*
X190676205Y-70791958D01*
X190680687Y-70783163D01*
X190767734Y-70573012D01*
X190770783Y-70563627D01*
X190823885Y-70342446D01*
X190825428Y-70332699D01*
X190843275Y-70105930D01*
X190843275Y-70096070D01*
X190825428Y-69869301D01*
X190823885Y-69859554D01*
X190770783Y-69638373D01*
X190767734Y-69628988D01*
X190680687Y-69418837D01*
X190676205Y-69410042D01*
X190573568Y-69242555D01*
X190563110Y-69233093D01*
X190554334Y-69236876D01*
X189703022Y-70088188D01*
X189695408Y-70102132D01*
X188965356Y-70102132D01*
X188966592Y-70099868D01*
X188966461Y-70098035D01*
X188962210Y-70091420D01*
X188110710Y-69239920D01*
X188098330Y-69233160D01*
X188090680Y-69238887D01*
X187985795Y-69410042D01*
X187981313Y-69418837D01*
X187894266Y-69628988D01*
X187891217Y-69638373D01*
X187838115Y-69859554D01*
X187836572Y-69869301D01*
X187818725Y-70096070D01*
X187818725Y-70105930D01*
X176679902Y-70105930D01*
X175442862Y-68868890D01*
X188463093Y-68868890D01*
X188466876Y-68877666D01*
X189318188Y-69728978D01*
X189332132Y-69736592D01*
X189333965Y-69736461D01*
X189340580Y-69732210D01*
X190192080Y-68880710D01*
X190198840Y-68868330D01*
X190193113Y-68860680D01*
X190021958Y-68755795D01*
X190013163Y-68751313D01*
X189803012Y-68664266D01*
X189793627Y-68661217D01*
X189572446Y-68608115D01*
X189562699Y-68606572D01*
X189335930Y-68588725D01*
X189326070Y-68588725D01*
X189099301Y-68606572D01*
X189089554Y-68608115D01*
X188868373Y-68661217D01*
X188858988Y-68664266D01*
X188648837Y-68751313D01*
X188640042Y-68755795D01*
X188472555Y-68858432D01*
X188463093Y-68868890D01*
X175442862Y-68868890D01*
X170669720Y-64095747D01*
X170662180Y-64087461D01*
X170658068Y-64080982D01*
X170608416Y-64034356D01*
X170605575Y-64031602D01*
X170585838Y-64011865D01*
X170582641Y-64009385D01*
X170573619Y-64001680D01*
X170547168Y-63976841D01*
X170541389Y-63971414D01*
X170534443Y-63967595D01*
X170534440Y-63967593D01*
X170523634Y-63961652D01*
X170507115Y-63950801D01*
X170502203Y-63946991D01*
X170491109Y-63938386D01*
X170483840Y-63935241D01*
X170483836Y-63935238D01*
X170450531Y-63920826D01*
X170439881Y-63915609D01*
X170401128Y-63894305D01*
X170381505Y-63889267D01*
X170362802Y-63882863D01*
X170351488Y-63877967D01*
X170351487Y-63877967D01*
X170344213Y-63874819D01*
X170336390Y-63873580D01*
X170336380Y-63873577D01*
X170300544Y-63867901D01*
X170288924Y-63865495D01*
X170253779Y-63856472D01*
X170253778Y-63856472D01*
X170246098Y-63854500D01*
X170225844Y-63854500D01*
X170206133Y-63852949D01*
X170193954Y-63851020D01*
X170186125Y-63849780D01*
X170178233Y-63850526D01*
X170142107Y-63853941D01*
X170130249Y-63854500D01*
X133396662Y-63854500D01*
X133328541Y-63834498D01*
X133307567Y-63817595D01*
X125649107Y-56159134D01*
X187822500Y-56159134D01*
X187829255Y-56221316D01*
X187880385Y-56357705D01*
X187967739Y-56474261D01*
X188084295Y-56561615D01*
X188220684Y-56612745D01*
X188282866Y-56619500D01*
X190379134Y-56619500D01*
X190441316Y-56612745D01*
X190577705Y-56561615D01*
X190694261Y-56474261D01*
X190781615Y-56357705D01*
X190832745Y-56221316D01*
X190839500Y-56159134D01*
X190839500Y-54062866D01*
X190832745Y-54000684D01*
X190781615Y-53864295D01*
X190694261Y-53747739D01*
X190577705Y-53660385D01*
X190441316Y-53609255D01*
X190379134Y-53602500D01*
X188282866Y-53602500D01*
X188220684Y-53609255D01*
X188084295Y-53660385D01*
X187967739Y-53747739D01*
X187880385Y-53864295D01*
X187829255Y-54000684D01*
X187822500Y-54062866D01*
X187822500Y-56159134D01*
X125649107Y-56159134D01*
X124620720Y-55130747D01*
X124613180Y-55122461D01*
X124609068Y-55115982D01*
X124559416Y-55069356D01*
X124556575Y-55066602D01*
X124536838Y-55046865D01*
X124533641Y-55044385D01*
X124524619Y-55036680D01*
X124498168Y-55011841D01*
X124492389Y-55006414D01*
X124485443Y-55002595D01*
X124485440Y-55002593D01*
X124474634Y-54996652D01*
X124458115Y-54985801D01*
X124457651Y-54985441D01*
X124442109Y-54973386D01*
X124434840Y-54970241D01*
X124434836Y-54970238D01*
X124401531Y-54955826D01*
X124390881Y-54950609D01*
X124352128Y-54929305D01*
X124332505Y-54924267D01*
X124313802Y-54917863D01*
X124302488Y-54912967D01*
X124302487Y-54912967D01*
X124295213Y-54909819D01*
X124287390Y-54908580D01*
X124287380Y-54908577D01*
X124251544Y-54902901D01*
X124239924Y-54900495D01*
X124204779Y-54891472D01*
X124204778Y-54891472D01*
X124197098Y-54889500D01*
X124176844Y-54889500D01*
X124157133Y-54887949D01*
X124144954Y-54886020D01*
X124137125Y-54884780D01*
X124129233Y-54885526D01*
X124093107Y-54888941D01*
X124081249Y-54889500D01*
X122893594Y-54889500D01*
X122825473Y-54869498D01*
X122804499Y-54852595D01*
X114728652Y-46776747D01*
X114721112Y-46768461D01*
X114717000Y-46761982D01*
X114667348Y-46715356D01*
X114664507Y-46712602D01*
X114644770Y-46692865D01*
X114641573Y-46690385D01*
X114632551Y-46682680D01*
X114606100Y-46657841D01*
X114600321Y-46652414D01*
X114593375Y-46648595D01*
X114593372Y-46648593D01*
X114582566Y-46642652D01*
X114566047Y-46631801D01*
X114565583Y-46631441D01*
X114550041Y-46619386D01*
X114542772Y-46616241D01*
X114542768Y-46616238D01*
X114509463Y-46601826D01*
X114498813Y-46596609D01*
X114460060Y-46575305D01*
X114440437Y-46570267D01*
X114421734Y-46563863D01*
X114410422Y-46558968D01*
X114403145Y-46555819D01*
X114396610Y-46554784D01*
X114337265Y-46516882D01*
X114310550Y-46466712D01*
X114305537Y-46448003D01*
X114305537Y-46448002D01*
X114303829Y-46441629D01*
X114288581Y-46411703D01*
X114275477Y-46341926D01*
X114302177Y-46276141D01*
X114360205Y-46235235D01*
X114400848Y-46228500D01*
X191390000Y-46228500D01*
X191458121Y-46248502D01*
X191504614Y-46302158D01*
X191516000Y-46354500D01*
X191516000Y-68580000D01*
X215265500Y-68580000D01*
X215333621Y-68600002D01*
X215380114Y-68653658D01*
X215391500Y-68706000D01*
X215391500Y-110227183D01*
X215371498Y-110295304D01*
X215354595Y-110316278D01*
X210646278Y-115024595D01*
X210583966Y-115058621D01*
X210557183Y-115061500D01*
X94242817Y-115061500D01*
X94174696Y-115041498D01*
X94153722Y-115024595D01*
X89445405Y-110316278D01*
X89411379Y-110253966D01*
X89408500Y-110227183D01*
X89408500Y-108667969D01*
X150428266Y-108667969D01*
X150433993Y-108675619D01*
X150605013Y-108780420D01*
X150613807Y-108784901D01*
X150823882Y-108871917D01*
X150833267Y-108874966D01*
X151054369Y-108928049D01*
X151064116Y-108929592D01*
X151290805Y-108947433D01*
X151300665Y-108947433D01*
X151527354Y-108929592D01*
X151537101Y-108928049D01*
X151758203Y-108874966D01*
X151767588Y-108871917D01*
X151977663Y-108784901D01*
X151986457Y-108780420D01*
X152153811Y-108677866D01*
X152163271Y-108667410D01*
X152159487Y-108658632D01*
X151308547Y-107807692D01*
X151294603Y-107800078D01*
X151292770Y-107800209D01*
X151286155Y-107804460D01*
X150435026Y-108655589D01*
X150428266Y-108667969D01*
X89408500Y-108667969D01*
X89408500Y-107440600D01*
X149783972Y-107440600D01*
X149801813Y-107667289D01*
X149803356Y-107677036D01*
X149856439Y-107898138D01*
X149859488Y-107907523D01*
X149946504Y-108117598D01*
X149950985Y-108126392D01*
X150053539Y-108293746D01*
X150063995Y-108303206D01*
X150072773Y-108299422D01*
X150923713Y-107448482D01*
X150931327Y-107434538D01*
X150931196Y-107432705D01*
X150926945Y-107426090D01*
X150075816Y-106574961D01*
X150063436Y-106568201D01*
X150055786Y-106573928D01*
X149950985Y-106744948D01*
X149946504Y-106753742D01*
X149859488Y-106963817D01*
X149856439Y-106973202D01*
X149803356Y-107194304D01*
X149801813Y-107204051D01*
X149783972Y-107430740D01*
X149783972Y-107440600D01*
X89408500Y-107440600D01*
X89408500Y-99192703D01*
X99490743Y-99192703D01*
X99491302Y-99196947D01*
X99491302Y-99196951D01*
X99500924Y-99270038D01*
X99528268Y-99477734D01*
X99604129Y-99755036D01*
X99611267Y-99771770D01*
X99712425Y-100008930D01*
X99716923Y-100019476D01*
X99759282Y-100090252D01*
X99846377Y-100235777D01*
X99864561Y-100266161D01*
X100044313Y-100490528D01*
X100131815Y-100573564D01*
X100237191Y-100673562D01*
X100252851Y-100688423D01*
X100486317Y-100856186D01*
X100490112Y-100858195D01*
X100490113Y-100858196D01*
X100511869Y-100869715D01*
X100740392Y-100990712D01*
X100764699Y-100999607D01*
X100976669Y-101077177D01*
X101010373Y-101089511D01*
X101291264Y-101150755D01*
X101319841Y-101153004D01*
X101514282Y-101168307D01*
X101514291Y-101168307D01*
X101516739Y-101168500D01*
X101672271Y-101168500D01*
X101674407Y-101168354D01*
X101674418Y-101168354D01*
X101882548Y-101154165D01*
X101882554Y-101154164D01*
X101886825Y-101153873D01*
X101891020Y-101153004D01*
X101891022Y-101153004D01*
X102027583Y-101124724D01*
X102168342Y-101095574D01*
X102439343Y-100999607D01*
X102575336Y-100929416D01*
X102691005Y-100869715D01*
X102691006Y-100869715D01*
X102694812Y-100867750D01*
X102698313Y-100865289D01*
X102698317Y-100865287D01*
X102812417Y-100785096D01*
X102930023Y-100702441D01*
X103040745Y-100599552D01*
X103137479Y-100509661D01*
X103137481Y-100509658D01*
X103140622Y-100506740D01*
X103322713Y-100284268D01*
X103472927Y-100039142D01*
X103474715Y-100035070D01*
X103586757Y-99779830D01*
X103588483Y-99775898D01*
X103667244Y-99499406D01*
X103706107Y-99226335D01*
X103707146Y-99219036D01*
X103707146Y-99219034D01*
X103707751Y-99214784D01*
X103707845Y-99196951D01*
X103709235Y-98931583D01*
X103709235Y-98931576D01*
X103709257Y-98927297D01*
X103704366Y-98890142D01*
X103678248Y-98691760D01*
X103671732Y-98642266D01*
X103595871Y-98364964D01*
X103483077Y-98100524D01*
X103335439Y-97853839D01*
X103155687Y-97629472D01*
X102947149Y-97431577D01*
X102713683Y-97263814D01*
X102691843Y-97252250D01*
X102668654Y-97239972D01*
X102459608Y-97129288D01*
X102249160Y-97052275D01*
X102193658Y-97031964D01*
X102193656Y-97031963D01*
X102189627Y-97030489D01*
X101908736Y-96969245D01*
X101877685Y-96966801D01*
X101685718Y-96951693D01*
X101685709Y-96951693D01*
X101683261Y-96951500D01*
X101527729Y-96951500D01*
X101525593Y-96951646D01*
X101525582Y-96951646D01*
X101317452Y-96965835D01*
X101317446Y-96965836D01*
X101313175Y-96966127D01*
X101308980Y-96966996D01*
X101308978Y-96966996D01*
X101261955Y-96976734D01*
X101031658Y-97024426D01*
X100760657Y-97120393D01*
X100505188Y-97252250D01*
X100501687Y-97254711D01*
X100501683Y-97254713D01*
X100387582Y-97334905D01*
X100269977Y-97417559D01*
X100059378Y-97613260D01*
X99877287Y-97835732D01*
X99727073Y-98080858D01*
X99611517Y-98344102D01*
X99610342Y-98348229D01*
X99610341Y-98348230D01*
X99605574Y-98364964D01*
X99532756Y-98620594D01*
X99518202Y-98722856D01*
X99495993Y-98878912D01*
X99492249Y-98905216D01*
X99492227Y-98909505D01*
X99492226Y-98909512D01*
X99490765Y-99188417D01*
X99490743Y-99192703D01*
X89408500Y-99192703D01*
X89408500Y-89844000D01*
X98816835Y-89844000D01*
X98835465Y-90080711D01*
X98890895Y-90311594D01*
X98892788Y-90316165D01*
X98892789Y-90316167D01*
X98978833Y-90523896D01*
X98981760Y-90530963D01*
X98984346Y-90535183D01*
X99103241Y-90729202D01*
X99103245Y-90729208D01*
X99105824Y-90733416D01*
X99260031Y-90913969D01*
X99440584Y-91068176D01*
X99444792Y-91070755D01*
X99444798Y-91070759D01*
X99638817Y-91189654D01*
X99643037Y-91192240D01*
X99647607Y-91194133D01*
X99647611Y-91194135D01*
X99849106Y-91277596D01*
X99862406Y-91283105D01*
X99942609Y-91302360D01*
X100088476Y-91337380D01*
X100088482Y-91337381D01*
X100093289Y-91338535D01*
X100330000Y-91357165D01*
X100566711Y-91338535D01*
X100571518Y-91337381D01*
X100571524Y-91337380D01*
X100717391Y-91302360D01*
X100797594Y-91283105D01*
X100810894Y-91277596D01*
X101012389Y-91194135D01*
X101012393Y-91194133D01*
X101016963Y-91192240D01*
X101021183Y-91189654D01*
X101215202Y-91070759D01*
X101215208Y-91070755D01*
X101219416Y-91068176D01*
X101399969Y-90913969D01*
X101554176Y-90733416D01*
X101556755Y-90729208D01*
X101556759Y-90729202D01*
X101675654Y-90535183D01*
X101678240Y-90530963D01*
X101681168Y-90523896D01*
X101767211Y-90316167D01*
X101767212Y-90316165D01*
X101769105Y-90311594D01*
X101824535Y-90080711D01*
X101843165Y-89844000D01*
X101824535Y-89607289D01*
X101769105Y-89376406D01*
X101748994Y-89327853D01*
X101680135Y-89161611D01*
X101680133Y-89161607D01*
X101678240Y-89157037D01*
X101667977Y-89140290D01*
X101556759Y-88958798D01*
X101556755Y-88958792D01*
X101554176Y-88954584D01*
X101399969Y-88774031D01*
X101219416Y-88619824D01*
X101215208Y-88617245D01*
X101215202Y-88617241D01*
X101021183Y-88498346D01*
X101016963Y-88495760D01*
X101012393Y-88493867D01*
X101012389Y-88493865D01*
X100802167Y-88406789D01*
X100802165Y-88406788D01*
X100797594Y-88404895D01*
X100704841Y-88382627D01*
X100571524Y-88350620D01*
X100571518Y-88350619D01*
X100566711Y-88349465D01*
X100330000Y-88330835D01*
X100093289Y-88349465D01*
X100088482Y-88350619D01*
X100088476Y-88350620D01*
X99955159Y-88382627D01*
X99862406Y-88404895D01*
X99857835Y-88406788D01*
X99857833Y-88406789D01*
X99647611Y-88493865D01*
X99647607Y-88493867D01*
X99643037Y-88495760D01*
X99638817Y-88498346D01*
X99444798Y-88617241D01*
X99444792Y-88617245D01*
X99440584Y-88619824D01*
X99260031Y-88774031D01*
X99105824Y-88954584D01*
X99103245Y-88958792D01*
X99103241Y-88958798D01*
X98992023Y-89140290D01*
X98981760Y-89157037D01*
X98979867Y-89161607D01*
X98979865Y-89161611D01*
X98911006Y-89327853D01*
X98890895Y-89376406D01*
X98835465Y-89607289D01*
X98816835Y-89844000D01*
X89408500Y-89844000D01*
X89408500Y-86576670D01*
X99462160Y-86576670D01*
X99467887Y-86584320D01*
X99639042Y-86689205D01*
X99647837Y-86693687D01*
X99857988Y-86780734D01*
X99867373Y-86783783D01*
X100088554Y-86836885D01*
X100098301Y-86838428D01*
X100325070Y-86856275D01*
X100334930Y-86856275D01*
X100561699Y-86838428D01*
X100571446Y-86836885D01*
X100792627Y-86783783D01*
X100802012Y-86780734D01*
X101012163Y-86693687D01*
X101020958Y-86689205D01*
X101188445Y-86586568D01*
X101197907Y-86576110D01*
X101194124Y-86567334D01*
X100342812Y-85716022D01*
X100328868Y-85708408D01*
X100327035Y-85708539D01*
X100320420Y-85712790D01*
X99468920Y-86564290D01*
X99462160Y-86576670D01*
X89408500Y-86576670D01*
X89408500Y-85348930D01*
X98817725Y-85348930D01*
X98835572Y-85575699D01*
X98837115Y-85585446D01*
X98890217Y-85806627D01*
X98893266Y-85816012D01*
X98980313Y-86026163D01*
X98984795Y-86034958D01*
X99087432Y-86202445D01*
X99097890Y-86211907D01*
X99106666Y-86208124D01*
X99957978Y-85356812D01*
X99964356Y-85345132D01*
X100694408Y-85345132D01*
X100694539Y-85346965D01*
X100698790Y-85353580D01*
X101550290Y-86205080D01*
X101562670Y-86211840D01*
X101570320Y-86206113D01*
X101675205Y-86034958D01*
X101679687Y-86026163D01*
X101766734Y-85816012D01*
X101769783Y-85806627D01*
X101822885Y-85585446D01*
X101824428Y-85575699D01*
X101842275Y-85348930D01*
X101842275Y-85339070D01*
X101824428Y-85112301D01*
X101822885Y-85102554D01*
X101769783Y-84881373D01*
X101766734Y-84871988D01*
X101679687Y-84661837D01*
X101675205Y-84653042D01*
X101572568Y-84485555D01*
X101562110Y-84476093D01*
X101553334Y-84479876D01*
X100702022Y-85331188D01*
X100694408Y-85345132D01*
X99964356Y-85345132D01*
X99965592Y-85342868D01*
X99965461Y-85341035D01*
X99961210Y-85334420D01*
X99109710Y-84482920D01*
X99097330Y-84476160D01*
X99089680Y-84481887D01*
X98984795Y-84653042D01*
X98980313Y-84661837D01*
X98893266Y-84871988D01*
X98890217Y-84881373D01*
X98837115Y-85102554D01*
X98835572Y-85112301D01*
X98817725Y-85339070D01*
X98817725Y-85348930D01*
X89408500Y-85348930D01*
X89408500Y-84111890D01*
X99462093Y-84111890D01*
X99465876Y-84120666D01*
X100317188Y-84971978D01*
X100331132Y-84979592D01*
X100332965Y-84979461D01*
X100339580Y-84975210D01*
X101191080Y-84123710D01*
X101197840Y-84111330D01*
X101192113Y-84103680D01*
X101020958Y-83998795D01*
X101012163Y-83994313D01*
X100802012Y-83907266D01*
X100792627Y-83904217D01*
X100571446Y-83851115D01*
X100561699Y-83849572D01*
X100334930Y-83831725D01*
X100325070Y-83831725D01*
X100098301Y-83849572D01*
X100088554Y-83851115D01*
X99867373Y-83904217D01*
X99857988Y-83907266D01*
X99647837Y-83994313D01*
X99639042Y-83998795D01*
X99471555Y-84101432D01*
X99462093Y-84111890D01*
X89408500Y-84111890D01*
X89408500Y-51062817D01*
X89428502Y-50994696D01*
X89445405Y-50973722D01*
X94153722Y-46265405D01*
X94216034Y-46231379D01*
X94242817Y-46228500D01*
X94261119Y-46228500D01*
X94329240Y-46248502D01*
G37*
G04 #@! TD.AperFunction*
G04 #@! TA.AperFunction,Conductor*
G36*
X110928012Y-68442972D02*
G01*
X110943420Y-68458902D01*
X111000914Y-68529901D01*
X111000918Y-68529905D01*
X111005069Y-68535031D01*
X111153492Y-68655222D01*
X111323661Y-68741927D01*
X111330034Y-68743635D01*
X111330035Y-68743635D01*
X111375417Y-68755795D01*
X111508139Y-68791358D01*
X111513893Y-68791811D01*
X111513894Y-68791811D01*
X111584996Y-68797407D01*
X111585007Y-68797407D01*
X111587454Y-68797600D01*
X112311506Y-68797600D01*
X112379627Y-68817602D01*
X112400601Y-68834505D01*
X112414595Y-68848499D01*
X112448621Y-68910811D01*
X112451500Y-68937594D01*
X112451500Y-72379609D01*
X112431498Y-72447730D01*
X112377842Y-72494223D01*
X112307568Y-72504327D01*
X112277281Y-72496018D01*
X112232007Y-72477265D01*
X112222627Y-72474217D01*
X112001446Y-72421115D01*
X111991699Y-72419572D01*
X111764930Y-72401725D01*
X111755070Y-72401725D01*
X111528301Y-72419572D01*
X111518554Y-72421115D01*
X111297373Y-72474217D01*
X111287988Y-72477266D01*
X111077837Y-72564313D01*
X111069042Y-72568795D01*
X110901555Y-72671432D01*
X110892093Y-72681890D01*
X110895876Y-72690666D01*
X112030115Y-73824905D01*
X112064141Y-73887217D01*
X112059076Y-73958032D01*
X112030115Y-74003095D01*
X110898920Y-75134290D01*
X110892160Y-75146670D01*
X110897887Y-75154320D01*
X111069042Y-75259205D01*
X111077837Y-75263687D01*
X111287988Y-75350734D01*
X111297373Y-75353783D01*
X111518554Y-75406885D01*
X111528301Y-75408428D01*
X111755070Y-75426275D01*
X111764930Y-75426275D01*
X111991699Y-75408428D01*
X112001446Y-75406885D01*
X112222627Y-75353783D01*
X112232007Y-75350735D01*
X112277281Y-75331982D01*
X112347871Y-75324393D01*
X112411358Y-75356172D01*
X112447586Y-75417230D01*
X112451500Y-75448391D01*
X112451500Y-76879067D01*
X112431498Y-76947188D01*
X112377842Y-76993681D01*
X112307568Y-77003785D01*
X112277283Y-76995476D01*
X112232172Y-76976791D01*
X112232169Y-76976790D01*
X112227594Y-76974895D01*
X112112186Y-76947188D01*
X112001524Y-76920620D01*
X112001518Y-76920619D01*
X111996711Y-76919465D01*
X111760000Y-76900835D01*
X111523289Y-76919465D01*
X111518482Y-76920619D01*
X111518476Y-76920620D01*
X111300049Y-76973060D01*
X111229141Y-76969513D01*
X111181540Y-76939636D01*
X110081405Y-75839500D01*
X110047379Y-75777188D01*
X110044500Y-75750405D01*
X110044500Y-74292755D01*
X110064502Y-74224634D01*
X110118158Y-74178141D01*
X110188432Y-74168037D01*
X110253012Y-74197531D01*
X110293019Y-74263341D01*
X110320217Y-74376627D01*
X110323266Y-74386012D01*
X110410313Y-74596163D01*
X110414795Y-74604958D01*
X110517432Y-74772445D01*
X110527890Y-74781907D01*
X110536666Y-74778124D01*
X111387978Y-73926812D01*
X111395592Y-73912868D01*
X111395461Y-73911035D01*
X111391210Y-73904420D01*
X110539710Y-73052920D01*
X110527330Y-73046160D01*
X110519680Y-73051887D01*
X110414795Y-73223042D01*
X110410313Y-73231837D01*
X110323266Y-73441988D01*
X110320217Y-73451373D01*
X110293019Y-73564659D01*
X110257667Y-73626228D01*
X110194640Y-73658911D01*
X110123949Y-73652330D01*
X110068038Y-73608576D01*
X110044500Y-73535245D01*
X110044500Y-70173665D01*
X110064502Y-70105544D01*
X110118158Y-70059051D01*
X110125959Y-70056250D01*
X110125827Y-70055906D01*
X110132003Y-70053535D01*
X110138371Y-70051829D01*
X110144244Y-70048836D01*
X110144248Y-70048835D01*
X110302649Y-69968126D01*
X110302653Y-69968124D01*
X110308530Y-69965129D01*
X110313659Y-69960976D01*
X110313663Y-69960973D01*
X110451814Y-69849100D01*
X110456945Y-69844945D01*
X110501921Y-69789404D01*
X110572973Y-69701663D01*
X110572976Y-69701659D01*
X110577129Y-69696530D01*
X110580192Y-69690520D01*
X110660833Y-69532251D01*
X110663829Y-69526371D01*
X110686567Y-69441513D01*
X110711763Y-69347481D01*
X110711764Y-69347477D01*
X110713257Y-69341904D01*
X110718845Y-69270908D01*
X110719307Y-69265037D01*
X110719307Y-69265030D01*
X110719500Y-69262581D01*
X110719500Y-68538196D01*
X110739502Y-68470075D01*
X110793158Y-68423582D01*
X110863432Y-68413478D01*
X110928012Y-68442972D01*
G37*
G04 #@! TD.AperFunction*
M02*
