M48
; DRILL file {KiCad (6.0.9)} date Sat 26 Nov 2022 11:56:54 PM EST
; FORMAT={-:-/ absolute / metric / decimal}
; #@! TF.CreationDate,2022-11-26T23:56:54-05:00
; #@! TF.GenerationSoftware,Kicad,Pcbnew,(6.0.9)
; #@! TF.FileFunction,Plated,1,2,PTH
FMAT,2
METRIC
; #@! TA.AperFunction,Plated,PTH,ViaDrill
T1C0.400
; #@! TA.AperFunction,Plated,PTH,ComponentDrill
T2C0.800
; #@! TA.AperFunction,Plated,PTH,ComponentDrill
T3C1.000
; #@! TA.AperFunction,Plated,PTH,ComponentDrill
T4C1.001
; #@! TA.AperFunction,Plated,PTH,ComponentDrill
T5C1.020
; #@! TA.AperFunction,Plated,PTH,ComponentDrill
T6C1.100
; #@! TA.AperFunction,Plated,PTH,ComponentDrill
T7C1.501
%
G90
G05
T1
X96.774Y-92.71
X97.79Y-91.948
X98.298Y-89.154
X98.298Y-90.678
X106.172Y-93.472
X106.934Y-92.71
X107.696Y-91.694
X108.712Y-90.932
X141.732Y-96.774
T2
X93.218Y-73.914
X93.218Y-76.454
X93.218Y-78.994
X93.218Y-81.534
X93.218Y-84.074
X96.711Y-47.169
X96.711Y-49.709
X96.711Y-52.249
X96.711Y-54.789
X96.711Y-57.329
X96.711Y-59.869
X96.711Y-62.409
X96.711Y-64.949
X96.711Y-67.489
X99.251Y-67.699
X100.838Y-73.914
X100.838Y-76.454
X100.838Y-78.994
X100.838Y-81.534
X100.838Y-84.074
X101.791Y-67.699
X104.331Y-67.699
X106.871Y-67.699
X109.411Y-67.699
X111.951Y-47.169
X111.951Y-49.709
X111.951Y-52.249
X111.951Y-54.789
X111.951Y-57.329
X111.951Y-59.869
X111.951Y-62.409
X111.951Y-64.949
X111.951Y-67.489
T3
X196.877Y-71.406
X196.877Y-73.947
X199.417Y-71.406
X199.417Y-73.947
X201.957Y-71.406
X201.957Y-73.947
X204.497Y-71.406
X204.497Y-73.947
X213.106Y-73.421
X213.106Y-75.961
X213.106Y-78.501
T4
X144.044Y-96.206
X144.044Y-98.706
X144.044Y-101.205
X150.544Y-86.056
X150.544Y-90.456
X151.296Y-108.457
X153.795Y-108.457
X156.294Y-108.457
X157.046Y-86.056
X157.046Y-90.456
T5
X189.331Y-55.111
X189.331Y-70.101
T6
X100.89Y-95.54
X100.89Y-100.04
X107.39Y-95.54
X107.39Y-100.04
X112.32Y-84.11
X112.32Y-88.61
X112.32Y-105.7
X112.32Y-110.2
X118.82Y-84.11
X118.82Y-88.61
X118.82Y-105.7
X118.82Y-110.2
X123.75Y-95.54
X123.75Y-100.04
X130.25Y-95.54
X130.25Y-100.04
X173.28Y-101.89
X173.28Y-106.39
X179.78Y-101.89
X179.78Y-106.39
X188.52Y-93.0
X188.52Y-97.5
X195.02Y-93.0
X195.02Y-97.5
X202.49Y-84.11
X202.49Y-88.61
X208.99Y-84.11
X208.99Y-88.61
T7
X146.046Y-92.056
X146.046Y-105.355
X161.545Y-92.056
X161.545Y-105.355
T0
M30
