%TF.GenerationSoftware,KiCad,Pcbnew,(6.0.9)*%
%TF.CreationDate,2022-11-26T23:56:03-05:00*%
%TF.ProjectId,rf_controller_hw,72665f63-6f6e-4747-926f-6c6c65725f68,rev?*%
%TF.SameCoordinates,Original*%
%TF.FileFunction,Copper,L2,Bot*%
%TF.FilePolarity,Positive*%
%FSLAX46Y46*%
G04 Gerber Fmt 4.6, Leading zero omitted, Abs format (unit mm)*
G04 Created by KiCad (PCBNEW (6.0.9)) date 2022-11-26 23:56:03*
%MOMM*%
%LPD*%
G01*
G04 APERTURE LIST*
G04 Aperture macros list*
%AMRoundRect*
0 Rectangle with rounded corners*
0 $1 Rounding radius*
0 $2 $3 $4 $5 $6 $7 $8 $9 X,Y pos of 4 corners*
0 Add a 4 corners polygon primitive as box body*
4,1,4,$2,$3,$4,$5,$6,$7,$8,$9,$2,$3,0*
0 Add four circle primitives for the rounded corners*
1,1,$1+$1,$2,$3*
1,1,$1+$1,$4,$5*
1,1,$1+$1,$6,$7*
1,1,$1+$1,$8,$9*
0 Add four rect primitives between the rounded corners*
20,1,$1+$1,$2,$3,$4,$5,0*
20,1,$1+$1,$4,$5,$6,$7,0*
20,1,$1+$1,$6,$7,$8,$9,0*
20,1,$1+$1,$8,$9,$2,$3,0*%
G04 Aperture macros list end*
%TA.AperFunction,ComponentPad*%
%ADD10R,1.700000X1.700000*%
%TD*%
%TA.AperFunction,ComponentPad*%
%ADD11O,1.700000X1.700000*%
%TD*%
%TA.AperFunction,ComponentPad*%
%ADD12C,2.000000*%
%TD*%
%TA.AperFunction,ComponentPad*%
%ADD13RoundRect,0.400000X-0.900000X-0.400000X0.900000X-0.400000X0.900000X0.400000X-0.900000X0.400000X0*%
%TD*%
%TA.AperFunction,ComponentPad*%
%ADD14RoundRect,0.400050X-0.899950X-0.400050X0.899950X-0.400050X0.899950X0.400050X-0.899950X0.400050X0*%
%TD*%
%TA.AperFunction,ComponentPad*%
%ADD15RoundRect,0.400000X-0.400000X-0.900000X0.400000X-0.900000X0.400000X0.900000X-0.400000X0.900000X0*%
%TD*%
%TA.AperFunction,ComponentPad*%
%ADD16RoundRect,0.393700X-0.393700X-0.906300X0.393700X-0.906300X0.393700X0.906300X-0.393700X0.906300X0*%
%TD*%
%TA.AperFunction,ComponentPad*%
%ADD17O,1.600000X1.600000*%
%TD*%
%TA.AperFunction,ComponentPad*%
%ADD18R,1.600000X1.600000*%
%TD*%
%TA.AperFunction,ComponentPad*%
%ADD19C,2.517140*%
%TD*%
%TA.AperFunction,ComponentPad*%
%ADD20C,1.998980*%
%TD*%
%TA.AperFunction,ComponentPad*%
%ADD21R,2.000000X2.000000*%
%TD*%
%TA.AperFunction,ViaPad*%
%ADD22C,0.800000*%
%TD*%
%TA.AperFunction,Conductor*%
%ADD23C,0.250000*%
%TD*%
G04 APERTURE END LIST*
D10*
X213106000Y-73421000D03*
D11*
X213106000Y-75961000D03*
X213106000Y-78501000D03*
D12*
X202490000Y-84110000D03*
X208990000Y-84110000D03*
X202490000Y-88610000D03*
X208990000Y-88610000D03*
X188520000Y-93000000D03*
X195020000Y-93000000D03*
X188520000Y-97500000D03*
X195020000Y-97500000D03*
X173280000Y-101890000D03*
X179780000Y-101890000D03*
X173280000Y-106390000D03*
X179780000Y-106390000D03*
X112320000Y-105700000D03*
X118820000Y-105700000D03*
X112320000Y-110200000D03*
X118820000Y-110200000D03*
X123750000Y-95540000D03*
X130250000Y-95540000D03*
X123750000Y-100040000D03*
X130250000Y-100040000D03*
X100890000Y-95540000D03*
X107390000Y-95540000D03*
X100890000Y-100040000D03*
X107390000Y-100040000D03*
X118820000Y-88610000D03*
X112320000Y-88610000D03*
X118820000Y-84110000D03*
X112320000Y-84110000D03*
D13*
X112551000Y-47169000D03*
X112551000Y-49709000D03*
X112551000Y-52249000D03*
X112551000Y-54789000D03*
X112551000Y-57329000D03*
D14*
X112551000Y-59869000D03*
X112551000Y-62409000D03*
X112551000Y-64949000D03*
X112551000Y-67489000D03*
D15*
X109411000Y-68299000D03*
D16*
X106871000Y-68299000D03*
X104331000Y-68299000D03*
X101791000Y-68299000D03*
X99251000Y-68299000D03*
D14*
X96111000Y-67489000D03*
X96111000Y-64949000D03*
X96111000Y-62409000D03*
X96111000Y-59869000D03*
X96111000Y-47169000D03*
X96111000Y-49709000D03*
X96111000Y-52249000D03*
X96111000Y-57329000D03*
X96111000Y-54789000D03*
D17*
X93218000Y-73914000D03*
X93218000Y-76454000D03*
X93218000Y-78994000D03*
X93218000Y-81534000D03*
X93218000Y-84074000D03*
X100838000Y-84074000D03*
X100838000Y-81534000D03*
X100838000Y-78994000D03*
X100838000Y-76454000D03*
D18*
X100838000Y-73914000D03*
D10*
X196877000Y-73946500D03*
D11*
X196877000Y-71406500D03*
X199417000Y-73946500D03*
X199417000Y-71406500D03*
X201957000Y-73946500D03*
X201957000Y-71406500D03*
X204497000Y-73946500D03*
X204497000Y-71406500D03*
D19*
X161544635Y-92055950D03*
D20*
X150543895Y-90455750D03*
D19*
X146045555Y-105355390D03*
D20*
X150543895Y-86056470D03*
D19*
X161544635Y-105355390D03*
X146045555Y-92055950D03*
D20*
X157046295Y-90455750D03*
X157046295Y-86056470D03*
X144044035Y-101205030D03*
X144044035Y-98705670D03*
X144044035Y-96206310D03*
X156294455Y-108456730D03*
X153795095Y-108456730D03*
X151295735Y-108456730D03*
D21*
X189331000Y-55111000D03*
D12*
X189331000Y-70101000D03*
D22*
X108712000Y-90932000D03*
X98298000Y-89154000D03*
X141732000Y-96774000D03*
X98298000Y-90678000D03*
X107696000Y-91694000D03*
X96774000Y-92710000D03*
X106172000Y-93472000D03*
X106934000Y-92710000D03*
X97790000Y-91948000D03*
D23*
X181102000Y-81788000D02*
X186182000Y-81788000D01*
X196563500Y-71406500D02*
X196877000Y-71406500D01*
X186182000Y-81788000D02*
X203708000Y-81788000D01*
X186182000Y-81788000D02*
X196563500Y-71406500D01*
X189331000Y-55111000D02*
X189331000Y-67157000D01*
X189331000Y-67157000D02*
X191262000Y-69088000D01*
X191262000Y-69088000D02*
X208280000Y-69088000D01*
X208280000Y-69088000D02*
X212613000Y-73421000D01*
X212613000Y-73421000D02*
X213106000Y-73421000D01*
X209535000Y-75961000D02*
X213106000Y-75961000D01*
X161684970Y-101205030D02*
X175895000Y-86995000D01*
X203708000Y-81788000D02*
X209535000Y-75961000D01*
X175895000Y-86995000D02*
X181102000Y-81788000D01*
X173280000Y-106390000D02*
X179780000Y-106390000D01*
X202490000Y-88610000D02*
X208990000Y-88610000D01*
X188520000Y-97500000D02*
X195020000Y-97500000D01*
X112320000Y-110200000D02*
X118820000Y-110200000D01*
X112320000Y-88610000D02*
X118820000Y-88610000D01*
X100890000Y-100040000D02*
X107390000Y-100040000D01*
X123750000Y-100040000D02*
X130250000Y-100040000D01*
X144044035Y-101205030D02*
X161684970Y-101205030D01*
X108712000Y-90932000D02*
X108204000Y-90932000D01*
X107188000Y-89916000D02*
X100584000Y-89916000D01*
X108204000Y-90932000D02*
X107188000Y-89916000D01*
X99060000Y-89916000D02*
X98298000Y-89154000D01*
X100584000Y-89916000D02*
X99060000Y-89916000D01*
X144044035Y-101205030D02*
X149042755Y-101205030D01*
X149042755Y-101205030D02*
X156294455Y-108456730D01*
X141732000Y-96774000D02*
X141732000Y-98892995D01*
X98298000Y-90678000D02*
X106680000Y-90678000D01*
X141732000Y-98892995D02*
X144044035Y-101205030D01*
X106680000Y-90678000D02*
X107696000Y-91694000D01*
X96774000Y-92710000D02*
X105410000Y-92710000D01*
X105410000Y-92710000D02*
X106172000Y-93472000D01*
X106172000Y-91948000D02*
X106934000Y-92710000D01*
X97790000Y-91948000D02*
X106172000Y-91948000D01*
%TA.AperFunction,Conductor*%
G36*
X94329240Y-46248502D02*
G01*
X94375733Y-46302158D01*
X94385837Y-46372432D01*
X94373386Y-46411702D01*
X94361171Y-46435677D01*
X94358173Y-46441561D01*
X94308742Y-46626039D01*
X94308289Y-46631793D01*
X94308289Y-46631794D01*
X94304495Y-46680007D01*
X94302500Y-46705354D01*
X94302500Y-47632646D01*
X94302693Y-47635093D01*
X94302693Y-47635104D01*
X94308289Y-47706206D01*
X94308742Y-47711961D01*
X94358173Y-47896439D01*
X94444878Y-48066608D01*
X94449031Y-48071737D01*
X94449032Y-48071738D01*
X94537412Y-48180878D01*
X94565069Y-48215031D01*
X94713414Y-48335159D01*
X94713415Y-48335160D01*
X94713492Y-48335222D01*
X94713481Y-48335236D01*
X94758080Y-48387207D01*
X94767847Y-48457528D01*
X94738045Y-48521967D01*
X94714794Y-48542114D01*
X94713492Y-48542778D01*
X94565069Y-48662969D01*
X94560919Y-48668094D01*
X94560918Y-48668095D01*
X94529421Y-48706991D01*
X94444878Y-48811392D01*
X94358173Y-48981561D01*
X94308742Y-49166039D01*
X94308289Y-49171793D01*
X94308289Y-49171794D01*
X94304495Y-49220007D01*
X94302500Y-49245354D01*
X94302500Y-50172646D01*
X94302693Y-50175093D01*
X94302693Y-50175104D01*
X94308289Y-50246206D01*
X94308742Y-50251961D01*
X94358173Y-50436439D01*
X94444878Y-50606608D01*
X94449031Y-50611737D01*
X94449032Y-50611738D01*
X94537412Y-50720878D01*
X94565069Y-50755031D01*
X94713414Y-50875159D01*
X94713415Y-50875160D01*
X94713492Y-50875222D01*
X94713481Y-50875236D01*
X94758080Y-50927207D01*
X94767847Y-50997528D01*
X94738045Y-51061967D01*
X94714794Y-51082114D01*
X94713492Y-51082778D01*
X94565069Y-51202969D01*
X94560919Y-51208094D01*
X94560918Y-51208095D01*
X94529421Y-51246991D01*
X94444878Y-51351392D01*
X94358173Y-51521561D01*
X94308742Y-51706039D01*
X94308289Y-51711793D01*
X94308289Y-51711794D01*
X94304495Y-51760007D01*
X94302500Y-51785354D01*
X94302500Y-52712646D01*
X94302693Y-52715093D01*
X94302693Y-52715104D01*
X94308289Y-52786206D01*
X94308742Y-52791961D01*
X94310236Y-52797536D01*
X94310236Y-52797537D01*
X94356003Y-52968342D01*
X94358173Y-52976439D01*
X94444878Y-53146608D01*
X94449031Y-53151737D01*
X94449032Y-53151738D01*
X94535419Y-53258417D01*
X94565069Y-53295031D01*
X94713492Y-53415222D01*
X94713814Y-53415386D01*
X94758542Y-53467507D01*
X94768309Y-53537828D01*
X94738508Y-53602267D01*
X94712306Y-53624971D01*
X94708635Y-53627355D01*
X94570551Y-53739174D01*
X94561274Y-53748451D01*
X94449454Y-53886536D01*
X94442304Y-53897547D01*
X94361637Y-54055864D01*
X94356936Y-54068110D01*
X94310733Y-54240543D01*
X94308786Y-54251870D01*
X94303193Y-54322935D01*
X94303000Y-54327862D01*
X94303000Y-54516885D01*
X94307475Y-54532124D01*
X94308865Y-54533329D01*
X94316548Y-54535000D01*
X96239000Y-54535000D01*
X96307121Y-54555002D01*
X96353614Y-54608658D01*
X96365000Y-54661000D01*
X96365000Y-54917000D01*
X96344998Y-54985121D01*
X96291342Y-55031614D01*
X96239000Y-55043000D01*
X94321115Y-55043000D01*
X94305876Y-55047475D01*
X94304671Y-55048865D01*
X94303000Y-55056548D01*
X94303000Y-55250139D01*
X94303193Y-55255065D01*
X94308786Y-55326130D01*
X94310733Y-55337457D01*
X94356936Y-55509890D01*
X94361637Y-55522136D01*
X94442304Y-55680453D01*
X94449454Y-55691464D01*
X94561274Y-55829549D01*
X94570551Y-55838826D01*
X94708635Y-55950645D01*
X94712306Y-55953029D01*
X94758541Y-56006906D01*
X94768309Y-56077228D01*
X94738508Y-56141667D01*
X94715076Y-56161971D01*
X94713492Y-56162778D01*
X94565069Y-56282969D01*
X94560919Y-56288094D01*
X94560918Y-56288095D01*
X94529421Y-56326991D01*
X94444878Y-56431392D01*
X94358173Y-56601561D01*
X94356465Y-56607934D01*
X94356465Y-56607935D01*
X94333630Y-56693158D01*
X94308742Y-56786039D01*
X94308289Y-56791793D01*
X94308289Y-56791794D01*
X94304495Y-56840007D01*
X94302500Y-56865354D01*
X94302500Y-57792646D01*
X94302693Y-57795093D01*
X94302693Y-57795104D01*
X94308289Y-57866206D01*
X94308742Y-57871961D01*
X94358173Y-58056439D01*
X94444878Y-58226608D01*
X94449031Y-58231737D01*
X94449032Y-58231738D01*
X94537412Y-58340878D01*
X94565069Y-58375031D01*
X94713414Y-58495159D01*
X94713415Y-58495160D01*
X94713492Y-58495222D01*
X94713481Y-58495236D01*
X94758080Y-58547207D01*
X94767847Y-58617528D01*
X94738045Y-58681967D01*
X94714794Y-58702114D01*
X94713492Y-58702778D01*
X94565069Y-58822969D01*
X94560919Y-58828094D01*
X94560918Y-58828095D01*
X94529421Y-58866991D01*
X94444878Y-58971392D01*
X94358173Y-59141561D01*
X94308742Y-59326039D01*
X94302500Y-59405354D01*
X94302500Y-60332646D01*
X94308742Y-60411961D01*
X94358173Y-60596439D01*
X94444878Y-60766608D01*
X94449031Y-60771737D01*
X94449032Y-60771738D01*
X94537468Y-60880947D01*
X94565069Y-60915031D01*
X94713414Y-61035159D01*
X94713415Y-61035160D01*
X94713492Y-61035222D01*
X94713481Y-61035236D01*
X94758080Y-61087207D01*
X94767847Y-61157528D01*
X94738045Y-61221967D01*
X94714794Y-61242114D01*
X94713492Y-61242778D01*
X94565069Y-61362969D01*
X94560919Y-61368094D01*
X94560918Y-61368095D01*
X94529421Y-61406991D01*
X94444878Y-61511392D01*
X94358173Y-61681561D01*
X94308742Y-61866039D01*
X94302500Y-61945354D01*
X94302500Y-62872646D01*
X94308742Y-62951961D01*
X94358173Y-63136439D01*
X94444878Y-63306608D01*
X94449031Y-63311737D01*
X94449032Y-63311738D01*
X94537468Y-63420947D01*
X94565069Y-63455031D01*
X94713414Y-63575159D01*
X94713415Y-63575160D01*
X94713492Y-63575222D01*
X94713481Y-63575236D01*
X94758080Y-63627207D01*
X94767847Y-63697528D01*
X94738045Y-63761967D01*
X94714794Y-63782114D01*
X94713492Y-63782778D01*
X94565069Y-63902969D01*
X94560919Y-63908094D01*
X94560918Y-63908095D01*
X94529421Y-63946991D01*
X94444878Y-64051392D01*
X94358173Y-64221561D01*
X94308742Y-64406039D01*
X94302500Y-64485354D01*
X94302500Y-65412646D01*
X94308742Y-65491961D01*
X94358173Y-65676439D01*
X94444878Y-65846608D01*
X94449031Y-65851737D01*
X94449032Y-65851738D01*
X94498881Y-65913296D01*
X94565069Y-65995031D01*
X94713414Y-66115159D01*
X94713415Y-66115160D01*
X94713492Y-66115222D01*
X94713481Y-66115236D01*
X94758080Y-66167207D01*
X94767847Y-66237528D01*
X94738045Y-66301967D01*
X94714794Y-66322114D01*
X94713492Y-66322778D01*
X94565069Y-66442969D01*
X94560918Y-66448095D01*
X94479385Y-66548780D01*
X94444878Y-66591392D01*
X94358173Y-66761561D01*
X94356466Y-66767933D01*
X94356465Y-66767935D01*
X94319703Y-66905134D01*
X94308742Y-66946039D01*
X94302500Y-67025354D01*
X94302500Y-67952646D01*
X94302693Y-67955093D01*
X94302693Y-67955104D01*
X94303131Y-67960666D01*
X94308742Y-68031961D01*
X94310236Y-68037536D01*
X94310236Y-68037537D01*
X94356455Y-68210026D01*
X94358173Y-68216439D01*
X94444878Y-68386608D01*
X94449031Y-68391737D01*
X94449032Y-68391738D01*
X94512468Y-68470075D01*
X94565069Y-68535031D01*
X94570195Y-68539182D01*
X94653894Y-68606960D01*
X94713492Y-68655222D01*
X94883661Y-68741927D01*
X94890034Y-68743635D01*
X94890035Y-68743635D01*
X94935417Y-68755795D01*
X95068139Y-68791358D01*
X95073893Y-68791811D01*
X95073894Y-68791811D01*
X95144996Y-68797407D01*
X95145007Y-68797407D01*
X95147454Y-68797600D01*
X97074546Y-68797600D01*
X97076993Y-68797407D01*
X97077004Y-68797407D01*
X97148106Y-68791811D01*
X97148107Y-68791811D01*
X97153861Y-68791358D01*
X97286584Y-68755795D01*
X97331965Y-68743635D01*
X97331966Y-68743635D01*
X97338339Y-68741927D01*
X97508508Y-68655222D01*
X97568107Y-68606960D01*
X97651805Y-68539182D01*
X97656931Y-68535031D01*
X97684845Y-68500560D01*
X97731181Y-68443341D01*
X97789596Y-68402989D01*
X97860553Y-68400625D01*
X97921524Y-68436998D01*
X97953152Y-68500560D01*
X97955101Y-68522632D01*
X97955101Y-69268448D01*
X97961299Y-69347213D01*
X98010384Y-69530401D01*
X98016803Y-69542999D01*
X98093303Y-69693138D01*
X98096483Y-69699380D01*
X98100636Y-69704509D01*
X98100639Y-69704513D01*
X98180537Y-69803178D01*
X98215834Y-69846766D01*
X98220965Y-69850921D01*
X98358087Y-69961961D01*
X98358091Y-69961964D01*
X98363220Y-69966117D01*
X98369098Y-69969112D01*
X98369101Y-69969114D01*
X98446194Y-70008395D01*
X98532199Y-70052216D01*
X98538572Y-70053924D01*
X98538573Y-70053924D01*
X98709810Y-70099807D01*
X98709814Y-70099808D01*
X98715387Y-70101301D01*
X98721143Y-70101754D01*
X98791695Y-70107307D01*
X98791702Y-70107307D01*
X98794151Y-70107500D01*
X99250815Y-70107500D01*
X99707848Y-70107499D01*
X99756795Y-70103647D01*
X99780859Y-70101754D01*
X99780861Y-70101754D01*
X99786613Y-70101301D01*
X99969801Y-70052216D01*
X100055806Y-70008395D01*
X100132899Y-69969114D01*
X100132902Y-69969112D01*
X100138780Y-69966117D01*
X100143909Y-69961964D01*
X100143913Y-69961961D01*
X100281035Y-69850921D01*
X100286166Y-69846766D01*
X100321463Y-69803178D01*
X100401361Y-69704513D01*
X100401364Y-69704509D01*
X100405517Y-69699380D01*
X100408732Y-69693070D01*
X100408924Y-69692866D01*
X100412114Y-69687955D01*
X100413012Y-69688538D01*
X100457480Y-69641454D01*
X100526394Y-69624387D01*
X100593596Y-69647287D01*
X100629214Y-69688391D01*
X100629886Y-69687955D01*
X100633028Y-69692793D01*
X100633268Y-69693070D01*
X100636483Y-69699380D01*
X100640636Y-69704509D01*
X100640639Y-69704513D01*
X100720537Y-69803178D01*
X100755834Y-69846766D01*
X100760965Y-69850921D01*
X100898087Y-69961961D01*
X100898091Y-69961964D01*
X100903220Y-69966117D01*
X100909098Y-69969112D01*
X100909101Y-69969114D01*
X100986194Y-70008395D01*
X101072199Y-70052216D01*
X101078572Y-70053924D01*
X101078573Y-70053924D01*
X101249810Y-70099807D01*
X101249814Y-70099808D01*
X101255387Y-70101301D01*
X101261143Y-70101754D01*
X101331695Y-70107307D01*
X101331702Y-70107307D01*
X101334151Y-70107500D01*
X101790815Y-70107500D01*
X102247848Y-70107499D01*
X102296795Y-70103647D01*
X102320859Y-70101754D01*
X102320861Y-70101754D01*
X102326613Y-70101301D01*
X102509801Y-70052216D01*
X102595806Y-70008395D01*
X102672899Y-69969114D01*
X102672902Y-69969112D01*
X102678780Y-69966117D01*
X102683909Y-69961964D01*
X102683913Y-69961961D01*
X102821035Y-69850921D01*
X102826166Y-69846766D01*
X102861463Y-69803178D01*
X102941361Y-69704513D01*
X102941364Y-69704509D01*
X102945517Y-69699380D01*
X102948732Y-69693070D01*
X102948924Y-69692866D01*
X102952114Y-69687955D01*
X102953012Y-69688538D01*
X102997480Y-69641454D01*
X103066394Y-69624387D01*
X103133596Y-69647287D01*
X103169214Y-69688391D01*
X103169886Y-69687955D01*
X103173028Y-69692793D01*
X103173268Y-69693070D01*
X103176483Y-69699380D01*
X103180636Y-69704509D01*
X103180639Y-69704513D01*
X103260537Y-69803178D01*
X103295834Y-69846766D01*
X103300965Y-69850921D01*
X103438087Y-69961961D01*
X103438091Y-69961964D01*
X103443220Y-69966117D01*
X103449098Y-69969112D01*
X103449101Y-69969114D01*
X103526194Y-70008395D01*
X103612199Y-70052216D01*
X103618572Y-70053924D01*
X103618573Y-70053924D01*
X103789810Y-70099807D01*
X103789814Y-70099808D01*
X103795387Y-70101301D01*
X103801143Y-70101754D01*
X103871695Y-70107307D01*
X103871702Y-70107307D01*
X103874151Y-70107500D01*
X104330815Y-70107500D01*
X104787848Y-70107499D01*
X104836795Y-70103647D01*
X104860859Y-70101754D01*
X104860861Y-70101754D01*
X104866613Y-70101301D01*
X105049801Y-70052216D01*
X105135806Y-70008395D01*
X105212899Y-69969114D01*
X105212902Y-69969112D01*
X105218780Y-69966117D01*
X105223909Y-69961964D01*
X105223913Y-69961961D01*
X105361035Y-69850921D01*
X105366166Y-69846766D01*
X105401463Y-69803178D01*
X105481361Y-69704513D01*
X105481364Y-69704509D01*
X105485517Y-69699380D01*
X105488732Y-69693070D01*
X105488924Y-69692866D01*
X105492114Y-69687955D01*
X105493012Y-69688538D01*
X105537480Y-69641454D01*
X105606394Y-69624387D01*
X105673596Y-69647287D01*
X105709214Y-69688391D01*
X105709886Y-69687955D01*
X105713028Y-69692793D01*
X105713268Y-69693070D01*
X105716483Y-69699380D01*
X105720636Y-69704509D01*
X105720639Y-69704513D01*
X105800537Y-69803178D01*
X105835834Y-69846766D01*
X105840965Y-69850921D01*
X105978087Y-69961961D01*
X105978091Y-69961964D01*
X105983220Y-69966117D01*
X105989098Y-69969112D01*
X105989101Y-69969114D01*
X106066194Y-70008395D01*
X106152199Y-70052216D01*
X106158572Y-70053924D01*
X106158573Y-70053924D01*
X106329810Y-70099807D01*
X106329814Y-70099808D01*
X106335387Y-70101301D01*
X106341143Y-70101754D01*
X106411695Y-70107307D01*
X106411702Y-70107307D01*
X106414151Y-70107500D01*
X106870815Y-70107500D01*
X107327848Y-70107499D01*
X107376795Y-70103647D01*
X107400859Y-70101754D01*
X107400861Y-70101754D01*
X107406613Y-70101301D01*
X107589801Y-70052216D01*
X107675806Y-70008395D01*
X107752899Y-69969114D01*
X107752902Y-69969112D01*
X107758780Y-69966117D01*
X107763909Y-69961964D01*
X107763913Y-69961961D01*
X107901035Y-69850921D01*
X107906166Y-69846766D01*
X108025517Y-69699380D01*
X108028518Y-69693490D01*
X108030447Y-69690520D01*
X108084324Y-69644284D01*
X108154646Y-69634516D01*
X108219085Y-69664316D01*
X108241788Y-69690516D01*
X108241874Y-69690649D01*
X108244871Y-69696530D01*
X108249026Y-69701661D01*
X108249028Y-69701664D01*
X108294976Y-69758405D01*
X108365055Y-69844945D01*
X108370186Y-69849100D01*
X108508337Y-69960973D01*
X108508341Y-69960976D01*
X108513470Y-69965129D01*
X108519347Y-69968124D01*
X108519351Y-69968126D01*
X108673494Y-70046665D01*
X108683629Y-70051829D01*
X108690002Y-70053537D01*
X108690003Y-70053537D01*
X108862519Y-70099763D01*
X108862523Y-70099764D01*
X108868096Y-70101257D01*
X108873852Y-70101710D01*
X108944963Y-70107307D01*
X108944970Y-70107307D01*
X108947419Y-70107500D01*
X109410812Y-70107500D01*
X109874580Y-70107499D01*
X109923947Y-70103614D01*
X109948150Y-70101710D01*
X109948152Y-70101710D01*
X109953904Y-70101257D01*
X110076246Y-70068475D01*
X110131997Y-70053537D01*
X110131998Y-70053537D01*
X110138371Y-70051829D01*
X110148506Y-70046665D01*
X110302649Y-69968126D01*
X110302653Y-69968124D01*
X110308530Y-69965129D01*
X110313659Y-69960976D01*
X110313663Y-69960973D01*
X110451814Y-69849100D01*
X110456945Y-69844945D01*
X110527024Y-69758405D01*
X110572973Y-69701663D01*
X110572976Y-69701659D01*
X110577129Y-69696530D01*
X110580192Y-69690520D01*
X110660833Y-69532251D01*
X110663829Y-69526371D01*
X110686567Y-69441513D01*
X110711763Y-69347481D01*
X110711764Y-69347477D01*
X110713257Y-69341904D01*
X110718845Y-69270908D01*
X110719307Y-69265037D01*
X110719307Y-69265030D01*
X110719500Y-69262581D01*
X110719500Y-68538196D01*
X110739502Y-68470075D01*
X110793158Y-68423582D01*
X110863432Y-68413478D01*
X110928012Y-68442972D01*
X110943420Y-68458902D01*
X111000914Y-68529901D01*
X111000918Y-68529905D01*
X111005069Y-68535031D01*
X111010195Y-68539182D01*
X111093894Y-68606960D01*
X111153492Y-68655222D01*
X111323661Y-68741927D01*
X111330034Y-68743635D01*
X111330035Y-68743635D01*
X111375417Y-68755795D01*
X111508139Y-68791358D01*
X111513893Y-68791811D01*
X111513894Y-68791811D01*
X111584996Y-68797407D01*
X111585007Y-68797407D01*
X111587454Y-68797600D01*
X113514546Y-68797600D01*
X113516993Y-68797407D01*
X113517004Y-68797407D01*
X113588106Y-68791811D01*
X113588107Y-68791811D01*
X113593861Y-68791358D01*
X113726584Y-68755795D01*
X113771965Y-68743635D01*
X113771966Y-68743635D01*
X113778339Y-68741927D01*
X113948508Y-68655222D01*
X114008107Y-68606960D01*
X114091805Y-68539182D01*
X114096931Y-68535031D01*
X114149532Y-68470075D01*
X114212968Y-68391738D01*
X114212969Y-68391737D01*
X114217122Y-68386608D01*
X114303827Y-68216439D01*
X114305545Y-68210026D01*
X114351764Y-68037537D01*
X114351764Y-68037536D01*
X114353258Y-68031961D01*
X114358869Y-67960666D01*
X114359307Y-67955104D01*
X114359307Y-67955093D01*
X114359500Y-67952646D01*
X114359500Y-67025354D01*
X114353258Y-66946039D01*
X114342298Y-66905134D01*
X114305535Y-66767935D01*
X114305534Y-66767933D01*
X114303827Y-66761561D01*
X114217122Y-66591392D01*
X114182616Y-66548780D01*
X114101082Y-66448095D01*
X114096931Y-66442969D01*
X113948508Y-66322778D01*
X113948519Y-66322764D01*
X113903920Y-66270793D01*
X113894153Y-66200472D01*
X113923955Y-66136033D01*
X113947206Y-66115886D01*
X113948508Y-66115222D01*
X114096931Y-65995031D01*
X114163119Y-65913296D01*
X114212968Y-65851738D01*
X114212969Y-65851737D01*
X114217122Y-65846608D01*
X114303827Y-65676439D01*
X114353258Y-65491961D01*
X114359500Y-65412646D01*
X114359500Y-64485354D01*
X114353258Y-64406039D01*
X114303827Y-64221561D01*
X114217122Y-64051392D01*
X114132580Y-63946991D01*
X114101082Y-63908095D01*
X114101081Y-63908094D01*
X114096931Y-63902969D01*
X113948508Y-63782778D01*
X113948519Y-63782764D01*
X113903920Y-63730793D01*
X113894153Y-63660472D01*
X113923955Y-63596033D01*
X113947206Y-63575886D01*
X113948508Y-63575222D01*
X114096931Y-63455031D01*
X114124532Y-63420947D01*
X114212968Y-63311738D01*
X114212969Y-63311737D01*
X114217122Y-63306608D01*
X114303827Y-63136439D01*
X114353258Y-62951961D01*
X114359500Y-62872646D01*
X114359500Y-61945354D01*
X114353258Y-61866039D01*
X114303827Y-61681561D01*
X114217122Y-61511392D01*
X114132580Y-61406991D01*
X114101082Y-61368095D01*
X114101081Y-61368094D01*
X114096931Y-61362969D01*
X113948508Y-61242778D01*
X113948519Y-61242764D01*
X113903920Y-61190793D01*
X113894153Y-61120472D01*
X113923955Y-61056033D01*
X113947206Y-61035886D01*
X113948508Y-61035222D01*
X114096931Y-60915031D01*
X114124532Y-60880947D01*
X114212968Y-60771738D01*
X114212969Y-60771737D01*
X114217122Y-60766608D01*
X114303827Y-60596439D01*
X114353258Y-60411961D01*
X114359500Y-60332646D01*
X114359500Y-59405354D01*
X114353258Y-59326039D01*
X114303827Y-59141561D01*
X114217122Y-58971392D01*
X114132580Y-58866991D01*
X114101082Y-58828095D01*
X114101081Y-58828094D01*
X114096931Y-58822969D01*
X113948508Y-58702778D01*
X113948500Y-58702774D01*
X113903858Y-58650750D01*
X113894092Y-58580428D01*
X113923896Y-58515990D01*
X113947176Y-58495819D01*
X113948530Y-58495129D01*
X114096945Y-58374945D01*
X114132524Y-58331009D01*
X114212973Y-58231663D01*
X114212976Y-58231659D01*
X114217129Y-58226530D01*
X114303829Y-58056371D01*
X114353257Y-57871904D01*
X114357501Y-57817984D01*
X114359307Y-57795037D01*
X114359307Y-57795030D01*
X114359500Y-57792581D01*
X114359499Y-56865420D01*
X114355614Y-56816053D01*
X114353710Y-56791850D01*
X114353710Y-56791848D01*
X114353257Y-56786096D01*
X114303829Y-56601629D01*
X114217129Y-56431470D01*
X114212976Y-56426341D01*
X114212973Y-56426337D01*
X114101100Y-56288186D01*
X114096945Y-56283055D01*
X114054892Y-56249001D01*
X113953663Y-56167027D01*
X113953659Y-56167024D01*
X113948530Y-56162871D01*
X113948458Y-56162834D01*
X113903798Y-56110792D01*
X113894031Y-56040470D01*
X113923833Y-55976032D01*
X113947139Y-55955838D01*
X113948530Y-55955129D01*
X113953659Y-55950976D01*
X113953663Y-55950973D01*
X114091814Y-55839100D01*
X114096945Y-55834945D01*
X114133168Y-55790213D01*
X114212973Y-55691663D01*
X114212976Y-55691659D01*
X114217129Y-55686530D01*
X114220226Y-55680453D01*
X114300833Y-55522251D01*
X114303829Y-55516371D01*
X114353257Y-55331904D01*
X114357501Y-55277984D01*
X114359307Y-55255037D01*
X114359307Y-55255030D01*
X114359500Y-55252581D01*
X114359500Y-55246850D01*
X152566725Y-55246850D01*
X152567284Y-55251094D01*
X152567284Y-55251098D01*
X152570824Y-55277984D01*
X152605140Y-55538640D01*
X152606273Y-55542780D01*
X152606273Y-55542782D01*
X152664161Y-55754385D01*
X152682800Y-55822517D01*
X152689873Y-55839100D01*
X152796586Y-56089286D01*
X152796590Y-56089293D01*
X152798268Y-56093228D01*
X152889469Y-56245614D01*
X152942750Y-56334639D01*
X152949408Y-56345764D01*
X153133422Y-56575451D01*
X153136524Y-56578395D01*
X153136528Y-56578399D01*
X153257459Y-56693158D01*
X153346905Y-56778039D01*
X153585908Y-56949780D01*
X153846007Y-57087496D01*
X154122390Y-57188638D01*
X154409943Y-57251334D01*
X154442519Y-57253898D01*
X154638309Y-57269307D01*
X154638318Y-57269307D01*
X154640766Y-57269500D01*
X154799990Y-57269500D01*
X154802126Y-57269354D01*
X154802137Y-57269354D01*
X155015350Y-57254819D01*
X155015356Y-57254818D01*
X155019627Y-57254527D01*
X155023822Y-57253658D01*
X155023824Y-57253658D01*
X155163724Y-57224686D01*
X155307820Y-57194845D01*
X155585247Y-57096603D01*
X155846774Y-56961618D01*
X155850275Y-56959157D01*
X155850279Y-56959155D01*
X156084052Y-56794856D01*
X156084053Y-56794855D01*
X156087562Y-56792389D01*
X156285986Y-56608003D01*
X156300017Y-56594965D01*
X156300018Y-56594964D01*
X156303156Y-56592048D01*
X156316741Y-56575451D01*
X156486849Y-56367618D01*
X156489565Y-56364300D01*
X156643340Y-56113361D01*
X156645068Y-56109425D01*
X156759913Y-55847802D01*
X156759914Y-55847798D01*
X156761637Y-55843874D01*
X156842265Y-55560826D01*
X156846029Y-55534384D01*
X156883129Y-55273705D01*
X156883734Y-55269454D01*
X156884889Y-55048865D01*
X156885253Y-54979436D01*
X156885253Y-54979430D01*
X156885275Y-54975150D01*
X156881740Y-54948295D01*
X156847420Y-54687616D01*
X156846860Y-54683360D01*
X156805487Y-54532124D01*
X156770334Y-54403628D01*
X156770334Y-54403627D01*
X156769200Y-54399483D01*
X156703775Y-54246096D01*
X156655414Y-54132714D01*
X156655410Y-54132707D01*
X156653732Y-54128772D01*
X156562531Y-53976386D01*
X156504796Y-53879918D01*
X156504793Y-53879914D01*
X156502592Y-53876236D01*
X156318578Y-53646549D01*
X156315476Y-53643605D01*
X156315472Y-53643601D01*
X156108204Y-53446911D01*
X156108201Y-53446909D01*
X156105095Y-53443961D01*
X155866092Y-53272220D01*
X155605993Y-53134504D01*
X155329610Y-53033362D01*
X155042057Y-52970666D01*
X155001486Y-52967473D01*
X154813691Y-52952693D01*
X154813682Y-52952693D01*
X154811234Y-52952500D01*
X154652010Y-52952500D01*
X154649874Y-52952646D01*
X154649863Y-52952646D01*
X154436650Y-52967181D01*
X154436644Y-52967182D01*
X154432373Y-52967473D01*
X154428178Y-52968342D01*
X154428176Y-52968342D01*
X154360684Y-52982319D01*
X154144180Y-53027155D01*
X153866753Y-53125397D01*
X153605226Y-53260382D01*
X153601725Y-53262843D01*
X153601721Y-53262845D01*
X153390957Y-53410973D01*
X153364438Y-53429611D01*
X153148844Y-53629952D01*
X153146130Y-53633268D01*
X153146128Y-53633270D01*
X153084560Y-53708492D01*
X152962435Y-53857700D01*
X152808660Y-54108639D01*
X152806933Y-54112572D01*
X152806932Y-54112575D01*
X152712415Y-54327891D01*
X152690363Y-54378126D01*
X152609735Y-54661174D01*
X152609131Y-54665416D01*
X152609130Y-54665422D01*
X152573325Y-54917000D01*
X152568266Y-54952546D01*
X152566725Y-55246850D01*
X114359500Y-55246850D01*
X114359499Y-54325420D01*
X114355614Y-54276053D01*
X114353710Y-54251850D01*
X114353710Y-54251848D01*
X114353257Y-54246096D01*
X114303829Y-54061629D01*
X114269006Y-53993285D01*
X114220126Y-53897351D01*
X114220124Y-53897347D01*
X114217129Y-53891470D01*
X114212976Y-53886341D01*
X114212973Y-53886337D01*
X114101100Y-53748186D01*
X114096945Y-53743055D01*
X114054263Y-53708492D01*
X113953663Y-53627027D01*
X113953659Y-53627024D01*
X113948530Y-53622871D01*
X113948458Y-53622834D01*
X113903798Y-53570792D01*
X113894031Y-53500470D01*
X113923833Y-53436032D01*
X113947139Y-53415838D01*
X113948530Y-53415129D01*
X113953659Y-53410976D01*
X113953663Y-53410973D01*
X114091814Y-53299100D01*
X114096945Y-53294945D01*
X114132524Y-53251009D01*
X114212973Y-53151663D01*
X114212976Y-53151659D01*
X114217129Y-53146530D01*
X114224009Y-53133029D01*
X114300833Y-52982251D01*
X114303829Y-52976371D01*
X114306213Y-52967473D01*
X114351763Y-52797481D01*
X114351764Y-52797477D01*
X114353257Y-52791904D01*
X114357501Y-52737984D01*
X114359307Y-52715037D01*
X114359307Y-52715030D01*
X114359500Y-52712581D01*
X114359499Y-51785420D01*
X114353257Y-51706096D01*
X114303829Y-51521629D01*
X114217129Y-51351470D01*
X114212976Y-51346341D01*
X114212973Y-51346337D01*
X114101100Y-51208186D01*
X114096945Y-51203055D01*
X114054892Y-51169001D01*
X113953663Y-51087027D01*
X113953659Y-51087024D01*
X113948530Y-51082871D01*
X113948458Y-51082834D01*
X113903798Y-51030792D01*
X113894031Y-50960470D01*
X113923833Y-50896032D01*
X113947139Y-50875838D01*
X113948530Y-50875129D01*
X113953659Y-50870976D01*
X113953663Y-50870973D01*
X114091814Y-50759100D01*
X114096945Y-50754945D01*
X114132524Y-50711009D01*
X114212973Y-50611663D01*
X114212976Y-50611659D01*
X114217129Y-50606530D01*
X114244254Y-50553295D01*
X114300833Y-50442251D01*
X114303829Y-50436371D01*
X114311223Y-50408776D01*
X114351763Y-50257481D01*
X114351764Y-50257477D01*
X114353257Y-50251904D01*
X114357501Y-50197984D01*
X114359307Y-50175037D01*
X114359307Y-50175030D01*
X114359500Y-50172581D01*
X114359499Y-49245420D01*
X114353257Y-49166096D01*
X114303829Y-48981629D01*
X114217129Y-48811470D01*
X114212976Y-48806341D01*
X114212973Y-48806337D01*
X114101100Y-48668186D01*
X114096945Y-48663055D01*
X114054892Y-48629001D01*
X113953663Y-48547027D01*
X113953659Y-48547024D01*
X113948530Y-48542871D01*
X113948458Y-48542834D01*
X113903798Y-48490792D01*
X113894031Y-48420470D01*
X113923833Y-48356032D01*
X113947139Y-48335838D01*
X113948530Y-48335129D01*
X113953659Y-48330976D01*
X113953663Y-48330973D01*
X114091814Y-48219100D01*
X114096945Y-48214945D01*
X114132524Y-48171009D01*
X114212973Y-48071663D01*
X114212976Y-48071659D01*
X114217129Y-48066530D01*
X114303829Y-47896371D01*
X114353257Y-47711904D01*
X114357501Y-47657984D01*
X114359307Y-47635037D01*
X114359307Y-47635030D01*
X114359500Y-47632581D01*
X114359499Y-46705420D01*
X114353257Y-46626096D01*
X114303829Y-46441629D01*
X114288581Y-46411703D01*
X114275477Y-46341926D01*
X114302177Y-46276141D01*
X114360205Y-46235235D01*
X114400848Y-46228500D01*
X191390000Y-46228500D01*
X191458121Y-46248502D01*
X191504614Y-46302158D01*
X191516000Y-46354500D01*
X191516000Y-68141905D01*
X191495998Y-68210026D01*
X191442342Y-68256519D01*
X191372068Y-68266623D01*
X191307488Y-68237129D01*
X191300905Y-68231000D01*
X190001405Y-66931500D01*
X189967379Y-66869188D01*
X189964500Y-66842405D01*
X189964500Y-56745500D01*
X189984502Y-56677379D01*
X190038158Y-56630886D01*
X190090500Y-56619500D01*
X190379134Y-56619500D01*
X190441316Y-56612745D01*
X190577705Y-56561615D01*
X190694261Y-56474261D01*
X190781615Y-56357705D01*
X190832745Y-56221316D01*
X190839500Y-56159134D01*
X190839500Y-54062866D01*
X190832745Y-54000684D01*
X190781615Y-53864295D01*
X190694261Y-53747739D01*
X190577705Y-53660385D01*
X190441316Y-53609255D01*
X190379134Y-53602500D01*
X188282866Y-53602500D01*
X188220684Y-53609255D01*
X188084295Y-53660385D01*
X187967739Y-53747739D01*
X187880385Y-53864295D01*
X187829255Y-54000684D01*
X187822500Y-54062866D01*
X187822500Y-56159134D01*
X187829255Y-56221316D01*
X187880385Y-56357705D01*
X187967739Y-56474261D01*
X188084295Y-56561615D01*
X188220684Y-56612745D01*
X188282866Y-56619500D01*
X188571500Y-56619500D01*
X188639621Y-56639502D01*
X188686114Y-56693158D01*
X188697500Y-56745500D01*
X188697500Y-67078233D01*
X188696973Y-67089416D01*
X188695298Y-67096909D01*
X188695547Y-67104835D01*
X188695547Y-67104836D01*
X188697438Y-67164986D01*
X188697500Y-67168945D01*
X188697500Y-67196856D01*
X188697997Y-67200790D01*
X188697997Y-67200791D01*
X188698005Y-67200856D01*
X188698938Y-67212693D01*
X188700327Y-67256889D01*
X188705978Y-67276339D01*
X188709987Y-67295700D01*
X188712526Y-67315797D01*
X188715445Y-67323168D01*
X188715445Y-67323170D01*
X188728804Y-67356912D01*
X188732649Y-67368142D01*
X188744982Y-67410593D01*
X188749015Y-67417412D01*
X188749017Y-67417417D01*
X188755293Y-67428028D01*
X188763988Y-67445776D01*
X188771448Y-67464617D01*
X188776110Y-67471033D01*
X188776110Y-67471034D01*
X188797436Y-67500387D01*
X188803952Y-67510307D01*
X188826458Y-67548362D01*
X188840779Y-67562683D01*
X188853619Y-67577716D01*
X188865528Y-67594107D01*
X188871634Y-67599158D01*
X188899605Y-67622298D01*
X188908384Y-67630288D01*
X189671052Y-68392956D01*
X189705078Y-68455268D01*
X189700013Y-68526083D01*
X189657466Y-68582919D01*
X189590946Y-68607730D01*
X189567651Y-68606731D01*
X189567633Y-68606960D01*
X189335930Y-68588725D01*
X189326070Y-68588725D01*
X189099301Y-68606572D01*
X189089554Y-68608115D01*
X188868373Y-68661217D01*
X188858988Y-68664266D01*
X188648837Y-68751313D01*
X188640042Y-68755795D01*
X188472555Y-68858432D01*
X188463093Y-68868890D01*
X188466876Y-68877666D01*
X190551290Y-70962080D01*
X190563670Y-70968840D01*
X190571320Y-70963113D01*
X190676205Y-70791958D01*
X190680687Y-70783163D01*
X190767734Y-70573012D01*
X190770783Y-70563627D01*
X190823885Y-70342446D01*
X190825428Y-70332699D01*
X190843275Y-70105930D01*
X190843275Y-70096070D01*
X190825428Y-69869301D01*
X190823885Y-69859554D01*
X190810350Y-69803178D01*
X190813897Y-69732270D01*
X190855217Y-69674536D01*
X190921191Y-69648306D01*
X190993570Y-69663350D01*
X191013918Y-69674536D01*
X191026940Y-69681695D01*
X191034617Y-69683666D01*
X191034622Y-69683668D01*
X191046558Y-69686732D01*
X191065266Y-69693137D01*
X191083855Y-69701181D01*
X191091680Y-69702420D01*
X191091682Y-69702421D01*
X191127519Y-69708097D01*
X191139140Y-69710504D01*
X191174289Y-69719528D01*
X191181970Y-69721500D01*
X191202231Y-69721500D01*
X191221940Y-69723051D01*
X191241943Y-69726219D01*
X191249835Y-69725473D01*
X191255062Y-69724979D01*
X191285954Y-69722059D01*
X191297811Y-69721500D01*
X207965406Y-69721500D01*
X208033527Y-69741502D01*
X208054501Y-69758405D01*
X211710595Y-73414499D01*
X211744621Y-73476811D01*
X211747500Y-73503594D01*
X211747500Y-74319134D01*
X211754255Y-74381316D01*
X211805385Y-74517705D01*
X211892739Y-74634261D01*
X212009295Y-74721615D01*
X212017704Y-74724767D01*
X212017705Y-74724768D01*
X212126451Y-74765535D01*
X212183216Y-74808176D01*
X212207916Y-74874738D01*
X212192709Y-74944087D01*
X212173316Y-74970568D01*
X212097267Y-75050149D01*
X212046629Y-75103138D01*
X212043715Y-75107410D01*
X212043714Y-75107411D01*
X211931095Y-75272504D01*
X211876184Y-75317507D01*
X211827007Y-75327500D01*
X209613763Y-75327500D01*
X209602579Y-75326973D01*
X209595091Y-75325299D01*
X209587168Y-75325548D01*
X209527033Y-75327438D01*
X209523075Y-75327500D01*
X209495144Y-75327500D01*
X209491229Y-75327995D01*
X209491225Y-75327995D01*
X209491167Y-75328003D01*
X209491138Y-75328006D01*
X209479296Y-75328939D01*
X209435110Y-75330327D01*
X209417744Y-75335372D01*
X209415658Y-75335978D01*
X209396306Y-75339986D01*
X209384068Y-75341532D01*
X209384066Y-75341533D01*
X209376203Y-75342526D01*
X209335086Y-75358806D01*
X209323885Y-75362641D01*
X209281406Y-75374982D01*
X209274587Y-75379015D01*
X209274582Y-75379017D01*
X209263971Y-75385293D01*
X209246221Y-75393990D01*
X209227383Y-75401448D01*
X209220967Y-75406109D01*
X209220966Y-75406110D01*
X209191625Y-75427428D01*
X209181701Y-75433947D01*
X209150460Y-75452422D01*
X209150455Y-75452426D01*
X209143637Y-75456458D01*
X209129313Y-75470782D01*
X209114281Y-75483621D01*
X209097893Y-75495528D01*
X209080168Y-75516954D01*
X209069712Y-75529593D01*
X209061722Y-75538373D01*
X203482500Y-81117595D01*
X203420188Y-81151621D01*
X203393405Y-81154500D01*
X188015594Y-81154500D01*
X187947473Y-81134498D01*
X187900980Y-81080842D01*
X187890876Y-81010568D01*
X187920370Y-80945988D01*
X187926499Y-80939405D01*
X194024736Y-74841169D01*
X195519001Y-74841169D01*
X195519371Y-74847990D01*
X195524895Y-74898852D01*
X195528521Y-74914104D01*
X195573676Y-75034554D01*
X195582214Y-75050149D01*
X195658715Y-75152224D01*
X195671276Y-75164785D01*
X195773351Y-75241286D01*
X195788946Y-75249824D01*
X195909394Y-75294978D01*
X195924649Y-75298605D01*
X195975514Y-75304131D01*
X195982328Y-75304500D01*
X196604885Y-75304500D01*
X196620124Y-75300025D01*
X196621329Y-75298635D01*
X196623000Y-75290952D01*
X196623000Y-74218615D01*
X196618525Y-74203376D01*
X196617135Y-74202171D01*
X196609452Y-74200500D01*
X195537116Y-74200500D01*
X195521877Y-74204975D01*
X195520672Y-74206365D01*
X195519001Y-74214048D01*
X195519001Y-74841169D01*
X194024736Y-74841169D01*
X195303905Y-73562000D01*
X195366217Y-73527974D01*
X195437032Y-73533039D01*
X195493868Y-73575586D01*
X195518679Y-73642106D01*
X195519000Y-73651095D01*
X195519000Y-73674385D01*
X195523475Y-73689624D01*
X195524865Y-73690829D01*
X195532548Y-73692500D01*
X197005000Y-73692500D01*
X197073121Y-73712502D01*
X197119614Y-73766158D01*
X197131000Y-73818500D01*
X197131000Y-75286384D01*
X197135475Y-75301623D01*
X197136865Y-75302828D01*
X197144548Y-75304499D01*
X197771669Y-75304499D01*
X197778490Y-75304129D01*
X197829352Y-75298605D01*
X197844604Y-75294979D01*
X197965054Y-75249824D01*
X197980649Y-75241286D01*
X198082724Y-75164785D01*
X198095285Y-75152224D01*
X198171786Y-75050149D01*
X198180324Y-75034554D01*
X198221225Y-74925452D01*
X198263867Y-74868688D01*
X198330428Y-74843988D01*
X198399777Y-74859196D01*
X198434444Y-74887184D01*
X198459865Y-74916531D01*
X198459869Y-74916535D01*
X198463250Y-74920438D01*
X198523632Y-74970568D01*
X198623945Y-75053849D01*
X198635126Y-75063132D01*
X198828000Y-75175838D01*
X199036692Y-75255530D01*
X199041760Y-75256561D01*
X199041763Y-75256562D01*
X199120121Y-75272504D01*
X199255597Y-75300067D01*
X199260772Y-75300257D01*
X199260774Y-75300257D01*
X199473673Y-75308064D01*
X199473677Y-75308064D01*
X199478837Y-75308253D01*
X199483957Y-75307597D01*
X199483959Y-75307597D01*
X199695288Y-75280525D01*
X199695289Y-75280525D01*
X199700416Y-75279868D01*
X199705366Y-75278383D01*
X199909429Y-75217161D01*
X199909434Y-75217159D01*
X199914384Y-75215674D01*
X200114994Y-75117396D01*
X200296860Y-74987673D01*
X200323923Y-74960705D01*
X200410190Y-74874738D01*
X200455096Y-74829989D01*
X200459173Y-74824316D01*
X200585453Y-74648577D01*
X200586776Y-74649528D01*
X200633645Y-74606357D01*
X200703580Y-74594125D01*
X200769026Y-74621644D01*
X200796875Y-74653494D01*
X200856987Y-74751588D01*
X201003250Y-74920438D01*
X201063632Y-74970568D01*
X201163945Y-75053849D01*
X201175126Y-75063132D01*
X201368000Y-75175838D01*
X201576692Y-75255530D01*
X201581760Y-75256561D01*
X201581763Y-75256562D01*
X201660121Y-75272504D01*
X201795597Y-75300067D01*
X201800772Y-75300257D01*
X201800774Y-75300257D01*
X202013673Y-75308064D01*
X202013677Y-75308064D01*
X202018837Y-75308253D01*
X202023957Y-75307597D01*
X202023959Y-75307597D01*
X202235288Y-75280525D01*
X202235289Y-75280525D01*
X202240416Y-75279868D01*
X202245366Y-75278383D01*
X202449429Y-75217161D01*
X202449434Y-75217159D01*
X202454384Y-75215674D01*
X202654994Y-75117396D01*
X202836860Y-74987673D01*
X202863923Y-74960705D01*
X202950190Y-74874738D01*
X202995096Y-74829989D01*
X202999173Y-74824316D01*
X203125453Y-74648577D01*
X203126776Y-74649528D01*
X203173645Y-74606357D01*
X203243580Y-74594125D01*
X203309026Y-74621644D01*
X203336875Y-74653494D01*
X203396987Y-74751588D01*
X203543250Y-74920438D01*
X203603632Y-74970568D01*
X203703945Y-75053849D01*
X203715126Y-75063132D01*
X203908000Y-75175838D01*
X204116692Y-75255530D01*
X204121760Y-75256561D01*
X204121763Y-75256562D01*
X204200121Y-75272504D01*
X204335597Y-75300067D01*
X204340772Y-75300257D01*
X204340774Y-75300257D01*
X204553673Y-75308064D01*
X204553677Y-75308064D01*
X204558837Y-75308253D01*
X204563957Y-75307597D01*
X204563959Y-75307597D01*
X204775288Y-75280525D01*
X204775289Y-75280525D01*
X204780416Y-75279868D01*
X204785366Y-75278383D01*
X204989429Y-75217161D01*
X204989434Y-75217159D01*
X204994384Y-75215674D01*
X205194994Y-75117396D01*
X205376860Y-74987673D01*
X205403923Y-74960705D01*
X205490190Y-74874738D01*
X205535096Y-74829989D01*
X205539173Y-74824316D01*
X205662435Y-74652777D01*
X205665453Y-74648577D01*
X205672529Y-74634261D01*
X205762136Y-74452953D01*
X205762137Y-74452951D01*
X205764430Y-74448311D01*
X205829370Y-74234569D01*
X205858529Y-74013090D01*
X205860156Y-73946500D01*
X205841852Y-73723861D01*
X205787431Y-73507202D01*
X205698354Y-73302340D01*
X205577014Y-73114777D01*
X205426670Y-72949551D01*
X205422619Y-72946352D01*
X205422615Y-72946348D01*
X205255414Y-72814300D01*
X205255410Y-72814298D01*
X205251359Y-72811098D01*
X205210053Y-72788296D01*
X205160084Y-72737864D01*
X205145312Y-72668421D01*
X205170428Y-72602016D01*
X205197780Y-72575409D01*
X205266652Y-72526283D01*
X205376860Y-72447673D01*
X205401323Y-72423296D01*
X205531435Y-72293637D01*
X205535096Y-72289989D01*
X205557005Y-72259500D01*
X205662435Y-72112777D01*
X205665453Y-72108577D01*
X205686320Y-72066357D01*
X205762136Y-71912953D01*
X205762137Y-71912951D01*
X205764430Y-71908311D01*
X205803575Y-71779470D01*
X205827865Y-71699523D01*
X205827865Y-71699521D01*
X205829370Y-71694569D01*
X205858529Y-71473090D01*
X205858611Y-71469740D01*
X205860074Y-71409865D01*
X205860074Y-71409861D01*
X205860156Y-71406500D01*
X205841852Y-71183861D01*
X205787431Y-70967202D01*
X205698354Y-70762340D01*
X205577014Y-70574777D01*
X205426670Y-70409551D01*
X205422619Y-70406352D01*
X205422615Y-70406348D01*
X205255414Y-70274300D01*
X205255410Y-70274298D01*
X205251359Y-70271098D01*
X205055789Y-70163138D01*
X205050920Y-70161414D01*
X205050916Y-70161412D01*
X204850087Y-70090295D01*
X204850083Y-70090294D01*
X204845212Y-70088569D01*
X204840119Y-70087662D01*
X204840116Y-70087661D01*
X204630373Y-70050300D01*
X204630367Y-70050299D01*
X204625284Y-70049394D01*
X204551452Y-70048492D01*
X204407081Y-70046728D01*
X204407079Y-70046728D01*
X204401911Y-70046665D01*
X204181091Y-70080455D01*
X203968756Y-70149857D01*
X203938443Y-70165637D01*
X203809878Y-70232564D01*
X203770607Y-70253007D01*
X203766474Y-70256110D01*
X203766471Y-70256112D01*
X203742247Y-70274300D01*
X203591965Y-70387135D01*
X203588393Y-70390873D01*
X203456740Y-70528640D01*
X203437629Y-70548638D01*
X203330201Y-70706121D01*
X203275293Y-70751121D01*
X203204768Y-70759292D01*
X203141021Y-70728038D01*
X203120324Y-70703554D01*
X203039822Y-70579117D01*
X203039820Y-70579114D01*
X203037014Y-70574777D01*
X202886670Y-70409551D01*
X202882619Y-70406352D01*
X202882615Y-70406348D01*
X202715414Y-70274300D01*
X202715410Y-70274298D01*
X202711359Y-70271098D01*
X202515789Y-70163138D01*
X202510920Y-70161414D01*
X202510916Y-70161412D01*
X202310087Y-70090295D01*
X202310083Y-70090294D01*
X202305212Y-70088569D01*
X202300119Y-70087662D01*
X202300116Y-70087661D01*
X202090373Y-70050300D01*
X202090367Y-70050299D01*
X202085284Y-70049394D01*
X202011452Y-70048492D01*
X201867081Y-70046728D01*
X201867079Y-70046728D01*
X201861911Y-70046665D01*
X201641091Y-70080455D01*
X201428756Y-70149857D01*
X201398443Y-70165637D01*
X201269878Y-70232564D01*
X201230607Y-70253007D01*
X201226474Y-70256110D01*
X201226471Y-70256112D01*
X201202247Y-70274300D01*
X201051965Y-70387135D01*
X201048393Y-70390873D01*
X200916740Y-70528640D01*
X200897629Y-70548638D01*
X200790201Y-70706121D01*
X200735293Y-70751121D01*
X200664768Y-70759292D01*
X200601021Y-70728038D01*
X200580324Y-70703554D01*
X200499822Y-70579117D01*
X200499820Y-70579114D01*
X200497014Y-70574777D01*
X200346670Y-70409551D01*
X200342619Y-70406352D01*
X200342615Y-70406348D01*
X200175414Y-70274300D01*
X200175410Y-70274298D01*
X200171359Y-70271098D01*
X199975789Y-70163138D01*
X199970920Y-70161414D01*
X199970916Y-70161412D01*
X199770087Y-70090295D01*
X199770083Y-70090294D01*
X199765212Y-70088569D01*
X199760119Y-70087662D01*
X199760116Y-70087661D01*
X199550373Y-70050300D01*
X199550367Y-70050299D01*
X199545284Y-70049394D01*
X199471452Y-70048492D01*
X199327081Y-70046728D01*
X199327079Y-70046728D01*
X199321911Y-70046665D01*
X199101091Y-70080455D01*
X198888756Y-70149857D01*
X198858443Y-70165637D01*
X198729878Y-70232564D01*
X198690607Y-70253007D01*
X198686474Y-70256110D01*
X198686471Y-70256112D01*
X198662247Y-70274300D01*
X198511965Y-70387135D01*
X198508393Y-70390873D01*
X198376740Y-70528640D01*
X198357629Y-70548638D01*
X198250201Y-70706121D01*
X198195293Y-70751121D01*
X198124768Y-70759292D01*
X198061021Y-70728038D01*
X198040324Y-70703554D01*
X197959822Y-70579117D01*
X197959820Y-70579114D01*
X197957014Y-70574777D01*
X197806670Y-70409551D01*
X197802619Y-70406352D01*
X197802615Y-70406348D01*
X197635414Y-70274300D01*
X197635410Y-70274298D01*
X197631359Y-70271098D01*
X197435789Y-70163138D01*
X197430920Y-70161414D01*
X197430916Y-70161412D01*
X197230087Y-70090295D01*
X197230083Y-70090294D01*
X197225212Y-70088569D01*
X197220119Y-70087662D01*
X197220116Y-70087661D01*
X197010373Y-70050300D01*
X197010367Y-70050299D01*
X197005284Y-70049394D01*
X196931452Y-70048492D01*
X196787081Y-70046728D01*
X196787079Y-70046728D01*
X196781911Y-70046665D01*
X196561091Y-70080455D01*
X196348756Y-70149857D01*
X196318443Y-70165637D01*
X196189878Y-70232564D01*
X196150607Y-70253007D01*
X196146474Y-70256110D01*
X196146471Y-70256112D01*
X196122247Y-70274300D01*
X195971965Y-70387135D01*
X195968393Y-70390873D01*
X195836740Y-70528640D01*
X195817629Y-70548638D01*
X195691743Y-70733180D01*
X195597688Y-70935805D01*
X195537989Y-71151070D01*
X195514251Y-71373195D01*
X195514548Y-71378348D01*
X195514548Y-71378351D01*
X195521174Y-71493270D01*
X195505126Y-71562430D01*
X195484478Y-71589618D01*
X185956500Y-81117595D01*
X185894188Y-81151621D01*
X185867405Y-81154500D01*
X181180767Y-81154500D01*
X181169584Y-81153973D01*
X181162091Y-81152298D01*
X181154165Y-81152547D01*
X181154164Y-81152547D01*
X181094014Y-81154438D01*
X181090055Y-81154500D01*
X181062144Y-81154500D01*
X181058210Y-81154997D01*
X181058209Y-81154997D01*
X181058144Y-81155005D01*
X181046307Y-81155938D01*
X181014049Y-81156952D01*
X181010030Y-81157078D01*
X181002111Y-81157327D01*
X180982657Y-81162979D01*
X180963300Y-81166987D01*
X180951070Y-81168532D01*
X180951069Y-81168532D01*
X180943203Y-81169526D01*
X180935832Y-81172445D01*
X180935830Y-81172445D01*
X180902088Y-81185804D01*
X180890858Y-81189649D01*
X180856017Y-81199771D01*
X180856016Y-81199771D01*
X180848407Y-81201982D01*
X180841588Y-81206015D01*
X180841583Y-81206017D01*
X180830972Y-81212293D01*
X180813224Y-81220988D01*
X180794383Y-81228448D01*
X180787967Y-81233110D01*
X180787966Y-81233110D01*
X180758613Y-81254436D01*
X180748693Y-81260952D01*
X180717465Y-81279420D01*
X180717462Y-81279422D01*
X180710638Y-81283458D01*
X180696317Y-81297779D01*
X180681284Y-81310619D01*
X180664893Y-81322528D01*
X180659842Y-81328634D01*
X180636702Y-81356605D01*
X180628712Y-81365384D01*
X175418865Y-86575230D01*
X175418862Y-86575234D01*
X161459470Y-100534625D01*
X161397158Y-100568651D01*
X161370375Y-100571530D01*
X149102531Y-100571530D01*
X149082820Y-100569979D01*
X149074436Y-100568651D01*
X149062812Y-100566810D01*
X149054920Y-100567556D01*
X149018794Y-100570971D01*
X149006936Y-100571530D01*
X145495002Y-100571530D01*
X145426881Y-100551528D01*
X145387569Y-100511365D01*
X145385258Y-100507594D01*
X145267797Y-100315915D01*
X145113642Y-100135423D01*
X145014984Y-100051161D01*
X144976175Y-99991711D01*
X144975669Y-99920716D01*
X145014984Y-99859539D01*
X145109886Y-99778485D01*
X145113642Y-99775277D01*
X145267797Y-99594785D01*
X145391819Y-99392400D01*
X145402637Y-99366283D01*
X145480761Y-99177674D01*
X145480763Y-99177668D01*
X145482653Y-99173105D01*
X145484834Y-99164023D01*
X145525431Y-98994923D01*
X145538065Y-98942301D01*
X145556688Y-98705670D01*
X145538065Y-98469039D01*
X145482653Y-98238235D01*
X145480763Y-98233672D01*
X145480761Y-98233666D01*
X145393714Y-98023514D01*
X145393712Y-98023510D01*
X145391819Y-98018940D01*
X145267797Y-97816555D01*
X145113642Y-97636063D01*
X145109886Y-97632855D01*
X145109881Y-97632850D01*
X144951198Y-97497322D01*
X144917321Y-97451389D01*
X144907787Y-97429272D01*
X144056847Y-96578332D01*
X144042903Y-96570718D01*
X144041070Y-96570849D01*
X144034455Y-96575100D01*
X143183325Y-97426230D01*
X143162293Y-97464746D01*
X143133536Y-97500171D01*
X142978189Y-97632850D01*
X142978184Y-97632855D01*
X142974428Y-97636063D01*
X142820273Y-97816555D01*
X142696251Y-98018940D01*
X142694358Y-98023510D01*
X142694356Y-98023514D01*
X142607909Y-98232219D01*
X142563361Y-98287500D01*
X142495998Y-98309921D01*
X142427206Y-98292363D01*
X142378828Y-98240401D01*
X142365500Y-98184001D01*
X142365500Y-97476524D01*
X142385502Y-97408403D01*
X142397858Y-97392221D01*
X142471040Y-97310944D01*
X142566527Y-97145556D01*
X142580839Y-97101507D01*
X142620913Y-97042903D01*
X142686310Y-97015266D01*
X142756266Y-97027373D01*
X142786207Y-97054658D01*
X142788403Y-97052230D01*
X142812295Y-97073846D01*
X142821073Y-97070062D01*
X143672013Y-96219122D01*
X143678391Y-96207442D01*
X144408443Y-96207442D01*
X144408574Y-96209275D01*
X144412825Y-96215890D01*
X145263954Y-97067019D01*
X145276334Y-97073779D01*
X145283984Y-97068052D01*
X145388785Y-96897032D01*
X145393266Y-96888238D01*
X145480282Y-96678163D01*
X145483331Y-96668778D01*
X145536414Y-96447676D01*
X145537957Y-96437929D01*
X145555798Y-96211240D01*
X145555798Y-96201380D01*
X145537957Y-95974691D01*
X145536414Y-95964944D01*
X145483331Y-95743842D01*
X145480282Y-95734457D01*
X145393266Y-95524382D01*
X145388785Y-95515588D01*
X145286231Y-95348234D01*
X145275775Y-95338774D01*
X145266997Y-95342558D01*
X144416057Y-96193498D01*
X144408443Y-96207442D01*
X143678391Y-96207442D01*
X143679627Y-96205178D01*
X143679496Y-96203345D01*
X143675245Y-96196730D01*
X142824116Y-95345601D01*
X142811736Y-95338841D01*
X142804086Y-95344568D01*
X142699285Y-95515588D01*
X142694804Y-95524382D01*
X142607788Y-95734457D01*
X142604739Y-95743842D01*
X142551656Y-95964944D01*
X142550111Y-95974703D01*
X142547549Y-96007249D01*
X142522264Y-96073590D01*
X142465125Y-96115729D01*
X142394275Y-96120288D01*
X142343902Y-96094240D01*
X142343253Y-96095134D01*
X142194094Y-95986763D01*
X142194093Y-95986762D01*
X142188752Y-95982882D01*
X142182724Y-95980198D01*
X142182722Y-95980197D01*
X142020319Y-95907891D01*
X142020318Y-95907891D01*
X142014288Y-95905206D01*
X141920888Y-95885353D01*
X141833944Y-95866872D01*
X141833939Y-95866872D01*
X141827487Y-95865500D01*
X141636513Y-95865500D01*
X141630061Y-95866872D01*
X141630056Y-95866872D01*
X141543112Y-95885353D01*
X141449712Y-95905206D01*
X141443682Y-95907891D01*
X141443681Y-95907891D01*
X141281278Y-95980197D01*
X141281276Y-95980198D01*
X141275248Y-95982882D01*
X141269907Y-95986762D01*
X141269906Y-95986763D01*
X141241710Y-96007249D01*
X141120747Y-96095134D01*
X141116326Y-96100044D01*
X141116325Y-96100045D01*
X140998451Y-96230958D01*
X140992960Y-96237056D01*
X140897473Y-96402444D01*
X140838458Y-96584072D01*
X140837768Y-96590633D01*
X140837768Y-96590635D01*
X140829555Y-96668778D01*
X140818496Y-96774000D01*
X140819186Y-96780565D01*
X140821895Y-96806335D01*
X140838458Y-96963928D01*
X140897473Y-97145556D01*
X140992960Y-97310944D01*
X141066137Y-97392215D01*
X141096853Y-97456221D01*
X141098500Y-97476524D01*
X141098500Y-98814228D01*
X141097973Y-98825411D01*
X141096298Y-98832904D01*
X141096547Y-98840830D01*
X141096547Y-98840831D01*
X141098438Y-98900981D01*
X141098500Y-98904940D01*
X141098500Y-98932851D01*
X141098997Y-98936785D01*
X141098997Y-98936786D01*
X141099005Y-98936851D01*
X141099938Y-98948688D01*
X141101327Y-98992884D01*
X141106978Y-99012334D01*
X141110987Y-99031695D01*
X141113526Y-99051792D01*
X141116445Y-99059163D01*
X141116445Y-99059165D01*
X141129804Y-99092907D01*
X141133649Y-99104137D01*
X141145982Y-99146588D01*
X141150015Y-99153407D01*
X141150017Y-99153412D01*
X141156293Y-99164023D01*
X141164988Y-99181771D01*
X141172448Y-99200612D01*
X141177110Y-99207028D01*
X141177110Y-99207029D01*
X141198436Y-99236382D01*
X141204952Y-99246302D01*
X141227458Y-99284357D01*
X141241779Y-99298678D01*
X141254619Y-99313711D01*
X141266528Y-99330102D01*
X141294252Y-99353037D01*
X141300605Y-99358293D01*
X141309384Y-99366283D01*
X142570094Y-100626993D01*
X142604120Y-100689305D01*
X142603518Y-100745502D01*
X142551160Y-100963587D01*
X142550005Y-100968399D01*
X142531382Y-101205030D01*
X142550005Y-101441661D01*
X142572396Y-101534923D01*
X142603480Y-101664396D01*
X142605417Y-101672465D01*
X142607307Y-101677028D01*
X142607309Y-101677034D01*
X142694356Y-101887186D01*
X142696251Y-101891760D01*
X142820273Y-102094145D01*
X142974428Y-102274637D01*
X143154920Y-102428792D01*
X143357305Y-102552814D01*
X143361875Y-102554707D01*
X143361879Y-102554709D01*
X143572031Y-102641756D01*
X143572037Y-102641758D01*
X143576600Y-102643648D01*
X143581400Y-102644800D01*
X143581405Y-102644802D01*
X143686820Y-102670110D01*
X143807404Y-102699060D01*
X144044035Y-102717683D01*
X144280666Y-102699060D01*
X144401250Y-102670110D01*
X144506665Y-102644802D01*
X144506670Y-102644800D01*
X144511470Y-102643648D01*
X144516033Y-102641758D01*
X144516039Y-102641756D01*
X144726191Y-102554709D01*
X144726195Y-102554707D01*
X144730765Y-102552814D01*
X144933150Y-102428792D01*
X145113642Y-102274637D01*
X145267797Y-102094145D01*
X145387569Y-101898695D01*
X145440217Y-101851064D01*
X145495002Y-101838530D01*
X148728161Y-101838530D01*
X148796282Y-101858532D01*
X148817256Y-101875435D01*
X153686010Y-106744189D01*
X153720036Y-106806501D01*
X153714971Y-106877316D01*
X153672424Y-106934152D01*
X153606800Y-106958896D01*
X153558464Y-106962700D01*
X153474789Y-106982789D01*
X153332465Y-107016958D01*
X153332460Y-107016960D01*
X153327660Y-107018112D01*
X153323097Y-107020002D01*
X153323091Y-107020004D01*
X153112939Y-107107051D01*
X153112935Y-107107053D01*
X153108365Y-107108946D01*
X152905980Y-107232968D01*
X152725488Y-107387123D01*
X152722280Y-107390879D01*
X152722275Y-107390884D01*
X152586747Y-107549567D01*
X152540814Y-107583444D01*
X152518697Y-107592978D01*
X151667757Y-108443918D01*
X151660143Y-108457862D01*
X151660274Y-108459695D01*
X151664525Y-108466310D01*
X152515655Y-109317440D01*
X152554171Y-109338472D01*
X152589596Y-109367229D01*
X152722275Y-109522576D01*
X152722280Y-109522581D01*
X152725488Y-109526337D01*
X152905980Y-109680492D01*
X153108365Y-109804514D01*
X153112935Y-109806407D01*
X153112939Y-109806409D01*
X153323091Y-109893456D01*
X153323097Y-109893458D01*
X153327660Y-109895348D01*
X153332460Y-109896500D01*
X153332465Y-109896502D01*
X153437880Y-109921810D01*
X153558464Y-109950760D01*
X153795095Y-109969383D01*
X154031726Y-109950760D01*
X154152310Y-109921810D01*
X154257725Y-109896502D01*
X154257730Y-109896500D01*
X154262530Y-109895348D01*
X154267093Y-109893458D01*
X154267099Y-109893456D01*
X154477251Y-109806409D01*
X154477255Y-109806407D01*
X154481825Y-109804514D01*
X154684210Y-109680492D01*
X154864702Y-109526337D01*
X154948964Y-109427679D01*
X155008414Y-109388870D01*
X155079409Y-109388364D01*
X155140586Y-109427679D01*
X155224848Y-109526337D01*
X155405340Y-109680492D01*
X155607725Y-109804514D01*
X155612295Y-109806407D01*
X155612299Y-109806409D01*
X155822451Y-109893456D01*
X155822457Y-109893458D01*
X155827020Y-109895348D01*
X155831820Y-109896500D01*
X155831825Y-109896502D01*
X155937240Y-109921810D01*
X156057824Y-109950760D01*
X156294455Y-109969383D01*
X156531086Y-109950760D01*
X156651670Y-109921810D01*
X156757085Y-109896502D01*
X156757090Y-109896500D01*
X156761890Y-109895348D01*
X156766453Y-109893458D01*
X156766459Y-109893456D01*
X156976611Y-109806409D01*
X156976615Y-109806407D01*
X156981185Y-109804514D01*
X157183570Y-109680492D01*
X157364062Y-109526337D01*
X157518217Y-109345845D01*
X157642239Y-109143460D01*
X157646246Y-109133787D01*
X157731181Y-108928734D01*
X157731183Y-108928728D01*
X157733073Y-108924165D01*
X157734266Y-108919198D01*
X157759535Y-108813945D01*
X157788485Y-108693361D01*
X157807108Y-108456730D01*
X157788485Y-108220099D01*
X157755980Y-108084708D01*
X157734227Y-107994100D01*
X157734225Y-107994095D01*
X157733073Y-107989295D01*
X157731183Y-107984732D01*
X157731181Y-107984726D01*
X157644134Y-107774574D01*
X157644132Y-107774570D01*
X157642239Y-107770000D01*
X157518217Y-107567615D01*
X157364062Y-107387123D01*
X157183570Y-107232968D01*
X156981185Y-107108946D01*
X156976615Y-107107053D01*
X156976611Y-107107051D01*
X156766459Y-107020004D01*
X156766453Y-107020002D01*
X156761890Y-107018112D01*
X156757090Y-107016960D01*
X156757085Y-107016958D01*
X156614761Y-106982789D01*
X156531086Y-106962700D01*
X156294455Y-106944077D01*
X156057824Y-106962700D01*
X156053015Y-106963854D01*
X156053012Y-106963855D01*
X155834928Y-107016213D01*
X155764020Y-107012666D01*
X155716419Y-106982789D01*
X154042634Y-105309004D01*
X159773217Y-105309004D01*
X159773441Y-105313670D01*
X159773441Y-105313676D01*
X159775445Y-105355390D01*
X159785818Y-105571346D01*
X159837058Y-105828943D01*
X159925810Y-106076137D01*
X160050124Y-106307498D01*
X160052919Y-106311241D01*
X160052921Y-106311244D01*
X160204479Y-106514205D01*
X160204484Y-106514211D01*
X160207271Y-106517943D01*
X160210580Y-106521223D01*
X160210585Y-106521229D01*
X160390480Y-106699560D01*
X160393797Y-106702848D01*
X160397559Y-106705606D01*
X160397562Y-106705609D01*
X160450179Y-106744189D01*
X160605605Y-106858152D01*
X160609748Y-106860332D01*
X160609750Y-106860333D01*
X160833892Y-106978260D01*
X160833897Y-106978262D01*
X160838042Y-106980443D01*
X160842465Y-106981988D01*
X160842466Y-106981988D01*
X161009044Y-107040160D01*
X161086001Y-107067035D01*
X161090594Y-107067907D01*
X161339447Y-107115153D01*
X161339450Y-107115153D01*
X161344036Y-107116024D01*
X161475257Y-107121180D01*
X161601810Y-107126153D01*
X161601816Y-107126153D01*
X161606478Y-107126336D01*
X161867561Y-107097742D01*
X161872072Y-107096554D01*
X161872074Y-107096554D01*
X162117027Y-107032064D01*
X162117030Y-107032063D01*
X162121550Y-107030873D01*
X162321500Y-106944967D01*
X162358571Y-106929040D01*
X162358572Y-106929039D01*
X162362865Y-106927195D01*
X162503499Y-106840168D01*
X162582230Y-106791448D01*
X162582232Y-106791447D01*
X162586205Y-106788988D01*
X162684697Y-106705609D01*
X162783097Y-106622308D01*
X162783099Y-106622306D01*
X162786664Y-106619288D01*
X162959837Y-106421821D01*
X162980305Y-106390000D01*
X171766835Y-106390000D01*
X171785465Y-106626711D01*
X171786619Y-106631518D01*
X171786620Y-106631524D01*
X171813669Y-106744189D01*
X171840895Y-106857594D01*
X171842788Y-106862165D01*
X171842789Y-106862167D01*
X171927648Y-107067035D01*
X171931760Y-107076963D01*
X171934346Y-107081183D01*
X172053241Y-107275202D01*
X172053245Y-107275208D01*
X172055824Y-107279416D01*
X172210031Y-107459969D01*
X172390584Y-107614176D01*
X172394792Y-107616755D01*
X172394798Y-107616759D01*
X172588817Y-107735654D01*
X172593037Y-107738240D01*
X172597607Y-107740133D01*
X172597611Y-107740135D01*
X172807833Y-107827211D01*
X172812406Y-107829105D01*
X172892609Y-107848360D01*
X173038476Y-107883380D01*
X173038482Y-107883381D01*
X173043289Y-107884535D01*
X173280000Y-107903165D01*
X173516711Y-107884535D01*
X173521518Y-107883381D01*
X173521524Y-107883380D01*
X173667391Y-107848360D01*
X173747594Y-107829105D01*
X173752167Y-107827211D01*
X173962389Y-107740135D01*
X173962393Y-107740133D01*
X173966963Y-107738240D01*
X173971183Y-107735654D01*
X174165202Y-107616759D01*
X174165208Y-107616755D01*
X174169416Y-107614176D01*
X174349969Y-107459969D01*
X174504176Y-107279416D01*
X174506755Y-107275208D01*
X174506759Y-107275202D01*
X174624133Y-107083665D01*
X174676781Y-107036034D01*
X174731566Y-107023500D01*
X178328434Y-107023500D01*
X178396555Y-107043502D01*
X178435867Y-107083665D01*
X178553241Y-107275202D01*
X178553245Y-107275208D01*
X178555824Y-107279416D01*
X178710031Y-107459969D01*
X178890584Y-107614176D01*
X178894792Y-107616755D01*
X178894798Y-107616759D01*
X179088817Y-107735654D01*
X179093037Y-107738240D01*
X179097607Y-107740133D01*
X179097611Y-107740135D01*
X179307833Y-107827211D01*
X179312406Y-107829105D01*
X179392609Y-107848360D01*
X179538476Y-107883380D01*
X179538482Y-107883381D01*
X179543289Y-107884535D01*
X179780000Y-107903165D01*
X180016711Y-107884535D01*
X180021518Y-107883381D01*
X180021524Y-107883380D01*
X180167391Y-107848360D01*
X180247594Y-107829105D01*
X180252167Y-107827211D01*
X180462389Y-107740135D01*
X180462393Y-107740133D01*
X180466963Y-107738240D01*
X180471183Y-107735654D01*
X180665202Y-107616759D01*
X180665208Y-107616755D01*
X180669416Y-107614176D01*
X180849969Y-107459969D01*
X181004176Y-107279416D01*
X181006755Y-107275208D01*
X181006759Y-107275202D01*
X181125654Y-107081183D01*
X181128240Y-107076963D01*
X181132353Y-107067035D01*
X181217211Y-106862167D01*
X181217212Y-106862165D01*
X181219105Y-106857594D01*
X181246331Y-106744189D01*
X181273380Y-106631524D01*
X181273381Y-106631518D01*
X181274535Y-106626711D01*
X181293165Y-106390000D01*
X181274535Y-106153289D01*
X181256013Y-106076137D01*
X181229505Y-105965726D01*
X181219105Y-105922406D01*
X181180392Y-105828943D01*
X181130135Y-105707611D01*
X181130133Y-105707607D01*
X181128240Y-105703037D01*
X181050349Y-105575931D01*
X181006759Y-105504798D01*
X181006755Y-105504792D01*
X181004176Y-105500584D01*
X180863259Y-105335592D01*
X180853177Y-105323787D01*
X180849969Y-105320031D01*
X180669416Y-105165824D01*
X180665208Y-105163245D01*
X180665202Y-105163241D01*
X180471183Y-105044346D01*
X180466963Y-105041760D01*
X180462393Y-105039867D01*
X180462389Y-105039865D01*
X180252167Y-104952789D01*
X180252165Y-104952788D01*
X180247594Y-104950895D01*
X180167391Y-104931640D01*
X180021524Y-104896620D01*
X180021518Y-104896619D01*
X180016711Y-104895465D01*
X179780000Y-104876835D01*
X179543289Y-104895465D01*
X179538482Y-104896619D01*
X179538476Y-104896620D01*
X179392609Y-104931640D01*
X179312406Y-104950895D01*
X179307835Y-104952788D01*
X179307833Y-104952789D01*
X179097611Y-105039865D01*
X179097607Y-105039867D01*
X179093037Y-105041760D01*
X179088817Y-105044346D01*
X178894798Y-105163241D01*
X178894792Y-105163245D01*
X178890584Y-105165824D01*
X178710031Y-105320031D01*
X178706823Y-105323787D01*
X178696741Y-105335592D01*
X178555824Y-105500584D01*
X178553245Y-105504792D01*
X178553241Y-105504798D01*
X178435867Y-105696335D01*
X178383219Y-105743966D01*
X178328434Y-105756500D01*
X174731566Y-105756500D01*
X174663445Y-105736498D01*
X174624133Y-105696335D01*
X174506759Y-105504798D01*
X174506755Y-105504792D01*
X174504176Y-105500584D01*
X174363259Y-105335592D01*
X174353177Y-105323787D01*
X174349969Y-105320031D01*
X174169416Y-105165824D01*
X174165208Y-105163245D01*
X174165202Y-105163241D01*
X173971183Y-105044346D01*
X173966963Y-105041760D01*
X173962393Y-105039867D01*
X173962389Y-105039865D01*
X173752167Y-104952789D01*
X173752165Y-104952788D01*
X173747594Y-104950895D01*
X173667391Y-104931640D01*
X173521524Y-104896620D01*
X173521518Y-104896619D01*
X173516711Y-104895465D01*
X173280000Y-104876835D01*
X173043289Y-104895465D01*
X173038482Y-104896619D01*
X173038476Y-104896620D01*
X172892609Y-104931640D01*
X172812406Y-104950895D01*
X172807835Y-104952788D01*
X172807833Y-104952789D01*
X172597611Y-105039865D01*
X172597607Y-105039867D01*
X172593037Y-105041760D01*
X172588817Y-105044346D01*
X172394798Y-105163241D01*
X172394792Y-105163245D01*
X172390584Y-105165824D01*
X172210031Y-105320031D01*
X172206823Y-105323787D01*
X172196741Y-105335592D01*
X172055824Y-105500584D01*
X172053245Y-105504792D01*
X172053241Y-105504798D01*
X172009651Y-105575931D01*
X171931760Y-105703037D01*
X171929867Y-105707607D01*
X171929865Y-105707611D01*
X171879608Y-105828943D01*
X171840895Y-105922406D01*
X171830495Y-105965726D01*
X171803988Y-106076137D01*
X171785465Y-106153289D01*
X171766835Y-106390000D01*
X162980305Y-106390000D01*
X163101921Y-106200927D01*
X163209794Y-105961458D01*
X163281086Y-105708675D01*
X163295634Y-105594317D01*
X163313834Y-105451261D01*
X163313834Y-105451257D01*
X163314232Y-105448131D01*
X163316660Y-105355390D01*
X163307890Y-105237373D01*
X163297542Y-105098120D01*
X163297541Y-105098116D01*
X163297196Y-105093468D01*
X163239231Y-104837300D01*
X163144039Y-104592514D01*
X163013710Y-104364486D01*
X162851109Y-104158227D01*
X162659806Y-103978268D01*
X162444006Y-103828562D01*
X162439813Y-103826494D01*
X162212635Y-103714462D01*
X162212632Y-103714461D01*
X162208447Y-103712397D01*
X161958306Y-103632326D01*
X161953699Y-103631576D01*
X161953696Y-103631575D01*
X161703688Y-103590859D01*
X161703689Y-103590859D01*
X161699077Y-103590108D01*
X161571528Y-103588438D01*
X161441132Y-103586731D01*
X161441129Y-103586731D01*
X161436455Y-103586670D01*
X161176210Y-103622088D01*
X160924059Y-103695583D01*
X160685540Y-103805542D01*
X160681631Y-103808105D01*
X160469808Y-103946982D01*
X160469803Y-103946986D01*
X160465895Y-103949548D01*
X160269947Y-104124438D01*
X160102002Y-104326370D01*
X159965749Y-104550907D01*
X159963940Y-104555221D01*
X159963938Y-104555225D01*
X159948302Y-104592514D01*
X159864182Y-104793118D01*
X159799531Y-105047681D01*
X159773217Y-105309004D01*
X154042634Y-105309004D01*
X151856300Y-103122670D01*
X172412160Y-103122670D01*
X172417887Y-103130320D01*
X172589042Y-103235205D01*
X172597837Y-103239687D01*
X172807988Y-103326734D01*
X172817373Y-103329783D01*
X173038554Y-103382885D01*
X173048301Y-103384428D01*
X173275070Y-103402275D01*
X173284930Y-103402275D01*
X173511699Y-103384428D01*
X173521446Y-103382885D01*
X173742627Y-103329783D01*
X173752012Y-103326734D01*
X173962163Y-103239687D01*
X173970958Y-103235205D01*
X174138445Y-103132568D01*
X174147400Y-103122670D01*
X178912160Y-103122670D01*
X178917887Y-103130320D01*
X179089042Y-103235205D01*
X179097837Y-103239687D01*
X179307988Y-103326734D01*
X179317373Y-103329783D01*
X179538554Y-103382885D01*
X179548301Y-103384428D01*
X179775070Y-103402275D01*
X179784930Y-103402275D01*
X180011699Y-103384428D01*
X180021446Y-103382885D01*
X180242627Y-103329783D01*
X180252012Y-103326734D01*
X180462163Y-103239687D01*
X180470958Y-103235205D01*
X180638445Y-103132568D01*
X180647907Y-103122110D01*
X180644124Y-103113334D01*
X179792812Y-102262022D01*
X179778868Y-102254408D01*
X179777035Y-102254539D01*
X179770420Y-102258790D01*
X178918920Y-103110290D01*
X178912160Y-103122670D01*
X174147400Y-103122670D01*
X174147907Y-103122110D01*
X174144124Y-103113334D01*
X173292812Y-102262022D01*
X173278868Y-102254408D01*
X173277035Y-102254539D01*
X173270420Y-102258790D01*
X172418920Y-103110290D01*
X172412160Y-103122670D01*
X151856300Y-103122670D01*
X150787255Y-102053625D01*
X150753229Y-101991313D01*
X150758294Y-101920498D01*
X150777434Y-101894930D01*
X171767725Y-101894930D01*
X171785572Y-102121699D01*
X171787115Y-102131446D01*
X171840217Y-102352627D01*
X171843266Y-102362012D01*
X171930313Y-102572163D01*
X171934795Y-102580958D01*
X172037432Y-102748445D01*
X172047890Y-102757907D01*
X172056666Y-102754124D01*
X172907978Y-101902812D01*
X172914356Y-101891132D01*
X173644408Y-101891132D01*
X173644539Y-101892965D01*
X173648790Y-101899580D01*
X174500290Y-102751080D01*
X174512670Y-102757840D01*
X174520320Y-102752113D01*
X174625205Y-102580958D01*
X174629687Y-102572163D01*
X174716734Y-102362012D01*
X174719783Y-102352627D01*
X174772885Y-102131446D01*
X174774428Y-102121699D01*
X174792275Y-101894930D01*
X178267725Y-101894930D01*
X178285572Y-102121699D01*
X178287115Y-102131446D01*
X178340217Y-102352627D01*
X178343266Y-102362012D01*
X178430313Y-102572163D01*
X178434795Y-102580958D01*
X178537432Y-102748445D01*
X178547890Y-102757907D01*
X178556666Y-102754124D01*
X179407978Y-101902812D01*
X179414356Y-101891132D01*
X180144408Y-101891132D01*
X180144539Y-101892965D01*
X180148790Y-101899580D01*
X181000290Y-102751080D01*
X181012670Y-102757840D01*
X181020320Y-102752113D01*
X181125205Y-102580958D01*
X181129687Y-102572163D01*
X181216734Y-102362012D01*
X181219783Y-102352627D01*
X181272885Y-102131446D01*
X181274428Y-102121699D01*
X181292275Y-101894930D01*
X181292275Y-101885070D01*
X181274428Y-101658301D01*
X181272885Y-101648554D01*
X181219783Y-101427373D01*
X181216734Y-101417988D01*
X181129687Y-101207837D01*
X181125205Y-101199042D01*
X181022568Y-101031555D01*
X181012110Y-101022093D01*
X181003334Y-101025876D01*
X180152022Y-101877188D01*
X180144408Y-101891132D01*
X179414356Y-101891132D01*
X179415592Y-101888868D01*
X179415461Y-101887035D01*
X179411210Y-101880420D01*
X178559710Y-101028920D01*
X178547330Y-101022160D01*
X178539680Y-101027887D01*
X178434795Y-101199042D01*
X178430313Y-101207837D01*
X178343266Y-101417988D01*
X178340217Y-101427373D01*
X178287115Y-101648554D01*
X178285572Y-101658301D01*
X178267725Y-101885070D01*
X178267725Y-101894930D01*
X174792275Y-101894930D01*
X174792275Y-101885070D01*
X174774428Y-101658301D01*
X174772885Y-101648554D01*
X174719783Y-101427373D01*
X174716734Y-101417988D01*
X174629687Y-101207837D01*
X174625205Y-101199042D01*
X174522568Y-101031555D01*
X174512110Y-101022093D01*
X174503334Y-101025876D01*
X173652022Y-101877188D01*
X173644408Y-101891132D01*
X172914356Y-101891132D01*
X172915592Y-101888868D01*
X172915461Y-101887035D01*
X172911210Y-101880420D01*
X172059710Y-101028920D01*
X172047330Y-101022160D01*
X172039680Y-101027887D01*
X171934795Y-101199042D01*
X171930313Y-101207837D01*
X171843266Y-101417988D01*
X171840217Y-101427373D01*
X171787115Y-101648554D01*
X171785572Y-101658301D01*
X171767725Y-101885070D01*
X171767725Y-101894930D01*
X150777434Y-101894930D01*
X150800841Y-101863662D01*
X150867361Y-101838851D01*
X150876350Y-101838530D01*
X161606203Y-101838530D01*
X161617386Y-101839057D01*
X161624879Y-101840732D01*
X161632805Y-101840483D01*
X161632806Y-101840483D01*
X161692956Y-101838592D01*
X161696915Y-101838530D01*
X161724826Y-101838530D01*
X161728761Y-101838033D01*
X161728826Y-101838025D01*
X161740663Y-101837092D01*
X161772921Y-101836078D01*
X161776940Y-101835952D01*
X161784859Y-101835703D01*
X161804313Y-101830051D01*
X161823670Y-101826043D01*
X161835900Y-101824498D01*
X161835901Y-101824498D01*
X161843767Y-101823504D01*
X161851138Y-101820585D01*
X161851140Y-101820585D01*
X161884882Y-101807226D01*
X161896112Y-101803381D01*
X161930953Y-101793259D01*
X161930954Y-101793259D01*
X161938563Y-101791048D01*
X161945382Y-101787015D01*
X161945387Y-101787013D01*
X161955998Y-101780737D01*
X161973746Y-101772042D01*
X161992587Y-101764582D01*
X162028357Y-101738594D01*
X162038277Y-101732078D01*
X162069505Y-101713610D01*
X162069508Y-101713608D01*
X162076332Y-101709572D01*
X162090653Y-101695251D01*
X162105687Y-101682410D01*
X162122077Y-101670502D01*
X162150268Y-101636425D01*
X162158258Y-101627646D01*
X163128014Y-100657890D01*
X172412093Y-100657890D01*
X172415876Y-100666666D01*
X173267188Y-101517978D01*
X173281132Y-101525592D01*
X173282965Y-101525461D01*
X173289580Y-101521210D01*
X174141080Y-100669710D01*
X174147534Y-100657890D01*
X178912093Y-100657890D01*
X178915876Y-100666666D01*
X179767188Y-101517978D01*
X179781132Y-101525592D01*
X179782965Y-101525461D01*
X179789580Y-101521210D01*
X180641080Y-100669710D01*
X180647840Y-100657330D01*
X180642113Y-100649680D01*
X180470958Y-100544795D01*
X180462163Y-100540313D01*
X180252012Y-100453266D01*
X180242627Y-100450217D01*
X180021446Y-100397115D01*
X180011699Y-100395572D01*
X179784930Y-100377725D01*
X179775070Y-100377725D01*
X179548301Y-100395572D01*
X179538554Y-100397115D01*
X179317373Y-100450217D01*
X179307988Y-100453266D01*
X179097837Y-100540313D01*
X179089042Y-100544795D01*
X178921555Y-100647432D01*
X178912093Y-100657890D01*
X174147534Y-100657890D01*
X174147840Y-100657330D01*
X174142113Y-100649680D01*
X173970958Y-100544795D01*
X173962163Y-100540313D01*
X173752012Y-100453266D01*
X173742627Y-100450217D01*
X173521446Y-100397115D01*
X173511699Y-100395572D01*
X173284930Y-100377725D01*
X173275070Y-100377725D01*
X173048301Y-100395572D01*
X173038554Y-100397115D01*
X172817373Y-100450217D01*
X172807988Y-100453266D01*
X172597837Y-100540313D01*
X172589042Y-100544795D01*
X172421555Y-100647432D01*
X172412093Y-100657890D01*
X163128014Y-100657890D01*
X166285904Y-97500000D01*
X187006835Y-97500000D01*
X187025465Y-97736711D01*
X187026619Y-97741518D01*
X187026620Y-97741524D01*
X187061640Y-97887391D01*
X187080895Y-97967594D01*
X187082788Y-97972165D01*
X187082789Y-97972167D01*
X187154807Y-98146034D01*
X187171760Y-98186963D01*
X187174346Y-98191183D01*
X187293241Y-98385202D01*
X187293245Y-98385208D01*
X187295824Y-98389416D01*
X187450031Y-98569969D01*
X187630584Y-98724176D01*
X187634792Y-98726755D01*
X187634798Y-98726759D01*
X187780139Y-98815824D01*
X187833037Y-98848240D01*
X187837607Y-98850133D01*
X187837611Y-98850135D01*
X188027737Y-98928887D01*
X188052406Y-98939105D01*
X188132609Y-98958360D01*
X188278476Y-98993380D01*
X188278482Y-98993381D01*
X188283289Y-98994535D01*
X188520000Y-99013165D01*
X188756711Y-98994535D01*
X188761518Y-98993381D01*
X188761524Y-98993380D01*
X188907391Y-98958360D01*
X188987594Y-98939105D01*
X189012263Y-98928887D01*
X189202389Y-98850135D01*
X189202393Y-98850133D01*
X189206963Y-98848240D01*
X189259861Y-98815824D01*
X189405202Y-98726759D01*
X189405208Y-98726755D01*
X189409416Y-98724176D01*
X189589969Y-98569969D01*
X189744176Y-98389416D01*
X189746755Y-98385208D01*
X189746759Y-98385202D01*
X189864133Y-98193665D01*
X189916781Y-98146034D01*
X189971566Y-98133500D01*
X193568434Y-98133500D01*
X193636555Y-98153502D01*
X193675867Y-98193665D01*
X193793241Y-98385202D01*
X193793245Y-98385208D01*
X193795824Y-98389416D01*
X193950031Y-98569969D01*
X194130584Y-98724176D01*
X194134792Y-98726755D01*
X194134798Y-98726759D01*
X194280139Y-98815824D01*
X194333037Y-98848240D01*
X194337607Y-98850133D01*
X194337611Y-98850135D01*
X194527737Y-98928887D01*
X194552406Y-98939105D01*
X194632609Y-98958360D01*
X194778476Y-98993380D01*
X194778482Y-98993381D01*
X194783289Y-98994535D01*
X195020000Y-99013165D01*
X195256711Y-98994535D01*
X195261518Y-98993381D01*
X195261524Y-98993380D01*
X195407391Y-98958360D01*
X195487594Y-98939105D01*
X195512263Y-98928887D01*
X195702389Y-98850135D01*
X195702393Y-98850133D01*
X195706963Y-98848240D01*
X195759861Y-98815824D01*
X195905202Y-98726759D01*
X195905208Y-98726755D01*
X195909416Y-98724176D01*
X196089969Y-98569969D01*
X196244176Y-98389416D01*
X196246755Y-98385208D01*
X196246759Y-98385202D01*
X196365654Y-98191183D01*
X196368240Y-98186963D01*
X196385194Y-98146034D01*
X196457211Y-97972167D01*
X196457212Y-97972165D01*
X196459105Y-97967594D01*
X196478360Y-97887391D01*
X196513380Y-97741524D01*
X196513381Y-97741518D01*
X196514535Y-97736711D01*
X196533165Y-97500000D01*
X196514535Y-97263289D01*
X196502136Y-97211640D01*
X196460260Y-97037218D01*
X196459105Y-97032406D01*
X196457020Y-97027373D01*
X196370135Y-96817611D01*
X196370133Y-96817607D01*
X196368240Y-96813037D01*
X196364133Y-96806335D01*
X196246759Y-96614798D01*
X196246755Y-96614792D01*
X196244176Y-96610584D01*
X196089969Y-96430031D01*
X195909416Y-96275824D01*
X195905208Y-96273245D01*
X195905202Y-96273241D01*
X195711183Y-96154346D01*
X195706963Y-96151760D01*
X195702393Y-96149867D01*
X195702389Y-96149865D01*
X195492167Y-96062789D01*
X195492165Y-96062788D01*
X195487594Y-96060895D01*
X195407391Y-96041640D01*
X195261524Y-96006620D01*
X195261518Y-96006619D01*
X195256711Y-96005465D01*
X195020000Y-95986835D01*
X194783289Y-96005465D01*
X194778482Y-96006619D01*
X194778476Y-96006620D01*
X194632609Y-96041640D01*
X194552406Y-96060895D01*
X194547835Y-96062788D01*
X194547833Y-96062789D01*
X194337611Y-96149865D01*
X194337607Y-96149867D01*
X194333037Y-96151760D01*
X194328817Y-96154346D01*
X194134798Y-96273241D01*
X194134792Y-96273245D01*
X194130584Y-96275824D01*
X193950031Y-96430031D01*
X193795824Y-96610584D01*
X193793245Y-96614792D01*
X193793241Y-96614798D01*
X193675867Y-96806335D01*
X193623219Y-96853966D01*
X193568434Y-96866500D01*
X189971566Y-96866500D01*
X189903445Y-96846498D01*
X189864133Y-96806335D01*
X189746759Y-96614798D01*
X189746755Y-96614792D01*
X189744176Y-96610584D01*
X189589969Y-96430031D01*
X189409416Y-96275824D01*
X189405208Y-96273245D01*
X189405202Y-96273241D01*
X189211183Y-96154346D01*
X189206963Y-96151760D01*
X189202393Y-96149867D01*
X189202389Y-96149865D01*
X188992167Y-96062789D01*
X188992165Y-96062788D01*
X188987594Y-96060895D01*
X188907391Y-96041640D01*
X188761524Y-96006620D01*
X188761518Y-96006619D01*
X188756711Y-96005465D01*
X188520000Y-95986835D01*
X188283289Y-96005465D01*
X188278482Y-96006619D01*
X188278476Y-96006620D01*
X188132609Y-96041640D01*
X188052406Y-96060895D01*
X188047835Y-96062788D01*
X188047833Y-96062789D01*
X187837611Y-96149865D01*
X187837607Y-96149867D01*
X187833037Y-96151760D01*
X187828817Y-96154346D01*
X187634798Y-96273241D01*
X187634792Y-96273245D01*
X187630584Y-96275824D01*
X187450031Y-96430031D01*
X187295824Y-96610584D01*
X187293245Y-96614792D01*
X187293241Y-96614798D01*
X187175867Y-96806335D01*
X187171760Y-96813037D01*
X187169867Y-96817607D01*
X187169865Y-96817611D01*
X187082980Y-97027373D01*
X187080895Y-97032406D01*
X187079740Y-97037218D01*
X187037865Y-97211640D01*
X187025465Y-97263289D01*
X187006835Y-97500000D01*
X166285904Y-97500000D01*
X169553234Y-94232670D01*
X187652160Y-94232670D01*
X187657887Y-94240320D01*
X187829042Y-94345205D01*
X187837837Y-94349687D01*
X188047988Y-94436734D01*
X188057373Y-94439783D01*
X188278554Y-94492885D01*
X188288301Y-94494428D01*
X188515070Y-94512275D01*
X188524930Y-94512275D01*
X188751699Y-94494428D01*
X188761446Y-94492885D01*
X188982627Y-94439783D01*
X188992012Y-94436734D01*
X189202163Y-94349687D01*
X189210958Y-94345205D01*
X189378445Y-94242568D01*
X189387400Y-94232670D01*
X194152160Y-94232670D01*
X194157887Y-94240320D01*
X194329042Y-94345205D01*
X194337837Y-94349687D01*
X194547988Y-94436734D01*
X194557373Y-94439783D01*
X194778554Y-94492885D01*
X194788301Y-94494428D01*
X195015070Y-94512275D01*
X195024930Y-94512275D01*
X195251699Y-94494428D01*
X195261446Y-94492885D01*
X195482627Y-94439783D01*
X195492012Y-94436734D01*
X195702163Y-94349687D01*
X195710958Y-94345205D01*
X195878445Y-94242568D01*
X195887907Y-94232110D01*
X195884124Y-94223334D01*
X195032812Y-93372022D01*
X195018868Y-93364408D01*
X195017035Y-93364539D01*
X195010420Y-93368790D01*
X194158920Y-94220290D01*
X194152160Y-94232670D01*
X189387400Y-94232670D01*
X189387907Y-94232110D01*
X189384124Y-94223334D01*
X188532812Y-93372022D01*
X188518868Y-93364408D01*
X188517035Y-93364539D01*
X188510420Y-93368790D01*
X187658920Y-94220290D01*
X187652160Y-94232670D01*
X169553234Y-94232670D01*
X170780974Y-93004930D01*
X187007725Y-93004930D01*
X187025572Y-93231699D01*
X187027115Y-93241446D01*
X187080217Y-93462627D01*
X187083266Y-93472012D01*
X187170313Y-93682163D01*
X187174795Y-93690958D01*
X187277432Y-93858445D01*
X187287890Y-93867907D01*
X187296666Y-93864124D01*
X188147978Y-93012812D01*
X188154356Y-93001132D01*
X188884408Y-93001132D01*
X188884539Y-93002965D01*
X188888790Y-93009580D01*
X189740290Y-93861080D01*
X189752670Y-93867840D01*
X189760320Y-93862113D01*
X189865205Y-93690958D01*
X189869687Y-93682163D01*
X189956734Y-93472012D01*
X189959783Y-93462627D01*
X190012885Y-93241446D01*
X190014428Y-93231699D01*
X190032275Y-93004930D01*
X193507725Y-93004930D01*
X193525572Y-93231699D01*
X193527115Y-93241446D01*
X193580217Y-93462627D01*
X193583266Y-93472012D01*
X193670313Y-93682163D01*
X193674795Y-93690958D01*
X193777432Y-93858445D01*
X193787890Y-93867907D01*
X193796666Y-93864124D01*
X194647978Y-93012812D01*
X194654356Y-93001132D01*
X195384408Y-93001132D01*
X195384539Y-93002965D01*
X195388790Y-93009580D01*
X196240290Y-93861080D01*
X196252670Y-93867840D01*
X196260320Y-93862113D01*
X196365205Y-93690958D01*
X196369687Y-93682163D01*
X196456734Y-93472012D01*
X196459783Y-93462627D01*
X196512885Y-93241446D01*
X196514428Y-93231699D01*
X196532275Y-93004930D01*
X196532275Y-92995070D01*
X196514428Y-92768301D01*
X196512885Y-92758554D01*
X196459783Y-92537373D01*
X196456734Y-92527988D01*
X196369687Y-92317837D01*
X196365205Y-92309042D01*
X196262568Y-92141555D01*
X196252110Y-92132093D01*
X196243334Y-92135876D01*
X195392022Y-92987188D01*
X195384408Y-93001132D01*
X194654356Y-93001132D01*
X194655592Y-92998868D01*
X194655461Y-92997035D01*
X194651210Y-92990420D01*
X193799710Y-92138920D01*
X193787330Y-92132160D01*
X193779680Y-92137887D01*
X193674795Y-92309042D01*
X193670313Y-92317837D01*
X193583266Y-92527988D01*
X193580217Y-92537373D01*
X193527115Y-92758554D01*
X193525572Y-92768301D01*
X193507725Y-92995070D01*
X193507725Y-93004930D01*
X190032275Y-93004930D01*
X190032275Y-92995070D01*
X190014428Y-92768301D01*
X190012885Y-92758554D01*
X189959783Y-92537373D01*
X189956734Y-92527988D01*
X189869687Y-92317837D01*
X189865205Y-92309042D01*
X189762568Y-92141555D01*
X189752110Y-92132093D01*
X189743334Y-92135876D01*
X188892022Y-92987188D01*
X188884408Y-93001132D01*
X188154356Y-93001132D01*
X188155592Y-92998868D01*
X188155461Y-92997035D01*
X188151210Y-92990420D01*
X187299710Y-92138920D01*
X187287330Y-92132160D01*
X187279680Y-92137887D01*
X187174795Y-92309042D01*
X187170313Y-92317837D01*
X187083266Y-92527988D01*
X187080217Y-92537373D01*
X187027115Y-92758554D01*
X187025572Y-92768301D01*
X187007725Y-92995070D01*
X187007725Y-93004930D01*
X170780974Y-93004930D01*
X172018014Y-91767890D01*
X187652093Y-91767890D01*
X187655876Y-91776666D01*
X188507188Y-92627978D01*
X188521132Y-92635592D01*
X188522965Y-92635461D01*
X188529580Y-92631210D01*
X189381080Y-91779710D01*
X189387534Y-91767890D01*
X194152093Y-91767890D01*
X194155876Y-91776666D01*
X195007188Y-92627978D01*
X195021132Y-92635592D01*
X195022965Y-92635461D01*
X195029580Y-92631210D01*
X195881080Y-91779710D01*
X195887840Y-91767330D01*
X195882113Y-91759680D01*
X195710958Y-91654795D01*
X195702163Y-91650313D01*
X195492012Y-91563266D01*
X195482627Y-91560217D01*
X195261446Y-91507115D01*
X195251699Y-91505572D01*
X195024930Y-91487725D01*
X195015070Y-91487725D01*
X194788301Y-91505572D01*
X194778554Y-91507115D01*
X194557373Y-91560217D01*
X194547988Y-91563266D01*
X194337837Y-91650313D01*
X194329042Y-91654795D01*
X194161555Y-91757432D01*
X194152093Y-91767890D01*
X189387534Y-91767890D01*
X189387840Y-91767330D01*
X189382113Y-91759680D01*
X189210958Y-91654795D01*
X189202163Y-91650313D01*
X188992012Y-91563266D01*
X188982627Y-91560217D01*
X188761446Y-91507115D01*
X188751699Y-91505572D01*
X188524930Y-91487725D01*
X188515070Y-91487725D01*
X188288301Y-91505572D01*
X188278554Y-91507115D01*
X188057373Y-91560217D01*
X188047988Y-91563266D01*
X187837837Y-91650313D01*
X187829042Y-91654795D01*
X187661555Y-91757432D01*
X187652093Y-91767890D01*
X172018014Y-91767890D01*
X175175904Y-88610000D01*
X200976835Y-88610000D01*
X200995465Y-88846711D01*
X200996619Y-88851518D01*
X200996620Y-88851524D01*
X201022983Y-88961332D01*
X201050895Y-89077594D01*
X201052788Y-89082165D01*
X201052789Y-89082167D01*
X201135538Y-89281941D01*
X201141760Y-89296963D01*
X201144346Y-89301183D01*
X201263241Y-89495202D01*
X201263245Y-89495208D01*
X201265824Y-89499416D01*
X201420031Y-89679969D01*
X201600584Y-89834176D01*
X201604792Y-89836755D01*
X201604798Y-89836759D01*
X201734108Y-89916000D01*
X201803037Y-89958240D01*
X201807607Y-89960133D01*
X201807611Y-89960135D01*
X202017833Y-90047211D01*
X202022406Y-90049105D01*
X202080929Y-90063155D01*
X202248476Y-90103380D01*
X202248482Y-90103381D01*
X202253289Y-90104535D01*
X202490000Y-90123165D01*
X202726711Y-90104535D01*
X202731518Y-90103381D01*
X202731524Y-90103380D01*
X202899071Y-90063155D01*
X202957594Y-90049105D01*
X202962167Y-90047211D01*
X203172389Y-89960135D01*
X203172393Y-89960133D01*
X203176963Y-89958240D01*
X203245892Y-89916000D01*
X203375202Y-89836759D01*
X203375208Y-89836755D01*
X203379416Y-89834176D01*
X203559969Y-89679969D01*
X203714176Y-89499416D01*
X203716755Y-89495208D01*
X203716759Y-89495202D01*
X203834133Y-89303665D01*
X203886781Y-89256034D01*
X203941566Y-89243500D01*
X207538434Y-89243500D01*
X207606555Y-89263502D01*
X207645867Y-89303665D01*
X207763241Y-89495202D01*
X207763245Y-89495208D01*
X207765824Y-89499416D01*
X207920031Y-89679969D01*
X208100584Y-89834176D01*
X208104792Y-89836755D01*
X208104798Y-89836759D01*
X208234108Y-89916000D01*
X208303037Y-89958240D01*
X208307607Y-89960133D01*
X208307611Y-89960135D01*
X208517833Y-90047211D01*
X208522406Y-90049105D01*
X208580929Y-90063155D01*
X208748476Y-90103380D01*
X208748482Y-90103381D01*
X208753289Y-90104535D01*
X208990000Y-90123165D01*
X209226711Y-90104535D01*
X209231518Y-90103381D01*
X209231524Y-90103380D01*
X209399071Y-90063155D01*
X209457594Y-90049105D01*
X209462167Y-90047211D01*
X209672389Y-89960135D01*
X209672393Y-89960133D01*
X209676963Y-89958240D01*
X209745892Y-89916000D01*
X209875202Y-89836759D01*
X209875208Y-89836755D01*
X209879416Y-89834176D01*
X210059969Y-89679969D01*
X210214176Y-89499416D01*
X210216755Y-89495208D01*
X210216759Y-89495202D01*
X210335654Y-89301183D01*
X210338240Y-89296963D01*
X210344463Y-89281941D01*
X210427211Y-89082167D01*
X210427212Y-89082165D01*
X210429105Y-89077594D01*
X210457017Y-88961332D01*
X210483380Y-88851524D01*
X210483381Y-88851518D01*
X210484535Y-88846711D01*
X210503165Y-88610000D01*
X210484535Y-88373289D01*
X210482969Y-88366763D01*
X210430260Y-88147218D01*
X210429105Y-88142406D01*
X210360385Y-87976500D01*
X210340135Y-87927611D01*
X210340133Y-87927607D01*
X210338240Y-87923037D01*
X210334133Y-87916335D01*
X210216759Y-87724798D01*
X210216755Y-87724792D01*
X210214176Y-87720584D01*
X210059969Y-87540031D01*
X209879416Y-87385824D01*
X209875208Y-87383245D01*
X209875202Y-87383241D01*
X209681183Y-87264346D01*
X209676963Y-87261760D01*
X209672393Y-87259867D01*
X209672389Y-87259865D01*
X209462167Y-87172789D01*
X209462165Y-87172788D01*
X209457594Y-87170895D01*
X209377391Y-87151640D01*
X209231524Y-87116620D01*
X209231518Y-87116619D01*
X209226711Y-87115465D01*
X208990000Y-87096835D01*
X208753289Y-87115465D01*
X208748482Y-87116619D01*
X208748476Y-87116620D01*
X208602609Y-87151640D01*
X208522406Y-87170895D01*
X208517835Y-87172788D01*
X208517833Y-87172789D01*
X208307611Y-87259865D01*
X208307607Y-87259867D01*
X208303037Y-87261760D01*
X208298817Y-87264346D01*
X208104798Y-87383241D01*
X208104792Y-87383245D01*
X208100584Y-87385824D01*
X207920031Y-87540031D01*
X207765824Y-87720584D01*
X207763245Y-87724792D01*
X207763241Y-87724798D01*
X207645867Y-87916335D01*
X207593219Y-87963966D01*
X207538434Y-87976500D01*
X203941566Y-87976500D01*
X203873445Y-87956498D01*
X203834133Y-87916335D01*
X203716759Y-87724798D01*
X203716755Y-87724792D01*
X203714176Y-87720584D01*
X203559969Y-87540031D01*
X203379416Y-87385824D01*
X203375208Y-87383245D01*
X203375202Y-87383241D01*
X203181183Y-87264346D01*
X203176963Y-87261760D01*
X203172393Y-87259867D01*
X203172389Y-87259865D01*
X202962167Y-87172789D01*
X202962165Y-87172788D01*
X202957594Y-87170895D01*
X202877391Y-87151640D01*
X202731524Y-87116620D01*
X202731518Y-87116619D01*
X202726711Y-87115465D01*
X202490000Y-87096835D01*
X202253289Y-87115465D01*
X202248482Y-87116619D01*
X202248476Y-87116620D01*
X202102609Y-87151640D01*
X202022406Y-87170895D01*
X202017835Y-87172788D01*
X202017833Y-87172789D01*
X201807611Y-87259865D01*
X201807607Y-87259867D01*
X201803037Y-87261760D01*
X201798817Y-87264346D01*
X201604798Y-87383241D01*
X201604792Y-87383245D01*
X201600584Y-87385824D01*
X201420031Y-87540031D01*
X201265824Y-87720584D01*
X201263245Y-87724792D01*
X201263241Y-87724798D01*
X201145867Y-87916335D01*
X201141760Y-87923037D01*
X201139867Y-87927607D01*
X201139865Y-87927611D01*
X201119615Y-87976500D01*
X201050895Y-88142406D01*
X201049740Y-88147218D01*
X200997032Y-88366763D01*
X200995465Y-88373289D01*
X200976835Y-88610000D01*
X175175904Y-88610000D01*
X176371134Y-87414770D01*
X178443235Y-85342670D01*
X201622160Y-85342670D01*
X201627887Y-85350320D01*
X201799042Y-85455205D01*
X201807837Y-85459687D01*
X202017988Y-85546734D01*
X202027373Y-85549783D01*
X202248554Y-85602885D01*
X202258301Y-85604428D01*
X202485070Y-85622275D01*
X202494930Y-85622275D01*
X202721699Y-85604428D01*
X202731446Y-85602885D01*
X202952627Y-85549783D01*
X202962012Y-85546734D01*
X203172163Y-85459687D01*
X203180958Y-85455205D01*
X203348445Y-85352568D01*
X203357400Y-85342670D01*
X208122160Y-85342670D01*
X208127887Y-85350320D01*
X208299042Y-85455205D01*
X208307837Y-85459687D01*
X208517988Y-85546734D01*
X208527373Y-85549783D01*
X208748554Y-85602885D01*
X208758301Y-85604428D01*
X208985070Y-85622275D01*
X208994930Y-85622275D01*
X209221699Y-85604428D01*
X209231446Y-85602885D01*
X209452627Y-85549783D01*
X209462012Y-85546734D01*
X209672163Y-85459687D01*
X209680958Y-85455205D01*
X209848445Y-85352568D01*
X209857907Y-85342110D01*
X209854124Y-85333334D01*
X209002812Y-84482022D01*
X208988868Y-84474408D01*
X208987035Y-84474539D01*
X208980420Y-84478790D01*
X208128920Y-85330290D01*
X208122160Y-85342670D01*
X203357400Y-85342670D01*
X203357907Y-85342110D01*
X203354124Y-85333334D01*
X202502812Y-84482022D01*
X202488868Y-84474408D01*
X202487035Y-84474539D01*
X202480420Y-84478790D01*
X201628920Y-85330290D01*
X201622160Y-85342670D01*
X178443235Y-85342670D01*
X179670975Y-84114930D01*
X200977725Y-84114930D01*
X200995572Y-84341699D01*
X200997115Y-84351446D01*
X201050217Y-84572627D01*
X201053266Y-84582012D01*
X201140313Y-84792163D01*
X201144795Y-84800958D01*
X201247432Y-84968445D01*
X201257890Y-84977907D01*
X201266666Y-84974124D01*
X202117978Y-84122812D01*
X202124356Y-84111132D01*
X202854408Y-84111132D01*
X202854539Y-84112965D01*
X202858790Y-84119580D01*
X203710290Y-84971080D01*
X203722670Y-84977840D01*
X203730320Y-84972113D01*
X203835205Y-84800958D01*
X203839687Y-84792163D01*
X203926734Y-84582012D01*
X203929783Y-84572627D01*
X203982885Y-84351446D01*
X203984428Y-84341699D01*
X204002275Y-84114930D01*
X207477725Y-84114930D01*
X207495572Y-84341699D01*
X207497115Y-84351446D01*
X207550217Y-84572627D01*
X207553266Y-84582012D01*
X207640313Y-84792163D01*
X207644795Y-84800958D01*
X207747432Y-84968445D01*
X207757890Y-84977907D01*
X207766666Y-84974124D01*
X208617978Y-84122812D01*
X208624356Y-84111132D01*
X209354408Y-84111132D01*
X209354539Y-84112965D01*
X209358790Y-84119580D01*
X210210290Y-84971080D01*
X210222670Y-84977840D01*
X210230320Y-84972113D01*
X210335205Y-84800958D01*
X210339687Y-84792163D01*
X210426734Y-84582012D01*
X210429783Y-84572627D01*
X210482885Y-84351446D01*
X210484428Y-84341699D01*
X210502275Y-84114930D01*
X210502275Y-84105070D01*
X210484428Y-83878301D01*
X210482885Y-83868554D01*
X210429783Y-83647373D01*
X210426734Y-83637988D01*
X210339687Y-83427837D01*
X210335205Y-83419042D01*
X210232568Y-83251555D01*
X210222110Y-83242093D01*
X210213334Y-83245876D01*
X209362022Y-84097188D01*
X209354408Y-84111132D01*
X208624356Y-84111132D01*
X208625592Y-84108868D01*
X208625461Y-84107035D01*
X208621210Y-84100420D01*
X207769710Y-83248920D01*
X207757330Y-83242160D01*
X207749680Y-83247887D01*
X207644795Y-83419042D01*
X207640313Y-83427837D01*
X207553266Y-83637988D01*
X207550217Y-83647373D01*
X207497115Y-83868554D01*
X207495572Y-83878301D01*
X207477725Y-84105070D01*
X207477725Y-84114930D01*
X204002275Y-84114930D01*
X204002275Y-84105070D01*
X203984428Y-83878301D01*
X203982885Y-83868554D01*
X203929783Y-83647373D01*
X203926734Y-83637988D01*
X203839687Y-83427837D01*
X203835205Y-83419042D01*
X203732568Y-83251555D01*
X203722110Y-83242093D01*
X203713334Y-83245876D01*
X202862022Y-84097188D01*
X202854408Y-84111132D01*
X202124356Y-84111132D01*
X202125592Y-84108868D01*
X202125461Y-84107035D01*
X202121210Y-84100420D01*
X201269710Y-83248920D01*
X201257330Y-83242160D01*
X201249680Y-83247887D01*
X201144795Y-83419042D01*
X201140313Y-83427837D01*
X201053266Y-83637988D01*
X201050217Y-83647373D01*
X200997115Y-83868554D01*
X200995572Y-83878301D01*
X200977725Y-84105070D01*
X200977725Y-84114930D01*
X179670975Y-84114930D01*
X181327500Y-82458405D01*
X181389812Y-82424379D01*
X181416595Y-82421500D01*
X186103233Y-82421500D01*
X186114416Y-82422027D01*
X186121909Y-82423702D01*
X186129835Y-82423453D01*
X186129836Y-82423453D01*
X186189986Y-82421562D01*
X186193945Y-82421500D01*
X201998783Y-82421500D01*
X202066904Y-82441502D01*
X202113397Y-82495158D01*
X202123501Y-82565432D01*
X202094007Y-82630012D01*
X202031804Y-82667825D01*
X202032084Y-82668686D01*
X202028440Y-82669870D01*
X202028195Y-82670019D01*
X202027378Y-82670215D01*
X202017988Y-82673266D01*
X201807837Y-82760313D01*
X201799042Y-82764795D01*
X201631555Y-82867432D01*
X201622093Y-82877890D01*
X201625876Y-82886666D01*
X202477188Y-83737978D01*
X202491132Y-83745592D01*
X202492965Y-83745461D01*
X202499580Y-83741210D01*
X203351080Y-82889710D01*
X203357534Y-82877890D01*
X208122093Y-82877890D01*
X208125876Y-82886666D01*
X208977188Y-83737978D01*
X208991132Y-83745592D01*
X208992965Y-83745461D01*
X208999580Y-83741210D01*
X209851080Y-82889710D01*
X209857840Y-82877330D01*
X209852113Y-82869680D01*
X209680958Y-82764795D01*
X209672163Y-82760313D01*
X209462012Y-82673266D01*
X209452627Y-82670217D01*
X209231446Y-82617115D01*
X209221699Y-82615572D01*
X208994930Y-82597725D01*
X208985070Y-82597725D01*
X208758301Y-82615572D01*
X208748554Y-82617115D01*
X208527373Y-82670217D01*
X208517988Y-82673266D01*
X208307837Y-82760313D01*
X208299042Y-82764795D01*
X208131555Y-82867432D01*
X208122093Y-82877890D01*
X203357534Y-82877890D01*
X203357840Y-82877330D01*
X203352113Y-82869680D01*
X203180958Y-82764795D01*
X203172163Y-82760313D01*
X202962012Y-82673266D01*
X202952622Y-82670215D01*
X202951805Y-82670019D01*
X202951527Y-82669859D01*
X202947916Y-82668686D01*
X202948162Y-82667928D01*
X202890235Y-82634668D01*
X202857551Y-82571642D01*
X202864131Y-82500951D01*
X202907884Y-82445039D01*
X202981217Y-82421500D01*
X203629233Y-82421500D01*
X203640416Y-82422027D01*
X203647909Y-82423702D01*
X203655835Y-82423453D01*
X203655836Y-82423453D01*
X203715986Y-82421562D01*
X203719945Y-82421500D01*
X203747856Y-82421500D01*
X203751791Y-82421003D01*
X203751856Y-82420995D01*
X203763693Y-82420062D01*
X203795951Y-82419048D01*
X203799970Y-82418922D01*
X203807889Y-82418673D01*
X203827343Y-82413021D01*
X203846700Y-82409013D01*
X203858930Y-82407468D01*
X203858931Y-82407468D01*
X203866797Y-82406474D01*
X203874168Y-82403555D01*
X203874170Y-82403555D01*
X203907912Y-82390196D01*
X203919142Y-82386351D01*
X203953983Y-82376229D01*
X203953984Y-82376229D01*
X203961593Y-82374018D01*
X203968412Y-82369985D01*
X203968417Y-82369983D01*
X203979028Y-82363707D01*
X203996776Y-82355012D01*
X204015617Y-82347552D01*
X204051387Y-82321564D01*
X204061307Y-82315048D01*
X204092535Y-82296580D01*
X204092538Y-82296578D01*
X204099362Y-82292542D01*
X204113683Y-82278221D01*
X204128717Y-82265380D01*
X204138694Y-82258131D01*
X204145107Y-82253472D01*
X204173298Y-82219395D01*
X204181288Y-82210616D01*
X209760499Y-76631405D01*
X209822811Y-76597379D01*
X209849594Y-76594500D01*
X211830274Y-76594500D01*
X211898395Y-76614502D01*
X211937707Y-76654665D01*
X212005987Y-76766088D01*
X212152250Y-76934938D01*
X212324126Y-77077632D01*
X212372265Y-77105762D01*
X212397445Y-77120476D01*
X212446169Y-77172114D01*
X212459240Y-77241897D01*
X212432509Y-77307669D01*
X212392055Y-77341027D01*
X212379607Y-77347507D01*
X212375474Y-77350610D01*
X212375471Y-77350612D01*
X212229516Y-77460198D01*
X212200965Y-77481635D01*
X212046629Y-77643138D01*
X212043715Y-77647410D01*
X212043714Y-77647411D01*
X212031404Y-77665457D01*
X211920743Y-77827680D01*
X211905911Y-77859634D01*
X211847884Y-77984643D01*
X211826688Y-78030305D01*
X211766989Y-78245570D01*
X211743251Y-78467695D01*
X211743548Y-78472848D01*
X211743548Y-78472851D01*
X211749011Y-78567590D01*
X211756110Y-78690715D01*
X211757247Y-78695761D01*
X211757248Y-78695767D01*
X211771859Y-78760598D01*
X211805222Y-78908639D01*
X211889266Y-79115616D01*
X212005987Y-79306088D01*
X212152250Y-79474938D01*
X212324126Y-79617632D01*
X212517000Y-79730338D01*
X212725692Y-79810030D01*
X212730760Y-79811061D01*
X212730763Y-79811062D01*
X212838017Y-79832883D01*
X212944597Y-79854567D01*
X212949772Y-79854757D01*
X212949774Y-79854757D01*
X213162673Y-79862564D01*
X213162677Y-79862564D01*
X213167837Y-79862753D01*
X213172957Y-79862097D01*
X213172959Y-79862097D01*
X213384288Y-79835025D01*
X213384289Y-79835025D01*
X213389416Y-79834368D01*
X213394366Y-79832883D01*
X213598429Y-79771661D01*
X213598434Y-79771659D01*
X213603384Y-79770174D01*
X213803994Y-79671896D01*
X213985860Y-79542173D01*
X214144096Y-79384489D01*
X214203594Y-79301689D01*
X214271435Y-79207277D01*
X214274453Y-79203077D01*
X214373430Y-79002811D01*
X214438370Y-78789069D01*
X214467529Y-78567590D01*
X214469156Y-78501000D01*
X214450852Y-78278361D01*
X214396431Y-78061702D01*
X214307354Y-77856840D01*
X214186014Y-77669277D01*
X214035670Y-77504051D01*
X214031619Y-77500852D01*
X214031615Y-77500848D01*
X213864414Y-77368800D01*
X213864410Y-77368798D01*
X213860359Y-77365598D01*
X213819053Y-77342796D01*
X213769084Y-77292364D01*
X213754312Y-77222921D01*
X213779428Y-77156516D01*
X213806780Y-77129909D01*
X213850603Y-77098650D01*
X213985860Y-77002173D01*
X214144096Y-76844489D01*
X214274453Y-76663077D01*
X214278611Y-76654665D01*
X214371136Y-76467453D01*
X214371137Y-76467451D01*
X214373430Y-76462811D01*
X214438370Y-76249069D01*
X214467529Y-76027590D01*
X214469156Y-75961000D01*
X214450852Y-75738361D01*
X214396431Y-75521702D01*
X214307354Y-75316840D01*
X214243960Y-75218848D01*
X214188822Y-75133617D01*
X214188820Y-75133614D01*
X214186014Y-75129277D01*
X214174590Y-75116722D01*
X214038798Y-74967488D01*
X214007746Y-74903642D01*
X214016141Y-74833143D01*
X214061317Y-74778375D01*
X214087761Y-74764706D01*
X214194297Y-74724767D01*
X214202705Y-74721615D01*
X214319261Y-74634261D01*
X214406615Y-74517705D01*
X214457745Y-74381316D01*
X214464500Y-74319134D01*
X214464500Y-72522866D01*
X214457745Y-72460684D01*
X214406615Y-72324295D01*
X214319261Y-72207739D01*
X214202705Y-72120385D01*
X214066316Y-72069255D01*
X214004134Y-72062500D01*
X212207866Y-72062500D01*
X212207866Y-72062157D01*
X212140582Y-72046300D01*
X212113771Y-72025866D01*
X208883000Y-68795095D01*
X208848974Y-68732783D01*
X208854039Y-68661968D01*
X208896586Y-68605132D01*
X208963106Y-68580321D01*
X208972095Y-68580000D01*
X215265500Y-68580000D01*
X215333621Y-68600002D01*
X215380114Y-68653658D01*
X215391500Y-68706000D01*
X215391500Y-110227183D01*
X215371498Y-110295304D01*
X215354595Y-110316278D01*
X210646278Y-115024595D01*
X210583966Y-115058621D01*
X210557183Y-115061500D01*
X94242817Y-115061500D01*
X94174696Y-115041498D01*
X94153722Y-115024595D01*
X89445405Y-110316278D01*
X89411379Y-110253966D01*
X89408500Y-110227183D01*
X89408500Y-110200000D01*
X110806835Y-110200000D01*
X110825465Y-110436711D01*
X110826619Y-110441518D01*
X110826620Y-110441524D01*
X110861640Y-110587391D01*
X110880895Y-110667594D01*
X110882788Y-110672165D01*
X110882789Y-110672167D01*
X110969383Y-110881224D01*
X110971760Y-110886963D01*
X110974346Y-110891183D01*
X111093241Y-111085202D01*
X111093245Y-111085208D01*
X111095824Y-111089416D01*
X111250031Y-111269969D01*
X111430584Y-111424176D01*
X111434792Y-111426755D01*
X111434798Y-111426759D01*
X111628817Y-111545654D01*
X111633037Y-111548240D01*
X111637607Y-111550133D01*
X111637611Y-111550135D01*
X111847833Y-111637211D01*
X111852406Y-111639105D01*
X111932609Y-111658360D01*
X112078476Y-111693380D01*
X112078482Y-111693381D01*
X112083289Y-111694535D01*
X112320000Y-111713165D01*
X112556711Y-111694535D01*
X112561518Y-111693381D01*
X112561524Y-111693380D01*
X112707391Y-111658360D01*
X112787594Y-111639105D01*
X112792167Y-111637211D01*
X113002389Y-111550135D01*
X113002393Y-111550133D01*
X113006963Y-111548240D01*
X113011183Y-111545654D01*
X113205202Y-111426759D01*
X113205208Y-111426755D01*
X113209416Y-111424176D01*
X113389969Y-111269969D01*
X113544176Y-111089416D01*
X113546755Y-111085208D01*
X113546759Y-111085202D01*
X113664133Y-110893665D01*
X113716781Y-110846034D01*
X113771566Y-110833500D01*
X117368434Y-110833500D01*
X117436555Y-110853502D01*
X117475867Y-110893665D01*
X117593241Y-111085202D01*
X117593245Y-111085208D01*
X117595824Y-111089416D01*
X117750031Y-111269969D01*
X117930584Y-111424176D01*
X117934792Y-111426755D01*
X117934798Y-111426759D01*
X118128817Y-111545654D01*
X118133037Y-111548240D01*
X118137607Y-111550133D01*
X118137611Y-111550135D01*
X118347833Y-111637211D01*
X118352406Y-111639105D01*
X118432609Y-111658360D01*
X118578476Y-111693380D01*
X118578482Y-111693381D01*
X118583289Y-111694535D01*
X118820000Y-111713165D01*
X119056711Y-111694535D01*
X119061518Y-111693381D01*
X119061524Y-111693380D01*
X119207391Y-111658360D01*
X119287594Y-111639105D01*
X119292167Y-111637211D01*
X119502389Y-111550135D01*
X119502393Y-111550133D01*
X119506963Y-111548240D01*
X119511183Y-111545654D01*
X119705202Y-111426759D01*
X119705208Y-111426755D01*
X119709416Y-111424176D01*
X119889969Y-111269969D01*
X120044176Y-111089416D01*
X120046755Y-111085208D01*
X120046759Y-111085202D01*
X120165654Y-110891183D01*
X120168240Y-110886963D01*
X120170618Y-110881224D01*
X120257211Y-110672167D01*
X120257212Y-110672165D01*
X120259105Y-110667594D01*
X120278360Y-110587391D01*
X120313380Y-110441524D01*
X120313381Y-110441518D01*
X120314535Y-110436711D01*
X120333165Y-110200000D01*
X120314535Y-109963289D01*
X120311621Y-109951148D01*
X120278360Y-109812609D01*
X120259105Y-109732406D01*
X120245237Y-109698926D01*
X120241138Y-109689029D01*
X150428266Y-109689029D01*
X150433993Y-109696679D01*
X150605013Y-109801480D01*
X150613807Y-109805961D01*
X150823882Y-109892977D01*
X150833267Y-109896026D01*
X151054369Y-109949109D01*
X151064116Y-109950652D01*
X151290805Y-109968493D01*
X151300665Y-109968493D01*
X151527354Y-109950652D01*
X151537101Y-109949109D01*
X151758203Y-109896026D01*
X151767588Y-109892977D01*
X151977663Y-109805961D01*
X151986457Y-109801480D01*
X152153811Y-109698926D01*
X152163271Y-109688470D01*
X152159487Y-109679692D01*
X151308547Y-108828752D01*
X151294603Y-108821138D01*
X151292770Y-108821269D01*
X151286155Y-108825520D01*
X150435026Y-109676649D01*
X150428266Y-109689029D01*
X120241138Y-109689029D01*
X120170135Y-109517611D01*
X120170133Y-109517607D01*
X120168240Y-109513037D01*
X120164133Y-109506335D01*
X120046759Y-109314798D01*
X120046755Y-109314792D01*
X120044176Y-109310584D01*
X119889969Y-109130031D01*
X119709416Y-108975824D01*
X119705208Y-108973245D01*
X119705202Y-108973241D01*
X119511183Y-108854346D01*
X119506963Y-108851760D01*
X119502393Y-108849867D01*
X119502389Y-108849865D01*
X119292167Y-108762789D01*
X119292165Y-108762788D01*
X119287594Y-108760895D01*
X119207391Y-108741640D01*
X119061524Y-108706620D01*
X119061518Y-108706619D01*
X119056711Y-108705465D01*
X118820000Y-108686835D01*
X118583289Y-108705465D01*
X118578482Y-108706619D01*
X118578476Y-108706620D01*
X118432609Y-108741640D01*
X118352406Y-108760895D01*
X118347835Y-108762788D01*
X118347833Y-108762789D01*
X118137611Y-108849865D01*
X118137607Y-108849867D01*
X118133037Y-108851760D01*
X118128817Y-108854346D01*
X117934798Y-108973241D01*
X117934792Y-108973245D01*
X117930584Y-108975824D01*
X117750031Y-109130031D01*
X117595824Y-109310584D01*
X117593245Y-109314792D01*
X117593241Y-109314798D01*
X117475867Y-109506335D01*
X117423219Y-109553966D01*
X117368434Y-109566500D01*
X113771566Y-109566500D01*
X113703445Y-109546498D01*
X113664133Y-109506335D01*
X113546759Y-109314798D01*
X113546755Y-109314792D01*
X113544176Y-109310584D01*
X113389969Y-109130031D01*
X113209416Y-108975824D01*
X113205208Y-108973245D01*
X113205202Y-108973241D01*
X113011183Y-108854346D01*
X113006963Y-108851760D01*
X113002393Y-108849867D01*
X113002389Y-108849865D01*
X112792167Y-108762789D01*
X112792165Y-108762788D01*
X112787594Y-108760895D01*
X112707391Y-108741640D01*
X112561524Y-108706620D01*
X112561518Y-108706619D01*
X112556711Y-108705465D01*
X112320000Y-108686835D01*
X112083289Y-108705465D01*
X112078482Y-108706619D01*
X112078476Y-108706620D01*
X111932609Y-108741640D01*
X111852406Y-108760895D01*
X111847835Y-108762788D01*
X111847833Y-108762789D01*
X111637611Y-108849865D01*
X111637607Y-108849867D01*
X111633037Y-108851760D01*
X111628817Y-108854346D01*
X111434798Y-108973241D01*
X111434792Y-108973245D01*
X111430584Y-108975824D01*
X111250031Y-109130031D01*
X111095824Y-109310584D01*
X111093245Y-109314792D01*
X111093241Y-109314798D01*
X110975867Y-109506335D01*
X110971760Y-109513037D01*
X110969867Y-109517607D01*
X110969865Y-109517611D01*
X110894763Y-109698926D01*
X110880895Y-109732406D01*
X110861640Y-109812609D01*
X110828380Y-109951148D01*
X110825465Y-109963289D01*
X110806835Y-110200000D01*
X89408500Y-110200000D01*
X89408500Y-108461660D01*
X149783972Y-108461660D01*
X149801813Y-108688349D01*
X149803356Y-108698096D01*
X149856439Y-108919198D01*
X149859488Y-108928583D01*
X149946504Y-109138658D01*
X149950985Y-109147452D01*
X150053539Y-109314806D01*
X150063995Y-109324266D01*
X150072773Y-109320482D01*
X150923713Y-108469542D01*
X150931327Y-108455598D01*
X150931196Y-108453765D01*
X150926945Y-108447150D01*
X150075816Y-107596021D01*
X150063436Y-107589261D01*
X150055786Y-107594988D01*
X149950985Y-107766008D01*
X149946504Y-107774802D01*
X149859488Y-107984877D01*
X149856439Y-107994262D01*
X149803356Y-108215364D01*
X149801813Y-108225111D01*
X149783972Y-108451800D01*
X149783972Y-108461660D01*
X89408500Y-108461660D01*
X89408500Y-107224990D01*
X150428199Y-107224990D01*
X150431983Y-107233768D01*
X151282923Y-108084708D01*
X151296867Y-108092322D01*
X151298700Y-108092191D01*
X151305315Y-108087940D01*
X152156444Y-107236811D01*
X152163204Y-107224431D01*
X152157477Y-107216781D01*
X151986457Y-107111980D01*
X151977663Y-107107499D01*
X151767588Y-107020483D01*
X151758203Y-107017434D01*
X151537101Y-106964351D01*
X151527354Y-106962808D01*
X151300665Y-106944967D01*
X151290805Y-106944967D01*
X151064116Y-106962808D01*
X151054369Y-106964351D01*
X150833267Y-107017434D01*
X150823882Y-107020483D01*
X150613807Y-107107499D01*
X150605013Y-107111980D01*
X150437659Y-107214534D01*
X150428199Y-107224990D01*
X89408500Y-107224990D01*
X89408500Y-106932670D01*
X111452160Y-106932670D01*
X111457887Y-106940320D01*
X111629042Y-107045205D01*
X111637837Y-107049687D01*
X111847988Y-107136734D01*
X111857373Y-107139783D01*
X112078554Y-107192885D01*
X112088301Y-107194428D01*
X112315070Y-107212275D01*
X112324930Y-107212275D01*
X112551699Y-107194428D01*
X112561446Y-107192885D01*
X112782627Y-107139783D01*
X112792012Y-107136734D01*
X113002163Y-107049687D01*
X113010958Y-107045205D01*
X113178445Y-106942568D01*
X113187400Y-106932670D01*
X117952160Y-106932670D01*
X117957887Y-106940320D01*
X118129042Y-107045205D01*
X118137837Y-107049687D01*
X118347988Y-107136734D01*
X118357373Y-107139783D01*
X118578554Y-107192885D01*
X118588301Y-107194428D01*
X118815070Y-107212275D01*
X118824930Y-107212275D01*
X119051699Y-107194428D01*
X119061446Y-107192885D01*
X119282627Y-107139783D01*
X119292012Y-107136734D01*
X119502163Y-107049687D01*
X119510958Y-107045205D01*
X119678445Y-106942568D01*
X119687907Y-106932110D01*
X119684124Y-106923334D01*
X118832812Y-106072022D01*
X118818868Y-106064408D01*
X118817035Y-106064539D01*
X118810420Y-106068790D01*
X117958920Y-106920290D01*
X117952160Y-106932670D01*
X113187400Y-106932670D01*
X113187907Y-106932110D01*
X113184124Y-106923334D01*
X112332812Y-106072022D01*
X112318868Y-106064408D01*
X112317035Y-106064539D01*
X112310420Y-106068790D01*
X111458920Y-106920290D01*
X111452160Y-106932670D01*
X89408500Y-106932670D01*
X89408500Y-105704930D01*
X110807725Y-105704930D01*
X110825572Y-105931699D01*
X110827115Y-105941446D01*
X110880217Y-106162627D01*
X110883266Y-106172012D01*
X110970313Y-106382163D01*
X110974795Y-106390958D01*
X111077432Y-106558445D01*
X111087890Y-106567907D01*
X111096666Y-106564124D01*
X111947978Y-105712812D01*
X111954356Y-105701132D01*
X112684408Y-105701132D01*
X112684539Y-105702965D01*
X112688790Y-105709580D01*
X113540290Y-106561080D01*
X113552670Y-106567840D01*
X113560320Y-106562113D01*
X113665205Y-106390958D01*
X113669687Y-106382163D01*
X113756734Y-106172012D01*
X113759783Y-106162627D01*
X113812885Y-105941446D01*
X113814428Y-105931699D01*
X113832275Y-105704930D01*
X117307725Y-105704930D01*
X117325572Y-105931699D01*
X117327115Y-105941446D01*
X117380217Y-106162627D01*
X117383266Y-106172012D01*
X117470313Y-106382163D01*
X117474795Y-106390958D01*
X117577432Y-106558445D01*
X117587890Y-106567907D01*
X117596666Y-106564124D01*
X118447978Y-105712812D01*
X118454356Y-105701132D01*
X119184408Y-105701132D01*
X119184539Y-105702965D01*
X119188790Y-105709580D01*
X120040290Y-106561080D01*
X120052670Y-106567840D01*
X120060320Y-106562113D01*
X120165205Y-106390958D01*
X120169687Y-106382163D01*
X120256734Y-106172012D01*
X120259783Y-106162627D01*
X120312885Y-105941446D01*
X120314428Y-105931699D01*
X120332275Y-105704930D01*
X120332275Y-105695070D01*
X120314428Y-105468301D01*
X120312885Y-105458554D01*
X120276980Y-105309004D01*
X144274137Y-105309004D01*
X144274361Y-105313670D01*
X144274361Y-105313676D01*
X144276365Y-105355390D01*
X144286738Y-105571346D01*
X144337978Y-105828943D01*
X144426730Y-106076137D01*
X144551044Y-106307498D01*
X144553839Y-106311241D01*
X144553841Y-106311244D01*
X144705399Y-106514205D01*
X144705404Y-106514211D01*
X144708191Y-106517943D01*
X144711500Y-106521223D01*
X144711505Y-106521229D01*
X144891400Y-106699560D01*
X144894717Y-106702848D01*
X144898479Y-106705606D01*
X144898482Y-106705609D01*
X144951099Y-106744189D01*
X145106525Y-106858152D01*
X145110668Y-106860332D01*
X145110670Y-106860333D01*
X145334812Y-106978260D01*
X145334817Y-106978262D01*
X145338962Y-106980443D01*
X145343385Y-106981988D01*
X145343386Y-106981988D01*
X145509964Y-107040160D01*
X145586921Y-107067035D01*
X145591514Y-107067907D01*
X145840367Y-107115153D01*
X145840370Y-107115153D01*
X145844956Y-107116024D01*
X145976177Y-107121180D01*
X146102730Y-107126153D01*
X146102736Y-107126153D01*
X146107398Y-107126336D01*
X146368481Y-107097742D01*
X146372992Y-107096554D01*
X146372994Y-107096554D01*
X146617947Y-107032064D01*
X146617950Y-107032063D01*
X146622470Y-107030873D01*
X146822420Y-106944967D01*
X146859491Y-106929040D01*
X146859492Y-106929039D01*
X146863785Y-106927195D01*
X147004419Y-106840168D01*
X147083150Y-106791448D01*
X147083152Y-106791447D01*
X147087125Y-106788988D01*
X147185617Y-106705609D01*
X147284017Y-106622308D01*
X147284019Y-106622306D01*
X147287584Y-106619288D01*
X147460757Y-106421821D01*
X147602841Y-106200927D01*
X147710714Y-105961458D01*
X147782006Y-105708675D01*
X147796554Y-105594317D01*
X147814754Y-105451261D01*
X147814754Y-105451257D01*
X147815152Y-105448131D01*
X147817580Y-105355390D01*
X147808810Y-105237373D01*
X147798462Y-105098120D01*
X147798461Y-105098116D01*
X147798116Y-105093468D01*
X147740151Y-104837300D01*
X147644959Y-104592514D01*
X147514630Y-104364486D01*
X147352029Y-104158227D01*
X147160726Y-103978268D01*
X146944926Y-103828562D01*
X146940733Y-103826494D01*
X146713555Y-103714462D01*
X146713552Y-103714461D01*
X146709367Y-103712397D01*
X146459226Y-103632326D01*
X146454619Y-103631576D01*
X146454616Y-103631575D01*
X146204608Y-103590859D01*
X146204609Y-103590859D01*
X146199997Y-103590108D01*
X146072448Y-103588438D01*
X145942052Y-103586731D01*
X145942049Y-103586731D01*
X145937375Y-103586670D01*
X145677130Y-103622088D01*
X145424979Y-103695583D01*
X145186460Y-103805542D01*
X145182551Y-103808105D01*
X144970728Y-103946982D01*
X144970723Y-103946986D01*
X144966815Y-103949548D01*
X144770867Y-104124438D01*
X144602922Y-104326370D01*
X144466669Y-104550907D01*
X144464860Y-104555221D01*
X144464858Y-104555225D01*
X144449222Y-104592514D01*
X144365102Y-104793118D01*
X144300451Y-105047681D01*
X144274137Y-105309004D01*
X120276980Y-105309004D01*
X120259783Y-105237373D01*
X120256734Y-105227988D01*
X120169687Y-105017837D01*
X120165205Y-105009042D01*
X120062568Y-104841555D01*
X120052110Y-104832093D01*
X120043334Y-104835876D01*
X119192022Y-105687188D01*
X119184408Y-105701132D01*
X118454356Y-105701132D01*
X118455592Y-105698868D01*
X118455461Y-105697035D01*
X118451210Y-105690420D01*
X117599710Y-104838920D01*
X117587330Y-104832160D01*
X117579680Y-104837887D01*
X117474795Y-105009042D01*
X117470313Y-105017837D01*
X117383266Y-105227988D01*
X117380217Y-105237373D01*
X117327115Y-105458554D01*
X117325572Y-105468301D01*
X117307725Y-105695070D01*
X117307725Y-105704930D01*
X113832275Y-105704930D01*
X113832275Y-105695070D01*
X113814428Y-105468301D01*
X113812885Y-105458554D01*
X113759783Y-105237373D01*
X113756734Y-105227988D01*
X113669687Y-105017837D01*
X113665205Y-105009042D01*
X113562568Y-104841555D01*
X113552110Y-104832093D01*
X113543334Y-104835876D01*
X112692022Y-105687188D01*
X112684408Y-105701132D01*
X111954356Y-105701132D01*
X111955592Y-105698868D01*
X111955461Y-105697035D01*
X111951210Y-105690420D01*
X111099710Y-104838920D01*
X111087330Y-104832160D01*
X111079680Y-104837887D01*
X110974795Y-105009042D01*
X110970313Y-105017837D01*
X110883266Y-105227988D01*
X110880217Y-105237373D01*
X110827115Y-105458554D01*
X110825572Y-105468301D01*
X110807725Y-105695070D01*
X110807725Y-105704930D01*
X89408500Y-105704930D01*
X89408500Y-104467890D01*
X111452093Y-104467890D01*
X111455876Y-104476666D01*
X112307188Y-105327978D01*
X112321132Y-105335592D01*
X112322965Y-105335461D01*
X112329580Y-105331210D01*
X113181080Y-104479710D01*
X113187534Y-104467890D01*
X117952093Y-104467890D01*
X117955876Y-104476666D01*
X118807188Y-105327978D01*
X118821132Y-105335592D01*
X118822965Y-105335461D01*
X118829580Y-105331210D01*
X119681080Y-104479710D01*
X119687840Y-104467330D01*
X119682113Y-104459680D01*
X119510958Y-104354795D01*
X119502163Y-104350313D01*
X119292012Y-104263266D01*
X119282627Y-104260217D01*
X119061446Y-104207115D01*
X119051699Y-104205572D01*
X118824930Y-104187725D01*
X118815070Y-104187725D01*
X118588301Y-104205572D01*
X118578554Y-104207115D01*
X118357373Y-104260217D01*
X118347988Y-104263266D01*
X118137837Y-104350313D01*
X118129042Y-104354795D01*
X117961555Y-104457432D01*
X117952093Y-104467890D01*
X113187534Y-104467890D01*
X113187840Y-104467330D01*
X113182113Y-104459680D01*
X113010958Y-104354795D01*
X113002163Y-104350313D01*
X112792012Y-104263266D01*
X112782627Y-104260217D01*
X112561446Y-104207115D01*
X112551699Y-104205572D01*
X112324930Y-104187725D01*
X112315070Y-104187725D01*
X112088301Y-104205572D01*
X112078554Y-104207115D01*
X111857373Y-104260217D01*
X111847988Y-104263266D01*
X111637837Y-104350313D01*
X111629042Y-104354795D01*
X111461555Y-104457432D01*
X111452093Y-104467890D01*
X89408500Y-104467890D01*
X89408500Y-100040000D01*
X99376835Y-100040000D01*
X99395465Y-100276711D01*
X99396619Y-100281518D01*
X99396620Y-100281524D01*
X99419716Y-100377725D01*
X99450895Y-100507594D01*
X99452788Y-100512165D01*
X99452789Y-100512167D01*
X99526162Y-100689305D01*
X99541760Y-100726963D01*
X99544346Y-100731183D01*
X99663241Y-100925202D01*
X99663245Y-100925208D01*
X99665824Y-100929416D01*
X99820031Y-101109969D01*
X100000584Y-101264176D01*
X100004792Y-101266755D01*
X100004798Y-101266759D01*
X100198817Y-101385654D01*
X100203037Y-101388240D01*
X100207607Y-101390133D01*
X100207611Y-101390135D01*
X100417833Y-101477211D01*
X100422406Y-101479105D01*
X100502609Y-101498360D01*
X100648476Y-101533380D01*
X100648482Y-101533381D01*
X100653289Y-101534535D01*
X100890000Y-101553165D01*
X101126711Y-101534535D01*
X101131518Y-101533381D01*
X101131524Y-101533380D01*
X101277391Y-101498360D01*
X101357594Y-101479105D01*
X101362167Y-101477211D01*
X101572389Y-101390135D01*
X101572393Y-101390133D01*
X101576963Y-101388240D01*
X101581183Y-101385654D01*
X101775202Y-101266759D01*
X101775208Y-101266755D01*
X101779416Y-101264176D01*
X101959969Y-101109969D01*
X102114176Y-100929416D01*
X102116755Y-100925208D01*
X102116759Y-100925202D01*
X102234133Y-100733665D01*
X102286781Y-100686034D01*
X102341566Y-100673500D01*
X105938434Y-100673500D01*
X106006555Y-100693502D01*
X106045867Y-100733665D01*
X106163241Y-100925202D01*
X106163245Y-100925208D01*
X106165824Y-100929416D01*
X106320031Y-101109969D01*
X106500584Y-101264176D01*
X106504792Y-101266755D01*
X106504798Y-101266759D01*
X106698817Y-101385654D01*
X106703037Y-101388240D01*
X106707607Y-101390133D01*
X106707611Y-101390135D01*
X106917833Y-101477211D01*
X106922406Y-101479105D01*
X107002609Y-101498360D01*
X107148476Y-101533380D01*
X107148482Y-101533381D01*
X107153289Y-101534535D01*
X107390000Y-101553165D01*
X107626711Y-101534535D01*
X107631518Y-101533381D01*
X107631524Y-101533380D01*
X107777391Y-101498360D01*
X107857594Y-101479105D01*
X107862167Y-101477211D01*
X108072389Y-101390135D01*
X108072393Y-101390133D01*
X108076963Y-101388240D01*
X108081183Y-101385654D01*
X108275202Y-101266759D01*
X108275208Y-101266755D01*
X108279416Y-101264176D01*
X108459969Y-101109969D01*
X108614176Y-100929416D01*
X108616755Y-100925208D01*
X108616759Y-100925202D01*
X108735654Y-100731183D01*
X108738240Y-100726963D01*
X108753839Y-100689305D01*
X108827211Y-100512167D01*
X108827212Y-100512165D01*
X108829105Y-100507594D01*
X108860284Y-100377725D01*
X108883380Y-100281524D01*
X108883381Y-100281518D01*
X108884535Y-100276711D01*
X108903165Y-100040000D01*
X122236835Y-100040000D01*
X122255465Y-100276711D01*
X122256619Y-100281518D01*
X122256620Y-100281524D01*
X122279716Y-100377725D01*
X122310895Y-100507594D01*
X122312788Y-100512165D01*
X122312789Y-100512167D01*
X122386162Y-100689305D01*
X122401760Y-100726963D01*
X122404346Y-100731183D01*
X122523241Y-100925202D01*
X122523245Y-100925208D01*
X122525824Y-100929416D01*
X122680031Y-101109969D01*
X122860584Y-101264176D01*
X122864792Y-101266755D01*
X122864798Y-101266759D01*
X123058817Y-101385654D01*
X123063037Y-101388240D01*
X123067607Y-101390133D01*
X123067611Y-101390135D01*
X123277833Y-101477211D01*
X123282406Y-101479105D01*
X123362609Y-101498360D01*
X123508476Y-101533380D01*
X123508482Y-101533381D01*
X123513289Y-101534535D01*
X123750000Y-101553165D01*
X123986711Y-101534535D01*
X123991518Y-101533381D01*
X123991524Y-101533380D01*
X124137391Y-101498360D01*
X124217594Y-101479105D01*
X124222167Y-101477211D01*
X124432389Y-101390135D01*
X124432393Y-101390133D01*
X124436963Y-101388240D01*
X124441183Y-101385654D01*
X124635202Y-101266759D01*
X124635208Y-101266755D01*
X124639416Y-101264176D01*
X124819969Y-101109969D01*
X124974176Y-100929416D01*
X124976755Y-100925208D01*
X124976759Y-100925202D01*
X125094133Y-100733665D01*
X125146781Y-100686034D01*
X125201566Y-100673500D01*
X128798434Y-100673500D01*
X128866555Y-100693502D01*
X128905867Y-100733665D01*
X129023241Y-100925202D01*
X129023245Y-100925208D01*
X129025824Y-100929416D01*
X129180031Y-101109969D01*
X129360584Y-101264176D01*
X129364792Y-101266755D01*
X129364798Y-101266759D01*
X129558817Y-101385654D01*
X129563037Y-101388240D01*
X129567607Y-101390133D01*
X129567611Y-101390135D01*
X129777833Y-101477211D01*
X129782406Y-101479105D01*
X129862609Y-101498360D01*
X130008476Y-101533380D01*
X130008482Y-101533381D01*
X130013289Y-101534535D01*
X130250000Y-101553165D01*
X130486711Y-101534535D01*
X130491518Y-101533381D01*
X130491524Y-101533380D01*
X130637391Y-101498360D01*
X130717594Y-101479105D01*
X130722167Y-101477211D01*
X130932389Y-101390135D01*
X130932393Y-101390133D01*
X130936963Y-101388240D01*
X130941183Y-101385654D01*
X131135202Y-101266759D01*
X131135208Y-101266755D01*
X131139416Y-101264176D01*
X131319969Y-101109969D01*
X131474176Y-100929416D01*
X131476755Y-100925208D01*
X131476759Y-100925202D01*
X131595654Y-100731183D01*
X131598240Y-100726963D01*
X131613839Y-100689305D01*
X131687211Y-100512167D01*
X131687212Y-100512165D01*
X131689105Y-100507594D01*
X131720284Y-100377725D01*
X131743380Y-100281524D01*
X131743381Y-100281518D01*
X131744535Y-100276711D01*
X131763165Y-100040000D01*
X131744535Y-99803289D01*
X131738581Y-99778485D01*
X131690260Y-99577218D01*
X131689105Y-99572406D01*
X131616293Y-99396620D01*
X131600135Y-99357611D01*
X131600133Y-99357607D01*
X131598240Y-99353037D01*
X131584185Y-99330102D01*
X131476759Y-99154798D01*
X131476755Y-99154792D01*
X131474176Y-99150584D01*
X131319969Y-98970031D01*
X131139416Y-98815824D01*
X131135208Y-98813245D01*
X131135202Y-98813241D01*
X130941183Y-98694346D01*
X130936963Y-98691760D01*
X130932393Y-98689867D01*
X130932389Y-98689865D01*
X130722167Y-98602789D01*
X130722165Y-98602788D01*
X130717594Y-98600895D01*
X130637391Y-98581640D01*
X130491524Y-98546620D01*
X130491518Y-98546619D01*
X130486711Y-98545465D01*
X130250000Y-98526835D01*
X130013289Y-98545465D01*
X130008482Y-98546619D01*
X130008476Y-98546620D01*
X129862609Y-98581640D01*
X129782406Y-98600895D01*
X129777835Y-98602788D01*
X129777833Y-98602789D01*
X129567611Y-98689865D01*
X129567607Y-98689867D01*
X129563037Y-98691760D01*
X129558817Y-98694346D01*
X129364798Y-98813241D01*
X129364792Y-98813245D01*
X129360584Y-98815824D01*
X129180031Y-98970031D01*
X129025824Y-99150584D01*
X129023245Y-99154792D01*
X129023241Y-99154798D01*
X128905867Y-99346335D01*
X128853219Y-99393966D01*
X128798434Y-99406500D01*
X125201566Y-99406500D01*
X125133445Y-99386498D01*
X125094133Y-99346335D01*
X124976759Y-99154798D01*
X124976755Y-99154792D01*
X124974176Y-99150584D01*
X124819969Y-98970031D01*
X124639416Y-98815824D01*
X124635208Y-98813245D01*
X124635202Y-98813241D01*
X124441183Y-98694346D01*
X124436963Y-98691760D01*
X124432393Y-98689867D01*
X124432389Y-98689865D01*
X124222167Y-98602789D01*
X124222165Y-98602788D01*
X124217594Y-98600895D01*
X124137391Y-98581640D01*
X123991524Y-98546620D01*
X123991518Y-98546619D01*
X123986711Y-98545465D01*
X123750000Y-98526835D01*
X123513289Y-98545465D01*
X123508482Y-98546619D01*
X123508476Y-98546620D01*
X123362609Y-98581640D01*
X123282406Y-98600895D01*
X123277835Y-98602788D01*
X123277833Y-98602789D01*
X123067611Y-98689865D01*
X123067607Y-98689867D01*
X123063037Y-98691760D01*
X123058817Y-98694346D01*
X122864798Y-98813241D01*
X122864792Y-98813245D01*
X122860584Y-98815824D01*
X122680031Y-98970031D01*
X122525824Y-99150584D01*
X122523245Y-99154792D01*
X122523241Y-99154798D01*
X122415815Y-99330102D01*
X122401760Y-99353037D01*
X122399867Y-99357607D01*
X122399865Y-99357611D01*
X122383707Y-99396620D01*
X122310895Y-99572406D01*
X122309740Y-99577218D01*
X122261420Y-99778485D01*
X122255465Y-99803289D01*
X122236835Y-100040000D01*
X108903165Y-100040000D01*
X108884535Y-99803289D01*
X108878581Y-99778485D01*
X108830260Y-99577218D01*
X108829105Y-99572406D01*
X108756293Y-99396620D01*
X108740135Y-99357611D01*
X108740133Y-99357607D01*
X108738240Y-99353037D01*
X108724185Y-99330102D01*
X108616759Y-99154798D01*
X108616755Y-99154792D01*
X108614176Y-99150584D01*
X108459969Y-98970031D01*
X108279416Y-98815824D01*
X108275208Y-98813245D01*
X108275202Y-98813241D01*
X108081183Y-98694346D01*
X108076963Y-98691760D01*
X108072393Y-98689867D01*
X108072389Y-98689865D01*
X107862167Y-98602789D01*
X107862165Y-98602788D01*
X107857594Y-98600895D01*
X107777391Y-98581640D01*
X107631524Y-98546620D01*
X107631518Y-98546619D01*
X107626711Y-98545465D01*
X107390000Y-98526835D01*
X107153289Y-98545465D01*
X107148482Y-98546619D01*
X107148476Y-98546620D01*
X107002609Y-98581640D01*
X106922406Y-98600895D01*
X106917835Y-98602788D01*
X106917833Y-98602789D01*
X106707611Y-98689865D01*
X106707607Y-98689867D01*
X106703037Y-98691760D01*
X106698817Y-98694346D01*
X106504798Y-98813241D01*
X106504792Y-98813245D01*
X106500584Y-98815824D01*
X106320031Y-98970031D01*
X106165824Y-99150584D01*
X106163245Y-99154792D01*
X106163241Y-99154798D01*
X106045867Y-99346335D01*
X105993219Y-99393966D01*
X105938434Y-99406500D01*
X102341566Y-99406500D01*
X102273445Y-99386498D01*
X102234133Y-99346335D01*
X102116759Y-99154798D01*
X102116755Y-99154792D01*
X102114176Y-99150584D01*
X101959969Y-98970031D01*
X101779416Y-98815824D01*
X101775208Y-98813245D01*
X101775202Y-98813241D01*
X101581183Y-98694346D01*
X101576963Y-98691760D01*
X101572393Y-98689867D01*
X101572389Y-98689865D01*
X101362167Y-98602789D01*
X101362165Y-98602788D01*
X101357594Y-98600895D01*
X101277391Y-98581640D01*
X101131524Y-98546620D01*
X101131518Y-98546619D01*
X101126711Y-98545465D01*
X100890000Y-98526835D01*
X100653289Y-98545465D01*
X100648482Y-98546619D01*
X100648476Y-98546620D01*
X100502609Y-98581640D01*
X100422406Y-98600895D01*
X100417835Y-98602788D01*
X100417833Y-98602789D01*
X100207611Y-98689865D01*
X100207607Y-98689867D01*
X100203037Y-98691760D01*
X100198817Y-98694346D01*
X100004798Y-98813241D01*
X100004792Y-98813245D01*
X100000584Y-98815824D01*
X99820031Y-98970031D01*
X99665824Y-99150584D01*
X99663245Y-99154792D01*
X99663241Y-99154798D01*
X99555815Y-99330102D01*
X99541760Y-99353037D01*
X99539867Y-99357607D01*
X99539865Y-99357611D01*
X99523707Y-99396620D01*
X99450895Y-99572406D01*
X99449740Y-99577218D01*
X99401420Y-99778485D01*
X99395465Y-99803289D01*
X99376835Y-100040000D01*
X89408500Y-100040000D01*
X89408500Y-96772670D01*
X100022160Y-96772670D01*
X100027887Y-96780320D01*
X100199042Y-96885205D01*
X100207837Y-96889687D01*
X100417988Y-96976734D01*
X100427373Y-96979783D01*
X100648554Y-97032885D01*
X100658301Y-97034428D01*
X100885070Y-97052275D01*
X100894930Y-97052275D01*
X101121699Y-97034428D01*
X101131446Y-97032885D01*
X101352627Y-96979783D01*
X101362012Y-96976734D01*
X101572163Y-96889687D01*
X101580958Y-96885205D01*
X101748445Y-96782568D01*
X101757400Y-96772670D01*
X106522160Y-96772670D01*
X106527887Y-96780320D01*
X106699042Y-96885205D01*
X106707837Y-96889687D01*
X106917988Y-96976734D01*
X106927373Y-96979783D01*
X107148554Y-97032885D01*
X107158301Y-97034428D01*
X107385070Y-97052275D01*
X107394930Y-97052275D01*
X107621699Y-97034428D01*
X107631446Y-97032885D01*
X107852627Y-96979783D01*
X107862012Y-96976734D01*
X108072163Y-96889687D01*
X108080958Y-96885205D01*
X108248445Y-96782568D01*
X108257400Y-96772670D01*
X122882160Y-96772670D01*
X122887887Y-96780320D01*
X123059042Y-96885205D01*
X123067837Y-96889687D01*
X123277988Y-96976734D01*
X123287373Y-96979783D01*
X123508554Y-97032885D01*
X123518301Y-97034428D01*
X123745070Y-97052275D01*
X123754930Y-97052275D01*
X123981699Y-97034428D01*
X123991446Y-97032885D01*
X124212627Y-96979783D01*
X124222012Y-96976734D01*
X124432163Y-96889687D01*
X124440958Y-96885205D01*
X124608445Y-96782568D01*
X124617400Y-96772670D01*
X129382160Y-96772670D01*
X129387887Y-96780320D01*
X129559042Y-96885205D01*
X129567837Y-96889687D01*
X129777988Y-96976734D01*
X129787373Y-96979783D01*
X130008554Y-97032885D01*
X130018301Y-97034428D01*
X130245070Y-97052275D01*
X130254930Y-97052275D01*
X130481699Y-97034428D01*
X130491446Y-97032885D01*
X130712627Y-96979783D01*
X130722012Y-96976734D01*
X130932163Y-96889687D01*
X130940958Y-96885205D01*
X131108445Y-96782568D01*
X131117907Y-96772110D01*
X131114124Y-96763334D01*
X130262812Y-95912022D01*
X130248868Y-95904408D01*
X130247035Y-95904539D01*
X130240420Y-95908790D01*
X129388920Y-96760290D01*
X129382160Y-96772670D01*
X124617400Y-96772670D01*
X124617907Y-96772110D01*
X124614124Y-96763334D01*
X123762812Y-95912022D01*
X123748868Y-95904408D01*
X123747035Y-95904539D01*
X123740420Y-95908790D01*
X122888920Y-96760290D01*
X122882160Y-96772670D01*
X108257400Y-96772670D01*
X108257907Y-96772110D01*
X108254124Y-96763334D01*
X107402812Y-95912022D01*
X107388868Y-95904408D01*
X107387035Y-95904539D01*
X107380420Y-95908790D01*
X106528920Y-96760290D01*
X106522160Y-96772670D01*
X101757400Y-96772670D01*
X101757907Y-96772110D01*
X101754124Y-96763334D01*
X100902812Y-95912022D01*
X100888868Y-95904408D01*
X100887035Y-95904539D01*
X100880420Y-95908790D01*
X100028920Y-96760290D01*
X100022160Y-96772670D01*
X89408500Y-96772670D01*
X89408500Y-95544930D01*
X99377725Y-95544930D01*
X99395572Y-95771699D01*
X99397115Y-95781446D01*
X99450217Y-96002627D01*
X99453266Y-96012012D01*
X99540313Y-96222163D01*
X99544795Y-96230958D01*
X99647432Y-96398445D01*
X99657890Y-96407907D01*
X99666666Y-96404124D01*
X100517978Y-95552812D01*
X100524356Y-95541132D01*
X101254408Y-95541132D01*
X101254539Y-95542965D01*
X101258790Y-95549580D01*
X102110290Y-96401080D01*
X102122670Y-96407840D01*
X102130320Y-96402113D01*
X102235205Y-96230958D01*
X102239687Y-96222163D01*
X102326734Y-96012012D01*
X102329783Y-96002627D01*
X102382885Y-95781446D01*
X102384428Y-95771699D01*
X102402275Y-95544930D01*
X102402275Y-95535070D01*
X102384428Y-95308301D01*
X102382885Y-95298554D01*
X102329783Y-95077373D01*
X102326734Y-95067988D01*
X102239687Y-94857837D01*
X102235205Y-94849042D01*
X102132568Y-94681555D01*
X102122110Y-94672093D01*
X102113334Y-94675876D01*
X101262022Y-95527188D01*
X101254408Y-95541132D01*
X100524356Y-95541132D01*
X100525592Y-95538868D01*
X100525461Y-95537035D01*
X100521210Y-95530420D01*
X99669710Y-94678920D01*
X99657330Y-94672160D01*
X99649680Y-94677887D01*
X99544795Y-94849042D01*
X99540313Y-94857837D01*
X99453266Y-95067988D01*
X99450217Y-95077373D01*
X99397115Y-95298554D01*
X99395572Y-95308301D01*
X99377725Y-95535070D01*
X99377725Y-95544930D01*
X89408500Y-95544930D01*
X89408500Y-94307890D01*
X100022093Y-94307890D01*
X100025876Y-94316666D01*
X100877188Y-95167978D01*
X100891132Y-95175592D01*
X100892965Y-95175461D01*
X100899580Y-95171210D01*
X101751080Y-94319710D01*
X101757840Y-94307330D01*
X101752113Y-94299680D01*
X101580958Y-94194795D01*
X101572163Y-94190313D01*
X101362012Y-94103266D01*
X101352627Y-94100217D01*
X101131446Y-94047115D01*
X101121699Y-94045572D01*
X100894930Y-94027725D01*
X100885070Y-94027725D01*
X100658301Y-94045572D01*
X100648554Y-94047115D01*
X100427373Y-94100217D01*
X100417988Y-94103266D01*
X100207837Y-94190313D01*
X100199042Y-94194795D01*
X100031555Y-94297432D01*
X100022093Y-94307890D01*
X89408500Y-94307890D01*
X89408500Y-92710000D01*
X95860496Y-92710000D01*
X95880458Y-92899928D01*
X95939473Y-93081556D01*
X95942776Y-93087278D01*
X95942777Y-93087279D01*
X95963043Y-93122381D01*
X96034960Y-93246944D01*
X96039378Y-93251851D01*
X96039379Y-93251852D01*
X96154350Y-93379540D01*
X96162747Y-93388866D01*
X96317248Y-93501118D01*
X96323276Y-93503802D01*
X96323278Y-93503803D01*
X96485681Y-93576109D01*
X96491712Y-93578794D01*
X96585113Y-93598647D01*
X96672056Y-93617128D01*
X96672061Y-93617128D01*
X96678513Y-93618500D01*
X96869487Y-93618500D01*
X96875939Y-93617128D01*
X96875944Y-93617128D01*
X96962887Y-93598647D01*
X97056288Y-93578794D01*
X97062319Y-93576109D01*
X97224722Y-93503803D01*
X97224724Y-93503802D01*
X97230752Y-93501118D01*
X97270830Y-93472000D01*
X97369763Y-93400120D01*
X97385253Y-93388866D01*
X97389668Y-93383963D01*
X97394580Y-93379540D01*
X97395705Y-93380789D01*
X97449014Y-93347949D01*
X97482200Y-93343500D01*
X105095406Y-93343500D01*
X105163527Y-93363502D01*
X105184501Y-93380405D01*
X105224878Y-93420782D01*
X105258904Y-93483094D01*
X105261092Y-93496703D01*
X105261839Y-93503803D01*
X105274608Y-93625293D01*
X105278458Y-93661928D01*
X105337473Y-93843556D01*
X105340776Y-93849278D01*
X105340777Y-93849279D01*
X105348187Y-93862113D01*
X105432960Y-94008944D01*
X105437378Y-94013851D01*
X105437379Y-94013852D01*
X105470820Y-94050992D01*
X105560747Y-94150866D01*
X105715248Y-94263118D01*
X105721276Y-94265802D01*
X105721278Y-94265803D01*
X105814550Y-94307330D01*
X105889712Y-94340794D01*
X105983113Y-94360647D01*
X106070056Y-94379128D01*
X106070061Y-94379128D01*
X106076513Y-94380500D01*
X106123840Y-94380500D01*
X106191961Y-94400502D01*
X106238454Y-94454158D01*
X106248558Y-94524432D01*
X106219651Y-94588330D01*
X106169448Y-94647110D01*
X106163643Y-94655101D01*
X106044795Y-94849042D01*
X106040313Y-94857837D01*
X105953266Y-95067988D01*
X105950217Y-95077373D01*
X105897115Y-95298554D01*
X105895572Y-95308301D01*
X105877725Y-95535070D01*
X105877725Y-95544930D01*
X105895572Y-95771699D01*
X105897115Y-95781446D01*
X105950217Y-96002627D01*
X105953266Y-96012012D01*
X106040313Y-96222163D01*
X106044795Y-96230958D01*
X106147432Y-96398445D01*
X106157890Y-96407907D01*
X106166666Y-96404124D01*
X107029658Y-95541132D01*
X107754408Y-95541132D01*
X107754539Y-95542965D01*
X107758790Y-95549580D01*
X108610290Y-96401080D01*
X108622670Y-96407840D01*
X108630320Y-96402113D01*
X108735205Y-96230958D01*
X108739687Y-96222163D01*
X108826734Y-96012012D01*
X108829783Y-96002627D01*
X108882885Y-95781446D01*
X108884428Y-95771699D01*
X108902275Y-95544930D01*
X122237725Y-95544930D01*
X122255572Y-95771699D01*
X122257115Y-95781446D01*
X122310217Y-96002627D01*
X122313266Y-96012012D01*
X122400313Y-96222163D01*
X122404795Y-96230958D01*
X122507432Y-96398445D01*
X122517890Y-96407907D01*
X122526666Y-96404124D01*
X123377978Y-95552812D01*
X123384356Y-95541132D01*
X124114408Y-95541132D01*
X124114539Y-95542965D01*
X124118790Y-95549580D01*
X124970290Y-96401080D01*
X124982670Y-96407840D01*
X124990320Y-96402113D01*
X125095205Y-96230958D01*
X125099687Y-96222163D01*
X125186734Y-96012012D01*
X125189783Y-96002627D01*
X125242885Y-95781446D01*
X125244428Y-95771699D01*
X125262275Y-95544930D01*
X128737725Y-95544930D01*
X128755572Y-95771699D01*
X128757115Y-95781446D01*
X128810217Y-96002627D01*
X128813266Y-96012012D01*
X128900313Y-96222163D01*
X128904795Y-96230958D01*
X129007432Y-96398445D01*
X129017890Y-96407907D01*
X129026666Y-96404124D01*
X129877978Y-95552812D01*
X129884356Y-95541132D01*
X130614408Y-95541132D01*
X130614539Y-95542965D01*
X130618790Y-95549580D01*
X131470290Y-96401080D01*
X131482670Y-96407840D01*
X131490320Y-96402113D01*
X131595205Y-96230958D01*
X131599687Y-96222163D01*
X131686734Y-96012012D01*
X131689783Y-96002627D01*
X131742885Y-95781446D01*
X131744428Y-95771699D01*
X131762275Y-95544930D01*
X131762275Y-95535070D01*
X131744428Y-95308301D01*
X131742885Y-95298554D01*
X131689783Y-95077373D01*
X131686734Y-95067988D01*
X131648039Y-94974570D01*
X143176499Y-94974570D01*
X143180283Y-94983348D01*
X144031223Y-95834288D01*
X144045167Y-95841902D01*
X144047000Y-95841771D01*
X144053615Y-95837520D01*
X144904744Y-94986391D01*
X144911504Y-94974011D01*
X144905777Y-94966361D01*
X144734757Y-94861560D01*
X144725963Y-94857079D01*
X144515888Y-94770063D01*
X144506503Y-94767014D01*
X144285401Y-94713931D01*
X144275654Y-94712388D01*
X144048965Y-94694547D01*
X144039105Y-94694547D01*
X143812416Y-94712388D01*
X143802669Y-94713931D01*
X143581567Y-94767014D01*
X143572182Y-94770063D01*
X143362107Y-94857079D01*
X143353313Y-94861560D01*
X143185959Y-94964114D01*
X143176499Y-94974570D01*
X131648039Y-94974570D01*
X131599687Y-94857837D01*
X131595205Y-94849042D01*
X131492568Y-94681555D01*
X131482110Y-94672093D01*
X131473334Y-94675876D01*
X130622022Y-95527188D01*
X130614408Y-95541132D01*
X129884356Y-95541132D01*
X129885592Y-95538868D01*
X129885461Y-95537035D01*
X129881210Y-95530420D01*
X129029710Y-94678920D01*
X129017330Y-94672160D01*
X129009680Y-94677887D01*
X128904795Y-94849042D01*
X128900313Y-94857837D01*
X128813266Y-95067988D01*
X128810217Y-95077373D01*
X128757115Y-95298554D01*
X128755572Y-95308301D01*
X128737725Y-95535070D01*
X128737725Y-95544930D01*
X125262275Y-95544930D01*
X125262275Y-95535070D01*
X125244428Y-95308301D01*
X125242885Y-95298554D01*
X125189783Y-95077373D01*
X125186734Y-95067988D01*
X125099687Y-94857837D01*
X125095205Y-94849042D01*
X124992568Y-94681555D01*
X124982110Y-94672093D01*
X124973334Y-94675876D01*
X124122022Y-95527188D01*
X124114408Y-95541132D01*
X123384356Y-95541132D01*
X123385592Y-95538868D01*
X123385461Y-95537035D01*
X123381210Y-95530420D01*
X122529710Y-94678920D01*
X122517330Y-94672160D01*
X122509680Y-94677887D01*
X122404795Y-94849042D01*
X122400313Y-94857837D01*
X122313266Y-95067988D01*
X122310217Y-95077373D01*
X122257115Y-95298554D01*
X122255572Y-95308301D01*
X122237725Y-95535070D01*
X122237725Y-95544930D01*
X108902275Y-95544930D01*
X108902275Y-95535070D01*
X108884428Y-95308301D01*
X108882885Y-95298554D01*
X108829783Y-95077373D01*
X108826734Y-95067988D01*
X108739687Y-94857837D01*
X108735205Y-94849042D01*
X108632568Y-94681555D01*
X108622110Y-94672093D01*
X108613334Y-94675876D01*
X107762022Y-95527188D01*
X107754408Y-95541132D01*
X107029658Y-95541132D01*
X108251080Y-94319710D01*
X108257534Y-94307890D01*
X122882093Y-94307890D01*
X122885876Y-94316666D01*
X123737188Y-95167978D01*
X123751132Y-95175592D01*
X123752965Y-95175461D01*
X123759580Y-95171210D01*
X124611080Y-94319710D01*
X124617534Y-94307890D01*
X129382093Y-94307890D01*
X129385876Y-94316666D01*
X130237188Y-95167978D01*
X130251132Y-95175592D01*
X130252965Y-95175461D01*
X130259580Y-95171210D01*
X131111080Y-94319710D01*
X131117840Y-94307330D01*
X131112113Y-94299680D01*
X130940958Y-94194795D01*
X130932163Y-94190313D01*
X130722012Y-94103266D01*
X130712627Y-94100217D01*
X130491446Y-94047115D01*
X130481699Y-94045572D01*
X130254930Y-94027725D01*
X130245070Y-94027725D01*
X130018301Y-94045572D01*
X130008554Y-94047115D01*
X129787373Y-94100217D01*
X129777988Y-94103266D01*
X129567837Y-94190313D01*
X129559042Y-94194795D01*
X129391555Y-94297432D01*
X129382093Y-94307890D01*
X124617534Y-94307890D01*
X124617840Y-94307330D01*
X124612113Y-94299680D01*
X124440958Y-94194795D01*
X124432163Y-94190313D01*
X124222012Y-94103266D01*
X124212627Y-94100217D01*
X123991446Y-94047115D01*
X123981699Y-94045572D01*
X123754930Y-94027725D01*
X123745070Y-94027725D01*
X123518301Y-94045572D01*
X123508554Y-94047115D01*
X123287373Y-94100217D01*
X123277988Y-94103266D01*
X123067837Y-94190313D01*
X123059042Y-94194795D01*
X122891555Y-94297432D01*
X122882093Y-94307890D01*
X108257534Y-94307890D01*
X108257840Y-94307330D01*
X108252113Y-94299680D01*
X108080958Y-94194795D01*
X108072163Y-94190313D01*
X107862012Y-94103266D01*
X107852627Y-94100217D01*
X107631446Y-94047115D01*
X107621699Y-94045572D01*
X107394930Y-94027725D01*
X107385070Y-94027725D01*
X107158301Y-94045572D01*
X107148550Y-94047116D01*
X107132405Y-94050992D01*
X107061497Y-94047444D01*
X107003763Y-94006124D01*
X106977534Y-93940150D01*
X106993873Y-93865474D01*
X107006527Y-93843556D01*
X107060895Y-93676231D01*
X107100968Y-93617626D01*
X107154529Y-93591922D01*
X107216288Y-93578794D01*
X107222319Y-93576109D01*
X107384722Y-93503803D01*
X107384724Y-93503802D01*
X107390752Y-93501118D01*
X107545253Y-93388866D01*
X107553650Y-93379540D01*
X107668621Y-93251852D01*
X107668622Y-93251851D01*
X107673040Y-93246944D01*
X107744957Y-93122381D01*
X107765223Y-93087279D01*
X107765224Y-93087278D01*
X107768527Y-93081556D01*
X107827542Y-92899928D01*
X107847504Y-92710000D01*
X107846814Y-92703435D01*
X107846814Y-92696829D01*
X107848770Y-92696829D01*
X107859860Y-92636192D01*
X107908363Y-92584346D01*
X107946202Y-92569614D01*
X107971828Y-92564167D01*
X107971827Y-92564167D01*
X107978288Y-92562794D01*
X108035385Y-92537373D01*
X108146722Y-92487803D01*
X108146724Y-92487802D01*
X108152752Y-92485118D01*
X108307253Y-92372866D01*
X108364720Y-92309042D01*
X108430621Y-92235852D01*
X108430622Y-92235851D01*
X108435040Y-92230944D01*
X108530527Y-92065556D01*
X108548720Y-92009564D01*
X144274137Y-92009564D01*
X144274361Y-92014230D01*
X144274361Y-92014236D01*
X144276826Y-92065556D01*
X144286738Y-92271906D01*
X144337978Y-92529503D01*
X144426730Y-92776697D01*
X144428946Y-92780821D01*
X144547323Y-93001132D01*
X144551044Y-93008058D01*
X144553839Y-93011801D01*
X144553841Y-93011804D01*
X144705399Y-93214765D01*
X144705404Y-93214771D01*
X144708191Y-93218503D01*
X144711500Y-93221783D01*
X144711505Y-93221789D01*
X144891400Y-93400120D01*
X144894717Y-93403408D01*
X144898479Y-93406166D01*
X144898482Y-93406169D01*
X145102751Y-93555945D01*
X145106525Y-93558712D01*
X145110668Y-93560892D01*
X145110670Y-93560893D01*
X145334812Y-93678820D01*
X145334817Y-93678822D01*
X145338962Y-93681003D01*
X145586921Y-93767595D01*
X145591514Y-93768467D01*
X145840367Y-93815713D01*
X145840370Y-93815713D01*
X145844956Y-93816584D01*
X145976177Y-93821740D01*
X146102730Y-93826713D01*
X146102736Y-93826713D01*
X146107398Y-93826896D01*
X146368481Y-93798302D01*
X146372992Y-93797114D01*
X146372994Y-93797114D01*
X146617947Y-93732624D01*
X146617950Y-93732623D01*
X146622470Y-93731433D01*
X146863785Y-93627755D01*
X147087125Y-93489548D01*
X147185617Y-93406169D01*
X147284017Y-93322868D01*
X147284019Y-93322866D01*
X147287584Y-93319848D01*
X147460757Y-93122381D01*
X147483336Y-93087279D01*
X147567016Y-92957183D01*
X147602841Y-92901487D01*
X147710714Y-92662018D01*
X147782006Y-92409235D01*
X147796554Y-92294877D01*
X147814754Y-92151821D01*
X147814754Y-92151817D01*
X147815152Y-92148691D01*
X147817580Y-92055950D01*
X147814133Y-92009564D01*
X159773217Y-92009564D01*
X159773441Y-92014230D01*
X159773441Y-92014236D01*
X159775906Y-92065556D01*
X159785818Y-92271906D01*
X159837058Y-92529503D01*
X159925810Y-92776697D01*
X159928026Y-92780821D01*
X160046403Y-93001132D01*
X160050124Y-93008058D01*
X160052919Y-93011801D01*
X160052921Y-93011804D01*
X160204479Y-93214765D01*
X160204484Y-93214771D01*
X160207271Y-93218503D01*
X160210580Y-93221783D01*
X160210585Y-93221789D01*
X160390480Y-93400120D01*
X160393797Y-93403408D01*
X160397559Y-93406166D01*
X160397562Y-93406169D01*
X160601831Y-93555945D01*
X160605605Y-93558712D01*
X160609748Y-93560892D01*
X160609750Y-93560893D01*
X160833892Y-93678820D01*
X160833897Y-93678822D01*
X160838042Y-93681003D01*
X161086001Y-93767595D01*
X161090594Y-93768467D01*
X161339447Y-93815713D01*
X161339450Y-93815713D01*
X161344036Y-93816584D01*
X161475257Y-93821740D01*
X161601810Y-93826713D01*
X161601816Y-93826713D01*
X161606478Y-93826896D01*
X161867561Y-93798302D01*
X161872072Y-93797114D01*
X161872074Y-93797114D01*
X162117027Y-93732624D01*
X162117030Y-93732623D01*
X162121550Y-93731433D01*
X162362865Y-93627755D01*
X162586205Y-93489548D01*
X162684697Y-93406169D01*
X162783097Y-93322868D01*
X162783099Y-93322866D01*
X162786664Y-93319848D01*
X162959837Y-93122381D01*
X162982416Y-93087279D01*
X163066096Y-92957183D01*
X163101921Y-92901487D01*
X163209794Y-92662018D01*
X163281086Y-92409235D01*
X163295634Y-92294877D01*
X163313834Y-92151821D01*
X163313834Y-92151817D01*
X163314232Y-92148691D01*
X163316660Y-92055950D01*
X163308770Y-91949780D01*
X163297542Y-91798680D01*
X163297541Y-91798676D01*
X163297196Y-91794028D01*
X163239231Y-91537860D01*
X163237538Y-91533506D01*
X163145732Y-91297427D01*
X163145731Y-91297425D01*
X163144039Y-91293074D01*
X163013710Y-91065046D01*
X162851109Y-90858787D01*
X162659806Y-90678828D01*
X162498216Y-90566729D01*
X162447848Y-90531787D01*
X162447845Y-90531785D01*
X162444006Y-90529122D01*
X162439813Y-90527054D01*
X162212635Y-90415022D01*
X162212632Y-90415021D01*
X162208447Y-90412957D01*
X162170388Y-90400774D01*
X162137192Y-90390148D01*
X161958306Y-90332886D01*
X161953699Y-90332136D01*
X161953696Y-90332135D01*
X161703688Y-90291419D01*
X161703689Y-90291419D01*
X161699077Y-90290668D01*
X161571528Y-90288998D01*
X161441132Y-90287291D01*
X161441129Y-90287291D01*
X161436455Y-90287230D01*
X161176210Y-90322648D01*
X160924059Y-90396143D01*
X160919806Y-90398103D01*
X160919805Y-90398104D01*
X160890673Y-90411534D01*
X160685540Y-90506102D01*
X160681631Y-90508665D01*
X160469808Y-90647542D01*
X160469803Y-90647546D01*
X160465895Y-90650108D01*
X160269947Y-90824998D01*
X160102002Y-91026930D01*
X159965749Y-91251467D01*
X159963940Y-91255781D01*
X159963938Y-91255785D01*
X159874554Y-91468944D01*
X159864182Y-91493678D01*
X159799531Y-91748241D01*
X159773217Y-92009564D01*
X147814133Y-92009564D01*
X147809690Y-91949780D01*
X147798462Y-91798680D01*
X147798461Y-91798676D01*
X147798116Y-91794028D01*
X147740151Y-91537860D01*
X147738458Y-91533506D01*
X147646652Y-91297427D01*
X147646651Y-91297425D01*
X147644959Y-91293074D01*
X147514630Y-91065046D01*
X147352029Y-90858787D01*
X147160726Y-90678828D01*
X146999136Y-90566729D01*
X146948768Y-90531787D01*
X146948765Y-90531785D01*
X146944926Y-90529122D01*
X146940733Y-90527054D01*
X146796143Y-90455750D01*
X149031242Y-90455750D01*
X149049865Y-90692381D01*
X149105277Y-90923185D01*
X149107167Y-90927748D01*
X149107169Y-90927754D01*
X149194216Y-91137906D01*
X149196111Y-91142480D01*
X149320133Y-91344865D01*
X149474288Y-91525357D01*
X149654780Y-91679512D01*
X149857165Y-91803534D01*
X149861735Y-91805427D01*
X149861739Y-91805429D01*
X150071891Y-91892476D01*
X150071897Y-91892478D01*
X150076460Y-91894368D01*
X150081260Y-91895520D01*
X150081265Y-91895522D01*
X150186680Y-91920830D01*
X150307264Y-91949780D01*
X150543895Y-91968403D01*
X150780526Y-91949780D01*
X150901110Y-91920830D01*
X151006525Y-91895522D01*
X151006530Y-91895520D01*
X151011330Y-91894368D01*
X151015893Y-91892478D01*
X151015899Y-91892476D01*
X151226051Y-91805429D01*
X151226055Y-91805427D01*
X151230625Y-91803534D01*
X151433010Y-91679512D01*
X151613502Y-91525357D01*
X151767657Y-91344865D01*
X151891679Y-91142480D01*
X151893574Y-91137906D01*
X151980621Y-90927754D01*
X151980623Y-90927748D01*
X151982513Y-90923185D01*
X152037925Y-90692381D01*
X152056548Y-90455750D01*
X155533642Y-90455750D01*
X155552265Y-90692381D01*
X155607677Y-90923185D01*
X155609567Y-90927748D01*
X155609569Y-90927754D01*
X155696616Y-91137906D01*
X155698511Y-91142480D01*
X155822533Y-91344865D01*
X155976688Y-91525357D01*
X156157180Y-91679512D01*
X156359565Y-91803534D01*
X156364135Y-91805427D01*
X156364139Y-91805429D01*
X156574291Y-91892476D01*
X156574297Y-91892478D01*
X156578860Y-91894368D01*
X156583660Y-91895520D01*
X156583665Y-91895522D01*
X156689080Y-91920830D01*
X156809664Y-91949780D01*
X157046295Y-91968403D01*
X157282926Y-91949780D01*
X157403510Y-91920830D01*
X157508925Y-91895522D01*
X157508930Y-91895520D01*
X157513730Y-91894368D01*
X157518293Y-91892478D01*
X157518299Y-91892476D01*
X157728451Y-91805429D01*
X157728455Y-91805427D01*
X157733025Y-91803534D01*
X157935410Y-91679512D01*
X158115902Y-91525357D01*
X158270057Y-91344865D01*
X158394079Y-91142480D01*
X158395974Y-91137906D01*
X158483021Y-90927754D01*
X158483023Y-90927748D01*
X158484913Y-90923185D01*
X158540325Y-90692381D01*
X158558948Y-90455750D01*
X158540325Y-90219119D01*
X158493690Y-90024872D01*
X158486067Y-89993120D01*
X158486065Y-89993115D01*
X158484913Y-89988315D01*
X158483023Y-89983752D01*
X158483021Y-89983746D01*
X158395974Y-89773594D01*
X158395972Y-89773590D01*
X158394079Y-89769020D01*
X158270057Y-89566635D01*
X158115902Y-89386143D01*
X157935410Y-89231988D01*
X157733025Y-89107966D01*
X157728455Y-89106073D01*
X157728451Y-89106071D01*
X157518299Y-89019024D01*
X157518293Y-89019022D01*
X157513730Y-89017132D01*
X157508930Y-89015980D01*
X157508925Y-89015978D01*
X157403510Y-88990670D01*
X157282926Y-88961720D01*
X157046295Y-88943097D01*
X156809664Y-88961720D01*
X156689080Y-88990670D01*
X156583665Y-89015978D01*
X156583660Y-89015980D01*
X156578860Y-89017132D01*
X156574297Y-89019022D01*
X156574291Y-89019024D01*
X156364139Y-89106071D01*
X156364135Y-89106073D01*
X156359565Y-89107966D01*
X156157180Y-89231988D01*
X155976688Y-89386143D01*
X155822533Y-89566635D01*
X155698511Y-89769020D01*
X155696618Y-89773590D01*
X155696616Y-89773594D01*
X155609569Y-89983746D01*
X155609567Y-89983752D01*
X155607677Y-89988315D01*
X155606525Y-89993115D01*
X155606523Y-89993120D01*
X155598900Y-90024872D01*
X155552265Y-90219119D01*
X155533642Y-90455750D01*
X152056548Y-90455750D01*
X152037925Y-90219119D01*
X151991290Y-90024872D01*
X151983667Y-89993120D01*
X151983665Y-89993115D01*
X151982513Y-89988315D01*
X151980623Y-89983752D01*
X151980621Y-89983746D01*
X151893574Y-89773594D01*
X151893572Y-89773590D01*
X151891679Y-89769020D01*
X151767657Y-89566635D01*
X151613502Y-89386143D01*
X151433010Y-89231988D01*
X151230625Y-89107966D01*
X151226055Y-89106073D01*
X151226051Y-89106071D01*
X151015899Y-89019024D01*
X151015893Y-89019022D01*
X151011330Y-89017132D01*
X151006530Y-89015980D01*
X151006525Y-89015978D01*
X150901110Y-88990670D01*
X150780526Y-88961720D01*
X150543895Y-88943097D01*
X150307264Y-88961720D01*
X150186680Y-88990670D01*
X150081265Y-89015978D01*
X150081260Y-89015980D01*
X150076460Y-89017132D01*
X150071897Y-89019022D01*
X150071891Y-89019024D01*
X149861739Y-89106071D01*
X149861735Y-89106073D01*
X149857165Y-89107966D01*
X149654780Y-89231988D01*
X149474288Y-89386143D01*
X149320133Y-89566635D01*
X149196111Y-89769020D01*
X149194218Y-89773590D01*
X149194216Y-89773594D01*
X149107169Y-89983746D01*
X149107167Y-89983752D01*
X149105277Y-89988315D01*
X149104125Y-89993115D01*
X149104123Y-89993120D01*
X149096500Y-90024872D01*
X149049865Y-90219119D01*
X149031242Y-90455750D01*
X146796143Y-90455750D01*
X146713555Y-90415022D01*
X146713552Y-90415021D01*
X146709367Y-90412957D01*
X146671308Y-90400774D01*
X146638112Y-90390148D01*
X146459226Y-90332886D01*
X146454619Y-90332136D01*
X146454616Y-90332135D01*
X146204608Y-90291419D01*
X146204609Y-90291419D01*
X146199997Y-90290668D01*
X146072448Y-90288998D01*
X145942052Y-90287291D01*
X145942049Y-90287291D01*
X145937375Y-90287230D01*
X145677130Y-90322648D01*
X145424979Y-90396143D01*
X145420726Y-90398103D01*
X145420725Y-90398104D01*
X145391593Y-90411534D01*
X145186460Y-90506102D01*
X145182551Y-90508665D01*
X144970728Y-90647542D01*
X144970723Y-90647546D01*
X144966815Y-90650108D01*
X144770867Y-90824998D01*
X144602922Y-91026930D01*
X144466669Y-91251467D01*
X144464860Y-91255781D01*
X144464858Y-91255785D01*
X144375474Y-91468944D01*
X144365102Y-91493678D01*
X144300451Y-91748241D01*
X144274137Y-92009564D01*
X108548720Y-92009564D01*
X108575364Y-91927563D01*
X108615438Y-91868958D01*
X108680835Y-91841321D01*
X108695197Y-91840500D01*
X108807487Y-91840500D01*
X108813939Y-91839128D01*
X108813944Y-91839128D01*
X108900887Y-91820647D01*
X108994288Y-91800794D01*
X109009485Y-91794028D01*
X109162722Y-91725803D01*
X109162724Y-91725802D01*
X109168752Y-91723118D01*
X109180701Y-91714437D01*
X109268959Y-91650313D01*
X109323253Y-91610866D01*
X109400246Y-91525357D01*
X109446621Y-91473852D01*
X109446622Y-91473851D01*
X109451040Y-91468944D01*
X109520507Y-91348624D01*
X109543223Y-91309279D01*
X109543224Y-91309278D01*
X109546527Y-91303556D01*
X109605542Y-91121928D01*
X109611521Y-91065046D01*
X109624814Y-90938565D01*
X109625504Y-90932000D01*
X109624578Y-90923185D01*
X109606232Y-90748635D01*
X109606232Y-90748633D01*
X109605542Y-90742072D01*
X109546527Y-90560444D01*
X109451040Y-90395056D01*
X109385277Y-90322018D01*
X109327675Y-90258045D01*
X109327674Y-90258044D01*
X109323253Y-90253134D01*
X109168752Y-90140882D01*
X109162724Y-90138198D01*
X109162722Y-90138197D01*
X109000319Y-90065891D01*
X109000318Y-90065891D01*
X108994288Y-90063206D01*
X108900887Y-90043353D01*
X108813944Y-90024872D01*
X108813939Y-90024872D01*
X108807487Y-90023500D01*
X108616513Y-90023500D01*
X108610061Y-90024872D01*
X108610056Y-90024872D01*
X108523113Y-90043353D01*
X108429712Y-90063206D01*
X108423685Y-90065889D01*
X108423677Y-90065892D01*
X108371405Y-90089166D01*
X108301038Y-90098601D01*
X108236741Y-90068495D01*
X108231059Y-90063155D01*
X107691647Y-89523742D01*
X107684113Y-89515463D01*
X107680000Y-89508982D01*
X107630348Y-89462356D01*
X107627507Y-89459602D01*
X107607770Y-89439865D01*
X107604573Y-89437385D01*
X107595551Y-89429680D01*
X107569100Y-89404841D01*
X107563321Y-89399414D01*
X107556375Y-89395595D01*
X107556372Y-89395593D01*
X107545566Y-89389652D01*
X107529047Y-89378801D01*
X107528583Y-89378441D01*
X107513041Y-89366386D01*
X107505772Y-89363241D01*
X107505768Y-89363238D01*
X107472463Y-89348826D01*
X107461813Y-89343609D01*
X107423060Y-89322305D01*
X107403437Y-89317267D01*
X107384734Y-89310863D01*
X107373420Y-89305967D01*
X107373419Y-89305967D01*
X107366145Y-89302819D01*
X107358322Y-89301580D01*
X107358312Y-89301577D01*
X107322476Y-89295901D01*
X107310856Y-89293495D01*
X107275711Y-89284472D01*
X107275710Y-89284472D01*
X107268030Y-89282500D01*
X107247776Y-89282500D01*
X107228065Y-89280949D01*
X107215886Y-89279020D01*
X107208057Y-89277780D01*
X107200165Y-89278526D01*
X107164039Y-89281941D01*
X107152181Y-89282500D01*
X99374594Y-89282500D01*
X99306473Y-89262498D01*
X99285499Y-89245595D01*
X99245122Y-89205218D01*
X99211096Y-89142906D01*
X99208907Y-89129293D01*
X99206467Y-89106071D01*
X99197119Y-89017132D01*
X99192232Y-88970635D01*
X99192232Y-88970633D01*
X99191542Y-88964072D01*
X99132527Y-88782444D01*
X99037040Y-88617056D01*
X99030687Y-88610000D01*
X110806835Y-88610000D01*
X110825465Y-88846711D01*
X110826619Y-88851518D01*
X110826620Y-88851524D01*
X110852983Y-88961332D01*
X110880895Y-89077594D01*
X110882788Y-89082165D01*
X110882789Y-89082167D01*
X110965538Y-89281941D01*
X110971760Y-89296963D01*
X110974346Y-89301183D01*
X111093241Y-89495202D01*
X111093245Y-89495208D01*
X111095824Y-89499416D01*
X111250031Y-89679969D01*
X111430584Y-89834176D01*
X111434792Y-89836755D01*
X111434798Y-89836759D01*
X111564108Y-89916000D01*
X111633037Y-89958240D01*
X111637607Y-89960133D01*
X111637611Y-89960135D01*
X111847833Y-90047211D01*
X111852406Y-90049105D01*
X111910929Y-90063155D01*
X112078476Y-90103380D01*
X112078482Y-90103381D01*
X112083289Y-90104535D01*
X112320000Y-90123165D01*
X112556711Y-90104535D01*
X112561518Y-90103381D01*
X112561524Y-90103380D01*
X112729071Y-90063155D01*
X112787594Y-90049105D01*
X112792167Y-90047211D01*
X113002389Y-89960135D01*
X113002393Y-89960133D01*
X113006963Y-89958240D01*
X113075892Y-89916000D01*
X113205202Y-89836759D01*
X113205208Y-89836755D01*
X113209416Y-89834176D01*
X113389969Y-89679969D01*
X113544176Y-89499416D01*
X113546755Y-89495208D01*
X113546759Y-89495202D01*
X113664133Y-89303665D01*
X113716781Y-89256034D01*
X113771566Y-89243500D01*
X117368434Y-89243500D01*
X117436555Y-89263502D01*
X117475867Y-89303665D01*
X117593241Y-89495202D01*
X117593245Y-89495208D01*
X117595824Y-89499416D01*
X117750031Y-89679969D01*
X117930584Y-89834176D01*
X117934792Y-89836755D01*
X117934798Y-89836759D01*
X118064108Y-89916000D01*
X118133037Y-89958240D01*
X118137607Y-89960133D01*
X118137611Y-89960135D01*
X118347833Y-90047211D01*
X118352406Y-90049105D01*
X118410929Y-90063155D01*
X118578476Y-90103380D01*
X118578482Y-90103381D01*
X118583289Y-90104535D01*
X118820000Y-90123165D01*
X119056711Y-90104535D01*
X119061518Y-90103381D01*
X119061524Y-90103380D01*
X119229071Y-90063155D01*
X119287594Y-90049105D01*
X119292167Y-90047211D01*
X119502389Y-89960135D01*
X119502393Y-89960133D01*
X119506963Y-89958240D01*
X119575892Y-89916000D01*
X119705202Y-89836759D01*
X119705208Y-89836755D01*
X119709416Y-89834176D01*
X119889969Y-89679969D01*
X120044176Y-89499416D01*
X120046755Y-89495208D01*
X120046759Y-89495202D01*
X120165654Y-89301183D01*
X120168240Y-89296963D01*
X120174463Y-89281941D01*
X120257211Y-89082167D01*
X120257212Y-89082165D01*
X120259105Y-89077594D01*
X120287017Y-88961332D01*
X120313380Y-88851524D01*
X120313381Y-88851518D01*
X120314535Y-88846711D01*
X120333165Y-88610000D01*
X120314535Y-88373289D01*
X120312969Y-88366763D01*
X120260260Y-88147218D01*
X120259105Y-88142406D01*
X120190385Y-87976500D01*
X120170135Y-87927611D01*
X120170133Y-87927607D01*
X120168240Y-87923037D01*
X120164133Y-87916335D01*
X120046759Y-87724798D01*
X120046755Y-87724792D01*
X120044176Y-87720584D01*
X119889969Y-87540031D01*
X119709416Y-87385824D01*
X119705208Y-87383245D01*
X119705202Y-87383241D01*
X119511183Y-87264346D01*
X119506963Y-87261760D01*
X119502393Y-87259867D01*
X119502389Y-87259865D01*
X119292167Y-87172789D01*
X119292165Y-87172788D01*
X119287594Y-87170895D01*
X119207391Y-87151640D01*
X119061524Y-87116620D01*
X119061518Y-87116619D01*
X119056711Y-87115465D01*
X118820000Y-87096835D01*
X118583289Y-87115465D01*
X118578482Y-87116619D01*
X118578476Y-87116620D01*
X118432609Y-87151640D01*
X118352406Y-87170895D01*
X118347835Y-87172788D01*
X118347833Y-87172789D01*
X118137611Y-87259865D01*
X118137607Y-87259867D01*
X118133037Y-87261760D01*
X118128817Y-87264346D01*
X117934798Y-87383241D01*
X117934792Y-87383245D01*
X117930584Y-87385824D01*
X117750031Y-87540031D01*
X117595824Y-87720584D01*
X117593245Y-87724792D01*
X117593241Y-87724798D01*
X117475867Y-87916335D01*
X117423219Y-87963966D01*
X117368434Y-87976500D01*
X113771566Y-87976500D01*
X113703445Y-87956498D01*
X113664133Y-87916335D01*
X113546759Y-87724798D01*
X113546755Y-87724792D01*
X113544176Y-87720584D01*
X113389969Y-87540031D01*
X113209416Y-87385824D01*
X113205208Y-87383245D01*
X113205202Y-87383241D01*
X113011183Y-87264346D01*
X113006963Y-87261760D01*
X113002393Y-87259867D01*
X113002389Y-87259865D01*
X112792167Y-87172789D01*
X112792165Y-87172788D01*
X112787594Y-87170895D01*
X112707391Y-87151640D01*
X112561524Y-87116620D01*
X112561518Y-87116619D01*
X112556711Y-87115465D01*
X112320000Y-87096835D01*
X112083289Y-87115465D01*
X112078482Y-87116619D01*
X112078476Y-87116620D01*
X111932609Y-87151640D01*
X111852406Y-87170895D01*
X111847835Y-87172788D01*
X111847833Y-87172789D01*
X111637611Y-87259865D01*
X111637607Y-87259867D01*
X111633037Y-87261760D01*
X111628817Y-87264346D01*
X111434798Y-87383241D01*
X111434792Y-87383245D01*
X111430584Y-87385824D01*
X111250031Y-87540031D01*
X111095824Y-87720584D01*
X111093245Y-87724792D01*
X111093241Y-87724798D01*
X110975867Y-87916335D01*
X110971760Y-87923037D01*
X110969867Y-87927607D01*
X110969865Y-87927611D01*
X110949615Y-87976500D01*
X110880895Y-88142406D01*
X110879740Y-88147218D01*
X110827032Y-88366763D01*
X110825465Y-88373289D01*
X110806835Y-88610000D01*
X99030687Y-88610000D01*
X98909253Y-88475134D01*
X98769076Y-88373289D01*
X98760094Y-88366763D01*
X98760093Y-88366762D01*
X98754752Y-88362882D01*
X98748724Y-88360198D01*
X98748722Y-88360197D01*
X98586319Y-88287891D01*
X98586318Y-88287891D01*
X98580288Y-88285206D01*
X98486887Y-88265353D01*
X98399944Y-88246872D01*
X98399939Y-88246872D01*
X98393487Y-88245500D01*
X98202513Y-88245500D01*
X98196061Y-88246872D01*
X98196056Y-88246872D01*
X98109113Y-88265353D01*
X98015712Y-88285206D01*
X98009682Y-88287891D01*
X98009681Y-88287891D01*
X97847278Y-88360197D01*
X97847276Y-88360198D01*
X97841248Y-88362882D01*
X97835907Y-88366762D01*
X97835906Y-88366763D01*
X97826924Y-88373289D01*
X97686747Y-88475134D01*
X97558960Y-88617056D01*
X97463473Y-88782444D01*
X97404458Y-88964072D01*
X97403768Y-88970633D01*
X97403768Y-88970635D01*
X97387093Y-89129293D01*
X97384496Y-89154000D01*
X97385186Y-89160565D01*
X97401397Y-89314801D01*
X97404458Y-89343928D01*
X97463473Y-89525556D01*
X97558960Y-89690944D01*
X97563378Y-89695851D01*
X97563379Y-89695852D01*
X97685688Y-89831690D01*
X97716406Y-89895697D01*
X97707641Y-89966151D01*
X97685688Y-90000310D01*
X97591844Y-90104535D01*
X97558960Y-90141056D01*
X97555659Y-90146774D01*
X97472617Y-90290607D01*
X97463473Y-90306444D01*
X97404458Y-90488072D01*
X97403768Y-90494633D01*
X97403768Y-90494635D01*
X97399863Y-90531787D01*
X97384496Y-90678000D01*
X97404458Y-90867928D01*
X97427410Y-90938565D01*
X97442422Y-90984768D01*
X97444450Y-91055735D01*
X97407787Y-91116533D01*
X97373838Y-91138810D01*
X97365596Y-91142480D01*
X97339280Y-91154196D01*
X97339277Y-91154198D01*
X97333248Y-91156882D01*
X97178747Y-91269134D01*
X97174326Y-91274044D01*
X97174325Y-91274045D01*
X97110559Y-91344865D01*
X97050960Y-91411056D01*
X97047659Y-91416774D01*
X96975119Y-91542417D01*
X96955473Y-91576444D01*
X96953432Y-91582726D01*
X96910636Y-91714437D01*
X96870562Y-91773042D01*
X96805165Y-91800679D01*
X96790803Y-91801500D01*
X96678513Y-91801500D01*
X96672061Y-91802872D01*
X96672056Y-91802872D01*
X96585112Y-91821353D01*
X96491712Y-91841206D01*
X96485682Y-91843891D01*
X96485681Y-91843891D01*
X96323278Y-91916197D01*
X96323276Y-91916198D01*
X96317248Y-91918882D01*
X96311907Y-91922762D01*
X96311906Y-91922763D01*
X96276310Y-91948625D01*
X96162747Y-92031134D01*
X96158326Y-92036044D01*
X96158325Y-92036045D01*
X96063324Y-92141555D01*
X96034960Y-92173056D01*
X95939473Y-92338444D01*
X95880458Y-92520072D01*
X95879768Y-92526633D01*
X95879768Y-92526635D01*
X95868253Y-92636192D01*
X95860496Y-92710000D01*
X89408500Y-92710000D01*
X89408500Y-86056470D01*
X149031242Y-86056470D01*
X149049865Y-86293101D01*
X149051020Y-86297910D01*
X149104085Y-86518938D01*
X149105277Y-86523905D01*
X149107167Y-86528468D01*
X149107169Y-86528474D01*
X149194122Y-86738398D01*
X149196111Y-86743200D01*
X149320133Y-86945585D01*
X149474288Y-87126077D01*
X149654780Y-87280232D01*
X149857165Y-87404254D01*
X149861735Y-87406147D01*
X149861739Y-87406149D01*
X150071891Y-87493196D01*
X150071897Y-87493198D01*
X150076460Y-87495088D01*
X150081260Y-87496240D01*
X150081265Y-87496242D01*
X150186680Y-87521550D01*
X150307264Y-87550500D01*
X150543895Y-87569123D01*
X150780526Y-87550500D01*
X150901110Y-87521550D01*
X151006525Y-87496242D01*
X151006530Y-87496240D01*
X151011330Y-87495088D01*
X151015893Y-87493198D01*
X151015899Y-87493196D01*
X151226051Y-87406149D01*
X151226055Y-87406147D01*
X151230625Y-87404254D01*
X151419079Y-87288769D01*
X156178826Y-87288769D01*
X156184553Y-87296419D01*
X156355573Y-87401220D01*
X156364367Y-87405701D01*
X156574442Y-87492717D01*
X156583827Y-87495766D01*
X156804929Y-87548849D01*
X156814676Y-87550392D01*
X157041365Y-87568233D01*
X157051225Y-87568233D01*
X157277914Y-87550392D01*
X157287661Y-87548849D01*
X157508763Y-87495766D01*
X157518148Y-87492717D01*
X157728223Y-87405701D01*
X157737017Y-87401220D01*
X157904371Y-87298666D01*
X157913831Y-87288210D01*
X157910047Y-87279432D01*
X157059107Y-86428492D01*
X157045163Y-86420878D01*
X157043330Y-86421009D01*
X157036715Y-86425260D01*
X156185586Y-87276389D01*
X156178826Y-87288769D01*
X151419079Y-87288769D01*
X151433010Y-87280232D01*
X151613502Y-87126077D01*
X151767657Y-86945585D01*
X151891679Y-86743200D01*
X151893668Y-86738398D01*
X151980621Y-86528474D01*
X151980623Y-86528468D01*
X151982513Y-86523905D01*
X151983706Y-86518938D01*
X152036770Y-86297910D01*
X152037925Y-86293101D01*
X152056160Y-86061400D01*
X155534532Y-86061400D01*
X155552373Y-86288089D01*
X155553916Y-86297836D01*
X155606999Y-86518938D01*
X155610048Y-86528323D01*
X155697064Y-86738398D01*
X155701545Y-86747192D01*
X155804099Y-86914546D01*
X155814555Y-86924006D01*
X155823333Y-86920222D01*
X156674273Y-86069282D01*
X156680651Y-86057602D01*
X157410703Y-86057602D01*
X157410834Y-86059435D01*
X157415085Y-86066050D01*
X158266214Y-86917179D01*
X158278594Y-86923939D01*
X158286244Y-86918212D01*
X158391045Y-86747192D01*
X158395526Y-86738398D01*
X158482542Y-86528323D01*
X158485591Y-86518938D01*
X158538674Y-86297836D01*
X158540217Y-86288089D01*
X158558058Y-86061400D01*
X158558058Y-86051540D01*
X158540217Y-85824851D01*
X158538674Y-85815104D01*
X158485591Y-85594002D01*
X158482542Y-85584617D01*
X158395526Y-85374542D01*
X158391045Y-85365748D01*
X158288491Y-85198394D01*
X158278035Y-85188934D01*
X158269257Y-85192718D01*
X157418317Y-86043658D01*
X157410703Y-86057602D01*
X156680651Y-86057602D01*
X156681887Y-86055338D01*
X156681756Y-86053505D01*
X156677505Y-86046890D01*
X155826376Y-85195761D01*
X155813996Y-85189001D01*
X155806346Y-85194728D01*
X155701545Y-85365748D01*
X155697064Y-85374542D01*
X155610048Y-85584617D01*
X155606999Y-85594002D01*
X155553916Y-85815104D01*
X155552373Y-85824851D01*
X155534532Y-86051540D01*
X155534532Y-86061400D01*
X152056160Y-86061400D01*
X152056548Y-86056470D01*
X152037925Y-85819839D01*
X152005420Y-85684448D01*
X151983667Y-85593840D01*
X151983665Y-85593835D01*
X151982513Y-85589035D01*
X151980623Y-85584472D01*
X151980621Y-85584466D01*
X151893574Y-85374314D01*
X151893572Y-85374310D01*
X151891679Y-85369740D01*
X151767657Y-85167355D01*
X151613502Y-84986863D01*
X151433010Y-84832708D01*
X151419991Y-84824730D01*
X156178759Y-84824730D01*
X156182543Y-84833508D01*
X157033483Y-85684448D01*
X157047427Y-85692062D01*
X157049260Y-85691931D01*
X157055875Y-85687680D01*
X157907004Y-84836551D01*
X157913764Y-84824171D01*
X157908037Y-84816521D01*
X157737017Y-84711720D01*
X157728223Y-84707239D01*
X157518148Y-84620223D01*
X157508763Y-84617174D01*
X157287661Y-84564091D01*
X157277914Y-84562548D01*
X157051225Y-84544707D01*
X157041365Y-84544707D01*
X156814676Y-84562548D01*
X156804929Y-84564091D01*
X156583827Y-84617174D01*
X156574442Y-84620223D01*
X156364367Y-84707239D01*
X156355573Y-84711720D01*
X156188219Y-84814274D01*
X156178759Y-84824730D01*
X151419991Y-84824730D01*
X151230625Y-84708686D01*
X151226055Y-84706793D01*
X151226051Y-84706791D01*
X151015899Y-84619744D01*
X151015893Y-84619742D01*
X151011330Y-84617852D01*
X151006530Y-84616700D01*
X151006525Y-84616698D01*
X150901110Y-84591390D01*
X150780526Y-84562440D01*
X150543895Y-84543817D01*
X150307264Y-84562440D01*
X150186680Y-84591390D01*
X150081265Y-84616698D01*
X150081260Y-84616700D01*
X150076460Y-84617852D01*
X150071897Y-84619742D01*
X150071891Y-84619744D01*
X149861739Y-84706791D01*
X149861735Y-84706793D01*
X149857165Y-84708686D01*
X149654780Y-84832708D01*
X149474288Y-84986863D01*
X149320133Y-85167355D01*
X149196111Y-85369740D01*
X149194218Y-85374310D01*
X149194216Y-85374314D01*
X149107169Y-85584466D01*
X149107167Y-85584472D01*
X149105277Y-85589035D01*
X149104125Y-85593835D01*
X149104123Y-85593840D01*
X149082370Y-85684448D01*
X149049865Y-85819839D01*
X149031242Y-86056470D01*
X89408500Y-86056470D01*
X89408500Y-84074000D01*
X91904502Y-84074000D01*
X91924457Y-84302087D01*
X91925881Y-84307400D01*
X91925881Y-84307402D01*
X91970631Y-84474408D01*
X91983716Y-84523243D01*
X91986039Y-84528224D01*
X91986039Y-84528225D01*
X92078151Y-84725762D01*
X92078154Y-84725767D01*
X92080477Y-84730749D01*
X92211802Y-84918300D01*
X92373700Y-85080198D01*
X92378208Y-85083355D01*
X92378211Y-85083357D01*
X92456389Y-85138098D01*
X92561251Y-85211523D01*
X92566233Y-85213846D01*
X92566238Y-85213849D01*
X92763775Y-85305961D01*
X92768757Y-85308284D01*
X92774065Y-85309706D01*
X92774067Y-85309707D01*
X92984598Y-85366119D01*
X92984600Y-85366119D01*
X92989913Y-85367543D01*
X93218000Y-85387498D01*
X93446087Y-85367543D01*
X93451400Y-85366119D01*
X93451402Y-85366119D01*
X93661933Y-85309707D01*
X93661935Y-85309706D01*
X93667243Y-85308284D01*
X93672225Y-85305961D01*
X93869762Y-85213849D01*
X93869767Y-85213846D01*
X93874749Y-85211523D01*
X93979611Y-85138098D01*
X94057789Y-85083357D01*
X94057792Y-85083355D01*
X94062300Y-85080198D01*
X94224198Y-84918300D01*
X94355523Y-84730749D01*
X94357846Y-84725767D01*
X94357849Y-84725762D01*
X94449961Y-84528225D01*
X94449961Y-84528224D01*
X94452284Y-84523243D01*
X94465370Y-84474408D01*
X94510119Y-84307402D01*
X94510119Y-84307400D01*
X94511543Y-84302087D01*
X94531498Y-84074000D01*
X99524502Y-84074000D01*
X99544457Y-84302087D01*
X99545881Y-84307400D01*
X99545881Y-84307402D01*
X99590631Y-84474408D01*
X99603716Y-84523243D01*
X99606039Y-84528224D01*
X99606039Y-84528225D01*
X99698151Y-84725762D01*
X99698154Y-84725767D01*
X99700477Y-84730749D01*
X99831802Y-84918300D01*
X99993700Y-85080198D01*
X99998208Y-85083355D01*
X99998211Y-85083357D01*
X100076389Y-85138098D01*
X100181251Y-85211523D01*
X100186233Y-85213846D01*
X100186238Y-85213849D01*
X100383775Y-85305961D01*
X100388757Y-85308284D01*
X100394065Y-85309706D01*
X100394067Y-85309707D01*
X100604598Y-85366119D01*
X100604600Y-85366119D01*
X100609913Y-85367543D01*
X100838000Y-85387498D01*
X101066087Y-85367543D01*
X101071400Y-85366119D01*
X101071402Y-85366119D01*
X101158914Y-85342670D01*
X111452160Y-85342670D01*
X111457887Y-85350320D01*
X111629042Y-85455205D01*
X111637837Y-85459687D01*
X111847988Y-85546734D01*
X111857373Y-85549783D01*
X112078554Y-85602885D01*
X112088301Y-85604428D01*
X112315070Y-85622275D01*
X112324930Y-85622275D01*
X112551699Y-85604428D01*
X112561446Y-85602885D01*
X112782627Y-85549783D01*
X112792012Y-85546734D01*
X113002163Y-85459687D01*
X113010958Y-85455205D01*
X113178445Y-85352568D01*
X113187400Y-85342670D01*
X117952160Y-85342670D01*
X117957887Y-85350320D01*
X118129042Y-85455205D01*
X118137837Y-85459687D01*
X118347988Y-85546734D01*
X118357373Y-85549783D01*
X118578554Y-85602885D01*
X118588301Y-85604428D01*
X118815070Y-85622275D01*
X118824930Y-85622275D01*
X119051699Y-85604428D01*
X119061446Y-85602885D01*
X119282627Y-85549783D01*
X119292012Y-85546734D01*
X119502163Y-85459687D01*
X119510958Y-85455205D01*
X119678445Y-85352568D01*
X119687907Y-85342110D01*
X119684124Y-85333334D01*
X118832812Y-84482022D01*
X118818868Y-84474408D01*
X118817035Y-84474539D01*
X118810420Y-84478790D01*
X117958920Y-85330290D01*
X117952160Y-85342670D01*
X113187400Y-85342670D01*
X113187907Y-85342110D01*
X113184124Y-85333334D01*
X112332812Y-84482022D01*
X112318868Y-84474408D01*
X112317035Y-84474539D01*
X112310420Y-84478790D01*
X111458920Y-85330290D01*
X111452160Y-85342670D01*
X101158914Y-85342670D01*
X101281933Y-85309707D01*
X101281935Y-85309706D01*
X101287243Y-85308284D01*
X101292225Y-85305961D01*
X101489762Y-85213849D01*
X101489767Y-85213846D01*
X101494749Y-85211523D01*
X101599611Y-85138098D01*
X101677789Y-85083357D01*
X101677792Y-85083355D01*
X101682300Y-85080198D01*
X101844198Y-84918300D01*
X101975523Y-84730749D01*
X101977846Y-84725767D01*
X101977849Y-84725762D01*
X102069961Y-84528225D01*
X102069961Y-84528224D01*
X102072284Y-84523243D01*
X102085370Y-84474408D01*
X102130119Y-84307402D01*
X102130119Y-84307400D01*
X102131543Y-84302087D01*
X102147917Y-84114930D01*
X110807725Y-84114930D01*
X110825572Y-84341699D01*
X110827115Y-84351446D01*
X110880217Y-84572627D01*
X110883266Y-84582012D01*
X110970313Y-84792163D01*
X110974795Y-84800958D01*
X111077432Y-84968445D01*
X111087890Y-84977907D01*
X111096666Y-84974124D01*
X111947978Y-84122812D01*
X111954356Y-84111132D01*
X112684408Y-84111132D01*
X112684539Y-84112965D01*
X112688790Y-84119580D01*
X113540290Y-84971080D01*
X113552670Y-84977840D01*
X113560320Y-84972113D01*
X113665205Y-84800958D01*
X113669687Y-84792163D01*
X113756734Y-84582012D01*
X113759783Y-84572627D01*
X113812885Y-84351446D01*
X113814428Y-84341699D01*
X113832275Y-84114930D01*
X117307725Y-84114930D01*
X117325572Y-84341699D01*
X117327115Y-84351446D01*
X117380217Y-84572627D01*
X117383266Y-84582012D01*
X117470313Y-84792163D01*
X117474795Y-84800958D01*
X117577432Y-84968445D01*
X117587890Y-84977907D01*
X117596666Y-84974124D01*
X118447978Y-84122812D01*
X118454356Y-84111132D01*
X119184408Y-84111132D01*
X119184539Y-84112965D01*
X119188790Y-84119580D01*
X120040290Y-84971080D01*
X120052670Y-84977840D01*
X120060320Y-84972113D01*
X120165205Y-84800958D01*
X120169687Y-84792163D01*
X120256734Y-84582012D01*
X120259783Y-84572627D01*
X120312885Y-84351446D01*
X120314428Y-84341699D01*
X120332275Y-84114930D01*
X120332275Y-84105070D01*
X120314428Y-83878301D01*
X120312885Y-83868554D01*
X120259783Y-83647373D01*
X120256734Y-83637988D01*
X120169687Y-83427837D01*
X120165205Y-83419042D01*
X120062568Y-83251555D01*
X120052110Y-83242093D01*
X120043334Y-83245876D01*
X119192022Y-84097188D01*
X119184408Y-84111132D01*
X118454356Y-84111132D01*
X118455592Y-84108868D01*
X118455461Y-84107035D01*
X118451210Y-84100420D01*
X117599710Y-83248920D01*
X117587330Y-83242160D01*
X117579680Y-83247887D01*
X117474795Y-83419042D01*
X117470313Y-83427837D01*
X117383266Y-83637988D01*
X117380217Y-83647373D01*
X117327115Y-83868554D01*
X117325572Y-83878301D01*
X117307725Y-84105070D01*
X117307725Y-84114930D01*
X113832275Y-84114930D01*
X113832275Y-84105070D01*
X113814428Y-83878301D01*
X113812885Y-83868554D01*
X113759783Y-83647373D01*
X113756734Y-83637988D01*
X113669687Y-83427837D01*
X113665205Y-83419042D01*
X113562568Y-83251555D01*
X113552110Y-83242093D01*
X113543334Y-83245876D01*
X112692022Y-84097188D01*
X112684408Y-84111132D01*
X111954356Y-84111132D01*
X111955592Y-84108868D01*
X111955461Y-84107035D01*
X111951210Y-84100420D01*
X111099710Y-83248920D01*
X111087330Y-83242160D01*
X111079680Y-83247887D01*
X110974795Y-83419042D01*
X110970313Y-83427837D01*
X110883266Y-83637988D01*
X110880217Y-83647373D01*
X110827115Y-83868554D01*
X110825572Y-83878301D01*
X110807725Y-84105070D01*
X110807725Y-84114930D01*
X102147917Y-84114930D01*
X102151498Y-84074000D01*
X102131543Y-83845913D01*
X102072284Y-83624757D01*
X102069961Y-83619775D01*
X101977849Y-83422238D01*
X101977846Y-83422233D01*
X101975523Y-83417251D01*
X101844198Y-83229700D01*
X101682300Y-83067802D01*
X101677792Y-83064645D01*
X101677789Y-83064643D01*
X101599611Y-83009902D01*
X101494749Y-82936477D01*
X101489767Y-82934154D01*
X101489762Y-82934151D01*
X101455543Y-82918195D01*
X101409767Y-82877890D01*
X111452093Y-82877890D01*
X111455876Y-82886666D01*
X112307188Y-83737978D01*
X112321132Y-83745592D01*
X112322965Y-83745461D01*
X112329580Y-83741210D01*
X113181080Y-82889710D01*
X113187534Y-82877890D01*
X117952093Y-82877890D01*
X117955876Y-82886666D01*
X118807188Y-83737978D01*
X118821132Y-83745592D01*
X118822965Y-83745461D01*
X118829580Y-83741210D01*
X119681080Y-82889710D01*
X119687840Y-82877330D01*
X119682113Y-82869680D01*
X119510958Y-82764795D01*
X119502163Y-82760313D01*
X119292012Y-82673266D01*
X119282627Y-82670217D01*
X119061446Y-82617115D01*
X119051699Y-82615572D01*
X118824930Y-82597725D01*
X118815070Y-82597725D01*
X118588301Y-82615572D01*
X118578554Y-82617115D01*
X118357373Y-82670217D01*
X118347988Y-82673266D01*
X118137837Y-82760313D01*
X118129042Y-82764795D01*
X117961555Y-82867432D01*
X117952093Y-82877890D01*
X113187534Y-82877890D01*
X113187840Y-82877330D01*
X113182113Y-82869680D01*
X113010958Y-82764795D01*
X113002163Y-82760313D01*
X112792012Y-82673266D01*
X112782627Y-82670217D01*
X112561446Y-82617115D01*
X112551699Y-82615572D01*
X112324930Y-82597725D01*
X112315070Y-82597725D01*
X112088301Y-82615572D01*
X112078554Y-82617115D01*
X111857373Y-82670217D01*
X111847988Y-82673266D01*
X111637837Y-82760313D01*
X111629042Y-82764795D01*
X111461555Y-82867432D01*
X111452093Y-82877890D01*
X101409767Y-82877890D01*
X101402258Y-82871278D01*
X101382797Y-82803001D01*
X101403339Y-82735041D01*
X101455543Y-82689805D01*
X101489762Y-82673849D01*
X101489767Y-82673846D01*
X101494749Y-82671523D01*
X101600143Y-82597725D01*
X101677789Y-82543357D01*
X101677792Y-82543355D01*
X101682300Y-82540198D01*
X101844198Y-82378300D01*
X101868993Y-82342890D01*
X101914274Y-82278221D01*
X101975523Y-82190749D01*
X101977846Y-82185767D01*
X101977849Y-82185762D01*
X102069961Y-81988225D01*
X102069961Y-81988224D01*
X102072284Y-81983243D01*
X102131543Y-81762087D01*
X102151498Y-81534000D01*
X102131543Y-81305913D01*
X102130119Y-81300598D01*
X102073707Y-81090067D01*
X102073706Y-81090065D01*
X102072284Y-81084757D01*
X102069961Y-81079775D01*
X101977849Y-80882238D01*
X101977846Y-80882233D01*
X101975523Y-80877251D01*
X101844198Y-80689700D01*
X101682300Y-80527802D01*
X101677792Y-80524645D01*
X101677789Y-80524643D01*
X101599611Y-80469902D01*
X101494749Y-80396477D01*
X101489767Y-80394154D01*
X101489762Y-80394151D01*
X101455543Y-80378195D01*
X101402258Y-80331278D01*
X101382797Y-80263001D01*
X101403339Y-80195041D01*
X101455543Y-80149805D01*
X101489762Y-80133849D01*
X101489767Y-80133846D01*
X101494749Y-80131523D01*
X101599611Y-80058098D01*
X101677789Y-80003357D01*
X101677792Y-80003355D01*
X101682300Y-80000198D01*
X101844198Y-79838300D01*
X101863271Y-79811062D01*
X101902098Y-79755611D01*
X101975523Y-79650749D01*
X101977846Y-79645767D01*
X101977849Y-79645762D01*
X102069961Y-79448225D01*
X102069961Y-79448224D01*
X102072284Y-79443243D01*
X102131543Y-79222087D01*
X102151498Y-78994000D01*
X102131543Y-78765913D01*
X102078402Y-78567590D01*
X102073707Y-78550067D01*
X102073706Y-78550065D01*
X102072284Y-78544757D01*
X102033956Y-78462562D01*
X101977849Y-78342238D01*
X101977846Y-78342233D01*
X101975523Y-78337251D01*
X101844198Y-78149700D01*
X101682300Y-77987802D01*
X101677792Y-77984645D01*
X101677789Y-77984643D01*
X101599611Y-77929902D01*
X101494749Y-77856477D01*
X101489767Y-77854154D01*
X101489762Y-77854151D01*
X101455543Y-77838195D01*
X101402258Y-77791278D01*
X101382797Y-77723001D01*
X101403339Y-77655041D01*
X101455543Y-77609805D01*
X101489762Y-77593849D01*
X101489767Y-77593846D01*
X101494749Y-77591523D01*
X101624246Y-77500848D01*
X101677789Y-77463357D01*
X101677792Y-77463355D01*
X101682300Y-77460198D01*
X101844198Y-77298300D01*
X101848355Y-77292364D01*
X101919794Y-77190338D01*
X101975523Y-77110749D01*
X101977846Y-77105767D01*
X101977849Y-77105762D01*
X102069961Y-76908225D01*
X102069961Y-76908224D01*
X102072284Y-76903243D01*
X102131543Y-76682087D01*
X102151498Y-76454000D01*
X102131543Y-76225913D01*
X102078402Y-76027590D01*
X102073707Y-76010067D01*
X102073706Y-76010065D01*
X102072284Y-76004757D01*
X102050316Y-75957646D01*
X101977849Y-75802238D01*
X101977846Y-75802233D01*
X101975523Y-75797251D01*
X101844198Y-75609700D01*
X101682300Y-75447802D01*
X101677789Y-75444643D01*
X101673576Y-75441108D01*
X101674527Y-75439974D01*
X101634529Y-75389929D01*
X101627224Y-75319310D01*
X101659258Y-75255951D01*
X101720462Y-75219970D01*
X101737517Y-75216918D01*
X101748316Y-75215745D01*
X101884705Y-75164615D01*
X102001261Y-75077261D01*
X102088615Y-74960705D01*
X102139745Y-74824316D01*
X102146500Y-74762134D01*
X102146500Y-73065866D01*
X102139745Y-73003684D01*
X102088615Y-72867295D01*
X102001261Y-72750739D01*
X101884705Y-72663385D01*
X101748316Y-72612255D01*
X101686134Y-72605500D01*
X99989866Y-72605500D01*
X99927684Y-72612255D01*
X99791295Y-72663385D01*
X99674739Y-72750739D01*
X99587385Y-72867295D01*
X99536255Y-73003684D01*
X99529500Y-73065866D01*
X99529500Y-74762134D01*
X99536255Y-74824316D01*
X99587385Y-74960705D01*
X99674739Y-75077261D01*
X99791295Y-75164615D01*
X99927684Y-75215745D01*
X99938474Y-75216917D01*
X99940606Y-75217803D01*
X99943222Y-75218425D01*
X99943121Y-75218848D01*
X100004035Y-75244155D01*
X100044463Y-75302517D01*
X100046922Y-75373471D01*
X100010629Y-75434490D01*
X100001969Y-75441489D01*
X99998207Y-75444646D01*
X99993700Y-75447802D01*
X99831802Y-75609700D01*
X99700477Y-75797251D01*
X99698154Y-75802233D01*
X99698151Y-75802238D01*
X99625684Y-75957646D01*
X99603716Y-76004757D01*
X99602294Y-76010065D01*
X99602293Y-76010067D01*
X99597598Y-76027590D01*
X99544457Y-76225913D01*
X99524502Y-76454000D01*
X99544457Y-76682087D01*
X99603716Y-76903243D01*
X99606039Y-76908224D01*
X99606039Y-76908225D01*
X99698151Y-77105762D01*
X99698154Y-77105767D01*
X99700477Y-77110749D01*
X99756206Y-77190338D01*
X99827646Y-77292364D01*
X99831802Y-77298300D01*
X99993700Y-77460198D01*
X99998208Y-77463355D01*
X99998211Y-77463357D01*
X100051754Y-77500848D01*
X100181251Y-77591523D01*
X100186233Y-77593846D01*
X100186238Y-77593849D01*
X100220457Y-77609805D01*
X100273742Y-77656722D01*
X100293203Y-77724999D01*
X100272661Y-77792959D01*
X100220457Y-77838195D01*
X100186238Y-77854151D01*
X100186233Y-77854154D01*
X100181251Y-77856477D01*
X100076389Y-77929902D01*
X99998211Y-77984643D01*
X99998208Y-77984645D01*
X99993700Y-77987802D01*
X99831802Y-78149700D01*
X99700477Y-78337251D01*
X99698154Y-78342233D01*
X99698151Y-78342238D01*
X99642044Y-78462562D01*
X99603716Y-78544757D01*
X99602294Y-78550065D01*
X99602293Y-78550067D01*
X99597598Y-78567590D01*
X99544457Y-78765913D01*
X99524502Y-78994000D01*
X99544457Y-79222087D01*
X99603716Y-79443243D01*
X99606039Y-79448224D01*
X99606039Y-79448225D01*
X99698151Y-79645762D01*
X99698154Y-79645767D01*
X99700477Y-79650749D01*
X99773902Y-79755611D01*
X99812730Y-79811062D01*
X99831802Y-79838300D01*
X99993700Y-80000198D01*
X99998208Y-80003355D01*
X99998211Y-80003357D01*
X100076389Y-80058098D01*
X100181251Y-80131523D01*
X100186233Y-80133846D01*
X100186238Y-80133849D01*
X100220457Y-80149805D01*
X100273742Y-80196722D01*
X100293203Y-80264999D01*
X100272661Y-80332959D01*
X100220457Y-80378195D01*
X100186238Y-80394151D01*
X100186233Y-80394154D01*
X100181251Y-80396477D01*
X100076389Y-80469902D01*
X99998211Y-80524643D01*
X99998208Y-80524645D01*
X99993700Y-80527802D01*
X99831802Y-80689700D01*
X99700477Y-80877251D01*
X99698154Y-80882233D01*
X99698151Y-80882238D01*
X99606039Y-81079775D01*
X99603716Y-81084757D01*
X99602294Y-81090065D01*
X99602293Y-81090067D01*
X99545881Y-81300598D01*
X99544457Y-81305913D01*
X99524502Y-81534000D01*
X99544457Y-81762087D01*
X99603716Y-81983243D01*
X99606039Y-81988224D01*
X99606039Y-81988225D01*
X99698151Y-82185762D01*
X99698154Y-82185767D01*
X99700477Y-82190749D01*
X99761726Y-82278221D01*
X99807008Y-82342890D01*
X99831802Y-82378300D01*
X99993700Y-82540198D01*
X99998208Y-82543355D01*
X99998211Y-82543357D01*
X100075857Y-82597725D01*
X100181251Y-82671523D01*
X100186233Y-82673846D01*
X100186238Y-82673849D01*
X100220457Y-82689805D01*
X100273742Y-82736722D01*
X100293203Y-82804999D01*
X100272661Y-82872959D01*
X100220457Y-82918195D01*
X100186238Y-82934151D01*
X100186233Y-82934154D01*
X100181251Y-82936477D01*
X100076389Y-83009902D01*
X99998211Y-83064643D01*
X99998208Y-83064645D01*
X99993700Y-83067802D01*
X99831802Y-83229700D01*
X99700477Y-83417251D01*
X99698154Y-83422233D01*
X99698151Y-83422238D01*
X99606039Y-83619775D01*
X99603716Y-83624757D01*
X99544457Y-83845913D01*
X99524502Y-84074000D01*
X94531498Y-84074000D01*
X94511543Y-83845913D01*
X94452284Y-83624757D01*
X94449961Y-83619775D01*
X94357849Y-83422238D01*
X94357846Y-83422233D01*
X94355523Y-83417251D01*
X94224198Y-83229700D01*
X94062300Y-83067802D01*
X94057792Y-83064645D01*
X94057789Y-83064643D01*
X93979611Y-83009902D01*
X93874749Y-82936477D01*
X93869767Y-82934154D01*
X93869762Y-82934151D01*
X93835543Y-82918195D01*
X93782258Y-82871278D01*
X93762797Y-82803001D01*
X93783339Y-82735041D01*
X93835543Y-82689805D01*
X93869762Y-82673849D01*
X93869767Y-82673846D01*
X93874749Y-82671523D01*
X93980143Y-82597725D01*
X94057789Y-82543357D01*
X94057792Y-82543355D01*
X94062300Y-82540198D01*
X94224198Y-82378300D01*
X94248993Y-82342890D01*
X94294274Y-82278221D01*
X94355523Y-82190749D01*
X94357846Y-82185767D01*
X94357849Y-82185762D01*
X94449961Y-81988225D01*
X94449961Y-81988224D01*
X94452284Y-81983243D01*
X94511543Y-81762087D01*
X94531498Y-81534000D01*
X94511543Y-81305913D01*
X94510119Y-81300598D01*
X94453707Y-81090067D01*
X94453706Y-81090065D01*
X94452284Y-81084757D01*
X94449961Y-81079775D01*
X94357849Y-80882238D01*
X94357846Y-80882233D01*
X94355523Y-80877251D01*
X94224198Y-80689700D01*
X94062300Y-80527802D01*
X94057792Y-80524645D01*
X94057789Y-80524643D01*
X93979611Y-80469902D01*
X93874749Y-80396477D01*
X93869767Y-80394154D01*
X93869762Y-80394151D01*
X93835543Y-80378195D01*
X93782258Y-80331278D01*
X93762797Y-80263001D01*
X93783339Y-80195041D01*
X93835543Y-80149805D01*
X93869762Y-80133849D01*
X93869767Y-80133846D01*
X93874749Y-80131523D01*
X93979611Y-80058098D01*
X94057789Y-80003357D01*
X94057792Y-80003355D01*
X94062300Y-80000198D01*
X94224198Y-79838300D01*
X94243271Y-79811062D01*
X94282098Y-79755611D01*
X94355523Y-79650749D01*
X94357846Y-79645767D01*
X94357849Y-79645762D01*
X94449961Y-79448225D01*
X94449961Y-79448224D01*
X94452284Y-79443243D01*
X94511543Y-79222087D01*
X94531498Y-78994000D01*
X94511543Y-78765913D01*
X94458402Y-78567590D01*
X94453707Y-78550067D01*
X94453706Y-78550065D01*
X94452284Y-78544757D01*
X94413956Y-78462562D01*
X94357849Y-78342238D01*
X94357846Y-78342233D01*
X94355523Y-78337251D01*
X94224198Y-78149700D01*
X94062300Y-77987802D01*
X94057792Y-77984645D01*
X94057789Y-77984643D01*
X93979611Y-77929902D01*
X93874749Y-77856477D01*
X93869767Y-77854154D01*
X93869762Y-77854151D01*
X93835543Y-77838195D01*
X93782258Y-77791278D01*
X93762797Y-77723001D01*
X93783339Y-77655041D01*
X93835543Y-77609805D01*
X93869762Y-77593849D01*
X93869767Y-77593846D01*
X93874749Y-77591523D01*
X94004246Y-77500848D01*
X94057789Y-77463357D01*
X94057792Y-77463355D01*
X94062300Y-77460198D01*
X94224198Y-77298300D01*
X94228355Y-77292364D01*
X94299794Y-77190338D01*
X94355523Y-77110749D01*
X94357846Y-77105767D01*
X94357849Y-77105762D01*
X94449961Y-76908225D01*
X94449961Y-76908224D01*
X94452284Y-76903243D01*
X94511543Y-76682087D01*
X94531498Y-76454000D01*
X94511543Y-76225913D01*
X94458402Y-76027590D01*
X94453707Y-76010067D01*
X94453706Y-76010065D01*
X94452284Y-76004757D01*
X94430316Y-75957646D01*
X94357849Y-75802238D01*
X94357846Y-75802233D01*
X94355523Y-75797251D01*
X94224198Y-75609700D01*
X94062300Y-75447802D01*
X94057792Y-75444645D01*
X94057789Y-75444643D01*
X93964065Y-75379017D01*
X93874749Y-75316477D01*
X93869767Y-75314154D01*
X93869762Y-75314151D01*
X93835543Y-75298195D01*
X93782258Y-75251278D01*
X93762797Y-75183001D01*
X93783339Y-75115041D01*
X93835543Y-75069805D01*
X93869762Y-75053849D01*
X93869767Y-75053846D01*
X93874749Y-75051523D01*
X94057242Y-74923740D01*
X94057789Y-74923357D01*
X94057792Y-74923355D01*
X94062300Y-74920198D01*
X94224198Y-74758300D01*
X94247678Y-74724768D01*
X94352366Y-74575257D01*
X94355523Y-74570749D01*
X94357846Y-74565767D01*
X94357849Y-74565762D01*
X94449961Y-74368225D01*
X94449961Y-74368224D01*
X94452284Y-74363243D01*
X94454724Y-74354139D01*
X94510119Y-74147402D01*
X94510119Y-74147400D01*
X94511543Y-74142087D01*
X94531498Y-73914000D01*
X94511543Y-73685913D01*
X94508454Y-73674385D01*
X94453707Y-73470067D01*
X94453706Y-73470065D01*
X94452284Y-73464757D01*
X94449089Y-73457906D01*
X94357849Y-73262238D01*
X94357846Y-73262233D01*
X94355523Y-73257251D01*
X94258800Y-73119117D01*
X94227357Y-73074211D01*
X94227355Y-73074208D01*
X94224198Y-73069700D01*
X94062300Y-72907802D01*
X94057792Y-72904645D01*
X94057789Y-72904643D01*
X93969541Y-72842851D01*
X93874749Y-72776477D01*
X93869767Y-72774154D01*
X93869762Y-72774151D01*
X93672225Y-72682039D01*
X93672224Y-72682039D01*
X93667243Y-72679716D01*
X93661935Y-72678294D01*
X93661933Y-72678293D01*
X93451402Y-72621881D01*
X93451400Y-72621881D01*
X93446087Y-72620457D01*
X93218000Y-72600502D01*
X92989913Y-72620457D01*
X92984600Y-72621881D01*
X92984598Y-72621881D01*
X92774067Y-72678293D01*
X92774065Y-72678294D01*
X92768757Y-72679716D01*
X92763776Y-72682039D01*
X92763775Y-72682039D01*
X92566238Y-72774151D01*
X92566233Y-72774154D01*
X92561251Y-72776477D01*
X92466459Y-72842851D01*
X92378211Y-72904643D01*
X92378208Y-72904645D01*
X92373700Y-72907802D01*
X92211802Y-73069700D01*
X92208645Y-73074208D01*
X92208643Y-73074211D01*
X92177200Y-73119117D01*
X92080477Y-73257251D01*
X92078154Y-73262233D01*
X92078151Y-73262238D01*
X91986911Y-73457906D01*
X91983716Y-73464757D01*
X91982294Y-73470065D01*
X91982293Y-73470067D01*
X91927546Y-73674385D01*
X91924457Y-73685913D01*
X91904502Y-73914000D01*
X91924457Y-74142087D01*
X91925881Y-74147400D01*
X91925881Y-74147402D01*
X91981277Y-74354139D01*
X91983716Y-74363243D01*
X91986039Y-74368224D01*
X91986039Y-74368225D01*
X92078151Y-74565762D01*
X92078154Y-74565767D01*
X92080477Y-74570749D01*
X92083634Y-74575257D01*
X92188323Y-74724768D01*
X92211802Y-74758300D01*
X92373700Y-74920198D01*
X92378208Y-74923355D01*
X92378211Y-74923357D01*
X92378758Y-74923740D01*
X92561251Y-75051523D01*
X92566233Y-75053846D01*
X92566238Y-75053849D01*
X92600457Y-75069805D01*
X92653742Y-75116722D01*
X92673203Y-75184999D01*
X92652661Y-75252959D01*
X92600457Y-75298195D01*
X92566238Y-75314151D01*
X92566233Y-75314154D01*
X92561251Y-75316477D01*
X92471935Y-75379017D01*
X92378211Y-75444643D01*
X92378208Y-75444645D01*
X92373700Y-75447802D01*
X92211802Y-75609700D01*
X92080477Y-75797251D01*
X92078154Y-75802233D01*
X92078151Y-75802238D01*
X92005684Y-75957646D01*
X91983716Y-76004757D01*
X91982294Y-76010065D01*
X91982293Y-76010067D01*
X91977598Y-76027590D01*
X91924457Y-76225913D01*
X91904502Y-76454000D01*
X91924457Y-76682087D01*
X91983716Y-76903243D01*
X91986039Y-76908224D01*
X91986039Y-76908225D01*
X92078151Y-77105762D01*
X92078154Y-77105767D01*
X92080477Y-77110749D01*
X92136206Y-77190338D01*
X92207646Y-77292364D01*
X92211802Y-77298300D01*
X92373700Y-77460198D01*
X92378208Y-77463355D01*
X92378211Y-77463357D01*
X92431754Y-77500848D01*
X92561251Y-77591523D01*
X92566233Y-77593846D01*
X92566238Y-77593849D01*
X92600457Y-77609805D01*
X92653742Y-77656722D01*
X92673203Y-77724999D01*
X92652661Y-77792959D01*
X92600457Y-77838195D01*
X92566238Y-77854151D01*
X92566233Y-77854154D01*
X92561251Y-77856477D01*
X92456389Y-77929902D01*
X92378211Y-77984643D01*
X92378208Y-77984645D01*
X92373700Y-77987802D01*
X92211802Y-78149700D01*
X92080477Y-78337251D01*
X92078154Y-78342233D01*
X92078151Y-78342238D01*
X92022044Y-78462562D01*
X91983716Y-78544757D01*
X91982294Y-78550065D01*
X91982293Y-78550067D01*
X91977598Y-78567590D01*
X91924457Y-78765913D01*
X91904502Y-78994000D01*
X91924457Y-79222087D01*
X91983716Y-79443243D01*
X91986039Y-79448224D01*
X91986039Y-79448225D01*
X92078151Y-79645762D01*
X92078154Y-79645767D01*
X92080477Y-79650749D01*
X92153902Y-79755611D01*
X92192730Y-79811062D01*
X92211802Y-79838300D01*
X92373700Y-80000198D01*
X92378208Y-80003355D01*
X92378211Y-80003357D01*
X92456389Y-80058098D01*
X92561251Y-80131523D01*
X92566233Y-80133846D01*
X92566238Y-80133849D01*
X92600457Y-80149805D01*
X92653742Y-80196722D01*
X92673203Y-80264999D01*
X92652661Y-80332959D01*
X92600457Y-80378195D01*
X92566238Y-80394151D01*
X92566233Y-80394154D01*
X92561251Y-80396477D01*
X92456389Y-80469902D01*
X92378211Y-80524643D01*
X92378208Y-80524645D01*
X92373700Y-80527802D01*
X92211802Y-80689700D01*
X92080477Y-80877251D01*
X92078154Y-80882233D01*
X92078151Y-80882238D01*
X91986039Y-81079775D01*
X91983716Y-81084757D01*
X91982294Y-81090065D01*
X91982293Y-81090067D01*
X91925881Y-81300598D01*
X91924457Y-81305913D01*
X91904502Y-81534000D01*
X91924457Y-81762087D01*
X91983716Y-81983243D01*
X91986039Y-81988224D01*
X91986039Y-81988225D01*
X92078151Y-82185762D01*
X92078154Y-82185767D01*
X92080477Y-82190749D01*
X92141726Y-82278221D01*
X92187008Y-82342890D01*
X92211802Y-82378300D01*
X92373700Y-82540198D01*
X92378208Y-82543355D01*
X92378211Y-82543357D01*
X92455857Y-82597725D01*
X92561251Y-82671523D01*
X92566233Y-82673846D01*
X92566238Y-82673849D01*
X92600457Y-82689805D01*
X92653742Y-82736722D01*
X92673203Y-82804999D01*
X92652661Y-82872959D01*
X92600457Y-82918195D01*
X92566238Y-82934151D01*
X92566233Y-82934154D01*
X92561251Y-82936477D01*
X92456389Y-83009902D01*
X92378211Y-83064643D01*
X92378208Y-83064645D01*
X92373700Y-83067802D01*
X92211802Y-83229700D01*
X92080477Y-83417251D01*
X92078154Y-83422233D01*
X92078151Y-83422238D01*
X91986039Y-83619775D01*
X91983716Y-83624757D01*
X91924457Y-83845913D01*
X91904502Y-84074000D01*
X89408500Y-84074000D01*
X89408500Y-70236850D01*
X152566725Y-70236850D01*
X152567284Y-70241094D01*
X152567284Y-70241098D01*
X152570905Y-70268601D01*
X152605140Y-70528640D01*
X152606273Y-70532780D01*
X152606273Y-70532782D01*
X152659689Y-70728038D01*
X152682800Y-70812517D01*
X152684485Y-70816467D01*
X152796586Y-71079286D01*
X152796590Y-71079293D01*
X152798268Y-71083228D01*
X152949408Y-71335764D01*
X153133422Y-71565451D01*
X153136524Y-71568395D01*
X153136528Y-71568399D01*
X153274704Y-71699523D01*
X153346905Y-71768039D01*
X153585908Y-71939780D01*
X153846007Y-72077496D01*
X154122390Y-72178638D01*
X154409943Y-72241334D01*
X154442519Y-72243898D01*
X154638309Y-72259307D01*
X154638318Y-72259307D01*
X154640766Y-72259500D01*
X154799990Y-72259500D01*
X154802126Y-72259354D01*
X154802137Y-72259354D01*
X155015350Y-72244819D01*
X155015356Y-72244818D01*
X155019627Y-72244527D01*
X155023822Y-72243658D01*
X155023824Y-72243658D01*
X155223253Y-72202358D01*
X155307820Y-72184845D01*
X155585247Y-72086603D01*
X155846774Y-71951618D01*
X155850275Y-71949157D01*
X155850279Y-71949155D01*
X156084052Y-71784856D01*
X156084053Y-71784855D01*
X156087562Y-71782389D01*
X156303156Y-71582048D01*
X156316741Y-71565451D01*
X156449585Y-71403146D01*
X156489565Y-71354300D01*
X156502207Y-71333670D01*
X188463160Y-71333670D01*
X188468887Y-71341320D01*
X188640042Y-71446205D01*
X188648837Y-71450687D01*
X188858988Y-71537734D01*
X188868373Y-71540783D01*
X189089554Y-71593885D01*
X189099301Y-71595428D01*
X189326070Y-71613275D01*
X189335930Y-71613275D01*
X189562699Y-71595428D01*
X189572446Y-71593885D01*
X189793627Y-71540783D01*
X189803012Y-71537734D01*
X190013163Y-71450687D01*
X190021958Y-71446205D01*
X190189445Y-71343568D01*
X190198907Y-71333110D01*
X190195124Y-71324334D01*
X189343812Y-70473022D01*
X189329868Y-70465408D01*
X189328035Y-70465539D01*
X189321420Y-70469790D01*
X188469920Y-71321290D01*
X188463160Y-71333670D01*
X156502207Y-71333670D01*
X156643340Y-71103361D01*
X156645068Y-71099425D01*
X156759913Y-70837802D01*
X156759914Y-70837798D01*
X156761637Y-70833874D01*
X156842265Y-70550826D01*
X156843109Y-70544901D01*
X156883129Y-70263705D01*
X156883734Y-70259454D01*
X156884538Y-70105930D01*
X187818725Y-70105930D01*
X187836572Y-70332699D01*
X187838115Y-70342446D01*
X187891217Y-70563627D01*
X187894266Y-70573012D01*
X187981313Y-70783163D01*
X187985795Y-70791958D01*
X188088432Y-70959445D01*
X188098890Y-70968907D01*
X188107666Y-70965124D01*
X188958978Y-70113812D01*
X188966592Y-70099868D01*
X188966461Y-70098035D01*
X188962210Y-70091420D01*
X188110710Y-69239920D01*
X188098330Y-69233160D01*
X188090680Y-69238887D01*
X187985795Y-69410042D01*
X187981313Y-69418837D01*
X187894266Y-69628988D01*
X187891217Y-69638373D01*
X187838115Y-69859554D01*
X187836572Y-69869301D01*
X187818725Y-70096070D01*
X187818725Y-70105930D01*
X156884538Y-70105930D01*
X156884579Y-70098035D01*
X156885253Y-69969436D01*
X156885253Y-69969430D01*
X156885275Y-69965150D01*
X156881740Y-69938295D01*
X156855831Y-69741502D01*
X156846860Y-69673360D01*
X156842530Y-69657530D01*
X156770334Y-69393628D01*
X156770334Y-69393627D01*
X156769200Y-69389483D01*
X156741186Y-69323806D01*
X156655414Y-69122714D01*
X156655410Y-69122707D01*
X156653732Y-69118772D01*
X156502592Y-68866236D01*
X156318578Y-68636549D01*
X156315476Y-68633605D01*
X156315472Y-68633601D01*
X156108204Y-68436911D01*
X156108201Y-68436909D01*
X156105095Y-68433961D01*
X155866092Y-68262220D01*
X155605993Y-68124504D01*
X155329610Y-68023362D01*
X155042057Y-67960666D01*
X155001486Y-67957473D01*
X154813691Y-67942693D01*
X154813682Y-67942693D01*
X154811234Y-67942500D01*
X154652010Y-67942500D01*
X154649874Y-67942646D01*
X154649863Y-67942646D01*
X154436650Y-67957181D01*
X154436644Y-67957182D01*
X154432373Y-67957473D01*
X154428178Y-67958342D01*
X154428176Y-67958342D01*
X154288277Y-67987314D01*
X154144180Y-68017155D01*
X153866753Y-68115397D01*
X153605226Y-68250382D01*
X153601725Y-68252843D01*
X153601721Y-68252845D01*
X153373164Y-68413478D01*
X153364438Y-68419611D01*
X153236825Y-68538196D01*
X153161997Y-68607730D01*
X153148844Y-68619952D01*
X153146130Y-68623268D01*
X153146128Y-68623270D01*
X153098892Y-68680982D01*
X152962435Y-68847700D01*
X152808660Y-69098639D01*
X152806933Y-69102572D01*
X152806932Y-69102575D01*
X152699426Y-69347481D01*
X152690363Y-69368126D01*
X152609735Y-69651174D01*
X152609131Y-69655416D01*
X152609130Y-69655422D01*
X152581306Y-69850921D01*
X152568266Y-69942546D01*
X152567462Y-70096070D01*
X152567181Y-70149857D01*
X152566725Y-70236850D01*
X89408500Y-70236850D01*
X89408500Y-51062817D01*
X89428502Y-50994696D01*
X89445405Y-50973722D01*
X94153722Y-46265405D01*
X94216034Y-46231379D01*
X94242817Y-46228500D01*
X94261119Y-46228500D01*
X94329240Y-46248502D01*
G37*
%TD.AperFunction*%
M02*
