%TF.GenerationSoftware,KiCad,Pcbnew,(6.0.9)*%
%TF.CreationDate,2022-11-26T23:56:03-05:00*%
%TF.ProjectId,rf_controller_hw,72665f63-6f6e-4747-926f-6c6c65725f68,rev?*%
%TF.SameCoordinates,Original*%
%TF.FileFunction,Soldermask,Bot*%
%TF.FilePolarity,Negative*%
%FSLAX46Y46*%
G04 Gerber Fmt 4.6, Leading zero omitted, Abs format (unit mm)*
G04 Created by KiCad (PCBNEW (6.0.9)) date 2022-11-26 23:56:03*
%MOMM*%
%LPD*%
G01*
G04 APERTURE LIST*
G04 Aperture macros list*
%AMRoundRect*
0 Rectangle with rounded corners*
0 $1 Rounding radius*
0 $2 $3 $4 $5 $6 $7 $8 $9 X,Y pos of 4 corners*
0 Add a 4 corners polygon primitive as box body*
4,1,4,$2,$3,$4,$5,$6,$7,$8,$9,$2,$3,0*
0 Add four circle primitives for the rounded corners*
1,1,$1+$1,$2,$3*
1,1,$1+$1,$4,$5*
1,1,$1+$1,$6,$7*
1,1,$1+$1,$8,$9*
0 Add four rect primitives between the rounded corners*
20,1,$1+$1,$2,$3,$4,$5,0*
20,1,$1+$1,$4,$5,$6,$7,0*
20,1,$1+$1,$6,$7,$8,$9,0*
20,1,$1+$1,$8,$9,$2,$3,0*%
G04 Aperture macros list end*
%ADD10R,1.700000X1.700000*%
%ADD11O,1.700000X1.700000*%
%ADD12C,2.000000*%
%ADD13RoundRect,0.400000X-0.900000X-0.400000X0.900000X-0.400000X0.900000X0.400000X-0.900000X0.400000X0*%
%ADD14RoundRect,0.400050X-0.899950X-0.400050X0.899950X-0.400050X0.899950X0.400050X-0.899950X0.400050X0*%
%ADD15RoundRect,0.400000X-0.400000X-0.900000X0.400000X-0.900000X0.400000X0.900000X-0.400000X0.900000X0*%
%ADD16RoundRect,0.393700X-0.393700X-0.906300X0.393700X-0.906300X0.393700X0.906300X-0.393700X0.906300X0*%
%ADD17O,1.600000X1.600000*%
%ADD18R,1.600000X1.600000*%
%ADD19C,2.517140*%
%ADD20C,1.998980*%
%ADD21C,3.300000*%
%ADD22R,2.000000X2.000000*%
G04 APERTURE END LIST*
D10*
X213106000Y-73421000D03*
D11*
X213106000Y-75961000D03*
X213106000Y-78501000D03*
D12*
X202490000Y-84110000D03*
X208990000Y-84110000D03*
X202490000Y-88610000D03*
X208990000Y-88610000D03*
X188520000Y-93000000D03*
X195020000Y-93000000D03*
X188520000Y-97500000D03*
X195020000Y-97500000D03*
X173280000Y-101890000D03*
X179780000Y-101890000D03*
X173280000Y-106390000D03*
X179780000Y-106390000D03*
X112320000Y-105700000D03*
X118820000Y-105700000D03*
X112320000Y-110200000D03*
X118820000Y-110200000D03*
X123750000Y-95540000D03*
X130250000Y-95540000D03*
X123750000Y-100040000D03*
X130250000Y-100040000D03*
X100890000Y-95540000D03*
X107390000Y-95540000D03*
X100890000Y-100040000D03*
X107390000Y-100040000D03*
X118820000Y-88610000D03*
X112320000Y-88610000D03*
X118820000Y-84110000D03*
X112320000Y-84110000D03*
D13*
X112551000Y-47169000D03*
X112551000Y-49709000D03*
X112551000Y-52249000D03*
X112551000Y-54789000D03*
X112551000Y-57329000D03*
D14*
X112551000Y-59869000D03*
X112551000Y-62409000D03*
X112551000Y-64949000D03*
X112551000Y-67489000D03*
D15*
X109411000Y-68299000D03*
D16*
X106871000Y-68299000D03*
X104331000Y-68299000D03*
X101791000Y-68299000D03*
X99251000Y-68299000D03*
D14*
X96111000Y-67489000D03*
X96111000Y-64949000D03*
X96111000Y-62409000D03*
X96111000Y-59869000D03*
X96111000Y-47169000D03*
X96111000Y-49709000D03*
X96111000Y-52249000D03*
X96111000Y-57329000D03*
X96111000Y-54789000D03*
D17*
X93218000Y-73914000D03*
X93218000Y-76454000D03*
X93218000Y-78994000D03*
X93218000Y-81534000D03*
X93218000Y-84074000D03*
X100838000Y-84074000D03*
X100838000Y-81534000D03*
X100838000Y-78994000D03*
X100838000Y-76454000D03*
D18*
X100838000Y-73914000D03*
D10*
X196877000Y-73946500D03*
D11*
X196877000Y-71406500D03*
X199417000Y-73946500D03*
X199417000Y-71406500D03*
X201957000Y-73946500D03*
X201957000Y-71406500D03*
X204497000Y-73946500D03*
X204497000Y-71406500D03*
D19*
X161544635Y-92055950D03*
D20*
X150543895Y-90455750D03*
D19*
X146045555Y-105355390D03*
D20*
X150543895Y-86056470D03*
D19*
X161544635Y-105355390D03*
X146045555Y-92055950D03*
D20*
X157046295Y-90455750D03*
X157046295Y-86056470D03*
X144044035Y-101205030D03*
X144044035Y-98705670D03*
X144044035Y-96206310D03*
X156294455Y-108456730D03*
X153795095Y-108456730D03*
X151295735Y-108456730D03*
D21*
X154726000Y-55111000D03*
X154726000Y-70101000D03*
D22*
X189331000Y-55111000D03*
D12*
X189331000Y-70101000D03*
M02*
