G04 #@! TF.GenerationSoftware,KiCad,Pcbnew,(6.0.9)*
G04 #@! TF.CreationDate,2022-12-06T16:10:30-05:00*
G04 #@! TF.ProjectId,rf_controller_hw,72665f63-6f6e-4747-926f-6c6c65725f68,rev?*
G04 #@! TF.SameCoordinates,Original*
G04 #@! TF.FileFunction,Legend,Bot*
G04 #@! TF.FilePolarity,Positive*
%FSLAX46Y46*%
G04 Gerber Fmt 4.6, Leading zero omitted, Abs format (unit mm)*
G04 Created by KiCad (PCBNEW (6.0.9)) date 2022-12-06 16:10:30*
%MOMM*%
%LPD*%
G01*
G04 APERTURE LIST*
G04 Aperture macros list*
%AMRoundRect*
0 Rectangle with rounded corners*
0 $1 Rounding radius*
0 $2 $3 $4 $5 $6 $7 $8 $9 X,Y pos of 4 corners*
0 Add a 4 corners polygon primitive as box body*
4,1,4,$2,$3,$4,$5,$6,$7,$8,$9,$2,$3,0*
0 Add four circle primitives for the rounded corners*
1,1,$1+$1,$2,$3*
1,1,$1+$1,$4,$5*
1,1,$1+$1,$6,$7*
1,1,$1+$1,$8,$9*
0 Add four rect primitives between the rounded corners*
20,1,$1+$1,$2,$3,$4,$5,0*
20,1,$1+$1,$4,$5,$6,$7,0*
20,1,$1+$1,$6,$7,$8,$9,0*
20,1,$1+$1,$8,$9,$2,$3,0*%
G04 Aperture macros list end*
%ADD10C,0.150000*%
%ADD11C,0.120000*%
%ADD12RoundRect,0.400000X-0.900000X-0.400000X0.900000X-0.400000X0.900000X0.400000X-0.900000X0.400000X0*%
%ADD13RoundRect,0.400050X-0.899950X-0.400050X0.899950X-0.400050X0.899950X0.400050X-0.899950X0.400050X0*%
%ADD14RoundRect,0.400000X-0.400000X-0.900000X0.400000X-0.900000X0.400000X0.900000X-0.400000X0.900000X0*%
%ADD15RoundRect,0.393700X-0.393700X-0.906300X0.393700X-0.906300X0.393700X0.906300X-0.393700X0.906300X0*%
%ADD16C,2.000000*%
%ADD17C,3.200000*%
%ADD18R,1.700000X1.700000*%
%ADD19O,1.700000X1.700000*%
%ADD20C,1.998980*%
%ADD21R,2.000000X2.000000*%
%ADD22R,1.600000X1.600000*%
%ADD23O,1.600000X1.600000*%
G04 APERTURE END LIST*
D10*
X177016714Y-80049571D02*
X176873857Y-80097190D01*
X176826238Y-80144809D01*
X176778619Y-80240047D01*
X176778619Y-80382904D01*
X176826238Y-80478142D01*
X176873857Y-80525761D01*
X176969095Y-80573380D01*
X177350047Y-80573380D01*
X177350047Y-79573380D01*
X177016714Y-79573380D01*
X176921476Y-79621000D01*
X176873857Y-79668619D01*
X176826238Y-79763857D01*
X176826238Y-79859095D01*
X176873857Y-79954333D01*
X176921476Y-80001952D01*
X177016714Y-80049571D01*
X177350047Y-80049571D01*
X176492904Y-79573380D02*
X175921476Y-79573380D01*
X176207190Y-80573380D02*
X176207190Y-79573380D01*
X175064333Y-80573380D02*
X175635761Y-80573380D01*
X175350047Y-80573380D02*
X175350047Y-79573380D01*
X175445285Y-79716238D01*
X175540523Y-79811476D01*
X175635761Y-79859095D01*
X166107428Y-55218142D02*
X164964571Y-55218142D01*
X165536000Y-55789571D02*
X165536000Y-54646714D01*
X186753428Y-70211142D02*
X185610571Y-70211142D01*
X166107428Y-70208142D02*
X164964571Y-70208142D01*
X186753428Y-54971142D02*
X185610571Y-54971142D01*
X186182000Y-55542571D02*
X186182000Y-54399714D01*
X144517428Y-55218142D02*
X143374571Y-55218142D01*
X144517428Y-70208142D02*
X143374571Y-70208142D01*
X143946000Y-70779571D02*
X143946000Y-69636714D01*
X107197761Y-74093976D02*
X107245380Y-74236833D01*
X107245380Y-74474928D01*
X107197761Y-74570166D01*
X107150142Y-74617785D01*
X107054904Y-74665404D01*
X106959666Y-74665404D01*
X106864428Y-74617785D01*
X106816809Y-74570166D01*
X106769190Y-74474928D01*
X106721571Y-74284452D01*
X106673952Y-74189214D01*
X106626333Y-74141595D01*
X106531095Y-74093976D01*
X106435857Y-74093976D01*
X106340619Y-74141595D01*
X106293000Y-74189214D01*
X106245380Y-74284452D01*
X106245380Y-74522547D01*
X106293000Y-74665404D01*
X106245380Y-74998738D02*
X107245380Y-75236833D01*
X106531095Y-75427309D01*
X107245380Y-75617785D01*
X106245380Y-75855880D01*
X107245380Y-76760642D02*
X107245380Y-76189214D01*
X107245380Y-76474928D02*
X106245380Y-76474928D01*
X106388238Y-76379690D01*
X106483476Y-76284452D01*
X106531095Y-76189214D01*
X106245380Y-77379690D02*
X106245380Y-77474928D01*
X106293000Y-77570166D01*
X106340619Y-77617785D01*
X106435857Y-77665404D01*
X106626333Y-77713023D01*
X106864428Y-77713023D01*
X107054904Y-77665404D01*
X107150142Y-77617785D01*
X107197761Y-77570166D01*
X107245380Y-77474928D01*
X107245380Y-77379690D01*
X107197761Y-77284452D01*
X107150142Y-77236833D01*
X107054904Y-77189214D01*
X106864428Y-77141595D01*
X106626333Y-77141595D01*
X106435857Y-77189214D01*
X106340619Y-77236833D01*
X106293000Y-77284452D01*
X106245380Y-77379690D01*
D11*
X146486000Y-72641000D02*
X164266000Y-72641000D01*
X164266000Y-77896000D02*
X145216000Y-77896000D01*
X176966000Y-75356000D02*
X164266000Y-75356000D01*
X145216000Y-52571000D02*
X145216000Y-53841000D01*
X145216000Y-49856000D02*
X145216000Y-47316000D01*
X124871000Y-79166000D02*
X124871000Y-46046000D01*
X184581000Y-46046000D02*
X184581000Y-79166000D01*
X145216000Y-57651000D02*
X162996000Y-57651000D01*
X164266000Y-72641000D02*
X164266000Y-67561000D01*
X184581000Y-79166000D02*
X124871000Y-79166000D01*
X146486000Y-71371000D02*
X146486000Y-72641000D01*
X132516000Y-47316000D02*
X132516000Y-49856000D01*
X176966000Y-49856000D02*
X176966000Y-47316000D01*
X145216000Y-47316000D02*
X164266000Y-47316000D01*
X126141000Y-62860000D02*
X183311000Y-62860000D01*
X162996000Y-53841000D02*
X162996000Y-52571000D01*
X146486000Y-68831000D02*
X145216000Y-68831000D01*
X183311000Y-77896000D02*
X176966000Y-77896000D01*
X145216000Y-68831000D02*
X145216000Y-71371000D01*
X146486000Y-67561000D02*
X146486000Y-68831000D01*
X164266000Y-56381000D02*
X164266000Y-53841000D01*
X164266000Y-75356000D02*
X164266000Y-77896000D01*
X126141000Y-47316000D02*
X126141000Y-77896000D01*
X145216000Y-53841000D02*
X145216000Y-57651000D01*
X176966000Y-49856000D02*
X164266000Y-49856000D01*
X164266000Y-47316000D02*
X164266000Y-49856000D01*
X145216000Y-71371000D02*
X146486000Y-71371000D01*
X132516000Y-75356000D02*
X145216000Y-75356000D01*
X164266000Y-53841000D02*
X162996000Y-53841000D01*
X126141000Y-77896000D02*
X132516000Y-77896000D01*
X176966000Y-47316000D02*
X183311000Y-47316000D01*
X183311000Y-62352000D02*
X126141000Y-62352000D01*
X162996000Y-56381000D02*
X164266000Y-56381000D01*
X183311000Y-47316000D02*
X183311000Y-77896000D01*
X164266000Y-67561000D02*
X146486000Y-67561000D01*
X126141000Y-47316000D02*
X132516000Y-47316000D01*
X145216000Y-77896000D02*
X145216000Y-75356000D01*
X132516000Y-49856000D02*
X145216000Y-49856000D01*
X132516000Y-77896000D02*
X132516000Y-75356000D01*
X176966000Y-77896000D02*
X176966000Y-75356000D01*
X162996000Y-57651000D02*
X162996000Y-56381000D01*
X124871000Y-46046000D02*
X184581000Y-46046000D01*
X162996000Y-52571000D02*
X145216000Y-52571000D01*
X96388000Y-76580167D02*
X95118000Y-76580167D01*
X96148000Y-77933500D02*
X96148000Y-76580167D01*
X93608000Y-77933500D02*
X93608000Y-76580167D01*
X92768000Y-77933500D02*
X92768000Y-76580167D01*
X103768000Y-77933500D02*
X103768000Y-76580167D01*
X100508000Y-77933500D02*
X100508000Y-76580167D01*
X103168000Y-77933500D02*
X103168000Y-76580167D01*
X98928000Y-73873500D02*
X98928000Y-77933500D01*
X93368000Y-77933500D02*
X93368000Y-76580167D01*
X93128000Y-77933500D02*
X93128000Y-76580167D01*
X104008000Y-73873500D02*
X104008000Y-77933500D01*
X92578000Y-77933500D02*
X92578000Y-73873500D01*
X103288000Y-77933500D02*
X103288000Y-76580167D01*
X97848000Y-77933500D02*
X97848000Y-76580167D01*
X100198000Y-73873500D02*
X101468000Y-73873500D01*
X97968000Y-77933500D02*
X97968000Y-76580167D01*
X103408000Y-77933500D02*
X103408000Y-76580167D01*
X102738000Y-73873500D02*
X104008000Y-73873500D01*
X101468000Y-73873500D02*
X101468000Y-77933500D01*
X95118000Y-77933500D02*
X95118000Y-73873500D01*
X104008000Y-77933500D02*
X102738000Y-77933500D01*
X104008000Y-76580167D02*
X102738000Y-76580167D01*
X100628000Y-77933500D02*
X100628000Y-76580167D01*
X100268000Y-77933500D02*
X100268000Y-76580167D01*
X92888000Y-77933500D02*
X92888000Y-76580167D01*
X106033000Y-81093500D02*
X106033000Y-79709500D01*
X95188000Y-77933500D02*
X95188000Y-76580167D01*
X96388000Y-77933500D02*
X95118000Y-77933500D01*
X106033000Y-81093500D02*
X104650000Y-81093500D01*
X100868000Y-77933500D02*
X100868000Y-76580167D01*
X101108000Y-77933500D02*
X101108000Y-76580167D01*
X101468000Y-77933500D02*
X100198000Y-77933500D01*
X95428000Y-77933500D02*
X95428000Y-76580167D01*
X92578000Y-73873500D02*
X93848000Y-73873500D01*
X90793000Y-80853500D02*
X90793000Y-70953500D01*
X93728000Y-77933500D02*
X93728000Y-76580167D01*
X97658000Y-77933500D02*
X97658000Y-73873500D01*
X103048000Y-77933500D02*
X103048000Y-76580167D01*
X95548000Y-77933500D02*
X95548000Y-76580167D01*
X105793000Y-80853500D02*
X105793000Y-70953500D01*
X95668000Y-77933500D02*
X95668000Y-76580167D01*
X100388000Y-77933500D02*
X100388000Y-76580167D01*
X96028000Y-77933500D02*
X96028000Y-76580167D01*
X103648000Y-77933500D02*
X103648000Y-76580167D01*
X98088000Y-77933500D02*
X98088000Y-76580167D01*
X96388000Y-73873500D02*
X96388000Y-77933500D01*
X102928000Y-77933500D02*
X102928000Y-76580167D01*
X103528000Y-77933500D02*
X103528000Y-76580167D01*
X100198000Y-77933500D02*
X100198000Y-73873500D01*
X93488000Y-77933500D02*
X93488000Y-76580167D01*
X105793000Y-70953500D02*
X90793000Y-70953500D01*
X98448000Y-77933500D02*
X98448000Y-76580167D01*
X100988000Y-77933500D02*
X100988000Y-76580167D01*
X93248000Y-77933500D02*
X93248000Y-76580167D01*
X103888000Y-77933500D02*
X103888000Y-76580167D01*
X92648000Y-77933500D02*
X92648000Y-76580167D01*
X101468000Y-76580167D02*
X100198000Y-76580167D01*
X102808000Y-77933500D02*
X102808000Y-76580167D01*
X93848000Y-73873500D02*
X93848000Y-77933500D01*
X95118000Y-73873500D02*
X96388000Y-73873500D01*
X98328000Y-77933500D02*
X98328000Y-76580167D01*
X98208000Y-77933500D02*
X98208000Y-76580167D01*
X101228000Y-77933500D02*
X101228000Y-76580167D01*
X98928000Y-76580167D02*
X97658000Y-76580167D01*
X95908000Y-77933500D02*
X95908000Y-76580167D01*
X97728000Y-77933500D02*
X97728000Y-76580167D01*
X93008000Y-77933500D02*
X93008000Y-76580167D01*
X93848000Y-76580167D02*
X92578000Y-76580167D01*
X102738000Y-77933500D02*
X102738000Y-73873500D01*
X105793000Y-80853500D02*
X90793000Y-80853500D01*
X96268000Y-77933500D02*
X96268000Y-76580167D01*
X98928000Y-77933500D02*
X97658000Y-77933500D01*
X98568000Y-77933500D02*
X98568000Y-76580167D01*
X95308000Y-77933500D02*
X95308000Y-76580167D01*
X98808000Y-77933500D02*
X98808000Y-76580167D01*
X100748000Y-77933500D02*
X100748000Y-76580167D01*
X101348000Y-77933500D02*
X101348000Y-76580167D01*
X98688000Y-77933500D02*
X98688000Y-76580167D01*
X97658000Y-73873500D02*
X98928000Y-73873500D01*
X93848000Y-77933500D02*
X92578000Y-77933500D01*
X95788000Y-77933500D02*
X95788000Y-76580167D01*
%LPC*%
D12*
X112551000Y-47169000D03*
X112551000Y-49709000D03*
X112551000Y-52249000D03*
X112551000Y-54789000D03*
X112551000Y-57329000D03*
D13*
X112551000Y-59869000D03*
X112551000Y-62409000D03*
X112551000Y-64949000D03*
X112551000Y-67489000D03*
D14*
X109411000Y-68299000D03*
D15*
X106871000Y-68299000D03*
X104331000Y-68299000D03*
X101791000Y-68299000D03*
X99251000Y-68299000D03*
D13*
X96111000Y-67489000D03*
X96111000Y-64949000D03*
X96111000Y-62409000D03*
X96111000Y-59869000D03*
X96111000Y-57329000D03*
X96111000Y-54789000D03*
X96111000Y-52249000D03*
X96111000Y-49709000D03*
X96111000Y-47169000D03*
D16*
X183440000Y-87920000D03*
X189940000Y-87920000D03*
X189940000Y-92420000D03*
X183440000Y-92420000D03*
D17*
X203200000Y-99060000D03*
D16*
X118260000Y-73914000D03*
X111760000Y-73914000D03*
X118260000Y-78414000D03*
X111760000Y-78414000D03*
X111760000Y-95504000D03*
X118260000Y-95504000D03*
X111760000Y-100004000D03*
X118260000Y-100004000D03*
X100330000Y-85344000D03*
X106830000Y-85344000D03*
X100330000Y-89844000D03*
X106830000Y-89844000D03*
X197410000Y-80046000D03*
X203910000Y-80046000D03*
X203910000Y-84546000D03*
X197410000Y-84546000D03*
D18*
X213106000Y-73421000D03*
D19*
X213106000Y-75961000D03*
X213106000Y-78501000D03*
D18*
X196877000Y-73946500D03*
D19*
X196877000Y-71406500D03*
X199417000Y-73946500D03*
X199417000Y-71406500D03*
X201957000Y-73946500D03*
X201957000Y-71406500D03*
X204497000Y-73946500D03*
X204497000Y-71406500D03*
D16*
X160120095Y-103705670D03*
X160120095Y-93705670D03*
D20*
X150543895Y-92955670D03*
D16*
X147470095Y-103705670D03*
D20*
X150543895Y-88455670D03*
D16*
X147470095Y-93705670D03*
D20*
X157046295Y-92955670D03*
X157046295Y-88455670D03*
X145065095Y-101205030D03*
X145065095Y-98705670D03*
X145065095Y-96206310D03*
X156294455Y-107435670D03*
X153795095Y-107435670D03*
X151295735Y-107435670D03*
D16*
X123190000Y-85344000D03*
X129690000Y-85344000D03*
X123190000Y-89844000D03*
X129690000Y-89844000D03*
X168200000Y-95540000D03*
X174700000Y-95540000D03*
X174700000Y-100040000D03*
X168200000Y-100040000D03*
D17*
X101600000Y-99060000D03*
D21*
X189331000Y-55111000D03*
D16*
X189331000Y-70101000D03*
D22*
X103373000Y-79713500D03*
D23*
X100833000Y-79713500D03*
X98293000Y-79713500D03*
X95753000Y-79713500D03*
X93213000Y-79713500D03*
X93213000Y-72093500D03*
X95753000Y-72093500D03*
X98293000Y-72093500D03*
X100833000Y-72093500D03*
X103373000Y-72093500D03*
M02*
