%TF.GenerationSoftware,KiCad,Pcbnew,(6.0.9)*%
%TF.CreationDate,2022-11-26T23:56:55-05:00*%
%TF.ProjectId,rf_controller_hw,72665f63-6f6e-4747-926f-6c6c65725f68,rev?*%
%TF.SameCoordinates,Original*%
%TF.FileFunction,Drillmap*%
%TF.FilePolarity,Positive*%
%FSLAX45Y45*%
G04 Gerber Fmt 4.5, Leading zero omitted, Abs format (unit mm)*
G04 Created by KiCad (PCBNEW (6.0.9)) date 2022-11-26 23:56:55*
%MOMM*%
%LPD*%
G01*
G04 APERTURE LIST*
%ADD10C,0.100000*%
%ADD11C,0.200000*%
%ADD12C,0.330000*%
G04 APERTURE END LIST*
D10*
X9842500Y-6540500D02*
X11023600Y-6540500D01*
X11023600Y-4572000D01*
X21082000Y-4572000D01*
X21590000Y-5080000D01*
X21590000Y-11049000D01*
X21082000Y-11557000D01*
X9398000Y-11557000D01*
X8890000Y-11049000D01*
X8890000Y-5080000D01*
X9398000Y-4572000D01*
X9842500Y-4572000D01*
X9842500Y-6540500D01*
D11*
D12*
X15307600Y-5346100D02*
X15637600Y-5676100D01*
X15637600Y-5346100D02*
X15307600Y-5676100D01*
X15307600Y-6845100D02*
X15637600Y-7175100D01*
X15637600Y-6845100D02*
X15307600Y-7175100D01*
D11*
X9142619Y-11872476D02*
X9142619Y-11672476D01*
X9190238Y-11672476D01*
X9218810Y-11682000D01*
X9237857Y-11701048D01*
X9247381Y-11720095D01*
X9256905Y-11758190D01*
X9256905Y-11786762D01*
X9247381Y-11824857D01*
X9237857Y-11843905D01*
X9218810Y-11862952D01*
X9190238Y-11872476D01*
X9142619Y-11872476D01*
X9342619Y-11872476D02*
X9342619Y-11739143D01*
X9342619Y-11777238D02*
X9352143Y-11758190D01*
X9361667Y-11748667D01*
X9380714Y-11739143D01*
X9399762Y-11739143D01*
X9466429Y-11872476D02*
X9466429Y-11739143D01*
X9466429Y-11672476D02*
X9456905Y-11682000D01*
X9466429Y-11691524D01*
X9475952Y-11682000D01*
X9466429Y-11672476D01*
X9466429Y-11691524D01*
X9590238Y-11872476D02*
X9571190Y-11862952D01*
X9561667Y-11843905D01*
X9561667Y-11672476D01*
X9695000Y-11872476D02*
X9675952Y-11862952D01*
X9666429Y-11843905D01*
X9666429Y-11672476D01*
X9923571Y-11872476D02*
X9923571Y-11672476D01*
X9990238Y-11815333D01*
X10056905Y-11672476D01*
X10056905Y-11872476D01*
X10237857Y-11872476D02*
X10237857Y-11767714D01*
X10228333Y-11748667D01*
X10209286Y-11739143D01*
X10171190Y-11739143D01*
X10152143Y-11748667D01*
X10237857Y-11862952D02*
X10218810Y-11872476D01*
X10171190Y-11872476D01*
X10152143Y-11862952D01*
X10142619Y-11843905D01*
X10142619Y-11824857D01*
X10152143Y-11805809D01*
X10171190Y-11796286D01*
X10218810Y-11796286D01*
X10237857Y-11786762D01*
X10333095Y-11739143D02*
X10333095Y-11939143D01*
X10333095Y-11748667D02*
X10352143Y-11739143D01*
X10390238Y-11739143D01*
X10409286Y-11748667D01*
X10418810Y-11758190D01*
X10428333Y-11777238D01*
X10428333Y-11834381D01*
X10418810Y-11853428D01*
X10409286Y-11862952D01*
X10390238Y-11872476D01*
X10352143Y-11872476D01*
X10333095Y-11862952D01*
X10514048Y-11853428D02*
X10523571Y-11862952D01*
X10514048Y-11872476D01*
X10504524Y-11862952D01*
X10514048Y-11853428D01*
X10514048Y-11872476D01*
X10514048Y-11748667D02*
X10523571Y-11758190D01*
X10514048Y-11767714D01*
X10504524Y-11758190D01*
X10514048Y-11748667D01*
X10514048Y-11767714D01*
X8685000Y-12102000D02*
X8885000Y-12302000D01*
X8885000Y-12102000D02*
X8685000Y-12302000D01*
X9123571Y-12092476D02*
X9247381Y-12092476D01*
X9180714Y-12168667D01*
X9209286Y-12168667D01*
X9228333Y-12178190D01*
X9237857Y-12187714D01*
X9247381Y-12206762D01*
X9247381Y-12254381D01*
X9237857Y-12273428D01*
X9228333Y-12282952D01*
X9209286Y-12292476D01*
X9152143Y-12292476D01*
X9133095Y-12282952D01*
X9123571Y-12273428D01*
X9333095Y-12273428D02*
X9342619Y-12282952D01*
X9333095Y-12292476D01*
X9323571Y-12282952D01*
X9333095Y-12273428D01*
X9333095Y-12292476D01*
X9409286Y-12092476D02*
X9533095Y-12092476D01*
X9466429Y-12168667D01*
X9495000Y-12168667D01*
X9514048Y-12178190D01*
X9523571Y-12187714D01*
X9533095Y-12206762D01*
X9533095Y-12254381D01*
X9523571Y-12273428D01*
X9514048Y-12282952D01*
X9495000Y-12292476D01*
X9437857Y-12292476D01*
X9418810Y-12282952D01*
X9409286Y-12273428D01*
X9656905Y-12092476D02*
X9675952Y-12092476D01*
X9695000Y-12102000D01*
X9704524Y-12111524D01*
X9714048Y-12130571D01*
X9723571Y-12168667D01*
X9723571Y-12216286D01*
X9714048Y-12254381D01*
X9704524Y-12273428D01*
X9695000Y-12282952D01*
X9675952Y-12292476D01*
X9656905Y-12292476D01*
X9637857Y-12282952D01*
X9628333Y-12273428D01*
X9618810Y-12254381D01*
X9609286Y-12216286D01*
X9609286Y-12168667D01*
X9618810Y-12130571D01*
X9628333Y-12111524D01*
X9637857Y-12102000D01*
X9656905Y-12092476D01*
X9847381Y-12092476D02*
X9866429Y-12092476D01*
X9885476Y-12102000D01*
X9895000Y-12111524D01*
X9904524Y-12130571D01*
X9914048Y-12168667D01*
X9914048Y-12216286D01*
X9904524Y-12254381D01*
X9895000Y-12273428D01*
X9885476Y-12282952D01*
X9866429Y-12292476D01*
X9847381Y-12292476D01*
X9828333Y-12282952D01*
X9818810Y-12273428D01*
X9809286Y-12254381D01*
X9799762Y-12216286D01*
X9799762Y-12168667D01*
X9809286Y-12130571D01*
X9818810Y-12111524D01*
X9828333Y-12102000D01*
X9847381Y-12092476D01*
X9999762Y-12292476D02*
X9999762Y-12159143D01*
X9999762Y-12178190D02*
X10009286Y-12168667D01*
X10028333Y-12159143D01*
X10056905Y-12159143D01*
X10075952Y-12168667D01*
X10085476Y-12187714D01*
X10085476Y-12292476D01*
X10085476Y-12187714D02*
X10095000Y-12168667D01*
X10114048Y-12159143D01*
X10142619Y-12159143D01*
X10161667Y-12168667D01*
X10171190Y-12187714D01*
X10171190Y-12292476D01*
X10266429Y-12292476D02*
X10266429Y-12159143D01*
X10266429Y-12178190D02*
X10275952Y-12168667D01*
X10295000Y-12159143D01*
X10323571Y-12159143D01*
X10342619Y-12168667D01*
X10352143Y-12187714D01*
X10352143Y-12292476D01*
X10352143Y-12187714D02*
X10361667Y-12168667D01*
X10380714Y-12159143D01*
X10409286Y-12159143D01*
X10428333Y-12168667D01*
X10437857Y-12187714D01*
X10437857Y-12292476D01*
X10828333Y-12082952D02*
X10656905Y-12340095D01*
X11085476Y-12092476D02*
X11104524Y-12092476D01*
X11123571Y-12102000D01*
X11133095Y-12111524D01*
X11142619Y-12130571D01*
X11152143Y-12168667D01*
X11152143Y-12216286D01*
X11142619Y-12254381D01*
X11133095Y-12273428D01*
X11123571Y-12282952D01*
X11104524Y-12292476D01*
X11085476Y-12292476D01*
X11066429Y-12282952D01*
X11056905Y-12273428D01*
X11047381Y-12254381D01*
X11037857Y-12216286D01*
X11037857Y-12168667D01*
X11047381Y-12130571D01*
X11056905Y-12111524D01*
X11066429Y-12102000D01*
X11085476Y-12092476D01*
X11237857Y-12273428D02*
X11247381Y-12282952D01*
X11237857Y-12292476D01*
X11228333Y-12282952D01*
X11237857Y-12273428D01*
X11237857Y-12292476D01*
X11437857Y-12292476D02*
X11323571Y-12292476D01*
X11380714Y-12292476D02*
X11380714Y-12092476D01*
X11361667Y-12121048D01*
X11342619Y-12140095D01*
X11323571Y-12149619D01*
X11514048Y-12111524D02*
X11523571Y-12102000D01*
X11542619Y-12092476D01*
X11590238Y-12092476D01*
X11609286Y-12102000D01*
X11618809Y-12111524D01*
X11628333Y-12130571D01*
X11628333Y-12149619D01*
X11618809Y-12178190D01*
X11504524Y-12292476D01*
X11628333Y-12292476D01*
X11723571Y-12292476D02*
X11761667Y-12292476D01*
X11780714Y-12282952D01*
X11790238Y-12273428D01*
X11809286Y-12244857D01*
X11818809Y-12206762D01*
X11818809Y-12130571D01*
X11809286Y-12111524D01*
X11799762Y-12102000D01*
X11780714Y-12092476D01*
X11742619Y-12092476D01*
X11723571Y-12102000D01*
X11714048Y-12111524D01*
X11704524Y-12130571D01*
X11704524Y-12178190D01*
X11714048Y-12197238D01*
X11723571Y-12206762D01*
X11742619Y-12216286D01*
X11780714Y-12216286D01*
X11799762Y-12206762D01*
X11809286Y-12197238D01*
X11818809Y-12178190D01*
X11914048Y-12292476D02*
X11952143Y-12292476D01*
X11971190Y-12282952D01*
X11980714Y-12273428D01*
X11999762Y-12244857D01*
X12009286Y-12206762D01*
X12009286Y-12130571D01*
X11999762Y-12111524D01*
X11990238Y-12102000D01*
X11971190Y-12092476D01*
X11933095Y-12092476D01*
X11914048Y-12102000D01*
X11904524Y-12111524D01*
X11895000Y-12130571D01*
X11895000Y-12178190D01*
X11904524Y-12197238D01*
X11914048Y-12206762D01*
X11933095Y-12216286D01*
X11971190Y-12216286D01*
X11990238Y-12206762D01*
X11999762Y-12197238D01*
X12009286Y-12178190D01*
X12085476Y-12092476D02*
X12085476Y-12130571D01*
X12161667Y-12092476D02*
X12161667Y-12130571D01*
X12456905Y-12368667D02*
X12447381Y-12359143D01*
X12428333Y-12330571D01*
X12418809Y-12311524D01*
X12409286Y-12282952D01*
X12399762Y-12235333D01*
X12399762Y-12197238D01*
X12409286Y-12149619D01*
X12418809Y-12121048D01*
X12428333Y-12102000D01*
X12447381Y-12073428D01*
X12456905Y-12063905D01*
X12523571Y-12111524D02*
X12533095Y-12102000D01*
X12552143Y-12092476D01*
X12599762Y-12092476D01*
X12618809Y-12102000D01*
X12628333Y-12111524D01*
X12637857Y-12130571D01*
X12637857Y-12149619D01*
X12628333Y-12178190D01*
X12514048Y-12292476D01*
X12637857Y-12292476D01*
X12875952Y-12292476D02*
X12875952Y-12092476D01*
X12961667Y-12292476D02*
X12961667Y-12187714D01*
X12952143Y-12168667D01*
X12933095Y-12159143D01*
X12904524Y-12159143D01*
X12885476Y-12168667D01*
X12875952Y-12178190D01*
X13085476Y-12292476D02*
X13066428Y-12282952D01*
X13056905Y-12273428D01*
X13047381Y-12254381D01*
X13047381Y-12197238D01*
X13056905Y-12178190D01*
X13066428Y-12168667D01*
X13085476Y-12159143D01*
X13114048Y-12159143D01*
X13133095Y-12168667D01*
X13142619Y-12178190D01*
X13152143Y-12197238D01*
X13152143Y-12254381D01*
X13142619Y-12273428D01*
X13133095Y-12282952D01*
X13114048Y-12292476D01*
X13085476Y-12292476D01*
X13266428Y-12292476D02*
X13247381Y-12282952D01*
X13237857Y-12263905D01*
X13237857Y-12092476D01*
X13418809Y-12282952D02*
X13399762Y-12292476D01*
X13361667Y-12292476D01*
X13342619Y-12282952D01*
X13333095Y-12263905D01*
X13333095Y-12187714D01*
X13342619Y-12168667D01*
X13361667Y-12159143D01*
X13399762Y-12159143D01*
X13418809Y-12168667D01*
X13428333Y-12187714D01*
X13428333Y-12206762D01*
X13333095Y-12225809D01*
X13504524Y-12282952D02*
X13523571Y-12292476D01*
X13561667Y-12292476D01*
X13580714Y-12282952D01*
X13590238Y-12263905D01*
X13590238Y-12254381D01*
X13580714Y-12235333D01*
X13561667Y-12225809D01*
X13533095Y-12225809D01*
X13514048Y-12216286D01*
X13504524Y-12197238D01*
X13504524Y-12187714D01*
X13514048Y-12168667D01*
X13533095Y-12159143D01*
X13561667Y-12159143D01*
X13580714Y-12168667D01*
X13656905Y-12368667D02*
X13666428Y-12359143D01*
X13685476Y-12330571D01*
X13695000Y-12311524D01*
X13704524Y-12282952D01*
X13714048Y-12235333D01*
X13714048Y-12197238D01*
X13704524Y-12149619D01*
X13695000Y-12121048D01*
X13685476Y-12102000D01*
X13666428Y-12073428D01*
X13656905Y-12063905D01*
X14018809Y-12368667D02*
X14009286Y-12359143D01*
X13990238Y-12330571D01*
X13980714Y-12311524D01*
X13971190Y-12282952D01*
X13961667Y-12235333D01*
X13961667Y-12197238D01*
X13971190Y-12149619D01*
X13980714Y-12121048D01*
X13990238Y-12102000D01*
X14009286Y-12073428D01*
X14018809Y-12063905D01*
X14095000Y-12159143D02*
X14095000Y-12292476D01*
X14095000Y-12178190D02*
X14104524Y-12168667D01*
X14123571Y-12159143D01*
X14152143Y-12159143D01*
X14171190Y-12168667D01*
X14180714Y-12187714D01*
X14180714Y-12292476D01*
X14304524Y-12292476D02*
X14285476Y-12282952D01*
X14275952Y-12273428D01*
X14266428Y-12254381D01*
X14266428Y-12197238D01*
X14275952Y-12178190D01*
X14285476Y-12168667D01*
X14304524Y-12159143D01*
X14333095Y-12159143D01*
X14352143Y-12168667D01*
X14361667Y-12178190D01*
X14371190Y-12197238D01*
X14371190Y-12254381D01*
X14361667Y-12273428D01*
X14352143Y-12282952D01*
X14333095Y-12292476D01*
X14304524Y-12292476D01*
X14428333Y-12159143D02*
X14504524Y-12159143D01*
X14456905Y-12092476D02*
X14456905Y-12263905D01*
X14466428Y-12282952D01*
X14485476Y-12292476D01*
X14504524Y-12292476D01*
X14723571Y-12159143D02*
X14723571Y-12359143D01*
X14723571Y-12168667D02*
X14742619Y-12159143D01*
X14780714Y-12159143D01*
X14799762Y-12168667D01*
X14809286Y-12178190D01*
X14818809Y-12197238D01*
X14818809Y-12254381D01*
X14809286Y-12273428D01*
X14799762Y-12282952D01*
X14780714Y-12292476D01*
X14742619Y-12292476D01*
X14723571Y-12282952D01*
X14933095Y-12292476D02*
X14914048Y-12282952D01*
X14904524Y-12263905D01*
X14904524Y-12092476D01*
X15095000Y-12292476D02*
X15095000Y-12187714D01*
X15085476Y-12168667D01*
X15066428Y-12159143D01*
X15028333Y-12159143D01*
X15009286Y-12168667D01*
X15095000Y-12282952D02*
X15075952Y-12292476D01*
X15028333Y-12292476D01*
X15009286Y-12282952D01*
X14999762Y-12263905D01*
X14999762Y-12244857D01*
X15009286Y-12225809D01*
X15028333Y-12216286D01*
X15075952Y-12216286D01*
X15095000Y-12206762D01*
X15161667Y-12159143D02*
X15237857Y-12159143D01*
X15190238Y-12092476D02*
X15190238Y-12263905D01*
X15199762Y-12282952D01*
X15218809Y-12292476D01*
X15237857Y-12292476D01*
X15380714Y-12282952D02*
X15361667Y-12292476D01*
X15323571Y-12292476D01*
X15304524Y-12282952D01*
X15295000Y-12263905D01*
X15295000Y-12187714D01*
X15304524Y-12168667D01*
X15323571Y-12159143D01*
X15361667Y-12159143D01*
X15380714Y-12168667D01*
X15390238Y-12187714D01*
X15390238Y-12206762D01*
X15295000Y-12225809D01*
X15561667Y-12292476D02*
X15561667Y-12092476D01*
X15561667Y-12282952D02*
X15542619Y-12292476D01*
X15504524Y-12292476D01*
X15485476Y-12282952D01*
X15475952Y-12273428D01*
X15466428Y-12254381D01*
X15466428Y-12197238D01*
X15475952Y-12178190D01*
X15485476Y-12168667D01*
X15504524Y-12159143D01*
X15542619Y-12159143D01*
X15561667Y-12168667D01*
X15637857Y-12368667D02*
X15647381Y-12359143D01*
X15666428Y-12330571D01*
X15675952Y-12311524D01*
X15685476Y-12282952D01*
X15695000Y-12235333D01*
X15695000Y-12197238D01*
X15685476Y-12149619D01*
X15675952Y-12121048D01*
X15666428Y-12102000D01*
X15647381Y-12073428D01*
X15637857Y-12063905D01*
M02*
