%TF.GenerationSoftware,KiCad,Pcbnew,(6.0.9)*%
%TF.CreationDate,2022-12-06T16:11:31-05:00*%
%TF.ProjectId,rf_controller_hw,72665f63-6f6e-4747-926f-6c6c65725f68,rev?*%
%TF.SameCoordinates,Original*%
%TF.FileFunction,Drillmap*%
%TF.FilePolarity,Positive*%
%FSLAX45Y45*%
G04 Gerber Fmt 4.5, Leading zero omitted, Abs format (unit mm)*
G04 Created by KiCad (PCBNEW (6.0.9)) date 2022-12-06 16:11:31*
%MOMM*%
%LPD*%
G01*
G04 APERTURE LIST*
%ADD10C,0.100000*%
%ADD11C,0.200000*%
%ADD12C,0.040000*%
%ADD13C,0.080000*%
%ADD14C,0.100076*%
%ADD15C,0.102000*%
%ADD16C,0.110000*%
%ADD17C,0.120000*%
%ADD18C,0.150114*%
G04 APERTURE END LIST*
D10*
X9842500Y-6540500D02*
X11023600Y-6540500D01*
X11023600Y-4572000D01*
X21082000Y-4572000D01*
X21590000Y-5080000D01*
X21590000Y-11049000D01*
X21082000Y-11557000D01*
X9398000Y-11557000D01*
X8890000Y-11049000D01*
X8890000Y-5080000D01*
X9398000Y-4572000D01*
X9842500Y-4572000D01*
X9842500Y-6540500D01*
D11*
D12*
X8997000Y-5187000D02*
X9037000Y-5227000D01*
X9037000Y-5187000D02*
X8997000Y-5227000D01*
X9051550Y-5949000D02*
X9091550Y-5989000D01*
X9091550Y-5949000D02*
X9051550Y-5989000D01*
X9102350Y-5847400D02*
X9142350Y-5887400D01*
X9142350Y-5847400D02*
X9102350Y-5887400D01*
X10546400Y-7523800D02*
X10586400Y-7563800D01*
X10586400Y-7523800D02*
X10546400Y-7563800D01*
X10597200Y-8082600D02*
X10637200Y-8122600D01*
X10637200Y-8082600D02*
X10597200Y-8122600D01*
X10698800Y-8133400D02*
X10738800Y-8173400D01*
X10738800Y-8133400D02*
X10698800Y-8173400D01*
X10724200Y-7625400D02*
X10764200Y-7665400D01*
X10764200Y-7625400D02*
X10724200Y-7665400D01*
X11664000Y-4679000D02*
X11704000Y-4719000D01*
X11704000Y-4679000D02*
X11664000Y-4719000D01*
X11664000Y-5949000D02*
X11704000Y-5989000D01*
X11704000Y-5949000D02*
X11664000Y-5989000D01*
X14077000Y-10394000D02*
X14117000Y-10434000D01*
X14117000Y-10394000D02*
X14077000Y-10434000D01*
X16617000Y-8616000D02*
X16657000Y-8656000D01*
X16657000Y-8616000D02*
X16617000Y-8656000D01*
X16998000Y-8362000D02*
X17038000Y-8402000D01*
X17038000Y-8362000D02*
X16998000Y-8402000D01*
X17506000Y-8489000D02*
X17546000Y-8529000D01*
X17546000Y-8489000D02*
X17506000Y-8529000D01*
X18649000Y-7854000D02*
X18689000Y-7894000D01*
X18689000Y-7854000D02*
X18649000Y-7894000D01*
X18966500Y-4742500D02*
X19006500Y-4782500D01*
X19006500Y-4742500D02*
X18966500Y-4782500D01*
X18966500Y-5187000D02*
X19006500Y-5227000D01*
X19006500Y-5187000D02*
X18966500Y-5227000D01*
X19030000Y-6584000D02*
X19070000Y-6624000D01*
X19070000Y-6584000D02*
X19030000Y-6624000D01*
X20808000Y-7219000D02*
X20848000Y-7259000D01*
X20848000Y-7219000D02*
X20808000Y-7259000D01*
X21062000Y-6901500D02*
X21102000Y-6941500D01*
X21102000Y-6901500D02*
X21062000Y-6941500D01*
D13*
X9361300Y-7209350D02*
G75*
G03*
X9361300Y-7209350I-40000J0D01*
G01*
X9361300Y-7971350D02*
G75*
G03*
X9361300Y-7971350I-40000J0D01*
G01*
X9615300Y-7209350D02*
G75*
G03*
X9615300Y-7209350I-40000J0D01*
G01*
X9615300Y-7971350D02*
G75*
G03*
X9615300Y-7971350I-40000J0D01*
G01*
X9711100Y-4716900D02*
G75*
G03*
X9711100Y-4716900I-40000J0D01*
G01*
X9711100Y-4970900D02*
G75*
G03*
X9711100Y-4970900I-40000J0D01*
G01*
X9711100Y-5224900D02*
G75*
G03*
X9711100Y-5224900I-40000J0D01*
G01*
X9711100Y-5478900D02*
G75*
G03*
X9711100Y-5478900I-40000J0D01*
G01*
X9711100Y-5732900D02*
G75*
G03*
X9711100Y-5732900I-40000J0D01*
G01*
X9711100Y-5986900D02*
G75*
G03*
X9711100Y-5986900I-40000J0D01*
G01*
X9711100Y-6240900D02*
G75*
G03*
X9711100Y-6240900I-40000J0D01*
G01*
X9711100Y-6494900D02*
G75*
G03*
X9711100Y-6494900I-40000J0D01*
G01*
X9711100Y-6748900D02*
G75*
G03*
X9711100Y-6748900I-40000J0D01*
G01*
X9869300Y-7209350D02*
G75*
G03*
X9869300Y-7209350I-40000J0D01*
G01*
X9869300Y-7971350D02*
G75*
G03*
X9869300Y-7971350I-40000J0D01*
G01*
X9965100Y-6769900D02*
G75*
G03*
X9965100Y-6769900I-40000J0D01*
G01*
X10123300Y-7209350D02*
G75*
G03*
X10123300Y-7209350I-40000J0D01*
G01*
X10123300Y-7971350D02*
G75*
G03*
X10123300Y-7971350I-40000J0D01*
G01*
X10219100Y-6769900D02*
G75*
G03*
X10219100Y-6769900I-40000J0D01*
G01*
X10377300Y-7209350D02*
G75*
G03*
X10377300Y-7209350I-40000J0D01*
G01*
X10377300Y-7971350D02*
G75*
G03*
X10377300Y-7971350I-40000J0D01*
G01*
X10473100Y-6769900D02*
G75*
G03*
X10473100Y-6769900I-40000J0D01*
G01*
X10727100Y-6769900D02*
G75*
G03*
X10727100Y-6769900I-40000J0D01*
G01*
X10981100Y-6769900D02*
G75*
G03*
X10981100Y-6769900I-40000J0D01*
G01*
X11235100Y-4716900D02*
G75*
G03*
X11235100Y-4716900I-40000J0D01*
G01*
X11235100Y-4970900D02*
G75*
G03*
X11235100Y-4970900I-40000J0D01*
G01*
X11235100Y-5224900D02*
G75*
G03*
X11235100Y-5224900I-40000J0D01*
G01*
X11235100Y-5478900D02*
G75*
G03*
X11235100Y-5478900I-40000J0D01*
G01*
X11235100Y-5732900D02*
G75*
G03*
X11235100Y-5732900I-40000J0D01*
G01*
X11235100Y-5986900D02*
G75*
G03*
X11235100Y-5986900I-40000J0D01*
G01*
X11235100Y-6240900D02*
G75*
G03*
X11235100Y-6240900I-40000J0D01*
G01*
X11235100Y-6494900D02*
G75*
G03*
X11235100Y-6494900I-40000J0D01*
G01*
X11235100Y-6748900D02*
G75*
G03*
X11235100Y-6748900I-40000J0D01*
G01*
D10*
X19687700Y-7090650D02*
X19687700Y-7190650D01*
X19637700Y-7140650D02*
X19737700Y-7140650D01*
X19687700Y-7344650D02*
X19687700Y-7444650D01*
X19637700Y-7394650D02*
X19737700Y-7394650D01*
X19941700Y-7090650D02*
X19941700Y-7190650D01*
X19891700Y-7140650D02*
X19991700Y-7140650D01*
X19941700Y-7344650D02*
X19941700Y-7444650D01*
X19891700Y-7394650D02*
X19991700Y-7394650D01*
X20195700Y-7090650D02*
X20195700Y-7190650D01*
X20145700Y-7140650D02*
X20245700Y-7140650D01*
X20195700Y-7344650D02*
X20195700Y-7444650D01*
X20145700Y-7394650D02*
X20245700Y-7394650D01*
X20449700Y-7090650D02*
X20449700Y-7190650D01*
X20399700Y-7140650D02*
X20499700Y-7140650D01*
X20449700Y-7344650D02*
X20449700Y-7444650D01*
X20399700Y-7394650D02*
X20499700Y-7394650D01*
X21310600Y-7292100D02*
X21310600Y-7392100D01*
X21260600Y-7342100D02*
X21360600Y-7342100D01*
X21310600Y-7546100D02*
X21310600Y-7646100D01*
X21260600Y-7596100D02*
X21360600Y-7596100D01*
X21310600Y-7800100D02*
X21310600Y-7900100D01*
X21260600Y-7850100D02*
X21360600Y-7850100D01*
D14*
X14541892Y-9656014D02*
X14541892Y-9585249D01*
X14471127Y-9585249D01*
X14471127Y-9656014D01*
X14541892Y-9656014D01*
X14541892Y-9905950D02*
X14541892Y-9835185D01*
X14471127Y-9835185D01*
X14471127Y-9905950D01*
X14541892Y-9905950D01*
X14541892Y-10155886D02*
X14541892Y-10085121D01*
X14471127Y-10085121D01*
X14471127Y-10155886D01*
X14541892Y-10155886D01*
X15164956Y-10778950D02*
X15164956Y-10708185D01*
X15094191Y-10708185D01*
X15094191Y-10778950D01*
X15164956Y-10778950D01*
X15414892Y-10778950D02*
X15414892Y-10708185D01*
X15344127Y-10708185D01*
X15344127Y-10778950D01*
X15414892Y-10778950D01*
X15664828Y-10778950D02*
X15664828Y-10708185D01*
X15594063Y-10708185D01*
X15594063Y-10778950D01*
X15664828Y-10778950D01*
D15*
X18933100Y-5562100D02*
X18984100Y-5511100D01*
X18933100Y-5460100D01*
X18882100Y-5511100D01*
X18933100Y-5562100D01*
X18933100Y-7061100D02*
X18984100Y-7010100D01*
X18933100Y-6959100D01*
X18882100Y-7010100D01*
X18933100Y-7061100D01*
D16*
X9978000Y-8479400D02*
X10088000Y-8589400D01*
X10088000Y-8479400D02*
X9978000Y-8589400D01*
X10088000Y-8534400D02*
G75*
G03*
X10088000Y-8534400I-55000J0D01*
G01*
X9978000Y-8929400D02*
X10088000Y-9039400D01*
X10088000Y-8929400D02*
X9978000Y-9039400D01*
X10088000Y-8984400D02*
G75*
G03*
X10088000Y-8984400I-55000J0D01*
G01*
X10628000Y-8479400D02*
X10738000Y-8589400D01*
X10738000Y-8479400D02*
X10628000Y-8589400D01*
X10738000Y-8534400D02*
G75*
G03*
X10738000Y-8534400I-55000J0D01*
G01*
X10628000Y-8929400D02*
X10738000Y-9039400D01*
X10738000Y-8929400D02*
X10628000Y-9039400D01*
X10738000Y-8984400D02*
G75*
G03*
X10738000Y-8984400I-55000J0D01*
G01*
X11121000Y-7336400D02*
X11231000Y-7446400D01*
X11231000Y-7336400D02*
X11121000Y-7446400D01*
X11231000Y-7391400D02*
G75*
G03*
X11231000Y-7391400I-55000J0D01*
G01*
X11121000Y-7786400D02*
X11231000Y-7896400D01*
X11231000Y-7786400D02*
X11121000Y-7896400D01*
X11231000Y-7841400D02*
G75*
G03*
X11231000Y-7841400I-55000J0D01*
G01*
X11121000Y-9495400D02*
X11231000Y-9605400D01*
X11231000Y-9495400D02*
X11121000Y-9605400D01*
X11231000Y-9550400D02*
G75*
G03*
X11231000Y-9550400I-55000J0D01*
G01*
X11121000Y-9945400D02*
X11231000Y-10055400D01*
X11231000Y-9945400D02*
X11121000Y-10055400D01*
X11231000Y-10000400D02*
G75*
G03*
X11231000Y-10000400I-55000J0D01*
G01*
X11771000Y-7336400D02*
X11881000Y-7446400D01*
X11881000Y-7336400D02*
X11771000Y-7446400D01*
X11881000Y-7391400D02*
G75*
G03*
X11881000Y-7391400I-55000J0D01*
G01*
X11771000Y-7786400D02*
X11881000Y-7896400D01*
X11881000Y-7786400D02*
X11771000Y-7896400D01*
X11881000Y-7841400D02*
G75*
G03*
X11881000Y-7841400I-55000J0D01*
G01*
X11771000Y-9495400D02*
X11881000Y-9605400D01*
X11881000Y-9495400D02*
X11771000Y-9605400D01*
X11881000Y-9550400D02*
G75*
G03*
X11881000Y-9550400I-55000J0D01*
G01*
X11771000Y-9945400D02*
X11881000Y-10055400D01*
X11881000Y-9945400D02*
X11771000Y-10055400D01*
X11881000Y-10000400D02*
G75*
G03*
X11881000Y-10000400I-55000J0D01*
G01*
X12264000Y-8479400D02*
X12374000Y-8589400D01*
X12374000Y-8479400D02*
X12264000Y-8589400D01*
X12374000Y-8534400D02*
G75*
G03*
X12374000Y-8534400I-55000J0D01*
G01*
X12264000Y-8929400D02*
X12374000Y-9039400D01*
X12374000Y-8929400D02*
X12264000Y-9039400D01*
X12374000Y-8984400D02*
G75*
G03*
X12374000Y-8984400I-55000J0D01*
G01*
X12914000Y-8479400D02*
X13024000Y-8589400D01*
X13024000Y-8479400D02*
X12914000Y-8589400D01*
X13024000Y-8534400D02*
G75*
G03*
X13024000Y-8534400I-55000J0D01*
G01*
X12914000Y-8929400D02*
X13024000Y-9039400D01*
X13024000Y-8929400D02*
X12914000Y-9039400D01*
X13024000Y-8984400D02*
G75*
G03*
X13024000Y-8984400I-55000J0D01*
G01*
X16765000Y-9499000D02*
X16875000Y-9609000D01*
X16875000Y-9499000D02*
X16765000Y-9609000D01*
X16875000Y-9554000D02*
G75*
G03*
X16875000Y-9554000I-55000J0D01*
G01*
X16765000Y-9949000D02*
X16875000Y-10059000D01*
X16875000Y-9949000D02*
X16765000Y-10059000D01*
X16875000Y-10004000D02*
G75*
G03*
X16875000Y-10004000I-55000J0D01*
G01*
X17415000Y-9499000D02*
X17525000Y-9609000D01*
X17525000Y-9499000D02*
X17415000Y-9609000D01*
X17525000Y-9554000D02*
G75*
G03*
X17525000Y-9554000I-55000J0D01*
G01*
X17415000Y-9949000D02*
X17525000Y-10059000D01*
X17525000Y-9949000D02*
X17415000Y-10059000D01*
X17525000Y-10004000D02*
G75*
G03*
X17525000Y-10004000I-55000J0D01*
G01*
X18289000Y-8737000D02*
X18399000Y-8847000D01*
X18399000Y-8737000D02*
X18289000Y-8847000D01*
X18399000Y-8792000D02*
G75*
G03*
X18399000Y-8792000I-55000J0D01*
G01*
X18289000Y-9187000D02*
X18399000Y-9297000D01*
X18399000Y-9187000D02*
X18289000Y-9297000D01*
X18399000Y-9242000D02*
G75*
G03*
X18399000Y-9242000I-55000J0D01*
G01*
X18939000Y-8737000D02*
X19049000Y-8847000D01*
X19049000Y-8737000D02*
X18939000Y-8847000D01*
X19049000Y-8792000D02*
G75*
G03*
X19049000Y-8792000I-55000J0D01*
G01*
X18939000Y-9187000D02*
X19049000Y-9297000D01*
X19049000Y-9187000D02*
X18939000Y-9297000D01*
X19049000Y-9242000D02*
G75*
G03*
X19049000Y-9242000I-55000J0D01*
G01*
X19686000Y-7949600D02*
X19796000Y-8059600D01*
X19796000Y-7949600D02*
X19686000Y-8059600D01*
X19796000Y-8004600D02*
G75*
G03*
X19796000Y-8004600I-55000J0D01*
G01*
X19686000Y-8399600D02*
X19796000Y-8509600D01*
X19796000Y-8399600D02*
X19686000Y-8509600D01*
X19796000Y-8454600D02*
G75*
G03*
X19796000Y-8454600I-55000J0D01*
G01*
X20336000Y-7949600D02*
X20446000Y-8059600D01*
X20446000Y-7949600D02*
X20336000Y-8059600D01*
X20446000Y-8004600D02*
G75*
G03*
X20446000Y-8004600I-55000J0D01*
G01*
X20336000Y-8399600D02*
X20446000Y-8509600D01*
X20446000Y-8399600D02*
X20336000Y-8509600D01*
X20446000Y-8454600D02*
G75*
G03*
X20446000Y-8454600I-55000J0D01*
G01*
D17*
X14994389Y-8785567D02*
X15114389Y-8905567D01*
X15114389Y-8785567D02*
X14994389Y-8905567D01*
X15054389Y-8785567D02*
X15054389Y-8905567D01*
X14994389Y-8845567D02*
X15114389Y-8845567D01*
X14994389Y-9235567D02*
X15114389Y-9355567D01*
X15114389Y-9235567D02*
X14994389Y-9355567D01*
X15054389Y-9235567D02*
X15054389Y-9355567D01*
X14994389Y-9295567D02*
X15114389Y-9295567D01*
X15644629Y-8785567D02*
X15764629Y-8905567D01*
X15764629Y-8785567D02*
X15644629Y-8905567D01*
X15704629Y-8785567D02*
X15704629Y-8905567D01*
X15644629Y-8845567D02*
X15764629Y-8845567D01*
X15644629Y-9235567D02*
X15764629Y-9355567D01*
X15764629Y-9235567D02*
X15644629Y-9355567D01*
X15704629Y-9235567D02*
X15704629Y-9355567D01*
X15644629Y-9295567D02*
X15764629Y-9295567D01*
D18*
X14671952Y-9295510D02*
X14822066Y-9445624D01*
X14822066Y-9295510D02*
X14671952Y-9445624D01*
X14800083Y-9423641D02*
X14800083Y-9317493D01*
X14693936Y-9317493D01*
X14693936Y-9423641D01*
X14800083Y-9423641D01*
X14671952Y-10295510D02*
X14822066Y-10445624D01*
X14822066Y-10295510D02*
X14671952Y-10445624D01*
X14800083Y-10423641D02*
X14800083Y-10317493D01*
X14693936Y-10317493D01*
X14693936Y-10423641D01*
X14800083Y-10423641D01*
X15936952Y-9295510D02*
X16087066Y-9445624D01*
X16087066Y-9295510D02*
X15936952Y-9445624D01*
X16065083Y-9423641D02*
X16065083Y-9317493D01*
X15958936Y-9317493D01*
X15958936Y-9423641D01*
X16065083Y-9423641D01*
X15936952Y-10295510D02*
X16087066Y-10445624D01*
X16087066Y-10295510D02*
X15936952Y-10445624D01*
X16065083Y-10423641D02*
X16065083Y-10317493D01*
X15958936Y-10317493D01*
X15958936Y-10423641D01*
X16065083Y-10423641D01*
D11*
X9142619Y-11872476D02*
X9142619Y-11672476D01*
X9190238Y-11672476D01*
X9218810Y-11682000D01*
X9237857Y-11701048D01*
X9247381Y-11720095D01*
X9256905Y-11758190D01*
X9256905Y-11786762D01*
X9247381Y-11824857D01*
X9237857Y-11843905D01*
X9218810Y-11862952D01*
X9190238Y-11872476D01*
X9142619Y-11872476D01*
X9342619Y-11872476D02*
X9342619Y-11739143D01*
X9342619Y-11777238D02*
X9352143Y-11758190D01*
X9361667Y-11748667D01*
X9380714Y-11739143D01*
X9399762Y-11739143D01*
X9466429Y-11872476D02*
X9466429Y-11739143D01*
X9466429Y-11672476D02*
X9456905Y-11682000D01*
X9466429Y-11691524D01*
X9475952Y-11682000D01*
X9466429Y-11672476D01*
X9466429Y-11691524D01*
X9590238Y-11872476D02*
X9571190Y-11862952D01*
X9561667Y-11843905D01*
X9561667Y-11672476D01*
X9695000Y-11872476D02*
X9675952Y-11862952D01*
X9666429Y-11843905D01*
X9666429Y-11672476D01*
X9923571Y-11872476D02*
X9923571Y-11672476D01*
X9990238Y-11815333D01*
X10056905Y-11672476D01*
X10056905Y-11872476D01*
X10237857Y-11872476D02*
X10237857Y-11767714D01*
X10228333Y-11748667D01*
X10209286Y-11739143D01*
X10171190Y-11739143D01*
X10152143Y-11748667D01*
X10237857Y-11862952D02*
X10218810Y-11872476D01*
X10171190Y-11872476D01*
X10152143Y-11862952D01*
X10142619Y-11843905D01*
X10142619Y-11824857D01*
X10152143Y-11805809D01*
X10171190Y-11796286D01*
X10218810Y-11796286D01*
X10237857Y-11786762D01*
X10333095Y-11739143D02*
X10333095Y-11939143D01*
X10333095Y-11748667D02*
X10352143Y-11739143D01*
X10390238Y-11739143D01*
X10409286Y-11748667D01*
X10418810Y-11758190D01*
X10428333Y-11777238D01*
X10428333Y-11834381D01*
X10418810Y-11853428D01*
X10409286Y-11862952D01*
X10390238Y-11872476D01*
X10352143Y-11872476D01*
X10333095Y-11862952D01*
X10514048Y-11853428D02*
X10523571Y-11862952D01*
X10514048Y-11872476D01*
X10504524Y-11862952D01*
X10514048Y-11853428D01*
X10514048Y-11872476D01*
X10514048Y-11748667D02*
X10523571Y-11758190D01*
X10514048Y-11767714D01*
X10504524Y-11758190D01*
X10514048Y-11748667D01*
X10514048Y-11767714D01*
D12*
X8845000Y-12182000D02*
X8885000Y-12222000D01*
X8885000Y-12182000D02*
X8845000Y-12222000D01*
D11*
X9180714Y-12092476D02*
X9199762Y-12092476D01*
X9218810Y-12102000D01*
X9228333Y-12111524D01*
X9237857Y-12130571D01*
X9247381Y-12168667D01*
X9247381Y-12216286D01*
X9237857Y-12254381D01*
X9228333Y-12273428D01*
X9218810Y-12282952D01*
X9199762Y-12292476D01*
X9180714Y-12292476D01*
X9161667Y-12282952D01*
X9152143Y-12273428D01*
X9142619Y-12254381D01*
X9133095Y-12216286D01*
X9133095Y-12168667D01*
X9142619Y-12130571D01*
X9152143Y-12111524D01*
X9161667Y-12102000D01*
X9180714Y-12092476D01*
X9333095Y-12273428D02*
X9342619Y-12282952D01*
X9333095Y-12292476D01*
X9323571Y-12282952D01*
X9333095Y-12273428D01*
X9333095Y-12292476D01*
X9514048Y-12159143D02*
X9514048Y-12292476D01*
X9466429Y-12082952D02*
X9418810Y-12225809D01*
X9542619Y-12225809D01*
X9656905Y-12092476D02*
X9675952Y-12092476D01*
X9695000Y-12102000D01*
X9704524Y-12111524D01*
X9714048Y-12130571D01*
X9723571Y-12168667D01*
X9723571Y-12216286D01*
X9714048Y-12254381D01*
X9704524Y-12273428D01*
X9695000Y-12282952D01*
X9675952Y-12292476D01*
X9656905Y-12292476D01*
X9637857Y-12282952D01*
X9628333Y-12273428D01*
X9618810Y-12254381D01*
X9609286Y-12216286D01*
X9609286Y-12168667D01*
X9618810Y-12130571D01*
X9628333Y-12111524D01*
X9637857Y-12102000D01*
X9656905Y-12092476D01*
X9847381Y-12092476D02*
X9866429Y-12092476D01*
X9885476Y-12102000D01*
X9895000Y-12111524D01*
X9904524Y-12130571D01*
X9914048Y-12168667D01*
X9914048Y-12216286D01*
X9904524Y-12254381D01*
X9895000Y-12273428D01*
X9885476Y-12282952D01*
X9866429Y-12292476D01*
X9847381Y-12292476D01*
X9828333Y-12282952D01*
X9818810Y-12273428D01*
X9809286Y-12254381D01*
X9799762Y-12216286D01*
X9799762Y-12168667D01*
X9809286Y-12130571D01*
X9818810Y-12111524D01*
X9828333Y-12102000D01*
X9847381Y-12092476D01*
X9999762Y-12292476D02*
X9999762Y-12159143D01*
X9999762Y-12178190D02*
X10009286Y-12168667D01*
X10028333Y-12159143D01*
X10056905Y-12159143D01*
X10075952Y-12168667D01*
X10085476Y-12187714D01*
X10085476Y-12292476D01*
X10085476Y-12187714D02*
X10095000Y-12168667D01*
X10114048Y-12159143D01*
X10142619Y-12159143D01*
X10161667Y-12168667D01*
X10171190Y-12187714D01*
X10171190Y-12292476D01*
X10266429Y-12292476D02*
X10266429Y-12159143D01*
X10266429Y-12178190D02*
X10275952Y-12168667D01*
X10295000Y-12159143D01*
X10323571Y-12159143D01*
X10342619Y-12168667D01*
X10352143Y-12187714D01*
X10352143Y-12292476D01*
X10352143Y-12187714D02*
X10361667Y-12168667D01*
X10380714Y-12159143D01*
X10409286Y-12159143D01*
X10428333Y-12168667D01*
X10437857Y-12187714D01*
X10437857Y-12292476D01*
X10828333Y-12082952D02*
X10656905Y-12340095D01*
X11085476Y-12092476D02*
X11104524Y-12092476D01*
X11123571Y-12102000D01*
X11133095Y-12111524D01*
X11142619Y-12130571D01*
X11152143Y-12168667D01*
X11152143Y-12216286D01*
X11142619Y-12254381D01*
X11133095Y-12273428D01*
X11123571Y-12282952D01*
X11104524Y-12292476D01*
X11085476Y-12292476D01*
X11066429Y-12282952D01*
X11056905Y-12273428D01*
X11047381Y-12254381D01*
X11037857Y-12216286D01*
X11037857Y-12168667D01*
X11047381Y-12130571D01*
X11056905Y-12111524D01*
X11066429Y-12102000D01*
X11085476Y-12092476D01*
X11237857Y-12273428D02*
X11247381Y-12282952D01*
X11237857Y-12292476D01*
X11228333Y-12282952D01*
X11237857Y-12273428D01*
X11237857Y-12292476D01*
X11371190Y-12092476D02*
X11390238Y-12092476D01*
X11409286Y-12102000D01*
X11418809Y-12111524D01*
X11428333Y-12130571D01*
X11437857Y-12168667D01*
X11437857Y-12216286D01*
X11428333Y-12254381D01*
X11418809Y-12273428D01*
X11409286Y-12282952D01*
X11390238Y-12292476D01*
X11371190Y-12292476D01*
X11352143Y-12282952D01*
X11342619Y-12273428D01*
X11333095Y-12254381D01*
X11323571Y-12216286D01*
X11323571Y-12168667D01*
X11333095Y-12130571D01*
X11342619Y-12111524D01*
X11352143Y-12102000D01*
X11371190Y-12092476D01*
X11628333Y-12292476D02*
X11514048Y-12292476D01*
X11571190Y-12292476D02*
X11571190Y-12092476D01*
X11552143Y-12121048D01*
X11533095Y-12140095D01*
X11514048Y-12149619D01*
X11809286Y-12092476D02*
X11714048Y-12092476D01*
X11704524Y-12187714D01*
X11714048Y-12178190D01*
X11733095Y-12168667D01*
X11780714Y-12168667D01*
X11799762Y-12178190D01*
X11809286Y-12187714D01*
X11818809Y-12206762D01*
X11818809Y-12254381D01*
X11809286Y-12273428D01*
X11799762Y-12282952D01*
X11780714Y-12292476D01*
X11733095Y-12292476D01*
X11714048Y-12282952D01*
X11704524Y-12273428D01*
X11885476Y-12092476D02*
X12018809Y-12092476D01*
X11933095Y-12292476D01*
X12085476Y-12092476D02*
X12085476Y-12130571D01*
X12161667Y-12092476D02*
X12161667Y-12130571D01*
X12456905Y-12368667D02*
X12447381Y-12359143D01*
X12428333Y-12330571D01*
X12418809Y-12311524D01*
X12409286Y-12282952D01*
X12399762Y-12235333D01*
X12399762Y-12197238D01*
X12409286Y-12149619D01*
X12418809Y-12121048D01*
X12428333Y-12102000D01*
X12447381Y-12073428D01*
X12456905Y-12063905D01*
X12637857Y-12292476D02*
X12523571Y-12292476D01*
X12580714Y-12292476D02*
X12580714Y-12092476D01*
X12561667Y-12121048D01*
X12542619Y-12140095D01*
X12523571Y-12149619D01*
X12733095Y-12292476D02*
X12771190Y-12292476D01*
X12790238Y-12282952D01*
X12799762Y-12273428D01*
X12818809Y-12244857D01*
X12828333Y-12206762D01*
X12828333Y-12130571D01*
X12818809Y-12111524D01*
X12809286Y-12102000D01*
X12790238Y-12092476D01*
X12752143Y-12092476D01*
X12733095Y-12102000D01*
X12723571Y-12111524D01*
X12714048Y-12130571D01*
X12714048Y-12178190D01*
X12723571Y-12197238D01*
X12733095Y-12206762D01*
X12752143Y-12216286D01*
X12790238Y-12216286D01*
X12809286Y-12206762D01*
X12818809Y-12197238D01*
X12828333Y-12178190D01*
X13066428Y-12292476D02*
X13066428Y-12092476D01*
X13152143Y-12292476D02*
X13152143Y-12187714D01*
X13142619Y-12168667D01*
X13123571Y-12159143D01*
X13095000Y-12159143D01*
X13075952Y-12168667D01*
X13066428Y-12178190D01*
X13275952Y-12292476D02*
X13256905Y-12282952D01*
X13247381Y-12273428D01*
X13237857Y-12254381D01*
X13237857Y-12197238D01*
X13247381Y-12178190D01*
X13256905Y-12168667D01*
X13275952Y-12159143D01*
X13304524Y-12159143D01*
X13323571Y-12168667D01*
X13333095Y-12178190D01*
X13342619Y-12197238D01*
X13342619Y-12254381D01*
X13333095Y-12273428D01*
X13323571Y-12282952D01*
X13304524Y-12292476D01*
X13275952Y-12292476D01*
X13456905Y-12292476D02*
X13437857Y-12282952D01*
X13428333Y-12263905D01*
X13428333Y-12092476D01*
X13609286Y-12282952D02*
X13590238Y-12292476D01*
X13552143Y-12292476D01*
X13533095Y-12282952D01*
X13523571Y-12263905D01*
X13523571Y-12187714D01*
X13533095Y-12168667D01*
X13552143Y-12159143D01*
X13590238Y-12159143D01*
X13609286Y-12168667D01*
X13618809Y-12187714D01*
X13618809Y-12206762D01*
X13523571Y-12225809D01*
X13695000Y-12282952D02*
X13714048Y-12292476D01*
X13752143Y-12292476D01*
X13771190Y-12282952D01*
X13780714Y-12263905D01*
X13780714Y-12254381D01*
X13771190Y-12235333D01*
X13752143Y-12225809D01*
X13723571Y-12225809D01*
X13704524Y-12216286D01*
X13695000Y-12197238D01*
X13695000Y-12187714D01*
X13704524Y-12168667D01*
X13723571Y-12159143D01*
X13752143Y-12159143D01*
X13771190Y-12168667D01*
X13847381Y-12368667D02*
X13856905Y-12359143D01*
X13875952Y-12330571D01*
X13885476Y-12311524D01*
X13895000Y-12282952D01*
X13904524Y-12235333D01*
X13904524Y-12197238D01*
X13895000Y-12149619D01*
X13885476Y-12121048D01*
X13875952Y-12102000D01*
X13856905Y-12073428D01*
X13847381Y-12063905D01*
D13*
X8885000Y-12466000D02*
G75*
G03*
X8885000Y-12466000I-40000J0D01*
G01*
D11*
X9180714Y-12356476D02*
X9199762Y-12356476D01*
X9218810Y-12366000D01*
X9228333Y-12375524D01*
X9237857Y-12394571D01*
X9247381Y-12432667D01*
X9247381Y-12480286D01*
X9237857Y-12518381D01*
X9228333Y-12537428D01*
X9218810Y-12546952D01*
X9199762Y-12556476D01*
X9180714Y-12556476D01*
X9161667Y-12546952D01*
X9152143Y-12537428D01*
X9142619Y-12518381D01*
X9133095Y-12480286D01*
X9133095Y-12432667D01*
X9142619Y-12394571D01*
X9152143Y-12375524D01*
X9161667Y-12366000D01*
X9180714Y-12356476D01*
X9333095Y-12537428D02*
X9342619Y-12546952D01*
X9333095Y-12556476D01*
X9323571Y-12546952D01*
X9333095Y-12537428D01*
X9333095Y-12556476D01*
X9456905Y-12442190D02*
X9437857Y-12432667D01*
X9428333Y-12423143D01*
X9418810Y-12404095D01*
X9418810Y-12394571D01*
X9428333Y-12375524D01*
X9437857Y-12366000D01*
X9456905Y-12356476D01*
X9495000Y-12356476D01*
X9514048Y-12366000D01*
X9523571Y-12375524D01*
X9533095Y-12394571D01*
X9533095Y-12404095D01*
X9523571Y-12423143D01*
X9514048Y-12432667D01*
X9495000Y-12442190D01*
X9456905Y-12442190D01*
X9437857Y-12451714D01*
X9428333Y-12461238D01*
X9418810Y-12480286D01*
X9418810Y-12518381D01*
X9428333Y-12537428D01*
X9437857Y-12546952D01*
X9456905Y-12556476D01*
X9495000Y-12556476D01*
X9514048Y-12546952D01*
X9523571Y-12537428D01*
X9533095Y-12518381D01*
X9533095Y-12480286D01*
X9523571Y-12461238D01*
X9514048Y-12451714D01*
X9495000Y-12442190D01*
X9656905Y-12356476D02*
X9675952Y-12356476D01*
X9695000Y-12366000D01*
X9704524Y-12375524D01*
X9714048Y-12394571D01*
X9723571Y-12432667D01*
X9723571Y-12480286D01*
X9714048Y-12518381D01*
X9704524Y-12537428D01*
X9695000Y-12546952D01*
X9675952Y-12556476D01*
X9656905Y-12556476D01*
X9637857Y-12546952D01*
X9628333Y-12537428D01*
X9618810Y-12518381D01*
X9609286Y-12480286D01*
X9609286Y-12432667D01*
X9618810Y-12394571D01*
X9628333Y-12375524D01*
X9637857Y-12366000D01*
X9656905Y-12356476D01*
X9847381Y-12356476D02*
X9866429Y-12356476D01*
X9885476Y-12366000D01*
X9895000Y-12375524D01*
X9904524Y-12394571D01*
X9914048Y-12432667D01*
X9914048Y-12480286D01*
X9904524Y-12518381D01*
X9895000Y-12537428D01*
X9885476Y-12546952D01*
X9866429Y-12556476D01*
X9847381Y-12556476D01*
X9828333Y-12546952D01*
X9818810Y-12537428D01*
X9809286Y-12518381D01*
X9799762Y-12480286D01*
X9799762Y-12432667D01*
X9809286Y-12394571D01*
X9818810Y-12375524D01*
X9828333Y-12366000D01*
X9847381Y-12356476D01*
X9999762Y-12556476D02*
X9999762Y-12423143D01*
X9999762Y-12442190D02*
X10009286Y-12432667D01*
X10028333Y-12423143D01*
X10056905Y-12423143D01*
X10075952Y-12432667D01*
X10085476Y-12451714D01*
X10085476Y-12556476D01*
X10085476Y-12451714D02*
X10095000Y-12432667D01*
X10114048Y-12423143D01*
X10142619Y-12423143D01*
X10161667Y-12432667D01*
X10171190Y-12451714D01*
X10171190Y-12556476D01*
X10266429Y-12556476D02*
X10266429Y-12423143D01*
X10266429Y-12442190D02*
X10275952Y-12432667D01*
X10295000Y-12423143D01*
X10323571Y-12423143D01*
X10342619Y-12432667D01*
X10352143Y-12451714D01*
X10352143Y-12556476D01*
X10352143Y-12451714D02*
X10361667Y-12432667D01*
X10380714Y-12423143D01*
X10409286Y-12423143D01*
X10428333Y-12432667D01*
X10437857Y-12451714D01*
X10437857Y-12556476D01*
X10828333Y-12346952D02*
X10656905Y-12604095D01*
X11085476Y-12356476D02*
X11104524Y-12356476D01*
X11123571Y-12366000D01*
X11133095Y-12375524D01*
X11142619Y-12394571D01*
X11152143Y-12432667D01*
X11152143Y-12480286D01*
X11142619Y-12518381D01*
X11133095Y-12537428D01*
X11123571Y-12546952D01*
X11104524Y-12556476D01*
X11085476Y-12556476D01*
X11066429Y-12546952D01*
X11056905Y-12537428D01*
X11047381Y-12518381D01*
X11037857Y-12480286D01*
X11037857Y-12432667D01*
X11047381Y-12394571D01*
X11056905Y-12375524D01*
X11066429Y-12366000D01*
X11085476Y-12356476D01*
X11237857Y-12537428D02*
X11247381Y-12546952D01*
X11237857Y-12556476D01*
X11228333Y-12546952D01*
X11237857Y-12537428D01*
X11237857Y-12556476D01*
X11371190Y-12356476D02*
X11390238Y-12356476D01*
X11409286Y-12366000D01*
X11418809Y-12375524D01*
X11428333Y-12394571D01*
X11437857Y-12432667D01*
X11437857Y-12480286D01*
X11428333Y-12518381D01*
X11418809Y-12537428D01*
X11409286Y-12546952D01*
X11390238Y-12556476D01*
X11371190Y-12556476D01*
X11352143Y-12546952D01*
X11342619Y-12537428D01*
X11333095Y-12518381D01*
X11323571Y-12480286D01*
X11323571Y-12432667D01*
X11333095Y-12394571D01*
X11342619Y-12375524D01*
X11352143Y-12366000D01*
X11371190Y-12356476D01*
X11504524Y-12356476D02*
X11628333Y-12356476D01*
X11561667Y-12432667D01*
X11590238Y-12432667D01*
X11609286Y-12442190D01*
X11618809Y-12451714D01*
X11628333Y-12470762D01*
X11628333Y-12518381D01*
X11618809Y-12537428D01*
X11609286Y-12546952D01*
X11590238Y-12556476D01*
X11533095Y-12556476D01*
X11514048Y-12546952D01*
X11504524Y-12537428D01*
X11818809Y-12556476D02*
X11704524Y-12556476D01*
X11761667Y-12556476D02*
X11761667Y-12356476D01*
X11742619Y-12385048D01*
X11723571Y-12404095D01*
X11704524Y-12413619D01*
X11999762Y-12356476D02*
X11904524Y-12356476D01*
X11895000Y-12451714D01*
X11904524Y-12442190D01*
X11923571Y-12432667D01*
X11971190Y-12432667D01*
X11990238Y-12442190D01*
X11999762Y-12451714D01*
X12009286Y-12470762D01*
X12009286Y-12518381D01*
X11999762Y-12537428D01*
X11990238Y-12546952D01*
X11971190Y-12556476D01*
X11923571Y-12556476D01*
X11904524Y-12546952D01*
X11895000Y-12537428D01*
X12085476Y-12356476D02*
X12085476Y-12394571D01*
X12161667Y-12356476D02*
X12161667Y-12394571D01*
X12456905Y-12632667D02*
X12447381Y-12623143D01*
X12428333Y-12594571D01*
X12418809Y-12575524D01*
X12409286Y-12546952D01*
X12399762Y-12499333D01*
X12399762Y-12461238D01*
X12409286Y-12413619D01*
X12418809Y-12385048D01*
X12428333Y-12366000D01*
X12447381Y-12337428D01*
X12456905Y-12327905D01*
X12514048Y-12356476D02*
X12637857Y-12356476D01*
X12571190Y-12432667D01*
X12599762Y-12432667D01*
X12618809Y-12442190D01*
X12628333Y-12451714D01*
X12637857Y-12470762D01*
X12637857Y-12518381D01*
X12628333Y-12537428D01*
X12618809Y-12546952D01*
X12599762Y-12556476D01*
X12542619Y-12556476D01*
X12523571Y-12546952D01*
X12514048Y-12537428D01*
X12704524Y-12356476D02*
X12828333Y-12356476D01*
X12761667Y-12432667D01*
X12790238Y-12432667D01*
X12809286Y-12442190D01*
X12818809Y-12451714D01*
X12828333Y-12470762D01*
X12828333Y-12518381D01*
X12818809Y-12537428D01*
X12809286Y-12546952D01*
X12790238Y-12556476D01*
X12733095Y-12556476D01*
X12714048Y-12546952D01*
X12704524Y-12537428D01*
X13066428Y-12556476D02*
X13066428Y-12356476D01*
X13152143Y-12556476D02*
X13152143Y-12451714D01*
X13142619Y-12432667D01*
X13123571Y-12423143D01*
X13095000Y-12423143D01*
X13075952Y-12432667D01*
X13066428Y-12442190D01*
X13275952Y-12556476D02*
X13256905Y-12546952D01*
X13247381Y-12537428D01*
X13237857Y-12518381D01*
X13237857Y-12461238D01*
X13247381Y-12442190D01*
X13256905Y-12432667D01*
X13275952Y-12423143D01*
X13304524Y-12423143D01*
X13323571Y-12432667D01*
X13333095Y-12442190D01*
X13342619Y-12461238D01*
X13342619Y-12518381D01*
X13333095Y-12537428D01*
X13323571Y-12546952D01*
X13304524Y-12556476D01*
X13275952Y-12556476D01*
X13456905Y-12556476D02*
X13437857Y-12546952D01*
X13428333Y-12527905D01*
X13428333Y-12356476D01*
X13609286Y-12546952D02*
X13590238Y-12556476D01*
X13552143Y-12556476D01*
X13533095Y-12546952D01*
X13523571Y-12527905D01*
X13523571Y-12451714D01*
X13533095Y-12432667D01*
X13552143Y-12423143D01*
X13590238Y-12423143D01*
X13609286Y-12432667D01*
X13618809Y-12451714D01*
X13618809Y-12470762D01*
X13523571Y-12489809D01*
X13695000Y-12546952D02*
X13714048Y-12556476D01*
X13752143Y-12556476D01*
X13771190Y-12546952D01*
X13780714Y-12527905D01*
X13780714Y-12518381D01*
X13771190Y-12499333D01*
X13752143Y-12489809D01*
X13723571Y-12489809D01*
X13704524Y-12480286D01*
X13695000Y-12461238D01*
X13695000Y-12451714D01*
X13704524Y-12432667D01*
X13723571Y-12423143D01*
X13752143Y-12423143D01*
X13771190Y-12432667D01*
X13847381Y-12632667D02*
X13856905Y-12623143D01*
X13875952Y-12594571D01*
X13885476Y-12575524D01*
X13895000Y-12546952D01*
X13904524Y-12499333D01*
X13904524Y-12461238D01*
X13895000Y-12413619D01*
X13885476Y-12385048D01*
X13875952Y-12366000D01*
X13856905Y-12337428D01*
X13847381Y-12327905D01*
D10*
X8835000Y-12680000D02*
X8835000Y-12780000D01*
X8785000Y-12730000D02*
X8885000Y-12730000D01*
D11*
X9247381Y-12820476D02*
X9133095Y-12820476D01*
X9190238Y-12820476D02*
X9190238Y-12620476D01*
X9171190Y-12649048D01*
X9152143Y-12668095D01*
X9133095Y-12677619D01*
X9333095Y-12801428D02*
X9342619Y-12810952D01*
X9333095Y-12820476D01*
X9323571Y-12810952D01*
X9333095Y-12801428D01*
X9333095Y-12820476D01*
X9466429Y-12620476D02*
X9485476Y-12620476D01*
X9504524Y-12630000D01*
X9514048Y-12639524D01*
X9523571Y-12658571D01*
X9533095Y-12696667D01*
X9533095Y-12744286D01*
X9523571Y-12782381D01*
X9514048Y-12801428D01*
X9504524Y-12810952D01*
X9485476Y-12820476D01*
X9466429Y-12820476D01*
X9447381Y-12810952D01*
X9437857Y-12801428D01*
X9428333Y-12782381D01*
X9418810Y-12744286D01*
X9418810Y-12696667D01*
X9428333Y-12658571D01*
X9437857Y-12639524D01*
X9447381Y-12630000D01*
X9466429Y-12620476D01*
X9656905Y-12620476D02*
X9675952Y-12620476D01*
X9695000Y-12630000D01*
X9704524Y-12639524D01*
X9714048Y-12658571D01*
X9723571Y-12696667D01*
X9723571Y-12744286D01*
X9714048Y-12782381D01*
X9704524Y-12801428D01*
X9695000Y-12810952D01*
X9675952Y-12820476D01*
X9656905Y-12820476D01*
X9637857Y-12810952D01*
X9628333Y-12801428D01*
X9618810Y-12782381D01*
X9609286Y-12744286D01*
X9609286Y-12696667D01*
X9618810Y-12658571D01*
X9628333Y-12639524D01*
X9637857Y-12630000D01*
X9656905Y-12620476D01*
X9847381Y-12620476D02*
X9866429Y-12620476D01*
X9885476Y-12630000D01*
X9895000Y-12639524D01*
X9904524Y-12658571D01*
X9914048Y-12696667D01*
X9914048Y-12744286D01*
X9904524Y-12782381D01*
X9895000Y-12801428D01*
X9885476Y-12810952D01*
X9866429Y-12820476D01*
X9847381Y-12820476D01*
X9828333Y-12810952D01*
X9818810Y-12801428D01*
X9809286Y-12782381D01*
X9799762Y-12744286D01*
X9799762Y-12696667D01*
X9809286Y-12658571D01*
X9818810Y-12639524D01*
X9828333Y-12630000D01*
X9847381Y-12620476D01*
X9999762Y-12820476D02*
X9999762Y-12687143D01*
X9999762Y-12706190D02*
X10009286Y-12696667D01*
X10028333Y-12687143D01*
X10056905Y-12687143D01*
X10075952Y-12696667D01*
X10085476Y-12715714D01*
X10085476Y-12820476D01*
X10085476Y-12715714D02*
X10095000Y-12696667D01*
X10114048Y-12687143D01*
X10142619Y-12687143D01*
X10161667Y-12696667D01*
X10171190Y-12715714D01*
X10171190Y-12820476D01*
X10266429Y-12820476D02*
X10266429Y-12687143D01*
X10266429Y-12706190D02*
X10275952Y-12696667D01*
X10295000Y-12687143D01*
X10323571Y-12687143D01*
X10342619Y-12696667D01*
X10352143Y-12715714D01*
X10352143Y-12820476D01*
X10352143Y-12715714D02*
X10361667Y-12696667D01*
X10380714Y-12687143D01*
X10409286Y-12687143D01*
X10428333Y-12696667D01*
X10437857Y-12715714D01*
X10437857Y-12820476D01*
X10828333Y-12610952D02*
X10656905Y-12868095D01*
X11085476Y-12620476D02*
X11104524Y-12620476D01*
X11123571Y-12630000D01*
X11133095Y-12639524D01*
X11142619Y-12658571D01*
X11152143Y-12696667D01*
X11152143Y-12744286D01*
X11142619Y-12782381D01*
X11133095Y-12801428D01*
X11123571Y-12810952D01*
X11104524Y-12820476D01*
X11085476Y-12820476D01*
X11066429Y-12810952D01*
X11056905Y-12801428D01*
X11047381Y-12782381D01*
X11037857Y-12744286D01*
X11037857Y-12696667D01*
X11047381Y-12658571D01*
X11056905Y-12639524D01*
X11066429Y-12630000D01*
X11085476Y-12620476D01*
X11237857Y-12801428D02*
X11247381Y-12810952D01*
X11237857Y-12820476D01*
X11228333Y-12810952D01*
X11237857Y-12801428D01*
X11237857Y-12820476D01*
X11371190Y-12620476D02*
X11390238Y-12620476D01*
X11409286Y-12630000D01*
X11418809Y-12639524D01*
X11428333Y-12658571D01*
X11437857Y-12696667D01*
X11437857Y-12744286D01*
X11428333Y-12782381D01*
X11418809Y-12801428D01*
X11409286Y-12810952D01*
X11390238Y-12820476D01*
X11371190Y-12820476D01*
X11352143Y-12810952D01*
X11342619Y-12801428D01*
X11333095Y-12782381D01*
X11323571Y-12744286D01*
X11323571Y-12696667D01*
X11333095Y-12658571D01*
X11342619Y-12639524D01*
X11352143Y-12630000D01*
X11371190Y-12620476D01*
X11504524Y-12620476D02*
X11628333Y-12620476D01*
X11561667Y-12696667D01*
X11590238Y-12696667D01*
X11609286Y-12706190D01*
X11618809Y-12715714D01*
X11628333Y-12734762D01*
X11628333Y-12782381D01*
X11618809Y-12801428D01*
X11609286Y-12810952D01*
X11590238Y-12820476D01*
X11533095Y-12820476D01*
X11514048Y-12810952D01*
X11504524Y-12801428D01*
X11723571Y-12820476D02*
X11761667Y-12820476D01*
X11780714Y-12810952D01*
X11790238Y-12801428D01*
X11809286Y-12772857D01*
X11818809Y-12734762D01*
X11818809Y-12658571D01*
X11809286Y-12639524D01*
X11799762Y-12630000D01*
X11780714Y-12620476D01*
X11742619Y-12620476D01*
X11723571Y-12630000D01*
X11714048Y-12639524D01*
X11704524Y-12658571D01*
X11704524Y-12706190D01*
X11714048Y-12725238D01*
X11723571Y-12734762D01*
X11742619Y-12744286D01*
X11780714Y-12744286D01*
X11799762Y-12734762D01*
X11809286Y-12725238D01*
X11818809Y-12706190D01*
X11990238Y-12687143D02*
X11990238Y-12820476D01*
X11942619Y-12610952D02*
X11895000Y-12753809D01*
X12018809Y-12753809D01*
X12085476Y-12620476D02*
X12085476Y-12658571D01*
X12161667Y-12620476D02*
X12161667Y-12658571D01*
X12456905Y-12896667D02*
X12447381Y-12887143D01*
X12428333Y-12858571D01*
X12418809Y-12839524D01*
X12409286Y-12810952D01*
X12399762Y-12763333D01*
X12399762Y-12725238D01*
X12409286Y-12677619D01*
X12418809Y-12649048D01*
X12428333Y-12630000D01*
X12447381Y-12601428D01*
X12456905Y-12591905D01*
X12637857Y-12820476D02*
X12523571Y-12820476D01*
X12580714Y-12820476D02*
X12580714Y-12620476D01*
X12561667Y-12649048D01*
X12542619Y-12668095D01*
X12523571Y-12677619D01*
X12828333Y-12820476D02*
X12714048Y-12820476D01*
X12771190Y-12820476D02*
X12771190Y-12620476D01*
X12752143Y-12649048D01*
X12733095Y-12668095D01*
X12714048Y-12677619D01*
X13066428Y-12820476D02*
X13066428Y-12620476D01*
X13152143Y-12820476D02*
X13152143Y-12715714D01*
X13142619Y-12696667D01*
X13123571Y-12687143D01*
X13095000Y-12687143D01*
X13075952Y-12696667D01*
X13066428Y-12706190D01*
X13275952Y-12820476D02*
X13256905Y-12810952D01*
X13247381Y-12801428D01*
X13237857Y-12782381D01*
X13237857Y-12725238D01*
X13247381Y-12706190D01*
X13256905Y-12696667D01*
X13275952Y-12687143D01*
X13304524Y-12687143D01*
X13323571Y-12696667D01*
X13333095Y-12706190D01*
X13342619Y-12725238D01*
X13342619Y-12782381D01*
X13333095Y-12801428D01*
X13323571Y-12810952D01*
X13304524Y-12820476D01*
X13275952Y-12820476D01*
X13456905Y-12820476D02*
X13437857Y-12810952D01*
X13428333Y-12791905D01*
X13428333Y-12620476D01*
X13609286Y-12810952D02*
X13590238Y-12820476D01*
X13552143Y-12820476D01*
X13533095Y-12810952D01*
X13523571Y-12791905D01*
X13523571Y-12715714D01*
X13533095Y-12696667D01*
X13552143Y-12687143D01*
X13590238Y-12687143D01*
X13609286Y-12696667D01*
X13618809Y-12715714D01*
X13618809Y-12734762D01*
X13523571Y-12753809D01*
X13695000Y-12810952D02*
X13714048Y-12820476D01*
X13752143Y-12820476D01*
X13771190Y-12810952D01*
X13780714Y-12791905D01*
X13780714Y-12782381D01*
X13771190Y-12763333D01*
X13752143Y-12753809D01*
X13723571Y-12753809D01*
X13704524Y-12744286D01*
X13695000Y-12725238D01*
X13695000Y-12715714D01*
X13704524Y-12696667D01*
X13723571Y-12687143D01*
X13752143Y-12687143D01*
X13771190Y-12696667D01*
X13847381Y-12896667D02*
X13856905Y-12887143D01*
X13875952Y-12858571D01*
X13885476Y-12839524D01*
X13895000Y-12810952D01*
X13904524Y-12763333D01*
X13904524Y-12725238D01*
X13895000Y-12677619D01*
X13885476Y-12649048D01*
X13875952Y-12630000D01*
X13856905Y-12601428D01*
X13847381Y-12591905D01*
D14*
X8870345Y-13029382D02*
X8870345Y-12958617D01*
X8799580Y-12958617D01*
X8799580Y-13029382D01*
X8870345Y-13029382D01*
D11*
X9247381Y-13084476D02*
X9133095Y-13084476D01*
X9190238Y-13084476D02*
X9190238Y-12884476D01*
X9171190Y-12913048D01*
X9152143Y-12932095D01*
X9133095Y-12941619D01*
X9333095Y-13065428D02*
X9342619Y-13074952D01*
X9333095Y-13084476D01*
X9323571Y-13074952D01*
X9333095Y-13065428D01*
X9333095Y-13084476D01*
X9466429Y-12884476D02*
X9485476Y-12884476D01*
X9504524Y-12894000D01*
X9514048Y-12903524D01*
X9523571Y-12922571D01*
X9533095Y-12960667D01*
X9533095Y-13008286D01*
X9523571Y-13046381D01*
X9514048Y-13065428D01*
X9504524Y-13074952D01*
X9485476Y-13084476D01*
X9466429Y-13084476D01*
X9447381Y-13074952D01*
X9437857Y-13065428D01*
X9428333Y-13046381D01*
X9418810Y-13008286D01*
X9418810Y-12960667D01*
X9428333Y-12922571D01*
X9437857Y-12903524D01*
X9447381Y-12894000D01*
X9466429Y-12884476D01*
X9656905Y-12884476D02*
X9675952Y-12884476D01*
X9695000Y-12894000D01*
X9704524Y-12903524D01*
X9714048Y-12922571D01*
X9723571Y-12960667D01*
X9723571Y-13008286D01*
X9714048Y-13046381D01*
X9704524Y-13065428D01*
X9695000Y-13074952D01*
X9675952Y-13084476D01*
X9656905Y-13084476D01*
X9637857Y-13074952D01*
X9628333Y-13065428D01*
X9618810Y-13046381D01*
X9609286Y-13008286D01*
X9609286Y-12960667D01*
X9618810Y-12922571D01*
X9628333Y-12903524D01*
X9637857Y-12894000D01*
X9656905Y-12884476D01*
X9914048Y-13084476D02*
X9799762Y-13084476D01*
X9856905Y-13084476D02*
X9856905Y-12884476D01*
X9837857Y-12913048D01*
X9818810Y-12932095D01*
X9799762Y-12941619D01*
X9999762Y-13084476D02*
X9999762Y-12951143D01*
X9999762Y-12970190D02*
X10009286Y-12960667D01*
X10028333Y-12951143D01*
X10056905Y-12951143D01*
X10075952Y-12960667D01*
X10085476Y-12979714D01*
X10085476Y-13084476D01*
X10085476Y-12979714D02*
X10095000Y-12960667D01*
X10114048Y-12951143D01*
X10142619Y-12951143D01*
X10161667Y-12960667D01*
X10171190Y-12979714D01*
X10171190Y-13084476D01*
X10266429Y-13084476D02*
X10266429Y-12951143D01*
X10266429Y-12970190D02*
X10275952Y-12960667D01*
X10295000Y-12951143D01*
X10323571Y-12951143D01*
X10342619Y-12960667D01*
X10352143Y-12979714D01*
X10352143Y-13084476D01*
X10352143Y-12979714D02*
X10361667Y-12960667D01*
X10380714Y-12951143D01*
X10409286Y-12951143D01*
X10428333Y-12960667D01*
X10437857Y-12979714D01*
X10437857Y-13084476D01*
X10828333Y-12874952D02*
X10656905Y-13132095D01*
X11085476Y-12884476D02*
X11104524Y-12884476D01*
X11123571Y-12894000D01*
X11133095Y-12903524D01*
X11142619Y-12922571D01*
X11152143Y-12960667D01*
X11152143Y-13008286D01*
X11142619Y-13046381D01*
X11133095Y-13065428D01*
X11123571Y-13074952D01*
X11104524Y-13084476D01*
X11085476Y-13084476D01*
X11066429Y-13074952D01*
X11056905Y-13065428D01*
X11047381Y-13046381D01*
X11037857Y-13008286D01*
X11037857Y-12960667D01*
X11047381Y-12922571D01*
X11056905Y-12903524D01*
X11066429Y-12894000D01*
X11085476Y-12884476D01*
X11237857Y-13065428D02*
X11247381Y-13074952D01*
X11237857Y-13084476D01*
X11228333Y-13074952D01*
X11237857Y-13065428D01*
X11237857Y-13084476D01*
X11371190Y-12884476D02*
X11390238Y-12884476D01*
X11409286Y-12894000D01*
X11418809Y-12903524D01*
X11428333Y-12922571D01*
X11437857Y-12960667D01*
X11437857Y-13008286D01*
X11428333Y-13046381D01*
X11418809Y-13065428D01*
X11409286Y-13074952D01*
X11390238Y-13084476D01*
X11371190Y-13084476D01*
X11352143Y-13074952D01*
X11342619Y-13065428D01*
X11333095Y-13046381D01*
X11323571Y-13008286D01*
X11323571Y-12960667D01*
X11333095Y-12922571D01*
X11342619Y-12903524D01*
X11352143Y-12894000D01*
X11371190Y-12884476D01*
X11504524Y-12884476D02*
X11628333Y-12884476D01*
X11561667Y-12960667D01*
X11590238Y-12960667D01*
X11609286Y-12970190D01*
X11618809Y-12979714D01*
X11628333Y-12998762D01*
X11628333Y-13046381D01*
X11618809Y-13065428D01*
X11609286Y-13074952D01*
X11590238Y-13084476D01*
X11533095Y-13084476D01*
X11514048Y-13074952D01*
X11504524Y-13065428D01*
X11723571Y-13084476D02*
X11761667Y-13084476D01*
X11780714Y-13074952D01*
X11790238Y-13065428D01*
X11809286Y-13036857D01*
X11818809Y-12998762D01*
X11818809Y-12922571D01*
X11809286Y-12903524D01*
X11799762Y-12894000D01*
X11780714Y-12884476D01*
X11742619Y-12884476D01*
X11723571Y-12894000D01*
X11714048Y-12903524D01*
X11704524Y-12922571D01*
X11704524Y-12970190D01*
X11714048Y-12989238D01*
X11723571Y-12998762D01*
X11742619Y-13008286D01*
X11780714Y-13008286D01*
X11799762Y-12998762D01*
X11809286Y-12989238D01*
X11818809Y-12970190D01*
X11990238Y-12951143D02*
X11990238Y-13084476D01*
X11942619Y-12874952D02*
X11895000Y-13017809D01*
X12018809Y-13017809D01*
X12085476Y-12884476D02*
X12085476Y-12922571D01*
X12161667Y-12884476D02*
X12161667Y-12922571D01*
X12456905Y-13160667D02*
X12447381Y-13151143D01*
X12428333Y-13122571D01*
X12418809Y-13103524D01*
X12409286Y-13074952D01*
X12399762Y-13027333D01*
X12399762Y-12989238D01*
X12409286Y-12941619D01*
X12418809Y-12913048D01*
X12428333Y-12894000D01*
X12447381Y-12865428D01*
X12456905Y-12855905D01*
X12618809Y-12884476D02*
X12580714Y-12884476D01*
X12561667Y-12894000D01*
X12552143Y-12903524D01*
X12533095Y-12932095D01*
X12523571Y-12970190D01*
X12523571Y-13046381D01*
X12533095Y-13065428D01*
X12542619Y-13074952D01*
X12561667Y-13084476D01*
X12599762Y-13084476D01*
X12618809Y-13074952D01*
X12628333Y-13065428D01*
X12637857Y-13046381D01*
X12637857Y-12998762D01*
X12628333Y-12979714D01*
X12618809Y-12970190D01*
X12599762Y-12960667D01*
X12561667Y-12960667D01*
X12542619Y-12970190D01*
X12533095Y-12979714D01*
X12523571Y-12998762D01*
X12875952Y-13084476D02*
X12875952Y-12884476D01*
X12961667Y-13084476D02*
X12961667Y-12979714D01*
X12952143Y-12960667D01*
X12933095Y-12951143D01*
X12904524Y-12951143D01*
X12885476Y-12960667D01*
X12875952Y-12970190D01*
X13085476Y-13084476D02*
X13066428Y-13074952D01*
X13056905Y-13065428D01*
X13047381Y-13046381D01*
X13047381Y-12989238D01*
X13056905Y-12970190D01*
X13066428Y-12960667D01*
X13085476Y-12951143D01*
X13114048Y-12951143D01*
X13133095Y-12960667D01*
X13142619Y-12970190D01*
X13152143Y-12989238D01*
X13152143Y-13046381D01*
X13142619Y-13065428D01*
X13133095Y-13074952D01*
X13114048Y-13084476D01*
X13085476Y-13084476D01*
X13266428Y-13084476D02*
X13247381Y-13074952D01*
X13237857Y-13055905D01*
X13237857Y-12884476D01*
X13418809Y-13074952D02*
X13399762Y-13084476D01*
X13361667Y-13084476D01*
X13342619Y-13074952D01*
X13333095Y-13055905D01*
X13333095Y-12979714D01*
X13342619Y-12960667D01*
X13361667Y-12951143D01*
X13399762Y-12951143D01*
X13418809Y-12960667D01*
X13428333Y-12979714D01*
X13428333Y-12998762D01*
X13333095Y-13017809D01*
X13504524Y-13074952D02*
X13523571Y-13084476D01*
X13561667Y-13084476D01*
X13580714Y-13074952D01*
X13590238Y-13055905D01*
X13590238Y-13046381D01*
X13580714Y-13027333D01*
X13561667Y-13017809D01*
X13533095Y-13017809D01*
X13514048Y-13008286D01*
X13504524Y-12989238D01*
X13504524Y-12979714D01*
X13514048Y-12960667D01*
X13533095Y-12951143D01*
X13561667Y-12951143D01*
X13580714Y-12960667D01*
X13656905Y-13160667D02*
X13666428Y-13151143D01*
X13685476Y-13122571D01*
X13695000Y-13103524D01*
X13704524Y-13074952D01*
X13714048Y-13027333D01*
X13714048Y-12989238D01*
X13704524Y-12941619D01*
X13695000Y-12913048D01*
X13685476Y-12894000D01*
X13666428Y-12865428D01*
X13656905Y-12855905D01*
D15*
X8834000Y-13309000D02*
X8885000Y-13258000D01*
X8834000Y-13207000D01*
X8783000Y-13258000D01*
X8834000Y-13309000D01*
D11*
X9247381Y-13348476D02*
X9133095Y-13348476D01*
X9190238Y-13348476D02*
X9190238Y-13148476D01*
X9171190Y-13177048D01*
X9152143Y-13196095D01*
X9133095Y-13205619D01*
X9333095Y-13329428D02*
X9342619Y-13338952D01*
X9333095Y-13348476D01*
X9323571Y-13338952D01*
X9333095Y-13329428D01*
X9333095Y-13348476D01*
X9466429Y-13148476D02*
X9485476Y-13148476D01*
X9504524Y-13158000D01*
X9514048Y-13167524D01*
X9523571Y-13186571D01*
X9533095Y-13224667D01*
X9533095Y-13272286D01*
X9523571Y-13310381D01*
X9514048Y-13329428D01*
X9504524Y-13338952D01*
X9485476Y-13348476D01*
X9466429Y-13348476D01*
X9447381Y-13338952D01*
X9437857Y-13329428D01*
X9428333Y-13310381D01*
X9418810Y-13272286D01*
X9418810Y-13224667D01*
X9428333Y-13186571D01*
X9437857Y-13167524D01*
X9447381Y-13158000D01*
X9466429Y-13148476D01*
X9609286Y-13167524D02*
X9618810Y-13158000D01*
X9637857Y-13148476D01*
X9685476Y-13148476D01*
X9704524Y-13158000D01*
X9714048Y-13167524D01*
X9723571Y-13186571D01*
X9723571Y-13205619D01*
X9714048Y-13234190D01*
X9599762Y-13348476D01*
X9723571Y-13348476D01*
X9847381Y-13148476D02*
X9866429Y-13148476D01*
X9885476Y-13158000D01*
X9895000Y-13167524D01*
X9904524Y-13186571D01*
X9914048Y-13224667D01*
X9914048Y-13272286D01*
X9904524Y-13310381D01*
X9895000Y-13329428D01*
X9885476Y-13338952D01*
X9866429Y-13348476D01*
X9847381Y-13348476D01*
X9828333Y-13338952D01*
X9818810Y-13329428D01*
X9809286Y-13310381D01*
X9799762Y-13272286D01*
X9799762Y-13224667D01*
X9809286Y-13186571D01*
X9818810Y-13167524D01*
X9828333Y-13158000D01*
X9847381Y-13148476D01*
X9999762Y-13348476D02*
X9999762Y-13215143D01*
X9999762Y-13234190D02*
X10009286Y-13224667D01*
X10028333Y-13215143D01*
X10056905Y-13215143D01*
X10075952Y-13224667D01*
X10085476Y-13243714D01*
X10085476Y-13348476D01*
X10085476Y-13243714D02*
X10095000Y-13224667D01*
X10114048Y-13215143D01*
X10142619Y-13215143D01*
X10161667Y-13224667D01*
X10171190Y-13243714D01*
X10171190Y-13348476D01*
X10266429Y-13348476D02*
X10266429Y-13215143D01*
X10266429Y-13234190D02*
X10275952Y-13224667D01*
X10295000Y-13215143D01*
X10323571Y-13215143D01*
X10342619Y-13224667D01*
X10352143Y-13243714D01*
X10352143Y-13348476D01*
X10352143Y-13243714D02*
X10361667Y-13224667D01*
X10380714Y-13215143D01*
X10409286Y-13215143D01*
X10428333Y-13224667D01*
X10437857Y-13243714D01*
X10437857Y-13348476D01*
X10828333Y-13138952D02*
X10656905Y-13396095D01*
X11085476Y-13148476D02*
X11104524Y-13148476D01*
X11123571Y-13158000D01*
X11133095Y-13167524D01*
X11142619Y-13186571D01*
X11152143Y-13224667D01*
X11152143Y-13272286D01*
X11142619Y-13310381D01*
X11133095Y-13329428D01*
X11123571Y-13338952D01*
X11104524Y-13348476D01*
X11085476Y-13348476D01*
X11066429Y-13338952D01*
X11056905Y-13329428D01*
X11047381Y-13310381D01*
X11037857Y-13272286D01*
X11037857Y-13224667D01*
X11047381Y-13186571D01*
X11056905Y-13167524D01*
X11066429Y-13158000D01*
X11085476Y-13148476D01*
X11237857Y-13329428D02*
X11247381Y-13338952D01*
X11237857Y-13348476D01*
X11228333Y-13338952D01*
X11237857Y-13329428D01*
X11237857Y-13348476D01*
X11371190Y-13148476D02*
X11390238Y-13148476D01*
X11409286Y-13158000D01*
X11418809Y-13167524D01*
X11428333Y-13186571D01*
X11437857Y-13224667D01*
X11437857Y-13272286D01*
X11428333Y-13310381D01*
X11418809Y-13329428D01*
X11409286Y-13338952D01*
X11390238Y-13348476D01*
X11371190Y-13348476D01*
X11352143Y-13338952D01*
X11342619Y-13329428D01*
X11333095Y-13310381D01*
X11323571Y-13272286D01*
X11323571Y-13224667D01*
X11333095Y-13186571D01*
X11342619Y-13167524D01*
X11352143Y-13158000D01*
X11371190Y-13148476D01*
X11609286Y-13215143D02*
X11609286Y-13348476D01*
X11561667Y-13138952D02*
X11514048Y-13281809D01*
X11637857Y-13281809D01*
X11752143Y-13148476D02*
X11771190Y-13148476D01*
X11790238Y-13158000D01*
X11799762Y-13167524D01*
X11809286Y-13186571D01*
X11818809Y-13224667D01*
X11818809Y-13272286D01*
X11809286Y-13310381D01*
X11799762Y-13329428D01*
X11790238Y-13338952D01*
X11771190Y-13348476D01*
X11752143Y-13348476D01*
X11733095Y-13338952D01*
X11723571Y-13329428D01*
X11714048Y-13310381D01*
X11704524Y-13272286D01*
X11704524Y-13224667D01*
X11714048Y-13186571D01*
X11723571Y-13167524D01*
X11733095Y-13158000D01*
X11752143Y-13148476D01*
X11895000Y-13167524D02*
X11904524Y-13158000D01*
X11923571Y-13148476D01*
X11971190Y-13148476D01*
X11990238Y-13158000D01*
X11999762Y-13167524D01*
X12009286Y-13186571D01*
X12009286Y-13205619D01*
X11999762Y-13234190D01*
X11885476Y-13348476D01*
X12009286Y-13348476D01*
X12085476Y-13148476D02*
X12085476Y-13186571D01*
X12161667Y-13148476D02*
X12161667Y-13186571D01*
X12456905Y-13424667D02*
X12447381Y-13415143D01*
X12428333Y-13386571D01*
X12418809Y-13367524D01*
X12409286Y-13338952D01*
X12399762Y-13291333D01*
X12399762Y-13253238D01*
X12409286Y-13205619D01*
X12418809Y-13177048D01*
X12428333Y-13158000D01*
X12447381Y-13129428D01*
X12456905Y-13119905D01*
X12523571Y-13167524D02*
X12533095Y-13158000D01*
X12552143Y-13148476D01*
X12599762Y-13148476D01*
X12618809Y-13158000D01*
X12628333Y-13167524D01*
X12637857Y-13186571D01*
X12637857Y-13205619D01*
X12628333Y-13234190D01*
X12514048Y-13348476D01*
X12637857Y-13348476D01*
X12875952Y-13348476D02*
X12875952Y-13148476D01*
X12961667Y-13348476D02*
X12961667Y-13243714D01*
X12952143Y-13224667D01*
X12933095Y-13215143D01*
X12904524Y-13215143D01*
X12885476Y-13224667D01*
X12875952Y-13234190D01*
X13085476Y-13348476D02*
X13066428Y-13338952D01*
X13056905Y-13329428D01*
X13047381Y-13310381D01*
X13047381Y-13253238D01*
X13056905Y-13234190D01*
X13066428Y-13224667D01*
X13085476Y-13215143D01*
X13114048Y-13215143D01*
X13133095Y-13224667D01*
X13142619Y-13234190D01*
X13152143Y-13253238D01*
X13152143Y-13310381D01*
X13142619Y-13329428D01*
X13133095Y-13338952D01*
X13114048Y-13348476D01*
X13085476Y-13348476D01*
X13266428Y-13348476D02*
X13247381Y-13338952D01*
X13237857Y-13319905D01*
X13237857Y-13148476D01*
X13418809Y-13338952D02*
X13399762Y-13348476D01*
X13361667Y-13348476D01*
X13342619Y-13338952D01*
X13333095Y-13319905D01*
X13333095Y-13243714D01*
X13342619Y-13224667D01*
X13361667Y-13215143D01*
X13399762Y-13215143D01*
X13418809Y-13224667D01*
X13428333Y-13243714D01*
X13428333Y-13262762D01*
X13333095Y-13281809D01*
X13504524Y-13338952D02*
X13523571Y-13348476D01*
X13561667Y-13348476D01*
X13580714Y-13338952D01*
X13590238Y-13319905D01*
X13590238Y-13310381D01*
X13580714Y-13291333D01*
X13561667Y-13281809D01*
X13533095Y-13281809D01*
X13514048Y-13272286D01*
X13504524Y-13253238D01*
X13504524Y-13243714D01*
X13514048Y-13224667D01*
X13533095Y-13215143D01*
X13561667Y-13215143D01*
X13580714Y-13224667D01*
X13656905Y-13424667D02*
X13666428Y-13415143D01*
X13685476Y-13386571D01*
X13695000Y-13367524D01*
X13704524Y-13338952D01*
X13714048Y-13291333D01*
X13714048Y-13253238D01*
X13704524Y-13205619D01*
X13695000Y-13177048D01*
X13685476Y-13158000D01*
X13666428Y-13129428D01*
X13656905Y-13119905D01*
D16*
X8775000Y-13467000D02*
X8885000Y-13577000D01*
X8885000Y-13467000D02*
X8775000Y-13577000D01*
X8885000Y-13522000D02*
G75*
G03*
X8885000Y-13522000I-55000J0D01*
G01*
D11*
X9247381Y-13612476D02*
X9133095Y-13612476D01*
X9190238Y-13612476D02*
X9190238Y-13412476D01*
X9171190Y-13441048D01*
X9152143Y-13460095D01*
X9133095Y-13469619D01*
X9333095Y-13593428D02*
X9342619Y-13602952D01*
X9333095Y-13612476D01*
X9323571Y-13602952D01*
X9333095Y-13593428D01*
X9333095Y-13612476D01*
X9533095Y-13612476D02*
X9418810Y-13612476D01*
X9475952Y-13612476D02*
X9475952Y-13412476D01*
X9456905Y-13441048D01*
X9437857Y-13460095D01*
X9418810Y-13469619D01*
X9656905Y-13412476D02*
X9675952Y-13412476D01*
X9695000Y-13422000D01*
X9704524Y-13431524D01*
X9714048Y-13450571D01*
X9723571Y-13488667D01*
X9723571Y-13536286D01*
X9714048Y-13574381D01*
X9704524Y-13593428D01*
X9695000Y-13602952D01*
X9675952Y-13612476D01*
X9656905Y-13612476D01*
X9637857Y-13602952D01*
X9628333Y-13593428D01*
X9618810Y-13574381D01*
X9609286Y-13536286D01*
X9609286Y-13488667D01*
X9618810Y-13450571D01*
X9628333Y-13431524D01*
X9637857Y-13422000D01*
X9656905Y-13412476D01*
X9847381Y-13412476D02*
X9866429Y-13412476D01*
X9885476Y-13422000D01*
X9895000Y-13431524D01*
X9904524Y-13450571D01*
X9914048Y-13488667D01*
X9914048Y-13536286D01*
X9904524Y-13574381D01*
X9895000Y-13593428D01*
X9885476Y-13602952D01*
X9866429Y-13612476D01*
X9847381Y-13612476D01*
X9828333Y-13602952D01*
X9818810Y-13593428D01*
X9809286Y-13574381D01*
X9799762Y-13536286D01*
X9799762Y-13488667D01*
X9809286Y-13450571D01*
X9818810Y-13431524D01*
X9828333Y-13422000D01*
X9847381Y-13412476D01*
X9999762Y-13612476D02*
X9999762Y-13479143D01*
X9999762Y-13498190D02*
X10009286Y-13488667D01*
X10028333Y-13479143D01*
X10056905Y-13479143D01*
X10075952Y-13488667D01*
X10085476Y-13507714D01*
X10085476Y-13612476D01*
X10085476Y-13507714D02*
X10095000Y-13488667D01*
X10114048Y-13479143D01*
X10142619Y-13479143D01*
X10161667Y-13488667D01*
X10171190Y-13507714D01*
X10171190Y-13612476D01*
X10266429Y-13612476D02*
X10266429Y-13479143D01*
X10266429Y-13498190D02*
X10275952Y-13488667D01*
X10295000Y-13479143D01*
X10323571Y-13479143D01*
X10342619Y-13488667D01*
X10352143Y-13507714D01*
X10352143Y-13612476D01*
X10352143Y-13507714D02*
X10361667Y-13488667D01*
X10380714Y-13479143D01*
X10409286Y-13479143D01*
X10428333Y-13488667D01*
X10437857Y-13507714D01*
X10437857Y-13612476D01*
X10828333Y-13402952D02*
X10656905Y-13660095D01*
X11085476Y-13412476D02*
X11104524Y-13412476D01*
X11123571Y-13422000D01*
X11133095Y-13431524D01*
X11142619Y-13450571D01*
X11152143Y-13488667D01*
X11152143Y-13536286D01*
X11142619Y-13574381D01*
X11133095Y-13593428D01*
X11123571Y-13602952D01*
X11104524Y-13612476D01*
X11085476Y-13612476D01*
X11066429Y-13602952D01*
X11056905Y-13593428D01*
X11047381Y-13574381D01*
X11037857Y-13536286D01*
X11037857Y-13488667D01*
X11047381Y-13450571D01*
X11056905Y-13431524D01*
X11066429Y-13422000D01*
X11085476Y-13412476D01*
X11237857Y-13593428D02*
X11247381Y-13602952D01*
X11237857Y-13612476D01*
X11228333Y-13602952D01*
X11237857Y-13593428D01*
X11237857Y-13612476D01*
X11371190Y-13412476D02*
X11390238Y-13412476D01*
X11409286Y-13422000D01*
X11418809Y-13431524D01*
X11428333Y-13450571D01*
X11437857Y-13488667D01*
X11437857Y-13536286D01*
X11428333Y-13574381D01*
X11418809Y-13593428D01*
X11409286Y-13602952D01*
X11390238Y-13612476D01*
X11371190Y-13612476D01*
X11352143Y-13602952D01*
X11342619Y-13593428D01*
X11333095Y-13574381D01*
X11323571Y-13536286D01*
X11323571Y-13488667D01*
X11333095Y-13450571D01*
X11342619Y-13431524D01*
X11352143Y-13422000D01*
X11371190Y-13412476D01*
X11609286Y-13479143D02*
X11609286Y-13612476D01*
X11561667Y-13402952D02*
X11514048Y-13545809D01*
X11637857Y-13545809D01*
X11695000Y-13412476D02*
X11818809Y-13412476D01*
X11752143Y-13488667D01*
X11780714Y-13488667D01*
X11799762Y-13498190D01*
X11809286Y-13507714D01*
X11818809Y-13526762D01*
X11818809Y-13574381D01*
X11809286Y-13593428D01*
X11799762Y-13602952D01*
X11780714Y-13612476D01*
X11723571Y-13612476D01*
X11704524Y-13602952D01*
X11695000Y-13593428D01*
X11885476Y-13412476D02*
X12009286Y-13412476D01*
X11942619Y-13488667D01*
X11971190Y-13488667D01*
X11990238Y-13498190D01*
X11999762Y-13507714D01*
X12009286Y-13526762D01*
X12009286Y-13574381D01*
X11999762Y-13593428D01*
X11990238Y-13602952D01*
X11971190Y-13612476D01*
X11914048Y-13612476D01*
X11895000Y-13602952D01*
X11885476Y-13593428D01*
X12085476Y-13412476D02*
X12085476Y-13450571D01*
X12161667Y-13412476D02*
X12161667Y-13450571D01*
X12456905Y-13688667D02*
X12447381Y-13679143D01*
X12428333Y-13650571D01*
X12418809Y-13631524D01*
X12409286Y-13602952D01*
X12399762Y-13555333D01*
X12399762Y-13517238D01*
X12409286Y-13469619D01*
X12418809Y-13441048D01*
X12428333Y-13422000D01*
X12447381Y-13393428D01*
X12456905Y-13383905D01*
X12523571Y-13431524D02*
X12533095Y-13422000D01*
X12552143Y-13412476D01*
X12599762Y-13412476D01*
X12618809Y-13422000D01*
X12628333Y-13431524D01*
X12637857Y-13450571D01*
X12637857Y-13469619D01*
X12628333Y-13498190D01*
X12514048Y-13612476D01*
X12637857Y-13612476D01*
X12752143Y-13498190D02*
X12733095Y-13488667D01*
X12723571Y-13479143D01*
X12714048Y-13460095D01*
X12714048Y-13450571D01*
X12723571Y-13431524D01*
X12733095Y-13422000D01*
X12752143Y-13412476D01*
X12790238Y-13412476D01*
X12809286Y-13422000D01*
X12818809Y-13431524D01*
X12828333Y-13450571D01*
X12828333Y-13460095D01*
X12818809Y-13479143D01*
X12809286Y-13488667D01*
X12790238Y-13498190D01*
X12752143Y-13498190D01*
X12733095Y-13507714D01*
X12723571Y-13517238D01*
X12714048Y-13536286D01*
X12714048Y-13574381D01*
X12723571Y-13593428D01*
X12733095Y-13602952D01*
X12752143Y-13612476D01*
X12790238Y-13612476D01*
X12809286Y-13602952D01*
X12818809Y-13593428D01*
X12828333Y-13574381D01*
X12828333Y-13536286D01*
X12818809Y-13517238D01*
X12809286Y-13507714D01*
X12790238Y-13498190D01*
X13066428Y-13612476D02*
X13066428Y-13412476D01*
X13152143Y-13612476D02*
X13152143Y-13507714D01*
X13142619Y-13488667D01*
X13123571Y-13479143D01*
X13095000Y-13479143D01*
X13075952Y-13488667D01*
X13066428Y-13498190D01*
X13275952Y-13612476D02*
X13256905Y-13602952D01*
X13247381Y-13593428D01*
X13237857Y-13574381D01*
X13237857Y-13517238D01*
X13247381Y-13498190D01*
X13256905Y-13488667D01*
X13275952Y-13479143D01*
X13304524Y-13479143D01*
X13323571Y-13488667D01*
X13333095Y-13498190D01*
X13342619Y-13517238D01*
X13342619Y-13574381D01*
X13333095Y-13593428D01*
X13323571Y-13602952D01*
X13304524Y-13612476D01*
X13275952Y-13612476D01*
X13456905Y-13612476D02*
X13437857Y-13602952D01*
X13428333Y-13583905D01*
X13428333Y-13412476D01*
X13609286Y-13602952D02*
X13590238Y-13612476D01*
X13552143Y-13612476D01*
X13533095Y-13602952D01*
X13523571Y-13583905D01*
X13523571Y-13507714D01*
X13533095Y-13488667D01*
X13552143Y-13479143D01*
X13590238Y-13479143D01*
X13609286Y-13488667D01*
X13618809Y-13507714D01*
X13618809Y-13526762D01*
X13523571Y-13545809D01*
X13695000Y-13602952D02*
X13714048Y-13612476D01*
X13752143Y-13612476D01*
X13771190Y-13602952D01*
X13780714Y-13583905D01*
X13780714Y-13574381D01*
X13771190Y-13555333D01*
X13752143Y-13545809D01*
X13723571Y-13545809D01*
X13704524Y-13536286D01*
X13695000Y-13517238D01*
X13695000Y-13507714D01*
X13704524Y-13488667D01*
X13723571Y-13479143D01*
X13752143Y-13479143D01*
X13771190Y-13488667D01*
X13847381Y-13688667D02*
X13856905Y-13679143D01*
X13875952Y-13650571D01*
X13885476Y-13631524D01*
X13895000Y-13602952D01*
X13904524Y-13555333D01*
X13904524Y-13517238D01*
X13895000Y-13469619D01*
X13885476Y-13441048D01*
X13875952Y-13422000D01*
X13856905Y-13393428D01*
X13847381Y-13383905D01*
D17*
X8765000Y-13726000D02*
X8885000Y-13846000D01*
X8885000Y-13726000D02*
X8765000Y-13846000D01*
X8825000Y-13726000D02*
X8825000Y-13846000D01*
X8765000Y-13786000D02*
X8885000Y-13786000D01*
D11*
X9247381Y-13876476D02*
X9133095Y-13876476D01*
X9190238Y-13876476D02*
X9190238Y-13676476D01*
X9171190Y-13705048D01*
X9152143Y-13724095D01*
X9133095Y-13733619D01*
X9333095Y-13857428D02*
X9342619Y-13866952D01*
X9333095Y-13876476D01*
X9323571Y-13866952D01*
X9333095Y-13857428D01*
X9333095Y-13876476D01*
X9418810Y-13695524D02*
X9428333Y-13686000D01*
X9447381Y-13676476D01*
X9495000Y-13676476D01*
X9514048Y-13686000D01*
X9523571Y-13695524D01*
X9533095Y-13714571D01*
X9533095Y-13733619D01*
X9523571Y-13762190D01*
X9409286Y-13876476D01*
X9533095Y-13876476D01*
X9656905Y-13676476D02*
X9675952Y-13676476D01*
X9695000Y-13686000D01*
X9704524Y-13695524D01*
X9714048Y-13714571D01*
X9723571Y-13752667D01*
X9723571Y-13800286D01*
X9714048Y-13838381D01*
X9704524Y-13857428D01*
X9695000Y-13866952D01*
X9675952Y-13876476D01*
X9656905Y-13876476D01*
X9637857Y-13866952D01*
X9628333Y-13857428D01*
X9618810Y-13838381D01*
X9609286Y-13800286D01*
X9609286Y-13752667D01*
X9618810Y-13714571D01*
X9628333Y-13695524D01*
X9637857Y-13686000D01*
X9656905Y-13676476D01*
X9847381Y-13676476D02*
X9866429Y-13676476D01*
X9885476Y-13686000D01*
X9895000Y-13695524D01*
X9904524Y-13714571D01*
X9914048Y-13752667D01*
X9914048Y-13800286D01*
X9904524Y-13838381D01*
X9895000Y-13857428D01*
X9885476Y-13866952D01*
X9866429Y-13876476D01*
X9847381Y-13876476D01*
X9828333Y-13866952D01*
X9818810Y-13857428D01*
X9809286Y-13838381D01*
X9799762Y-13800286D01*
X9799762Y-13752667D01*
X9809286Y-13714571D01*
X9818810Y-13695524D01*
X9828333Y-13686000D01*
X9847381Y-13676476D01*
X9999762Y-13876476D02*
X9999762Y-13743143D01*
X9999762Y-13762190D02*
X10009286Y-13752667D01*
X10028333Y-13743143D01*
X10056905Y-13743143D01*
X10075952Y-13752667D01*
X10085476Y-13771714D01*
X10085476Y-13876476D01*
X10085476Y-13771714D02*
X10095000Y-13752667D01*
X10114048Y-13743143D01*
X10142619Y-13743143D01*
X10161667Y-13752667D01*
X10171190Y-13771714D01*
X10171190Y-13876476D01*
X10266429Y-13876476D02*
X10266429Y-13743143D01*
X10266429Y-13762190D02*
X10275952Y-13752667D01*
X10295000Y-13743143D01*
X10323571Y-13743143D01*
X10342619Y-13752667D01*
X10352143Y-13771714D01*
X10352143Y-13876476D01*
X10352143Y-13771714D02*
X10361667Y-13752667D01*
X10380714Y-13743143D01*
X10409286Y-13743143D01*
X10428333Y-13752667D01*
X10437857Y-13771714D01*
X10437857Y-13876476D01*
X10828333Y-13666952D02*
X10656905Y-13924095D01*
X11085476Y-13676476D02*
X11104524Y-13676476D01*
X11123571Y-13686000D01*
X11133095Y-13695524D01*
X11142619Y-13714571D01*
X11152143Y-13752667D01*
X11152143Y-13800286D01*
X11142619Y-13838381D01*
X11133095Y-13857428D01*
X11123571Y-13866952D01*
X11104524Y-13876476D01*
X11085476Y-13876476D01*
X11066429Y-13866952D01*
X11056905Y-13857428D01*
X11047381Y-13838381D01*
X11037857Y-13800286D01*
X11037857Y-13752667D01*
X11047381Y-13714571D01*
X11056905Y-13695524D01*
X11066429Y-13686000D01*
X11085476Y-13676476D01*
X11237857Y-13857428D02*
X11247381Y-13866952D01*
X11237857Y-13876476D01*
X11228333Y-13866952D01*
X11237857Y-13857428D01*
X11237857Y-13876476D01*
X11371190Y-13676476D02*
X11390238Y-13676476D01*
X11409286Y-13686000D01*
X11418809Y-13695524D01*
X11428333Y-13714571D01*
X11437857Y-13752667D01*
X11437857Y-13800286D01*
X11428333Y-13838381D01*
X11418809Y-13857428D01*
X11409286Y-13866952D01*
X11390238Y-13876476D01*
X11371190Y-13876476D01*
X11352143Y-13866952D01*
X11342619Y-13857428D01*
X11333095Y-13838381D01*
X11323571Y-13800286D01*
X11323571Y-13752667D01*
X11333095Y-13714571D01*
X11342619Y-13695524D01*
X11352143Y-13686000D01*
X11371190Y-13676476D01*
X11609286Y-13743143D02*
X11609286Y-13876476D01*
X11561667Y-13666952D02*
X11514048Y-13809809D01*
X11637857Y-13809809D01*
X11695000Y-13676476D02*
X11828333Y-13676476D01*
X11742619Y-13876476D01*
X11895000Y-13695524D02*
X11904524Y-13686000D01*
X11923571Y-13676476D01*
X11971190Y-13676476D01*
X11990238Y-13686000D01*
X11999762Y-13695524D01*
X12009286Y-13714571D01*
X12009286Y-13733619D01*
X11999762Y-13762190D01*
X11885476Y-13876476D01*
X12009286Y-13876476D01*
X12085476Y-13676476D02*
X12085476Y-13714571D01*
X12161667Y-13676476D02*
X12161667Y-13714571D01*
X12456905Y-13952667D02*
X12447381Y-13943143D01*
X12428333Y-13914571D01*
X12418809Y-13895524D01*
X12409286Y-13866952D01*
X12399762Y-13819333D01*
X12399762Y-13781238D01*
X12409286Y-13733619D01*
X12418809Y-13705048D01*
X12428333Y-13686000D01*
X12447381Y-13657428D01*
X12456905Y-13647905D01*
X12618809Y-13743143D02*
X12618809Y-13876476D01*
X12571190Y-13666952D02*
X12523571Y-13809809D01*
X12647381Y-13809809D01*
X12875952Y-13876476D02*
X12875952Y-13676476D01*
X12961667Y-13876476D02*
X12961667Y-13771714D01*
X12952143Y-13752667D01*
X12933095Y-13743143D01*
X12904524Y-13743143D01*
X12885476Y-13752667D01*
X12875952Y-13762190D01*
X13085476Y-13876476D02*
X13066428Y-13866952D01*
X13056905Y-13857428D01*
X13047381Y-13838381D01*
X13047381Y-13781238D01*
X13056905Y-13762190D01*
X13066428Y-13752667D01*
X13085476Y-13743143D01*
X13114048Y-13743143D01*
X13133095Y-13752667D01*
X13142619Y-13762190D01*
X13152143Y-13781238D01*
X13152143Y-13838381D01*
X13142619Y-13857428D01*
X13133095Y-13866952D01*
X13114048Y-13876476D01*
X13085476Y-13876476D01*
X13266428Y-13876476D02*
X13247381Y-13866952D01*
X13237857Y-13847905D01*
X13237857Y-13676476D01*
X13418809Y-13866952D02*
X13399762Y-13876476D01*
X13361667Y-13876476D01*
X13342619Y-13866952D01*
X13333095Y-13847905D01*
X13333095Y-13771714D01*
X13342619Y-13752667D01*
X13361667Y-13743143D01*
X13399762Y-13743143D01*
X13418809Y-13752667D01*
X13428333Y-13771714D01*
X13428333Y-13790762D01*
X13333095Y-13809809D01*
X13504524Y-13866952D02*
X13523571Y-13876476D01*
X13561667Y-13876476D01*
X13580714Y-13866952D01*
X13590238Y-13847905D01*
X13590238Y-13838381D01*
X13580714Y-13819333D01*
X13561667Y-13809809D01*
X13533095Y-13809809D01*
X13514048Y-13800286D01*
X13504524Y-13781238D01*
X13504524Y-13771714D01*
X13514048Y-13752667D01*
X13533095Y-13743143D01*
X13561667Y-13743143D01*
X13580714Y-13752667D01*
X13656905Y-13952667D02*
X13666428Y-13943143D01*
X13685476Y-13914571D01*
X13695000Y-13895524D01*
X13704524Y-13866952D01*
X13714048Y-13819333D01*
X13714048Y-13781238D01*
X13704524Y-13733619D01*
X13695000Y-13705048D01*
X13685476Y-13686000D01*
X13666428Y-13657428D01*
X13656905Y-13647905D01*
D18*
X8734886Y-13974943D02*
X8885000Y-14125057D01*
X8885000Y-13974943D02*
X8734886Y-14125057D01*
X8863017Y-14103074D02*
X8863017Y-13996926D01*
X8756869Y-13996926D01*
X8756869Y-14103074D01*
X8863017Y-14103074D01*
D11*
X9247381Y-14140476D02*
X9133095Y-14140476D01*
X9190238Y-14140476D02*
X9190238Y-13940476D01*
X9171190Y-13969048D01*
X9152143Y-13988095D01*
X9133095Y-13997619D01*
X9333095Y-14121428D02*
X9342619Y-14130952D01*
X9333095Y-14140476D01*
X9323571Y-14130952D01*
X9333095Y-14121428D01*
X9333095Y-14140476D01*
X9523571Y-13940476D02*
X9428333Y-13940476D01*
X9418810Y-14035714D01*
X9428333Y-14026190D01*
X9447381Y-14016667D01*
X9495000Y-14016667D01*
X9514048Y-14026190D01*
X9523571Y-14035714D01*
X9533095Y-14054762D01*
X9533095Y-14102381D01*
X9523571Y-14121428D01*
X9514048Y-14130952D01*
X9495000Y-14140476D01*
X9447381Y-14140476D01*
X9428333Y-14130952D01*
X9418810Y-14121428D01*
X9656905Y-13940476D02*
X9675952Y-13940476D01*
X9695000Y-13950000D01*
X9704524Y-13959524D01*
X9714048Y-13978571D01*
X9723571Y-14016667D01*
X9723571Y-14064286D01*
X9714048Y-14102381D01*
X9704524Y-14121428D01*
X9695000Y-14130952D01*
X9675952Y-14140476D01*
X9656905Y-14140476D01*
X9637857Y-14130952D01*
X9628333Y-14121428D01*
X9618810Y-14102381D01*
X9609286Y-14064286D01*
X9609286Y-14016667D01*
X9618810Y-13978571D01*
X9628333Y-13959524D01*
X9637857Y-13950000D01*
X9656905Y-13940476D01*
X9914048Y-14140476D02*
X9799762Y-14140476D01*
X9856905Y-14140476D02*
X9856905Y-13940476D01*
X9837857Y-13969048D01*
X9818810Y-13988095D01*
X9799762Y-13997619D01*
X9999762Y-14140476D02*
X9999762Y-14007143D01*
X9999762Y-14026190D02*
X10009286Y-14016667D01*
X10028333Y-14007143D01*
X10056905Y-14007143D01*
X10075952Y-14016667D01*
X10085476Y-14035714D01*
X10085476Y-14140476D01*
X10085476Y-14035714D02*
X10095000Y-14016667D01*
X10114048Y-14007143D01*
X10142619Y-14007143D01*
X10161667Y-14016667D01*
X10171190Y-14035714D01*
X10171190Y-14140476D01*
X10266429Y-14140476D02*
X10266429Y-14007143D01*
X10266429Y-14026190D02*
X10275952Y-14016667D01*
X10295000Y-14007143D01*
X10323571Y-14007143D01*
X10342619Y-14016667D01*
X10352143Y-14035714D01*
X10352143Y-14140476D01*
X10352143Y-14035714D02*
X10361667Y-14016667D01*
X10380714Y-14007143D01*
X10409286Y-14007143D01*
X10428333Y-14016667D01*
X10437857Y-14035714D01*
X10437857Y-14140476D01*
X10828333Y-13930952D02*
X10656905Y-14188095D01*
X11085476Y-13940476D02*
X11104524Y-13940476D01*
X11123571Y-13950000D01*
X11133095Y-13959524D01*
X11142619Y-13978571D01*
X11152143Y-14016667D01*
X11152143Y-14064286D01*
X11142619Y-14102381D01*
X11133095Y-14121428D01*
X11123571Y-14130952D01*
X11104524Y-14140476D01*
X11085476Y-14140476D01*
X11066429Y-14130952D01*
X11056905Y-14121428D01*
X11047381Y-14102381D01*
X11037857Y-14064286D01*
X11037857Y-14016667D01*
X11047381Y-13978571D01*
X11056905Y-13959524D01*
X11066429Y-13950000D01*
X11085476Y-13940476D01*
X11237857Y-14121428D02*
X11247381Y-14130952D01*
X11237857Y-14140476D01*
X11228333Y-14130952D01*
X11237857Y-14121428D01*
X11237857Y-14140476D01*
X11371190Y-13940476D02*
X11390238Y-13940476D01*
X11409286Y-13950000D01*
X11418809Y-13959524D01*
X11428333Y-13978571D01*
X11437857Y-14016667D01*
X11437857Y-14064286D01*
X11428333Y-14102381D01*
X11418809Y-14121428D01*
X11409286Y-14130952D01*
X11390238Y-14140476D01*
X11371190Y-14140476D01*
X11352143Y-14130952D01*
X11342619Y-14121428D01*
X11333095Y-14102381D01*
X11323571Y-14064286D01*
X11323571Y-14016667D01*
X11333095Y-13978571D01*
X11342619Y-13959524D01*
X11352143Y-13950000D01*
X11371190Y-13940476D01*
X11618809Y-13940476D02*
X11523571Y-13940476D01*
X11514048Y-14035714D01*
X11523571Y-14026190D01*
X11542619Y-14016667D01*
X11590238Y-14016667D01*
X11609286Y-14026190D01*
X11618809Y-14035714D01*
X11628333Y-14054762D01*
X11628333Y-14102381D01*
X11618809Y-14121428D01*
X11609286Y-14130952D01*
X11590238Y-14140476D01*
X11542619Y-14140476D01*
X11523571Y-14130952D01*
X11514048Y-14121428D01*
X11723571Y-14140476D02*
X11761667Y-14140476D01*
X11780714Y-14130952D01*
X11790238Y-14121428D01*
X11809286Y-14092857D01*
X11818809Y-14054762D01*
X11818809Y-13978571D01*
X11809286Y-13959524D01*
X11799762Y-13950000D01*
X11780714Y-13940476D01*
X11742619Y-13940476D01*
X11723571Y-13950000D01*
X11714048Y-13959524D01*
X11704524Y-13978571D01*
X11704524Y-14026190D01*
X11714048Y-14045238D01*
X11723571Y-14054762D01*
X11742619Y-14064286D01*
X11780714Y-14064286D01*
X11799762Y-14054762D01*
X11809286Y-14045238D01*
X11818809Y-14026190D01*
X12009286Y-14140476D02*
X11895000Y-14140476D01*
X11952143Y-14140476D02*
X11952143Y-13940476D01*
X11933095Y-13969048D01*
X11914048Y-13988095D01*
X11895000Y-13997619D01*
X12085476Y-13940476D02*
X12085476Y-13978571D01*
X12161667Y-13940476D02*
X12161667Y-13978571D01*
X12456905Y-14216667D02*
X12447381Y-14207143D01*
X12428333Y-14178571D01*
X12418809Y-14159524D01*
X12409286Y-14130952D01*
X12399762Y-14083333D01*
X12399762Y-14045238D01*
X12409286Y-13997619D01*
X12418809Y-13969048D01*
X12428333Y-13950000D01*
X12447381Y-13921428D01*
X12456905Y-13911905D01*
X12618809Y-14007143D02*
X12618809Y-14140476D01*
X12571190Y-13930952D02*
X12523571Y-14073809D01*
X12647381Y-14073809D01*
X12875952Y-14140476D02*
X12875952Y-13940476D01*
X12961667Y-14140476D02*
X12961667Y-14035714D01*
X12952143Y-14016667D01*
X12933095Y-14007143D01*
X12904524Y-14007143D01*
X12885476Y-14016667D01*
X12875952Y-14026190D01*
X13085476Y-14140476D02*
X13066428Y-14130952D01*
X13056905Y-14121428D01*
X13047381Y-14102381D01*
X13047381Y-14045238D01*
X13056905Y-14026190D01*
X13066428Y-14016667D01*
X13085476Y-14007143D01*
X13114048Y-14007143D01*
X13133095Y-14016667D01*
X13142619Y-14026190D01*
X13152143Y-14045238D01*
X13152143Y-14102381D01*
X13142619Y-14121428D01*
X13133095Y-14130952D01*
X13114048Y-14140476D01*
X13085476Y-14140476D01*
X13266428Y-14140476D02*
X13247381Y-14130952D01*
X13237857Y-14111905D01*
X13237857Y-13940476D01*
X13418809Y-14130952D02*
X13399762Y-14140476D01*
X13361667Y-14140476D01*
X13342619Y-14130952D01*
X13333095Y-14111905D01*
X13333095Y-14035714D01*
X13342619Y-14016667D01*
X13361667Y-14007143D01*
X13399762Y-14007143D01*
X13418809Y-14016667D01*
X13428333Y-14035714D01*
X13428333Y-14054762D01*
X13333095Y-14073809D01*
X13504524Y-14130952D02*
X13523571Y-14140476D01*
X13561667Y-14140476D01*
X13580714Y-14130952D01*
X13590238Y-14111905D01*
X13590238Y-14102381D01*
X13580714Y-14083333D01*
X13561667Y-14073809D01*
X13533095Y-14073809D01*
X13514048Y-14064286D01*
X13504524Y-14045238D01*
X13504524Y-14035714D01*
X13514048Y-14016667D01*
X13533095Y-14007143D01*
X13561667Y-14007143D01*
X13580714Y-14016667D01*
X13656905Y-14216667D02*
X13666428Y-14207143D01*
X13685476Y-14178571D01*
X13695000Y-14159524D01*
X13704524Y-14130952D01*
X13714048Y-14083333D01*
X13714048Y-14045238D01*
X13704524Y-13997619D01*
X13695000Y-13969048D01*
X13685476Y-13950000D01*
X13666428Y-13921428D01*
X13656905Y-13911905D01*
M02*
