G04 #@! TF.GenerationSoftware,KiCad,Pcbnew,(6.0.9)*
G04 #@! TF.CreationDate,2022-12-06T16:10:30-05:00*
G04 #@! TF.ProjectId,rf_controller_hw,72665f63-6f6e-4747-926f-6c6c65725f68,rev?*
G04 #@! TF.SameCoordinates,Original*
G04 #@! TF.FileFunction,Copper,L2,Bot*
G04 #@! TF.FilePolarity,Positive*
%FSLAX46Y46*%
G04 Gerber Fmt 4.6, Leading zero omitted, Abs format (unit mm)*
G04 Created by KiCad (PCBNEW (6.0.9)) date 2022-12-06 16:10:30*
%MOMM*%
%LPD*%
G01*
G04 APERTURE LIST*
G04 Aperture macros list*
%AMRoundRect*
0 Rectangle with rounded corners*
0 $1 Rounding radius*
0 $2 $3 $4 $5 $6 $7 $8 $9 X,Y pos of 4 corners*
0 Add a 4 corners polygon primitive as box body*
4,1,4,$2,$3,$4,$5,$6,$7,$8,$9,$2,$3,0*
0 Add four circle primitives for the rounded corners*
1,1,$1+$1,$2,$3*
1,1,$1+$1,$4,$5*
1,1,$1+$1,$6,$7*
1,1,$1+$1,$8,$9*
0 Add four rect primitives between the rounded corners*
20,1,$1+$1,$2,$3,$4,$5,0*
20,1,$1+$1,$4,$5,$6,$7,0*
20,1,$1+$1,$6,$7,$8,$9,0*
20,1,$1+$1,$8,$9,$2,$3,0*%
G04 Aperture macros list end*
G04 #@! TA.AperFunction,ComponentPad*
%ADD10RoundRect,0.400000X-0.900000X-0.400000X0.900000X-0.400000X0.900000X0.400000X-0.900000X0.400000X0*%
G04 #@! TD*
G04 #@! TA.AperFunction,ComponentPad*
%ADD11RoundRect,0.400050X-0.899950X-0.400050X0.899950X-0.400050X0.899950X0.400050X-0.899950X0.400050X0*%
G04 #@! TD*
G04 #@! TA.AperFunction,ComponentPad*
%ADD12RoundRect,0.400000X-0.400000X-0.900000X0.400000X-0.900000X0.400000X0.900000X-0.400000X0.900000X0*%
G04 #@! TD*
G04 #@! TA.AperFunction,ComponentPad*
%ADD13RoundRect,0.393700X-0.393700X-0.906300X0.393700X-0.906300X0.393700X0.906300X-0.393700X0.906300X0*%
G04 #@! TD*
G04 #@! TA.AperFunction,ComponentPad*
%ADD14C,2.000000*%
G04 #@! TD*
G04 #@! TA.AperFunction,ComponentPad*
%ADD15R,1.700000X1.700000*%
G04 #@! TD*
G04 #@! TA.AperFunction,ComponentPad*
%ADD16O,1.700000X1.700000*%
G04 #@! TD*
G04 #@! TA.AperFunction,ComponentPad*
%ADD17C,1.998980*%
G04 #@! TD*
G04 #@! TA.AperFunction,ComponentPad*
%ADD18R,2.000000X2.000000*%
G04 #@! TD*
G04 #@! TA.AperFunction,ComponentPad*
%ADD19R,1.600000X1.600000*%
G04 #@! TD*
G04 #@! TA.AperFunction,ComponentPad*
%ADD20O,1.600000X1.600000*%
G04 #@! TD*
G04 #@! TA.AperFunction,ViaPad*
%ADD21C,0.800000*%
G04 #@! TD*
G04 #@! TA.AperFunction,Conductor*
%ADD22C,0.250000*%
G04 #@! TD*
G04 APERTURE END LIST*
D10*
X112551000Y-47169000D03*
X112551000Y-49709000D03*
X112551000Y-52249000D03*
X112551000Y-54789000D03*
X112551000Y-57329000D03*
D11*
X112551000Y-59869000D03*
X112551000Y-62409000D03*
X112551000Y-64949000D03*
X112551000Y-67489000D03*
D12*
X109411000Y-68299000D03*
D13*
X106871000Y-68299000D03*
X104331000Y-68299000D03*
X101791000Y-68299000D03*
X99251000Y-68299000D03*
D11*
X96111000Y-67489000D03*
X96111000Y-64949000D03*
X96111000Y-62409000D03*
X96111000Y-59869000D03*
X96111000Y-57329000D03*
X96111000Y-54789000D03*
X96111000Y-52249000D03*
X96111000Y-49709000D03*
X96111000Y-47169000D03*
D14*
X183440000Y-87920000D03*
X189940000Y-87920000D03*
X189940000Y-92420000D03*
X183440000Y-92420000D03*
X118260000Y-73914000D03*
X111760000Y-73914000D03*
X118260000Y-78414000D03*
X111760000Y-78414000D03*
X111760000Y-95504000D03*
X118260000Y-95504000D03*
X111760000Y-100004000D03*
X118260000Y-100004000D03*
X100330000Y-85344000D03*
X106830000Y-85344000D03*
X100330000Y-89844000D03*
X106830000Y-89844000D03*
X197410000Y-80046000D03*
X203910000Y-80046000D03*
X203910000Y-84546000D03*
X197410000Y-84546000D03*
D15*
X213106000Y-73421000D03*
D16*
X213106000Y-75961000D03*
X213106000Y-78501000D03*
D15*
X196877000Y-73946500D03*
D16*
X196877000Y-71406500D03*
X199417000Y-73946500D03*
X199417000Y-71406500D03*
X201957000Y-73946500D03*
X201957000Y-71406500D03*
X204497000Y-73946500D03*
X204497000Y-71406500D03*
D14*
X160120095Y-103705670D03*
X160120095Y-93705670D03*
D17*
X150543895Y-92955670D03*
D14*
X147470095Y-103705670D03*
D17*
X150543895Y-88455670D03*
D14*
X147470095Y-93705670D03*
D17*
X157046295Y-92955670D03*
X157046295Y-88455670D03*
X145065095Y-101205030D03*
X145065095Y-98705670D03*
X145065095Y-96206310D03*
X156294455Y-107435670D03*
X153795095Y-107435670D03*
X151295735Y-107435670D03*
D14*
X123190000Y-85344000D03*
X129690000Y-85344000D03*
X123190000Y-89844000D03*
X129690000Y-89844000D03*
X168200000Y-95540000D03*
X174700000Y-95540000D03*
X174700000Y-100040000D03*
X168200000Y-100040000D03*
D18*
X189331000Y-55111000D03*
D14*
X189331000Y-70101000D03*
D19*
X103373000Y-79713500D03*
D20*
X100833000Y-79713500D03*
X98293000Y-79713500D03*
X95753000Y-79713500D03*
X93213000Y-79713500D03*
X93213000Y-72093500D03*
X95753000Y-72093500D03*
X98293000Y-72093500D03*
X100833000Y-72093500D03*
X103373000Y-72093500D03*
D21*
X189865000Y-47625000D03*
X208280000Y-72390000D03*
X186690000Y-78740000D03*
X190500000Y-66040000D03*
X210820000Y-69215000D03*
X189865000Y-52070000D03*
X116840000Y-59690000D03*
X90170000Y-52070000D03*
X170180000Y-83820000D03*
X166370000Y-86360000D03*
X116840000Y-46990000D03*
X140970000Y-104140000D03*
X175260000Y-85090000D03*
X105664000Y-75438000D03*
X106172000Y-81026000D03*
X107442000Y-76454000D03*
X107188000Y-81534000D03*
X90715500Y-59690000D03*
X91223500Y-58674000D03*
D22*
X149238970Y-101205030D02*
X149746970Y-101205030D01*
X156604970Y-101205030D02*
X176022000Y-81788000D01*
X176022000Y-81788000D02*
X186182000Y-81788000D01*
X156294455Y-107435670D02*
X150063815Y-101205030D01*
X149746970Y-101205030D02*
X156604970Y-101205030D01*
X186182000Y-81788000D02*
X186944000Y-81788000D01*
X192771000Y-75961000D02*
X213106000Y-75961000D01*
X186182000Y-81788000D02*
X196563500Y-71406500D01*
X145065095Y-101205030D02*
X149238970Y-101205030D01*
X186944000Y-81788000D02*
X192771000Y-75961000D01*
X196563500Y-71406500D02*
X196877000Y-71406500D01*
X150063815Y-101205030D02*
X149746970Y-101205030D01*
X105664000Y-75438000D02*
X106172000Y-75946000D01*
X106172000Y-75946000D02*
X106172000Y-81026000D01*
X100330000Y-89844000D02*
X106830000Y-89844000D01*
X111760000Y-78414000D02*
X118260000Y-78414000D01*
X107442000Y-76454000D02*
X107442000Y-81280000D01*
X107442000Y-81280000D02*
X107188000Y-81534000D01*
X111760000Y-100004000D02*
X118260000Y-100004000D01*
X123190000Y-89844000D02*
X129690000Y-89844000D01*
X91694000Y-59690000D02*
X94055000Y-57329000D01*
X94055000Y-57329000D02*
X96711000Y-57329000D01*
X90715500Y-59690000D02*
X91694000Y-59690000D01*
X91223500Y-58674000D02*
X95108500Y-54789000D01*
X95108500Y-54789000D02*
X96711000Y-54789000D01*
X101791000Y-67699000D02*
X101958000Y-67866000D01*
X101958000Y-67866000D02*
X101958000Y-78298500D01*
X101958000Y-78298500D02*
X103373000Y-79713500D01*
X99418000Y-78298500D02*
X100833000Y-79713500D01*
X99251000Y-67699000D02*
X99418000Y-67866000D01*
X99418000Y-67866000D02*
X99418000Y-78298500D01*
X96711000Y-67489000D02*
X96878000Y-67656000D01*
X96878000Y-67656000D02*
X96878000Y-78298500D01*
X96878000Y-78298500D02*
X98293000Y-79713500D01*
X94486000Y-78446500D02*
X95753000Y-79713500D01*
X94486000Y-66788624D02*
X94486000Y-78446500D01*
X96711000Y-64949000D02*
X96325624Y-64949000D01*
X96325624Y-64949000D02*
X94486000Y-66788624D01*
X92088000Y-69456000D02*
X93980000Y-67564000D01*
X93980000Y-63754000D02*
X95325000Y-62409000D01*
X92088000Y-78588500D02*
X92088000Y-69456000D01*
X93213000Y-79713500D02*
X92088000Y-78588500D01*
X95325000Y-62409000D02*
X96711000Y-62409000D01*
X93980000Y-67564000D02*
X93980000Y-63754000D01*
X208280000Y-69088000D02*
X212613000Y-73421000D01*
X212613000Y-73421000D02*
X213106000Y-73421000D01*
X189331000Y-67157000D02*
X191262000Y-69088000D01*
X189331000Y-55111000D02*
X189331000Y-67157000D01*
X191262000Y-69088000D02*
X208280000Y-69088000D01*
G04 #@! TA.AperFunction,Conductor*
G36*
X94329240Y-46248502D02*
G01*
X94375733Y-46302158D01*
X94385837Y-46372432D01*
X94373386Y-46411702D01*
X94361171Y-46435677D01*
X94358173Y-46441561D01*
X94308742Y-46626039D01*
X94308289Y-46631793D01*
X94308289Y-46631794D01*
X94304495Y-46680007D01*
X94302500Y-46705354D01*
X94302500Y-47632646D01*
X94302693Y-47635093D01*
X94302693Y-47635104D01*
X94308289Y-47706206D01*
X94308742Y-47711961D01*
X94358173Y-47896439D01*
X94444878Y-48066608D01*
X94449031Y-48071737D01*
X94449032Y-48071738D01*
X94537412Y-48180878D01*
X94565069Y-48215031D01*
X94713492Y-48335222D01*
X94713814Y-48335386D01*
X94758542Y-48387507D01*
X94768309Y-48457828D01*
X94738508Y-48522267D01*
X94712306Y-48544971D01*
X94708635Y-48547355D01*
X94570551Y-48659174D01*
X94561274Y-48668451D01*
X94449454Y-48806536D01*
X94442304Y-48817547D01*
X94361637Y-48975864D01*
X94356936Y-48988110D01*
X94310733Y-49160543D01*
X94308786Y-49171870D01*
X94303193Y-49242935D01*
X94303000Y-49247862D01*
X94303000Y-49436885D01*
X94307475Y-49452124D01*
X94308865Y-49453329D01*
X94316548Y-49455000D01*
X96239000Y-49455000D01*
X96307121Y-49475002D01*
X96353614Y-49528658D01*
X96365000Y-49581000D01*
X96365000Y-49837000D01*
X96344998Y-49905121D01*
X96291342Y-49951614D01*
X96239000Y-49963000D01*
X94321115Y-49963000D01*
X94305876Y-49967475D01*
X94304671Y-49968865D01*
X94303000Y-49976548D01*
X94303000Y-50170139D01*
X94303193Y-50175065D01*
X94308786Y-50246130D01*
X94310733Y-50257457D01*
X94356936Y-50429890D01*
X94361637Y-50442136D01*
X94442304Y-50600453D01*
X94449454Y-50611464D01*
X94561274Y-50749549D01*
X94570551Y-50758826D01*
X94708635Y-50870645D01*
X94712306Y-50873029D01*
X94758541Y-50926906D01*
X94768309Y-50997228D01*
X94738508Y-51061667D01*
X94715076Y-51081971D01*
X94713492Y-51082778D01*
X94565069Y-51202969D01*
X94560919Y-51208094D01*
X94560918Y-51208095D01*
X94529421Y-51246991D01*
X94444878Y-51351392D01*
X94358173Y-51521561D01*
X94308742Y-51706039D01*
X94308289Y-51711793D01*
X94308289Y-51711794D01*
X94304495Y-51760007D01*
X94302500Y-51785354D01*
X94302500Y-52712646D01*
X94302693Y-52715093D01*
X94302693Y-52715104D01*
X94308289Y-52786206D01*
X94308742Y-52791961D01*
X94358173Y-52976439D01*
X94444878Y-53146608D01*
X94449031Y-53151737D01*
X94449032Y-53151738D01*
X94537412Y-53260878D01*
X94565069Y-53295031D01*
X94713414Y-53415159D01*
X94713415Y-53415160D01*
X94713492Y-53415222D01*
X94713481Y-53415236D01*
X94758080Y-53467207D01*
X94767847Y-53537528D01*
X94738045Y-53601967D01*
X94714794Y-53622114D01*
X94713492Y-53622778D01*
X94565069Y-53742969D01*
X94560919Y-53748094D01*
X94560918Y-53748095D01*
X94529421Y-53786991D01*
X94444878Y-53891392D01*
X94358173Y-54061561D01*
X94308742Y-54246039D01*
X94308289Y-54251793D01*
X94308289Y-54251794D01*
X94304495Y-54300007D01*
X94302500Y-54325354D01*
X94302500Y-54646906D01*
X94282498Y-54715027D01*
X94265595Y-54736001D01*
X91273000Y-57728595D01*
X91210688Y-57762621D01*
X91183905Y-57765500D01*
X91128013Y-57765500D01*
X91121561Y-57766872D01*
X91121556Y-57766872D01*
X91034613Y-57785353D01*
X90941212Y-57805206D01*
X90935182Y-57807891D01*
X90935181Y-57807891D01*
X90772778Y-57880197D01*
X90772776Y-57880198D01*
X90766748Y-57882882D01*
X90612247Y-57995134D01*
X90607826Y-58000044D01*
X90607825Y-58000045D01*
X90514750Y-58103416D01*
X90484460Y-58137056D01*
X90388973Y-58302444D01*
X90329958Y-58484072D01*
X90329268Y-58490633D01*
X90329268Y-58490635D01*
X90326603Y-58515990D01*
X90309996Y-58674000D01*
X90313458Y-58706933D01*
X90320874Y-58777495D01*
X90308102Y-58847334D01*
X90259904Y-58898367D01*
X90258748Y-58898882D01*
X90253406Y-58902764D01*
X90253403Y-58902765D01*
X90242146Y-58910944D01*
X90104247Y-59011134D01*
X90099826Y-59016044D01*
X90099825Y-59016045D01*
X89992105Y-59135681D01*
X89976460Y-59153056D01*
X89880973Y-59318444D01*
X89821958Y-59500072D01*
X89801996Y-59690000D01*
X89821958Y-59879928D01*
X89880973Y-60061556D01*
X89976460Y-60226944D01*
X89980878Y-60231851D01*
X89980879Y-60231852D01*
X90094516Y-60358059D01*
X90104247Y-60368866D01*
X90258748Y-60481118D01*
X90264776Y-60483802D01*
X90264778Y-60483803D01*
X90427181Y-60556109D01*
X90433212Y-60558794D01*
X90526613Y-60578647D01*
X90613556Y-60597128D01*
X90613561Y-60597128D01*
X90620013Y-60598500D01*
X90810987Y-60598500D01*
X90817439Y-60597128D01*
X90817444Y-60597128D01*
X90904387Y-60578647D01*
X90997788Y-60558794D01*
X91003819Y-60556109D01*
X91166222Y-60483803D01*
X91166224Y-60483802D01*
X91172252Y-60481118D01*
X91326753Y-60368866D01*
X91331168Y-60363963D01*
X91336080Y-60359540D01*
X91337205Y-60360789D01*
X91390514Y-60327949D01*
X91423700Y-60323500D01*
X91615233Y-60323500D01*
X91626416Y-60324027D01*
X91633909Y-60325702D01*
X91641835Y-60325453D01*
X91641836Y-60325453D01*
X91701986Y-60323562D01*
X91705945Y-60323500D01*
X91733856Y-60323500D01*
X91737791Y-60323003D01*
X91737856Y-60322995D01*
X91749693Y-60322062D01*
X91781951Y-60321048D01*
X91785970Y-60320922D01*
X91793889Y-60320673D01*
X91813343Y-60315021D01*
X91832700Y-60311013D01*
X91844930Y-60309468D01*
X91844931Y-60309468D01*
X91852797Y-60308474D01*
X91860168Y-60305555D01*
X91860170Y-60305555D01*
X91893912Y-60292196D01*
X91905142Y-60288351D01*
X91939983Y-60278229D01*
X91939984Y-60278229D01*
X91947593Y-60276018D01*
X91954412Y-60271985D01*
X91954417Y-60271983D01*
X91965028Y-60265707D01*
X91982776Y-60257012D01*
X92001617Y-60249552D01*
X92037387Y-60223564D01*
X92047307Y-60217048D01*
X92078535Y-60198580D01*
X92078538Y-60198578D01*
X92085362Y-60194542D01*
X92099683Y-60180221D01*
X92114717Y-60167380D01*
X92124694Y-60160131D01*
X92131107Y-60155472D01*
X92159298Y-60121395D01*
X92167288Y-60112616D01*
X94190074Y-58089830D01*
X94252386Y-58055804D01*
X94323201Y-58060869D01*
X94380037Y-58103416D01*
X94391436Y-58121722D01*
X94444878Y-58226608D01*
X94449031Y-58231737D01*
X94449032Y-58231738D01*
X94537412Y-58340878D01*
X94565069Y-58375031D01*
X94713414Y-58495159D01*
X94713415Y-58495160D01*
X94713492Y-58495222D01*
X94713481Y-58495236D01*
X94758080Y-58547207D01*
X94767847Y-58617528D01*
X94738045Y-58681967D01*
X94714794Y-58702114D01*
X94713492Y-58702778D01*
X94708361Y-58706933D01*
X94621225Y-58777495D01*
X94565069Y-58822969D01*
X94560919Y-58828094D01*
X94560918Y-58828095D01*
X94529421Y-58866991D01*
X94444878Y-58971392D01*
X94358173Y-59141561D01*
X94356465Y-59147934D01*
X94356465Y-59147935D01*
X94312311Y-59312721D01*
X94308742Y-59326039D01*
X94302500Y-59405354D01*
X94302500Y-60332646D01*
X94302693Y-60335093D01*
X94302693Y-60335104D01*
X94305656Y-60372749D01*
X94308742Y-60411961D01*
X94310236Y-60417536D01*
X94310236Y-60417537D01*
X94348086Y-60558794D01*
X94358173Y-60596439D01*
X94444878Y-60766608D01*
X94449031Y-60771737D01*
X94449032Y-60771738D01*
X94537468Y-60880947D01*
X94565069Y-60915031D01*
X94713414Y-61035159D01*
X94713415Y-61035160D01*
X94713492Y-61035222D01*
X94713481Y-61035236D01*
X94758080Y-61087207D01*
X94767847Y-61157528D01*
X94738045Y-61221967D01*
X94714794Y-61242114D01*
X94713492Y-61242778D01*
X94565069Y-61362969D01*
X94560919Y-61368094D01*
X94560918Y-61368095D01*
X94529421Y-61406991D01*
X94444878Y-61511392D01*
X94358173Y-61681561D01*
X94308742Y-61866039D01*
X94302500Y-61945354D01*
X94302500Y-62483405D01*
X94282498Y-62551526D01*
X94265595Y-62572500D01*
X93587747Y-63250348D01*
X93579461Y-63257888D01*
X93572982Y-63262000D01*
X93567557Y-63267777D01*
X93526357Y-63311651D01*
X93523602Y-63314493D01*
X93503865Y-63334230D01*
X93501385Y-63337427D01*
X93493682Y-63346447D01*
X93463414Y-63378679D01*
X93459595Y-63385625D01*
X93459593Y-63385628D01*
X93453652Y-63396434D01*
X93442801Y-63412953D01*
X93430386Y-63428959D01*
X93427241Y-63436228D01*
X93427238Y-63436232D01*
X93412826Y-63469537D01*
X93407609Y-63480187D01*
X93386305Y-63518940D01*
X93384334Y-63526615D01*
X93384334Y-63526616D01*
X93381267Y-63538562D01*
X93374863Y-63557266D01*
X93366819Y-63575855D01*
X93365580Y-63583678D01*
X93365577Y-63583688D01*
X93359901Y-63619524D01*
X93357495Y-63631144D01*
X93349592Y-63661927D01*
X93346500Y-63673970D01*
X93346500Y-63694224D01*
X93344949Y-63713934D01*
X93341780Y-63733943D01*
X93342526Y-63741835D01*
X93345941Y-63777961D01*
X93346500Y-63789819D01*
X93346500Y-67249406D01*
X93326498Y-67317527D01*
X93309595Y-67338501D01*
X92438069Y-68210026D01*
X91695747Y-68952348D01*
X91687461Y-68959888D01*
X91680982Y-68964000D01*
X91675557Y-68969777D01*
X91634357Y-69013651D01*
X91631602Y-69016493D01*
X91611865Y-69036230D01*
X91609385Y-69039427D01*
X91601682Y-69048447D01*
X91571414Y-69080679D01*
X91567595Y-69087625D01*
X91567593Y-69087628D01*
X91561652Y-69098434D01*
X91550801Y-69114953D01*
X91538386Y-69130959D01*
X91535241Y-69138228D01*
X91535238Y-69138232D01*
X91520826Y-69171537D01*
X91515609Y-69182187D01*
X91494305Y-69220940D01*
X91492334Y-69228615D01*
X91492334Y-69228616D01*
X91489267Y-69240562D01*
X91482863Y-69259266D01*
X91481429Y-69262581D01*
X91474819Y-69277855D01*
X91473580Y-69285678D01*
X91473577Y-69285688D01*
X91467901Y-69321524D01*
X91465495Y-69333144D01*
X91463246Y-69341904D01*
X91454500Y-69375970D01*
X91454500Y-69396224D01*
X91452949Y-69415934D01*
X91449780Y-69435943D01*
X91450526Y-69443835D01*
X91453941Y-69479961D01*
X91454500Y-69491819D01*
X91454500Y-78509733D01*
X91453973Y-78520916D01*
X91452298Y-78528409D01*
X91452547Y-78536335D01*
X91452547Y-78536336D01*
X91454438Y-78596486D01*
X91454500Y-78600445D01*
X91454500Y-78628356D01*
X91454997Y-78632290D01*
X91454997Y-78632291D01*
X91455005Y-78632356D01*
X91455938Y-78644193D01*
X91457327Y-78688389D01*
X91462978Y-78707839D01*
X91466987Y-78727200D01*
X91469526Y-78747297D01*
X91472445Y-78754668D01*
X91472445Y-78754670D01*
X91485804Y-78788412D01*
X91489649Y-78799642D01*
X91501982Y-78842093D01*
X91506015Y-78848912D01*
X91506017Y-78848917D01*
X91512293Y-78859528D01*
X91520988Y-78877276D01*
X91528448Y-78896117D01*
X91533110Y-78902533D01*
X91533110Y-78902534D01*
X91554436Y-78931887D01*
X91560952Y-78941807D01*
X91583458Y-78979862D01*
X91597779Y-78994183D01*
X91610619Y-79009216D01*
X91622528Y-79025607D01*
X91628634Y-79030658D01*
X91656605Y-79053798D01*
X91665384Y-79061788D01*
X91903848Y-79300252D01*
X91937874Y-79362564D01*
X91936459Y-79421959D01*
X91920882Y-79480091D01*
X91920880Y-79480102D01*
X91919457Y-79485413D01*
X91899502Y-79713500D01*
X91919457Y-79941587D01*
X91920881Y-79946900D01*
X91920881Y-79946902D01*
X91950868Y-80058812D01*
X91978716Y-80162743D01*
X91981039Y-80167724D01*
X91981039Y-80167725D01*
X92073151Y-80365262D01*
X92073154Y-80365267D01*
X92075477Y-80370249D01*
X92106665Y-80414790D01*
X92172371Y-80508627D01*
X92206802Y-80557800D01*
X92368700Y-80719698D01*
X92373208Y-80722855D01*
X92373211Y-80722857D01*
X92414542Y-80751797D01*
X92556251Y-80851023D01*
X92561233Y-80853346D01*
X92561238Y-80853349D01*
X92758775Y-80945461D01*
X92763757Y-80947784D01*
X92769065Y-80949206D01*
X92769067Y-80949207D01*
X92979598Y-81005619D01*
X92979600Y-81005619D01*
X92984913Y-81007043D01*
X93213000Y-81026998D01*
X93441087Y-81007043D01*
X93446400Y-81005619D01*
X93446402Y-81005619D01*
X93656933Y-80949207D01*
X93656935Y-80949206D01*
X93662243Y-80947784D01*
X93667225Y-80945461D01*
X93864762Y-80853349D01*
X93864767Y-80853346D01*
X93869749Y-80851023D01*
X94011458Y-80751797D01*
X94052789Y-80722857D01*
X94052792Y-80722855D01*
X94057300Y-80719698D01*
X94219198Y-80557800D01*
X94253630Y-80508627D01*
X94319335Y-80414790D01*
X94350523Y-80370249D01*
X94352846Y-80365267D01*
X94352849Y-80365262D01*
X94368805Y-80331043D01*
X94415722Y-80277758D01*
X94483999Y-80258297D01*
X94551959Y-80278839D01*
X94597195Y-80331043D01*
X94613151Y-80365262D01*
X94613154Y-80365267D01*
X94615477Y-80370249D01*
X94646665Y-80414790D01*
X94712371Y-80508627D01*
X94746802Y-80557800D01*
X94908700Y-80719698D01*
X94913208Y-80722855D01*
X94913211Y-80722857D01*
X94954542Y-80751797D01*
X95096251Y-80851023D01*
X95101233Y-80853346D01*
X95101238Y-80853349D01*
X95298775Y-80945461D01*
X95303757Y-80947784D01*
X95309065Y-80949206D01*
X95309067Y-80949207D01*
X95519598Y-81005619D01*
X95519600Y-81005619D01*
X95524913Y-81007043D01*
X95753000Y-81026998D01*
X95981087Y-81007043D01*
X95986400Y-81005619D01*
X95986402Y-81005619D01*
X96196933Y-80949207D01*
X96196935Y-80949206D01*
X96202243Y-80947784D01*
X96207225Y-80945461D01*
X96404762Y-80853349D01*
X96404767Y-80853346D01*
X96409749Y-80851023D01*
X96551458Y-80751797D01*
X96592789Y-80722857D01*
X96592792Y-80722855D01*
X96597300Y-80719698D01*
X96759198Y-80557800D01*
X96793630Y-80508627D01*
X96859335Y-80414790D01*
X96890523Y-80370249D01*
X96892846Y-80365267D01*
X96892849Y-80365262D01*
X96908805Y-80331043D01*
X96955722Y-80277758D01*
X97023999Y-80258297D01*
X97091959Y-80278839D01*
X97137195Y-80331043D01*
X97153151Y-80365262D01*
X97153154Y-80365267D01*
X97155477Y-80370249D01*
X97186665Y-80414790D01*
X97252371Y-80508627D01*
X97286802Y-80557800D01*
X97448700Y-80719698D01*
X97453208Y-80722855D01*
X97453211Y-80722857D01*
X97494542Y-80751797D01*
X97636251Y-80851023D01*
X97641233Y-80853346D01*
X97641238Y-80853349D01*
X97838775Y-80945461D01*
X97843757Y-80947784D01*
X97849065Y-80949206D01*
X97849067Y-80949207D01*
X98059598Y-81005619D01*
X98059600Y-81005619D01*
X98064913Y-81007043D01*
X98293000Y-81026998D01*
X98521087Y-81007043D01*
X98526400Y-81005619D01*
X98526402Y-81005619D01*
X98736933Y-80949207D01*
X98736935Y-80949206D01*
X98742243Y-80947784D01*
X98747225Y-80945461D01*
X98944762Y-80853349D01*
X98944767Y-80853346D01*
X98949749Y-80851023D01*
X99091458Y-80751797D01*
X99132789Y-80722857D01*
X99132792Y-80722855D01*
X99137300Y-80719698D01*
X99299198Y-80557800D01*
X99333630Y-80508627D01*
X99399335Y-80414790D01*
X99430523Y-80370249D01*
X99432846Y-80365267D01*
X99432849Y-80365262D01*
X99448805Y-80331043D01*
X99495722Y-80277758D01*
X99563999Y-80258297D01*
X99631959Y-80278839D01*
X99677195Y-80331043D01*
X99693151Y-80365262D01*
X99693154Y-80365267D01*
X99695477Y-80370249D01*
X99726665Y-80414790D01*
X99792371Y-80508627D01*
X99826802Y-80557800D01*
X99988700Y-80719698D01*
X99993208Y-80722855D01*
X99993211Y-80722857D01*
X100034542Y-80751797D01*
X100176251Y-80851023D01*
X100181233Y-80853346D01*
X100181238Y-80853349D01*
X100378775Y-80945461D01*
X100383757Y-80947784D01*
X100389065Y-80949206D01*
X100389067Y-80949207D01*
X100599598Y-81005619D01*
X100599600Y-81005619D01*
X100604913Y-81007043D01*
X100833000Y-81026998D01*
X101061087Y-81007043D01*
X101066400Y-81005619D01*
X101066402Y-81005619D01*
X101276933Y-80949207D01*
X101276935Y-80949206D01*
X101282243Y-80947784D01*
X101287225Y-80945461D01*
X101484762Y-80853349D01*
X101484767Y-80853346D01*
X101489749Y-80851023D01*
X101631458Y-80751797D01*
X101672789Y-80722857D01*
X101672792Y-80722855D01*
X101677300Y-80719698D01*
X101839198Y-80557800D01*
X101842357Y-80553289D01*
X101845892Y-80549076D01*
X101847026Y-80550027D01*
X101897071Y-80510029D01*
X101967690Y-80502724D01*
X102031049Y-80534758D01*
X102067030Y-80595962D01*
X102070082Y-80613017D01*
X102071255Y-80623816D01*
X102122385Y-80760205D01*
X102209739Y-80876761D01*
X102326295Y-80964115D01*
X102462684Y-81015245D01*
X102524866Y-81022000D01*
X104221134Y-81022000D01*
X104283316Y-81015245D01*
X104419705Y-80964115D01*
X104536261Y-80876761D01*
X104623615Y-80760205D01*
X104674745Y-80623816D01*
X104681500Y-80561634D01*
X104681500Y-78865366D01*
X104674745Y-78803184D01*
X104623615Y-78666795D01*
X104536261Y-78550239D01*
X104419705Y-78462885D01*
X104283316Y-78411755D01*
X104221134Y-78405000D01*
X103012595Y-78405000D01*
X102944474Y-78384998D01*
X102923500Y-78368095D01*
X102628405Y-78073000D01*
X102594379Y-78010688D01*
X102591500Y-77983905D01*
X102591500Y-75438000D01*
X104750496Y-75438000D01*
X104751186Y-75444565D01*
X104767799Y-75602625D01*
X104770458Y-75627928D01*
X104829473Y-75809556D01*
X104924960Y-75974944D01*
X104929378Y-75979851D01*
X104929379Y-75979852D01*
X104975350Y-76030908D01*
X105052747Y-76116866D01*
X105207248Y-76229118D01*
X105213276Y-76231802D01*
X105213278Y-76231803D01*
X105285756Y-76264072D01*
X105381712Y-76306794D01*
X105438024Y-76318764D01*
X105438698Y-76318907D01*
X105501171Y-76352635D01*
X105535492Y-76414785D01*
X105538500Y-76442153D01*
X105538500Y-80323476D01*
X105518498Y-80391597D01*
X105506142Y-80407779D01*
X105432960Y-80489056D01*
X105337473Y-80654444D01*
X105278458Y-80836072D01*
X105277768Y-80842633D01*
X105277768Y-80842635D01*
X105276642Y-80853349D01*
X105258496Y-81026000D01*
X105259186Y-81032565D01*
X105277417Y-81206019D01*
X105278458Y-81215928D01*
X105337473Y-81397556D01*
X105432960Y-81562944D01*
X105560747Y-81704866D01*
X105715248Y-81817118D01*
X105721276Y-81819802D01*
X105721278Y-81819803D01*
X105883681Y-81892109D01*
X105889712Y-81894794D01*
X105983112Y-81914647D01*
X106070056Y-81933128D01*
X106070061Y-81933128D01*
X106076513Y-81934500D01*
X106267487Y-81934500D01*
X106273944Y-81933128D01*
X106280515Y-81932437D01*
X106280780Y-81934960D01*
X106340195Y-81939488D01*
X106396831Y-81982299D01*
X106404728Y-81994332D01*
X106448960Y-82070944D01*
X106576747Y-82212866D01*
X106731248Y-82325118D01*
X106737276Y-82327802D01*
X106737278Y-82327803D01*
X106868780Y-82386351D01*
X106905712Y-82402794D01*
X106991378Y-82421003D01*
X107086056Y-82441128D01*
X107086061Y-82441128D01*
X107092513Y-82442500D01*
X107283487Y-82442500D01*
X107289939Y-82441128D01*
X107289944Y-82441128D01*
X107384622Y-82421003D01*
X107470288Y-82402794D01*
X107507220Y-82386351D01*
X107638722Y-82327803D01*
X107638724Y-82327802D01*
X107644752Y-82325118D01*
X107799253Y-82212866D01*
X107927040Y-82070944D01*
X108022527Y-81905556D01*
X108081542Y-81723928D01*
X108083138Y-81708749D01*
X108100814Y-81540565D01*
X108101504Y-81534000D01*
X108087765Y-81403279D01*
X108082233Y-81350643D01*
X108082232Y-81350640D01*
X108081542Y-81344072D01*
X108081259Y-81343200D01*
X108080545Y-81315866D01*
X108078730Y-81315809D01*
X108078979Y-81307890D01*
X108080220Y-81300057D01*
X108078922Y-81286320D01*
X108076059Y-81256039D01*
X108075500Y-81244181D01*
X108075500Y-78414000D01*
X110246835Y-78414000D01*
X110265465Y-78650711D01*
X110266619Y-78655518D01*
X110266620Y-78655524D01*
X110288653Y-78747297D01*
X110320895Y-78881594D01*
X110322788Y-78886165D01*
X110322789Y-78886167D01*
X110394807Y-79060034D01*
X110411760Y-79100963D01*
X110414346Y-79105183D01*
X110533241Y-79299202D01*
X110533245Y-79299208D01*
X110535824Y-79303416D01*
X110690031Y-79483969D01*
X110870584Y-79638176D01*
X110874792Y-79640755D01*
X110874798Y-79640759D01*
X111020978Y-79730338D01*
X111073037Y-79762240D01*
X111077607Y-79764133D01*
X111077611Y-79764135D01*
X111287833Y-79851211D01*
X111292406Y-79853105D01*
X111331806Y-79862564D01*
X111518476Y-79907380D01*
X111518482Y-79907381D01*
X111523289Y-79908535D01*
X111760000Y-79927165D01*
X111996711Y-79908535D01*
X112001518Y-79907381D01*
X112001524Y-79907380D01*
X112188194Y-79862564D01*
X112227594Y-79853105D01*
X112232167Y-79851211D01*
X112442389Y-79764135D01*
X112442393Y-79764133D01*
X112446963Y-79762240D01*
X112499022Y-79730338D01*
X112645202Y-79640759D01*
X112645208Y-79640755D01*
X112649416Y-79638176D01*
X112829969Y-79483969D01*
X112984176Y-79303416D01*
X112986755Y-79299208D01*
X112986759Y-79299202D01*
X113104133Y-79107665D01*
X113156781Y-79060034D01*
X113211566Y-79047500D01*
X116808434Y-79047500D01*
X116876555Y-79067502D01*
X116915867Y-79107665D01*
X117033241Y-79299202D01*
X117033245Y-79299208D01*
X117035824Y-79303416D01*
X117190031Y-79483969D01*
X117370584Y-79638176D01*
X117374792Y-79640755D01*
X117374798Y-79640759D01*
X117520978Y-79730338D01*
X117573037Y-79762240D01*
X117577607Y-79764133D01*
X117577611Y-79764135D01*
X117787833Y-79851211D01*
X117792406Y-79853105D01*
X117831806Y-79862564D01*
X118018476Y-79907380D01*
X118018482Y-79907381D01*
X118023289Y-79908535D01*
X118260000Y-79927165D01*
X118496711Y-79908535D01*
X118501518Y-79907381D01*
X118501524Y-79907380D01*
X118688194Y-79862564D01*
X118727594Y-79853105D01*
X118732167Y-79851211D01*
X118942389Y-79764135D01*
X118942393Y-79764133D01*
X118946963Y-79762240D01*
X118999022Y-79730338D01*
X119145202Y-79640759D01*
X119145208Y-79640755D01*
X119149416Y-79638176D01*
X119329969Y-79483969D01*
X119484176Y-79303416D01*
X119486755Y-79299208D01*
X119486759Y-79299202D01*
X119605654Y-79105183D01*
X119608240Y-79100963D01*
X119625194Y-79060034D01*
X119697211Y-78886167D01*
X119697212Y-78886165D01*
X119699105Y-78881594D01*
X119731347Y-78747297D01*
X119753380Y-78655524D01*
X119753381Y-78655518D01*
X119754535Y-78650711D01*
X119773165Y-78414000D01*
X119754535Y-78177289D01*
X119750070Y-78158687D01*
X119700260Y-77951218D01*
X119699105Y-77946406D01*
X119697211Y-77941833D01*
X119610135Y-77731611D01*
X119610133Y-77731607D01*
X119608240Y-77727037D01*
X119575504Y-77673617D01*
X119486759Y-77528798D01*
X119486755Y-77528792D01*
X119484176Y-77524584D01*
X119329969Y-77344031D01*
X119149416Y-77189824D01*
X119145208Y-77187245D01*
X119145202Y-77187241D01*
X118951183Y-77068346D01*
X118946963Y-77065760D01*
X118942393Y-77063867D01*
X118942389Y-77063865D01*
X118732167Y-76976789D01*
X118732165Y-76976788D01*
X118727594Y-76974895D01*
X118647391Y-76955640D01*
X118501524Y-76920620D01*
X118501518Y-76920619D01*
X118496711Y-76919465D01*
X118260000Y-76900835D01*
X118023289Y-76919465D01*
X118018482Y-76920619D01*
X118018476Y-76920620D01*
X117872609Y-76955640D01*
X117792406Y-76974895D01*
X117787835Y-76976788D01*
X117787833Y-76976789D01*
X117577611Y-77063865D01*
X117577607Y-77063867D01*
X117573037Y-77065760D01*
X117568817Y-77068346D01*
X117374798Y-77187241D01*
X117374792Y-77187245D01*
X117370584Y-77189824D01*
X117190031Y-77344031D01*
X117035824Y-77524584D01*
X117033245Y-77528792D01*
X117033241Y-77528798D01*
X116915867Y-77720335D01*
X116863219Y-77767966D01*
X116808434Y-77780500D01*
X113211566Y-77780500D01*
X113143445Y-77760498D01*
X113104133Y-77720335D01*
X112986759Y-77528798D01*
X112986755Y-77528792D01*
X112984176Y-77524584D01*
X112829969Y-77344031D01*
X112649416Y-77189824D01*
X112645208Y-77187245D01*
X112645202Y-77187241D01*
X112451183Y-77068346D01*
X112446963Y-77065760D01*
X112442393Y-77063867D01*
X112442389Y-77063865D01*
X112232167Y-76976789D01*
X112232165Y-76976788D01*
X112227594Y-76974895D01*
X112147391Y-76955640D01*
X112001524Y-76920620D01*
X112001518Y-76920619D01*
X111996711Y-76919465D01*
X111760000Y-76900835D01*
X111523289Y-76919465D01*
X111518482Y-76920619D01*
X111518476Y-76920620D01*
X111372609Y-76955640D01*
X111292406Y-76974895D01*
X111287835Y-76976788D01*
X111287833Y-76976789D01*
X111077611Y-77063865D01*
X111077607Y-77063867D01*
X111073037Y-77065760D01*
X111068817Y-77068346D01*
X110874798Y-77187241D01*
X110874792Y-77187245D01*
X110870584Y-77189824D01*
X110690031Y-77344031D01*
X110535824Y-77524584D01*
X110533245Y-77528792D01*
X110533241Y-77528798D01*
X110444496Y-77673617D01*
X110411760Y-77727037D01*
X110409867Y-77731607D01*
X110409865Y-77731611D01*
X110322789Y-77941833D01*
X110320895Y-77946406D01*
X110319740Y-77951218D01*
X110269931Y-78158687D01*
X110265465Y-78177289D01*
X110246835Y-78414000D01*
X108075500Y-78414000D01*
X108075500Y-77156524D01*
X108095502Y-77088403D01*
X108107858Y-77072221D01*
X108181040Y-76990944D01*
X108276527Y-76825556D01*
X108335542Y-76643928D01*
X108340435Y-76597379D01*
X108354814Y-76460565D01*
X108355504Y-76454000D01*
X108341305Y-76318907D01*
X108336232Y-76270635D01*
X108336232Y-76270633D01*
X108335542Y-76264072D01*
X108276527Y-76082444D01*
X108181040Y-75917056D01*
X108053253Y-75775134D01*
X107898752Y-75662882D01*
X107892724Y-75660198D01*
X107892722Y-75660197D01*
X107730319Y-75587891D01*
X107730318Y-75587891D01*
X107724288Y-75585206D01*
X107630887Y-75565353D01*
X107543944Y-75546872D01*
X107543939Y-75546872D01*
X107537487Y-75545500D01*
X107346513Y-75545500D01*
X107340061Y-75546872D01*
X107340056Y-75546872D01*
X107253113Y-75565353D01*
X107159712Y-75585206D01*
X107153682Y-75587891D01*
X107153681Y-75587891D01*
X106991278Y-75660197D01*
X106991276Y-75660198D01*
X106985248Y-75662882D01*
X106927173Y-75705076D01*
X106860308Y-75728933D01*
X106791156Y-75712853D01*
X106741676Y-75661940D01*
X106735961Y-75649520D01*
X106731552Y-75638383D01*
X106705571Y-75602623D01*
X106699053Y-75592701D01*
X106680578Y-75561460D01*
X106680574Y-75561455D01*
X106676542Y-75554637D01*
X106662218Y-75540313D01*
X106649376Y-75525278D01*
X106646778Y-75521702D01*
X106637472Y-75508893D01*
X106619574Y-75494086D01*
X106579836Y-75435255D01*
X106574579Y-75410172D01*
X106568653Y-75353783D01*
X106559183Y-75263687D01*
X106558232Y-75254635D01*
X106558232Y-75254633D01*
X106557542Y-75248072D01*
X106524594Y-75146670D01*
X110892160Y-75146670D01*
X110897887Y-75154320D01*
X111069042Y-75259205D01*
X111077837Y-75263687D01*
X111287988Y-75350734D01*
X111297373Y-75353783D01*
X111518554Y-75406885D01*
X111528301Y-75408428D01*
X111755070Y-75426275D01*
X111764930Y-75426275D01*
X111991699Y-75408428D01*
X112001446Y-75406885D01*
X112222627Y-75353783D01*
X112232012Y-75350734D01*
X112442163Y-75263687D01*
X112450958Y-75259205D01*
X112618445Y-75156568D01*
X112627400Y-75146670D01*
X117392160Y-75146670D01*
X117397887Y-75154320D01*
X117569042Y-75259205D01*
X117577837Y-75263687D01*
X117787988Y-75350734D01*
X117797373Y-75353783D01*
X118018554Y-75406885D01*
X118028301Y-75408428D01*
X118255070Y-75426275D01*
X118264930Y-75426275D01*
X118491699Y-75408428D01*
X118501446Y-75406885D01*
X118722627Y-75353783D01*
X118732012Y-75350734D01*
X118942163Y-75263687D01*
X118950958Y-75259205D01*
X119118445Y-75156568D01*
X119127907Y-75146110D01*
X119124124Y-75137334D01*
X118272812Y-74286022D01*
X118258868Y-74278408D01*
X118257035Y-74278539D01*
X118250420Y-74282790D01*
X117398920Y-75134290D01*
X117392160Y-75146670D01*
X112627400Y-75146670D01*
X112627907Y-75146110D01*
X112624124Y-75137334D01*
X111772812Y-74286022D01*
X111758868Y-74278408D01*
X111757035Y-74278539D01*
X111750420Y-74282790D01*
X110898920Y-75134290D01*
X110892160Y-75146670D01*
X106524594Y-75146670D01*
X106498527Y-75066444D01*
X106489119Y-75050148D01*
X106417125Y-74925452D01*
X106403040Y-74901056D01*
X106335098Y-74825598D01*
X106279675Y-74764045D01*
X106279674Y-74764044D01*
X106275253Y-74759134D01*
X106120752Y-74646882D01*
X106114724Y-74644198D01*
X106114722Y-74644197D01*
X105952319Y-74571891D01*
X105952318Y-74571891D01*
X105946288Y-74569206D01*
X105852887Y-74549353D01*
X105765944Y-74530872D01*
X105765939Y-74530872D01*
X105759487Y-74529500D01*
X105568513Y-74529500D01*
X105562061Y-74530872D01*
X105562056Y-74530872D01*
X105475113Y-74549353D01*
X105381712Y-74569206D01*
X105375682Y-74571891D01*
X105375681Y-74571891D01*
X105213278Y-74644197D01*
X105213276Y-74644198D01*
X105207248Y-74646882D01*
X105052747Y-74759134D01*
X105048326Y-74764044D01*
X105048325Y-74764045D01*
X104992903Y-74825598D01*
X104924960Y-74901056D01*
X104910875Y-74925452D01*
X104838882Y-75050148D01*
X104829473Y-75066444D01*
X104770458Y-75248072D01*
X104769768Y-75254633D01*
X104769768Y-75254635D01*
X104768817Y-75263687D01*
X104750496Y-75438000D01*
X102591500Y-75438000D01*
X102591500Y-73918930D01*
X110247725Y-73918930D01*
X110265572Y-74145699D01*
X110267115Y-74155446D01*
X110320217Y-74376627D01*
X110323266Y-74386012D01*
X110410313Y-74596163D01*
X110414795Y-74604958D01*
X110517432Y-74772445D01*
X110527890Y-74781907D01*
X110536666Y-74778124D01*
X111387978Y-73926812D01*
X111394356Y-73915132D01*
X112124408Y-73915132D01*
X112124539Y-73916965D01*
X112128790Y-73923580D01*
X112980290Y-74775080D01*
X112992670Y-74781840D01*
X113000320Y-74776113D01*
X113105205Y-74604958D01*
X113109687Y-74596163D01*
X113196734Y-74386012D01*
X113199783Y-74376627D01*
X113252885Y-74155446D01*
X113254428Y-74145699D01*
X113272275Y-73918930D01*
X116747725Y-73918930D01*
X116765572Y-74145699D01*
X116767115Y-74155446D01*
X116820217Y-74376627D01*
X116823266Y-74386012D01*
X116910313Y-74596163D01*
X116914795Y-74604958D01*
X117017432Y-74772445D01*
X117027890Y-74781907D01*
X117036666Y-74778124D01*
X117887978Y-73926812D01*
X117894356Y-73915132D01*
X118624408Y-73915132D01*
X118624539Y-73916965D01*
X118628790Y-73923580D01*
X119480290Y-74775080D01*
X119492670Y-74781840D01*
X119500320Y-74776113D01*
X119605205Y-74604958D01*
X119609687Y-74596163D01*
X119696734Y-74386012D01*
X119699783Y-74376627D01*
X119752885Y-74155446D01*
X119754428Y-74145699D01*
X119772275Y-73918930D01*
X119772275Y-73909070D01*
X119754428Y-73682301D01*
X119752885Y-73672554D01*
X119699783Y-73451373D01*
X119696734Y-73441988D01*
X119609687Y-73231837D01*
X119605205Y-73223042D01*
X119502568Y-73055555D01*
X119492110Y-73046093D01*
X119483334Y-73049876D01*
X118632022Y-73901188D01*
X118624408Y-73915132D01*
X117894356Y-73915132D01*
X117895592Y-73912868D01*
X117895461Y-73911035D01*
X117891210Y-73904420D01*
X117039710Y-73052920D01*
X117027330Y-73046160D01*
X117019680Y-73051887D01*
X116914795Y-73223042D01*
X116910313Y-73231837D01*
X116823266Y-73441988D01*
X116820217Y-73451373D01*
X116767115Y-73672554D01*
X116765572Y-73682301D01*
X116747725Y-73909070D01*
X116747725Y-73918930D01*
X113272275Y-73918930D01*
X113272275Y-73909070D01*
X113254428Y-73682301D01*
X113252885Y-73672554D01*
X113199783Y-73451373D01*
X113196734Y-73441988D01*
X113109687Y-73231837D01*
X113105205Y-73223042D01*
X113002568Y-73055555D01*
X112992110Y-73046093D01*
X112983334Y-73049876D01*
X112132022Y-73901188D01*
X112124408Y-73915132D01*
X111394356Y-73915132D01*
X111395592Y-73912868D01*
X111395461Y-73911035D01*
X111391210Y-73904420D01*
X110539710Y-73052920D01*
X110527330Y-73046160D01*
X110519680Y-73051887D01*
X110414795Y-73223042D01*
X110410313Y-73231837D01*
X110323266Y-73441988D01*
X110320217Y-73451373D01*
X110267115Y-73672554D01*
X110265572Y-73682301D01*
X110247725Y-73909070D01*
X110247725Y-73918930D01*
X102591500Y-73918930D01*
X102591500Y-73370631D01*
X102611502Y-73302510D01*
X102665158Y-73256017D01*
X102735432Y-73245913D01*
X102770749Y-73256436D01*
X102923757Y-73327784D01*
X102929065Y-73329206D01*
X102929067Y-73329207D01*
X103139598Y-73385619D01*
X103139600Y-73385619D01*
X103144913Y-73387043D01*
X103373000Y-73406998D01*
X103601087Y-73387043D01*
X103606400Y-73385619D01*
X103606402Y-73385619D01*
X103816933Y-73329207D01*
X103816935Y-73329206D01*
X103822243Y-73327784D01*
X103833247Y-73322653D01*
X104024762Y-73233349D01*
X104024767Y-73233346D01*
X104029749Y-73231023D01*
X104201221Y-73110957D01*
X104212789Y-73102857D01*
X104212792Y-73102855D01*
X104217300Y-73099698D01*
X104379198Y-72937800D01*
X104384049Y-72930873D01*
X104483881Y-72788297D01*
X104510523Y-72750249D01*
X104512846Y-72745267D01*
X104512849Y-72745262D01*
X104542400Y-72681890D01*
X110892093Y-72681890D01*
X110895876Y-72690666D01*
X111747188Y-73541978D01*
X111761132Y-73549592D01*
X111762965Y-73549461D01*
X111769580Y-73545210D01*
X112621080Y-72693710D01*
X112627534Y-72681890D01*
X117392093Y-72681890D01*
X117395876Y-72690666D01*
X118247188Y-73541978D01*
X118261132Y-73549592D01*
X118262965Y-73549461D01*
X118269580Y-73545210D01*
X119121080Y-72693710D01*
X119127840Y-72681330D01*
X119122113Y-72673680D01*
X118950958Y-72568795D01*
X118942163Y-72564313D01*
X118732012Y-72477266D01*
X118722627Y-72474217D01*
X118501446Y-72421115D01*
X118491699Y-72419572D01*
X118264930Y-72401725D01*
X118255070Y-72401725D01*
X118028301Y-72419572D01*
X118018554Y-72421115D01*
X117797373Y-72474217D01*
X117787988Y-72477266D01*
X117577837Y-72564313D01*
X117569042Y-72568795D01*
X117401555Y-72671432D01*
X117392093Y-72681890D01*
X112627534Y-72681890D01*
X112627840Y-72681330D01*
X112622113Y-72673680D01*
X112450958Y-72568795D01*
X112442163Y-72564313D01*
X112232012Y-72477266D01*
X112222627Y-72474217D01*
X112001446Y-72421115D01*
X111991699Y-72419572D01*
X111764930Y-72401725D01*
X111755070Y-72401725D01*
X111528301Y-72419572D01*
X111518554Y-72421115D01*
X111297373Y-72474217D01*
X111287988Y-72477266D01*
X111077837Y-72564313D01*
X111069042Y-72568795D01*
X110901555Y-72671432D01*
X110892093Y-72681890D01*
X104542400Y-72681890D01*
X104604961Y-72547725D01*
X104604961Y-72547724D01*
X104607284Y-72542743D01*
X104611695Y-72526283D01*
X104665119Y-72326902D01*
X104665119Y-72326900D01*
X104666543Y-72321587D01*
X104686498Y-72093500D01*
X104666543Y-71865413D01*
X104607284Y-71644257D01*
X104584515Y-71595428D01*
X104512849Y-71441738D01*
X104512846Y-71441733D01*
X104510523Y-71436751D01*
X104438345Y-71333670D01*
X188463160Y-71333670D01*
X188468887Y-71341320D01*
X188640042Y-71446205D01*
X188648837Y-71450687D01*
X188858988Y-71537734D01*
X188868373Y-71540783D01*
X189089554Y-71593885D01*
X189099301Y-71595428D01*
X189326070Y-71613275D01*
X189335930Y-71613275D01*
X189562699Y-71595428D01*
X189572446Y-71593885D01*
X189793627Y-71540783D01*
X189803012Y-71537734D01*
X190013163Y-71450687D01*
X190021958Y-71446205D01*
X190189445Y-71343568D01*
X190198907Y-71333110D01*
X190195124Y-71324334D01*
X189343812Y-70473022D01*
X189329868Y-70465408D01*
X189328035Y-70465539D01*
X189321420Y-70469790D01*
X188469920Y-71321290D01*
X188463160Y-71333670D01*
X104438345Y-71333670D01*
X104379198Y-71249200D01*
X104217300Y-71087302D01*
X104212792Y-71084145D01*
X104212789Y-71084143D01*
X104052946Y-70972220D01*
X104029749Y-70955977D01*
X104024767Y-70953654D01*
X104024762Y-70953651D01*
X103827225Y-70861539D01*
X103827224Y-70861539D01*
X103822243Y-70859216D01*
X103816935Y-70857794D01*
X103816933Y-70857793D01*
X103606402Y-70801381D01*
X103606400Y-70801381D01*
X103601087Y-70799957D01*
X103373000Y-70780002D01*
X103144913Y-70799957D01*
X103139600Y-70801381D01*
X103139598Y-70801381D01*
X102929067Y-70857793D01*
X102929065Y-70857794D01*
X102923757Y-70859216D01*
X102918776Y-70861539D01*
X102918775Y-70861539D01*
X102770750Y-70930564D01*
X102700558Y-70941225D01*
X102635745Y-70912245D01*
X102596889Y-70852825D01*
X102591500Y-70816369D01*
X102591500Y-70087801D01*
X102611502Y-70019680D01*
X102660296Y-69975535D01*
X102678780Y-69966117D01*
X102826166Y-69846766D01*
X102887849Y-69770594D01*
X102941361Y-69704513D01*
X102941364Y-69704509D01*
X102945517Y-69699380D01*
X102948732Y-69693070D01*
X102948924Y-69692866D01*
X102952114Y-69687955D01*
X102953012Y-69688538D01*
X102997480Y-69641454D01*
X103066394Y-69624387D01*
X103133596Y-69647287D01*
X103169214Y-69688391D01*
X103169886Y-69687955D01*
X103173028Y-69692793D01*
X103173268Y-69693070D01*
X103176483Y-69699380D01*
X103180636Y-69704509D01*
X103180639Y-69704513D01*
X103234151Y-69770594D01*
X103295834Y-69846766D01*
X103300965Y-69850921D01*
X103438087Y-69961961D01*
X103438091Y-69961964D01*
X103443220Y-69966117D01*
X103449098Y-69969112D01*
X103449101Y-69969114D01*
X103526194Y-70008395D01*
X103612199Y-70052216D01*
X103618572Y-70053924D01*
X103618573Y-70053924D01*
X103789810Y-70099807D01*
X103789814Y-70099808D01*
X103795387Y-70101301D01*
X103801143Y-70101754D01*
X103871695Y-70107307D01*
X103871702Y-70107307D01*
X103874151Y-70107500D01*
X104330815Y-70107500D01*
X104787848Y-70107499D01*
X104836795Y-70103647D01*
X104860859Y-70101754D01*
X104860861Y-70101754D01*
X104866613Y-70101301D01*
X105049801Y-70052216D01*
X105135806Y-70008395D01*
X105212899Y-69969114D01*
X105212902Y-69969112D01*
X105218780Y-69966117D01*
X105223909Y-69961964D01*
X105223913Y-69961961D01*
X105361035Y-69850921D01*
X105366166Y-69846766D01*
X105427849Y-69770594D01*
X105481361Y-69704513D01*
X105481364Y-69704509D01*
X105485517Y-69699380D01*
X105488732Y-69693070D01*
X105488924Y-69692866D01*
X105492114Y-69687955D01*
X105493012Y-69688538D01*
X105537480Y-69641454D01*
X105606394Y-69624387D01*
X105673596Y-69647287D01*
X105709214Y-69688391D01*
X105709886Y-69687955D01*
X105713028Y-69692793D01*
X105713268Y-69693070D01*
X105716483Y-69699380D01*
X105720636Y-69704509D01*
X105720639Y-69704513D01*
X105774151Y-69770594D01*
X105835834Y-69846766D01*
X105840965Y-69850921D01*
X105978087Y-69961961D01*
X105978091Y-69961964D01*
X105983220Y-69966117D01*
X105989098Y-69969112D01*
X105989101Y-69969114D01*
X106066194Y-70008395D01*
X106152199Y-70052216D01*
X106158572Y-70053924D01*
X106158573Y-70053924D01*
X106329810Y-70099807D01*
X106329814Y-70099808D01*
X106335387Y-70101301D01*
X106341143Y-70101754D01*
X106411695Y-70107307D01*
X106411702Y-70107307D01*
X106414151Y-70107500D01*
X106870815Y-70107500D01*
X107327848Y-70107499D01*
X107376795Y-70103647D01*
X107400859Y-70101754D01*
X107400861Y-70101754D01*
X107406613Y-70101301D01*
X107589801Y-70052216D01*
X107675806Y-70008395D01*
X107752899Y-69969114D01*
X107752902Y-69969112D01*
X107758780Y-69966117D01*
X107763909Y-69961964D01*
X107763913Y-69961961D01*
X107901035Y-69850921D01*
X107906166Y-69846766D01*
X108025517Y-69699380D01*
X108028518Y-69693490D01*
X108030447Y-69690520D01*
X108084324Y-69644284D01*
X108154646Y-69634516D01*
X108219085Y-69664316D01*
X108241788Y-69690516D01*
X108241874Y-69690649D01*
X108244871Y-69696530D01*
X108249026Y-69701661D01*
X108249028Y-69701664D01*
X108294976Y-69758405D01*
X108365055Y-69844945D01*
X108370186Y-69849100D01*
X108508337Y-69960973D01*
X108508341Y-69960976D01*
X108513470Y-69965129D01*
X108519347Y-69968124D01*
X108519351Y-69968126D01*
X108673494Y-70046665D01*
X108683629Y-70051829D01*
X108690002Y-70053537D01*
X108690003Y-70053537D01*
X108862519Y-70099763D01*
X108862523Y-70099764D01*
X108868096Y-70101257D01*
X108873852Y-70101710D01*
X108944963Y-70107307D01*
X108944970Y-70107307D01*
X108947419Y-70107500D01*
X109410812Y-70107500D01*
X109874580Y-70107499D01*
X109894517Y-70105930D01*
X187818725Y-70105930D01*
X187836572Y-70332699D01*
X187838115Y-70342446D01*
X187891217Y-70563627D01*
X187894266Y-70573012D01*
X187981313Y-70783163D01*
X187985795Y-70791958D01*
X188088432Y-70959445D01*
X188098890Y-70968907D01*
X188107666Y-70965124D01*
X188958978Y-70113812D01*
X188966592Y-70099868D01*
X188966461Y-70098035D01*
X188962210Y-70091420D01*
X188110710Y-69239920D01*
X188098330Y-69233160D01*
X188090680Y-69238887D01*
X187985795Y-69410042D01*
X187981313Y-69418837D01*
X187894266Y-69628988D01*
X187891217Y-69638373D01*
X187838115Y-69859554D01*
X187836572Y-69869301D01*
X187818725Y-70096070D01*
X187818725Y-70105930D01*
X109894517Y-70105930D01*
X109923947Y-70103614D01*
X109948150Y-70101710D01*
X109948152Y-70101710D01*
X109953904Y-70101257D01*
X110076246Y-70068475D01*
X110131997Y-70053537D01*
X110131998Y-70053537D01*
X110138371Y-70051829D01*
X110148506Y-70046665D01*
X110302649Y-69968126D01*
X110302653Y-69968124D01*
X110308530Y-69965129D01*
X110313659Y-69960976D01*
X110313663Y-69960973D01*
X110451814Y-69849100D01*
X110456945Y-69844945D01*
X110490767Y-69803178D01*
X110572973Y-69701663D01*
X110572976Y-69701659D01*
X110577129Y-69696530D01*
X110580192Y-69690520D01*
X110660833Y-69532251D01*
X110663829Y-69526371D01*
X110690157Y-69428114D01*
X110711763Y-69347481D01*
X110711764Y-69347477D01*
X110713257Y-69341904D01*
X110714861Y-69321524D01*
X110719307Y-69265037D01*
X110719307Y-69265030D01*
X110719500Y-69262581D01*
X110719500Y-68538196D01*
X110739502Y-68470075D01*
X110793158Y-68423582D01*
X110863432Y-68413478D01*
X110928012Y-68442972D01*
X110943420Y-68458902D01*
X111000914Y-68529901D01*
X111000918Y-68529905D01*
X111005069Y-68535031D01*
X111010195Y-68539182D01*
X111093894Y-68606960D01*
X111153492Y-68655222D01*
X111323661Y-68741927D01*
X111330034Y-68743635D01*
X111330035Y-68743635D01*
X111375417Y-68755795D01*
X111508139Y-68791358D01*
X111513893Y-68791811D01*
X111513894Y-68791811D01*
X111584996Y-68797407D01*
X111585007Y-68797407D01*
X111587454Y-68797600D01*
X113514546Y-68797600D01*
X113516993Y-68797407D01*
X113517004Y-68797407D01*
X113588106Y-68791811D01*
X113588107Y-68791811D01*
X113593861Y-68791358D01*
X113726584Y-68755795D01*
X113771965Y-68743635D01*
X113771966Y-68743635D01*
X113778339Y-68741927D01*
X113948508Y-68655222D01*
X114008107Y-68606960D01*
X114091805Y-68539182D01*
X114096931Y-68535031D01*
X114149532Y-68470075D01*
X114212968Y-68391738D01*
X114212969Y-68391737D01*
X114217122Y-68386608D01*
X114303827Y-68216439D01*
X114305545Y-68210026D01*
X114351764Y-68037537D01*
X114351764Y-68037536D01*
X114353258Y-68031961D01*
X114359500Y-67952646D01*
X114359500Y-67025354D01*
X114353258Y-66946039D01*
X114342298Y-66905134D01*
X114305535Y-66767935D01*
X114305534Y-66767933D01*
X114303827Y-66761561D01*
X114217122Y-66591392D01*
X114182616Y-66548780D01*
X114101082Y-66448095D01*
X114096931Y-66442969D01*
X113948508Y-66322778D01*
X113948519Y-66322764D01*
X113903920Y-66270793D01*
X113894153Y-66200472D01*
X113923955Y-66136033D01*
X113947206Y-66115886D01*
X113948508Y-66115222D01*
X114096931Y-65995031D01*
X114163119Y-65913296D01*
X114212968Y-65851738D01*
X114212969Y-65851737D01*
X114217122Y-65846608D01*
X114303827Y-65676439D01*
X114353258Y-65491961D01*
X114359500Y-65412646D01*
X114359500Y-64485354D01*
X114353258Y-64406039D01*
X114303827Y-64221561D01*
X114217122Y-64051392D01*
X114132580Y-63946991D01*
X114101082Y-63908095D01*
X114101081Y-63908094D01*
X114096931Y-63902969D01*
X113948508Y-63782778D01*
X113948519Y-63782764D01*
X113903920Y-63730793D01*
X113894153Y-63660472D01*
X113923955Y-63596033D01*
X113947206Y-63575886D01*
X113948508Y-63575222D01*
X114096931Y-63455031D01*
X114131005Y-63412953D01*
X114212968Y-63311738D01*
X114212969Y-63311737D01*
X114217122Y-63306608D01*
X114303827Y-63136439D01*
X114353258Y-62951961D01*
X114359500Y-62872646D01*
X114359500Y-61945354D01*
X114353258Y-61866039D01*
X114303827Y-61681561D01*
X114217122Y-61511392D01*
X114132580Y-61406991D01*
X114101082Y-61368095D01*
X114101081Y-61368094D01*
X114096931Y-61362969D01*
X113948508Y-61242778D01*
X113948519Y-61242764D01*
X113903920Y-61190793D01*
X113894153Y-61120472D01*
X113923955Y-61056033D01*
X113947206Y-61035886D01*
X113948508Y-61035222D01*
X114096931Y-60915031D01*
X114124532Y-60880947D01*
X114212968Y-60771738D01*
X114212969Y-60771737D01*
X114217122Y-60766608D01*
X114303827Y-60596439D01*
X114313914Y-60558794D01*
X114351764Y-60417537D01*
X114351764Y-60417536D01*
X114353258Y-60411961D01*
X114356344Y-60372749D01*
X114359307Y-60335104D01*
X114359307Y-60335093D01*
X114359500Y-60332646D01*
X114359500Y-59405354D01*
X114353258Y-59326039D01*
X114349690Y-59312721D01*
X114305535Y-59147935D01*
X114305535Y-59147934D01*
X114303827Y-59141561D01*
X114217122Y-58971392D01*
X114132580Y-58866991D01*
X114101082Y-58828095D01*
X114101081Y-58828094D01*
X114096931Y-58822969D01*
X113948508Y-58702778D01*
X113948500Y-58702774D01*
X113903858Y-58650750D01*
X113894092Y-58580428D01*
X113923896Y-58515990D01*
X113947176Y-58495819D01*
X113948530Y-58495129D01*
X114096945Y-58374945D01*
X114132524Y-58331009D01*
X114212973Y-58231663D01*
X114212976Y-58231659D01*
X114217129Y-58226530D01*
X114279859Y-58103416D01*
X114300833Y-58062251D01*
X114303829Y-58056371D01*
X114318922Y-58000045D01*
X114351763Y-57877481D01*
X114351764Y-57877477D01*
X114353257Y-57871904D01*
X114358295Y-57807891D01*
X114359307Y-57795037D01*
X114359307Y-57795030D01*
X114359500Y-57792581D01*
X114359499Y-56865420D01*
X114353257Y-56786096D01*
X114303829Y-56601629D01*
X114217129Y-56431470D01*
X114212976Y-56426341D01*
X114212973Y-56426337D01*
X114101100Y-56288186D01*
X114096945Y-56283055D01*
X114054892Y-56249001D01*
X113953663Y-56167027D01*
X113953659Y-56167024D01*
X113948530Y-56162871D01*
X113948458Y-56162834D01*
X113903798Y-56110792D01*
X113894031Y-56040470D01*
X113923833Y-55976032D01*
X113947139Y-55955838D01*
X113948530Y-55955129D01*
X113953659Y-55950976D01*
X113953663Y-55950973D01*
X114091814Y-55839100D01*
X114096945Y-55834945D01*
X114132524Y-55791009D01*
X114212973Y-55691663D01*
X114212976Y-55691659D01*
X114217129Y-55686530D01*
X114303829Y-55516371D01*
X114353257Y-55331904D01*
X114359500Y-55252581D01*
X114359499Y-54325420D01*
X114353257Y-54246096D01*
X114303829Y-54061629D01*
X114217129Y-53891470D01*
X114212976Y-53886341D01*
X114212973Y-53886337D01*
X114101100Y-53748186D01*
X114096945Y-53743055D01*
X114054892Y-53709001D01*
X113953663Y-53627027D01*
X113953659Y-53627024D01*
X113948530Y-53622871D01*
X113948458Y-53622834D01*
X113903798Y-53570792D01*
X113894031Y-53500470D01*
X113923833Y-53436032D01*
X113947139Y-53415838D01*
X113948530Y-53415129D01*
X113953659Y-53410976D01*
X113953663Y-53410973D01*
X114091814Y-53299100D01*
X114096945Y-53294945D01*
X114132524Y-53251009D01*
X114212973Y-53151663D01*
X114212976Y-53151659D01*
X114217129Y-53146530D01*
X114303829Y-52976371D01*
X114353257Y-52791904D01*
X114357501Y-52737984D01*
X114359307Y-52715037D01*
X114359307Y-52715030D01*
X114359500Y-52712581D01*
X114359499Y-51785420D01*
X114353257Y-51706096D01*
X114303829Y-51521629D01*
X114217129Y-51351470D01*
X114212976Y-51346341D01*
X114212973Y-51346337D01*
X114101100Y-51208186D01*
X114096945Y-51203055D01*
X114054892Y-51169001D01*
X113953663Y-51087027D01*
X113953659Y-51087024D01*
X113948530Y-51082871D01*
X113948458Y-51082834D01*
X113903798Y-51030792D01*
X113894031Y-50960470D01*
X113923833Y-50896032D01*
X113947139Y-50875838D01*
X113948530Y-50875129D01*
X113953659Y-50870976D01*
X113953663Y-50870973D01*
X114091814Y-50759100D01*
X114096945Y-50754945D01*
X114133168Y-50710213D01*
X114212973Y-50611663D01*
X114212976Y-50611659D01*
X114217129Y-50606530D01*
X114220226Y-50600453D01*
X114300833Y-50442251D01*
X114303829Y-50436371D01*
X114311223Y-50408776D01*
X114351763Y-50257481D01*
X114351764Y-50257477D01*
X114353257Y-50251904D01*
X114359500Y-50172581D01*
X114359499Y-49245420D01*
X114355614Y-49196053D01*
X114353710Y-49171850D01*
X114353710Y-49171848D01*
X114353257Y-49166096D01*
X114303829Y-48981629D01*
X114300484Y-48975064D01*
X114220126Y-48817351D01*
X114220124Y-48817347D01*
X114217129Y-48811470D01*
X114212976Y-48806341D01*
X114212973Y-48806337D01*
X114101100Y-48668186D01*
X114096945Y-48663055D01*
X114054263Y-48628492D01*
X113953663Y-48547027D01*
X113953659Y-48547024D01*
X113948530Y-48542871D01*
X113948458Y-48542834D01*
X113903798Y-48490792D01*
X113894031Y-48420470D01*
X113923833Y-48356032D01*
X113947139Y-48335838D01*
X113948530Y-48335129D01*
X113953659Y-48330976D01*
X113953663Y-48330973D01*
X114091814Y-48219100D01*
X114096945Y-48214945D01*
X114132524Y-48171009D01*
X114212973Y-48071663D01*
X114212976Y-48071659D01*
X114217129Y-48066530D01*
X114303829Y-47896371D01*
X114353257Y-47711904D01*
X114357501Y-47657984D01*
X114359307Y-47635037D01*
X114359307Y-47635030D01*
X114359500Y-47632581D01*
X114359499Y-46705420D01*
X114353257Y-46626096D01*
X114303829Y-46441629D01*
X114288581Y-46411703D01*
X114275477Y-46341926D01*
X114302177Y-46276141D01*
X114360205Y-46235235D01*
X114400848Y-46228500D01*
X191390000Y-46228500D01*
X191458121Y-46248502D01*
X191504614Y-46302158D01*
X191516000Y-46354500D01*
X191516000Y-68141905D01*
X191495998Y-68210026D01*
X191442342Y-68256519D01*
X191372068Y-68266623D01*
X191307488Y-68237129D01*
X191300905Y-68231000D01*
X190001405Y-66931500D01*
X189967379Y-66869188D01*
X189964500Y-66842405D01*
X189964500Y-56745500D01*
X189984502Y-56677379D01*
X190038158Y-56630886D01*
X190090500Y-56619500D01*
X190379134Y-56619500D01*
X190441316Y-56612745D01*
X190577705Y-56561615D01*
X190694261Y-56474261D01*
X190781615Y-56357705D01*
X190832745Y-56221316D01*
X190839500Y-56159134D01*
X190839500Y-54062866D01*
X190832745Y-54000684D01*
X190781615Y-53864295D01*
X190694261Y-53747739D01*
X190577705Y-53660385D01*
X190441316Y-53609255D01*
X190379134Y-53602500D01*
X188282866Y-53602500D01*
X188220684Y-53609255D01*
X188084295Y-53660385D01*
X187967739Y-53747739D01*
X187880385Y-53864295D01*
X187829255Y-54000684D01*
X187822500Y-54062866D01*
X187822500Y-56159134D01*
X187829255Y-56221316D01*
X187880385Y-56357705D01*
X187967739Y-56474261D01*
X188084295Y-56561615D01*
X188220684Y-56612745D01*
X188282866Y-56619500D01*
X188571500Y-56619500D01*
X188639621Y-56639502D01*
X188686114Y-56693158D01*
X188697500Y-56745500D01*
X188697500Y-67078233D01*
X188696973Y-67089416D01*
X188695298Y-67096909D01*
X188695547Y-67104835D01*
X188695547Y-67104836D01*
X188697438Y-67164986D01*
X188697500Y-67168945D01*
X188697500Y-67196856D01*
X188697997Y-67200790D01*
X188697997Y-67200791D01*
X188698005Y-67200856D01*
X188698938Y-67212693D01*
X188700327Y-67256889D01*
X188705978Y-67276339D01*
X188709987Y-67295700D01*
X188712526Y-67315797D01*
X188715445Y-67323168D01*
X188715445Y-67323170D01*
X188728804Y-67356912D01*
X188732649Y-67368142D01*
X188744982Y-67410593D01*
X188749015Y-67417412D01*
X188749017Y-67417417D01*
X188755293Y-67428028D01*
X188763988Y-67445776D01*
X188771448Y-67464617D01*
X188776110Y-67471033D01*
X188776110Y-67471034D01*
X188797436Y-67500387D01*
X188803952Y-67510307D01*
X188826458Y-67548362D01*
X188840779Y-67562683D01*
X188853619Y-67577716D01*
X188865528Y-67594107D01*
X188871634Y-67599158D01*
X188899605Y-67622298D01*
X188908384Y-67630288D01*
X189671052Y-68392956D01*
X189705078Y-68455268D01*
X189700013Y-68526083D01*
X189657466Y-68582919D01*
X189590946Y-68607730D01*
X189567651Y-68606731D01*
X189567633Y-68606960D01*
X189335930Y-68588725D01*
X189326070Y-68588725D01*
X189099301Y-68606572D01*
X189089554Y-68608115D01*
X188868373Y-68661217D01*
X188858988Y-68664266D01*
X188648837Y-68751313D01*
X188640042Y-68755795D01*
X188472555Y-68858432D01*
X188463093Y-68868890D01*
X188466876Y-68877666D01*
X190551290Y-70962080D01*
X190563670Y-70968840D01*
X190571320Y-70963113D01*
X190676205Y-70791958D01*
X190680687Y-70783163D01*
X190767734Y-70573012D01*
X190770783Y-70563627D01*
X190823885Y-70342446D01*
X190825428Y-70332699D01*
X190843275Y-70105930D01*
X190843275Y-70096070D01*
X190825428Y-69869301D01*
X190823885Y-69859554D01*
X190810350Y-69803178D01*
X190813897Y-69732270D01*
X190855217Y-69674536D01*
X190921191Y-69648306D01*
X190993570Y-69663350D01*
X191013918Y-69674536D01*
X191026940Y-69681695D01*
X191034617Y-69683666D01*
X191034622Y-69683668D01*
X191046558Y-69686732D01*
X191065266Y-69693137D01*
X191083855Y-69701181D01*
X191091680Y-69702420D01*
X191091682Y-69702421D01*
X191127519Y-69708097D01*
X191139140Y-69710504D01*
X191174289Y-69719528D01*
X191181970Y-69721500D01*
X191202231Y-69721500D01*
X191221940Y-69723051D01*
X191241943Y-69726219D01*
X191249835Y-69725473D01*
X191255062Y-69724979D01*
X191285954Y-69722059D01*
X191297811Y-69721500D01*
X207965406Y-69721500D01*
X208033527Y-69741502D01*
X208054501Y-69758405D01*
X211710595Y-73414499D01*
X211744621Y-73476811D01*
X211747500Y-73503594D01*
X211747500Y-74319134D01*
X211754255Y-74381316D01*
X211805385Y-74517705D01*
X211892739Y-74634261D01*
X212009295Y-74721615D01*
X212017704Y-74724767D01*
X212017705Y-74724768D01*
X212126451Y-74765535D01*
X212183216Y-74808176D01*
X212207916Y-74874738D01*
X212192709Y-74944087D01*
X212173316Y-74970568D01*
X212075689Y-75072729D01*
X212046629Y-75103138D01*
X212043715Y-75107410D01*
X212043714Y-75107411D01*
X211931095Y-75272504D01*
X211876184Y-75317507D01*
X211827007Y-75327500D01*
X205294063Y-75327500D01*
X205225942Y-75307498D01*
X205179449Y-75253842D01*
X205169345Y-75183568D01*
X205198839Y-75118988D01*
X205220895Y-75098921D01*
X205266426Y-75066444D01*
X205376860Y-74987673D01*
X205535096Y-74829989D01*
X205665453Y-74648577D01*
X205672529Y-74634261D01*
X205762136Y-74452953D01*
X205762137Y-74452951D01*
X205764430Y-74448311D01*
X205829370Y-74234569D01*
X205858529Y-74013090D01*
X205860156Y-73946500D01*
X205841852Y-73723861D01*
X205787431Y-73507202D01*
X205698354Y-73302340D01*
X205647054Y-73223042D01*
X205579822Y-73119117D01*
X205579820Y-73119114D01*
X205577014Y-73114777D01*
X205426670Y-72949551D01*
X205422619Y-72946352D01*
X205422615Y-72946348D01*
X205255414Y-72814300D01*
X205255410Y-72814298D01*
X205251359Y-72811098D01*
X205210053Y-72788296D01*
X205160084Y-72737864D01*
X205145312Y-72668421D01*
X205170428Y-72602016D01*
X205197780Y-72575409D01*
X205266652Y-72526283D01*
X205376860Y-72447673D01*
X205401323Y-72423296D01*
X205507881Y-72317109D01*
X205535096Y-72289989D01*
X205665453Y-72108577D01*
X205672905Y-72093500D01*
X205762136Y-71912953D01*
X205762137Y-71912951D01*
X205764430Y-71908311D01*
X205829370Y-71694569D01*
X205858529Y-71473090D01*
X205858611Y-71469740D01*
X205860074Y-71409865D01*
X205860074Y-71409861D01*
X205860156Y-71406500D01*
X205841852Y-71183861D01*
X205787431Y-70967202D01*
X205698354Y-70762340D01*
X205577014Y-70574777D01*
X205426670Y-70409551D01*
X205422619Y-70406352D01*
X205422615Y-70406348D01*
X205255414Y-70274300D01*
X205255410Y-70274298D01*
X205251359Y-70271098D01*
X205055789Y-70163138D01*
X205050920Y-70161414D01*
X205050916Y-70161412D01*
X204850087Y-70090295D01*
X204850083Y-70090294D01*
X204845212Y-70088569D01*
X204840119Y-70087662D01*
X204840116Y-70087661D01*
X204630373Y-70050300D01*
X204630367Y-70050299D01*
X204625284Y-70049394D01*
X204551452Y-70048492D01*
X204407081Y-70046728D01*
X204407079Y-70046728D01*
X204401911Y-70046665D01*
X204181091Y-70080455D01*
X203968756Y-70149857D01*
X203770607Y-70253007D01*
X203766474Y-70256110D01*
X203766471Y-70256112D01*
X203742247Y-70274300D01*
X203591965Y-70387135D01*
X203588393Y-70390873D01*
X203517166Y-70465408D01*
X203437629Y-70548638D01*
X203330201Y-70706121D01*
X203275293Y-70751121D01*
X203204768Y-70759292D01*
X203141021Y-70728038D01*
X203120324Y-70703554D01*
X203039822Y-70579117D01*
X203039820Y-70579114D01*
X203037014Y-70574777D01*
X202886670Y-70409551D01*
X202882619Y-70406352D01*
X202882615Y-70406348D01*
X202715414Y-70274300D01*
X202715410Y-70274298D01*
X202711359Y-70271098D01*
X202515789Y-70163138D01*
X202510920Y-70161414D01*
X202510916Y-70161412D01*
X202310087Y-70090295D01*
X202310083Y-70090294D01*
X202305212Y-70088569D01*
X202300119Y-70087662D01*
X202300116Y-70087661D01*
X202090373Y-70050300D01*
X202090367Y-70050299D01*
X202085284Y-70049394D01*
X202011452Y-70048492D01*
X201867081Y-70046728D01*
X201867079Y-70046728D01*
X201861911Y-70046665D01*
X201641091Y-70080455D01*
X201428756Y-70149857D01*
X201230607Y-70253007D01*
X201226474Y-70256110D01*
X201226471Y-70256112D01*
X201202247Y-70274300D01*
X201051965Y-70387135D01*
X201048393Y-70390873D01*
X200977166Y-70465408D01*
X200897629Y-70548638D01*
X200790201Y-70706121D01*
X200735293Y-70751121D01*
X200664768Y-70759292D01*
X200601021Y-70728038D01*
X200580324Y-70703554D01*
X200499822Y-70579117D01*
X200499820Y-70579114D01*
X200497014Y-70574777D01*
X200346670Y-70409551D01*
X200342619Y-70406352D01*
X200342615Y-70406348D01*
X200175414Y-70274300D01*
X200175410Y-70274298D01*
X200171359Y-70271098D01*
X199975789Y-70163138D01*
X199970920Y-70161414D01*
X199970916Y-70161412D01*
X199770087Y-70090295D01*
X199770083Y-70090294D01*
X199765212Y-70088569D01*
X199760119Y-70087662D01*
X199760116Y-70087661D01*
X199550373Y-70050300D01*
X199550367Y-70050299D01*
X199545284Y-70049394D01*
X199471452Y-70048492D01*
X199327081Y-70046728D01*
X199327079Y-70046728D01*
X199321911Y-70046665D01*
X199101091Y-70080455D01*
X198888756Y-70149857D01*
X198690607Y-70253007D01*
X198686474Y-70256110D01*
X198686471Y-70256112D01*
X198662247Y-70274300D01*
X198511965Y-70387135D01*
X198508393Y-70390873D01*
X198437166Y-70465408D01*
X198357629Y-70548638D01*
X198250201Y-70706121D01*
X198195293Y-70751121D01*
X198124768Y-70759292D01*
X198061021Y-70728038D01*
X198040324Y-70703554D01*
X197959822Y-70579117D01*
X197959820Y-70579114D01*
X197957014Y-70574777D01*
X197806670Y-70409551D01*
X197802619Y-70406352D01*
X197802615Y-70406348D01*
X197635414Y-70274300D01*
X197635410Y-70274298D01*
X197631359Y-70271098D01*
X197435789Y-70163138D01*
X197430920Y-70161414D01*
X197430916Y-70161412D01*
X197230087Y-70090295D01*
X197230083Y-70090294D01*
X197225212Y-70088569D01*
X197220119Y-70087662D01*
X197220116Y-70087661D01*
X197010373Y-70050300D01*
X197010367Y-70050299D01*
X197005284Y-70049394D01*
X196931452Y-70048492D01*
X196787081Y-70046728D01*
X196787079Y-70046728D01*
X196781911Y-70046665D01*
X196561091Y-70080455D01*
X196348756Y-70149857D01*
X196150607Y-70253007D01*
X196146474Y-70256110D01*
X196146471Y-70256112D01*
X196122247Y-70274300D01*
X195971965Y-70387135D01*
X195968393Y-70390873D01*
X195897166Y-70465408D01*
X195817629Y-70548638D01*
X195691743Y-70733180D01*
X195676003Y-70767090D01*
X195600121Y-70930564D01*
X195597688Y-70935805D01*
X195537989Y-71151070D01*
X195514251Y-71373195D01*
X195514548Y-71378348D01*
X195514548Y-71378351D01*
X195521174Y-71493270D01*
X195505126Y-71562430D01*
X195484478Y-71589618D01*
X190659310Y-76414785D01*
X185956500Y-81117595D01*
X185894188Y-81151621D01*
X185867405Y-81154500D01*
X176100767Y-81154500D01*
X176089584Y-81153973D01*
X176082091Y-81152298D01*
X176074165Y-81152547D01*
X176074164Y-81152547D01*
X176014014Y-81154438D01*
X176010055Y-81154500D01*
X175982144Y-81154500D01*
X175978210Y-81154997D01*
X175978209Y-81154997D01*
X175978144Y-81155005D01*
X175966307Y-81155938D01*
X175934490Y-81156938D01*
X175930029Y-81157078D01*
X175922110Y-81157327D01*
X175904454Y-81162456D01*
X175902658Y-81162978D01*
X175883306Y-81166986D01*
X175876235Y-81167880D01*
X175863203Y-81169526D01*
X175855834Y-81172443D01*
X175855832Y-81172444D01*
X175822097Y-81185800D01*
X175810869Y-81189645D01*
X175768407Y-81201982D01*
X175761585Y-81206016D01*
X175761579Y-81206019D01*
X175750968Y-81212294D01*
X175733218Y-81220990D01*
X175721756Y-81225528D01*
X175721751Y-81225531D01*
X175714383Y-81228448D01*
X175707968Y-81233109D01*
X175678625Y-81254427D01*
X175668707Y-81260943D01*
X175654519Y-81269334D01*
X175630637Y-81283458D01*
X175616313Y-81297782D01*
X175601281Y-81310621D01*
X175584893Y-81322528D01*
X175561634Y-81350643D01*
X175556712Y-81356593D01*
X175548722Y-81365373D01*
X156379470Y-100534625D01*
X156317158Y-100568651D01*
X156290375Y-100571530D01*
X150123591Y-100571530D01*
X150103880Y-100569979D01*
X150095496Y-100568651D01*
X150083872Y-100566810D01*
X150075980Y-100567556D01*
X150039854Y-100570971D01*
X150027996Y-100571530D01*
X146516062Y-100571530D01*
X146447941Y-100551528D01*
X146408629Y-100511365D01*
X146403761Y-100503421D01*
X146288857Y-100315915D01*
X146134702Y-100135423D01*
X146036044Y-100051161D01*
X145997235Y-99991711D01*
X145996729Y-99920716D01*
X146036044Y-99859539D01*
X146130946Y-99778485D01*
X146134702Y-99775277D01*
X146288857Y-99594785D01*
X146412879Y-99392400D01*
X146414774Y-99387826D01*
X146501821Y-99177674D01*
X146501823Y-99177668D01*
X146503713Y-99173105D01*
X146508109Y-99154798D01*
X146530175Y-99062885D01*
X146559125Y-98942301D01*
X146577748Y-98705670D01*
X146559125Y-98469039D01*
X146503713Y-98238235D01*
X146501823Y-98233672D01*
X146501821Y-98233666D01*
X146414774Y-98023514D01*
X146414772Y-98023510D01*
X146412879Y-98018940D01*
X146288857Y-97816555D01*
X146134702Y-97636063D01*
X146130946Y-97632855D01*
X146130941Y-97632850D01*
X145972258Y-97497322D01*
X145938381Y-97451389D01*
X145928847Y-97429272D01*
X145077907Y-96578332D01*
X145063963Y-96570718D01*
X145062130Y-96570849D01*
X145055515Y-96575100D01*
X144204385Y-97426230D01*
X144183353Y-97464746D01*
X144154596Y-97500171D01*
X143999249Y-97632850D01*
X143999244Y-97632855D01*
X143995488Y-97636063D01*
X143841333Y-97816555D01*
X143717311Y-98018940D01*
X143715418Y-98023510D01*
X143715416Y-98023514D01*
X143628369Y-98233666D01*
X143628367Y-98233672D01*
X143626477Y-98238235D01*
X143571065Y-98469039D01*
X143552442Y-98705670D01*
X143571065Y-98942301D01*
X143600015Y-99062885D01*
X143622082Y-99154798D01*
X143626477Y-99173105D01*
X143628367Y-99177668D01*
X143628369Y-99177674D01*
X143715416Y-99387826D01*
X143717311Y-99392400D01*
X143841333Y-99594785D01*
X143995488Y-99775277D01*
X143999244Y-99778485D01*
X144094146Y-99859539D01*
X144132955Y-99918989D01*
X144133461Y-99989984D01*
X144094146Y-100051161D01*
X143995488Y-100135423D01*
X143841333Y-100315915D01*
X143717311Y-100518300D01*
X143715418Y-100522870D01*
X143715416Y-100522874D01*
X143628369Y-100733026D01*
X143628367Y-100733032D01*
X143626477Y-100737595D01*
X143571065Y-100968399D01*
X143552442Y-101205030D01*
X143571065Y-101441661D01*
X143593456Y-101534923D01*
X143624540Y-101664396D01*
X143626477Y-101672465D01*
X143628367Y-101677028D01*
X143628369Y-101677034D01*
X143710549Y-101875435D01*
X143717311Y-101891760D01*
X143841333Y-102094145D01*
X143995488Y-102274637D01*
X144175980Y-102428792D01*
X144378365Y-102552814D01*
X144382935Y-102554707D01*
X144382939Y-102554709D01*
X144593091Y-102641756D01*
X144593097Y-102641758D01*
X144597660Y-102643648D01*
X144602460Y-102644800D01*
X144602465Y-102644802D01*
X144707880Y-102670110D01*
X144828464Y-102699060D01*
X145065095Y-102717683D01*
X145301726Y-102699060D01*
X145422310Y-102670110D01*
X145527725Y-102644802D01*
X145527730Y-102644800D01*
X145532530Y-102643648D01*
X145537093Y-102641758D01*
X145537099Y-102641756D01*
X145747251Y-102554709D01*
X145747255Y-102554707D01*
X145751825Y-102552814D01*
X145954210Y-102428792D01*
X146134702Y-102274637D01*
X146288857Y-102094145D01*
X146408629Y-101898695D01*
X146461277Y-101851064D01*
X146516062Y-101838530D01*
X149749221Y-101838530D01*
X149817342Y-101858532D01*
X149838316Y-101875435D01*
X153686010Y-105723129D01*
X153720036Y-105785441D01*
X153714971Y-105856256D01*
X153672424Y-105913092D01*
X153606800Y-105937836D01*
X153558464Y-105941640D01*
X153474789Y-105961729D01*
X153332465Y-105995898D01*
X153332460Y-105995900D01*
X153327660Y-105997052D01*
X153323097Y-105998942D01*
X153323091Y-105998944D01*
X153112939Y-106085991D01*
X153112935Y-106085993D01*
X153108365Y-106087886D01*
X152905980Y-106211908D01*
X152725488Y-106366063D01*
X152722280Y-106369819D01*
X152722275Y-106369824D01*
X152586747Y-106528507D01*
X152540814Y-106562384D01*
X152518697Y-106571918D01*
X151667757Y-107422858D01*
X151660143Y-107436802D01*
X151660274Y-107438635D01*
X151664525Y-107445250D01*
X152515655Y-108296380D01*
X152554171Y-108317412D01*
X152589596Y-108346169D01*
X152722275Y-108501516D01*
X152722280Y-108501521D01*
X152725488Y-108505277D01*
X152905980Y-108659432D01*
X153108365Y-108783454D01*
X153112935Y-108785347D01*
X153112939Y-108785349D01*
X153323091Y-108872396D01*
X153323097Y-108872398D01*
X153327660Y-108874288D01*
X153332460Y-108875440D01*
X153332465Y-108875442D01*
X153437880Y-108900750D01*
X153558464Y-108929700D01*
X153795095Y-108948323D01*
X154031726Y-108929700D01*
X154152310Y-108900750D01*
X154257725Y-108875442D01*
X154257730Y-108875440D01*
X154262530Y-108874288D01*
X154267093Y-108872398D01*
X154267099Y-108872396D01*
X154477251Y-108785349D01*
X154477255Y-108785347D01*
X154481825Y-108783454D01*
X154684210Y-108659432D01*
X154864702Y-108505277D01*
X154948964Y-108406619D01*
X155008414Y-108367810D01*
X155079409Y-108367304D01*
X155140586Y-108406619D01*
X155224848Y-108505277D01*
X155405340Y-108659432D01*
X155607725Y-108783454D01*
X155612295Y-108785347D01*
X155612299Y-108785349D01*
X155822451Y-108872396D01*
X155822457Y-108872398D01*
X155827020Y-108874288D01*
X155831820Y-108875440D01*
X155831825Y-108875442D01*
X155937240Y-108900750D01*
X156057824Y-108929700D01*
X156294455Y-108948323D01*
X156531086Y-108929700D01*
X156651670Y-108900750D01*
X156757085Y-108875442D01*
X156757090Y-108875440D01*
X156761890Y-108874288D01*
X156766453Y-108872398D01*
X156766459Y-108872396D01*
X156976611Y-108785349D01*
X156976615Y-108785347D01*
X156981185Y-108783454D01*
X157183570Y-108659432D01*
X157364062Y-108505277D01*
X157518217Y-108324785D01*
X157642239Y-108122400D01*
X157644228Y-108117598D01*
X157731181Y-107907674D01*
X157731183Y-107907668D01*
X157733073Y-107903105D01*
X157734266Y-107898138D01*
X157787330Y-107677110D01*
X157788485Y-107672301D01*
X157807108Y-107435670D01*
X157788485Y-107199039D01*
X157755980Y-107063648D01*
X157734227Y-106973040D01*
X157734225Y-106973035D01*
X157733073Y-106968235D01*
X157731183Y-106963672D01*
X157731181Y-106963666D01*
X157644134Y-106753514D01*
X157644132Y-106753510D01*
X157642239Y-106748940D01*
X157518217Y-106546555D01*
X157364062Y-106366063D01*
X157183570Y-106211908D01*
X156981185Y-106087886D01*
X156976615Y-106085993D01*
X156976611Y-106085991D01*
X156766459Y-105998944D01*
X156766453Y-105998942D01*
X156761890Y-105997052D01*
X156757090Y-105995900D01*
X156757085Y-105995898D01*
X156614761Y-105961729D01*
X156531086Y-105941640D01*
X156294455Y-105923017D01*
X156057824Y-105941640D01*
X156053015Y-105942794D01*
X156053012Y-105942795D01*
X155834928Y-105995153D01*
X155764020Y-105991606D01*
X155716419Y-105961729D01*
X153460360Y-103705670D01*
X158606930Y-103705670D01*
X158625560Y-103942381D01*
X158680990Y-104173264D01*
X158771855Y-104392633D01*
X158774441Y-104396853D01*
X158893336Y-104590872D01*
X158893340Y-104590878D01*
X158895919Y-104595086D01*
X159050126Y-104775639D01*
X159230679Y-104929846D01*
X159234887Y-104932425D01*
X159234893Y-104932429D01*
X159428912Y-105051324D01*
X159433132Y-105053910D01*
X159437702Y-105055803D01*
X159437706Y-105055805D01*
X159647928Y-105142881D01*
X159652501Y-105144775D01*
X159732704Y-105164030D01*
X159878571Y-105199050D01*
X159878577Y-105199051D01*
X159883384Y-105200205D01*
X160120095Y-105218835D01*
X160356806Y-105200205D01*
X160361613Y-105199051D01*
X160361619Y-105199050D01*
X160507486Y-105164030D01*
X160587689Y-105144775D01*
X160592262Y-105142881D01*
X160802484Y-105055805D01*
X160802488Y-105055803D01*
X160807058Y-105053910D01*
X160811278Y-105051324D01*
X161005297Y-104932429D01*
X161005303Y-104932425D01*
X161009511Y-104929846D01*
X161190064Y-104775639D01*
X161344271Y-104595086D01*
X161346850Y-104590878D01*
X161346854Y-104590872D01*
X161465749Y-104396853D01*
X161468335Y-104392633D01*
X161559200Y-104173264D01*
X161614630Y-103942381D01*
X161633260Y-103705670D01*
X161614630Y-103468959D01*
X161559200Y-103238076D01*
X161468335Y-103018707D01*
X161465749Y-103014487D01*
X161346854Y-102820468D01*
X161346850Y-102820462D01*
X161344271Y-102816254D01*
X161196851Y-102643648D01*
X161193272Y-102639457D01*
X161190064Y-102635701D01*
X161009511Y-102481494D01*
X161005303Y-102478915D01*
X161005297Y-102478911D01*
X160811278Y-102360016D01*
X160807058Y-102357430D01*
X160802488Y-102355537D01*
X160802484Y-102355535D01*
X160592262Y-102268459D01*
X160592260Y-102268458D01*
X160587689Y-102266565D01*
X160507486Y-102247310D01*
X160361619Y-102212290D01*
X160361613Y-102212289D01*
X160356806Y-102211135D01*
X160120095Y-102192505D01*
X159883384Y-102211135D01*
X159878577Y-102212289D01*
X159878571Y-102212290D01*
X159732704Y-102247310D01*
X159652501Y-102266565D01*
X159647930Y-102268458D01*
X159647928Y-102268459D01*
X159437706Y-102355535D01*
X159437702Y-102355537D01*
X159433132Y-102357430D01*
X159428912Y-102360016D01*
X159234893Y-102478911D01*
X159234887Y-102478915D01*
X159230679Y-102481494D01*
X159050126Y-102635701D01*
X159046918Y-102639457D01*
X159043339Y-102643648D01*
X158895919Y-102816254D01*
X158893340Y-102820462D01*
X158893336Y-102820468D01*
X158774441Y-103014487D01*
X158771855Y-103018707D01*
X158680990Y-103238076D01*
X158625560Y-103468959D01*
X158606930Y-103705670D01*
X153460360Y-103705670D01*
X151808315Y-102053625D01*
X151774289Y-101991313D01*
X151779354Y-101920498D01*
X151821901Y-101863662D01*
X151888421Y-101838851D01*
X151897410Y-101838530D01*
X156526203Y-101838530D01*
X156537386Y-101839057D01*
X156544879Y-101840732D01*
X156552805Y-101840483D01*
X156552806Y-101840483D01*
X156612956Y-101838592D01*
X156616915Y-101838530D01*
X156644826Y-101838530D01*
X156648761Y-101838033D01*
X156648826Y-101838025D01*
X156660663Y-101837092D01*
X156692921Y-101836078D01*
X156696940Y-101835952D01*
X156704859Y-101835703D01*
X156724313Y-101830051D01*
X156743670Y-101826043D01*
X156755900Y-101824498D01*
X156755901Y-101824498D01*
X156763767Y-101823504D01*
X156771138Y-101820585D01*
X156771140Y-101820585D01*
X156804882Y-101807226D01*
X156816112Y-101803381D01*
X156850953Y-101793259D01*
X156850954Y-101793259D01*
X156858563Y-101791048D01*
X156865382Y-101787015D01*
X156865387Y-101787013D01*
X156875998Y-101780737D01*
X156893746Y-101772042D01*
X156912587Y-101764582D01*
X156948357Y-101738594D01*
X156958277Y-101732078D01*
X156989505Y-101713610D01*
X156989508Y-101713608D01*
X156996332Y-101709572D01*
X157010653Y-101695251D01*
X157025687Y-101682410D01*
X157042077Y-101670502D01*
X157070268Y-101636425D01*
X157078258Y-101627646D01*
X158665904Y-100040000D01*
X166686835Y-100040000D01*
X166705465Y-100276711D01*
X166706619Y-100281518D01*
X166706620Y-100281524D01*
X166741640Y-100427391D01*
X166760895Y-100507594D01*
X166762788Y-100512165D01*
X166762789Y-100512167D01*
X166841603Y-100702441D01*
X166851760Y-100726963D01*
X166854346Y-100731183D01*
X166973241Y-100925202D01*
X166973245Y-100925208D01*
X166975824Y-100929416D01*
X167130031Y-101109969D01*
X167310584Y-101264176D01*
X167314792Y-101266755D01*
X167314798Y-101266759D01*
X167457383Y-101354135D01*
X167513037Y-101388240D01*
X167517607Y-101390133D01*
X167517611Y-101390135D01*
X167727833Y-101477211D01*
X167732406Y-101479105D01*
X167808527Y-101497380D01*
X167958476Y-101533380D01*
X167958482Y-101533381D01*
X167963289Y-101534535D01*
X168200000Y-101553165D01*
X168436711Y-101534535D01*
X168441518Y-101533381D01*
X168441524Y-101533380D01*
X168591473Y-101497380D01*
X168667594Y-101479105D01*
X168672167Y-101477211D01*
X168882389Y-101390135D01*
X168882393Y-101390133D01*
X168886963Y-101388240D01*
X168942617Y-101354135D01*
X169085202Y-101266759D01*
X169085208Y-101266755D01*
X169089416Y-101264176D01*
X169269969Y-101109969D01*
X169424176Y-100929416D01*
X169426755Y-100925208D01*
X169426759Y-100925202D01*
X169545654Y-100731183D01*
X169548240Y-100726963D01*
X169558398Y-100702441D01*
X169637211Y-100512167D01*
X169637212Y-100512165D01*
X169639105Y-100507594D01*
X169658360Y-100427391D01*
X169693380Y-100281524D01*
X169693381Y-100281518D01*
X169694535Y-100276711D01*
X169713165Y-100040000D01*
X173186835Y-100040000D01*
X173205465Y-100276711D01*
X173206619Y-100281518D01*
X173206620Y-100281524D01*
X173241640Y-100427391D01*
X173260895Y-100507594D01*
X173262788Y-100512165D01*
X173262789Y-100512167D01*
X173341603Y-100702441D01*
X173351760Y-100726963D01*
X173354346Y-100731183D01*
X173473241Y-100925202D01*
X173473245Y-100925208D01*
X173475824Y-100929416D01*
X173630031Y-101109969D01*
X173810584Y-101264176D01*
X173814792Y-101266755D01*
X173814798Y-101266759D01*
X173957383Y-101354135D01*
X174013037Y-101388240D01*
X174017607Y-101390133D01*
X174017611Y-101390135D01*
X174227833Y-101477211D01*
X174232406Y-101479105D01*
X174308527Y-101497380D01*
X174458476Y-101533380D01*
X174458482Y-101533381D01*
X174463289Y-101534535D01*
X174700000Y-101553165D01*
X174936711Y-101534535D01*
X174941518Y-101533381D01*
X174941524Y-101533380D01*
X175091473Y-101497380D01*
X175167594Y-101479105D01*
X175172167Y-101477211D01*
X175382389Y-101390135D01*
X175382393Y-101390133D01*
X175386963Y-101388240D01*
X175442617Y-101354135D01*
X175585202Y-101266759D01*
X175585208Y-101266755D01*
X175589416Y-101264176D01*
X175769969Y-101109969D01*
X175924176Y-100929416D01*
X175926755Y-100925208D01*
X175926759Y-100925202D01*
X176045654Y-100731183D01*
X176048240Y-100726963D01*
X176058398Y-100702441D01*
X176137211Y-100512167D01*
X176137212Y-100512165D01*
X176139105Y-100507594D01*
X176158360Y-100427391D01*
X176193380Y-100281524D01*
X176193381Y-100281518D01*
X176194535Y-100276711D01*
X176213165Y-100040000D01*
X176194535Y-99803289D01*
X176188581Y-99778485D01*
X176140260Y-99577218D01*
X176139105Y-99572406D01*
X176126187Y-99541218D01*
X176050135Y-99357611D01*
X176050133Y-99357607D01*
X176048240Y-99353037D01*
X175963518Y-99214784D01*
X175949987Y-99192703D01*
X201090743Y-99192703D01*
X201128268Y-99477734D01*
X201204129Y-99755036D01*
X201211267Y-99771770D01*
X201312425Y-100008930D01*
X201316923Y-100019476D01*
X201330882Y-100042799D01*
X201446377Y-100235777D01*
X201464561Y-100266161D01*
X201644313Y-100490528D01*
X201852851Y-100688423D01*
X202086317Y-100856186D01*
X202090112Y-100858195D01*
X202090113Y-100858196D01*
X202111869Y-100869715D01*
X202340392Y-100990712D01*
X202364699Y-100999607D01*
X202576669Y-101077177D01*
X202610373Y-101089511D01*
X202891264Y-101150755D01*
X202919841Y-101153004D01*
X203114282Y-101168307D01*
X203114291Y-101168307D01*
X203116739Y-101168500D01*
X203272271Y-101168500D01*
X203274407Y-101168354D01*
X203274418Y-101168354D01*
X203482548Y-101154165D01*
X203482554Y-101154164D01*
X203486825Y-101153873D01*
X203491020Y-101153004D01*
X203491022Y-101153004D01*
X203627583Y-101124724D01*
X203768342Y-101095574D01*
X204039343Y-100999607D01*
X204175336Y-100929416D01*
X204291005Y-100869715D01*
X204291006Y-100869715D01*
X204294812Y-100867750D01*
X204298313Y-100865289D01*
X204298317Y-100865287D01*
X204489127Y-100731183D01*
X204530023Y-100702441D01*
X204670900Y-100571530D01*
X204737479Y-100509661D01*
X204737481Y-100509658D01*
X204740622Y-100506740D01*
X204922713Y-100284268D01*
X205072927Y-100039142D01*
X205074715Y-100035070D01*
X205186757Y-99779830D01*
X205188483Y-99775898D01*
X205267244Y-99499406D01*
X205307751Y-99214784D01*
X205307845Y-99196951D01*
X205309235Y-98931583D01*
X205309235Y-98931576D01*
X205309257Y-98927297D01*
X205271732Y-98642266D01*
X205195871Y-98364964D01*
X205083077Y-98100524D01*
X204935439Y-97853839D01*
X204755687Y-97629472D01*
X204547149Y-97431577D01*
X204313683Y-97263814D01*
X204291843Y-97252250D01*
X204268654Y-97239972D01*
X204059608Y-97129288D01*
X203800391Y-97034428D01*
X203793658Y-97031964D01*
X203793656Y-97031963D01*
X203789627Y-97030489D01*
X203508736Y-96969245D01*
X203477685Y-96966801D01*
X203285718Y-96951693D01*
X203285709Y-96951693D01*
X203283261Y-96951500D01*
X203127729Y-96951500D01*
X203125593Y-96951646D01*
X203125582Y-96951646D01*
X202917452Y-96965835D01*
X202917446Y-96965836D01*
X202913175Y-96966127D01*
X202908980Y-96966996D01*
X202908978Y-96966996D01*
X202861955Y-96976734D01*
X202631658Y-97024426D01*
X202360657Y-97120393D01*
X202105188Y-97252250D01*
X202101687Y-97254711D01*
X202101683Y-97254713D01*
X201987583Y-97334904D01*
X201869977Y-97417559D01*
X201659378Y-97613260D01*
X201477287Y-97835732D01*
X201327073Y-98080858D01*
X201211517Y-98344102D01*
X201132756Y-98620594D01*
X201092249Y-98905216D01*
X201092227Y-98909505D01*
X201092226Y-98909512D01*
X201090765Y-99188417D01*
X201090743Y-99192703D01*
X175949987Y-99192703D01*
X175926759Y-99154798D01*
X175926755Y-99154792D01*
X175924176Y-99150584D01*
X175769969Y-98970031D01*
X175589416Y-98815824D01*
X175585208Y-98813245D01*
X175585202Y-98813241D01*
X175391183Y-98694346D01*
X175386963Y-98691760D01*
X175382393Y-98689867D01*
X175382389Y-98689865D01*
X175172167Y-98602789D01*
X175172165Y-98602788D01*
X175167594Y-98600895D01*
X175087391Y-98581640D01*
X174941524Y-98546620D01*
X174941518Y-98546619D01*
X174936711Y-98545465D01*
X174700000Y-98526835D01*
X174463289Y-98545465D01*
X174458482Y-98546619D01*
X174458476Y-98546620D01*
X174312609Y-98581640D01*
X174232406Y-98600895D01*
X174227835Y-98602788D01*
X174227833Y-98602789D01*
X174017611Y-98689865D01*
X174017607Y-98689867D01*
X174013037Y-98691760D01*
X174008817Y-98694346D01*
X173814798Y-98813241D01*
X173814792Y-98813245D01*
X173810584Y-98815824D01*
X173630031Y-98970031D01*
X173475824Y-99150584D01*
X173473245Y-99154792D01*
X173473241Y-99154798D01*
X173436482Y-99214784D01*
X173351760Y-99353037D01*
X173349867Y-99357607D01*
X173349865Y-99357611D01*
X173273813Y-99541218D01*
X173260895Y-99572406D01*
X173259740Y-99577218D01*
X173211420Y-99778485D01*
X173205465Y-99803289D01*
X173186835Y-100040000D01*
X169713165Y-100040000D01*
X169694535Y-99803289D01*
X169688581Y-99778485D01*
X169640260Y-99577218D01*
X169639105Y-99572406D01*
X169626187Y-99541218D01*
X169550135Y-99357611D01*
X169550133Y-99357607D01*
X169548240Y-99353037D01*
X169463518Y-99214784D01*
X169426759Y-99154798D01*
X169426755Y-99154792D01*
X169424176Y-99150584D01*
X169269969Y-98970031D01*
X169089416Y-98815824D01*
X169085208Y-98813245D01*
X169085202Y-98813241D01*
X168891183Y-98694346D01*
X168886963Y-98691760D01*
X168882393Y-98689867D01*
X168882389Y-98689865D01*
X168672167Y-98602789D01*
X168672165Y-98602788D01*
X168667594Y-98600895D01*
X168587391Y-98581640D01*
X168441524Y-98546620D01*
X168441518Y-98546619D01*
X168436711Y-98545465D01*
X168200000Y-98526835D01*
X167963289Y-98545465D01*
X167958482Y-98546619D01*
X167958476Y-98546620D01*
X167812609Y-98581640D01*
X167732406Y-98600895D01*
X167727835Y-98602788D01*
X167727833Y-98602789D01*
X167517611Y-98689865D01*
X167517607Y-98689867D01*
X167513037Y-98691760D01*
X167508817Y-98694346D01*
X167314798Y-98813241D01*
X167314792Y-98813245D01*
X167310584Y-98815824D01*
X167130031Y-98970031D01*
X166975824Y-99150584D01*
X166973245Y-99154792D01*
X166973241Y-99154798D01*
X166936482Y-99214784D01*
X166851760Y-99353037D01*
X166849867Y-99357607D01*
X166849865Y-99357611D01*
X166773813Y-99541218D01*
X166760895Y-99572406D01*
X166759740Y-99577218D01*
X166711420Y-99778485D01*
X166705465Y-99803289D01*
X166686835Y-100040000D01*
X158665904Y-100040000D01*
X161933234Y-96772670D01*
X167332160Y-96772670D01*
X167337887Y-96780320D01*
X167509042Y-96885205D01*
X167517837Y-96889687D01*
X167727988Y-96976734D01*
X167737373Y-96979783D01*
X167958554Y-97032885D01*
X167968301Y-97034428D01*
X168195070Y-97052275D01*
X168204930Y-97052275D01*
X168431699Y-97034428D01*
X168441446Y-97032885D01*
X168662627Y-96979783D01*
X168672012Y-96976734D01*
X168882163Y-96889687D01*
X168890958Y-96885205D01*
X169058445Y-96782568D01*
X169067400Y-96772670D01*
X173832160Y-96772670D01*
X173837887Y-96780320D01*
X174009042Y-96885205D01*
X174017837Y-96889687D01*
X174227988Y-96976734D01*
X174237373Y-96979783D01*
X174458554Y-97032885D01*
X174468301Y-97034428D01*
X174695070Y-97052275D01*
X174704930Y-97052275D01*
X174931699Y-97034428D01*
X174941446Y-97032885D01*
X175162627Y-96979783D01*
X175172012Y-96976734D01*
X175382163Y-96889687D01*
X175390958Y-96885205D01*
X175558445Y-96782568D01*
X175567907Y-96772110D01*
X175564124Y-96763334D01*
X174712812Y-95912022D01*
X174698868Y-95904408D01*
X174697035Y-95904539D01*
X174690420Y-95908790D01*
X173838920Y-96760290D01*
X173832160Y-96772670D01*
X169067400Y-96772670D01*
X169067907Y-96772110D01*
X169064124Y-96763334D01*
X168212812Y-95912022D01*
X168198868Y-95904408D01*
X168197035Y-95904539D01*
X168190420Y-95908790D01*
X167338920Y-96760290D01*
X167332160Y-96772670D01*
X161933234Y-96772670D01*
X163160974Y-95544930D01*
X166687725Y-95544930D01*
X166705572Y-95771699D01*
X166707115Y-95781446D01*
X166760217Y-96002627D01*
X166763266Y-96012012D01*
X166850313Y-96222163D01*
X166854795Y-96230958D01*
X166957432Y-96398445D01*
X166967890Y-96407907D01*
X166976666Y-96404124D01*
X167827978Y-95552812D01*
X167834356Y-95541132D01*
X168564408Y-95541132D01*
X168564539Y-95542965D01*
X168568790Y-95549580D01*
X169420290Y-96401080D01*
X169432670Y-96407840D01*
X169440320Y-96402113D01*
X169545205Y-96230958D01*
X169549687Y-96222163D01*
X169636734Y-96012012D01*
X169639783Y-96002627D01*
X169692885Y-95781446D01*
X169694428Y-95771699D01*
X169712275Y-95544930D01*
X173187725Y-95544930D01*
X173205572Y-95771699D01*
X173207115Y-95781446D01*
X173260217Y-96002627D01*
X173263266Y-96012012D01*
X173350313Y-96222163D01*
X173354795Y-96230958D01*
X173457432Y-96398445D01*
X173467890Y-96407907D01*
X173476666Y-96404124D01*
X174327978Y-95552812D01*
X174334356Y-95541132D01*
X175064408Y-95541132D01*
X175064539Y-95542965D01*
X175068790Y-95549580D01*
X175920290Y-96401080D01*
X175932670Y-96407840D01*
X175940320Y-96402113D01*
X176045205Y-96230958D01*
X176049687Y-96222163D01*
X176136734Y-96012012D01*
X176139783Y-96002627D01*
X176192885Y-95781446D01*
X176194428Y-95771699D01*
X176212275Y-95544930D01*
X176212275Y-95535070D01*
X176194428Y-95308301D01*
X176192885Y-95298554D01*
X176139783Y-95077373D01*
X176136734Y-95067988D01*
X176049687Y-94857837D01*
X176045205Y-94849042D01*
X175942568Y-94681555D01*
X175932110Y-94672093D01*
X175923334Y-94675876D01*
X175072022Y-95527188D01*
X175064408Y-95541132D01*
X174334356Y-95541132D01*
X174335592Y-95538868D01*
X174335461Y-95537035D01*
X174331210Y-95530420D01*
X173479710Y-94678920D01*
X173467330Y-94672160D01*
X173459680Y-94677887D01*
X173354795Y-94849042D01*
X173350313Y-94857837D01*
X173263266Y-95067988D01*
X173260217Y-95077373D01*
X173207115Y-95298554D01*
X173205572Y-95308301D01*
X173187725Y-95535070D01*
X173187725Y-95544930D01*
X169712275Y-95544930D01*
X169712275Y-95535070D01*
X169694428Y-95308301D01*
X169692885Y-95298554D01*
X169639783Y-95077373D01*
X169636734Y-95067988D01*
X169549687Y-94857837D01*
X169545205Y-94849042D01*
X169442568Y-94681555D01*
X169432110Y-94672093D01*
X169423334Y-94675876D01*
X168572022Y-95527188D01*
X168564408Y-95541132D01*
X167834356Y-95541132D01*
X167835592Y-95538868D01*
X167835461Y-95537035D01*
X167831210Y-95530420D01*
X166979710Y-94678920D01*
X166967330Y-94672160D01*
X166959680Y-94677887D01*
X166854795Y-94849042D01*
X166850313Y-94857837D01*
X166763266Y-95067988D01*
X166760217Y-95077373D01*
X166707115Y-95298554D01*
X166705572Y-95308301D01*
X166687725Y-95535070D01*
X166687725Y-95544930D01*
X163160974Y-95544930D01*
X164398014Y-94307890D01*
X167332093Y-94307890D01*
X167335876Y-94316666D01*
X168187188Y-95167978D01*
X168201132Y-95175592D01*
X168202965Y-95175461D01*
X168209580Y-95171210D01*
X169061080Y-94319710D01*
X169067534Y-94307890D01*
X173832093Y-94307890D01*
X173835876Y-94316666D01*
X174687188Y-95167978D01*
X174701132Y-95175592D01*
X174702965Y-95175461D01*
X174709580Y-95171210D01*
X175561080Y-94319710D01*
X175567840Y-94307330D01*
X175562113Y-94299680D01*
X175390958Y-94194795D01*
X175382163Y-94190313D01*
X175172012Y-94103266D01*
X175162627Y-94100217D01*
X174941446Y-94047115D01*
X174931699Y-94045572D01*
X174704930Y-94027725D01*
X174695070Y-94027725D01*
X174468301Y-94045572D01*
X174458554Y-94047115D01*
X174237373Y-94100217D01*
X174227988Y-94103266D01*
X174017837Y-94190313D01*
X174009042Y-94194795D01*
X173841555Y-94297432D01*
X173832093Y-94307890D01*
X169067534Y-94307890D01*
X169067840Y-94307330D01*
X169062113Y-94299680D01*
X168890958Y-94194795D01*
X168882163Y-94190313D01*
X168672012Y-94103266D01*
X168662627Y-94100217D01*
X168441446Y-94047115D01*
X168431699Y-94045572D01*
X168204930Y-94027725D01*
X168195070Y-94027725D01*
X167968301Y-94045572D01*
X167958554Y-94047115D01*
X167737373Y-94100217D01*
X167727988Y-94103266D01*
X167517837Y-94190313D01*
X167509042Y-94194795D01*
X167341555Y-94297432D01*
X167332093Y-94307890D01*
X164398014Y-94307890D01*
X166285904Y-92420000D01*
X181926835Y-92420000D01*
X181945465Y-92656711D01*
X181946619Y-92661518D01*
X181946620Y-92661524D01*
X181981640Y-92807391D01*
X182000895Y-92887594D01*
X182002788Y-92892165D01*
X182002789Y-92892167D01*
X182067344Y-93048016D01*
X182091760Y-93106963D01*
X182094346Y-93111183D01*
X182213241Y-93305202D01*
X182213245Y-93305208D01*
X182215824Y-93309416D01*
X182370031Y-93489969D01*
X182550584Y-93644176D01*
X182554792Y-93646755D01*
X182554798Y-93646759D01*
X182688000Y-93728385D01*
X182753037Y-93768240D01*
X182757607Y-93770133D01*
X182757611Y-93770135D01*
X182937834Y-93844785D01*
X182972406Y-93859105D01*
X183052609Y-93878360D01*
X183198476Y-93913380D01*
X183198482Y-93913381D01*
X183203289Y-93914535D01*
X183440000Y-93933165D01*
X183676711Y-93914535D01*
X183681518Y-93913381D01*
X183681524Y-93913380D01*
X183827391Y-93878360D01*
X183907594Y-93859105D01*
X183942166Y-93844785D01*
X184122389Y-93770135D01*
X184122393Y-93770133D01*
X184126963Y-93768240D01*
X184192000Y-93728385D01*
X184325202Y-93646759D01*
X184325208Y-93646755D01*
X184329416Y-93644176D01*
X184509969Y-93489969D01*
X184664176Y-93309416D01*
X184666755Y-93305208D01*
X184666759Y-93305202D01*
X184785654Y-93111183D01*
X184788240Y-93106963D01*
X184812657Y-93048016D01*
X184877211Y-92892167D01*
X184877212Y-92892165D01*
X184879105Y-92887594D01*
X184898360Y-92807391D01*
X184933380Y-92661524D01*
X184933381Y-92661518D01*
X184934535Y-92656711D01*
X184953165Y-92420000D01*
X188426835Y-92420000D01*
X188445465Y-92656711D01*
X188446619Y-92661518D01*
X188446620Y-92661524D01*
X188481640Y-92807391D01*
X188500895Y-92887594D01*
X188502788Y-92892165D01*
X188502789Y-92892167D01*
X188567344Y-93048016D01*
X188591760Y-93106963D01*
X188594346Y-93111183D01*
X188713241Y-93305202D01*
X188713245Y-93305208D01*
X188715824Y-93309416D01*
X188870031Y-93489969D01*
X189050584Y-93644176D01*
X189054792Y-93646755D01*
X189054798Y-93646759D01*
X189188000Y-93728385D01*
X189253037Y-93768240D01*
X189257607Y-93770133D01*
X189257611Y-93770135D01*
X189437834Y-93844785D01*
X189472406Y-93859105D01*
X189552609Y-93878360D01*
X189698476Y-93913380D01*
X189698482Y-93913381D01*
X189703289Y-93914535D01*
X189940000Y-93933165D01*
X190176711Y-93914535D01*
X190181518Y-93913381D01*
X190181524Y-93913380D01*
X190327391Y-93878360D01*
X190407594Y-93859105D01*
X190442166Y-93844785D01*
X190622389Y-93770135D01*
X190622393Y-93770133D01*
X190626963Y-93768240D01*
X190692000Y-93728385D01*
X190825202Y-93646759D01*
X190825208Y-93646755D01*
X190829416Y-93644176D01*
X191009969Y-93489969D01*
X191164176Y-93309416D01*
X191166755Y-93305208D01*
X191166759Y-93305202D01*
X191285654Y-93111183D01*
X191288240Y-93106963D01*
X191312657Y-93048016D01*
X191377211Y-92892167D01*
X191377212Y-92892165D01*
X191379105Y-92887594D01*
X191398360Y-92807391D01*
X191433380Y-92661524D01*
X191433381Y-92661518D01*
X191434535Y-92656711D01*
X191453165Y-92420000D01*
X191434535Y-92183289D01*
X191407522Y-92070769D01*
X191380260Y-91957218D01*
X191379105Y-91952406D01*
X191288240Y-91733037D01*
X191210386Y-91605991D01*
X191166759Y-91534798D01*
X191166755Y-91534792D01*
X191164176Y-91530584D01*
X191009969Y-91350031D01*
X190829416Y-91195824D01*
X190825208Y-91193245D01*
X190825202Y-91193241D01*
X190631183Y-91074346D01*
X190626963Y-91071760D01*
X190622393Y-91069867D01*
X190622389Y-91069865D01*
X190412167Y-90982789D01*
X190412165Y-90982788D01*
X190407594Y-90980895D01*
X190327391Y-90961640D01*
X190181524Y-90926620D01*
X190181518Y-90926619D01*
X190176711Y-90925465D01*
X189940000Y-90906835D01*
X189703289Y-90925465D01*
X189698482Y-90926619D01*
X189698476Y-90926620D01*
X189552609Y-90961640D01*
X189472406Y-90980895D01*
X189467835Y-90982788D01*
X189467833Y-90982789D01*
X189257611Y-91069865D01*
X189257607Y-91069867D01*
X189253037Y-91071760D01*
X189248817Y-91074346D01*
X189054798Y-91193241D01*
X189054792Y-91193245D01*
X189050584Y-91195824D01*
X188870031Y-91350031D01*
X188715824Y-91530584D01*
X188713245Y-91534792D01*
X188713241Y-91534798D01*
X188669614Y-91605991D01*
X188591760Y-91733037D01*
X188500895Y-91952406D01*
X188499740Y-91957218D01*
X188472479Y-92070769D01*
X188445465Y-92183289D01*
X188426835Y-92420000D01*
X184953165Y-92420000D01*
X184934535Y-92183289D01*
X184907522Y-92070769D01*
X184880260Y-91957218D01*
X184879105Y-91952406D01*
X184788240Y-91733037D01*
X184710386Y-91605991D01*
X184666759Y-91534798D01*
X184666755Y-91534792D01*
X184664176Y-91530584D01*
X184509969Y-91350031D01*
X184329416Y-91195824D01*
X184325208Y-91193245D01*
X184325202Y-91193241D01*
X184131183Y-91074346D01*
X184126963Y-91071760D01*
X184122393Y-91069867D01*
X184122389Y-91069865D01*
X183912167Y-90982789D01*
X183912165Y-90982788D01*
X183907594Y-90980895D01*
X183827391Y-90961640D01*
X183681524Y-90926620D01*
X183681518Y-90926619D01*
X183676711Y-90925465D01*
X183440000Y-90906835D01*
X183203289Y-90925465D01*
X183198482Y-90926619D01*
X183198476Y-90926620D01*
X183052609Y-90961640D01*
X182972406Y-90980895D01*
X182967835Y-90982788D01*
X182967833Y-90982789D01*
X182757611Y-91069865D01*
X182757607Y-91069867D01*
X182753037Y-91071760D01*
X182748817Y-91074346D01*
X182554798Y-91193241D01*
X182554792Y-91193245D01*
X182550584Y-91195824D01*
X182370031Y-91350031D01*
X182215824Y-91530584D01*
X182213245Y-91534792D01*
X182213241Y-91534798D01*
X182169614Y-91605991D01*
X182091760Y-91733037D01*
X182000895Y-91952406D01*
X181999740Y-91957218D01*
X181972479Y-92070769D01*
X181945465Y-92183289D01*
X181926835Y-92420000D01*
X166285904Y-92420000D01*
X169553234Y-89152670D01*
X182572160Y-89152670D01*
X182577887Y-89160320D01*
X182749042Y-89265205D01*
X182757837Y-89269687D01*
X182967988Y-89356734D01*
X182977373Y-89359783D01*
X183198554Y-89412885D01*
X183208301Y-89414428D01*
X183435070Y-89432275D01*
X183444930Y-89432275D01*
X183671699Y-89414428D01*
X183681446Y-89412885D01*
X183902627Y-89359783D01*
X183912012Y-89356734D01*
X184122163Y-89269687D01*
X184130958Y-89265205D01*
X184298445Y-89162568D01*
X184307400Y-89152670D01*
X189072160Y-89152670D01*
X189077887Y-89160320D01*
X189249042Y-89265205D01*
X189257837Y-89269687D01*
X189467988Y-89356734D01*
X189477373Y-89359783D01*
X189698554Y-89412885D01*
X189708301Y-89414428D01*
X189935070Y-89432275D01*
X189944930Y-89432275D01*
X190171699Y-89414428D01*
X190181446Y-89412885D01*
X190402627Y-89359783D01*
X190412012Y-89356734D01*
X190622163Y-89269687D01*
X190630958Y-89265205D01*
X190798445Y-89162568D01*
X190807907Y-89152110D01*
X190804124Y-89143334D01*
X189952812Y-88292022D01*
X189938868Y-88284408D01*
X189937035Y-88284539D01*
X189930420Y-88288790D01*
X189078920Y-89140290D01*
X189072160Y-89152670D01*
X184307400Y-89152670D01*
X184307907Y-89152110D01*
X184304124Y-89143334D01*
X183452812Y-88292022D01*
X183438868Y-88284408D01*
X183437035Y-88284539D01*
X183430420Y-88288790D01*
X182578920Y-89140290D01*
X182572160Y-89152670D01*
X169553234Y-89152670D01*
X170780974Y-87924930D01*
X181927725Y-87924930D01*
X181945572Y-88151699D01*
X181947115Y-88161446D01*
X182000217Y-88382627D01*
X182003266Y-88392012D01*
X182090313Y-88602163D01*
X182094795Y-88610958D01*
X182197432Y-88778445D01*
X182207890Y-88787907D01*
X182216666Y-88784124D01*
X183067978Y-87932812D01*
X183074356Y-87921132D01*
X183804408Y-87921132D01*
X183804539Y-87922965D01*
X183808790Y-87929580D01*
X184660290Y-88781080D01*
X184672670Y-88787840D01*
X184680320Y-88782113D01*
X184785205Y-88610958D01*
X184789687Y-88602163D01*
X184876734Y-88392012D01*
X184879783Y-88382627D01*
X184932885Y-88161446D01*
X184934428Y-88151699D01*
X184952275Y-87924930D01*
X188427725Y-87924930D01*
X188445572Y-88151699D01*
X188447115Y-88161446D01*
X188500217Y-88382627D01*
X188503266Y-88392012D01*
X188590313Y-88602163D01*
X188594795Y-88610958D01*
X188697432Y-88778445D01*
X188707890Y-88787907D01*
X188716666Y-88784124D01*
X189567978Y-87932812D01*
X189574356Y-87921132D01*
X190304408Y-87921132D01*
X190304539Y-87922965D01*
X190308790Y-87929580D01*
X191160290Y-88781080D01*
X191172670Y-88787840D01*
X191180320Y-88782113D01*
X191285205Y-88610958D01*
X191289687Y-88602163D01*
X191376734Y-88392012D01*
X191379783Y-88382627D01*
X191432885Y-88161446D01*
X191434428Y-88151699D01*
X191452275Y-87924930D01*
X191452275Y-87915070D01*
X191434428Y-87688301D01*
X191432885Y-87678554D01*
X191379783Y-87457373D01*
X191376734Y-87447988D01*
X191289687Y-87237837D01*
X191285205Y-87229042D01*
X191182568Y-87061555D01*
X191172110Y-87052093D01*
X191163334Y-87055876D01*
X190312022Y-87907188D01*
X190304408Y-87921132D01*
X189574356Y-87921132D01*
X189575592Y-87918868D01*
X189575461Y-87917035D01*
X189571210Y-87910420D01*
X188719710Y-87058920D01*
X188707330Y-87052160D01*
X188699680Y-87057887D01*
X188594795Y-87229042D01*
X188590313Y-87237837D01*
X188503266Y-87447988D01*
X188500217Y-87457373D01*
X188447115Y-87678554D01*
X188445572Y-87688301D01*
X188427725Y-87915070D01*
X188427725Y-87924930D01*
X184952275Y-87924930D01*
X184952275Y-87915070D01*
X184934428Y-87688301D01*
X184932885Y-87678554D01*
X184879783Y-87457373D01*
X184876734Y-87447988D01*
X184789687Y-87237837D01*
X184785205Y-87229042D01*
X184682568Y-87061555D01*
X184672110Y-87052093D01*
X184663334Y-87055876D01*
X183812022Y-87907188D01*
X183804408Y-87921132D01*
X183074356Y-87921132D01*
X183075592Y-87918868D01*
X183075461Y-87917035D01*
X183071210Y-87910420D01*
X182219710Y-87058920D01*
X182207330Y-87052160D01*
X182199680Y-87057887D01*
X182094795Y-87229042D01*
X182090313Y-87237837D01*
X182003266Y-87447988D01*
X182000217Y-87457373D01*
X181947115Y-87678554D01*
X181945572Y-87688301D01*
X181927725Y-87915070D01*
X181927725Y-87924930D01*
X170780974Y-87924930D01*
X172018014Y-86687890D01*
X182572093Y-86687890D01*
X182575876Y-86696666D01*
X183427188Y-87547978D01*
X183441132Y-87555592D01*
X183442965Y-87555461D01*
X183449580Y-87551210D01*
X184301080Y-86699710D01*
X184307534Y-86687890D01*
X189072093Y-86687890D01*
X189075876Y-86696666D01*
X189927188Y-87547978D01*
X189941132Y-87555592D01*
X189942965Y-87555461D01*
X189949580Y-87551210D01*
X190801080Y-86699710D01*
X190807840Y-86687330D01*
X190802113Y-86679680D01*
X190630958Y-86574795D01*
X190622163Y-86570313D01*
X190412012Y-86483266D01*
X190402627Y-86480217D01*
X190181446Y-86427115D01*
X190171699Y-86425572D01*
X189944930Y-86407725D01*
X189935070Y-86407725D01*
X189708301Y-86425572D01*
X189698554Y-86427115D01*
X189477373Y-86480217D01*
X189467988Y-86483266D01*
X189257837Y-86570313D01*
X189249042Y-86574795D01*
X189081555Y-86677432D01*
X189072093Y-86687890D01*
X184307534Y-86687890D01*
X184307840Y-86687330D01*
X184302113Y-86679680D01*
X184130958Y-86574795D01*
X184122163Y-86570313D01*
X183912012Y-86483266D01*
X183902627Y-86480217D01*
X183681446Y-86427115D01*
X183671699Y-86425572D01*
X183444930Y-86407725D01*
X183435070Y-86407725D01*
X183208301Y-86425572D01*
X183198554Y-86427115D01*
X182977373Y-86480217D01*
X182967988Y-86483266D01*
X182757837Y-86570313D01*
X182749042Y-86574795D01*
X182581555Y-86677432D01*
X182572093Y-86687890D01*
X172018014Y-86687890D01*
X174159904Y-84546000D01*
X195896835Y-84546000D01*
X195915465Y-84782711D01*
X195916619Y-84787518D01*
X195916620Y-84787524D01*
X195951640Y-84933391D01*
X195970895Y-85013594D01*
X195972788Y-85018165D01*
X195972789Y-85018167D01*
X196011781Y-85112301D01*
X196061760Y-85232963D01*
X196064346Y-85237183D01*
X196183241Y-85431202D01*
X196183245Y-85431208D01*
X196185824Y-85435416D01*
X196340031Y-85615969D01*
X196520584Y-85770176D01*
X196524792Y-85772755D01*
X196524798Y-85772759D01*
X196718817Y-85891654D01*
X196723037Y-85894240D01*
X196727607Y-85896133D01*
X196727611Y-85896135D01*
X196937833Y-85983211D01*
X196942406Y-85985105D01*
X197022609Y-86004360D01*
X197168476Y-86039380D01*
X197168482Y-86039381D01*
X197173289Y-86040535D01*
X197410000Y-86059165D01*
X197646711Y-86040535D01*
X197651518Y-86039381D01*
X197651524Y-86039380D01*
X197797391Y-86004360D01*
X197877594Y-85985105D01*
X197882167Y-85983211D01*
X198092389Y-85896135D01*
X198092393Y-85896133D01*
X198096963Y-85894240D01*
X198101183Y-85891654D01*
X198295202Y-85772759D01*
X198295208Y-85772755D01*
X198299416Y-85770176D01*
X198479969Y-85615969D01*
X198634176Y-85435416D01*
X198636755Y-85431208D01*
X198636759Y-85431202D01*
X198755654Y-85237183D01*
X198758240Y-85232963D01*
X198808220Y-85112301D01*
X198847211Y-85018167D01*
X198847212Y-85018165D01*
X198849105Y-85013594D01*
X198868360Y-84933391D01*
X198903380Y-84787524D01*
X198903381Y-84787518D01*
X198904535Y-84782711D01*
X198923165Y-84546000D01*
X202396835Y-84546000D01*
X202415465Y-84782711D01*
X202416619Y-84787518D01*
X202416620Y-84787524D01*
X202451640Y-84933391D01*
X202470895Y-85013594D01*
X202472788Y-85018165D01*
X202472789Y-85018167D01*
X202511781Y-85112301D01*
X202561760Y-85232963D01*
X202564346Y-85237183D01*
X202683241Y-85431202D01*
X202683245Y-85431208D01*
X202685824Y-85435416D01*
X202840031Y-85615969D01*
X203020584Y-85770176D01*
X203024792Y-85772755D01*
X203024798Y-85772759D01*
X203218817Y-85891654D01*
X203223037Y-85894240D01*
X203227607Y-85896133D01*
X203227611Y-85896135D01*
X203437833Y-85983211D01*
X203442406Y-85985105D01*
X203522609Y-86004360D01*
X203668476Y-86039380D01*
X203668482Y-86039381D01*
X203673289Y-86040535D01*
X203910000Y-86059165D01*
X204146711Y-86040535D01*
X204151518Y-86039381D01*
X204151524Y-86039380D01*
X204297391Y-86004360D01*
X204377594Y-85985105D01*
X204382167Y-85983211D01*
X204592389Y-85896135D01*
X204592393Y-85896133D01*
X204596963Y-85894240D01*
X204601183Y-85891654D01*
X204795202Y-85772759D01*
X204795208Y-85772755D01*
X204799416Y-85770176D01*
X204979969Y-85615969D01*
X205134176Y-85435416D01*
X205136755Y-85431208D01*
X205136759Y-85431202D01*
X205255654Y-85237183D01*
X205258240Y-85232963D01*
X205308220Y-85112301D01*
X205347211Y-85018167D01*
X205347212Y-85018165D01*
X205349105Y-85013594D01*
X205368360Y-84933391D01*
X205403380Y-84787524D01*
X205403381Y-84787518D01*
X205404535Y-84782711D01*
X205423165Y-84546000D01*
X205404535Y-84309289D01*
X205349105Y-84078406D01*
X205347211Y-84073833D01*
X205260135Y-83863611D01*
X205260133Y-83863607D01*
X205258240Y-83859037D01*
X205241503Y-83831725D01*
X205136759Y-83660798D01*
X205136755Y-83660792D01*
X205134176Y-83656584D01*
X204979969Y-83476031D01*
X204799416Y-83321824D01*
X204795208Y-83319245D01*
X204795202Y-83319241D01*
X204601183Y-83200346D01*
X204596963Y-83197760D01*
X204592393Y-83195867D01*
X204592389Y-83195865D01*
X204382167Y-83108789D01*
X204382165Y-83108788D01*
X204377594Y-83106895D01*
X204297391Y-83087640D01*
X204151524Y-83052620D01*
X204151518Y-83052619D01*
X204146711Y-83051465D01*
X203910000Y-83032835D01*
X203673289Y-83051465D01*
X203668482Y-83052619D01*
X203668476Y-83052620D01*
X203522609Y-83087640D01*
X203442406Y-83106895D01*
X203437835Y-83108788D01*
X203437833Y-83108789D01*
X203227611Y-83195865D01*
X203227607Y-83195867D01*
X203223037Y-83197760D01*
X203218817Y-83200346D01*
X203024798Y-83319241D01*
X203024792Y-83319245D01*
X203020584Y-83321824D01*
X202840031Y-83476031D01*
X202685824Y-83656584D01*
X202683245Y-83660792D01*
X202683241Y-83660798D01*
X202578497Y-83831725D01*
X202561760Y-83859037D01*
X202559867Y-83863607D01*
X202559865Y-83863611D01*
X202472789Y-84073833D01*
X202470895Y-84078406D01*
X202415465Y-84309289D01*
X202396835Y-84546000D01*
X198923165Y-84546000D01*
X198904535Y-84309289D01*
X198849105Y-84078406D01*
X198847211Y-84073833D01*
X198760135Y-83863611D01*
X198760133Y-83863607D01*
X198758240Y-83859037D01*
X198741503Y-83831725D01*
X198636759Y-83660798D01*
X198636755Y-83660792D01*
X198634176Y-83656584D01*
X198479969Y-83476031D01*
X198299416Y-83321824D01*
X198295208Y-83319245D01*
X198295202Y-83319241D01*
X198101183Y-83200346D01*
X198096963Y-83197760D01*
X198092393Y-83195867D01*
X198092389Y-83195865D01*
X197882167Y-83108789D01*
X197882165Y-83108788D01*
X197877594Y-83106895D01*
X197797391Y-83087640D01*
X197651524Y-83052620D01*
X197651518Y-83052619D01*
X197646711Y-83051465D01*
X197410000Y-83032835D01*
X197173289Y-83051465D01*
X197168482Y-83052619D01*
X197168476Y-83052620D01*
X197022609Y-83087640D01*
X196942406Y-83106895D01*
X196937835Y-83108788D01*
X196937833Y-83108789D01*
X196727611Y-83195865D01*
X196727607Y-83195867D01*
X196723037Y-83197760D01*
X196718817Y-83200346D01*
X196524798Y-83319241D01*
X196524792Y-83319245D01*
X196520584Y-83321824D01*
X196340031Y-83476031D01*
X196185824Y-83656584D01*
X196183245Y-83660792D01*
X196183241Y-83660798D01*
X196078497Y-83831725D01*
X196061760Y-83859037D01*
X196059867Y-83863607D01*
X196059865Y-83863611D01*
X195972789Y-84073833D01*
X195970895Y-84078406D01*
X195915465Y-84309289D01*
X195896835Y-84546000D01*
X174159904Y-84546000D01*
X176247499Y-82458405D01*
X176309811Y-82424379D01*
X176336594Y-82421500D01*
X186103233Y-82421500D01*
X186114416Y-82422027D01*
X186121909Y-82423702D01*
X186129835Y-82423453D01*
X186129836Y-82423453D01*
X186189986Y-82421562D01*
X186193945Y-82421500D01*
X186865233Y-82421500D01*
X186876416Y-82422027D01*
X186883909Y-82423702D01*
X186891835Y-82423453D01*
X186891836Y-82423453D01*
X186951986Y-82421562D01*
X186955945Y-82421500D01*
X186983856Y-82421500D01*
X186987791Y-82421003D01*
X186987856Y-82420995D01*
X186999693Y-82420062D01*
X187031951Y-82419048D01*
X187035970Y-82418922D01*
X187043889Y-82418673D01*
X187063343Y-82413021D01*
X187082700Y-82409013D01*
X187094930Y-82407468D01*
X187094931Y-82407468D01*
X187102797Y-82406474D01*
X187110168Y-82403555D01*
X187110170Y-82403555D01*
X187143912Y-82390196D01*
X187155142Y-82386351D01*
X187189983Y-82376229D01*
X187189984Y-82376229D01*
X187197593Y-82374018D01*
X187204412Y-82369985D01*
X187204417Y-82369983D01*
X187215028Y-82363707D01*
X187232776Y-82355012D01*
X187251617Y-82347552D01*
X187287387Y-82321564D01*
X187297307Y-82315048D01*
X187328535Y-82296580D01*
X187328538Y-82296578D01*
X187335362Y-82292542D01*
X187349683Y-82278221D01*
X187364717Y-82265380D01*
X187374694Y-82258131D01*
X187381107Y-82253472D01*
X187409298Y-82219395D01*
X187417288Y-82210616D01*
X188349234Y-81278670D01*
X196542160Y-81278670D01*
X196547887Y-81286320D01*
X196719042Y-81391205D01*
X196727837Y-81395687D01*
X196937988Y-81482734D01*
X196947373Y-81485783D01*
X197168554Y-81538885D01*
X197178301Y-81540428D01*
X197405070Y-81558275D01*
X197414930Y-81558275D01*
X197641699Y-81540428D01*
X197651446Y-81538885D01*
X197872627Y-81485783D01*
X197882012Y-81482734D01*
X198092163Y-81395687D01*
X198100958Y-81391205D01*
X198268445Y-81288568D01*
X198277400Y-81278670D01*
X203042160Y-81278670D01*
X203047887Y-81286320D01*
X203219042Y-81391205D01*
X203227837Y-81395687D01*
X203437988Y-81482734D01*
X203447373Y-81485783D01*
X203668554Y-81538885D01*
X203678301Y-81540428D01*
X203905070Y-81558275D01*
X203914930Y-81558275D01*
X204141699Y-81540428D01*
X204151446Y-81538885D01*
X204372627Y-81485783D01*
X204382012Y-81482734D01*
X204592163Y-81395687D01*
X204600958Y-81391205D01*
X204768445Y-81288568D01*
X204777907Y-81278110D01*
X204774124Y-81269334D01*
X203922812Y-80418022D01*
X203908868Y-80410408D01*
X203907035Y-80410539D01*
X203900420Y-80414790D01*
X203048920Y-81266290D01*
X203042160Y-81278670D01*
X198277400Y-81278670D01*
X198277907Y-81278110D01*
X198274124Y-81269334D01*
X197422812Y-80418022D01*
X197408868Y-80410408D01*
X197407035Y-80410539D01*
X197400420Y-80414790D01*
X196548920Y-81266290D01*
X196542160Y-81278670D01*
X188349234Y-81278670D01*
X189576974Y-80050930D01*
X195897725Y-80050930D01*
X195915572Y-80277699D01*
X195917115Y-80287446D01*
X195970217Y-80508627D01*
X195973266Y-80518012D01*
X196060313Y-80728163D01*
X196064795Y-80736958D01*
X196167432Y-80904445D01*
X196177890Y-80913907D01*
X196186666Y-80910124D01*
X197037978Y-80058812D01*
X197044356Y-80047132D01*
X197774408Y-80047132D01*
X197774539Y-80048965D01*
X197778790Y-80055580D01*
X198630290Y-80907080D01*
X198642670Y-80913840D01*
X198650320Y-80908113D01*
X198755205Y-80736958D01*
X198759687Y-80728163D01*
X198846734Y-80518012D01*
X198849783Y-80508627D01*
X198902885Y-80287446D01*
X198904428Y-80277699D01*
X198922275Y-80050930D01*
X202397725Y-80050930D01*
X202415572Y-80277699D01*
X202417115Y-80287446D01*
X202470217Y-80508627D01*
X202473266Y-80518012D01*
X202560313Y-80728163D01*
X202564795Y-80736958D01*
X202667432Y-80904445D01*
X202677890Y-80913907D01*
X202686666Y-80910124D01*
X203537978Y-80058812D01*
X203544356Y-80047132D01*
X204274408Y-80047132D01*
X204274539Y-80048965D01*
X204278790Y-80055580D01*
X205130290Y-80907080D01*
X205142670Y-80913840D01*
X205150320Y-80908113D01*
X205255205Y-80736958D01*
X205259687Y-80728163D01*
X205346734Y-80518012D01*
X205349783Y-80508627D01*
X205402885Y-80287446D01*
X205404428Y-80277699D01*
X205422275Y-80050930D01*
X205422275Y-80041070D01*
X205404428Y-79814301D01*
X205402885Y-79804554D01*
X205349783Y-79583373D01*
X205346734Y-79573988D01*
X205259687Y-79363837D01*
X205255205Y-79355042D01*
X205152568Y-79187555D01*
X205142110Y-79178093D01*
X205133334Y-79181876D01*
X204282022Y-80033188D01*
X204274408Y-80047132D01*
X203544356Y-80047132D01*
X203545592Y-80044868D01*
X203545461Y-80043035D01*
X203541210Y-80036420D01*
X202689710Y-79184920D01*
X202677330Y-79178160D01*
X202669680Y-79183887D01*
X202564795Y-79355042D01*
X202560313Y-79363837D01*
X202473266Y-79573988D01*
X202470217Y-79583373D01*
X202417115Y-79804554D01*
X202415572Y-79814301D01*
X202397725Y-80041070D01*
X202397725Y-80050930D01*
X198922275Y-80050930D01*
X198922275Y-80041070D01*
X198904428Y-79814301D01*
X198902885Y-79804554D01*
X198849783Y-79583373D01*
X198846734Y-79573988D01*
X198759687Y-79363837D01*
X198755205Y-79355042D01*
X198652568Y-79187555D01*
X198642110Y-79178093D01*
X198633334Y-79181876D01*
X197782022Y-80033188D01*
X197774408Y-80047132D01*
X197044356Y-80047132D01*
X197045592Y-80044868D01*
X197045461Y-80043035D01*
X197041210Y-80036420D01*
X196189710Y-79184920D01*
X196177330Y-79178160D01*
X196169680Y-79183887D01*
X196064795Y-79355042D01*
X196060313Y-79363837D01*
X195973266Y-79573988D01*
X195970217Y-79583373D01*
X195917115Y-79804554D01*
X195915572Y-79814301D01*
X195897725Y-80041070D01*
X195897725Y-80050930D01*
X189576974Y-80050930D01*
X190814014Y-78813890D01*
X196542093Y-78813890D01*
X196545876Y-78822666D01*
X197397188Y-79673978D01*
X197411132Y-79681592D01*
X197412965Y-79681461D01*
X197419580Y-79677210D01*
X198271080Y-78825710D01*
X198277534Y-78813890D01*
X203042093Y-78813890D01*
X203045876Y-78822666D01*
X203897188Y-79673978D01*
X203911132Y-79681592D01*
X203912965Y-79681461D01*
X203919580Y-79677210D01*
X204771080Y-78825710D01*
X204777840Y-78813330D01*
X204772113Y-78805680D01*
X204600958Y-78700795D01*
X204592163Y-78696313D01*
X204382012Y-78609266D01*
X204372627Y-78606217D01*
X204151446Y-78553115D01*
X204141699Y-78551572D01*
X203914930Y-78533725D01*
X203905070Y-78533725D01*
X203678301Y-78551572D01*
X203668554Y-78553115D01*
X203447373Y-78606217D01*
X203437988Y-78609266D01*
X203227837Y-78696313D01*
X203219042Y-78700795D01*
X203051555Y-78803432D01*
X203042093Y-78813890D01*
X198277534Y-78813890D01*
X198277840Y-78813330D01*
X198272113Y-78805680D01*
X198100958Y-78700795D01*
X198092163Y-78696313D01*
X197882012Y-78609266D01*
X197872627Y-78606217D01*
X197651446Y-78553115D01*
X197641699Y-78551572D01*
X197414930Y-78533725D01*
X197405070Y-78533725D01*
X197178301Y-78551572D01*
X197168554Y-78553115D01*
X196947373Y-78606217D01*
X196937988Y-78609266D01*
X196727837Y-78696313D01*
X196719042Y-78700795D01*
X196551555Y-78803432D01*
X196542093Y-78813890D01*
X190814014Y-78813890D01*
X192996499Y-76631405D01*
X193058811Y-76597379D01*
X193085594Y-76594500D01*
X211830274Y-76594500D01*
X211898395Y-76614502D01*
X211937707Y-76654665D01*
X212005987Y-76766088D01*
X212152250Y-76934938D01*
X212324126Y-77077632D01*
X212370663Y-77104826D01*
X212397445Y-77120476D01*
X212446169Y-77172114D01*
X212459240Y-77241897D01*
X212432509Y-77307669D01*
X212392055Y-77341027D01*
X212379607Y-77347507D01*
X212375474Y-77350610D01*
X212375471Y-77350612D01*
X212351247Y-77368800D01*
X212200965Y-77481635D01*
X212046629Y-77643138D01*
X211920743Y-77827680D01*
X211826688Y-78030305D01*
X211766989Y-78245570D01*
X211743251Y-78467695D01*
X211743548Y-78472848D01*
X211743548Y-78472851D01*
X211753428Y-78644199D01*
X211756110Y-78690715D01*
X211757247Y-78695761D01*
X211757248Y-78695767D01*
X211768861Y-78747297D01*
X211805222Y-78908639D01*
X211861607Y-79047500D01*
X211885030Y-79105183D01*
X211889266Y-79115616D01*
X211891965Y-79120020D01*
X212002411Y-79300252D01*
X212005987Y-79306088D01*
X212152250Y-79474938D01*
X212324126Y-79617632D01*
X212517000Y-79730338D01*
X212725692Y-79810030D01*
X212730760Y-79811061D01*
X212730763Y-79811062D01*
X212838017Y-79832883D01*
X212944597Y-79854567D01*
X212949772Y-79854757D01*
X212949774Y-79854757D01*
X213162673Y-79862564D01*
X213162677Y-79862564D01*
X213167837Y-79862753D01*
X213172957Y-79862097D01*
X213172959Y-79862097D01*
X213384288Y-79835025D01*
X213384289Y-79835025D01*
X213389416Y-79834368D01*
X213394366Y-79832883D01*
X213598429Y-79771661D01*
X213598434Y-79771659D01*
X213603384Y-79770174D01*
X213803994Y-79671896D01*
X213985860Y-79542173D01*
X214144096Y-79384489D01*
X214199652Y-79307175D01*
X214271435Y-79207277D01*
X214274453Y-79203077D01*
X214282125Y-79187555D01*
X214371136Y-79007453D01*
X214371137Y-79007451D01*
X214373430Y-79002811D01*
X214427238Y-78825710D01*
X214436865Y-78794023D01*
X214436865Y-78794021D01*
X214438370Y-78789069D01*
X214467529Y-78567590D01*
X214467883Y-78553115D01*
X214469074Y-78504365D01*
X214469074Y-78504361D01*
X214469156Y-78501000D01*
X214450852Y-78278361D01*
X214396431Y-78061702D01*
X214307354Y-77856840D01*
X214186014Y-77669277D01*
X214035670Y-77504051D01*
X214031619Y-77500852D01*
X214031615Y-77500848D01*
X213864414Y-77368800D01*
X213864410Y-77368798D01*
X213860359Y-77365598D01*
X213819053Y-77342796D01*
X213769084Y-77292364D01*
X213754312Y-77222921D01*
X213779428Y-77156516D01*
X213806780Y-77129909D01*
X213864969Y-77088403D01*
X213985860Y-77002173D01*
X213997129Y-76990944D01*
X214140435Y-76848137D01*
X214144096Y-76844489D01*
X214274453Y-76663077D01*
X214278611Y-76654665D01*
X214371136Y-76467453D01*
X214371137Y-76467451D01*
X214373430Y-76462811D01*
X214438370Y-76249069D01*
X214467529Y-76027590D01*
X214467611Y-76024240D01*
X214469074Y-75964365D01*
X214469074Y-75964361D01*
X214469156Y-75961000D01*
X214450852Y-75738361D01*
X214396431Y-75521702D01*
X214307354Y-75316840D01*
X214241907Y-75215674D01*
X214188822Y-75133617D01*
X214188820Y-75133614D01*
X214186014Y-75129277D01*
X214170662Y-75112405D01*
X214038798Y-74967488D01*
X214007746Y-74903642D01*
X214016141Y-74833143D01*
X214061317Y-74778375D01*
X214087761Y-74764706D01*
X214194297Y-74724767D01*
X214202705Y-74721615D01*
X214319261Y-74634261D01*
X214406615Y-74517705D01*
X214457745Y-74381316D01*
X214464500Y-74319134D01*
X214464500Y-72522866D01*
X214457745Y-72460684D01*
X214406615Y-72324295D01*
X214319261Y-72207739D01*
X214202705Y-72120385D01*
X214066316Y-72069255D01*
X214004134Y-72062500D01*
X212207866Y-72062500D01*
X212207866Y-72062157D01*
X212140582Y-72046300D01*
X212113771Y-72025866D01*
X208883000Y-68795095D01*
X208848974Y-68732783D01*
X208854039Y-68661968D01*
X208896586Y-68605132D01*
X208963106Y-68580321D01*
X208972095Y-68580000D01*
X215265500Y-68580000D01*
X215333621Y-68600002D01*
X215380114Y-68653658D01*
X215391500Y-68706000D01*
X215391500Y-110227183D01*
X215371498Y-110295304D01*
X215354595Y-110316278D01*
X210646278Y-115024595D01*
X210583966Y-115058621D01*
X210557183Y-115061500D01*
X94242817Y-115061500D01*
X94174696Y-115041498D01*
X94153722Y-115024595D01*
X89445405Y-110316278D01*
X89411379Y-110253966D01*
X89408500Y-110227183D01*
X89408500Y-108667969D01*
X150428266Y-108667969D01*
X150433993Y-108675619D01*
X150605013Y-108780420D01*
X150613807Y-108784901D01*
X150823882Y-108871917D01*
X150833267Y-108874966D01*
X151054369Y-108928049D01*
X151064116Y-108929592D01*
X151290805Y-108947433D01*
X151300665Y-108947433D01*
X151527354Y-108929592D01*
X151537101Y-108928049D01*
X151758203Y-108874966D01*
X151767588Y-108871917D01*
X151977663Y-108784901D01*
X151986457Y-108780420D01*
X152153811Y-108677866D01*
X152163271Y-108667410D01*
X152159487Y-108658632D01*
X151308547Y-107807692D01*
X151294603Y-107800078D01*
X151292770Y-107800209D01*
X151286155Y-107804460D01*
X150435026Y-108655589D01*
X150428266Y-108667969D01*
X89408500Y-108667969D01*
X89408500Y-107440600D01*
X149783972Y-107440600D01*
X149801813Y-107667289D01*
X149803356Y-107677036D01*
X149856439Y-107898138D01*
X149859488Y-107907523D01*
X149946504Y-108117598D01*
X149950985Y-108126392D01*
X150053539Y-108293746D01*
X150063995Y-108303206D01*
X150072773Y-108299422D01*
X150923713Y-107448482D01*
X150931327Y-107434538D01*
X150931196Y-107432705D01*
X150926945Y-107426090D01*
X150075816Y-106574961D01*
X150063436Y-106568201D01*
X150055786Y-106573928D01*
X149950985Y-106744948D01*
X149946504Y-106753742D01*
X149859488Y-106963817D01*
X149856439Y-106973202D01*
X149803356Y-107194304D01*
X149801813Y-107204051D01*
X149783972Y-107430740D01*
X149783972Y-107440600D01*
X89408500Y-107440600D01*
X89408500Y-106203930D01*
X150428199Y-106203930D01*
X150431983Y-106212708D01*
X151282923Y-107063648D01*
X151296867Y-107071262D01*
X151298700Y-107071131D01*
X151305315Y-107066880D01*
X152156444Y-106215751D01*
X152163204Y-106203371D01*
X152157477Y-106195721D01*
X151986457Y-106090920D01*
X151977663Y-106086439D01*
X151767588Y-105999423D01*
X151758203Y-105996374D01*
X151537101Y-105943291D01*
X151527354Y-105941748D01*
X151300665Y-105923907D01*
X151290805Y-105923907D01*
X151064116Y-105941748D01*
X151054369Y-105943291D01*
X150833267Y-105996374D01*
X150823882Y-105999423D01*
X150613807Y-106086439D01*
X150605013Y-106090920D01*
X150437659Y-106193474D01*
X150428199Y-106203930D01*
X89408500Y-106203930D01*
X89408500Y-103705670D01*
X145956930Y-103705670D01*
X145975560Y-103942381D01*
X146030990Y-104173264D01*
X146121855Y-104392633D01*
X146124441Y-104396853D01*
X146243336Y-104590872D01*
X146243340Y-104590878D01*
X146245919Y-104595086D01*
X146400126Y-104775639D01*
X146580679Y-104929846D01*
X146584887Y-104932425D01*
X146584893Y-104932429D01*
X146778912Y-105051324D01*
X146783132Y-105053910D01*
X146787702Y-105055803D01*
X146787706Y-105055805D01*
X146997928Y-105142881D01*
X147002501Y-105144775D01*
X147082704Y-105164030D01*
X147228571Y-105199050D01*
X147228577Y-105199051D01*
X147233384Y-105200205D01*
X147470095Y-105218835D01*
X147706806Y-105200205D01*
X147711613Y-105199051D01*
X147711619Y-105199050D01*
X147857486Y-105164030D01*
X147937689Y-105144775D01*
X147942262Y-105142881D01*
X148152484Y-105055805D01*
X148152488Y-105055803D01*
X148157058Y-105053910D01*
X148161278Y-105051324D01*
X148355297Y-104932429D01*
X148355303Y-104932425D01*
X148359511Y-104929846D01*
X148540064Y-104775639D01*
X148694271Y-104595086D01*
X148696850Y-104590878D01*
X148696854Y-104590872D01*
X148815749Y-104396853D01*
X148818335Y-104392633D01*
X148909200Y-104173264D01*
X148964630Y-103942381D01*
X148983260Y-103705670D01*
X148964630Y-103468959D01*
X148909200Y-103238076D01*
X148818335Y-103018707D01*
X148815749Y-103014487D01*
X148696854Y-102820468D01*
X148696850Y-102820462D01*
X148694271Y-102816254D01*
X148546851Y-102643648D01*
X148543272Y-102639457D01*
X148540064Y-102635701D01*
X148359511Y-102481494D01*
X148355303Y-102478915D01*
X148355297Y-102478911D01*
X148161278Y-102360016D01*
X148157058Y-102357430D01*
X148152488Y-102355537D01*
X148152484Y-102355535D01*
X147942262Y-102268459D01*
X147942260Y-102268458D01*
X147937689Y-102266565D01*
X147857486Y-102247310D01*
X147711619Y-102212290D01*
X147711613Y-102212289D01*
X147706806Y-102211135D01*
X147470095Y-102192505D01*
X147233384Y-102211135D01*
X147228577Y-102212289D01*
X147228571Y-102212290D01*
X147082704Y-102247310D01*
X147002501Y-102266565D01*
X146997930Y-102268458D01*
X146997928Y-102268459D01*
X146787706Y-102355535D01*
X146787702Y-102355537D01*
X146783132Y-102357430D01*
X146778912Y-102360016D01*
X146584893Y-102478911D01*
X146584887Y-102478915D01*
X146580679Y-102481494D01*
X146400126Y-102635701D01*
X146396918Y-102639457D01*
X146393339Y-102643648D01*
X146245919Y-102816254D01*
X146243340Y-102820462D01*
X146243336Y-102820468D01*
X146124441Y-103014487D01*
X146121855Y-103018707D01*
X146030990Y-103238076D01*
X145975560Y-103468959D01*
X145956930Y-103705670D01*
X89408500Y-103705670D01*
X89408500Y-99192703D01*
X99490743Y-99192703D01*
X99528268Y-99477734D01*
X99604129Y-99755036D01*
X99611267Y-99771770D01*
X99712425Y-100008930D01*
X99716923Y-100019476D01*
X99730882Y-100042799D01*
X99846377Y-100235777D01*
X99864561Y-100266161D01*
X100044313Y-100490528D01*
X100252851Y-100688423D01*
X100486317Y-100856186D01*
X100490112Y-100858195D01*
X100490113Y-100858196D01*
X100511869Y-100869715D01*
X100740392Y-100990712D01*
X100764699Y-100999607D01*
X100976669Y-101077177D01*
X101010373Y-101089511D01*
X101291264Y-101150755D01*
X101319841Y-101153004D01*
X101514282Y-101168307D01*
X101514291Y-101168307D01*
X101516739Y-101168500D01*
X101672271Y-101168500D01*
X101674407Y-101168354D01*
X101674418Y-101168354D01*
X101882548Y-101154165D01*
X101882554Y-101154164D01*
X101886825Y-101153873D01*
X101891020Y-101153004D01*
X101891022Y-101153004D01*
X102027583Y-101124724D01*
X102168342Y-101095574D01*
X102439343Y-100999607D01*
X102575336Y-100929416D01*
X102691005Y-100869715D01*
X102691006Y-100869715D01*
X102694812Y-100867750D01*
X102698313Y-100865289D01*
X102698317Y-100865287D01*
X102889127Y-100731183D01*
X102930023Y-100702441D01*
X103070900Y-100571530D01*
X103137479Y-100509661D01*
X103137481Y-100509658D01*
X103140622Y-100506740D01*
X103322713Y-100284268D01*
X103472927Y-100039142D01*
X103474715Y-100035070D01*
X103488354Y-100004000D01*
X110246835Y-100004000D01*
X110265465Y-100240711D01*
X110266619Y-100245518D01*
X110266620Y-100245524D01*
X110301640Y-100391391D01*
X110320895Y-100471594D01*
X110322788Y-100476165D01*
X110322789Y-100476167D01*
X110394807Y-100650034D01*
X110411760Y-100690963D01*
X110414346Y-100695183D01*
X110533241Y-100889202D01*
X110533245Y-100889208D01*
X110535824Y-100893416D01*
X110690031Y-101073969D01*
X110870584Y-101228176D01*
X110874792Y-101230755D01*
X110874798Y-101230759D01*
X110929330Y-101264176D01*
X111073037Y-101352240D01*
X111077607Y-101354133D01*
X111077611Y-101354135D01*
X111277015Y-101436730D01*
X111292406Y-101443105D01*
X111372609Y-101462360D01*
X111518476Y-101497380D01*
X111518482Y-101497381D01*
X111523289Y-101498535D01*
X111760000Y-101517165D01*
X111996711Y-101498535D01*
X112001518Y-101497381D01*
X112001524Y-101497380D01*
X112147391Y-101462360D01*
X112227594Y-101443105D01*
X112242985Y-101436730D01*
X112442389Y-101354135D01*
X112442393Y-101354133D01*
X112446963Y-101352240D01*
X112590670Y-101264176D01*
X112645202Y-101230759D01*
X112645208Y-101230755D01*
X112649416Y-101228176D01*
X112829969Y-101073969D01*
X112984176Y-100893416D01*
X112986755Y-100889208D01*
X112986759Y-100889202D01*
X113104133Y-100697665D01*
X113156781Y-100650034D01*
X113211566Y-100637500D01*
X116808434Y-100637500D01*
X116876555Y-100657502D01*
X116915867Y-100697665D01*
X117033241Y-100889202D01*
X117033245Y-100889208D01*
X117035824Y-100893416D01*
X117190031Y-101073969D01*
X117370584Y-101228176D01*
X117374792Y-101230755D01*
X117374798Y-101230759D01*
X117429330Y-101264176D01*
X117573037Y-101352240D01*
X117577607Y-101354133D01*
X117577611Y-101354135D01*
X117777015Y-101436730D01*
X117792406Y-101443105D01*
X117872609Y-101462360D01*
X118018476Y-101497380D01*
X118018482Y-101497381D01*
X118023289Y-101498535D01*
X118260000Y-101517165D01*
X118496711Y-101498535D01*
X118501518Y-101497381D01*
X118501524Y-101497380D01*
X118647391Y-101462360D01*
X118727594Y-101443105D01*
X118742985Y-101436730D01*
X118942389Y-101354135D01*
X118942393Y-101354133D01*
X118946963Y-101352240D01*
X119090670Y-101264176D01*
X119145202Y-101230759D01*
X119145208Y-101230755D01*
X119149416Y-101228176D01*
X119329969Y-101073969D01*
X119484176Y-100893416D01*
X119486755Y-100889208D01*
X119486759Y-100889202D01*
X119605654Y-100695183D01*
X119608240Y-100690963D01*
X119625194Y-100650034D01*
X119697211Y-100476167D01*
X119697212Y-100476165D01*
X119699105Y-100471594D01*
X119718360Y-100391391D01*
X119753380Y-100245524D01*
X119753381Y-100245518D01*
X119754535Y-100240711D01*
X119773165Y-100004000D01*
X119754535Y-99767289D01*
X119752542Y-99758984D01*
X119714023Y-99598544D01*
X119699105Y-99536406D01*
X119676518Y-99481876D01*
X119610135Y-99321611D01*
X119610133Y-99321607D01*
X119608240Y-99317037D01*
X119545579Y-99214784D01*
X119486759Y-99118798D01*
X119486755Y-99118792D01*
X119484176Y-99114584D01*
X119329969Y-98934031D01*
X119149416Y-98779824D01*
X119145208Y-98777245D01*
X119145202Y-98777241D01*
X118951183Y-98658346D01*
X118946963Y-98655760D01*
X118942393Y-98653867D01*
X118942389Y-98653865D01*
X118732167Y-98566789D01*
X118732165Y-98566788D01*
X118727594Y-98564895D01*
X118645046Y-98545077D01*
X118501524Y-98510620D01*
X118501518Y-98510619D01*
X118496711Y-98509465D01*
X118260000Y-98490835D01*
X118023289Y-98509465D01*
X118018482Y-98510619D01*
X118018476Y-98510620D01*
X117874954Y-98545077D01*
X117792406Y-98564895D01*
X117787835Y-98566788D01*
X117787833Y-98566789D01*
X117577611Y-98653865D01*
X117577607Y-98653867D01*
X117573037Y-98655760D01*
X117568817Y-98658346D01*
X117374798Y-98777241D01*
X117374792Y-98777245D01*
X117370584Y-98779824D01*
X117190031Y-98934031D01*
X117035824Y-99114584D01*
X117033245Y-99118792D01*
X117033241Y-99118798D01*
X116915867Y-99310335D01*
X116863219Y-99357966D01*
X116808434Y-99370500D01*
X113211566Y-99370500D01*
X113143445Y-99350498D01*
X113104133Y-99310335D01*
X112986759Y-99118798D01*
X112986755Y-99118792D01*
X112984176Y-99114584D01*
X112829969Y-98934031D01*
X112649416Y-98779824D01*
X112645208Y-98777245D01*
X112645202Y-98777241D01*
X112451183Y-98658346D01*
X112446963Y-98655760D01*
X112442393Y-98653867D01*
X112442389Y-98653865D01*
X112232167Y-98566789D01*
X112232165Y-98566788D01*
X112227594Y-98564895D01*
X112145046Y-98545077D01*
X112001524Y-98510620D01*
X112001518Y-98510619D01*
X111996711Y-98509465D01*
X111760000Y-98490835D01*
X111523289Y-98509465D01*
X111518482Y-98510619D01*
X111518476Y-98510620D01*
X111374954Y-98545077D01*
X111292406Y-98564895D01*
X111287835Y-98566788D01*
X111287833Y-98566789D01*
X111077611Y-98653865D01*
X111077607Y-98653867D01*
X111073037Y-98655760D01*
X111068817Y-98658346D01*
X110874798Y-98777241D01*
X110874792Y-98777245D01*
X110870584Y-98779824D01*
X110690031Y-98934031D01*
X110535824Y-99114584D01*
X110533245Y-99118792D01*
X110533241Y-99118798D01*
X110474421Y-99214784D01*
X110411760Y-99317037D01*
X110409867Y-99321607D01*
X110409865Y-99321611D01*
X110343482Y-99481876D01*
X110320895Y-99536406D01*
X110305977Y-99598544D01*
X110267459Y-99758984D01*
X110265465Y-99767289D01*
X110246835Y-100004000D01*
X103488354Y-100004000D01*
X103586757Y-99779830D01*
X103588483Y-99775898D01*
X103667244Y-99499406D01*
X103707751Y-99214784D01*
X103707845Y-99196951D01*
X103709235Y-98931583D01*
X103709235Y-98931576D01*
X103709257Y-98927297D01*
X103671732Y-98642266D01*
X103595871Y-98364964D01*
X103483077Y-98100524D01*
X103335439Y-97853839D01*
X103155687Y-97629472D01*
X102947149Y-97431577D01*
X102713683Y-97263814D01*
X102691843Y-97252250D01*
X102668654Y-97239972D01*
X102459608Y-97129288D01*
X102200391Y-97034428D01*
X102193658Y-97031964D01*
X102193656Y-97031963D01*
X102189627Y-97030489D01*
X101908736Y-96969245D01*
X101877685Y-96966801D01*
X101685718Y-96951693D01*
X101685709Y-96951693D01*
X101683261Y-96951500D01*
X101527729Y-96951500D01*
X101525593Y-96951646D01*
X101525582Y-96951646D01*
X101317452Y-96965835D01*
X101317446Y-96965836D01*
X101313175Y-96966127D01*
X101308980Y-96966996D01*
X101308978Y-96966996D01*
X101261955Y-96976734D01*
X101031658Y-97024426D01*
X100760657Y-97120393D01*
X100505188Y-97252250D01*
X100501687Y-97254711D01*
X100501683Y-97254713D01*
X100387582Y-97334905D01*
X100269977Y-97417559D01*
X100059378Y-97613260D01*
X99877287Y-97835732D01*
X99727073Y-98080858D01*
X99611517Y-98344102D01*
X99532756Y-98620594D01*
X99492249Y-98905216D01*
X99492227Y-98909505D01*
X99492226Y-98909512D01*
X99490765Y-99188417D01*
X99490743Y-99192703D01*
X89408500Y-99192703D01*
X89408500Y-96736670D01*
X110892160Y-96736670D01*
X110897887Y-96744320D01*
X111069042Y-96849205D01*
X111077837Y-96853687D01*
X111287988Y-96940734D01*
X111297373Y-96943783D01*
X111518554Y-96996885D01*
X111528301Y-96998428D01*
X111755070Y-97016275D01*
X111764930Y-97016275D01*
X111991699Y-96998428D01*
X112001446Y-96996885D01*
X112222627Y-96943783D01*
X112232012Y-96940734D01*
X112442163Y-96853687D01*
X112450958Y-96849205D01*
X112618445Y-96746568D01*
X112627400Y-96736670D01*
X117392160Y-96736670D01*
X117397887Y-96744320D01*
X117569042Y-96849205D01*
X117577837Y-96853687D01*
X117787988Y-96940734D01*
X117797373Y-96943783D01*
X118018554Y-96996885D01*
X118028301Y-96998428D01*
X118255070Y-97016275D01*
X118264930Y-97016275D01*
X118491699Y-96998428D01*
X118501446Y-96996885D01*
X118722627Y-96943783D01*
X118732012Y-96940734D01*
X118942163Y-96853687D01*
X118950958Y-96849205D01*
X119118445Y-96746568D01*
X119127907Y-96736110D01*
X119124124Y-96727334D01*
X118272812Y-95876022D01*
X118258868Y-95868408D01*
X118257035Y-95868539D01*
X118250420Y-95872790D01*
X117398920Y-96724290D01*
X117392160Y-96736670D01*
X112627400Y-96736670D01*
X112627907Y-96736110D01*
X112624124Y-96727334D01*
X111772812Y-95876022D01*
X111758868Y-95868408D01*
X111757035Y-95868539D01*
X111750420Y-95872790D01*
X110898920Y-96724290D01*
X110892160Y-96736670D01*
X89408500Y-96736670D01*
X89408500Y-95508930D01*
X110247725Y-95508930D01*
X110265572Y-95735699D01*
X110267115Y-95745446D01*
X110320217Y-95966627D01*
X110323266Y-95976012D01*
X110410313Y-96186163D01*
X110414795Y-96194958D01*
X110517432Y-96362445D01*
X110527890Y-96371907D01*
X110536666Y-96368124D01*
X111387978Y-95516812D01*
X111394356Y-95505132D01*
X112124408Y-95505132D01*
X112124539Y-95506965D01*
X112128790Y-95513580D01*
X112980290Y-96365080D01*
X112992670Y-96371840D01*
X113000320Y-96366113D01*
X113105205Y-96194958D01*
X113109687Y-96186163D01*
X113196734Y-95976012D01*
X113199783Y-95966627D01*
X113252885Y-95745446D01*
X113254428Y-95735699D01*
X113272275Y-95508930D01*
X116747725Y-95508930D01*
X116765572Y-95735699D01*
X116767115Y-95745446D01*
X116820217Y-95966627D01*
X116823266Y-95976012D01*
X116910313Y-96186163D01*
X116914795Y-96194958D01*
X117017432Y-96362445D01*
X117027890Y-96371907D01*
X117036666Y-96368124D01*
X117887978Y-95516812D01*
X117894356Y-95505132D01*
X118624408Y-95505132D01*
X118624539Y-95506965D01*
X118628790Y-95513580D01*
X119480290Y-96365080D01*
X119492670Y-96371840D01*
X119500320Y-96366113D01*
X119595227Y-96211240D01*
X143553332Y-96211240D01*
X143571173Y-96437929D01*
X143572716Y-96447676D01*
X143625799Y-96668778D01*
X143628848Y-96678163D01*
X143715864Y-96888238D01*
X143720345Y-96897032D01*
X143822899Y-97064386D01*
X143833355Y-97073846D01*
X143842133Y-97070062D01*
X144693073Y-96219122D01*
X144699451Y-96207442D01*
X145429503Y-96207442D01*
X145429634Y-96209275D01*
X145433885Y-96215890D01*
X146285014Y-97067019D01*
X146297394Y-97073779D01*
X146305044Y-97068052D01*
X146409845Y-96897032D01*
X146414326Y-96888238D01*
X146501342Y-96678163D01*
X146504391Y-96668778D01*
X146557474Y-96447676D01*
X146559017Y-96437929D01*
X146576858Y-96211240D01*
X146576858Y-96201380D01*
X146559017Y-95974691D01*
X146557474Y-95964944D01*
X146504391Y-95743842D01*
X146501342Y-95734457D01*
X146414326Y-95524382D01*
X146409845Y-95515588D01*
X146307291Y-95348234D01*
X146296835Y-95338774D01*
X146288057Y-95342558D01*
X145437117Y-96193498D01*
X145429503Y-96207442D01*
X144699451Y-96207442D01*
X144700687Y-96205178D01*
X144700556Y-96203345D01*
X144696305Y-96196730D01*
X143845176Y-95345601D01*
X143832796Y-95338841D01*
X143825146Y-95344568D01*
X143720345Y-95515588D01*
X143715864Y-95524382D01*
X143628848Y-95734457D01*
X143625799Y-95743842D01*
X143572716Y-95964944D01*
X143571173Y-95974691D01*
X143553332Y-96201380D01*
X143553332Y-96211240D01*
X119595227Y-96211240D01*
X119605205Y-96194958D01*
X119609687Y-96186163D01*
X119696734Y-95976012D01*
X119699783Y-95966627D01*
X119752885Y-95745446D01*
X119754428Y-95735699D01*
X119772275Y-95508930D01*
X119772275Y-95499070D01*
X119754428Y-95272301D01*
X119752885Y-95262554D01*
X119699783Y-95041373D01*
X119696734Y-95031988D01*
X119672951Y-94974570D01*
X144197559Y-94974570D01*
X144201343Y-94983348D01*
X145052283Y-95834288D01*
X145066227Y-95841902D01*
X145068060Y-95841771D01*
X145074675Y-95837520D01*
X145925804Y-94986391D01*
X145932564Y-94974011D01*
X145926837Y-94966361D01*
X145755817Y-94861560D01*
X145747023Y-94857079D01*
X145536948Y-94770063D01*
X145527563Y-94767014D01*
X145306461Y-94713931D01*
X145296714Y-94712388D01*
X145070025Y-94694547D01*
X145060165Y-94694547D01*
X144833476Y-94712388D01*
X144823729Y-94713931D01*
X144602627Y-94767014D01*
X144593242Y-94770063D01*
X144383167Y-94857079D01*
X144374373Y-94861560D01*
X144207019Y-94964114D01*
X144197559Y-94974570D01*
X119672951Y-94974570D01*
X119609687Y-94821837D01*
X119605205Y-94813042D01*
X119502568Y-94645555D01*
X119492110Y-94636093D01*
X119483334Y-94639876D01*
X118632022Y-95491188D01*
X118624408Y-95505132D01*
X117894356Y-95505132D01*
X117895592Y-95502868D01*
X117895461Y-95501035D01*
X117891210Y-95494420D01*
X117039710Y-94642920D01*
X117027330Y-94636160D01*
X117019680Y-94641887D01*
X116914795Y-94813042D01*
X116910313Y-94821837D01*
X116823266Y-95031988D01*
X116820217Y-95041373D01*
X116767115Y-95262554D01*
X116765572Y-95272301D01*
X116747725Y-95499070D01*
X116747725Y-95508930D01*
X113272275Y-95508930D01*
X113272275Y-95499070D01*
X113254428Y-95272301D01*
X113252885Y-95262554D01*
X113199783Y-95041373D01*
X113196734Y-95031988D01*
X113109687Y-94821837D01*
X113105205Y-94813042D01*
X113002568Y-94645555D01*
X112992110Y-94636093D01*
X112983334Y-94639876D01*
X112132022Y-95491188D01*
X112124408Y-95505132D01*
X111394356Y-95505132D01*
X111395592Y-95502868D01*
X111395461Y-95501035D01*
X111391210Y-95494420D01*
X110539710Y-94642920D01*
X110527330Y-94636160D01*
X110519680Y-94641887D01*
X110414795Y-94813042D01*
X110410313Y-94821837D01*
X110323266Y-95031988D01*
X110320217Y-95041373D01*
X110267115Y-95262554D01*
X110265572Y-95272301D01*
X110247725Y-95499070D01*
X110247725Y-95508930D01*
X89408500Y-95508930D01*
X89408500Y-94271890D01*
X110892093Y-94271890D01*
X110895876Y-94280666D01*
X111747188Y-95131978D01*
X111761132Y-95139592D01*
X111762965Y-95139461D01*
X111769580Y-95135210D01*
X112621080Y-94283710D01*
X112627534Y-94271890D01*
X117392093Y-94271890D01*
X117395876Y-94280666D01*
X118247188Y-95131978D01*
X118261132Y-95139592D01*
X118262965Y-95139461D01*
X118269580Y-95135210D01*
X119121080Y-94283710D01*
X119127840Y-94271330D01*
X119122113Y-94263680D01*
X118950958Y-94158795D01*
X118942163Y-94154313D01*
X118732012Y-94067266D01*
X118722627Y-94064217D01*
X118501446Y-94011115D01*
X118491699Y-94009572D01*
X118264930Y-93991725D01*
X118255070Y-93991725D01*
X118028301Y-94009572D01*
X118018554Y-94011115D01*
X117797373Y-94064217D01*
X117787988Y-94067266D01*
X117577837Y-94154313D01*
X117569042Y-94158795D01*
X117401555Y-94261432D01*
X117392093Y-94271890D01*
X112627534Y-94271890D01*
X112627840Y-94271330D01*
X112622113Y-94263680D01*
X112450958Y-94158795D01*
X112442163Y-94154313D01*
X112232012Y-94067266D01*
X112222627Y-94064217D01*
X112001446Y-94011115D01*
X111991699Y-94009572D01*
X111764930Y-93991725D01*
X111755070Y-93991725D01*
X111528301Y-94009572D01*
X111518554Y-94011115D01*
X111297373Y-94064217D01*
X111287988Y-94067266D01*
X111077837Y-94154313D01*
X111069042Y-94158795D01*
X110901555Y-94261432D01*
X110892093Y-94271890D01*
X89408500Y-94271890D01*
X89408500Y-93705670D01*
X145956930Y-93705670D01*
X145975560Y-93942381D01*
X145976714Y-93947188D01*
X145976715Y-93947194D01*
X146000334Y-94045572D01*
X146030990Y-94173264D01*
X146032883Y-94177835D01*
X146032884Y-94177837D01*
X146091650Y-94319710D01*
X146121855Y-94392633D01*
X146124441Y-94396853D01*
X146243336Y-94590872D01*
X146243340Y-94590878D01*
X146245919Y-94595086D01*
X146347422Y-94713931D01*
X146392760Y-94767014D01*
X146400126Y-94775639D01*
X146580679Y-94929846D01*
X146584887Y-94932425D01*
X146584893Y-94932429D01*
X146778912Y-95051324D01*
X146783132Y-95053910D01*
X146787702Y-95055803D01*
X146787706Y-95055805D01*
X146989988Y-95139592D01*
X147002501Y-95144775D01*
X147082704Y-95164030D01*
X147228571Y-95199050D01*
X147228577Y-95199051D01*
X147233384Y-95200205D01*
X147470095Y-95218835D01*
X147706806Y-95200205D01*
X147711613Y-95199051D01*
X147711619Y-95199050D01*
X147857486Y-95164030D01*
X147937689Y-95144775D01*
X147950202Y-95139592D01*
X148152484Y-95055805D01*
X148152488Y-95055803D01*
X148157058Y-95053910D01*
X148161278Y-95051324D01*
X148355297Y-94932429D01*
X148355303Y-94932425D01*
X148359511Y-94929846D01*
X148540064Y-94775639D01*
X148547431Y-94767014D01*
X148592768Y-94713931D01*
X148694271Y-94595086D01*
X148696850Y-94590878D01*
X148696854Y-94590872D01*
X148815749Y-94396853D01*
X148818335Y-94392633D01*
X148848541Y-94319710D01*
X148907306Y-94177837D01*
X148907307Y-94177835D01*
X148909200Y-94173264D01*
X148939856Y-94045572D01*
X148963475Y-93947194D01*
X148963476Y-93947188D01*
X148964630Y-93942381D01*
X148981472Y-93728384D01*
X149006758Y-93662044D01*
X149063896Y-93619904D01*
X149134746Y-93615345D01*
X149196813Y-93649814D01*
X149214517Y-93672436D01*
X149320133Y-93844785D01*
X149474288Y-94025277D01*
X149654780Y-94179432D01*
X149857165Y-94303454D01*
X149861735Y-94305347D01*
X149861739Y-94305349D01*
X150071891Y-94392396D01*
X150071897Y-94392398D01*
X150076460Y-94394288D01*
X150081260Y-94395440D01*
X150081265Y-94395442D01*
X150186680Y-94420750D01*
X150307264Y-94449700D01*
X150543895Y-94468323D01*
X150780526Y-94449700D01*
X150901110Y-94420750D01*
X151006525Y-94395442D01*
X151006530Y-94395440D01*
X151011330Y-94394288D01*
X151015893Y-94392398D01*
X151015899Y-94392396D01*
X151226051Y-94305349D01*
X151226055Y-94305347D01*
X151230625Y-94303454D01*
X151433010Y-94179432D01*
X151613502Y-94025277D01*
X151767657Y-93844785D01*
X151891679Y-93642400D01*
X151900997Y-93619904D01*
X151980621Y-93427674D01*
X151980623Y-93427668D01*
X151982513Y-93423105D01*
X152037925Y-93192301D01*
X152056548Y-92955670D01*
X155533642Y-92955670D01*
X155552265Y-93192301D01*
X155607677Y-93423105D01*
X155609567Y-93427668D01*
X155609569Y-93427674D01*
X155689193Y-93619904D01*
X155698511Y-93642400D01*
X155822533Y-93844785D01*
X155976688Y-94025277D01*
X156157180Y-94179432D01*
X156359565Y-94303454D01*
X156364135Y-94305347D01*
X156364139Y-94305349D01*
X156574291Y-94392396D01*
X156574297Y-94392398D01*
X156578860Y-94394288D01*
X156583660Y-94395440D01*
X156583665Y-94395442D01*
X156689080Y-94420750D01*
X156809664Y-94449700D01*
X157046295Y-94468323D01*
X157282926Y-94449700D01*
X157403510Y-94420750D01*
X157508925Y-94395442D01*
X157508930Y-94395440D01*
X157513730Y-94394288D01*
X157518293Y-94392398D01*
X157518299Y-94392396D01*
X157728451Y-94305349D01*
X157728455Y-94305347D01*
X157733025Y-94303454D01*
X157935410Y-94179432D01*
X158115902Y-94025277D01*
X158270057Y-93844785D01*
X158375673Y-93672436D01*
X158428321Y-93624805D01*
X158498363Y-93613198D01*
X158563560Y-93641301D01*
X158603214Y-93700192D01*
X158608718Y-93728383D01*
X158625560Y-93942381D01*
X158626714Y-93947188D01*
X158626715Y-93947194D01*
X158650334Y-94045572D01*
X158680990Y-94173264D01*
X158682883Y-94177835D01*
X158682884Y-94177837D01*
X158741650Y-94319710D01*
X158771855Y-94392633D01*
X158774441Y-94396853D01*
X158893336Y-94590872D01*
X158893340Y-94590878D01*
X158895919Y-94595086D01*
X158997422Y-94713931D01*
X159042760Y-94767014D01*
X159050126Y-94775639D01*
X159230679Y-94929846D01*
X159234887Y-94932425D01*
X159234893Y-94932429D01*
X159428912Y-95051324D01*
X159433132Y-95053910D01*
X159437702Y-95055803D01*
X159437706Y-95055805D01*
X159639988Y-95139592D01*
X159652501Y-95144775D01*
X159732704Y-95164030D01*
X159878571Y-95199050D01*
X159878577Y-95199051D01*
X159883384Y-95200205D01*
X160120095Y-95218835D01*
X160356806Y-95200205D01*
X160361613Y-95199051D01*
X160361619Y-95199050D01*
X160507486Y-95164030D01*
X160587689Y-95144775D01*
X160600202Y-95139592D01*
X160802484Y-95055805D01*
X160802488Y-95055803D01*
X160807058Y-95053910D01*
X160811278Y-95051324D01*
X161005297Y-94932429D01*
X161005303Y-94932425D01*
X161009511Y-94929846D01*
X161190064Y-94775639D01*
X161197431Y-94767014D01*
X161242768Y-94713931D01*
X161344271Y-94595086D01*
X161346850Y-94590878D01*
X161346854Y-94590872D01*
X161465749Y-94396853D01*
X161468335Y-94392633D01*
X161498541Y-94319710D01*
X161557306Y-94177837D01*
X161557307Y-94177835D01*
X161559200Y-94173264D01*
X161589856Y-94045572D01*
X161613475Y-93947194D01*
X161613476Y-93947188D01*
X161614630Y-93942381D01*
X161633260Y-93705670D01*
X161614630Y-93468959D01*
X161604719Y-93427674D01*
X161560355Y-93242888D01*
X161559200Y-93238076D01*
X161557306Y-93233503D01*
X161470230Y-93023281D01*
X161470228Y-93023277D01*
X161468335Y-93018707D01*
X161456363Y-92999170D01*
X161346854Y-92820468D01*
X161346850Y-92820462D01*
X161344271Y-92816254D01*
X161190064Y-92635701D01*
X161009511Y-92481494D01*
X161005303Y-92478915D01*
X161005297Y-92478911D01*
X160811278Y-92360016D01*
X160807058Y-92357430D01*
X160802488Y-92355537D01*
X160802484Y-92355535D01*
X160592262Y-92268459D01*
X160592260Y-92268458D01*
X160587689Y-92266565D01*
X160507486Y-92247310D01*
X160361619Y-92212290D01*
X160361613Y-92212289D01*
X160356806Y-92211135D01*
X160120095Y-92192505D01*
X159883384Y-92211135D01*
X159878577Y-92212289D01*
X159878571Y-92212290D01*
X159732704Y-92247310D01*
X159652501Y-92266565D01*
X159647930Y-92268458D01*
X159647928Y-92268459D01*
X159437706Y-92355535D01*
X159437702Y-92355537D01*
X159433132Y-92357430D01*
X159428912Y-92360016D01*
X159234893Y-92478911D01*
X159234887Y-92478915D01*
X159230679Y-92481494D01*
X159050126Y-92635701D01*
X158895919Y-92816254D01*
X158893337Y-92820467D01*
X158893330Y-92820477D01*
X158790194Y-92988778D01*
X158737547Y-93036410D01*
X158667505Y-93048016D01*
X158602308Y-93019912D01*
X158562654Y-92961022D01*
X158557150Y-92932828D01*
X158553212Y-92882782D01*
X158540325Y-92719039D01*
X158484913Y-92488235D01*
X158483023Y-92483672D01*
X158483021Y-92483666D01*
X158395974Y-92273514D01*
X158395972Y-92273510D01*
X158394079Y-92268940D01*
X158270057Y-92066555D01*
X158115902Y-91886063D01*
X157935410Y-91731908D01*
X157733025Y-91607886D01*
X157728455Y-91605993D01*
X157728451Y-91605991D01*
X157518299Y-91518944D01*
X157518293Y-91518942D01*
X157513730Y-91517052D01*
X157508930Y-91515900D01*
X157508925Y-91515898D01*
X157403510Y-91490590D01*
X157282926Y-91461640D01*
X157046295Y-91443017D01*
X156809664Y-91461640D01*
X156689080Y-91490590D01*
X156583665Y-91515898D01*
X156583660Y-91515900D01*
X156578860Y-91517052D01*
X156574297Y-91518942D01*
X156574291Y-91518944D01*
X156364139Y-91605991D01*
X156364135Y-91605993D01*
X156359565Y-91607886D01*
X156157180Y-91731908D01*
X155976688Y-91886063D01*
X155822533Y-92066555D01*
X155698511Y-92268940D01*
X155696618Y-92273510D01*
X155696616Y-92273514D01*
X155609569Y-92483666D01*
X155609567Y-92483672D01*
X155607677Y-92488235D01*
X155552265Y-92719039D01*
X155533642Y-92955670D01*
X152056548Y-92955670D01*
X152037925Y-92719039D01*
X151982513Y-92488235D01*
X151980623Y-92483672D01*
X151980621Y-92483666D01*
X151893574Y-92273514D01*
X151893572Y-92273510D01*
X151891679Y-92268940D01*
X151767657Y-92066555D01*
X151613502Y-91886063D01*
X151433010Y-91731908D01*
X151230625Y-91607886D01*
X151226055Y-91605993D01*
X151226051Y-91605991D01*
X151015899Y-91518944D01*
X151015893Y-91518942D01*
X151011330Y-91517052D01*
X151006530Y-91515900D01*
X151006525Y-91515898D01*
X150901110Y-91490590D01*
X150780526Y-91461640D01*
X150543895Y-91443017D01*
X150307264Y-91461640D01*
X150186680Y-91490590D01*
X150081265Y-91515898D01*
X150081260Y-91515900D01*
X150076460Y-91517052D01*
X150071897Y-91518942D01*
X150071891Y-91518944D01*
X149861739Y-91605991D01*
X149861735Y-91605993D01*
X149857165Y-91607886D01*
X149654780Y-91731908D01*
X149474288Y-91886063D01*
X149320133Y-92066555D01*
X149196111Y-92268940D01*
X149194218Y-92273510D01*
X149194216Y-92273514D01*
X149107169Y-92483666D01*
X149107167Y-92483672D01*
X149105277Y-92488235D01*
X149049865Y-92719039D01*
X149036979Y-92882782D01*
X149033040Y-92932828D01*
X149007755Y-92999170D01*
X148950617Y-93041310D01*
X148879767Y-93045869D01*
X148817699Y-93011400D01*
X148799996Y-92988778D01*
X148696860Y-92820477D01*
X148696853Y-92820467D01*
X148694271Y-92816254D01*
X148540064Y-92635701D01*
X148359511Y-92481494D01*
X148355303Y-92478915D01*
X148355297Y-92478911D01*
X148161278Y-92360016D01*
X148157058Y-92357430D01*
X148152488Y-92355537D01*
X148152484Y-92355535D01*
X147942262Y-92268459D01*
X147942260Y-92268458D01*
X147937689Y-92266565D01*
X147857486Y-92247310D01*
X147711619Y-92212290D01*
X147711613Y-92212289D01*
X147706806Y-92211135D01*
X147470095Y-92192505D01*
X147233384Y-92211135D01*
X147228577Y-92212289D01*
X147228571Y-92212290D01*
X147082704Y-92247310D01*
X147002501Y-92266565D01*
X146997930Y-92268458D01*
X146997928Y-92268459D01*
X146787706Y-92355535D01*
X146787702Y-92355537D01*
X146783132Y-92357430D01*
X146778912Y-92360016D01*
X146584893Y-92478911D01*
X146584887Y-92478915D01*
X146580679Y-92481494D01*
X146400126Y-92635701D01*
X146245919Y-92816254D01*
X146243340Y-92820462D01*
X146243336Y-92820468D01*
X146133827Y-92999170D01*
X146121855Y-93018707D01*
X146119962Y-93023277D01*
X146119960Y-93023281D01*
X146032884Y-93233503D01*
X146030990Y-93238076D01*
X146029835Y-93242888D01*
X145985472Y-93427674D01*
X145975560Y-93468959D01*
X145956930Y-93705670D01*
X89408500Y-93705670D01*
X89408500Y-89844000D01*
X98816835Y-89844000D01*
X98835465Y-90080711D01*
X98890895Y-90311594D01*
X98892788Y-90316165D01*
X98892789Y-90316167D01*
X98964807Y-90490034D01*
X98981760Y-90530963D01*
X98984346Y-90535183D01*
X99103241Y-90729202D01*
X99103245Y-90729208D01*
X99105824Y-90733416D01*
X99260031Y-90913969D01*
X99440584Y-91068176D01*
X99444792Y-91070755D01*
X99444798Y-91070759D01*
X99638817Y-91189654D01*
X99643037Y-91192240D01*
X99647607Y-91194133D01*
X99647611Y-91194135D01*
X99857833Y-91281211D01*
X99862406Y-91283105D01*
X99942609Y-91302360D01*
X100088476Y-91337380D01*
X100088482Y-91337381D01*
X100093289Y-91338535D01*
X100330000Y-91357165D01*
X100566711Y-91338535D01*
X100571518Y-91337381D01*
X100571524Y-91337380D01*
X100717391Y-91302360D01*
X100797594Y-91283105D01*
X100802167Y-91281211D01*
X101012389Y-91194135D01*
X101012393Y-91194133D01*
X101016963Y-91192240D01*
X101021183Y-91189654D01*
X101215202Y-91070759D01*
X101215208Y-91070755D01*
X101219416Y-91068176D01*
X101399969Y-90913969D01*
X101554176Y-90733416D01*
X101556755Y-90729208D01*
X101556759Y-90729202D01*
X101674133Y-90537665D01*
X101726781Y-90490034D01*
X101781566Y-90477500D01*
X105378434Y-90477500D01*
X105446555Y-90497502D01*
X105485867Y-90537665D01*
X105603241Y-90729202D01*
X105603245Y-90729208D01*
X105605824Y-90733416D01*
X105760031Y-90913969D01*
X105940584Y-91068176D01*
X105944792Y-91070755D01*
X105944798Y-91070759D01*
X106138817Y-91189654D01*
X106143037Y-91192240D01*
X106147607Y-91194133D01*
X106147611Y-91194135D01*
X106357833Y-91281211D01*
X106362406Y-91283105D01*
X106442609Y-91302360D01*
X106588476Y-91337380D01*
X106588482Y-91337381D01*
X106593289Y-91338535D01*
X106830000Y-91357165D01*
X107066711Y-91338535D01*
X107071518Y-91337381D01*
X107071524Y-91337380D01*
X107217391Y-91302360D01*
X107297594Y-91283105D01*
X107302167Y-91281211D01*
X107512389Y-91194135D01*
X107512393Y-91194133D01*
X107516963Y-91192240D01*
X107521183Y-91189654D01*
X107715202Y-91070759D01*
X107715208Y-91070755D01*
X107719416Y-91068176D01*
X107899969Y-90913969D01*
X108054176Y-90733416D01*
X108056755Y-90729208D01*
X108056759Y-90729202D01*
X108175654Y-90535183D01*
X108178240Y-90530963D01*
X108195194Y-90490034D01*
X108267211Y-90316167D01*
X108267212Y-90316165D01*
X108269105Y-90311594D01*
X108324535Y-90080711D01*
X108343165Y-89844000D01*
X121676835Y-89844000D01*
X121695465Y-90080711D01*
X121750895Y-90311594D01*
X121752788Y-90316165D01*
X121752789Y-90316167D01*
X121824807Y-90490034D01*
X121841760Y-90530963D01*
X121844346Y-90535183D01*
X121963241Y-90729202D01*
X121963245Y-90729208D01*
X121965824Y-90733416D01*
X122120031Y-90913969D01*
X122300584Y-91068176D01*
X122304792Y-91070755D01*
X122304798Y-91070759D01*
X122498817Y-91189654D01*
X122503037Y-91192240D01*
X122507607Y-91194133D01*
X122507611Y-91194135D01*
X122717833Y-91281211D01*
X122722406Y-91283105D01*
X122802609Y-91302360D01*
X122948476Y-91337380D01*
X122948482Y-91337381D01*
X122953289Y-91338535D01*
X123190000Y-91357165D01*
X123426711Y-91338535D01*
X123431518Y-91337381D01*
X123431524Y-91337380D01*
X123577391Y-91302360D01*
X123657594Y-91283105D01*
X123662167Y-91281211D01*
X123872389Y-91194135D01*
X123872393Y-91194133D01*
X123876963Y-91192240D01*
X123881183Y-91189654D01*
X124075202Y-91070759D01*
X124075208Y-91070755D01*
X124079416Y-91068176D01*
X124259969Y-90913969D01*
X124414176Y-90733416D01*
X124416755Y-90729208D01*
X124416759Y-90729202D01*
X124534133Y-90537665D01*
X124586781Y-90490034D01*
X124641566Y-90477500D01*
X128238434Y-90477500D01*
X128306555Y-90497502D01*
X128345867Y-90537665D01*
X128463241Y-90729202D01*
X128463245Y-90729208D01*
X128465824Y-90733416D01*
X128620031Y-90913969D01*
X128800584Y-91068176D01*
X128804792Y-91070755D01*
X128804798Y-91070759D01*
X128998817Y-91189654D01*
X129003037Y-91192240D01*
X129007607Y-91194133D01*
X129007611Y-91194135D01*
X129217833Y-91281211D01*
X129222406Y-91283105D01*
X129302609Y-91302360D01*
X129448476Y-91337380D01*
X129448482Y-91337381D01*
X129453289Y-91338535D01*
X129690000Y-91357165D01*
X129926711Y-91338535D01*
X129931518Y-91337381D01*
X129931524Y-91337380D01*
X130077391Y-91302360D01*
X130157594Y-91283105D01*
X130162167Y-91281211D01*
X130372389Y-91194135D01*
X130372393Y-91194133D01*
X130376963Y-91192240D01*
X130381183Y-91189654D01*
X130575202Y-91070759D01*
X130575208Y-91070755D01*
X130579416Y-91068176D01*
X130759969Y-90913969D01*
X130914176Y-90733416D01*
X130916755Y-90729208D01*
X130916759Y-90729202D01*
X131035654Y-90535183D01*
X131038240Y-90530963D01*
X131055194Y-90490034D01*
X131127211Y-90316167D01*
X131127212Y-90316165D01*
X131129105Y-90311594D01*
X131184535Y-90080711D01*
X131203165Y-89844000D01*
X131184535Y-89607289D01*
X131129105Y-89376406D01*
X131084901Y-89269687D01*
X131040135Y-89161611D01*
X131040133Y-89161607D01*
X131038240Y-89157037D01*
X131027977Y-89140290D01*
X130916759Y-88958798D01*
X130916755Y-88958792D01*
X130914176Y-88954584D01*
X130759969Y-88774031D01*
X130579416Y-88619824D01*
X130575208Y-88617245D01*
X130575202Y-88617241D01*
X130381183Y-88498346D01*
X130376963Y-88495760D01*
X130372393Y-88493867D01*
X130372389Y-88493865D01*
X130280177Y-88455670D01*
X149031242Y-88455670D01*
X149049865Y-88692301D01*
X149051020Y-88697110D01*
X149104085Y-88918138D01*
X149105277Y-88923105D01*
X149107167Y-88927668D01*
X149107169Y-88927674D01*
X149120061Y-88958798D01*
X149196111Y-89142400D01*
X149320133Y-89344785D01*
X149474288Y-89525277D01*
X149654780Y-89679432D01*
X149857165Y-89803454D01*
X149861735Y-89805347D01*
X149861739Y-89805349D01*
X150071891Y-89892396D01*
X150071897Y-89892398D01*
X150076460Y-89894288D01*
X150081260Y-89895440D01*
X150081265Y-89895442D01*
X150186680Y-89920750D01*
X150307264Y-89949700D01*
X150543895Y-89968323D01*
X150780526Y-89949700D01*
X150901110Y-89920750D01*
X151006525Y-89895442D01*
X151006530Y-89895440D01*
X151011330Y-89894288D01*
X151015893Y-89892398D01*
X151015899Y-89892396D01*
X151226051Y-89805349D01*
X151226055Y-89805347D01*
X151230625Y-89803454D01*
X151419079Y-89687969D01*
X156178826Y-89687969D01*
X156184553Y-89695619D01*
X156355573Y-89800420D01*
X156364367Y-89804901D01*
X156574442Y-89891917D01*
X156583827Y-89894966D01*
X156804929Y-89948049D01*
X156814676Y-89949592D01*
X157041365Y-89967433D01*
X157051225Y-89967433D01*
X157277914Y-89949592D01*
X157287661Y-89948049D01*
X157508763Y-89894966D01*
X157518148Y-89891917D01*
X157728223Y-89804901D01*
X157737017Y-89800420D01*
X157904371Y-89697866D01*
X157913831Y-89687410D01*
X157910047Y-89678632D01*
X157059107Y-88827692D01*
X157045163Y-88820078D01*
X157043330Y-88820209D01*
X157036715Y-88824460D01*
X156185586Y-89675589D01*
X156178826Y-89687969D01*
X151419079Y-89687969D01*
X151433010Y-89679432D01*
X151613502Y-89525277D01*
X151767657Y-89344785D01*
X151891679Y-89142400D01*
X151967729Y-88958798D01*
X151980621Y-88927674D01*
X151980623Y-88927668D01*
X151982513Y-88923105D01*
X151983706Y-88918138D01*
X152036770Y-88697110D01*
X152037925Y-88692301D01*
X152056160Y-88460600D01*
X155534532Y-88460600D01*
X155552373Y-88687289D01*
X155553916Y-88697036D01*
X155606999Y-88918138D01*
X155610048Y-88927523D01*
X155697064Y-89137598D01*
X155701545Y-89146392D01*
X155804099Y-89313746D01*
X155814555Y-89323206D01*
X155823333Y-89319422D01*
X156674273Y-88468482D01*
X156680651Y-88456802D01*
X157410703Y-88456802D01*
X157410834Y-88458635D01*
X157415085Y-88465250D01*
X158266214Y-89316379D01*
X158278594Y-89323139D01*
X158286244Y-89317412D01*
X158391045Y-89146392D01*
X158395526Y-89137598D01*
X158482542Y-88927523D01*
X158485591Y-88918138D01*
X158538674Y-88697036D01*
X158540217Y-88687289D01*
X158558058Y-88460600D01*
X158558058Y-88450740D01*
X158540217Y-88224051D01*
X158538674Y-88214304D01*
X158485591Y-87993202D01*
X158482542Y-87983817D01*
X158395526Y-87773742D01*
X158391045Y-87764948D01*
X158288491Y-87597594D01*
X158278035Y-87588134D01*
X158269257Y-87591918D01*
X157418317Y-88442858D01*
X157410703Y-88456802D01*
X156680651Y-88456802D01*
X156681887Y-88454538D01*
X156681756Y-88452705D01*
X156677505Y-88446090D01*
X155826376Y-87594961D01*
X155813996Y-87588201D01*
X155806346Y-87593928D01*
X155701545Y-87764948D01*
X155697064Y-87773742D01*
X155610048Y-87983817D01*
X155606999Y-87993202D01*
X155553916Y-88214304D01*
X155552373Y-88224051D01*
X155534532Y-88450740D01*
X155534532Y-88460600D01*
X152056160Y-88460600D01*
X152056548Y-88455670D01*
X152037925Y-88219039D01*
X152005420Y-88083648D01*
X151983667Y-87993040D01*
X151983665Y-87993035D01*
X151982513Y-87988235D01*
X151980623Y-87983672D01*
X151980621Y-87983666D01*
X151893574Y-87773514D01*
X151893572Y-87773510D01*
X151891679Y-87768940D01*
X151767657Y-87566555D01*
X151613502Y-87386063D01*
X151433010Y-87231908D01*
X151419991Y-87223930D01*
X156178759Y-87223930D01*
X156182543Y-87232708D01*
X157033483Y-88083648D01*
X157047427Y-88091262D01*
X157049260Y-88091131D01*
X157055875Y-88086880D01*
X157907004Y-87235751D01*
X157913764Y-87223371D01*
X157908037Y-87215721D01*
X157737017Y-87110920D01*
X157728223Y-87106439D01*
X157518148Y-87019423D01*
X157508763Y-87016374D01*
X157287661Y-86963291D01*
X157277914Y-86961748D01*
X157051225Y-86943907D01*
X157041365Y-86943907D01*
X156814676Y-86961748D01*
X156804929Y-86963291D01*
X156583827Y-87016374D01*
X156574442Y-87019423D01*
X156364367Y-87106439D01*
X156355573Y-87110920D01*
X156188219Y-87213474D01*
X156178759Y-87223930D01*
X151419991Y-87223930D01*
X151230625Y-87107886D01*
X151226055Y-87105993D01*
X151226051Y-87105991D01*
X151015899Y-87018944D01*
X151015893Y-87018942D01*
X151011330Y-87017052D01*
X151006530Y-87015900D01*
X151006525Y-87015898D01*
X150901110Y-86990590D01*
X150780526Y-86961640D01*
X150543895Y-86943017D01*
X150307264Y-86961640D01*
X150186680Y-86990590D01*
X150081265Y-87015898D01*
X150081260Y-87015900D01*
X150076460Y-87017052D01*
X150071897Y-87018942D01*
X150071891Y-87018944D01*
X149861739Y-87105991D01*
X149861735Y-87105993D01*
X149857165Y-87107886D01*
X149654780Y-87231908D01*
X149474288Y-87386063D01*
X149320133Y-87566555D01*
X149196111Y-87768940D01*
X149194218Y-87773510D01*
X149194216Y-87773514D01*
X149107169Y-87983666D01*
X149107167Y-87983672D01*
X149105277Y-87988235D01*
X149104125Y-87993035D01*
X149104123Y-87993040D01*
X149082370Y-88083648D01*
X149049865Y-88219039D01*
X149031242Y-88455670D01*
X130280177Y-88455670D01*
X130162167Y-88406789D01*
X130162165Y-88406788D01*
X130157594Y-88404895D01*
X130064841Y-88382627D01*
X129931524Y-88350620D01*
X129931518Y-88350619D01*
X129926711Y-88349465D01*
X129690000Y-88330835D01*
X129453289Y-88349465D01*
X129448482Y-88350619D01*
X129448476Y-88350620D01*
X129315159Y-88382627D01*
X129222406Y-88404895D01*
X129217835Y-88406788D01*
X129217833Y-88406789D01*
X129007611Y-88493865D01*
X129007607Y-88493867D01*
X129003037Y-88495760D01*
X128998817Y-88498346D01*
X128804798Y-88617241D01*
X128804792Y-88617245D01*
X128800584Y-88619824D01*
X128620031Y-88774031D01*
X128465824Y-88954584D01*
X128463245Y-88958792D01*
X128463241Y-88958798D01*
X128345867Y-89150335D01*
X128293219Y-89197966D01*
X128238434Y-89210500D01*
X124641566Y-89210500D01*
X124573445Y-89190498D01*
X124534133Y-89150335D01*
X124416759Y-88958798D01*
X124416755Y-88958792D01*
X124414176Y-88954584D01*
X124259969Y-88774031D01*
X124079416Y-88619824D01*
X124075208Y-88617245D01*
X124075202Y-88617241D01*
X123881183Y-88498346D01*
X123876963Y-88495760D01*
X123872393Y-88493867D01*
X123872389Y-88493865D01*
X123662167Y-88406789D01*
X123662165Y-88406788D01*
X123657594Y-88404895D01*
X123564841Y-88382627D01*
X123431524Y-88350620D01*
X123431518Y-88350619D01*
X123426711Y-88349465D01*
X123190000Y-88330835D01*
X122953289Y-88349465D01*
X122948482Y-88350619D01*
X122948476Y-88350620D01*
X122815159Y-88382627D01*
X122722406Y-88404895D01*
X122717835Y-88406788D01*
X122717833Y-88406789D01*
X122507611Y-88493865D01*
X122507607Y-88493867D01*
X122503037Y-88495760D01*
X122498817Y-88498346D01*
X122304798Y-88617241D01*
X122304792Y-88617245D01*
X122300584Y-88619824D01*
X122120031Y-88774031D01*
X121965824Y-88954584D01*
X121963245Y-88958792D01*
X121963241Y-88958798D01*
X121852023Y-89140290D01*
X121841760Y-89157037D01*
X121839867Y-89161607D01*
X121839865Y-89161611D01*
X121795099Y-89269687D01*
X121750895Y-89376406D01*
X121695465Y-89607289D01*
X121676835Y-89844000D01*
X108343165Y-89844000D01*
X108324535Y-89607289D01*
X108269105Y-89376406D01*
X108224901Y-89269687D01*
X108180135Y-89161611D01*
X108180133Y-89161607D01*
X108178240Y-89157037D01*
X108167977Y-89140290D01*
X108056759Y-88958798D01*
X108056755Y-88958792D01*
X108054176Y-88954584D01*
X107899969Y-88774031D01*
X107719416Y-88619824D01*
X107715208Y-88617245D01*
X107715202Y-88617241D01*
X107521183Y-88498346D01*
X107516963Y-88495760D01*
X107512393Y-88493867D01*
X107512389Y-88493865D01*
X107302167Y-88406789D01*
X107302165Y-88406788D01*
X107297594Y-88404895D01*
X107204841Y-88382627D01*
X107071524Y-88350620D01*
X107071518Y-88350619D01*
X107066711Y-88349465D01*
X106830000Y-88330835D01*
X106593289Y-88349465D01*
X106588482Y-88350619D01*
X106588476Y-88350620D01*
X106455159Y-88382627D01*
X106362406Y-88404895D01*
X106357835Y-88406788D01*
X106357833Y-88406789D01*
X106147611Y-88493865D01*
X106147607Y-88493867D01*
X106143037Y-88495760D01*
X106138817Y-88498346D01*
X105944798Y-88617241D01*
X105944792Y-88617245D01*
X105940584Y-88619824D01*
X105760031Y-88774031D01*
X105605824Y-88954584D01*
X105603245Y-88958792D01*
X105603241Y-88958798D01*
X105485867Y-89150335D01*
X105433219Y-89197966D01*
X105378434Y-89210500D01*
X101781566Y-89210500D01*
X101713445Y-89190498D01*
X101674133Y-89150335D01*
X101556759Y-88958798D01*
X101556755Y-88958792D01*
X101554176Y-88954584D01*
X101399969Y-88774031D01*
X101219416Y-88619824D01*
X101215208Y-88617245D01*
X101215202Y-88617241D01*
X101021183Y-88498346D01*
X101016963Y-88495760D01*
X101012393Y-88493867D01*
X101012389Y-88493865D01*
X100802167Y-88406789D01*
X100802165Y-88406788D01*
X100797594Y-88404895D01*
X100704841Y-88382627D01*
X100571524Y-88350620D01*
X100571518Y-88350619D01*
X100566711Y-88349465D01*
X100330000Y-88330835D01*
X100093289Y-88349465D01*
X100088482Y-88350619D01*
X100088476Y-88350620D01*
X99955159Y-88382627D01*
X99862406Y-88404895D01*
X99857835Y-88406788D01*
X99857833Y-88406789D01*
X99647611Y-88493865D01*
X99647607Y-88493867D01*
X99643037Y-88495760D01*
X99638817Y-88498346D01*
X99444798Y-88617241D01*
X99444792Y-88617245D01*
X99440584Y-88619824D01*
X99260031Y-88774031D01*
X99105824Y-88954584D01*
X99103245Y-88958792D01*
X99103241Y-88958798D01*
X98992023Y-89140290D01*
X98981760Y-89157037D01*
X98979867Y-89161607D01*
X98979865Y-89161611D01*
X98935099Y-89269687D01*
X98890895Y-89376406D01*
X98835465Y-89607289D01*
X98816835Y-89844000D01*
X89408500Y-89844000D01*
X89408500Y-86576670D01*
X99462160Y-86576670D01*
X99467887Y-86584320D01*
X99639042Y-86689205D01*
X99647837Y-86693687D01*
X99857988Y-86780734D01*
X99867373Y-86783783D01*
X100088554Y-86836885D01*
X100098301Y-86838428D01*
X100325070Y-86856275D01*
X100334930Y-86856275D01*
X100561699Y-86838428D01*
X100571446Y-86836885D01*
X100792627Y-86783783D01*
X100802012Y-86780734D01*
X101012163Y-86693687D01*
X101020958Y-86689205D01*
X101188445Y-86586568D01*
X101197400Y-86576670D01*
X105962160Y-86576670D01*
X105967887Y-86584320D01*
X106139042Y-86689205D01*
X106147837Y-86693687D01*
X106357988Y-86780734D01*
X106367373Y-86783783D01*
X106588554Y-86836885D01*
X106598301Y-86838428D01*
X106825070Y-86856275D01*
X106834930Y-86856275D01*
X107061699Y-86838428D01*
X107071446Y-86836885D01*
X107292627Y-86783783D01*
X107302012Y-86780734D01*
X107512163Y-86693687D01*
X107520958Y-86689205D01*
X107688445Y-86586568D01*
X107697400Y-86576670D01*
X122322160Y-86576670D01*
X122327887Y-86584320D01*
X122499042Y-86689205D01*
X122507837Y-86693687D01*
X122717988Y-86780734D01*
X122727373Y-86783783D01*
X122948554Y-86836885D01*
X122958301Y-86838428D01*
X123185070Y-86856275D01*
X123194930Y-86856275D01*
X123421699Y-86838428D01*
X123431446Y-86836885D01*
X123652627Y-86783783D01*
X123662012Y-86780734D01*
X123872163Y-86693687D01*
X123880958Y-86689205D01*
X124048445Y-86586568D01*
X124057400Y-86576670D01*
X128822160Y-86576670D01*
X128827887Y-86584320D01*
X128999042Y-86689205D01*
X129007837Y-86693687D01*
X129217988Y-86780734D01*
X129227373Y-86783783D01*
X129448554Y-86836885D01*
X129458301Y-86838428D01*
X129685070Y-86856275D01*
X129694930Y-86856275D01*
X129921699Y-86838428D01*
X129931446Y-86836885D01*
X130152627Y-86783783D01*
X130162012Y-86780734D01*
X130372163Y-86693687D01*
X130380958Y-86689205D01*
X130548445Y-86586568D01*
X130557907Y-86576110D01*
X130554124Y-86567334D01*
X129702812Y-85716022D01*
X129688868Y-85708408D01*
X129687035Y-85708539D01*
X129680420Y-85712790D01*
X128828920Y-86564290D01*
X128822160Y-86576670D01*
X124057400Y-86576670D01*
X124057907Y-86576110D01*
X124054124Y-86567334D01*
X123202812Y-85716022D01*
X123188868Y-85708408D01*
X123187035Y-85708539D01*
X123180420Y-85712790D01*
X122328920Y-86564290D01*
X122322160Y-86576670D01*
X107697400Y-86576670D01*
X107697907Y-86576110D01*
X107694124Y-86567334D01*
X106842812Y-85716022D01*
X106828868Y-85708408D01*
X106827035Y-85708539D01*
X106820420Y-85712790D01*
X105968920Y-86564290D01*
X105962160Y-86576670D01*
X101197400Y-86576670D01*
X101197907Y-86576110D01*
X101194124Y-86567334D01*
X100342812Y-85716022D01*
X100328868Y-85708408D01*
X100327035Y-85708539D01*
X100320420Y-85712790D01*
X99468920Y-86564290D01*
X99462160Y-86576670D01*
X89408500Y-86576670D01*
X89408500Y-85348930D01*
X98817725Y-85348930D01*
X98835572Y-85575699D01*
X98837115Y-85585446D01*
X98890217Y-85806627D01*
X98893266Y-85816012D01*
X98980313Y-86026163D01*
X98984795Y-86034958D01*
X99087432Y-86202445D01*
X99097890Y-86211907D01*
X99106666Y-86208124D01*
X99957978Y-85356812D01*
X99964356Y-85345132D01*
X100694408Y-85345132D01*
X100694539Y-85346965D01*
X100698790Y-85353580D01*
X101550290Y-86205080D01*
X101562670Y-86211840D01*
X101570320Y-86206113D01*
X101675205Y-86034958D01*
X101679687Y-86026163D01*
X101766734Y-85816012D01*
X101769783Y-85806627D01*
X101822885Y-85585446D01*
X101824428Y-85575699D01*
X101842275Y-85348930D01*
X105317725Y-85348930D01*
X105335572Y-85575699D01*
X105337115Y-85585446D01*
X105390217Y-85806627D01*
X105393266Y-85816012D01*
X105480313Y-86026163D01*
X105484795Y-86034958D01*
X105587432Y-86202445D01*
X105597890Y-86211907D01*
X105606666Y-86208124D01*
X106457978Y-85356812D01*
X106464356Y-85345132D01*
X107194408Y-85345132D01*
X107194539Y-85346965D01*
X107198790Y-85353580D01*
X108050290Y-86205080D01*
X108062670Y-86211840D01*
X108070320Y-86206113D01*
X108175205Y-86034958D01*
X108179687Y-86026163D01*
X108266734Y-85816012D01*
X108269783Y-85806627D01*
X108322885Y-85585446D01*
X108324428Y-85575699D01*
X108342275Y-85348930D01*
X121677725Y-85348930D01*
X121695572Y-85575699D01*
X121697115Y-85585446D01*
X121750217Y-85806627D01*
X121753266Y-85816012D01*
X121840313Y-86026163D01*
X121844795Y-86034958D01*
X121947432Y-86202445D01*
X121957890Y-86211907D01*
X121966666Y-86208124D01*
X122817978Y-85356812D01*
X122824356Y-85345132D01*
X123554408Y-85345132D01*
X123554539Y-85346965D01*
X123558790Y-85353580D01*
X124410290Y-86205080D01*
X124422670Y-86211840D01*
X124430320Y-86206113D01*
X124535205Y-86034958D01*
X124539687Y-86026163D01*
X124626734Y-85816012D01*
X124629783Y-85806627D01*
X124682885Y-85585446D01*
X124684428Y-85575699D01*
X124702275Y-85348930D01*
X128177725Y-85348930D01*
X128195572Y-85575699D01*
X128197115Y-85585446D01*
X128250217Y-85806627D01*
X128253266Y-85816012D01*
X128340313Y-86026163D01*
X128344795Y-86034958D01*
X128447432Y-86202445D01*
X128457890Y-86211907D01*
X128466666Y-86208124D01*
X129317978Y-85356812D01*
X129324356Y-85345132D01*
X130054408Y-85345132D01*
X130054539Y-85346965D01*
X130058790Y-85353580D01*
X130910290Y-86205080D01*
X130922670Y-86211840D01*
X130930320Y-86206113D01*
X131035205Y-86034958D01*
X131039687Y-86026163D01*
X131126734Y-85816012D01*
X131129783Y-85806627D01*
X131182885Y-85585446D01*
X131184428Y-85575699D01*
X131202275Y-85348930D01*
X131202275Y-85339070D01*
X131184428Y-85112301D01*
X131182885Y-85102554D01*
X131129783Y-84881373D01*
X131126734Y-84871988D01*
X131039687Y-84661837D01*
X131035205Y-84653042D01*
X130932568Y-84485555D01*
X130922110Y-84476093D01*
X130913334Y-84479876D01*
X130062022Y-85331188D01*
X130054408Y-85345132D01*
X129324356Y-85345132D01*
X129325592Y-85342868D01*
X129325461Y-85341035D01*
X129321210Y-85334420D01*
X128469710Y-84482920D01*
X128457330Y-84476160D01*
X128449680Y-84481887D01*
X128344795Y-84653042D01*
X128340313Y-84661837D01*
X128253266Y-84871988D01*
X128250217Y-84881373D01*
X128197115Y-85102554D01*
X128195572Y-85112301D01*
X128177725Y-85339070D01*
X128177725Y-85348930D01*
X124702275Y-85348930D01*
X124702275Y-85339070D01*
X124684428Y-85112301D01*
X124682885Y-85102554D01*
X124629783Y-84881373D01*
X124626734Y-84871988D01*
X124539687Y-84661837D01*
X124535205Y-84653042D01*
X124432568Y-84485555D01*
X124422110Y-84476093D01*
X124413334Y-84479876D01*
X123562022Y-85331188D01*
X123554408Y-85345132D01*
X122824356Y-85345132D01*
X122825592Y-85342868D01*
X122825461Y-85341035D01*
X122821210Y-85334420D01*
X121969710Y-84482920D01*
X121957330Y-84476160D01*
X121949680Y-84481887D01*
X121844795Y-84653042D01*
X121840313Y-84661837D01*
X121753266Y-84871988D01*
X121750217Y-84881373D01*
X121697115Y-85102554D01*
X121695572Y-85112301D01*
X121677725Y-85339070D01*
X121677725Y-85348930D01*
X108342275Y-85348930D01*
X108342275Y-85339070D01*
X108324428Y-85112301D01*
X108322885Y-85102554D01*
X108269783Y-84881373D01*
X108266734Y-84871988D01*
X108179687Y-84661837D01*
X108175205Y-84653042D01*
X108072568Y-84485555D01*
X108062110Y-84476093D01*
X108053334Y-84479876D01*
X107202022Y-85331188D01*
X107194408Y-85345132D01*
X106464356Y-85345132D01*
X106465592Y-85342868D01*
X106465461Y-85341035D01*
X106461210Y-85334420D01*
X105609710Y-84482920D01*
X105597330Y-84476160D01*
X105589680Y-84481887D01*
X105484795Y-84653042D01*
X105480313Y-84661837D01*
X105393266Y-84871988D01*
X105390217Y-84881373D01*
X105337115Y-85102554D01*
X105335572Y-85112301D01*
X105317725Y-85339070D01*
X105317725Y-85348930D01*
X101842275Y-85348930D01*
X101842275Y-85339070D01*
X101824428Y-85112301D01*
X101822885Y-85102554D01*
X101769783Y-84881373D01*
X101766734Y-84871988D01*
X101679687Y-84661837D01*
X101675205Y-84653042D01*
X101572568Y-84485555D01*
X101562110Y-84476093D01*
X101553334Y-84479876D01*
X100702022Y-85331188D01*
X100694408Y-85345132D01*
X99964356Y-85345132D01*
X99965592Y-85342868D01*
X99965461Y-85341035D01*
X99961210Y-85334420D01*
X99109710Y-84482920D01*
X99097330Y-84476160D01*
X99089680Y-84481887D01*
X98984795Y-84653042D01*
X98980313Y-84661837D01*
X98893266Y-84871988D01*
X98890217Y-84881373D01*
X98837115Y-85102554D01*
X98835572Y-85112301D01*
X98817725Y-85339070D01*
X98817725Y-85348930D01*
X89408500Y-85348930D01*
X89408500Y-84111890D01*
X99462093Y-84111890D01*
X99465876Y-84120666D01*
X100317188Y-84971978D01*
X100331132Y-84979592D01*
X100332965Y-84979461D01*
X100339580Y-84975210D01*
X101191080Y-84123710D01*
X101197534Y-84111890D01*
X105962093Y-84111890D01*
X105965876Y-84120666D01*
X106817188Y-84971978D01*
X106831132Y-84979592D01*
X106832965Y-84979461D01*
X106839580Y-84975210D01*
X107691080Y-84123710D01*
X107697534Y-84111890D01*
X122322093Y-84111890D01*
X122325876Y-84120666D01*
X123177188Y-84971978D01*
X123191132Y-84979592D01*
X123192965Y-84979461D01*
X123199580Y-84975210D01*
X124051080Y-84123710D01*
X124057534Y-84111890D01*
X128822093Y-84111890D01*
X128825876Y-84120666D01*
X129677188Y-84971978D01*
X129691132Y-84979592D01*
X129692965Y-84979461D01*
X129699580Y-84975210D01*
X130551080Y-84123710D01*
X130557840Y-84111330D01*
X130552113Y-84103680D01*
X130380958Y-83998795D01*
X130372163Y-83994313D01*
X130162012Y-83907266D01*
X130152627Y-83904217D01*
X129931446Y-83851115D01*
X129921699Y-83849572D01*
X129694930Y-83831725D01*
X129685070Y-83831725D01*
X129458301Y-83849572D01*
X129448554Y-83851115D01*
X129227373Y-83904217D01*
X129217988Y-83907266D01*
X129007837Y-83994313D01*
X128999042Y-83998795D01*
X128831555Y-84101432D01*
X128822093Y-84111890D01*
X124057534Y-84111890D01*
X124057840Y-84111330D01*
X124052113Y-84103680D01*
X123880958Y-83998795D01*
X123872163Y-83994313D01*
X123662012Y-83907266D01*
X123652627Y-83904217D01*
X123431446Y-83851115D01*
X123421699Y-83849572D01*
X123194930Y-83831725D01*
X123185070Y-83831725D01*
X122958301Y-83849572D01*
X122948554Y-83851115D01*
X122727373Y-83904217D01*
X122717988Y-83907266D01*
X122507837Y-83994313D01*
X122499042Y-83998795D01*
X122331555Y-84101432D01*
X122322093Y-84111890D01*
X107697534Y-84111890D01*
X107697840Y-84111330D01*
X107692113Y-84103680D01*
X107520958Y-83998795D01*
X107512163Y-83994313D01*
X107302012Y-83907266D01*
X107292627Y-83904217D01*
X107071446Y-83851115D01*
X107061699Y-83849572D01*
X106834930Y-83831725D01*
X106825070Y-83831725D01*
X106598301Y-83849572D01*
X106588554Y-83851115D01*
X106367373Y-83904217D01*
X106357988Y-83907266D01*
X106147837Y-83994313D01*
X106139042Y-83998795D01*
X105971555Y-84101432D01*
X105962093Y-84111890D01*
X101197534Y-84111890D01*
X101197840Y-84111330D01*
X101192113Y-84103680D01*
X101020958Y-83998795D01*
X101012163Y-83994313D01*
X100802012Y-83907266D01*
X100792627Y-83904217D01*
X100571446Y-83851115D01*
X100561699Y-83849572D01*
X100334930Y-83831725D01*
X100325070Y-83831725D01*
X100098301Y-83849572D01*
X100088554Y-83851115D01*
X99867373Y-83904217D01*
X99857988Y-83907266D01*
X99647837Y-83994313D01*
X99639042Y-83998795D01*
X99471555Y-84101432D01*
X99462093Y-84111890D01*
X89408500Y-84111890D01*
X89408500Y-51062817D01*
X89428502Y-50994696D01*
X89445405Y-50973722D01*
X94153722Y-46265405D01*
X94216034Y-46231379D01*
X94242817Y-46228500D01*
X94261119Y-46228500D01*
X94329240Y-46248502D01*
G37*
G04 #@! TD.AperFunction*
G04 #@! TA.AperFunction,Conductor*
G36*
X195437032Y-73533039D02*
G01*
X195493868Y-73575586D01*
X195518679Y-73642106D01*
X195519000Y-73651095D01*
X195519000Y-73674385D01*
X195523475Y-73689624D01*
X195524865Y-73690829D01*
X195532548Y-73692500D01*
X197005000Y-73692500D01*
X197073121Y-73712502D01*
X197119614Y-73766158D01*
X197131000Y-73818500D01*
X197131000Y-74074500D01*
X197110998Y-74142621D01*
X197057342Y-74189114D01*
X197005000Y-74200500D01*
X195537116Y-74200500D01*
X195521877Y-74204975D01*
X195520672Y-74206365D01*
X195519001Y-74214048D01*
X195519001Y-74841169D01*
X195519371Y-74847990D01*
X195524895Y-74898852D01*
X195528521Y-74914104D01*
X195573676Y-75034554D01*
X195582214Y-75050148D01*
X195639013Y-75125935D01*
X195663861Y-75192441D01*
X195648808Y-75261824D01*
X195598634Y-75312054D01*
X195538187Y-75327500D01*
X193842595Y-75327500D01*
X193774474Y-75307498D01*
X193727981Y-75253842D01*
X193717877Y-75183568D01*
X193747371Y-75118988D01*
X193753500Y-75112405D01*
X195303905Y-73562000D01*
X195366217Y-73527974D01*
X195437032Y-73533039D01*
G37*
G04 #@! TD.AperFunction*
M02*
